<svg width="36" height="36" viewBox="0 0 36 36" fill="none" xmlns="http://www.w3.org/2000/svg">
<circle cx="18" cy="18" r="18" fill="#D9F4E5"/>
<path fill-rule="evenodd" clip-rule="evenodd" d="M19.9263 15.241C19.5052 15.128 19.056 15.1988 18.6901 15.4358L15.1509 17.7278C14.7784 17.969 14.5281 18.3591 14.4641 18.7982L13.6018 24.7114C13.5358 25.1637 13.6742 25.622 13.9795 25.9622L15.0393 27.1431C15.2926 27.4253 15.641 27.6042 16.0179 27.6454L23.1942 28.4306C23.6528 28.4808 24.1098 28.3228 24.4394 27.9999L26.8742 25.6148C27.2508 25.2459 27.4125 24.71 27.3028 24.1944L26.3389 19.6621C26.2785 19.3782 26.1391 19.1171 25.9368 18.909L23.529 16.4324C23.3355 16.2334 23.0919 16.0904 22.8239 16.0185L19.9263 15.241ZM17.9725 14.3278C18.6521 13.8877 19.4864 13.7562 20.2684 13.9661L23.166 14.7436C23.6637 14.8771 24.1161 15.1427 24.4754 15.5122L26.8832 17.9888C27.259 18.3754 27.5179 18.8602 27.63 19.3875L28.5939 23.9198C28.7976 24.8774 28.4973 25.8727 27.7979 26.5578L25.3631 28.9429C24.751 29.5424 23.9024 29.836 23.0506 29.7428L15.8744 28.9576C15.1744 28.881 14.5272 28.5488 14.0569 28.0248L12.9971 26.8438C12.4301 26.212 12.1731 25.361 12.2956 24.5209L13.1579 18.6077C13.2768 17.7923 13.7417 17.0678 14.4333 16.6199L17.9725 14.3278Z" fill="#40C97F"/>
<path fill-rule="evenodd" clip-rule="evenodd" d="M24.3354 16.3857L22.6178 18.7711C22.0804 19.5176 21.2167 19.96 20.2968 19.96H17.1923C16.7473 19.96 16.3085 19.8562 15.9107 19.6568L13.604 18.5006L14.1955 17.3205L16.5022 18.4767C16.7164 18.5841 16.9527 18.64 17.1923 18.64H20.2968C20.7921 18.64 21.2572 18.4018 21.5466 17.9999L23.2641 15.6144L24.3354 16.3857Z" fill="#40C97F"/>
<path d="M24.8167 19.6534C24.929 19.8488 24.8615 20.0983 24.666 20.2105C24.4705 20.3228 24.221 20.2554 24.1086 20.0599C23.9963 19.8645 24.0638 19.615 24.2593 19.5028C24.4548 19.3905 24.7044 19.4579 24.8167 19.6534Z" fill="#40C97F"/>
<path d="M24.1614 20.9714C24.2737 21.1669 24.2063 21.4163 24.0108 21.5286C23.8152 21.6409 23.5657 21.5734 23.4534 21.378C23.3411 21.1826 23.4085 20.9331 23.604 20.8208C23.7995 20.7085 24.0491 20.776 24.1614 20.9714Z" fill="#40C97F"/>
<path d="M25.427 20.7157C25.5393 20.9112 25.4719 21.1606 25.2764 21.2729C25.0809 21.3852 24.8313 21.3178 24.719 21.1223C24.6067 20.9269 24.6741 20.6774 24.8696 20.5651C25.0652 20.4529 25.3147 20.5203 25.427 20.7157Z" fill="#40C97F"/>
<path d="M18.7631 25.2828C18.6668 25.4866 18.4235 25.5737 18.2197 25.4774C18.0158 25.381 17.9286 25.1377 18.0249 24.9338C18.1212 24.73 18.3645 24.6429 18.5683 24.7392C18.7721 24.8356 18.8593 25.0789 18.7631 25.2828Z" fill="#40C97F"/>
<path d="M23.6132 27.168C23.5169 27.3718 23.2736 27.459 23.0698 27.3626C22.8659 27.2663 22.7787 27.0229 22.875 26.8191C22.9713 26.6152 23.2146 26.5281 23.4184 26.6245C23.6222 26.7208 23.7094 26.9642 23.6132 27.168Z" fill="#40C97F"/>
<path d="M17.3075 25.4976C17.2112 25.7014 16.9679 25.7886 16.7641 25.6922C16.5603 25.5958 16.4731 25.3525 16.5693 25.1487C16.6656 24.9448 16.9089 24.8577 17.1127 24.9541C17.3166 25.0504 17.4038 25.2938 17.3075 25.4976Z" fill="#40C97F"/>
<path d="M18.2396 26.3902C18.1434 26.5941 17.9001 26.6812 17.6962 26.5848C17.4924 26.4885 17.4052 26.2451 17.5015 26.0413C17.5977 25.8375 17.841 25.7504 18.0449 25.8467C18.2487 25.9431 18.3359 26.1864 18.2396 26.3902Z" fill="#40C97F"/>
<path d="M15.7143 21.3129C15.5108 21.2159 15.4244 20.9724 15.5214 20.7689C15.6184 20.5653 15.862 20.4789 16.0656 20.5758C16.2691 20.6727 16.3555 20.9163 16.2585 21.1198C16.1615 21.3233 15.9178 21.4098 15.7143 21.3129Z" fill="#40C97F"/>
<path d="M14.8183 22.2421C14.6148 22.1451 14.5284 21.9016 14.6254 21.6981C14.7224 21.4945 14.966 21.4081 15.1696 21.505C15.3731 21.6019 15.4595 21.8455 15.3625 22.049C15.2655 22.2525 15.0218 22.339 14.8183 22.2421Z" fill="#40C97F"/>
<path fill-rule="evenodd" clip-rule="evenodd" d="M12.2648 8.55396C11.9138 8.26607 11.4596 8.13553 11.0093 8.19308L9.69294 8.36132C9.21563 8.42233 8.78873 8.68866 8.52408 9.09054L7.342 10.8856C7.08159 11.281 7.00361 11.7693 7.1279 12.2262L7.55413 13.793C7.70486 14.3471 8.13284 14.783 8.68409 14.9439L11.3726 15.7283C12.0342 15.9214 12.7462 15.6829 13.1579 15.1302L14.5314 13.2865C14.9396 12.7387 14.9679 11.9961 14.6028 11.4187L13.5 9.67527C13.4058 9.52624 13.2882 9.39329 13.1519 9.28146L12.2648 8.55396ZM10.8698 7.10196C11.6204 7.00603 12.3773 7.22359 12.9624 7.70342L13.8494 8.43092C14.0767 8.61729 14.2726 8.83889 14.4297 9.08727L15.5324 10.8307C16.141 11.7929 16.0937 13.0307 15.4136 13.9437L14.04 15.7873C13.3538 16.7085 12.1672 17.1061 11.0645 16.7843L8.37597 15.9998C7.45721 15.7318 6.74392 15.0053 6.4927 14.0818L6.06647 12.5149C5.85933 11.7535 5.98929 10.9397 6.4233 10.2806L7.60539 8.48556C8.04647 7.81576 8.75797 7.37187 9.55349 7.2702L10.8698 7.10196Z" fill="#40C97F"/>
<path fill-rule="evenodd" clip-rule="evenodd" d="M14.0684 10.1277L13.124 10.5994C12.3767 10.9727 11.5002 10.9861 10.7418 10.6357L9.73471 10.1704C9.38073 10.0069 9.06557 9.76993 8.81016 9.47529L8.01353 8.55633L8.84471 7.8358L9.64133 8.75476C9.79458 8.93155 9.98367 9.07372 10.1961 9.17185L11.2031 9.63712C11.6582 9.84735 12.1841 9.83934 12.6325 9.61535L13.5769 9.14361L14.0684 10.1277Z" fill="#40C97F"/>
<path d="M10.2186 11.768C10.1224 11.9718 9.87907 12.0589 9.67523 11.9626C9.47139 11.8662 9.3842 11.6229 9.48047 11.4191C9.57674 11.2152 9.82003 11.1281 10.0239 11.2245C10.2277 11.3208 10.3149 11.5642 10.2186 11.768Z" fill="#40C97F"/>
<path d="M8.76306 11.9828C8.66679 12.1867 8.4235 12.2738 8.21966 12.1774C8.01583 12.0811 7.92863 11.8377 8.0249 11.6339C8.12117 11.4301 8.36446 11.3429 8.5683 11.4393C8.77214 11.5356 8.85933 11.779 8.76306 11.9828Z" fill="#40C97F"/>
<path d="M9.69519 12.8755C9.59892 13.0794 9.35563 13.1665 9.15179 13.0701C8.94796 12.9738 8.86076 12.7304 8.95703 12.5266C9.0533 12.3228 9.29659 12.2356 9.50043 12.332C9.70427 12.4283 9.79146 12.6717 9.69519 12.8755Z" fill="#40C97F"/>
<path d="M14.2631 12.868C14.1668 13.0719 13.9235 13.159 13.7197 13.0626C13.5158 12.9663 13.4286 12.7229 13.5249 12.5191C13.6212 12.3153 13.8645 12.2281 14.0683 12.3245C14.2721 12.4208 14.3593 12.6642 14.2631 12.868Z" fill="#40C97F"/>
<path d="M11.5131 14.518C11.4168 14.7218 11.1735 14.8089 10.9697 14.7126C10.7658 14.6162 10.6786 14.3729 10.7749 14.1691C10.8712 13.9652 11.1145 13.8781 11.3183 13.9745C11.5221 14.0708 11.6093 14.3142 11.5131 14.518Z" fill="#40C97F"/>
</svg>
