<svg width="24" height="24" viewBox="0 0 24 24" fill="none" xmlns="http://www.w3.org/2000/svg">
<path fill-rule="evenodd" clip-rule="evenodd" d="M14.4784 9.30998C14.0956 9.20726 13.6872 9.27161 13.3546 9.48705L10.1371 11.5707C9.79854 11.79 9.57099 12.1446 9.51278 12.5438L8.72883 17.9194C8.66886 18.3307 8.79468 18.7473 9.07224 19.0566L10.0357 20.1301C10.2659 20.3866 10.5827 20.5492 10.9254 20.5867L17.4492 21.3006C17.8662 21.3462 18.2816 21.2025 18.5812 20.909L20.7946 18.7407C21.137 18.4054 21.284 17.9182 21.1843 17.4494L20.3081 13.3292C20.2532 13.0711 20.1264 12.8337 19.9425 12.6445L17.7536 10.393C17.5777 10.2122 17.3562 10.0822 17.1126 10.0168L14.4784 9.30998ZM12.7023 8.47982C13.3201 8.07972 14.0785 7.96022 14.7894 8.15097L17.4236 8.85778C17.8761 8.9792 18.2874 9.22063 18.6139 9.55655L20.8029 11.808C21.1445 12.1594 21.3799 12.6002 21.4818 13.0796L22.3581 17.1998C22.5432 18.0704 22.2702 18.9751 21.6344 19.598L19.421 21.7662C18.8645 22.3113 18.093 22.5782 17.3187 22.4935L10.7948 21.7796C10.1585 21.71 9.57017 21.408 9.1426 20.9316L8.17915 19.858C7.66368 19.2837 7.43002 18.51 7.54139 17.7463L8.32534 12.3706C8.43345 11.6293 8.85603 10.9707 9.48481 10.5635L12.7023 8.47982Z" fill="#36393C"/>
<path fill-rule="evenodd" clip-rule="evenodd" d="M18.4867 10.3506L16.9253 12.5192C16.4367 13.1978 15.6516 13.6 14.8154 13.6H11.993C11.5885 13.6 11.1896 13.5056 10.8279 13.3243L8.73096 12.2732L9.26869 11.2005L11.3657 12.2516C11.5604 12.3492 11.7752 12.4 11.993 12.4H14.8154C15.2656 12.4 15.6884 12.1834 15.9515 11.818L17.5129 9.64941L18.4867 10.3506Z" fill="#36393C"/>
<path d="M18.9243 13.3212C19.0264 13.4989 18.965 13.7257 18.7873 13.8278C18.6096 13.9298 18.3827 13.8685 18.2806 13.6909C18.1785 13.5132 18.2398 13.2864 18.4175 13.1843C18.5953 13.0823 18.8221 13.1436 18.9243 13.3212Z" fill="#36393C"/>
<path d="M18.3286 14.5195C18.4307 14.6972 18.3693 14.9239 18.1916 15.026C18.0138 15.1281 17.787 15.0668 17.6849 14.8891C17.5828 14.7114 17.6441 14.4846 17.8218 14.3826C17.9996 14.2805 18.2264 14.3418 18.3286 14.5195Z" fill="#36393C"/>
<path d="M19.4789 14.2871C19.581 14.4647 19.5197 14.6915 19.342 14.7936C19.1642 14.8957 18.9374 14.8344 18.8353 14.6567C18.7332 14.479 18.7945 14.2522 18.9722 14.1501C19.15 14.0481 19.3768 14.1094 19.4789 14.2871Z" fill="#36393C"/>
<path d="M13.4208 18.4389C13.3333 18.6242 13.1121 18.7034 12.9268 18.6158C12.7415 18.5282 12.6622 18.3069 12.7497 18.1216C12.8373 17.9363 13.0584 17.8571 13.2437 17.9447C13.429 18.0323 13.5083 18.2536 13.4208 18.4389Z" fill="#36393C"/>
<path d="M17.83 20.1527C17.7424 20.338 17.5213 20.4172 17.336 20.3296C17.1507 20.242 17.0714 20.0208 17.1589 19.8355C17.2464 19.6502 17.4676 19.571 17.6529 19.6586C17.8382 19.7462 17.9175 19.9674 17.83 20.1527Z" fill="#36393C"/>
<path d="M12.0975 18.6342C12.01 18.8195 11.7889 18.8987 11.6035 18.8111C11.4182 18.7235 11.339 18.5023 11.4265 18.317C11.514 18.1317 11.7352 18.0525 11.9205 18.14C12.1058 18.2276 12.1851 18.4489 12.0975 18.6342Z" fill="#36393C"/>
<path d="M12.9452 19.4457C12.8577 19.631 12.6365 19.7102 12.4512 19.6226C12.2659 19.535 12.1866 19.3138 12.2741 19.1285C12.3617 18.9432 12.5828 18.864 12.7681 18.9516C12.9535 19.0392 13.0327 19.2604 12.9452 19.4457Z" fill="#36393C"/>
<path d="M10.6494 14.8299C10.4644 14.7418 10.3858 14.5203 10.474 14.3353C10.5622 14.1503 10.7837 14.0717 10.9687 14.1598C11.1537 14.2479 11.2322 14.4693 11.1441 14.6544C11.0559 14.8394 10.8344 14.918 10.6494 14.8299Z" fill="#36393C"/>
<path d="M9.83492 15.6746C9.6499 15.5865 9.57139 15.3651 9.65957 15.18C9.74775 14.995 9.96922 14.9164 10.1542 15.0045C10.3393 15.0926 10.4178 15.3141 10.3296 15.4991C10.2414 15.6841 10.0199 15.7627 9.83492 15.6746Z" fill="#36393C"/>
<path fill-rule="evenodd" clip-rule="evenodd" d="M7.51332 3.23087C7.1942 2.96915 6.78134 2.85048 6.37195 2.9028L5.17527 3.05575C4.74135 3.11121 4.35326 3.35333 4.11267 3.71867L3.03805 5.35055C2.80131 5.71004 2.73043 6.15391 2.84341 6.56925L3.23089 7.99366C3.36792 8.4974 3.75699 8.89366 4.25813 9.03988L6.7022 9.75304C7.3037 9.92854 7.95091 9.71169 8.32525 9.20923L9.5739 7.53318C9.94491 7.03518 9.97069 6.36005 9.63873 5.83521L8.63625 4.25025C8.55056 4.11477 8.4437 3.9939 8.31975 3.89224L7.51332 3.23087ZM6.24517 1.91087C6.92749 1.82367 7.61559 2.02145 8.14746 2.45765L8.95389 3.11902C9.16047 3.28845 9.33857 3.4899 9.48139 3.7157L10.4839 5.30066C11.0371 6.1754 10.9942 7.30061 10.3758 8.13061L9.12717 9.80666C8.50328 10.6441 7.42458 11.0055 6.4221 10.713L3.97802 9.99985C3.14279 9.75614 2.49434 9.09571 2.26595 8.25615L1.87848 6.83174C1.69017 6.1395 1.80832 5.39972 2.20287 4.80057L3.27749 3.16869C3.67847 2.55978 4.32529 2.15625 5.04849 2.06382L6.24517 1.91087Z" fill="#36393C"/>
<path fill-rule="evenodd" clip-rule="evenodd" d="M9.15303 4.66151L8.29449 5.09037C7.61508 5.42974 6.81823 5.44188 6.1288 5.12335L5.21328 4.70038C4.89148 4.5517 4.60498 4.33629 4.37278 4.06844L3.64858 3.23302L4.40419 2.578L5.12839 3.41342C5.26771 3.57413 5.43961 3.70338 5.63269 3.79258L6.54821 4.21556C6.96187 4.40667 7.43997 4.39939 7.84762 4.19576L8.70616 3.76691L9.15303 4.66151Z" fill="#36393C"/>
<path d="M5.65321 6.15272C5.56569 6.33802 5.34452 6.41723 5.15921 6.32964C4.97391 6.24204 4.89463 6.02082 4.98216 5.83552C5.06968 5.65022 5.29085 5.57101 5.47615 5.6586C5.66146 5.7462 5.74073 5.96742 5.65321 6.15272Z" fill="#36393C"/>
<path d="M4.32997 6.34804C4.24245 6.53334 4.02128 6.61254 3.83597 6.52495C3.65066 6.43735 3.57139 6.21613 3.65891 6.03083C3.74643 5.84553 3.9676 5.76632 4.15291 5.85392C4.33822 5.94151 4.41749 6.16274 4.32997 6.34804Z" fill="#36393C"/>
<path d="M5.17762 7.15956C5.0901 7.34486 4.86893 7.42407 4.68363 7.33647C4.49832 7.24888 4.41905 7.02765 4.50657 6.84235C4.59409 6.65705 4.81526 6.57785 5.00057 6.66544C5.18587 6.75303 5.26514 6.97426 5.17762 7.15956Z" fill="#36393C"/>
<path d="M9.32997 7.15272C9.24245 7.33802 9.02128 7.41723 8.83597 7.32964C8.65066 7.24204 8.57139 7.02082 8.65891 6.83552C8.74643 6.65022 8.9676 6.57101 9.15291 6.6586C9.33822 6.7462 9.41749 6.96742 9.32997 7.15272Z" fill="#36393C"/>
<path d="M6.82997 8.65272C6.74245 8.83802 6.52128 8.91723 6.33597 8.82964C6.15066 8.74204 6.07139 8.52082 6.15891 8.33552C6.24643 8.15022 6.4676 8.07101 6.65291 8.1586C6.83822 8.2462 6.91749 8.46742 6.82997 8.65272Z" fill="#36393C"/>
</svg>
