<svg width="280" height="263" viewBox="0 0 280 263" fill="none" xmlns="http://www.w3.org/2000/svg">
<path d="M135.052 42.8022L160.36 75.2459C160.872 75.9019 161.686 76.2472 162.514 76.1591L199.38 72.2319C199.815 72.1855 200.255 72.2587 200.652 72.4436L273.394 106.341C275.497 107.321 275.133 110.416 272.86 110.882L244.611 116.669C242.945 117.01 242.149 118.924 243.08 120.347L274.721 168.656C275.501 169.847 275.083 171.451 273.822 172.11L229.989 194.995V207.973C229.989 208.859 229.502 209.673 228.722 210.093L135.756 260.113C134.786 260.635 133.585 260.431 132.841 259.62L75.0826 196.63C74.7299 196.245 74.5118 195.756 74.461 195.237L72.7599 177.835L62.2664 180.683C61.3923 180.92 60.459 180.647 59.8511 179.976L2.99104 117.181C1.70613 115.762 2.5111 113.483 4.40225 113.186L57.2 104.896C58.9166 104.626 59.7911 102.683 58.8542 101.219L37.197 67.3903C36.3002 65.9896 37.06 64.1231 38.6801 63.747L132.609 41.9378C133.523 41.7257 134.476 42.063 135.052 42.8022Z" fill="#D9F4E5"/>
<path d="M72.7599 177.835L62.2664 180.683C61.3923 180.92 60.459 180.647 59.8511 179.976L2.99104 117.181C1.70613 115.762 2.5111 113.483 4.40225 113.186L57.2 104.896C58.9166 104.626 59.7911 102.683 58.8542 101.219L37.197 67.3903C36.3002 65.9896 37.06 64.1231 38.6801 63.747L132.609 41.9378C133.523 41.7257 134.476 42.063 135.052 42.8022L160.36 75.2459C160.872 75.9019 161.686 76.2472 162.514 76.1591L199.38 72.2319C199.815 72.1855 200.255 72.2587 200.652 72.4436L273.394 106.341C275.497 107.321 275.133 110.416 272.86 110.882L244.611 116.669C242.945 117.01 242.149 118.924 243.08 120.347L274.721 168.656C275.501 169.847 275.083 171.451 273.822 172.11L229.989 194.995M72.7599 177.835L129.453 162.448C130.507 162.162 131.621 162.621 132.167 163.566L167.674 224.931C168.319 226.047 169.729 226.456 170.872 225.859L229.989 194.995M72.7599 177.835L74.461 195.237C74.5118 195.756 74.7299 196.245 75.0826 196.63L132.841 259.62C133.585 260.431 134.786 260.635 135.756 260.113L228.722 210.093C229.502 209.673 229.989 208.859 229.989 207.973V194.995" stroke="#0D2819" stroke-width="4" stroke-linecap="round"/>
<mask id="mask0_2186_9162" style="mask-type:alpha" maskUnits="userSpaceOnUse" x="2" y="41" width="274" height="220">
<path d="M135.052 42.8022L160.36 75.2459C160.872 75.9019 161.686 76.2472 162.514 76.1591L199.38 72.2319C199.815 72.1855 200.255 72.2587 200.652 72.4436L273.394 106.341C275.497 107.321 275.133 110.416 272.86 110.882L244.611 116.669C242.945 117.01 242.149 118.924 243.08 120.347L274.721 168.656C275.501 169.847 275.083 171.451 273.822 172.11L229.989 194.995V207.973C229.989 208.859 229.502 209.673 228.722 210.093L135.756 260.113C134.786 260.635 133.585 260.431 132.841 259.62L75.0826 196.63C74.7299 196.245 74.5118 195.756 74.461 195.237L72.7599 177.835L62.2664 180.683C61.3923 180.92 60.4591 180.647 59.8511 179.976L2.99104 117.181C1.70613 115.762 2.5111 113.483 4.40225 113.186L57.2 104.896C58.9166 104.626 59.7911 102.683 58.8542 101.219L37.197 67.3903C36.3002 65.9896 37.06 64.1231 38.6801 63.747L132.609 41.9378C133.523 41.7257 134.476 42.063 135.052 42.8022Z" fill="#D9F4E5"/>
</mask>
<g mask="url(#mask0_2186_9162)">
<g style="mix-blend-mode:multiply">
<path d="M74.1465 179.056L129.619 163.852L171.192 227.191L228.802 196.693V208.049L163.073 243.65L129.619 208.623L75.2409 192.401L74.1465 179.056Z" fill="#8CDEB2"/>
</g>
</g>
<path d="M135.377 156.372L230.371 119.342C232.312 118.585 232.441 115.887 230.58 114.949L160.412 79.5807C159.883 79.314 159.274 79.2518 158.701 79.406L70.9355 103.063C69.0144 103.58 68.5149 106.073 70.0879 107.291L133.028 156.033C133.697 156.551 134.589 156.68 135.377 156.372Z" fill="#8CDEB2"/>
<path d="M131.625 175.958L134.106 254M159.59 81.6949V105.873M158.701 79.406L70.9355 103.063C69.0144 103.58 68.5149 106.073 70.0879 107.291L133.028 156.033C133.697 156.551 134.589 156.68 135.377 156.372L230.371 119.342C232.312 118.585 232.441 115.887 230.58 114.949L160.412 79.5807C159.883 79.314 159.274 79.2518 158.701 79.406Z" stroke="#33A165" stroke-width="3.61141" stroke-linecap="round"/>
<g style="mix-blend-mode:darken">
<path d="M69.4675 104.615L158.803 79.1665V146.132L131.855 156.465L69.4675 104.615Z" fill="#40C97F"/>
</g>
<path d="M168.816 98.423C160.474 119.194 137.516 129.435 117.596 121.44C97.6769 113.445 88.176 90.1768 96.5176 69.4059C104.859 48.6349 127.818 38.394 147.737 46.3887C167.656 54.3835 177.157 77.6521 168.816 98.423Z" fill="#40C97F" stroke="#195033" stroke-width="2.88555"/>
<path fill-rule="evenodd" clip-rule="evenodd" d="M103.886 44.2994C105.963 39.1263 111.85 29.7554 123.361 23.0705C139.546 13.6709 147.632 13.8148 149.702 15.4209C151.771 17.027 155.243 19.971 144.197 34.9224C142.475 37.2232 139.906 39.1305 138.125 40.2697C138.589 40.4357 139.052 40.6111 139.513 40.7962C141.259 41.4969 142.925 42.3124 144.508 43.2311C151.531 38.8397 164.35 33.5869 180.552 35.1694C204.808 37.5386 184.265 58.7581 176.973 64.3608C171.285 68.7313 167.362 71.2788 163.801 73.5252C164.492 80.1005 163.624 86.982 160.965 93.6033C152.523 114.625 129.231 125.064 108.941 116.921C101.511 113.938 95.5136 108.878 91.3108 102.628C81.9811 97.5082 76.9897 88.324 79.982 80.873C80.9029 78.58 82.4982 77.1707 84.5662 76.4287C84.9054 72.3127 85.8621 68.1644 87.4889 64.1134C90.9109 55.5925 96.7729 48.8101 103.886 44.2994Z" fill="url(#paint0_linear_2186_9162)"/>
<path d="M123.361 23.0705L124.085 24.318L123.361 23.0705ZM103.886 44.2994L104.659 45.5177C104.914 45.3557 105.112 45.1175 105.225 44.8367L103.886 44.2994ZM149.702 15.4209L150.587 14.2811L150.587 14.2811L149.702 15.4209ZM144.197 34.9224L145.352 35.7867L145.357 35.7795L144.197 34.9224ZM138.125 40.2697L137.347 39.0546C136.884 39.3512 136.629 39.8856 136.691 40.4322C136.753 40.9789 137.121 41.4428 137.639 41.6281L138.125 40.2697ZM144.508 43.2311L143.784 44.4789C144.246 44.7473 144.82 44.7379 145.273 44.4542L144.508 43.2311ZM180.552 35.1694L180.693 33.7336L180.552 35.1694ZM176.973 64.3608L176.094 63.217L176.973 64.3608ZM163.801 73.5252L163.031 72.3051C162.566 72.5983 162.308 73.13 162.366 73.6764L163.801 73.5252ZM91.3108 102.628L92.5082 101.823C92.3796 101.632 92.2072 101.475 92.0052 101.364L91.3108 102.628ZM84.5662 76.4287L85.0534 77.7866C85.586 77.5955 85.9578 77.1108 86.0042 76.547L84.5662 76.4287ZM122.636 21.823C110.811 28.6905 104.727 38.3316 102.547 43.7621L105.225 44.8367C107.199 39.921 112.889 30.8203 124.085 24.318L122.636 21.823ZM150.587 14.2811C149.751 13.6325 148.532 13.28 147.091 13.1777C145.618 13.073 143.765 13.219 141.517 13.709C137.022 14.6891 130.811 17.0753 122.636 21.823L124.085 24.318C132.095 19.6661 138.02 17.4245 142.132 16.5281C144.188 16.0799 145.756 15.9755 146.886 16.0558C148.05 16.1384 148.618 16.4062 148.817 16.5606L150.587 14.2811ZM145.357 35.7795C150.901 28.2765 153.012 23.5267 153.305 20.2971C153.457 18.619 153.121 17.321 152.504 16.2975C151.908 15.3116 151.108 14.686 150.587 14.2811L148.817 16.5606C149.33 16.9588 149.74 17.3035 150.033 17.7886C150.303 18.236 150.533 18.9096 150.431 20.0372C150.215 22.419 148.539 26.6169 143.036 34.0653L145.357 35.7795ZM138.903 41.4849C140.735 40.3126 143.475 38.2939 145.352 35.7867L143.042 34.0581C141.474 36.1524 139.076 37.9483 137.347 39.0546L138.903 41.4849ZM137.639 41.6281C138.086 41.7879 138.531 41.9568 138.975 42.135L140.05 39.4573C139.572 39.2654 139.092 39.0835 138.611 38.9114L137.639 41.6281ZM138.975 42.135C140.656 42.8098 142.261 43.5948 143.784 44.4789L145.233 41.9834C143.59 41.03 141.861 40.184 140.05 39.4573L138.975 42.135ZM145.273 44.4542C152.089 40.1917 164.594 35.0603 180.412 36.6052L180.693 33.7336C164.106 32.1135 150.972 37.4876 143.743 42.008L145.273 44.4542ZM180.412 36.6052C186.343 37.1846 188.985 38.8764 189.997 40.6557C191.008 42.4322 190.739 44.9048 189.291 47.93C187.871 50.8983 185.483 54.0297 182.954 56.796C180.434 59.5533 177.844 61.8718 176.094 63.217L177.852 65.5047C179.747 64.0484 182.46 61.6135 185.084 58.7423C187.701 55.8802 190.3 52.5082 191.895 49.175C193.462 45.8989 194.237 42.2723 192.506 39.2287C190.776 36.1879 186.889 34.3388 180.693 33.7336L180.412 36.6052ZM176.094 63.217C170.453 67.5514 166.569 70.073 163.031 72.3051L164.57 74.7453C168.154 72.4845 172.117 69.9111 177.852 65.5047L176.094 63.217ZM162.366 73.6764C163.033 80.0217 162.196 86.6665 159.626 93.066L162.304 94.1407C165.052 87.2975 165.952 80.1793 165.236 73.3741L162.366 73.6764ZM159.626 93.066C151.462 113.393 128.985 123.411 109.479 115.582L108.403 118.259C129.477 126.718 153.583 115.856 162.304 94.1407L159.626 93.066ZM109.479 115.582C102.328 112.712 96.5564 107.843 92.5082 101.823L90.1134 103.434C94.4707 109.913 100.693 115.165 108.403 118.259L109.479 115.582ZM92.0052 101.364C82.9711 96.4058 78.7253 87.8738 81.3209 81.4104L78.643 80.3356C75.2541 88.7742 80.991 98.6107 90.6164 103.893L92.0052 101.364ZM81.3209 81.4104C82.0817 79.5162 83.3567 78.3954 85.0534 77.7866L84.079 75.0708C81.6397 75.9461 79.7241 77.6438 78.643 80.3356L81.3209 81.4104ZM86.0042 76.547C86.3316 72.5736 87.2553 68.5667 88.8279 64.6508L86.15 63.5761C84.4688 67.7622 83.4791 72.0519 83.1282 76.3105L86.0042 76.547ZM88.8279 64.6508C92.1349 56.4163 97.7958 49.8697 104.659 45.5177L103.113 43.0812C95.7501 47.7506 89.687 54.7686 86.15 63.5761L88.8279 64.6508Z" fill="#195033"/>
<path d="M102.515 68.2058C101.29 71.2563 99.349 73.6328 97.2533 75.0293C95.1525 76.4292 93.0006 76.7904 91.2142 76.0734C89.4278 75.3564 88.1231 73.6079 87.5739 71.1445C87.026 68.6869 87.2675 65.6282 88.4926 62.5777C89.7177 59.5272 91.6589 57.1507 93.7546 55.7542C95.8553 54.3543 98.0072 53.9931 99.7937 54.7101C101.58 55.4271 102.885 57.1756 103.434 59.639C103.982 62.0966 103.74 65.1553 102.515 68.2058Z" fill="white" stroke="#195033" stroke-width="2.16416"/>
<path d="M132.833 87.3522C129.921 94.6036 123.186 98.2099 118.055 96.1507C112.925 94.0915 110.554 86.8308 113.466 79.5794C116.379 72.328 123.113 68.7217 128.244 70.7809C133.374 72.8401 135.745 80.1008 132.833 87.3522Z" fill="white" stroke="#195033" stroke-width="2.16416"/>
<ellipse cx="7.91729" cy="10.0743" rx="7.91729" ry="10.0743" transform="matrix(0.928042 0.372475 -0.37267 0.927964 116.346 73.369)" fill="#195033"/>
<ellipse cx="6.47778" cy="8.27535" rx="6.47778" ry="8.27535" transform="matrix(0.928042 0.372475 -0.37267 0.927964 90.5686 58.3706)" fill="#195033"/>
<ellipse cx="3.23889" cy="3.95777" rx="3.23889" ry="3.95777" transform="matrix(0.928042 0.372475 -0.37267 0.927964 114.863 82.854)" fill="white"/>
<ellipse cx="3.23889" cy="3.95777" rx="3.23889" ry="3.95777" transform="matrix(0.928042 0.372475 -0.37267 0.927964 90.5588 66.1207)" fill="white"/>
<path d="M142.904 43.7087L144.209 44.3237L145.439 41.7136L144.134 41.0986L142.904 43.7087ZM125.005 37.3841C124.209 37.4085 123.583 38.0738 123.607 38.8702C123.631 39.6666 124.297 40.2925 125.093 40.2682L125.005 37.3841ZM144.134 41.0986C138.379 38.3864 133.208 37.1337 125.005 37.3841L125.093 40.2682C132.854 40.0312 137.571 41.1959 142.904 43.7087L144.134 41.0986Z" fill="#195033"/>
<path d="M101.428 83.475C98.7369 80.1979 91.8979 74.1799 84.4634 76.4687" stroke="#195033" stroke-width="2.88555" stroke-linecap="round"/>
<ellipse cx="5.39809" cy="3.23821" rx="5.39809" ry="3.23821" transform="matrix(0.822593 0.568551 -0.568837 0.822506 87.8726 77.0236)" fill="#195033"/>
<path d="M150.004 51.2631C155.14 49.2279 165.941 47.3362 167.943 47.75C168.058 47.7738 168.169 47.8051 168.285 47.825C169.765 48.0791 171.979 49.0832 170.178 51.3415C168.498 53.4473 162.357 58.7463 158.597 61.888C157.951 62.4275 156.987 62.2961 156.49 61.6175C154.739 59.2287 152.01 55.7541 149.713 53.5444C148.984 52.843 149.063 51.6358 150.004 51.2631Z" fill="#40C97F"/>
<path d="M169.776 47.5151C168.106 46.8449 153.467 49.4986 149.788 51.8991" stroke="#195033" stroke-width="2.88555" stroke-linecap="round"/>
<path d="M102.515 68.2058C101.29 71.2563 99.349 73.6328 97.2533 75.0293C95.1525 76.4292 93.0006 76.7904 91.2142 76.0734C89.4278 75.3564 88.1231 73.6079 87.5739 71.1445C87.026 68.6869 87.2675 65.6282 88.4926 62.5777C89.7177 59.5272 91.6589 57.1507 93.7546 55.7542C95.8553 54.3543 98.0072 53.9931 99.7937 54.7101C101.58 55.4271 102.885 57.1756 103.434 59.639C103.982 62.0966 103.74 65.1553 102.515 68.2058Z" fill="white" stroke="#195033" stroke-width="2.16416"/>
<path d="M132.833 87.3522C129.921 94.6036 123.186 98.2099 118.055 96.1507C112.925 94.0915 110.554 86.8308 113.466 79.5794C116.379 72.328 123.113 68.7217 128.244 70.7809C133.374 72.8401 135.745 80.1008 132.833 87.3522Z" fill="white" stroke="#195033" stroke-width="2.16416"/>
<ellipse cx="7.91729" cy="10.0743" rx="7.91729" ry="10.0743" transform="matrix(0.928042 0.372475 -0.37267 0.927964 119.667 67.9791)" fill="#195033"/>
<ellipse cx="6.47778" cy="8.27535" rx="6.47778" ry="8.27535" transform="matrix(0.928042 0.372475 -0.37267 0.927964 93.7756 52.6323)" fill="#195033"/>
<ellipse cx="3.23889" cy="3.95777" rx="3.23889" ry="3.95777" transform="matrix(0.928042 0.372475 -0.37267 0.927964 121.618 70.5367)" fill="white"/>
<ellipse cx="3.23889" cy="3.95777" rx="3.23889" ry="3.95777" transform="matrix(0.928042 0.372475 -0.37267 0.927964 95.0388 55.2173)" fill="white"/>
<mask id="path-28-inside-1_2186_9162" fill="white">
<path fill-rule="evenodd" clip-rule="evenodd" d="M145.198 100.111C140.705 92.5745 136.287 81.5947 144.412 80.4972C152.34 79.4262 161.126 85.9588 166.16 90.9509C166.11 90.757 166.058 90.5529 166.004 90.338C165.051 86.529 163.464 77.9579 168.544 76.3705C173.497 74.8228 184.679 85.1756 187.892 94.6801C187.894 94.687 187.896 94.6939 187.899 94.7009C191.316 95.0112 194.355 96.3949 196.349 98.8399C199.836 103.114 199.093 109.364 195.018 114.385C200.202 118.252 202.458 124.127 200.129 129.127C197.766 134.197 191.4 136.84 184.616 136.078C184.616 137.575 179.671 139.914 174.568 142.327C172.214 143.44 169.827 144.569 167.876 145.638C162.011 146.369 161.549 145.263 159.186 139.609C159.135 139.487 159.083 139.363 159.03 139.236C152.604 141.703 145.715 140.72 142.155 136.356C138.668 132.082 139.412 125.833 143.486 120.811C138.303 116.945 136.046 111.069 138.376 106.07C139.659 103.315 142.125 101.276 145.198 100.111Z"/>
</mask>
<path fill-rule="evenodd" clip-rule="evenodd" d="M145.198 100.111C140.705 92.5745 136.287 81.5947 144.412 80.4972C152.34 79.4262 161.126 85.9588 166.16 90.9509C166.11 90.757 166.058 90.5529 166.004 90.338C165.051 86.529 163.464 77.9579 168.544 76.3705C173.497 74.8228 184.679 85.1756 187.892 94.6801C187.894 94.687 187.896 94.6939 187.899 94.7009C191.316 95.0112 194.355 96.3949 196.349 98.8399C199.836 103.114 199.093 109.364 195.018 114.385C200.202 118.252 202.458 124.127 200.129 129.127C197.766 134.197 191.4 136.84 184.616 136.078C184.616 137.575 179.671 139.914 174.568 142.327C172.214 143.44 169.827 144.569 167.876 145.638C162.011 146.369 161.549 145.263 159.186 139.609C159.135 139.487 159.083 139.363 159.03 139.236C152.604 141.703 145.715 140.72 142.155 136.356C138.668 132.082 139.412 125.833 143.486 120.811C138.303 116.945 136.046 111.069 138.376 106.07C139.659 103.315 142.125 101.276 145.198 100.111Z" fill="url(#paint1_linear_2186_9162)"/>
<path d="M144.412 80.4972L144.847 83.7239L144.412 80.4972ZM145.198 100.111L147.994 98.444C148.487 99.271 148.589 100.274 148.272 101.183C147.955 102.092 147.252 102.814 146.352 103.156L145.198 100.111ZM166.16 90.9509L169.312 90.1379C169.678 91.557 169.051 93.0456 167.78 93.775C166.509 94.5043 164.907 94.2946 163.867 93.2627L166.16 90.9509ZM166.004 90.338L162.845 91.128L162.845 91.128L166.004 90.338ZM168.544 76.3705L167.573 73.2627L168.544 76.3705ZM187.892 94.6801L190.976 93.6376L190.976 93.6378L187.892 94.6801ZM187.899 94.7009L187.604 97.9435C186.3 97.8251 185.194 96.9368 184.796 95.689L187.899 94.7009ZM196.349 98.8399L193.826 100.898L193.826 100.898L196.349 98.8399ZM195.018 114.385L193.071 116.995C192.361 116.465 191.897 115.668 191.787 114.788C191.678 113.908 191.931 113.022 192.49 112.333L195.018 114.385ZM200.129 129.127L197.177 127.752L197.177 127.752L200.129 129.127ZM184.616 136.078H181.36C181.36 135.151 181.755 134.268 182.446 133.651C183.137 133.033 184.059 132.739 184.98 132.843L184.616 136.078ZM174.568 142.327L173.176 139.383H173.176L174.568 142.327ZM167.876 145.638L169.441 148.493C169.081 148.691 168.687 148.818 168.279 148.869L167.876 145.638ZM159.186 139.609L156.182 140.865L156.182 140.865L159.186 139.609ZM159.03 139.236L157.863 136.196C159.507 135.565 161.354 136.355 162.034 137.979L159.03 139.236ZM142.155 136.356L144.678 134.298L144.678 134.298L142.155 136.356ZM143.486 120.811L145.433 118.201C146.144 118.732 146.607 119.528 146.717 120.408C146.827 121.288 146.573 122.174 146.015 122.863L143.486 120.811ZM138.376 106.07L141.327 107.445L141.327 107.445L138.376 106.07ZM144.847 83.7239C143.659 83.8844 143.463 84.2714 143.381 84.4343C143.18 84.8306 143.007 85.7202 143.283 87.3435C143.83 90.5574 145.801 94.7647 147.994 98.444L142.401 101.778C140.102 97.9209 137.618 92.87 136.863 88.4355C136.489 86.2346 136.454 83.7024 137.57 81.4958C138.803 79.0558 141.102 77.6588 143.976 77.2705L144.847 83.7239ZM163.867 93.2627C161.493 90.9085 158.273 88.2342 154.788 86.2957C151.253 84.3292 147.814 83.3231 144.847 83.7239L143.976 77.2705C148.937 76.6003 153.855 78.3249 157.954 80.605C162.103 82.9131 165.793 86.0011 168.452 88.6391L163.867 93.2627ZM169.163 89.548C169.215 89.7559 169.265 89.9523 169.312 90.1379L163.007 91.7638C162.955 91.5617 162.901 91.3499 162.845 91.128L169.163 89.548ZM169.515 79.4783C169.098 79.6086 168.373 80.1038 168.265 82.6586C168.166 84.9925 168.705 87.7162 169.163 89.5481L162.845 91.128C162.351 89.1508 161.619 85.6844 161.759 82.3837C161.889 79.3038 162.91 74.7198 167.573 73.2627L169.515 79.4783ZM184.807 95.7226C183.417 91.6092 180.183 87.0791 176.642 83.7545C174.886 82.1055 173.178 80.8717 171.744 80.1516C171.03 79.7931 170.46 79.6003 170.042 79.5187C169.619 79.4361 169.477 79.4903 169.515 79.4783L167.573 73.2627C170.046 72.4899 172.647 73.3183 174.666 74.3322C176.823 75.415 179.04 77.0731 181.099 79.007C185.191 82.8479 189.154 88.2465 190.976 93.6376L184.807 95.7226ZM184.796 95.689C184.8 95.7004 184.803 95.7116 184.807 95.7223L190.976 93.6378C190.985 93.6625 190.993 93.6874 191.001 93.7127L184.796 95.689ZM193.826 100.898C192.5 99.2721 190.349 98.1927 187.604 97.9435L188.193 91.4582C192.283 91.8296 196.21 93.5177 198.872 96.7819L193.826 100.898ZM192.49 112.333C195.951 108.068 196.018 103.585 193.826 100.898L198.872 96.7817C203.654 102.644 202.235 110.659 197.547 116.437L192.49 112.333ZM197.177 127.752C198.642 124.609 197.475 120.28 193.071 116.995L196.965 111.775C202.929 116.224 206.275 123.645 203.08 130.502L197.177 127.752ZM184.98 132.843C190.93 133.511 195.612 131.112 197.177 127.752L203.08 130.502C199.921 137.283 191.87 140.169 184.253 139.314L184.98 132.843ZM173.176 139.383C175.768 138.157 178.149 137.029 179.887 136.034C180.767 135.53 181.333 135.143 181.64 134.878C181.794 134.746 181.78 134.731 181.708 134.837C181.645 134.928 181.36 135.368 181.36 136.078H187.872C187.872 137.162 187.432 138.003 187.08 138.518C186.717 139.048 186.277 139.48 185.887 139.815C185.108 140.485 184.118 141.115 183.124 141.684C181.114 142.835 178.47 144.083 175.96 145.27L173.176 139.383ZM166.311 142.783C168.364 141.657 170.848 140.484 173.176 139.383L175.96 145.27C173.58 146.395 171.289 147.48 169.441 148.493L166.311 142.783ZM162.191 138.354C162.802 139.817 163.212 140.792 163.597 141.522C163.975 142.24 164.177 142.417 164.22 142.45C164.23 142.458 164.24 142.467 164.28 142.481C164.33 142.499 164.453 142.535 164.696 142.559C165.227 142.612 166.062 142.583 167.473 142.407L168.279 148.869C165.445 149.222 162.542 149.399 160.216 147.586C159.114 146.727 158.391 145.613 157.835 144.556C157.285 143.512 156.752 142.229 156.182 140.865L162.191 138.354ZM162.034 137.979C162.087 138.107 162.14 138.232 162.191 138.354L156.182 140.865C156.131 140.742 156.079 140.618 156.026 140.492L162.034 137.979ZM144.678 134.298C147.037 137.191 152.222 138.362 157.863 136.196L160.197 142.275C152.986 145.044 144.392 144.25 139.632 138.414L144.678 134.298ZM146.015 122.863C142.553 127.128 142.486 131.611 144.678 134.298L139.632 138.415C134.85 132.553 136.27 124.537 140.958 118.76L146.015 122.863ZM141.327 107.445C139.863 110.587 141.03 114.917 145.433 118.201L141.539 123.421C135.576 118.972 132.23 111.551 135.425 104.694L141.327 107.445ZM146.352 103.156C143.9 104.085 142.181 105.612 141.327 107.445L135.424 104.694C137.138 101.017 140.35 98.4669 144.043 97.0666L146.352 103.156Z" fill="#0D2819" mask="url(#path-28-inside-1_2186_9162)"/>
<path d="M166.437 92.8783C167.484 92.5094 171.035 92.2871 176.87 94.3483" stroke="#0D2819" stroke-width="2.6048" stroke-linecap="round"/>
<path d="M180.005 119.703C180.319 121.086 182.02 121.994 183.926 121.562C185.832 121.129 186.975 119.576 186.661 118.193C186.347 116.811 184.646 115.902 182.74 116.335C180.833 116.767 179.691 118.321 180.005 119.703Z" fill="#0D2819" stroke="#0D2819" stroke-width="0.651199"/>
<path d="M185.046 112.915C185.046 115.171 185.658 117.168 186.595 118.574C187.537 119.986 188.731 120.707 189.917 120.707C191.104 120.707 192.298 119.986 193.24 118.574C194.177 117.168 194.788 115.171 194.788 112.915C194.788 110.66 194.177 108.662 193.24 107.257C192.298 105.844 191.104 105.123 189.917 105.123C188.731 105.123 187.537 105.844 186.595 107.257C185.658 108.662 185.046 110.66 185.046 112.915Z" fill="white" stroke="#0D2819" stroke-width="1.9536"/>
<path d="M158.972 112.313C158.972 117.752 162.382 121.729 166.117 121.729C169.853 121.729 173.262 117.752 173.262 112.313C173.262 106.875 169.853 102.897 166.117 102.897C162.382 102.897 158.972 106.875 158.972 112.313Z" fill="white" stroke="#0D2819" stroke-width="1.9536"/>
<path d="M160.92 110.04C160.92 113.694 163.308 116.535 166.118 116.535C168.927 116.535 171.315 113.694 171.315 110.04C171.315 106.385 168.927 103.545 166.118 103.545C163.308 103.545 160.92 106.385 160.92 110.04Z" fill="#0D2819" stroke="#0D2819" stroke-width="0.651199"/>
<path d="M186.019 110.546C186.019 112.099 186.475 113.492 187.195 114.489C187.915 115.486 188.882 116.066 189.917 116.066C190.953 116.066 191.919 115.486 192.64 114.489C193.36 113.492 193.815 112.099 193.815 110.546C193.815 108.992 193.36 107.599 192.64 106.603C191.919 105.606 190.953 105.026 189.917 105.026C188.882 105.026 187.915 105.606 187.195 106.603C186.475 107.599 186.019 108.992 186.019 110.546Z" fill="#0D2819" stroke="#0D2819" stroke-width="0.651199"/>
<path d="M163.408 106.826C163.408 108.261 164.426 109.425 165.682 109.425C166.938 109.425 167.956 108.261 167.956 106.826C167.956 105.391 166.938 104.228 165.682 104.228C164.426 104.228 163.408 105.391 163.408 106.826Z" fill="white"/>
<ellipse cx="2.27413" cy="2.59822" rx="2.27413" ry="2.59822" transform="matrix(-1 0 0 1 192.192 105.312)" fill="white"/>
<path d="M74.1006 110.296L133.028 156.03C133.697 156.549 134.59 156.679 135.379 156.371L230.43 119.319C232.362 118.565 232.501 115.885 230.658 114.935L210.057 104.324M131.626 175.957L134.107 253.999" stroke="#33A165" stroke-width="3" stroke-linecap="round"/>
<defs>
<linearGradient id="paint0_linear_2186_9162" x1="154.393" y1="17.1952" x2="113.615" y2="118.797" gradientUnits="userSpaceOnUse">
<stop stop-color="#F3FFC4"/>
<stop offset="1" stop-color="#E6FF86"/>
</linearGradient>
<linearGradient id="paint1_linear_2186_9162" x1="169.252" y1="76.2158" x2="169.252" y2="145.839" gradientUnits="userSpaceOnUse">
<stop stop-color="#5B6168"/>
<stop offset="1" stop-color="#36393C"/>
</linearGradient>
</defs>
</svg>
