<svg width="158" height="54" viewBox="0 0 158 54" fill="none" xmlns="http://www.w3.org/2000/svg">
<g filter="url(#filter0_d_1324_16629)">
<rect x="4" y="4" width="146" height="42" rx="21" fill="#40C97F"/>
<rect x="4.5" y="4.5" width="145" height="41" rx="20.5" stroke="#8CDEB2"/>
<path d="M42.75 25C42.75 25.2155 42.6644 25.4222 42.512 25.5745C42.3597 25.7269 42.153 25.8125 41.9375 25.8125H33.8125V33.9375C33.8125 34.153 33.7269 34.3597 33.5745 34.512C33.4222 34.6644 33.2155 34.75 33 34.75C32.7845 34.75 32.5778 34.6644 32.4255 34.512C32.2731 34.3597 32.1875 34.153 32.1875 33.9375V25.8125H24.0625C23.847 25.8125 23.6403 25.7269 23.488 25.5745C23.3356 25.4222 23.25 25.2155 23.25 25C23.25 24.7845 23.3356 24.5778 23.488 24.4255C23.6403 24.2731 23.847 24.1875 24.0625 24.1875H32.1875V16.0625C32.1875 15.847 32.2731 15.6403 32.4255 15.488C32.5778 15.3356 32.7845 15.25 33 15.25C33.2155 15.25 33.4222 15.3356 33.5745 15.488C33.7269 15.6403 33.8125 15.847 33.8125 16.0625V24.1875H41.9375C42.153 24.1875 42.3597 24.2731 42.512 24.4255C42.6644 24.5778 42.75 24.7845 42.75 25Z" fill="white"/>
<path d="M51.776 18.712V20.072C51.776 21.0427 52.0747 21.928 52.672 22.728C53.2693 23.5173 54.1067 24.088 55.184 24.44L54.336 25.816C53.536 25.5493 52.848 25.16 52.272 24.648C51.696 24.1253 51.2427 23.512 50.912 22.808C50.592 23.5653 50.1333 24.232 49.536 24.808C48.9387 25.3733 48.2293 25.7947 47.408 26.072L46.528 24.664C47.6373 24.2907 48.4907 23.688 49.088 22.856C49.696 22.0133 50 21.0853 50 20.072V18.712H51.776ZM48.656 27.224H58.288V32.296H56.528V28.648H48.656V27.224ZM56.528 18.056H58.288V26.568H56.528V18.056ZM71.6804 18.04V22.072H73.6644V23.496H71.6804V28.344H69.9204V18.04H71.6804ZM61.1204 19.208H67.4564V20.632H62.8804V24.52C64.2457 24.5093 65.3497 24.472 66.1924 24.408C67.035 24.344 67.8564 24.232 68.6564 24.072L68.8324 25.464C67.9364 25.656 67.0084 25.7893 66.0484 25.864C65.099 25.928 63.8404 25.96 62.2724 25.96H61.1204V19.208ZM62.6244 27.288H64.3844V30.6H72.2404V32.008H62.6244V27.288ZM91.0803 26.6V28.04H85.5123V32.312H83.7363V28.04H78.2003V26.6H91.0803ZM78.9203 24.36C79.8269 24.2427 80.6323 24.024 81.3363 23.704C82.0509 23.3733 82.6109 22.984 83.0163 22.536C83.4216 22.088 83.6563 21.6187 83.7203 21.128H79.3843V19.72H83.7363V18.072H85.5123V19.72H89.8803V21.128H85.5283C85.5923 21.608 85.8269 22.0773 86.2323 22.536C86.6483 22.984 87.2083 23.3733 87.9123 23.704C88.6163 24.024 89.4216 24.2427 90.3283 24.36L89.7043 25.736C88.5523 25.5973 87.5336 25.288 86.6483 24.808C85.7736 24.328 85.1016 23.736 84.6323 23.032C84.1736 23.736 83.5016 24.328 82.6163 24.808C81.7309 25.2773 80.7016 25.5867 79.5283 25.736L78.9203 24.36ZM103.257 18.024V23.608H105.353V25.064H103.257V32.28H101.481V18.024H103.257ZM92.1206 28.392C93.838 27.5067 95.1606 26.4507 96.0886 25.224C97.0166 23.9973 97.566 22.5733 97.7366 20.952H92.8726V19.528H99.5126C99.5126 24.1787 97.3793 27.576 93.1126 29.72L92.1206 28.392ZM117.257 18.056V23.72H119.417V25.176H117.257V32.296H115.497V18.056H117.257ZM106.089 20.216H109.401V18.264H111.177V20.216H114.441V21.624H106.089V20.216ZM106.745 25.928C106.745 25.288 106.9 24.712 107.209 24.2C107.518 23.688 107.94 23.2933 108.473 23.016C109.017 22.728 109.625 22.584 110.297 22.584C110.98 22.584 111.593 22.728 112.137 23.016C112.681 23.2933 113.102 23.688 113.401 24.2C113.71 24.7013 113.865 25.2773 113.865 25.928C113.865 26.5787 113.71 27.16 113.401 27.672C113.092 28.1733 112.665 28.568 112.121 28.856C111.588 29.1333 110.98 29.272 110.297 29.272C109.625 29.272 109.017 29.1333 108.473 28.856C107.94 28.568 107.518 28.168 107.209 27.656C106.9 27.144 106.745 26.568 106.745 25.928ZM108.441 25.928C108.441 26.504 108.612 26.968 108.953 27.32C109.294 27.6613 109.742 27.832 110.297 27.832C110.852 27.832 111.3 27.6613 111.641 27.32C111.993 26.968 112.169 26.504 112.169 25.928C112.169 25.352 111.993 24.888 111.641 24.536C111.3 24.184 110.852 24.008 110.297 24.008C109.753 24.008 109.305 24.184 108.953 24.536C108.612 24.888 108.441 25.352 108.441 25.928ZM131.929 18.04V32.28H130.169V18.04H131.929ZM120.233 28.392C122.047 27.5173 123.407 26.472 124.313 25.256C125.22 24.04 125.753 22.6053 125.913 20.952H120.937V19.528H127.721C127.721 21.8107 127.215 23.8053 126.201 25.512C125.188 27.2187 123.503 28.6427 121.145 29.784L120.233 28.392Z" fill="white"/>
</g>
<defs>
<filter id="filter0_d_1324_16629" x="0" y="0" width="158" height="54" filterUnits="userSpaceOnUse" color-interpolation-filters="sRGB">
<feFlood flood-opacity="0" result="BackgroundImageFix"/>
<feColorMatrix in="SourceAlpha" type="matrix" values="0 0 0 0 0 0 0 0 0 0 0 0 0 0 0 0 0 0 127 0" result="hardAlpha"/>
<feOffset dx="2" dy="2"/>
<feGaussianBlur stdDeviation="3"/>
<feComposite in2="hardAlpha" operator="out"/>
<feColorMatrix type="matrix" values="0 0 0 0 0.600087 0 0 0 0 0.62296 0 0 0 0 0.645833 0 0 0 0.2 0"/>
<feBlend mode="normal" in2="BackgroundImageFix" result="effect1_dropShadow_1324_16629"/>
<feBlend mode="normal" in="SourceGraphic" in2="effect1_dropShadow_1324_16629" result="shape"/>
</filter>
</defs>
</svg>
