<svg width="188" height="36" viewBox="0 0 188 36" fill="none" xmlns="http://www.w3.org/2000/svg">
<rect width="188" height="27" rx="13.5" fill="#B2E9CC"/>
<path d="M23.9816 8.328H25.1576V11.448H26.6576V12.42H25.1576V16.116H23.9816V8.328ZM18.4616 15.36H19.6376V17.76H25.6016V18.72H18.4616V15.36ZM17.2736 9.072H18.4376V10.764H21.0896V9.072H22.2536V14.388H17.2736V9.072ZM18.4376 11.676V13.44H21.0896V11.676H18.4376ZM34.9619 8.304H36.1379V18.948H34.9619V14.532H32.9459V13.584H34.9619V11.628H32.9939V10.668H34.9619V8.304ZM27.7019 9.252H32.3819V13.164H28.8899V15.54C30.3419 15.528 31.6019 15.48 33.0779 15.252L33.1739 16.224C31.5539 16.476 30.1979 16.524 28.5419 16.524H27.7259V12.216H31.2179V10.2H27.7019V9.252ZM45.4502 8.316H46.6382V16.188H45.4502V13.788H42.7982V12.828H45.4502V11.4H42.9542C42.2102 13.056 40.6262 14.292 38.4902 14.988L37.9862 14.04C40.3622 13.272 41.9342 11.844 42.1622 10.08H38.5382V9.132H43.4342C43.4342 9.588 43.3862 10.02 43.2902 10.44H45.4502V8.316ZM39.8222 15.432H41.0102V17.76H46.8902V18.72H39.8222V15.432ZM58.6681 8.316H59.8441V18.936H58.6681V8.316ZM56.7121 9.432C56.7121 12.576 55.4401 15.252 51.7921 17.028L51.1801 16.092C53.9761 14.748 55.2841 12.864 55.5001 10.392H51.6841V9.432H56.7121ZM62.8443 8.724H64.0083V9.936H68.7603V8.724H69.9363V12.996H66.9603V14.052H71.1723V15H61.5843V14.052H65.7843V12.996H62.8443V8.724ZM64.0083 10.86V12.072H68.7603V10.86H64.0083ZM62.7963 15.768H63.9723V17.772H70.1043V18.732H62.7963V15.768ZM80.5263 11.004H82.4463V8.316H83.6223V14.628H82.4463V11.964H80.5263V11.004ZM80.0943 14.928C82.3023 14.928 83.6583 15.684 83.6583 16.932C83.6583 18.204 82.3023 18.936 80.0943 18.936C77.8743 18.936 76.5063 18.204 76.5063 16.932C76.5063 15.684 77.8743 14.928 80.0943 14.928ZM80.0943 15.828C78.5703 15.828 77.6943 16.224 77.6943 16.932C77.6943 17.628 78.5703 18.024 80.0943 18.024C81.5943 18.024 82.4943 17.628 82.4943 16.932C82.4943 16.224 81.5943 15.828 80.0943 15.828ZM75.1743 9.048H80.8623V9.996H78.6303V10.176C78.6303 11.496 79.5423 12.804 81.1383 13.356L80.5503 14.292C79.3743 13.872 78.5223 13.044 78.0663 12.012C77.5983 13.188 76.6863 14.124 75.4263 14.58L74.8383 13.644C76.4703 13.068 77.4423 11.64 77.4423 10.176V9.996H75.1743V9.048ZM85.3265 16.656H89.5385V14.496H86.4185V9.036H87.5825V10.824H92.6705V9.036H93.8345V14.496H90.7025V16.656H94.9505V17.628H85.3265V16.656ZM87.5825 11.772V13.548H92.6705V11.772H87.5825ZM102.847 8.304H104.035V12.528H105.655V13.5H104.035V18.936H102.847V8.304ZM101.263 9.432C101.263 12.516 99.9428 15.24 96.4748 16.98L95.8148 16.08C98.4308 14.748 99.8468 12.852 100.075 10.392H96.3428V9.432H101.263ZM116.689 8.304H117.853V18.948H116.689V13.08H114.553V12.12H116.689V8.304ZM109.345 9.372H115.165V10.332H112.849V11.244C112.849 13.056 113.929 15 115.561 15.744L114.865 16.68C113.653 16.08 112.741 14.868 112.261 13.44C111.793 14.964 110.857 16.26 109.633 16.896L108.949 15.96C110.569 15.18 111.661 13.164 111.661 11.244V10.332H109.345V9.372ZM119.809 9.072H125.509V10.032H123.265V10.248C123.265 11.58 124.165 12.816 125.785 13.344L125.209 14.256C124.033 13.872 123.169 13.092 122.701 12.096C122.245 13.248 121.333 14.16 120.073 14.592L119.473 13.668C121.129 13.092 122.089 11.712 122.089 10.26V10.032H119.809V9.072ZM126.661 8.316H127.837V10.92H129.349V11.892H127.837V14.676H126.661V8.316ZM124.429 14.928C126.601 14.928 127.957 15.66 127.957 16.92C127.957 18.18 126.601 18.924 124.429 18.924C122.257 18.924 120.901 18.18 120.901 16.92C120.901 15.66 122.257 14.928 124.429 14.928ZM124.429 15.864C122.941 15.864 122.053 16.236 122.053 16.92C122.053 17.616 122.941 18.012 124.429 18.012C125.917 18.012 126.793 17.616 126.793 16.92C126.793 16.236 125.917 15.864 124.429 15.864ZM130.825 9.3H136.249V10.248H132.001V12.78H136.297V13.74H134.113V15.684C135.073 15.648 136.033 15.588 136.933 15.48L137.017 16.332C134.713 16.692 132.241 16.74 130.225 16.728L130.081 15.756C130.969 15.756 131.941 15.744 132.937 15.72V13.74H130.825V9.3ZM137.581 8.304H138.757V18.948H137.581V8.304ZM143.174 14.736H144.314V15.276C144.314 16.188 144.746 17.16 145.682 17.76C146.642 17.112 147.086 16.092 147.086 15.276V14.736H148.238V15.276C148.238 16.392 148.934 17.484 150.314 17.94L149.714 18.804C148.694 18.432 147.998 17.724 147.638 16.848C147.314 17.7 146.69 18.492 145.706 18.9C144.71 18.504 144.074 17.772 143.738 16.908C143.366 17.736 142.682 18.432 141.698 18.804L141.11 17.94C142.466 17.436 143.174 16.32 143.174 15.276V14.736ZM143.45 8.892C144.83 8.892 145.91 9.708 146.15 10.896H148.154V8.316H149.33V14.328H148.154V11.868H146.162C145.934 13.092 144.854 13.908 143.45 13.908C141.866 13.908 140.702 12.876 140.702 11.4C140.702 9.936 141.866 8.892 143.45 8.892ZM143.45 9.876C142.502 9.876 141.818 10.488 141.818 11.4C141.818 12.324 142.502 12.936 143.45 12.936C144.386 12.936 145.07 12.324 145.07 11.4C145.07 10.488 144.386 9.876 143.45 9.876ZM153.866 9.096C155.306 9.096 156.362 10.32 156.53 12.276H158.642V8.304H159.818V18.948H158.642V13.224H156.542C156.422 15.3 155.342 16.584 153.866 16.584C152.318 16.584 151.19 15.132 151.19 12.828C151.19 10.548 152.318 9.096 153.866 9.096ZM153.866 10.164C152.954 10.164 152.306 11.172 152.306 12.828C152.306 14.496 152.954 15.516 153.866 15.516C154.814 15.516 155.438 14.496 155.438 12.828C155.438 11.172 154.814 10.164 153.866 10.164ZM161.51 16.656H163.778V13.884C162.926 13.404 162.41 12.636 162.41 11.7C162.41 10.008 164.054 8.916 166.31 8.916C168.578 8.916 170.21 10.008 170.21 11.7C170.21 12.636 169.706 13.392 168.854 13.884V16.656H171.134V17.616H161.51V16.656ZM166.31 9.852C164.69 9.852 163.562 10.56 163.562 11.7C163.562 12.84 164.69 13.548 166.31 13.548C167.918 13.548 169.058 12.84 169.058 11.7C169.058 10.56 167.918 9.852 166.31 9.852ZM164.954 16.656H167.678V14.328C167.258 14.424 166.802 14.472 166.31 14.472C165.83 14.472 165.374 14.424 164.954 14.328V16.656Z" fill="#26784C"/>
<path d="M94 36L88.3708 26.25H99.6292L94 36Z" fill="#B2E9CC"/>
</svg>
