<svg width="198" height="182" viewBox="0 0 198 182" fill="none" xmlns="http://www.w3.org/2000/svg">
<mask id="mask0_2867_1429" style="mask-type:alpha" maskUnits="userSpaceOnUse" x="0" y="0" width="198" height="182">
<rect x="0.422363" width="197" height="182" fill="#D9D9D9"/>
</mask>
<g mask="url(#mask0_2867_1429)">
<g filter="url(#filter0_ii_2867_1429)">
<rect width="166.694" height="61.4136" rx="8.77338" transform="matrix(0.811831 -0.345064 0.903855 0.738025 1.17871 133.083)" fill="#8FEEBB"/>
<g filter="url(#filter1_f_2867_1429)">
<path fill-rule="evenodd" clip-rule="evenodd" d="M45.3213 128.71L46.4253 128.241L55.3365 135.517L54.2325 135.986L45.3213 128.71ZM41.9654 132.315L40.9841 131.514L44.7412 129.917L48.1511 132.701L45.5246 133.817L47.1701 135.161C48.3799 134.634 49.3532 134.147 50.2836 133.481L51.3807 134.233C50.3296 134.999 49.1951 135.543 47.7528 136.156L47.0583 136.451L43.4304 133.489L46.0479 132.377L44.6007 131.195L41.9654 132.315ZM38.9188 139.997L41.9637 138.703L40.6057 137.594L38.3977 138.533L35.424 136.104L39.8934 134.205L38.8923 133.387L34.4051 135.295L33.4337 134.501L39.0159 132.129L41.9401 134.516L37.4618 136.42L38.5026 137.27L43.1589 135.291L44.1403 136.092L41.7097 137.125L43.0677 138.234L46.1393 136.928L47.1404 137.746L39.92 140.815L38.9188 139.997ZM29.5791 141.469C31.3446 139.881 31.0487 138.136 28.7094 136.226L25.068 137.774L26.0295 138.559L28.4779 137.519C28.6395 137.684 28.7823 137.845 28.8885 138.009L26.2732 139.256L27.3573 139.964L29.2464 138.964C29.2791 139.566 28.9643 140.204 28.1992 140.861L29.5791 141.469ZM30.1797 141.263L31.1214 142.032L35.2702 140.268L35.8055 140.705L31.6655 142.465L34.0643 144.423L39.5397 142.096L38.608 141.335L34.2454 143.19L33.6606 142.712L37.7828 140.96L35.4236 139.034L30.1797 141.263ZM29.4031 135.488L33.9727 139.22L35.0767 138.75L33.342 137.334L34.4193 136.876L33.4182 136.059L32.3409 136.517L30.5071 135.019L29.4031 135.488ZM66.4008 156.524C67.7684 155.943 66.983 154.17 64.4296 152.085C61.8921 150.013 59.2834 149.015 57.9159 149.596C56.5341 150.183 57.3194 151.956 59.857 154.028C62.4104 156.113 65.0191 157.112 66.4008 156.524ZM58.1476 154.755C54.6902 151.932 53.916 149.248 56.2665 148.249C58.6027 147.256 62.6816 148.535 66.139 151.358C69.6123 154.194 70.4023 156.891 68.0661 157.884C65.7157 158.883 61.6209 157.591 58.1476 154.755ZM56.7748 162.624L58.6551 161.825L52.6314 151.901L50.8395 150.615L44.4435 153.334L46.1088 154.693L50.751 152.7L56.7748 162.624ZM155.095 106.322L156.576 105.692L168.249 115.223L166.768 115.853L155.095 106.322ZM159.373 113.915C160.961 115.229 161.141 116.649 159.958 117.152C158.691 117.691 156.665 117.134 155 115.774C153.319 114.401 153.076 113.107 154.344 112.568C155.526 112.065 157.757 112.613 159.373 113.915ZM152.88 111.496C150.815 112.374 151.076 114.41 153.519 116.404C155.961 118.398 159.157 119.186 161.223 118.308C162.049 117.957 162.475 117.244 162.087 116.149L163.467 117.275L164.932 116.633L156.638 109.86L155.156 110.49L156.615 111.681C155.02 111.139 153.707 111.145 152.88 111.496ZM152.486 120.072C153.07 119.824 153.435 119.255 153.385 118.666L155.506 119.143C155.582 120.036 155.009 120.93 154.097 121.317C151.875 122.262 148.579 121.516 146.121 119.509C143.663 117.502 143.501 115.424 145.723 114.479C146.678 114.074 148.239 114.04 149.67 114.377L149.769 115.714C148.836 115.5 147.805 115.525 147.22 115.773C145.881 116.342 146.032 117.597 147.602 118.879C149.173 120.161 151.147 120.641 152.486 120.072ZM140.345 121.432L133.224 115.618L131.743 116.247L143.415 125.779L144.897 125.149L142.756 123.401L142.443 121.978L147.974 123.841L149.754 123.084L142.306 120.54L141.488 116.299L139.508 117.141L140.345 121.432Z" fill="url(#paint0_linear_2867_1429)"/>
</g>
<g filter="url(#filter2_ii_2867_1429)">
<path fill-rule="evenodd" clip-rule="evenodd" d="M44.6812 128.81L45.7852 128.341L54.6964 135.617L53.5924 136.086L44.6812 128.81ZM41.3253 132.415L40.344 131.614L44.1011 130.017L47.5109 132.801L44.8845 133.917L46.5299 135.261C47.7398 134.734 48.713 134.247 49.6435 133.58L50.7405 134.333C49.6895 135.099 48.555 135.643 47.1126 136.256L46.4182 136.551L42.7903 133.589L45.4078 132.476L43.9606 131.295L41.3253 132.415ZM38.2787 140.097L41.3236 138.803L39.9656 137.694L37.7576 138.632L34.7839 136.204L39.2533 134.305L38.2521 133.487L33.765 135.394L32.7935 134.601L38.3758 132.229L41.2999 134.616L36.8217 136.52L37.8625 137.369L42.5188 135.39L43.5001 136.192L41.0696 137.225L42.4276 138.334L45.4991 137.028L46.5003 137.845L39.2798 140.914L38.2787 140.097ZM28.939 141.568C30.7044 139.981 30.4086 138.236 28.0693 136.326L24.4279 137.874L25.3894 138.659L27.8378 137.618C27.9994 137.784 28.1422 137.944 28.2484 138.108L25.6331 139.355L26.7172 140.064L28.6063 139.064C28.6389 139.665 28.3242 140.304 27.5591 140.961L28.939 141.568ZM29.5396 141.362L30.4812 142.131L34.6301 140.368L35.1653 140.805L31.0254 142.565L33.4242 144.523L38.8996 142.196L37.9678 141.435L33.6053 143.289L33.0205 142.812L37.1426 141.06L34.7835 139.134L29.5396 141.362ZM28.763 135.588L33.3326 139.32L34.4366 138.85L32.7019 137.434L33.7792 136.976L32.778 136.159L31.7008 136.616L29.867 135.119L28.763 135.588ZM65.2429 156.259C66.6105 155.678 65.8252 153.905 63.2717 151.82C60.7342 149.748 58.1255 148.75 56.758 149.331C55.3762 149.918 56.1615 151.691 58.6991 153.763C61.2525 155.848 63.8612 156.846 65.2429 156.259ZM56.9897 154.49C53.5323 151.667 52.7582 148.983 55.1086 147.984C57.4448 146.991 61.5237 148.27 64.9811 151.093C68.4544 153.929 69.2444 156.626 66.9082 157.619C64.5578 158.618 60.463 157.326 56.9897 154.49ZM55.6169 162.359L57.4972 161.56L51.4735 151.636L49.6816 150.35L43.2856 153.068L44.9509 154.428L49.5932 152.435L55.6169 162.359ZM153.937 106.056L155.419 105.427L167.091 114.958L165.61 115.588L153.937 106.056ZM158.216 113.65C159.803 114.964 159.983 116.384 158.8 116.887C157.533 117.426 155.508 116.869 153.842 115.509C152.161 114.136 151.918 112.842 153.186 112.303C154.368 111.8 156.599 112.348 158.216 113.65ZM151.722 111.231C149.657 112.109 149.918 114.144 152.361 116.139C154.803 118.133 157.999 118.921 160.065 118.043C160.891 117.692 161.317 116.979 160.929 115.884L162.309 117.01L163.775 116.368L155.48 109.595L153.998 110.225L155.458 111.416C153.862 110.873 152.549 110.88 151.722 111.231ZM151.328 119.807C151.912 119.559 152.277 118.99 152.227 118.401L154.349 118.878C154.424 119.771 153.851 120.664 152.939 121.052C150.717 121.996 147.421 121.251 144.963 119.244C142.505 117.236 142.343 115.159 144.565 114.214C145.52 113.809 147.081 113.775 148.512 114.112L148.611 115.448C147.678 115.235 146.647 115.259 146.063 115.508C144.724 116.077 144.874 117.332 146.445 118.614C148.015 119.896 149.989 120.376 151.328 119.807ZM139.187 121.167L132.066 115.353L130.585 115.982L142.257 125.513L143.739 124.884L141.598 123.135L141.285 121.713L146.816 123.576L148.596 122.819L141.148 120.275L140.33 116.034L138.35 116.876L139.187 121.167Z" fill="url(#paint1_linear_2867_1429)"/>
</g>
</g>
<path d="M66.4226 105.5C50.2559 112.333 16.3226 126.7 9.92259 129.5C3.52259 132.3 5.25592 136 6.92259 137.5C19.2559 147.5 44.7857 169.409 50.9226 173.5C55.4226 176.5 62.4226 176.5 64.9226 175.5L186.218 123.303C186.683 123.103 187.129 122.822 187.331 122.357C188.037 120.731 188.021 117.074 183.923 114C179.123 110.4 160.256 94.8333 151.423 87.5" stroke="#26784C" stroke-width="2"/>
<g filter="url(#filter3_bf_2867_1429)">
<ellipse cx="118.423" cy="100.5" rx="37" ry="16.5" fill="#40C97F"/>
</g>
<path d="M161.734 66.8232C157.837 88.0333 137.712 102.294 116.818 98.7241C95.924 95.1537 82.1062 75.0927 86.0035 53.8825C89.9008 32.6724 110.025 18.4113 130.919 21.9816C151.814 25.552 165.631 45.613 161.734 66.8232Z" fill="#40C97F" stroke="#195033" stroke-width="2.62388"/>
<path fill-rule="evenodd" clip-rule="evenodd" d="M145.862 12.1666C137.887 16.1973 131.847 21.3715 127.411 26.4433C125.719 25.9088 123.97 25.4832 122.17 25.1756C119.138 24.6574 116.121 24.5017 113.165 24.6774C113.354 23.8956 113.496 23.0971 113.564 22.3079C115.02 4.11447 110.491 3.48694 107.87 3.23667C105.25 2.98641 98.2776 7.09865 89.4825 23.3722C86.3085 29.2451 84.7377 34.9344 84.0889 39.8174C79.9475 44.9644 76.9848 51.1902 75.7088 58.1342C71.6848 80.0339 85.962 100.784 107.598 104.481C129.234 108.178 150.035 93.4222 154.059 71.5225C155.349 64.5022 154.758 57.5999 152.647 51.3397C154.282 47.9404 156.066 44.0066 158.254 38.2297C161.49 29.6836 167.734 1.11113 145.862 12.1666Z" fill="url(#paint2_linear_2867_1429)"/>
<path d="M127.411 26.4433L127.008 27.6694C127.499 27.8246 128.039 27.6719 128.381 27.2813L127.411 26.4433ZM145.862 12.1666L145.288 11.0213L145.862 12.1666ZM113.165 24.6774L111.91 24.3909C111.815 24.7856 111.911 25.1997 112.17 25.5086C112.43 25.8176 112.821 25.9852 113.227 25.961L113.165 24.6774ZM113.564 22.3079L114.851 22.4032L114.851 22.395L113.564 22.3079ZM89.4825 23.3722L88.3469 22.7732L89.4825 23.3722ZM84.0889 39.8174L85.0931 40.6142C85.2424 40.4286 85.3379 40.2061 85.3691 39.9713L84.0889 39.8174ZM152.647 51.3397L151.484 50.7956C151.338 51.0989 151.316 51.4455 151.423 51.7618L152.647 51.3397ZM158.254 38.2297L159.462 38.6709L159.462 38.6709L158.254 38.2297ZM128.381 27.2813C132.719 22.3209 138.629 17.2578 146.436 13.3118L145.288 11.0213C137.146 15.1368 130.974 20.422 126.442 25.6054L128.381 27.2813ZM121.937 26.443C123.679 26.7407 125.371 27.1525 127.008 27.6694L127.815 25.2172C126.067 24.6651 124.261 24.2257 122.403 23.9082L121.937 26.443ZM113.227 25.961C116.085 25.7911 119.003 25.9415 121.937 26.443L122.403 23.9082C119.272 23.3732 116.157 23.2123 113.104 23.3938L113.227 25.961ZM114.421 24.964C114.622 24.1321 114.776 23.2688 114.851 22.4032L112.277 22.2125C112.216 22.9255 112.087 23.6591 111.91 24.3909L114.421 24.964ZM114.851 22.395C115.582 13.2658 114.849 8.24486 113.395 5.44281C112.642 3.99225 111.687 3.11706 110.652 2.60914C109.653 2.11835 108.668 2.01967 108.009 1.95666L107.732 4.51669C108.383 4.57881 108.947 4.65242 109.488 4.91823C109.995 5.1669 110.572 5.6326 111.097 6.64439C112.198 8.76702 113.002 13.1565 112.277 22.2207L114.851 22.395ZM108.009 1.95666C107.002 1.86051 105.811 2.18842 104.54 2.85115C103.244 3.52705 101.753 4.60852 100.103 6.18552C96.8044 9.33962 92.7861 14.5594 88.3469 22.7732L90.6181 23.9712C94.9741 15.9114 98.8395 10.9383 101.881 8.03049C103.401 6.57652 104.694 5.65976 105.717 5.12645C106.765 4.57997 107.429 4.4877 107.732 4.51669L108.009 1.95666ZM88.3469 22.7732C85.0904 28.7988 83.4759 34.6415 82.8087 39.6634L85.3691 39.9713C85.9995 35.2272 87.5267 29.6913 90.6181 23.9712L88.3469 22.7732ZM76.979 58.3513C78.2152 51.6236 81.0844 45.5962 85.0931 40.6142L83.0848 39.0206C78.8107 44.3325 75.7543 50.7567 74.4386 57.9172L76.979 58.3513ZM107.831 103.214C86.9136 99.6395 73.0805 79.5681 76.979 58.3513L74.4386 57.9172C70.2891 80.4996 85.0105 101.929 107.365 105.749L107.831 103.214ZM152.789 71.3055C148.89 92.5223 128.748 106.788 107.831 103.214L107.365 105.749C129.719 109.568 151.18 94.322 155.329 71.7396L152.789 71.3055ZM151.423 51.7618C153.466 57.8214 154.039 64.5039 152.789 71.3055L155.329 71.7396C156.66 64.5004 156.051 57.3784 153.872 50.9176L151.423 51.7618ZM157.046 37.7884C154.874 43.5241 153.105 47.4232 151.484 50.7956L153.811 51.8838C155.458 48.4576 157.259 44.4891 159.462 38.6709L157.046 37.7884ZM146.436 13.3118C151.8 10.6002 155.006 10.5527 156.876 11.5165C158.735 12.4746 159.82 14.7176 160.19 18.0055C160.554 21.2392 160.177 25.1239 159.489 28.7745C158.804 32.414 157.826 35.7285 157.046 37.7884L159.462 38.6709C160.3 36.4578 161.316 32.996 162.028 29.2201C162.737 25.4552 163.161 21.2853 162.757 17.6896C162.358 14.1481 161.106 10.7867 158.085 9.22969C155.075 7.67847 150.86 8.2052 145.288 11.0213L146.436 13.3118Z" fill="#195033"/>
<path d="M126.11 27.3016L127.509 27.6244L128.177 24.8316L126.778 24.5088L126.11 27.3016ZM107.207 24.8285C106.433 25.0125 105.951 25.7857 106.13 26.5556C106.309 27.3254 107.081 27.8004 107.855 27.6165L107.207 24.8285ZM126.778 24.5088C120.565 23.0754 115.226 22.9228 107.207 24.8285L107.855 27.6165C115.453 25.8109 120.341 25.9707 126.11 27.3016L126.778 24.5088Z" fill="#195033"/>
<path d="M137.764 34.8453C141.205 31.0586 150.428 24.7714 152.479 24.3464C152.592 24.323 152.703 24.3075 152.815 24.2797C154.28 23.9164 156.725 23.9326 155.954 26.684C155.231 29.26 151.384 38.3485 149.11 43.0237C148.746 43.771 147.828 44.0363 147.143 43.5817C144.664 41.9352 141.438 39.4087 137.973 36.7082C137.382 36.2477 137.254 35.4067 137.764 34.8453Z" fill="#40C97F"/>
<path d="M154.072 23.405C152.266 23.4689 139.807 31.6945 137.36 35.3196" stroke="#195033" stroke-width="2.57728" stroke-linecap="round"/>
<path d="M139.466 71.6418C139.371 79.2948 134.39 85.0637 128.814 85.0637C123.238 85.0637 118.402 79.2948 118.497 71.6418C118.593 63.9888 123.573 58.2199 129.149 58.2199C134.725 58.2199 139.562 63.9888 139.466 71.6418Z" fill="white" stroke="#195033" stroke-width="2.15385"/>
<ellipse cx="7.9486" cy="9.90233" rx="7.9486" ry="9.90233" transform="matrix(1 -6.28481e-09 -0.0124767 0.999922 119.733 64.7882)" fill="#195033"/>
<ellipse cx="3.2517" cy="3.8902" rx="3.2517" ry="3.8902" transform="matrix(0.991314 -0.131517 0.119139 0.992878 123.889 75.6102)" fill="white"/>
<mask id="path-17-inside-1_2867_1429" fill="white">
<path fill-rule="evenodd" clip-rule="evenodd" d="M103.172 73.9636C104.133 71.8712 104.695 69.4585 104.727 66.8898C104.827 58.8824 99.7321 52.3911 93.3468 52.3911C86.9615 52.3911 81.7042 58.8824 81.6042 66.8898C81.5043 74.8973 86.5996 81.3886 92.9849 81.3886C94.2827 81.3886 95.5339 81.1204 96.7047 80.6259C97.6674 77.3597 100.122 74.8163 103.172 73.9636Z"/>
</mask>
<path fill-rule="evenodd" clip-rule="evenodd" d="M103.172 73.9636C104.133 71.8712 104.695 69.4585 104.727 66.8898C104.827 58.8824 99.7321 52.3911 93.3468 52.3911C86.9615 52.3911 81.7042 58.8824 81.6042 66.8898C81.5043 74.8973 86.5996 81.3886 92.9849 81.3886C94.2827 81.3886 95.5339 81.1204 96.7047 80.6259C97.6674 77.3597 100.122 74.8163 103.172 73.9636Z" fill="white"/>
<path d="M103.172 73.9636L103.728 76.0373L104.704 75.7643L105.128 74.8417L103.172 73.9636ZM96.7047 80.6259L97.5218 82.6082L98.4773 82.2046L98.7702 81.2109L96.7047 80.6259ZM102.574 66.8898C102.545 69.1625 102.047 71.2754 101.216 73.0855L105.128 74.8417C106.218 72.467 106.846 69.7545 106.881 66.8898L102.574 66.8898ZM93.3199 54.5448C98.0862 54.5448 102.665 59.5913 102.574 66.8898L106.881 66.8898C106.99 58.1735 101.378 50.2374 93.3736 50.2374L93.3199 54.5448ZM83.7581 66.8898C83.8492 59.5913 88.5536 54.5448 93.3199 54.5448L93.3736 50.2374C85.3694 50.2374 79.5592 58.1735 79.4504 66.8898L83.7581 66.8898ZM93.0118 79.2349C88.2455 79.2349 83.667 74.1883 83.7581 66.8898L79.4504 66.8898C79.3416 75.6062 84.9538 83.5422 92.9581 83.5422L93.0118 79.2349ZM95.8875 78.6435C94.9729 79.0299 94.0081 79.2349 93.0118 79.2349L92.9581 83.5422C94.5573 83.5422 96.0949 83.2109 97.5218 82.6082L95.8875 78.6435ZM98.7702 81.2109C99.542 78.5925 101.474 76.6673 103.728 76.0373L102.616 71.89C98.7691 72.9654 95.7927 76.127 94.6391 80.0408L98.7702 81.2109Z" fill="#195033" mask="url(#path-17-inside-1_2867_1429)"/>
<path d="M100.277 70.0021C100.246 72.4998 99.7325 75.1657 98.4859 76.9076C97.0031 78.9795 94.5898 79.9037 92.2049 79.9037C87.815 79.9037 84.3116 75.4706 84.3799 70.0021C84.4481 64.5337 88.0621 60.1006 92.452 60.1006C96.8419 60.1006 100.345 64.5337 100.277 70.0021Z" fill="#195033"/>
<ellipse cx="3.2517" cy="3.8902" rx="3.2517" ry="3.8902" transform="matrix(0.991314 -0.131517 0.119139 0.992878 89.3013 71.5692)" fill="white"/>
<path d="M105.087 96.4579C105.677 96.5362 106.224 96.1224 106.31 95.5339C106.396 94.9453 105.987 94.4047 105.397 94.3265L105.087 96.4579ZM105.397 94.3265C99.3732 93.5273 95.2944 88.4374 96.068 83.1166L93.9328 82.8333C92.9641 89.4962 98.0563 95.5251 105.087 96.4579L105.397 94.3265ZM96.068 83.1166C96.4744 80.3211 97.5949 78.2445 99.249 76.955C100.897 75.6705 103.221 75.0525 106.268 75.4567L106.578 73.3253C103.098 72.8635 100.146 73.5415 97.9324 75.2675C95.7247 76.9885 94.3975 79.6369 93.9328 82.8333L96.068 83.1166Z" fill="#195033"/>
<path d="M110.626 76.9664C110.373 78.706 107.763 79.7971 104.795 79.4034C101.828 79.0098 99.628 77.2805 99.8809 75.5409C100.134 73.8013 102.744 72.7102 105.711 73.1039C108.678 73.4975 110.879 75.2268 110.626 76.9664Z" fill="#195033"/>
<rect x="78.126" y="116.202" width="6" height="10" transform="rotate(-12.7724 78.126 116.202)" fill="#36393C"/>
<path d="M51.5448 12.5125C51.4227 11.9739 51.7604 11.4383 52.299 11.3162L63.0268 8.88432C63.5654 8.76222 64.101 9.09988 64.2231 9.6385L65.5496 15.49L52.8713 18.3641L51.5448 12.5125Z" fill="#FFADAD"/>
<path fill-rule="evenodd" clip-rule="evenodd" d="M58.2351 17.1481L52.4987 18.4485C52.1293 18.5322 51.8389 18.8175 51.7486 19.1853L50.353 24.8706C50.316 25.0214 50.3146 25.1787 50.3489 25.3301L69.264 108.772C69.294 108.904 69.3504 109.028 69.43 109.138L77.8687 120.765C78.1037 121.089 78.509 121.242 78.8991 121.153L81.6695 120.525L82.6447 120.304L85.415 119.676C85.8052 119.588 86.105 119.275 86.1774 118.882L88.7774 104.752C88.8019 104.619 88.7991 104.482 88.7692 104.35L69.854 20.9086C69.8197 20.7572 69.7506 20.6158 69.6522 20.4958L65.9413 15.968C65.7012 15.6751 65.3162 15.5429 64.9468 15.6267L59.2104 16.927L58.2351 17.1481Z" fill="url(#paint3_linear_2867_1429)"/>
<mask id="path-26-outside-2_2867_1429" maskUnits="userSpaceOnUse" x="43.8338" y="4.411" width="52.7704" height="126.68" fill="black">
<rect fill="white" x="43.8338" y="4.411" width="52.7704" height="126.68"/>
<path fill-rule="evenodd" clip-rule="evenodd" d="M53.2744 11.0951C52.7358 11.2172 52.3981 11.7528 52.5202 12.2914L53.6256 17.1677C53.7477 17.7063 53.41 18.242 52.8714 18.364L52.4989 18.4485C52.1295 18.5322 51.8391 18.8175 51.7488 19.1853L50.3532 24.8706C50.3161 25.0214 50.3147 25.1787 50.3491 25.3301L69.2642 108.772C69.2942 108.904 69.3506 109.028 69.4302 109.138L77.8689 120.765C78.1039 121.089 78.5092 121.242 78.8993 121.153L79.2315 121.078C79.7701 120.956 80.3057 121.294 80.4278 121.832L81.0911 124.758C81.2132 125.297 81.7488 125.634 82.2874 125.512L84.2379 125.07C84.7765 124.948 85.1142 124.412 84.9921 123.874L84.3289 120.948C84.2068 120.409 84.5444 119.874 85.083 119.751L85.4152 119.676C85.8053 119.588 86.1052 119.275 86.1776 118.882L88.7776 104.752C88.8021 104.619 88.7993 104.482 88.7694 104.35L69.8542 20.9086C69.8199 20.7572 69.7508 20.6158 69.6524 20.4958L65.9415 15.968C65.7014 15.6751 65.3164 15.5429 64.947 15.6267L64.5745 15.7111C64.0359 15.8332 63.5003 15.4955 63.3782 14.9569L62.2728 10.0807C62.1507 9.54203 61.6151 9.20437 61.0764 9.32647L53.2744 11.0951Z"/>
</mask>
<path d="M52.5202 12.2914L50.004 12.8618L52.5202 12.2914ZM53.2744 11.0951L52.704 8.57894L53.2744 11.0951ZM61.0764 9.32647L61.6468 11.8426L61.0764 9.32647ZM79.2315 121.078L78.6611 118.562L79.2315 121.078ZM77.8689 120.765L79.957 119.25L77.8689 120.765ZM78.8993 121.153L79.4697 123.669L78.8993 121.153ZM65.9415 15.968L67.937 14.3326L67.937 14.3326L65.9415 15.968ZM64.947 15.6267L65.5174 18.1428L64.947 15.6267ZM69.4302 109.138L71.5182 107.623L69.4302 109.138ZM69.6524 20.4958L67.6569 22.1312L69.6524 20.4958ZM50.3532 24.8706L47.8475 24.2555L50.3532 24.8706ZM88.7776 104.752L91.315 105.219L88.7776 104.752ZM51.7488 19.1853L49.2432 18.5702L51.7488 19.1853ZM86.1776 118.882L83.6402 118.415L86.1776 118.882ZM55.0364 11.7211C55.2293 12.5721 54.6958 13.4183 53.8448 13.6113L52.704 8.57894C50.7757 9.01605 49.5669 10.9336 50.004 12.8618L55.0364 11.7211ZM56.1418 16.5973L55.0364 11.7211L50.004 12.8618L51.1094 17.7381L56.1418 16.5973ZM53.0693 20.9647L53.4418 20.8802L52.301 15.8479L51.9285 15.9323L53.0693 20.9647ZM52.8588 25.4857L54.2544 19.8004L49.2432 18.5702L47.8475 24.2555L52.8588 25.4857ZM71.7804 108.201L52.8652 24.7597L47.8329 25.9005L66.7481 109.342L71.7804 108.201ZM79.957 119.25L71.5182 107.623L67.3421 110.653L75.7809 122.281L79.957 119.25ZM78.6611 118.562L78.3289 118.637L79.4697 123.669L79.8019 123.594L78.6611 118.562ZM83.6072 124.188L82.944 121.262L77.9117 122.403L78.5749 125.328L83.6072 124.188ZM81.717 122.996C82.568 122.803 83.4143 123.336 83.6072 124.188L78.5749 125.328C79.012 127.257 80.9295 128.465 82.8578 128.028L81.717 122.996ZM83.6675 122.554L81.717 122.996L82.8578 128.028L84.8083 127.586L83.6675 122.554ZM82.4759 124.444C82.283 123.593 82.8165 122.747 83.6675 122.554L84.8083 127.586C86.7366 127.149 87.9454 125.231 87.5083 123.303L82.4759 124.444ZM81.8127 121.518L82.4759 124.444L87.5083 123.303L86.845 120.377L81.8127 121.518ZM84.8448 117.16L84.5127 117.235L85.6534 122.268L85.9856 122.192L84.8448 117.16ZM86.2402 104.285L83.6402 118.415L88.715 119.349L91.315 105.219L86.2402 104.285ZM67.338 21.4789L86.2532 104.921L91.2855 103.78L72.3703 20.3382L67.338 21.4789ZM63.9461 17.6035L67.6569 22.1312L71.6478 18.8603L67.937 14.3326L63.9461 17.6035ZM65.1449 18.2273L65.5174 18.1428L64.3766 13.1105L64.0041 13.1949L65.1449 18.2273ZM59.7566 10.651L60.862 15.5273L65.8943 14.3865L64.7889 9.51027L59.7566 10.651ZM61.6468 11.8426C60.7958 12.0355 59.9495 11.5021 59.7566 10.651L64.7889 9.51027C64.3518 7.58201 62.4343 6.3732 60.5061 6.81031L61.6468 11.8426ZM53.8448 13.6113L61.6468 11.8426L60.5061 6.81031L52.704 8.57894L53.8448 13.6113ZM64.0041 13.1949C64.8551 13.002 65.7014 13.5355 65.8943 14.3865L60.862 15.5273C61.2991 17.4556 63.2166 18.6644 65.1449 18.2273L64.0041 13.1949ZM86.845 120.377C87.0379 121.228 86.5044 122.075 85.6534 122.268L84.5127 117.235C82.5844 117.672 81.3756 119.59 81.8127 121.518L86.845 120.377ZM79.8019 123.594C78.9509 123.787 78.1046 123.254 77.9117 122.403L82.944 121.262C82.5069 119.333 80.5894 118.125 78.6611 118.562L79.8019 123.594ZM75.7809 122.281C76.6221 123.44 78.073 123.986 79.4697 123.669L78.3289 118.637C78.9453 118.497 79.5857 118.738 79.957 119.25L75.7809 122.281ZM67.937 14.3326C67.0774 13.2838 65.6991 12.8107 64.3766 13.1105L65.5174 18.1428C64.9337 18.2751 64.3254 18.0663 63.9461 17.6035L67.937 14.3326ZM66.7481 109.342C66.8553 109.815 67.0574 110.261 67.3421 110.653L71.5182 107.623C71.6439 107.796 71.7331 107.993 71.7804 108.201L66.7481 109.342ZM72.3703 20.3382C72.2475 19.7962 72.0001 19.2902 71.6478 18.8603L67.6569 22.1312C67.5014 21.9415 67.3922 21.7182 67.338 21.4789L72.3703 20.3382ZM47.8475 24.2555C47.715 24.7953 47.71 25.3585 47.8329 25.9005L52.8652 24.7597C52.9194 24.999 52.9172 25.2475 52.8588 25.4857L47.8475 24.2555ZM91.315 105.219C91.4027 104.742 91.3927 104.253 91.2855 103.78L86.2532 104.921C86.2059 104.712 86.2015 104.496 86.2402 104.285L91.315 105.219ZM51.9285 15.9323C50.6061 16.2321 49.5665 17.2533 49.2432 18.5702L54.2544 19.8004C54.1117 20.3816 53.6529 20.8323 53.0693 20.9647L51.9285 15.9323ZM85.9856 122.192C87.3823 121.876 88.4559 120.757 88.715 119.349L83.6402 118.415C83.7546 117.793 84.2284 117.3 84.8448 117.16L85.9856 122.192ZM51.1094 17.7381C50.9165 16.8871 51.45 16.0408 52.301 15.8479L53.4418 20.8802C55.3701 20.4431 56.5789 18.5256 56.1418 16.5973L51.1094 17.7381Z" fill="#26784C" mask="url(#path-26-outside-2_2867_1429)"/>
<g style="mix-blend-mode:color-burn">
<path d="M66.4229 22.0002L85.3901 104.857" stroke="#B2E9CC" stroke-width="2" stroke-linecap="round"/>
</g>
<g style="mix-blend-mode:color-burn">
<path d="M53.6446 24.7497C53.5221 24.2112 53.8594 23.6753 54.3979 23.5528L61.1413 22.0191C62.2183 21.7741 63.2901 22.4486 63.535 23.5257L82.0165 104.782C82.2615 105.859 81.5869 106.931 80.5099 107.176L74.7416 108.488C73.6646 108.733 72.5928 108.058 72.3479 106.981L53.6446 24.7497Z" fill="#AFEBCB"/>
</g>
</g>
<defs>
<filter id="filter0_ii_2867_1429" x="0.503836" y="74.8882" width="192.861" height="104.87" filterUnits="userSpaceOnUse" color-interpolation-filters="sRGB">
<feFlood flood-opacity="0" result="BackgroundImageFix"/>
<feBlend mode="normal" in="SourceGraphic" in2="BackgroundImageFix" result="shape"/>
<feColorMatrix in="SourceAlpha" type="matrix" values="0 0 0 0 0 0 0 0 0 0 0 0 0 0 0 0 0 0 127 0" result="hardAlpha"/>
<feOffset dx="1.34975" dy="1.34975"/>
<feGaussianBlur stdDeviation="2.02463"/>
<feComposite in2="hardAlpha" operator="arithmetic" k2="-1" k3="1"/>
<feColorMatrix type="matrix" values="0 0 0 0 1 0 0 0 0 1 0 0 0 0 1 0 0 0 1 0"/>
<feBlend mode="normal" in2="shape" result="effect1_innerShadow_2867_1429"/>
<feColorMatrix in="SourceAlpha" type="matrix" values="0 0 0 0 0 0 0 0 0 0 0 0 0 0 0 0 0 0 127 0" result="hardAlpha"/>
<feOffset dx="-0.674875" dy="-0.674875"/>
<feGaussianBlur stdDeviation="2.02463"/>
<feComposite in2="hardAlpha" operator="arithmetic" k2="-1" k3="1"/>
<feColorMatrix type="matrix" values="0 0 0 0 0 0 0 0 0 0.6875 0 0 0 0 0.31625 0 0 0 1 0"/>
<feBlend mode="normal" in2="effect1_innerShadow_2867_1429" result="effect2_innerShadow_2867_1429"/>
</filter>
<filter id="filter1_f_2867_1429" x="23.7181" y="104.342" width="145.881" height="59.6318" filterUnits="userSpaceOnUse" color-interpolation-filters="sRGB">
<feFlood flood-opacity="0" result="BackgroundImageFix"/>
<feBlend mode="normal" in="SourceGraphic" in2="BackgroundImageFix" result="shape"/>
<feGaussianBlur stdDeviation="0.674875" result="effect1_foregroundBlur_2867_1429"/>
</filter>
<filter id="filter2_ii_2867_1429" x="24.4277" y="105.427" width="143.338" height="57.6072" filterUnits="userSpaceOnUse" color-interpolation-filters="sRGB">
<feFlood flood-opacity="0" result="BackgroundImageFix"/>
<feBlend mode="normal" in="SourceGraphic" in2="BackgroundImageFix" result="shape"/>
<feColorMatrix in="SourceAlpha" type="matrix" values="0 0 0 0 0 0 0 0 0 0 0 0 0 0 0 0 0 0 127 0" result="hardAlpha"/>
<feOffset dx="0.674875" dy="0.674875"/>
<feGaussianBlur stdDeviation="0.843594"/>
<feComposite in2="hardAlpha" operator="arithmetic" k2="-1" k3="1"/>
<feColorMatrix type="matrix" values="0 0 0 0 1 0 0 0 0 1 0 0 0 0 1 0 0 0 0.8 0"/>
<feBlend mode="normal" in2="shape" result="effect1_innerShadow_2867_1429"/>
<feColorMatrix in="SourceAlpha" type="matrix" values="0 0 0 0 0 0 0 0 0 0 0 0 0 0 0 0 0 0 127 0" result="hardAlpha"/>
<feOffset dx="0.337438" dy="0.337438"/>
<feGaussianBlur stdDeviation="0.337438"/>
<feComposite in2="hardAlpha" operator="arithmetic" k2="-1" k3="1"/>
<feColorMatrix type="matrix" values="0 0 0 0 1 0 0 0 0 1 0 0 0 0 1 0 0 0 0.25 0"/>
<feBlend mode="normal" in2="effect1_innerShadow_2867_1429" result="effect2_innerShadow_2867_1429"/>
</filter>
<filter id="filter3_bf_2867_1429" x="71.4229" y="74" width="94" height="53" filterUnits="userSpaceOnUse" color-interpolation-filters="sRGB">
<feFlood flood-opacity="0" result="BackgroundImageFix"/>
<feGaussianBlur in="BackgroundImageFix" stdDeviation="2"/>
<feComposite in2="SourceAlpha" operator="in" result="effect1_backgroundBlur_2867_1429"/>
<feBlend mode="normal" in="SourceGraphic" in2="effect1_backgroundBlur_2867_1429" result="shape"/>
<feGaussianBlur stdDeviation="5" result="effect2_foregroundBlur_2867_1429"/>
</filter>
<linearGradient id="paint0_linear_2867_1429" x1="9.48907" y1="129.723" x2="111.597" y2="101.154" gradientUnits="userSpaceOnUse">
<stop stop-color="#D2EAD6"/>
<stop offset="1" stop-color="#33A165"/>
</linearGradient>
<linearGradient id="paint1_linear_2867_1429" x1="8.84894" y1="129.823" x2="110.957" y2="101.254" gradientUnits="userSpaceOnUse">
<stop stop-color="#F1F5F2"/>
<stop offset="1" stop-color="#F8FDFF"/>
</linearGradient>
<linearGradient id="paint2_linear_2867_1429" x1="132.486" y1="-0.428093" x2="114.361" y2="105.636" gradientUnits="userSpaceOnUse">
<stop stop-color="#F3FFC4"/>
<stop offset="1" stop-color="#E6FF86"/>
</linearGradient>
<linearGradient id="paint3_linear_2867_1429" x1="58.7228" y1="17.0376" x2="82.1571" y2="120.415" gradientUnits="userSpaceOnUse">
<stop stop-color="#D9F4E5"/>
<stop offset="1" stop-color="#8FEDBA"/>
</linearGradient>
</defs>
</svg>
