<svg width="146" height="36" viewBox="0 0 146 36" fill="none" xmlns="http://www.w3.org/2000/svg">
<rect x="0.422363" width="145" height="27" rx="13.5" fill="#B2E9CC"/>
<path d="M25.3258 8.316V9.852H26.8018V10.824H25.3258V12.132H26.8018V13.104H25.3258V14.604H24.1498V8.316H25.3258ZM17.2018 11.472C17.2018 10.984 17.3218 10.548 17.5618 10.164C17.8098 9.772 18.1458 9.468 18.5698 9.252C18.9938 9.036 19.4738 8.928 20.0098 8.928C20.5378 8.928 21.0138 9.036 21.4378 9.252C21.8698 9.468 22.2058 9.772 22.4458 10.164C22.6938 10.548 22.8178 10.984 22.8178 11.472C22.8178 11.96 22.6938 12.4 22.4458 12.792C22.2058 13.176 21.8698 13.476 21.4378 13.692C21.0138 13.908 20.5378 14.016 20.0098 14.016C19.4738 14.016 18.9898 13.908 18.5578 13.692C18.1338 13.476 17.8018 13.176 17.5618 12.792C17.3218 12.408 17.2018 11.968 17.2018 11.472ZM18.3418 11.472C18.3418 11.944 18.4978 12.324 18.8098 12.612C19.1218 12.892 19.5218 13.032 20.0098 13.032C20.4978 13.032 20.8978 12.892 21.2098 12.612C21.5218 12.324 21.6778 11.944 21.6778 11.472C21.6778 11.008 21.5218 10.636 21.2098 10.356C20.8978 10.076 20.4978 9.936 20.0098 9.936C19.5218 9.936 19.1218 10.076 18.8098 10.356C18.4978 10.636 18.3418 11.008 18.3418 11.472ZM18.3658 15.084H25.3258V18.936H24.1498V16.032H18.3658V15.084ZM33.6173 13.896L33.9053 9.312H38.4653V10.308H34.9973L34.8533 12.624C35.2853 12.408 35.7173 12.3 36.1493 12.3C36.7333 12.3 37.2533 12.424 37.7093 12.672C38.1733 12.92 38.5333 13.264 38.7893 13.704C39.0453 14.144 39.1733 14.644 39.1733 15.204C39.1733 15.772 39.0453 16.28 38.7893 16.728C38.5333 17.176 38.1733 17.524 37.7093 17.772C37.2533 18.02 36.7333 18.144 36.1493 18.144C35.6933 18.144 35.2613 18.048 34.8533 17.856C34.4533 17.664 34.1133 17.396 33.8333 17.052C33.5533 16.708 33.3613 16.32 33.2573 15.888L34.3613 15.636C34.4573 16.06 34.6693 16.408 34.9973 16.68C35.3333 16.944 35.7173 17.076 36.1493 17.076C36.7013 17.076 37.1533 16.9 37.5053 16.548C37.8573 16.196 38.0333 15.748 38.0333 15.204C38.0333 14.668 37.8573 14.228 37.5053 13.884C37.1533 13.54 36.7013 13.368 36.1493 13.368C35.9173 13.368 35.6693 13.432 35.4053 13.56C35.1493 13.688 34.9333 13.852 34.7573 14.052L33.6173 13.896ZM49.8375 13.86V14.808H45.7095V16.716H44.5215V14.808H40.2135V13.86H49.8375ZM41.4015 15.828H42.5655V17.76H48.7695V18.732H41.4015V15.828ZM41.4855 8.64H42.6495V9.9H47.4015V8.64H48.5775V12.948H41.4855V8.64ZM47.4015 12.012V10.8H42.6495V12.012H47.4015ZM54.1337 9.06C54.6777 9.06 55.1657 9.168 55.5977 9.384C56.0377 9.6 56.3817 9.904 56.6297 10.296C56.8777 10.68 57.0017 11.116 57.0017 11.604C57.0017 12.1 56.8777 12.54 56.6297 12.924C56.3817 13.308 56.0377 13.608 55.5977 13.824C55.1657 14.04 54.6777 14.148 54.1337 14.148C53.5817 14.148 53.0857 14.04 52.6457 13.824C52.2137 13.608 51.8737 13.308 51.6257 12.924C51.3777 12.54 51.2537 12.1 51.2537 11.604C51.2537 11.116 51.3777 10.68 51.6257 10.296C51.8737 9.904 52.2137 9.6 52.6457 9.384C53.0857 9.168 53.5817 9.06 54.1337 9.06ZM50.7497 15.72C52.0937 15.72 53.3177 15.7 54.4217 15.66C55.5337 15.612 56.5937 15.512 57.6017 15.36L57.6857 16.212C56.6457 16.412 55.5777 16.544 54.4817 16.608C53.3857 16.664 52.1897 16.692 50.8937 16.692L50.7497 15.72ZM52.4057 11.604C52.4057 12.06 52.5657 12.432 52.8857 12.72C53.2137 13 53.6297 13.14 54.1337 13.14C54.6297 13.14 55.0377 13 55.3577 12.72C55.6857 12.432 55.8497 12.06 55.8497 11.604C55.8497 11.14 55.6897 10.772 55.3697 10.5C55.0497 10.22 54.6377 10.08 54.1337 10.08C53.6297 10.08 53.2137 10.22 52.8857 10.5C52.5657 10.772 52.4057 11.14 52.4057 11.604ZM58.2497 8.304H59.4257V18.948H58.2497V8.304ZM67.8556 9.204V10.956C67.8556 11.604 67.9716 12.24 68.2036 12.864C68.4356 13.488 68.7596 14.044 69.1756 14.532C69.5916 15.012 70.0716 15.372 70.6156 15.612L69.9196 16.56C69.3196 16.272 68.7916 15.848 68.3356 15.288C67.8796 14.728 67.5276 14.084 67.2796 13.356C67.0316 14.148 66.6756 14.84 66.2116 15.432C65.7476 16.024 65.2036 16.472 64.5796 16.776L63.8716 15.804C64.4156 15.556 64.8996 15.18 65.3236 14.676C65.7476 14.172 66.0756 13.596 66.3076 12.948C66.5476 12.292 66.6676 11.628 66.6676 10.956V9.204H67.8556ZM71.5036 8.304H72.6796V18.948H71.5036V8.304ZM82.7359 8.316V11.436H84.2479V12.408H82.7359V16.008H81.5599V8.316H82.7359ZM74.4319 13.932C75.6559 13.564 76.6319 13.044 77.3599 12.372C78.0879 11.7 78.5039 10.936 78.6079 10.08H74.8759V9.132H79.8919C79.8919 10.508 79.4559 11.692 78.5839 12.684C77.7119 13.668 76.4919 14.396 74.9239 14.868L74.4319 13.932ZM76.0279 15.228H77.2039V17.76H83.1679V18.72H76.0279V15.228ZM93.6682 8.304V18.948H92.4802V8.304H93.6682ZM85.2922 12.828C85.2922 12.084 85.4082 11.432 85.6402 10.872C85.8722 10.304 86.1962 9.868 86.6122 9.564C87.0282 9.252 87.5002 9.096 88.0282 9.096C88.5562 9.096 89.0242 9.252 89.4322 9.564C89.8482 9.868 90.1722 10.304 90.4042 10.872C90.6362 11.432 90.7522 12.084 90.7522 12.828C90.7522 13.58 90.6362 14.24 90.4042 14.808C90.1722 15.376 89.8482 15.816 89.4322 16.128C89.0242 16.432 88.5562 16.584 88.0282 16.584C87.5002 16.584 87.0282 16.432 86.6122 16.128C86.1962 15.816 85.8722 15.376 85.6402 14.808C85.4082 14.24 85.2922 13.58 85.2922 12.828ZM86.4322 12.828C86.4322 13.652 86.5762 14.308 86.8642 14.796C87.1602 15.276 87.5482 15.516 88.0282 15.516C88.5002 15.516 88.8842 15.276 89.1802 14.796C89.4762 14.308 89.6242 13.652 89.6242 12.828C89.6242 12.012 89.4762 11.364 89.1802 10.884C88.8842 10.404 88.5002 10.164 88.0282 10.164C87.5482 10.164 87.1602 10.404 86.8642 10.884C86.5762 11.364 86.4322 12.012 86.4322 12.828ZM106.982 8.316V13.704H105.806V11.7H103.67V10.752H105.806V8.316H106.982ZM98.3301 13.008C99.5381 12.72 100.478 12.296 101.15 11.736C101.822 11.176 102.206 10.508 102.302 9.732H98.9181V8.784H103.574C103.574 10.104 103.158 11.2 102.326 12.072C101.494 12.936 100.298 13.56 98.7381 13.944L98.3301 13.008ZM100.082 14.148H106.982V16.884H101.27V17.892H107.282V18.828H100.106V15.984H105.806V15.084H100.082V14.148ZM117.47 8.304V18.948H116.294V14.532H114.278V13.584H116.294V11.628H114.326V10.668H116.294V8.304H117.47ZM109.034 9.252H113.714V13.164H110.222V15.54C111.038 15.532 111.766 15.508 112.406 15.468C113.054 15.428 113.722 15.356 114.41 15.252L114.506 16.224C113.746 16.344 113.014 16.424 112.31 16.464C111.606 16.504 110.794 16.524 109.874 16.524H109.058V12.216H112.55V10.2H109.034V9.252ZM121.443 16.656V13.884C121.011 13.644 120.675 13.336 120.435 12.96C120.195 12.584 120.075 12.164 120.075 11.7C120.075 11.148 120.243 10.66 120.579 10.236C120.915 9.812 121.375 9.488 121.959 9.264C122.551 9.032 123.223 8.916 123.975 8.916C124.727 8.916 125.399 9.032 125.991 9.264C126.583 9.488 127.043 9.812 127.371 10.236C127.707 10.66 127.875 11.148 127.875 11.7C127.875 12.164 127.755 12.584 127.515 12.96C127.283 13.328 126.951 13.636 126.519 13.884V16.656H128.799V17.616H119.175V16.656H121.443ZM121.227 11.7C121.227 12.268 121.479 12.72 121.983 13.056C122.495 13.384 123.159 13.548 123.975 13.548C124.791 13.548 125.451 13.38 125.955 13.044C126.467 12.708 126.723 12.26 126.723 11.7C126.723 11.14 126.467 10.692 125.955 10.356C125.451 10.02 124.791 9.852 123.975 9.852C123.159 9.852 122.495 10.02 121.983 10.356C121.479 10.684 121.227 11.132 121.227 11.7ZM125.343 16.656V14.328C124.927 14.424 124.471 14.472 123.975 14.472C123.495 14.472 123.043 14.424 122.619 14.328V16.656H125.343Z" fill="#26784C"/>
<path d="M72.9224 36L67.2932 26.25H78.5515L72.9224 36Z" fill="#B2E9CC"/>
</svg>
