<svg width="304" height="322" viewBox="0 0 304 322" fill="none" xmlns="http://www.w3.org/2000/svg">
<mask id="mask0_1702_3179" style="mask-type:alpha" maskUnits="userSpaceOnUse" x="0" y="0" width="304" height="322">
<rect y="0.30957" width="304" height="321.1" rx="10" fill="#FAFAFC"/>
</mask>
<g mask="url(#mask0_1702_3179)">
<ellipse cx="148.435" cy="279.136" rx="126.585" ry="33.7235" fill="#8CDEB2"/>
<path d="M226.277 61.4638C226.277 53.6003 219.719 47.3744 211.816 47.3744H150.531C142.628 47.3744 136.071 53.6003 136.071 61.4638V65.4183C136.071 70.0084 132.203 73.8781 127.245 73.8781C119.438 73.8781 112.959 80.0287 112.959 87.7991V259.094C112.959 266.957 119.516 273.183 127.419 273.183H233.966C241.869 273.183 248.426 266.957 248.426 259.094V87.3329C248.426 79.8199 242.162 73.8781 234.621 73.8781C229.929 73.8781 226.277 70.2172 226.277 65.8846V61.4638Z" fill="url(#paint0_linear_1702_3179)" stroke="url(#paint1_linear_1702_3179)" stroke-width="5.46123"/>
<path d="M133.284 88.4407V88.4407C128.965 88.4407 125.464 91.9418 125.464 96.2606V140.501" stroke="#D9F4E5" stroke-width="3.27674"/>
<path d="M228.101 88.4407V88.4407C232.42 88.4407 235.921 91.9418 235.921 96.2606V210.415" stroke="#D9F4E5" stroke-width="3.27674"/>
<rect x="118.392" y="30.8825" width="126.555" height="31.8192" rx="7.64572" fill="#D9F4E5" stroke="#C9EFDA" stroke-width="4.36898" stroke-linejoin="round"/>
<path d="M176.895 212.841C176.895 241.942 154.166 265.396 126.295 265.396C98.4236 265.396 75.695 241.942 75.695 212.841C75.695 183.74 98.4236 160.286 126.295 160.286C154.166 160.286 176.895 183.74 176.895 212.841Z" fill="#40C97F" stroke="#195033" stroke-width="4.36898"/>
<path fill-rule="evenodd" clip-rule="evenodd" d="M70.4633 185.429C70.4632 177.856 73.1406 163.065 84.2624 148.816C99.9023 128.777 110.166 124.867 113.587 125.845C117.008 126.822 122.873 128.777 116.52 153.214C115.514 156.986 113.241 160.69 111.574 163.027C112.242 163.002 112.913 162.989 113.587 162.989C115.728 162.989 117.84 163.119 119.915 163.371C126.784 154.345 140.061 141.957 160.507 135.981C192.275 126.695 177.124 163.839 170.771 174.592C166.483 181.847 163.17 186.715 160.184 190.896C164.742 199.08 167.35 208.578 167.35 218.706C167.35 249.478 143.279 274.423 113.587 274.423C83.8955 274.423 59.8254 249.478 59.8254 218.706C59.8254 206.232 63.7811 194.715 70.4633 185.429Z" fill="url(#paint2_linear_1702_3179)"/>
<path d="M84.2624 148.816L85.9845 150.16L84.2624 148.816ZM70.4633 185.429L72.2364 186.705C72.5039 186.333 72.6478 185.887 72.6478 185.429L70.4633 185.429ZM113.587 125.845L114.187 123.744V123.744L113.587 125.845ZM116.52 153.214L118.631 153.777L118.634 153.764L116.52 153.214ZM111.574 163.027L109.796 161.759C109.312 162.437 109.256 163.331 109.651 164.064C110.047 164.798 110.825 165.242 111.657 165.21L111.574 163.027ZM119.915 163.371L119.651 165.539C120.422 165.633 121.183 165.311 121.653 164.694L119.915 163.371ZM160.507 135.981L161.12 138.077L160.507 135.981ZM170.771 174.592L168.89 173.48L170.771 174.592ZM160.184 190.896L158.406 189.627C157.916 190.314 157.865 191.222 158.276 191.959L160.184 190.896ZM82.5404 147.472C71.08 162.155 68.2787 177.436 68.2788 185.429L72.6478 185.429C72.6477 178.276 75.2012 163.976 85.9845 150.16L82.5404 147.472ZM114.187 123.744C112.745 123.332 110.981 123.517 109.093 124.124C107.157 124.746 104.877 125.878 102.28 127.642C97.085 131.169 90.4492 137.338 82.5404 147.472L85.9845 150.16C93.7155 140.254 100.032 134.449 104.734 131.256C107.085 129.66 108.99 128.746 110.429 128.283C111.917 127.805 112.719 127.868 112.987 127.945L114.187 123.744ZM118.634 153.764C121.824 141.496 122.096 134.387 120.811 130.104C120.141 127.871 119.036 126.362 117.698 125.353C116.412 124.383 115.051 123.991 114.187 123.744L112.987 127.945C113.834 128.187 114.489 128.405 115.067 128.841C115.592 129.237 116.197 129.928 116.627 131.36C117.541 134.408 117.569 140.496 114.406 152.665L118.634 153.764ZM113.352 164.296C115.074 161.884 117.524 157.926 118.63 153.777L114.409 152.651C113.504 156.046 111.409 159.497 109.796 161.759L113.352 164.296ZM111.657 165.21C112.298 165.186 112.941 165.174 113.587 165.174V160.805C112.886 160.805 112.187 160.818 111.491 160.845L111.657 165.21ZM113.587 165.174C115.64 165.174 117.663 165.298 119.651 165.539L120.178 161.202C118.016 160.94 115.816 160.805 113.587 160.805V165.174ZM121.653 164.694C128.306 155.953 141.216 143.896 161.12 138.077L159.894 133.884C138.905 140.019 125.263 152.737 118.177 162.048L121.653 164.694ZM161.12 138.077C168.868 135.813 172.959 136.633 175.047 138.294C177.131 139.951 178.047 143.106 177.755 147.631C177.469 152.06 176.052 157.193 174.269 161.95C172.493 166.69 170.408 170.911 168.89 173.48L172.651 175.703C174.31 172.896 176.502 168.442 178.36 163.483C180.212 158.542 181.789 152.953 182.115 147.912C182.434 142.968 181.578 137.906 177.766 134.874C173.958 131.846 168.03 131.506 159.894 133.884L161.12 138.077ZM168.89 173.48C164.64 180.672 161.362 185.487 158.406 189.627L161.962 192.165C164.977 187.943 168.326 183.022 172.651 175.703L168.89 173.48ZM158.276 191.959C162.655 199.824 165.165 208.956 165.165 218.706H169.534C169.534 208.199 166.828 198.337 162.093 189.833L158.276 191.959ZM165.165 218.706C165.165 248.346 142 272.239 113.587 272.239V276.608C144.559 276.608 169.534 250.61 169.534 218.706H165.165ZM113.587 272.239C85.1749 272.239 62.0099 248.346 62.0099 218.706H57.6409C57.6409 250.61 82.6162 276.608 113.587 276.608V272.239ZM62.0099 218.706C62.0099 206.699 65.8162 195.627 72.2364 186.705L68.6902 184.153C61.746 193.803 57.6409 205.764 57.6409 218.706H62.0099Z" fill="#195033"/>
<path d="M119.325 165.169L121.505 165.297L121.762 160.936L119.581 160.808L119.325 165.169ZM93.4901 165.822C92.3847 166.306 91.8806 167.594 92.364 168.699C92.8475 169.804 94.1355 170.309 95.2408 169.825L93.4901 165.822ZM119.581 160.808C110.918 160.299 103.733 161.342 93.4901 165.822L95.2408 169.825C104.87 165.613 111.369 164.702 119.325 165.169L119.581 160.808Z" fill="#195033"/>
<path d="M132.345 170.656C137.888 165.511 150.153 157.913 152.91 157.376C153.085 157.342 153.263 157.323 153.437 157.286C155.434 156.865 158.697 157.026 157.575 160.767C156.536 164.229 151.589 173.823 148.433 179.708C147.831 180.83 146.4 181.189 145.317 180.518C141.989 178.456 137.091 175.638 133.204 174.024C131.789 173.436 131.223 171.698 132.345 170.656Z" fill="#40C97F"/>
<mask id="path-12-inside-1_1702_3179" fill="white">
<path fill-rule="evenodd" clip-rule="evenodd" d="M96.7201 220.012C97.5107 217.615 97.9479 214.981 97.9479 212.215C97.9479 201.148 90.9457 192.177 82.3081 192.177C73.6704 192.177 66.6682 201.148 66.6682 212.215C66.6682 222.876 73.1655 231.592 81.3633 232.218C81.8262 225.133 87.105 219.546 93.5489 219.546C94.6457 219.546 95.7088 219.708 96.7201 220.012Z"/>
</mask>
<path fill-rule="evenodd" clip-rule="evenodd" d="M96.7201 220.012C97.5107 217.615 97.9479 214.981 97.9479 212.215C97.9479 201.148 90.9457 192.177 82.3081 192.177C73.6704 192.177 66.6682 201.148 66.6682 212.215C66.6682 222.876 73.1655 231.592 81.3633 232.218C81.8262 225.133 87.105 219.546 93.5489 219.546C94.6457 219.546 95.7088 219.708 96.7201 220.012Z" fill="white"/>
<path d="M96.7201 220.012L95.7781 223.15L98.8326 224.067L99.8318 221.038L96.7201 220.012ZM81.3633 232.218L81.1138 235.485L84.417 235.738L84.633 232.432L81.3633 232.218ZM94.6712 212.215C94.6712 214.637 94.2883 216.924 93.6083 218.985L99.8318 221.038C100.733 218.306 101.225 215.325 101.225 212.215H94.6712ZM82.3081 195.454C88.4264 195.454 94.6712 202.156 94.6712 212.215H101.225C101.225 200.141 93.465 188.9 82.3081 188.9V195.454ZM69.945 212.215C69.945 202.156 76.1897 195.454 82.3081 195.454V188.9C71.1511 188.9 63.3915 200.141 63.3915 212.215H69.945ZM81.6127 228.951C75.7443 228.503 69.945 221.866 69.945 212.215H63.3915C63.3915 223.886 70.5867 234.682 81.1138 235.485L81.6127 228.951ZM84.633 232.432C85.0054 226.733 89.1504 222.823 93.5489 222.823V216.27C85.0597 216.27 78.647 223.534 78.0935 232.004L84.633 232.432ZM93.5489 222.823C94.3211 222.823 95.067 222.937 95.7781 223.15L97.6621 216.873C96.3506 216.48 94.9704 216.27 93.5489 216.27V222.823Z" fill="#195033" mask="url(#path-12-inside-1_1702_3179)"/>
<path d="M155.131 156.147C152.687 156.147 135.581 166.899 132.16 171.787" stroke="#195033" stroke-width="4.36898" stroke-linecap="round"/>
<ellipse cx="79.3752" cy="207.817" rx="10.7524" ry="13.6849" fill="#195033"/>
<path d="M145.184 212.215C145.184 222.779 138.56 230.616 131.182 230.616C123.804 230.616 117.181 222.779 117.181 212.215C117.181 201.652 123.804 193.815 131.182 193.815C138.56 193.815 145.184 201.652 145.184 212.215Z" fill="white" stroke="#195033" stroke-width="3.27674"/>
<ellipse cx="128.25" cy="207.816" rx="10.7524" ry="13.6849" fill="#195033"/>
<ellipse cx="126.784" cy="203.418" rx="4.39871" ry="5.3762" fill="white"/>
<ellipse cx="77.9092" cy="203.418" rx="4.39871" ry="5.3762" fill="white"/>
<path d="M97.4589 248.871C88.5513 248.871 81.3303 242.088 81.3303 233.72C81.3303 225.353 88.5513 218.569 97.4589 218.569" stroke="#195033" stroke-width="3.27674"/>
<path d="M102.835 221.013C102.835 223.442 99.5527 225.412 95.5038 225.412C91.4549 225.412 88.1726 223.442 88.1726 221.013C88.1726 218.584 91.4549 216.614 95.5038 216.614C99.5527 216.614 102.835 218.584 102.835 221.013Z" fill="#195033"/>
<mask id="path-22-inside-2_1702_3179" fill="white">
<path fill-rule="evenodd" clip-rule="evenodd" d="M214.516 219.366C220.223 209.788 225.836 195.836 215.514 194.441C205.443 193.08 194.28 201.381 187.886 207.725C187.949 207.479 188.015 207.219 188.083 206.946C189.294 202.106 191.311 191.214 184.856 189.197C178.597 187.24 164.51 200.246 160.344 212.271C160.318 212.343 160.298 212.416 160.284 212.489C155.936 212.88 152.069 214.639 149.532 217.75C145.102 223.182 146.047 231.123 151.223 237.504C144.638 242.418 141.771 249.884 144.731 256.238C147.732 262.681 155.819 266.04 164.438 265.072C165.665 273.197 171.395 279.681 178.994 280.629C186.606 281.578 193.765 276.682 196.942 269.085C205.106 272.22 213.858 270.971 218.38 265.425C222.81 259.993 221.866 252.052 216.689 245.671C223.275 240.757 226.141 233.291 223.182 226.937C221.551 223.437 218.419 220.846 214.516 219.366Z"/>
</mask>
<path fill-rule="evenodd" clip-rule="evenodd" d="M214.516 219.366C220.223 209.788 225.836 195.836 215.514 194.441C205.443 193.08 194.28 201.381 187.886 207.725C187.949 207.479 188.015 207.219 188.083 206.946C189.294 202.106 191.311 191.214 184.856 189.197C178.597 187.24 164.51 200.246 160.344 212.271C160.318 212.343 160.298 212.416 160.284 212.489C155.936 212.88 152.069 214.639 149.532 217.75C145.102 223.182 146.047 231.123 151.223 237.504C144.638 242.418 141.771 249.884 144.731 256.238C147.732 262.681 155.819 266.04 164.438 265.072C165.665 273.197 171.395 279.681 178.994 280.629C186.606 281.578 193.765 276.682 196.942 269.085C205.106 272.22 213.858 270.971 218.38 265.425C222.81 259.993 221.866 252.052 216.689 245.671C223.275 240.757 226.141 233.291 223.182 226.937C221.551 223.437 218.419 220.846 214.516 219.366Z" fill="url(#paint3_linear_1702_3179)"/>
<path d="M215.514 194.441L216.132 189.871V189.871L215.514 194.441ZM214.516 219.366L210.554 217.005C209.856 218.176 209.713 219.596 210.161 220.884C210.61 222.171 211.606 223.194 212.88 223.678L214.516 219.366ZM187.886 207.725L183.42 206.574C182.902 208.584 183.791 210.693 185.591 211.725C187.392 212.758 189.66 212.461 191.134 210.999L187.886 207.725ZM188.083 206.946L192.558 208.065L192.558 208.065L188.083 206.946ZM184.856 189.197L186.232 184.795L184.856 189.197ZM160.344 212.271L155.986 210.761L155.986 210.761L160.344 212.271ZM160.284 212.489L160.697 217.082C162.725 216.899 164.394 215.408 164.802 213.413L160.284 212.489ZM149.532 217.75L153.106 220.664L153.106 220.664L149.532 217.75ZM151.223 237.504L153.981 241.201C154.987 240.45 155.644 239.321 155.799 238.075C155.955 236.829 155.596 235.574 154.805 234.599L151.223 237.504ZM144.731 256.238L148.911 254.291L148.911 254.291L144.731 256.238ZM164.438 265.072L168.998 264.383C168.628 261.932 166.386 260.212 163.923 260.489L164.438 265.072ZM178.994 280.629L178.423 285.205H178.423L178.994 280.629ZM196.942 269.085L198.596 264.779C196.267 263.885 193.65 265.004 192.688 267.305L196.942 269.085ZM218.38 265.425L214.806 262.511L214.806 262.511L218.38 265.425ZM216.689 245.671L213.931 241.975C212.925 242.726 212.268 243.854 212.113 245.1C211.958 246.346 212.317 247.601 213.108 248.576L216.689 245.671ZM223.182 226.937L219.001 228.884L219.001 228.884L223.182 226.937ZM214.897 199.011C216.283 199.198 216.379 199.616 216.399 199.657C216.588 200.03 216.823 201.041 216.479 203.062C215.8 207.057 213.333 212.342 210.554 217.005L218.478 221.726C221.406 216.812 224.599 210.332 225.572 204.608C226.055 201.769 226.115 198.432 224.631 195.496C222.98 192.23 219.907 190.381 216.132 189.871L214.897 199.011ZM191.134 210.999C194.129 208.028 198.185 204.66 202.564 202.223C207.013 199.747 211.274 198.521 214.897 199.011L216.132 189.871C209.684 188.999 203.327 191.243 198.079 194.164C192.759 197.124 188.038 201.078 184.638 204.451L191.134 210.999ZM183.609 205.828C183.544 206.091 183.481 206.339 183.42 206.574L192.352 208.876C192.418 208.618 192.487 208.348 192.558 208.065L183.609 205.828ZM183.481 193.598C183.7 193.667 184.601 193.998 184.736 197.208C184.859 200.103 184.189 203.51 183.609 205.828L192.558 208.065C193.188 205.542 194.132 201.083 193.952 196.818C193.785 192.867 192.467 186.743 186.232 184.795L183.481 193.598ZM164.701 213.78C166.477 208.655 170.531 203.004 174.964 198.86C177.162 196.806 179.279 195.287 181.033 194.411C182.978 193.439 183.658 193.654 183.481 193.598L186.232 184.795C182.926 183.761 179.497 184.868 176.91 186.16C174.132 187.548 171.293 189.666 168.666 192.122C163.449 196.998 158.376 203.862 155.986 210.761L164.701 213.78ZM164.802 213.413C164.776 213.54 164.742 213.662 164.701 213.78L155.986 210.761C155.895 211.024 155.821 211.292 155.765 211.564L164.802 213.413ZM153.106 220.664C154.695 218.715 157.303 217.387 160.697 217.082L159.87 207.896C154.568 208.373 149.442 210.563 145.958 214.836L153.106 220.664ZM154.805 234.599C150.497 229.289 150.51 223.848 153.106 220.664L145.958 214.835C139.695 222.515 141.596 232.958 147.642 240.41L154.805 234.599ZM148.911 254.291C147.177 250.567 148.501 245.29 153.981 241.201L148.465 233.808C140.775 239.547 136.366 249.202 140.55 258.185L148.911 254.291ZM163.923 260.489C156.485 261.325 150.784 258.312 148.911 254.291L140.55 258.185C144.679 267.051 155.153 270.756 164.953 269.655L163.923 260.489ZM179.565 276.052C174.417 275.41 169.981 270.894 168.998 264.383L159.878 265.761C161.349 275.5 168.373 283.951 178.423 285.205L179.565 276.052ZM192.688 267.305C190.141 273.394 184.721 276.695 179.565 276.052L178.423 285.205C188.491 286.461 197.389 279.969 201.197 270.864L192.688 267.305ZM214.806 262.511C211.984 265.972 205.647 267.488 198.596 264.779L195.289 273.39C204.566 276.953 215.732 275.971 221.955 268.34L214.806 262.511ZM213.108 248.576C217.416 253.886 217.403 259.327 214.806 262.511L221.954 268.34C228.217 260.66 226.316 250.217 220.271 242.766L213.108 248.576ZM219.001 228.884C220.736 232.609 219.412 237.886 213.931 241.975L219.447 249.367C227.138 243.629 231.546 233.973 227.362 224.99L219.001 228.884ZM212.88 223.678C215.904 224.824 217.979 226.69 219.001 228.884L227.362 224.99C225.123 220.183 220.934 216.868 216.152 215.054L212.88 223.678Z" fill="#0D2819" mask="url(#path-22-inside-2_1702_3179)"/>
<path d="M187.533 210.175C186.204 209.706 181.692 209.424 174.279 212.043" stroke="#0D2819" stroke-width="3.6894" stroke-linecap="round"/>
<path d="M205.742 239.352C205.742 246.22 201.443 251.176 196.807 251.176C192.171 251.176 187.873 246.22 187.873 239.352C187.873 232.485 192.171 227.529 196.807 227.529C201.443 227.529 205.742 232.485 205.742 239.352Z" fill="white" stroke="#0D2819" stroke-width="2.76705"/>
<path d="M201.712 236.463C201.712 241.091 198.69 244.669 195.156 244.669C191.622 244.669 188.601 241.091 188.601 236.463C188.601 231.836 191.622 228.257 195.156 228.257C198.69 228.257 201.712 231.836 201.712 236.463Z" fill="#0D2819" stroke="#0D2819" stroke-width="0.922349"/>
<ellipse cx="194.331" cy="232.749" rx="2.88906" ry="3.30178" fill="white"/>
<path d="M175.013 237.702C175.013 244.569 170.714 249.525 166.078 249.525C161.442 249.525 157.144 244.569 157.144 237.702C157.144 230.834 161.442 225.878 166.078 225.878C170.714 225.878 175.013 230.834 175.013 237.702Z" fill="white" stroke="#0D2819" stroke-width="2.76705"/>
<path d="M170.983 234.812C170.983 239.44 167.961 243.018 164.427 243.018C160.893 243.018 157.872 239.44 157.872 234.812C157.872 230.184 160.893 226.606 164.427 226.606C167.961 226.606 170.983 230.184 170.983 234.812Z" fill="#0D2819" stroke="#0D2819" stroke-width="0.922349"/>
<ellipse cx="163.602" cy="231.098" rx="2.88906" ry="3.30178" fill="white"/>
<ellipse cx="175.022" cy="244.916" rx="4.74913" ry="4.19948" fill="#0D2819"/>
</g>
<defs>
<linearGradient id="paint0_linear_1702_3179" x1="180.692" y1="56.731" x2="180.692" y2="268.76" gradientUnits="userSpaceOnUse">
<stop stop-color="#FAFAFC"/>
<stop offset="1" stop-color="#D9F4E5" stop-opacity="0.4"/>
</linearGradient>
<linearGradient id="paint1_linear_1702_3179" x1="180.692" y1="50.105" x2="180.692" y2="270.453" gradientUnits="userSpaceOnUse">
<stop stop-color="#D9F4E5"/>
<stop offset="1" stop-color="#40C97F"/>
</linearGradient>
<linearGradient id="paint2_linear_1702_3179" x1="121.052" y1="125.708" x2="121.052" y2="274.423" gradientUnits="userSpaceOnUse">
<stop stop-color="#F3FFC4"/>
<stop offset="1" stop-color="#E6FF86"/>
</linearGradient>
<linearGradient id="paint3_linear_1702_3179" x1="183.956" y1="189" x2="183.956" y2="280.746" gradientUnits="userSpaceOnUse">
<stop stop-color="#5B6168"/>
<stop offset="1" stop-color="#36393C"/>
</linearGradient>
</defs>
</svg>
