<svg width="300" height="335" viewBox="0 0 300 335" fill="none" xmlns="http://www.w3.org/2000/svg">
<ellipse cx="136.713" cy="136.713" rx="136.713" ry="136.713" fill="#D9F4E5"/>
<mask id="path-2-inside-1_2186_9215" fill="white">
<path fill-rule="evenodd" clip-rule="evenodd" d="M183.951 45.053C180.7 44.5003 177.469 46.1395 175.995 49.0903L163.327 74.4457L126.929 68.2769C123.707 67.7307 120.607 68.4986 118.129 70.1583L63.3015 104.256C59.5178 106.285 56.8648 110.271 56.8648 114.995V192.115C56.8648 197.816 60.8211 202.753 66.3849 203.996L234.935 241.633C242.541 243.331 249.761 237.546 249.761 229.753L268.444 211.339L285.793 196.958C293.223 198.217 300 192.492 300 184.956V109.076V109.057V109.023V107.893C300 101.955 295.716 96.8833 289.861 95.8911L242.792 87.9136L253.406 66.6666C255.654 62.1679 252.918 56.7763 247.96 55.9335L183.951 45.053Z"/>
</mask>
<path fill-rule="evenodd" clip-rule="evenodd" d="M183.951 45.053C180.7 44.5003 177.469 46.1395 175.995 49.0903L163.327 74.4457L126.929 68.2769C123.707 67.7307 120.607 68.4986 118.129 70.1583L63.3015 104.256C59.5178 106.285 56.8648 110.271 56.8648 114.995V192.115C56.8648 197.816 60.8211 202.753 66.3849 203.996L234.935 241.633C242.541 243.331 249.761 237.546 249.761 229.753L268.444 211.339L285.793 196.958C293.223 198.217 300 192.492 300 184.956V109.076V109.057V109.023V107.893C300 101.955 295.716 96.8833 289.861 95.8911L242.792 87.9136L253.406 66.6666C255.654 62.1679 252.918 56.7763 247.96 55.9335L183.951 45.053Z" fill="#ECEEF0"/>
<path d="M175.995 49.0903L179.345 50.7642L179.345 50.7642L175.995 49.0903ZM183.951 45.053L184.579 41.3604L183.951 45.053ZM163.327 74.4457L162.701 78.1386C164.327 78.4141 165.941 77.5945 166.678 76.1197L163.327 74.4457ZM126.929 68.2769L126.304 71.9698L126.929 68.2769ZM118.129 70.1583L120.107 73.339C120.143 73.3166 120.179 73.2937 120.214 73.2701L118.129 70.1583ZM63.3015 104.256L65.0716 107.556C65.1422 107.519 65.2115 107.479 65.2795 107.436L63.3015 104.256ZM66.3849 203.996L65.5686 207.651H65.5686L66.3849 203.996ZM234.935 241.633L234.119 245.289L234.935 241.633ZM249.761 229.753L247.132 227.085C246.418 227.789 246.015 228.75 246.015 229.753H249.761ZM268.444 211.339L266.053 208.455C265.971 208.524 265.891 208.596 265.814 208.671L268.444 211.339ZM285.793 196.958L286.419 193.265C285.344 193.083 284.242 193.378 283.403 194.074L285.793 196.958ZM289.861 95.8911L289.235 99.584L289.861 95.8911ZM242.792 87.9136L239.441 86.2396C238.911 87.3011 238.915 88.5511 239.452 89.6092C239.989 90.6673 240.996 91.4082 242.166 91.6065L242.792 87.9136ZM253.406 66.6666L256.757 68.3406L253.406 66.6666ZM247.96 55.9335L247.333 59.6261L247.96 55.9335ZM179.345 50.7642C180.083 49.2889 181.698 48.4692 183.324 48.7456L184.579 41.3604C179.701 40.5313 174.855 42.9902 172.644 47.4163L179.345 50.7642ZM166.678 76.1197L179.345 50.7642L172.644 47.4163L159.977 72.7718L166.678 76.1197ZM126.304 71.9698L162.701 78.1386L163.953 70.7528L127.555 64.584L126.304 71.9698ZM120.214 73.2701C121.931 72.1198 124.067 71.5907 126.304 71.9698L127.555 64.584C123.347 63.8707 119.282 64.8773 116.045 67.0466L120.214 73.2701ZM65.2795 107.436L120.107 73.339L116.151 66.9777L61.3235 101.075L65.2795 107.436ZM60.6103 114.995C60.6103 111.73 62.433 108.971 65.0716 107.556L61.5314 100.955C56.6027 103.598 53.1192 108.812 53.1192 114.995H60.6103ZM60.6103 192.115V114.995H53.1192V192.115H60.6103ZM67.2012 200.34C63.3493 199.48 60.6103 196.062 60.6103 192.115H53.1192C53.1192 199.57 58.2929 206.027 65.5686 207.651L67.2012 200.34ZM235.751 237.978L67.2012 200.34L65.5686 207.651L234.119 245.289L235.751 237.978ZM246.015 229.753C246.015 235.148 241.017 239.153 235.751 237.978L234.119 245.289C244.064 247.51 253.507 239.943 253.507 229.753H246.015ZM265.814 208.671L247.132 227.085L252.39 232.42L271.073 214.006L265.814 208.671ZM283.403 194.074L266.053 208.455L270.834 214.222L288.183 199.841L283.403 194.074ZM296.255 184.956C296.255 190.173 291.562 194.137 286.419 193.265L285.167 200.651C294.883 202.297 303.746 194.81 303.746 184.956H296.255ZM296.255 109.076V184.956H303.746V109.076H296.255ZM296.255 109.057V109.076H303.746V109.057H296.255ZM296.255 109.023V109.057H303.746V109.023H296.255ZM296.255 107.893V109.023H303.746V107.893H296.255ZM289.235 99.584C293.288 100.271 296.255 103.782 296.255 107.893H303.746C303.746 100.128 298.143 93.4957 290.487 92.1982L289.235 99.584ZM242.166 91.6065L289.235 99.584L290.487 92.1982L243.417 84.2207L242.166 91.6065ZM250.056 64.9927L239.441 86.2396L246.142 89.5876L256.757 68.3406L250.056 64.9927ZM247.333 59.6261C249.812 60.0475 251.18 62.7433 250.056 64.9927L256.757 68.3406C260.128 61.5925 256.025 53.505 248.588 52.2409L247.333 59.6261ZM183.324 48.7456L247.333 59.6261L248.588 52.2409L184.579 41.3604L183.324 48.7456Z" fill="#0D2819" mask="url(#path-2-inside-1_2186_9215)"/>
<path d="M90.6661 127.553C90.6661 127.19 90.1596 127.213 89.8386 127.091C89.4028 126.926 93.1397 123.515 95.0809 123.868L122.833 128.908C124.614 129.232 125.909 130.783 125.909 132.594L125.909 140.712C125.909 142.684 122.634 145.939 121.98 145.718C121.599 145.759 121.788 144.461 121.388 144.377L93.6367 138.509C91.905 138.142 90.6661 136.614 90.6661 134.844L90.6661 127.553Z" fill="#36393C"/>
<path d="M83.6287 127.372C83.9359 131.244 82.2045 133.979 78.3066 135.733C76.8157 136.287 76.4509 136.352 76.0522 136.38C72.3279 136.646 70.4857 132.67 70.1418 128.334C69.8891 125.147 69.0322 123.134 71.2764 121.736C72.0867 121.231 74.0913 120.143 76.2086 120.067C80.5598 120.302 83.2848 123.035 83.6287 127.372Z" fill="#ED7C63"/>
<path d="M88.7922 129.424C88.7922 127.087 90.9081 125.321 93.2071 125.739L120.959 130.779C122.74 131.102 124.035 132.654 124.035 134.464L124.035 142.583C124.035 144.963 121.844 146.74 119.515 146.247L91.7629 140.379C90.0312 140.013 88.7922 138.485 88.7922 136.715L88.7922 129.424Z" fill="#64696E"/>
<ellipse cx="6.7606" cy="7.87668" rx="6.7606" ry="7.87668" transform="matrix(0.997467 -0.0711286 0.0790662 0.996869 67.0969 121.442)" fill="#FFAF9D"/>
<path d="M154.588 86.5378C154.613 84.5548 156.409 83.0661 158.362 83.4087L230.702 96.0973C232.256 96.37 233.383 97.7294 233.363 99.3073C233.339 101.29 231.543 102.779 229.59 102.436L157.25 89.7478C155.696 89.4752 154.569 88.1157 154.588 86.5378Z" fill="#DDE0E4"/>
<g style="mix-blend-mode:plus-darker">
<path d="M287.742 99.8434C294.67 97.1018 297.514 105.65 297.514 111.337V112.419V112.452V112.47V185.133C297.514 192.35 290.982 197.832 283.82 196.626L267.098 210.398L249.091 228.031C249.091 235.494 242.131 241.035 234.801 239.408C234.801 232.069 234.462 211.938 234.087 200.873C233.209 174.933 232.673 154.618 234.801 147.387C239.18 132.504 267.959 112.127 287.742 99.8434Z" fill="#ECEEF0"/>
</g>
<path d="M93.2312 182.842C93.2312 181.652 94.3267 180.763 95.4911 181.009L190.618 201.106C191.484 201.289 192.104 202.053 192.104 202.938L192.104 211.101C192.104 212.299 190.995 213.188 189.826 212.929L94.6989 191.858C93.8415 191.668 93.2312 190.908 93.2312 190.03L93.2312 182.842Z" fill="#64696E" stroke="#64696E" stroke-width="3.74556" stroke-linejoin="round"/>
<path fill-rule="evenodd" clip-rule="evenodd" d="M108.875 186.626C89.8326 182.165 84.4565 192.271 80.6399 202.436C80.1708 203.685 79.6927 204.962 79.2056 206.262C67.265 238.145 49.9056 284.497 25.8397 302.052L24.4589 303.333C22.2105 305.419 23.2851 309.176 26.2966 309.757L31.388 310.74L46.1204 299.765C47.125 299.017 48.5669 299.447 48.9977 300.623L54.3236 315.166L58.0064 315.877L72.3393 305.201C73.3439 304.452 74.7858 304.882 75.2166 306.059L80.3949 320.198L83.8813 320.871L97.6218 310.636C98.6264 309.888 100.068 310.318 100.499 311.494L105.458 325.036L110.499 326.009L123.841 316.071C124.845 315.323 126.287 315.753 126.718 316.929L131.53 330.068L137.195 331.162C138.615 331.436 140.068 330.875 140.89 329.684C147.294 320.4 157.435 302.12 166.333 278.735C170.159 268.68 172.511 258.233 174.719 248.429C179.337 227.925 183.322 210.229 198.831 204.793L219.681 209.004C221.48 209.367 222.083 208.672 220.805 207.354C218.052 204.515 211.954 200.604 199.566 204.547C199.318 204.626 199.073 204.708 198.831 204.793L108.875 186.626Z" fill="#FAFAFC"/>
<path d="M80.6399 202.436L82.3932 203.094L82.3932 203.094L80.6399 202.436ZM108.875 186.626L108.448 188.449L108.476 188.456L108.504 188.462L108.875 186.626ZM79.2056 206.262L80.9595 206.919L80.9595 206.919L79.2056 206.262ZM25.8397 302.052L24.736 300.539L24.6469 300.604L24.5659 300.679L25.8397 302.052ZM24.4589 303.333L23.1851 301.96L23.1851 301.96L24.4589 303.333ZM26.2966 309.757L26.6515 307.918L26.6515 307.918L26.2966 309.757ZM31.388 310.74L31.033 312.578L31.8442 312.735L32.5067 312.241L31.388 310.74ZM46.1204 299.765L45.0016 298.263L45.0016 298.263L46.1204 299.765ZM48.9977 300.623L50.7563 299.979L50.7563 299.979L48.9977 300.623ZM54.3236 315.166L52.5651 315.81L52.9292 316.805L53.9687 317.005L54.3236 315.166ZM58.0064 315.877L57.6515 317.716L58.4627 317.873L59.1252 317.379L58.0064 315.877ZM72.3393 305.201L71.2205 303.699L72.3393 305.201ZM75.2166 306.059L73.458 306.703L75.2166 306.059ZM80.3949 320.198L78.6363 320.842L79.0004 321.837L80.0399 322.037L80.3949 320.198ZM83.8813 320.871L83.5264 322.71L84.3376 322.867L85.0001 322.373L83.8813 320.871ZM97.6218 310.636L96.503 309.134L96.503 309.134L97.6218 310.636ZM100.499 311.494L102.258 310.85L100.499 311.494ZM105.458 325.036L103.7 325.68L104.064 326.674L105.104 326.875L105.458 325.036ZM110.499 326.009L110.145 327.848L110.956 328.004L111.618 327.511L110.499 326.009ZM123.841 316.071L124.959 317.573L124.959 317.573L123.841 316.071ZM126.718 316.929L128.477 316.285L126.718 316.929ZM131.53 330.068L129.771 330.712L130.135 331.706L131.175 331.907L131.53 330.068ZM137.195 331.162L136.84 333L136.84 333L137.195 331.162ZM140.89 329.684L142.431 330.748L140.89 329.684ZM166.333 278.735L164.583 278.069L166.333 278.735ZM174.719 248.429L176.546 248.841L176.546 248.841L174.719 248.429ZM219.681 209.004L220.051 207.168L219.681 209.004ZM220.805 207.354L219.46 208.657L219.46 208.657L220.805 207.354ZM199.566 204.547L198.998 202.763L198.998 202.763L199.566 204.547ZM82.3932 203.094C84.2997 198.016 86.4492 193.415 90.1913 190.529C93.8113 187.738 99.2828 186.302 108.448 188.449L109.302 184.802C99.4247 182.489 92.687 183.875 87.9042 187.563C83.2435 191.157 80.7967 196.69 78.8867 201.778L82.3932 203.094ZM80.9595 206.919C81.4466 205.619 81.9244 204.343 82.3932 203.094L78.8867 201.778C78.4172 203.028 77.9389 204.305 77.4518 205.606L80.9595 206.919ZM26.9434 303.565C39.3621 294.506 49.8831 278.177 58.7463 260.365C67.6372 242.496 74.9945 222.846 80.9595 206.919L77.4518 205.606C71.4761 221.561 64.1834 241.029 55.3929 258.696C46.5748 276.418 36.3832 292.043 24.736 300.539L26.9434 303.565ZM25.7326 304.706L27.1135 303.425L24.5659 300.679L23.1851 301.96L25.7326 304.706ZM26.6515 307.918C25.1458 307.627 24.6085 305.749 25.7326 304.706L23.1851 301.96C19.8126 305.089 21.4245 310.724 25.9416 311.596L26.6515 307.918ZM31.7429 308.901L26.6515 307.918L25.9416 311.596L31.033 312.578L31.7429 308.901ZM45.0016 298.263L30.2692 309.238L32.5067 312.241L47.2391 301.267L45.0016 298.263ZM50.7563 299.979C49.8947 297.627 47.0109 296.767 45.0016 298.263L47.2391 301.267L47.2391 301.267L50.7563 299.979ZM56.0822 314.522L50.7563 299.979L47.2391 301.267L52.5651 315.81L56.0822 314.522ZM58.3614 314.038L54.6786 313.328L53.9687 317.005L57.6515 317.716L58.3614 314.038ZM71.2205 303.699L56.8877 314.375L59.1252 317.379L73.458 306.703L71.2205 303.699ZM76.9752 305.415C76.1136 303.062 73.2298 302.202 71.2205 303.699L73.458 306.703L73.458 306.703L76.9752 305.415ZM82.1534 319.554L76.9752 305.415L73.458 306.703L78.6363 320.842L82.1534 319.554ZM84.2363 319.033L80.7498 318.36L80.0399 322.037L83.5264 322.71L84.2363 319.033ZM96.503 309.134L82.7626 319.369L85.0001 322.373L98.7406 312.138L96.503 309.134ZM102.258 310.85C101.396 308.497 98.5123 307.637 96.503 309.134L98.7405 312.138L98.7406 312.138L102.258 310.85ZM107.217 324.392L102.258 310.85L98.7406 312.138L103.7 325.68L107.217 324.392ZM110.854 324.17L105.813 323.197L105.104 326.875L110.145 327.848L110.854 324.17ZM122.722 314.569L109.381 324.507L111.618 327.511L124.959 317.573L122.722 314.569ZM128.477 316.285C127.615 313.932 124.731 313.072 122.722 314.569L124.959 317.573L124.959 317.573L128.477 316.285ZM133.288 329.424L128.477 316.285L124.959 317.573L129.771 330.712L133.288 329.424ZM137.55 329.323L131.885 328.229L131.175 331.907L136.84 333L137.55 329.323ZM139.348 328.621C138.968 329.172 138.273 329.462 137.55 329.323L136.84 333C138.957 333.409 141.169 332.578 142.431 330.748L139.348 328.621ZM164.583 278.069C155.73 301.335 145.655 319.478 139.348 328.621L142.431 330.748C148.933 321.322 159.14 302.904 168.083 279.401L164.583 278.069ZM172.892 248.018C170.68 257.842 168.354 268.158 164.583 278.069L168.083 279.401C171.964 269.201 174.343 258.625 176.546 248.841L172.892 248.018ZM198.211 203.026C189.816 205.968 184.629 212.233 180.988 220.181C177.378 228.062 175.188 237.823 172.892 248.018L176.546 248.841C178.868 238.532 180.98 229.193 184.393 221.741C187.776 214.356 192.336 209.054 199.45 206.56L198.211 203.026ZM220.051 207.168L199.201 202.957L198.46 206.629L219.31 210.839L220.051 207.168ZM219.46 208.657C219.697 208.901 219.709 208.982 219.676 208.896C219.634 208.79 219.483 208.25 219.889 207.699C220.061 207.465 220.259 207.344 220.384 207.286C220.446 207.258 220.495 207.243 220.525 207.235C220.556 207.227 220.572 207.225 220.572 207.225C220.573 207.225 220.561 207.226 220.536 207.227C220.511 207.227 220.476 207.226 220.43 207.223C220.337 207.216 220.211 207.2 220.051 207.168L219.31 210.839C219.872 210.953 220.461 211.011 221.018 210.944C221.527 210.883 222.351 210.672 222.905 209.92C223.527 209.075 223.399 208.137 223.167 207.541C222.944 206.966 222.552 206.465 222.15 206.05L219.46 208.657ZM200.134 206.332C206.07 204.443 210.335 204.485 213.352 205.226C216.361 205.965 218.277 207.436 219.46 208.657L222.15 206.05C220.581 204.432 218.071 202.529 214.246 201.589C210.428 200.651 205.45 200.709 198.998 202.763L200.134 206.332ZM199.45 206.56C199.675 206.481 199.903 206.405 200.134 206.332L198.998 202.763C198.733 202.847 198.471 202.935 198.211 203.026L199.45 206.56ZM108.504 188.462L198.46 206.629L199.201 202.957L109.246 184.79L108.504 188.462Z" fill="#0D2819"/>
<path d="M81.919 233.164C86.1089 224.254 89.4604 200.225 96.55 199.304C96.641 199.292 96.7334 199.298 96.8232 199.317L152.366 210.955C153.052 211.098 153.347 211.918 152.933 212.483C147.681 219.657 144.218 230.522 141.052 245.021C140.943 245.519 140.456 245.843 139.955 245.746L82.6088 234.572C81.9775 234.449 81.6454 233.746 81.919 233.164Z" fill="#D9F4E5"/>
<path d="M121.178 258.452L160.251 266.007M65.174 265.107L104.247 272.661M60.2094 272.567L134.18 286.582M55.6831 280.831L129.653 294.846M123.745 252.458L162.818 260.012M152.933 212.483C147.681 219.657 144.218 230.522 141.052 245.021C140.943 245.519 140.456 245.843 139.955 245.746L82.6088 234.572C81.9775 234.449 81.6454 233.746 81.919 233.164C86.1089 224.254 89.4604 200.225 96.55 199.304C96.641 199.292 96.7334 199.298 96.8232 199.317L152.366 210.955C153.052 211.098 153.347 211.918 152.933 212.483Z" stroke="url(#paint0_linear_2186_9215)" stroke-width="3.74556" stroke-linejoin="round"/>
<path d="M253.181 199.447C253.181 227.438 231.317 250.012 204.489 250.012C177.66 250.012 155.796 227.438 155.796 199.447C155.796 171.456 177.66 148.882 204.489 148.882C231.317 148.882 253.181 171.456 253.181 199.447Z" fill="#40C97F" stroke="#195033" stroke-width="3.74556"/>
<path fill-rule="evenodd" clip-rule="evenodd" d="M151.005 173.187C151.005 165.932 153.57 151.764 164.224 138.113C179.206 118.917 189.038 115.172 192.316 116.108C195.593 117.044 201.211 118.917 195.125 142.327C194.161 145.94 191.984 149.489 190.387 151.728C191.027 151.703 191.67 151.691 192.316 151.691C194.764 151.691 197.172 151.868 199.529 152.21C205.877 143.503 218.807 130.946 239.135 125.004C269.568 116.108 255.054 151.691 248.967 161.991C244.219 170.027 240.717 175.005 237.507 179.445C241.529 187.049 243.817 195.78 243.817 205.065C243.817 234.543 220.759 258.439 192.316 258.439C181.899 258.439 172.204 255.234 164.1 249.724C150.355 248.062 139.878 239.39 139.878 228.942C139.878 225.727 141.12 223.252 143.256 221.354C141.67 216.219 140.814 210.746 140.814 205.065C140.814 193.115 144.603 182.082 151.005 173.187Z" fill="url(#paint1_linear_2186_9215)"/>
<path d="M164.224 138.113L162.747 136.961L164.224 138.113ZM151.005 173.187L152.525 174.281C152.754 173.962 152.878 173.579 152.878 173.187L151.005 173.187ZM192.316 116.108L192.83 114.307V114.307L192.316 116.108ZM195.125 142.327L196.934 142.809L196.937 142.798L195.125 142.327ZM190.387 151.728L188.862 150.64C188.448 151.221 188.4 151.988 188.739 152.617C189.078 153.245 189.745 153.626 190.458 153.599L190.387 151.728ZM199.529 152.21L199.259 154.063C199.947 154.163 200.633 153.875 201.042 153.314L199.529 152.21ZM239.135 125.004L239.66 126.801L239.135 125.004ZM248.967 161.991L247.355 161.039L248.967 161.991ZM237.507 179.445L235.989 178.347C235.571 178.925 235.518 179.69 235.851 180.32L237.507 179.445ZM164.1 249.724L165.153 248.175C164.906 248.007 164.622 247.9 164.325 247.864L164.1 249.724ZM143.256 221.354L144.5 222.754C145.049 222.266 145.263 221.503 145.046 220.801L143.256 221.354ZM162.747 136.961C151.803 150.983 149.132 165.572 149.132 173.187L152.878 173.187C152.878 166.292 155.336 152.544 165.7 139.265L162.747 136.961ZM192.83 114.307C191.507 113.929 189.866 114.094 188.078 114.669C186.248 115.257 184.082 116.331 181.607 118.012C176.655 121.374 170.315 127.265 162.747 136.961L165.7 139.265C173.115 129.765 179.181 124.186 183.711 121.11C185.976 119.572 187.819 118.686 189.223 118.235C190.668 117.771 191.485 117.818 191.801 117.909L192.83 114.307ZM196.937 142.798C199.992 131.051 200.238 124.292 199.025 120.252C198.396 118.153 197.362 116.749 196.121 115.812C194.925 114.911 193.656 114.543 192.83 114.307L191.801 117.909C192.613 118.141 193.276 118.359 193.865 118.803C194.409 119.213 195.014 119.916 195.438 121.328C196.332 124.31 196.344 130.193 193.312 141.856L196.937 142.798ZM191.912 152.815C193.555 150.512 195.884 146.746 196.934 142.809L193.315 141.844C192.438 145.134 190.413 148.466 188.862 150.64L191.912 152.815ZM190.458 153.599C191.075 153.575 191.694 153.564 192.316 153.564V149.818C191.646 149.818 190.979 149.831 190.316 149.856L190.458 153.599ZM192.316 153.564C194.673 153.564 196.991 153.734 199.259 154.063L199.798 150.357C197.352 150.002 194.854 149.818 192.316 149.818V153.564ZM201.042 153.314C207.205 144.862 219.814 132.603 239.66 126.801L238.61 123.206C217.8 129.289 204.55 142.145 198.015 151.107L201.042 153.314ZM239.66 126.801C247.103 124.626 251.114 125.388 253.2 127.048C255.283 128.704 256.158 131.823 255.877 136.179C255.601 140.452 254.236 145.392 252.524 149.958C250.819 154.51 248.816 158.565 247.355 161.039L250.579 162.944C252.161 160.267 254.256 156.012 256.032 151.273C257.802 146.549 259.305 141.217 259.615 136.42C259.919 131.704 259.096 126.951 255.532 124.116C251.97 121.284 246.384 120.934 238.61 123.206L239.66 126.801ZM247.355 161.039C242.645 169.008 239.179 173.936 235.989 178.347L239.024 180.542C242.255 176.074 245.792 171.046 250.579 162.944L247.355 161.039ZM235.851 180.32C239.734 187.66 241.944 196.091 241.944 205.065H245.69C245.69 195.47 243.325 186.439 239.162 178.569L235.851 180.32ZM241.944 205.065C241.944 233.572 219.662 256.566 192.316 256.566V260.312C221.856 260.312 245.69 235.513 245.69 205.065H241.944ZM192.316 256.566C182.29 256.566 172.96 253.483 165.153 248.175L163.047 251.272C171.449 256.985 181.507 260.312 192.316 260.312V256.566ZM164.325 247.864C151.015 246.255 141.75 238.009 141.75 228.942H138.005C138.005 240.771 149.696 249.868 163.875 251.583L164.325 247.864ZM141.75 228.942C141.75 226.285 142.747 224.312 144.5 222.754L142.013 219.954C139.493 222.192 138.005 225.17 138.005 228.942H141.75ZM145.046 220.801C143.515 215.844 142.687 210.557 142.687 205.065H138.941C138.941 210.935 139.826 216.594 141.467 221.907L145.046 220.801ZM142.687 205.065C142.687 193.516 146.348 182.864 152.525 174.281L149.485 172.093C142.859 181.3 138.941 192.714 138.941 205.065H142.687Z" fill="#195033"/>
<path d="M160.946 202.724C160.946 207.002 159.755 210.814 157.901 213.517C156.044 216.226 153.62 217.706 151.114 217.706C148.609 217.706 146.185 216.226 144.327 213.517C142.474 210.814 141.282 207.002 141.282 202.724C141.282 198.446 142.474 194.634 144.327 191.931C146.185 189.222 148.609 187.742 151.114 187.742C153.62 187.742 156.044 189.222 157.901 191.931C159.755 194.634 160.946 198.446 160.946 202.724Z" fill="white" stroke="#195033" stroke-width="2.80917"/>
<path d="M206.83 211.152C206.83 221.321 200.447 228.943 193.252 228.943C186.057 228.943 179.674 221.321 179.674 211.152C179.674 200.982 186.057 193.36 193.252 193.36C200.447 193.36 206.83 200.982 206.83 211.152Z" fill="white" stroke="#195033" stroke-width="2.80917"/>
<ellipse cx="190.443" cy="215.365" rx="10.3003" ry="13.1094" fill="#195033"/>
<ellipse cx="150.178" cy="207.406" rx="8.42751" ry="10.7685" fill="#195033"/>
<ellipse cx="187.165" cy="219.579" rx="4.21375" ry="5.15014" fill="white"/>
<ellipse cx="149.71" cy="211.151" rx="4.21375" ry="5.15014" fill="white"/>
<path d="M197.824 153.56L199.694 153.67L199.914 149.931L198.044 149.821L197.824 153.56ZM173.151 154.606C172.204 155.021 171.772 156.125 172.186 157.073C172.601 158.02 173.705 158.452 174.652 158.038L173.151 154.606ZM198.044 149.821C189.781 149.335 182.933 150.328 173.151 154.606L174.652 158.038C183.908 153.99 190.168 153.11 197.824 153.56L198.044 149.821Z" fill="#195033"/>
<path d="M167.033 221.69C162.195 219.037 151.021 215.084 143.155 221.452" stroke="#195033" stroke-width="3.74556" stroke-linecap="round"/>
<ellipse cx="153.455" cy="226.133" rx="7.02292" ry="4.21375" transform="rotate(12.7849 153.455 226.133)" fill="#195033"/>
<path d="M210.055 159.25C215.267 154.303 227.397 146.778 230.014 146.308C230.165 146.281 230.314 146.265 230.463 146.233C232.373 145.823 235.533 145.962 234.453 149.563C233.446 152.921 228.6 162.3 225.583 167.916C225.067 168.878 223.841 169.186 222.914 168.609C219.641 166.571 214.656 163.694 210.809 162.139C209.591 161.647 209.103 160.154 210.055 159.25Z" fill="#40C97F"/>
<path d="M232.112 145.136C229.771 145.136 213.384 155.436 210.107 160.118" stroke="#195033" stroke-width="3.74556" stroke-linecap="round"/>
<path d="M160.946 202.724C160.946 207.002 159.755 210.814 157.901 213.517C156.044 216.226 153.62 217.706 151.114 217.706C148.609 217.706 146.185 216.226 144.327 213.517C142.474 210.814 141.282 207.002 141.282 202.724C141.282 198.446 142.474 194.634 144.327 191.931C146.185 189.222 148.609 187.742 151.114 187.742C153.62 187.742 156.044 189.222 157.901 191.931C159.755 194.634 160.946 198.446 160.946 202.724Z" fill="white" stroke="#195033" stroke-width="2.80917"/>
<path d="M206.83 211.152C206.83 221.321 200.447 228.943 193.252 228.943C186.057 228.943 179.674 221.321 179.674 211.152C179.674 200.982 186.057 193.36 193.252 193.36C200.447 193.36 206.83 200.982 206.83 211.152Z" fill="white" stroke="#195033" stroke-width="2.80917"/>
<ellipse cx="190.443" cy="215.365" rx="10.3003" ry="13.1094" fill="#195033"/>
<ellipse cx="150.178" cy="207.406" rx="8.42751" ry="10.7685" fill="#195033"/>
<ellipse cx="187.165" cy="219.579" rx="4.21375" ry="5.15014" fill="white"/>
<ellipse cx="149.71" cy="211.151" rx="4.21375" ry="5.15014" fill="white"/>
<mask id="path-35-inside-2_2186_9215" fill="white">
<path fill-rule="evenodd" clip-rule="evenodd" d="M263.318 242.189C269.792 231.324 276.158 215.497 264.45 213.915C253.025 212.371 240.362 221.788 233.108 228.985C233.18 228.705 233.255 228.411 233.332 228.101C234.705 222.61 236.993 210.254 229.671 207.966C222.532 205.735 206.414 220.663 201.787 234.366C201.784 234.374 201.782 234.382 201.779 234.39C196.854 234.837 192.474 236.832 189.601 240.356C184.575 246.518 185.647 255.527 191.519 262.766C184.048 268.34 180.797 276.81 184.154 284.018C187.558 291.327 196.733 295.137 206.51 294.039C207.902 303.256 214.402 310.611 223.022 311.686C231.658 312.763 239.779 307.209 243.383 298.591C252.644 302.148 262.573 300.731 267.702 294.44C272.728 288.278 271.656 279.269 265.784 272.03C273.255 266.456 276.506 257.986 273.149 250.779C271.299 246.807 267.746 243.868 263.318 242.189Z"/>
</mask>
<path fill-rule="evenodd" clip-rule="evenodd" d="M263.318 242.189C269.792 231.324 276.158 215.497 264.45 213.915C253.025 212.371 240.362 221.788 233.108 228.985C233.18 228.705 233.255 228.411 233.332 228.101C234.705 222.61 236.993 210.254 229.671 207.966C222.532 205.735 206.414 220.663 201.787 234.366C201.784 234.374 201.782 234.382 201.779 234.39C196.854 234.837 192.474 236.832 189.601 240.356C184.575 246.518 185.647 255.527 191.519 262.766C184.048 268.34 180.797 276.81 184.154 284.018C187.558 291.327 196.733 295.137 206.51 294.039C207.902 303.256 214.402 310.611 223.022 311.686C231.658 312.763 239.779 307.209 243.383 298.591C252.644 302.148 262.573 300.731 267.702 294.44C272.728 288.278 271.656 279.269 265.784 272.03C273.255 266.456 276.506 257.986 273.149 250.779C271.299 246.807 267.746 243.868 263.318 242.189Z" fill="url(#paint2_linear_2186_9215)"/>
<path d="M264.45 213.915L263.823 218.555L264.45 213.915ZM263.318 242.189L259.296 239.792C258.587 240.982 258.441 242.423 258.897 243.73C259.353 245.037 260.363 246.076 261.658 246.567L263.318 242.189ZM233.108 228.985L228.574 227.816C228.048 229.857 228.95 231.997 230.778 233.046C232.606 234.095 234.91 233.793 236.406 232.309L233.108 228.985ZM233.332 228.101L237.874 229.237L237.874 229.237L233.332 228.101ZM229.671 207.966L228.275 212.435L229.671 207.966ZM201.787 234.366L197.351 232.868L197.351 232.868L201.787 234.366ZM201.779 234.39L202.203 239.053C204.072 238.883 205.66 237.612 206.236 235.825L201.779 234.39ZM189.601 240.356L193.229 243.315L193.229 243.315L189.601 240.356ZM191.519 262.766L194.319 266.518C195.34 265.756 196.007 264.61 196.165 263.346C196.323 262.081 195.958 260.806 195.155 259.816L191.519 262.766ZM184.154 284.018L188.398 282.041L188.398 282.041L184.154 284.018ZM206.51 294.039L211.139 293.339C210.763 290.851 208.488 289.105 205.987 289.386L206.51 294.039ZM223.022 311.686L223.602 307.04L223.022 311.686ZM243.383 298.591L245.062 294.22C242.698 293.312 240.041 294.448 239.064 296.784L243.383 298.591ZM267.702 294.44L264.074 291.481L264.074 291.481L267.702 294.44ZM265.784 272.03L262.984 268.278C261.963 269.04 261.296 270.186 261.138 271.451C260.98 272.715 261.345 273.99 262.148 274.98L265.784 272.03ZM273.149 250.779L268.905 252.755L268.905 252.756L273.149 250.779ZM263.823 218.555C265.537 218.786 265.824 219.346 265.945 219.585C266.235 220.159 266.485 221.445 266.087 223.786C265.298 228.422 262.457 234.488 259.296 239.792L267.34 244.586C270.653 239.025 274.231 231.746 275.318 225.356C275.857 222.184 275.908 218.537 274.301 215.36C272.525 211.847 269.217 209.835 265.077 209.275L263.823 218.555ZM236.406 232.309C239.827 228.914 244.468 225.058 249.491 222.263C254.587 219.428 259.545 217.976 263.823 218.555L265.077 209.275C257.93 208.309 250.844 210.795 244.938 214.081C238.96 217.408 233.643 221.859 229.811 225.661L236.406 232.309ZM228.79 226.966C228.715 227.265 228.643 227.549 228.574 227.816L237.642 230.153C237.717 229.862 237.794 229.557 237.874 229.237L228.79 226.966ZM228.275 212.435C228.882 212.625 229.929 213.345 230.084 217.03C230.227 220.397 229.45 224.325 228.79 226.966L237.874 229.237C238.587 226.387 239.641 221.391 239.44 216.635C239.253 212.197 237.782 205.596 231.068 203.497L228.275 212.435ZM206.223 235.864C208.226 229.931 212.888 223.398 217.992 218.603C220.525 216.225 222.987 214.445 225.055 213.406C226.085 212.889 226.908 212.611 227.511 212.493C228.122 212.373 228.328 212.451 228.275 212.435L231.068 203.497C227.507 202.384 223.761 203.577 220.851 205.039C217.745 206.6 214.55 208.99 211.582 211.778C205.686 217.315 199.975 225.098 197.351 232.868L206.223 235.864ZM206.236 235.825C206.231 235.838 206.227 235.851 206.223 235.863L197.351 232.868C197.341 232.897 197.332 232.925 197.323 232.954L206.236 235.825ZM193.229 243.315C195.142 240.969 198.246 239.412 202.203 239.053L201.356 229.727C195.463 230.262 189.806 232.695 185.972 237.398L193.229 243.315ZM195.155 259.816C190.165 253.665 190.065 247.195 193.229 243.315L185.972 237.397C179.086 245.842 181.129 257.39 187.883 265.716L195.155 259.816ZM188.398 282.041C186.284 277.503 187.97 271.256 194.319 266.518L188.719 259.014C180.126 265.425 175.309 276.117 179.91 285.995L188.398 282.041ZM205.987 289.386C197.409 290.35 190.657 286.891 188.398 282.041L179.91 285.994C184.46 295.763 196.057 299.924 207.032 298.691L205.987 289.386ZM223.602 307.04C217.47 306.275 212.284 300.918 211.139 293.339L201.88 294.738C203.52 305.594 211.334 314.946 222.443 316.332L223.602 307.04ZM239.064 296.784C236.1 303.872 229.744 307.807 223.602 307.04L222.443 316.332C233.571 317.72 243.458 310.546 247.702 300.397L239.064 296.784ZM264.074 291.481C260.67 295.655 253.193 297.343 245.062 294.22L241.704 302.961C252.095 306.952 264.475 305.807 271.331 297.399L264.074 291.481ZM262.148 274.98C267.138 281.131 267.238 287.601 264.074 291.481L271.331 297.399C278.217 288.954 276.174 277.406 269.42 269.081L262.148 274.98ZM268.905 252.756C271.019 257.294 269.333 263.541 262.984 268.278L268.584 275.783C277.177 269.371 281.994 258.679 277.393 248.802L268.905 252.756ZM261.658 246.567C265.193 247.907 267.673 250.11 268.905 252.755L277.393 248.802C274.926 243.504 270.299 239.829 264.978 237.811L261.658 246.567Z" fill="#0D2819" mask="url(#path-35-inside-2_2186_9215)"/>
<path d="M232.709 231.763C231.201 231.232 226.083 230.911 217.674 233.883" stroke="#0D2819" stroke-width="3.74556" stroke-linecap="round"/>
<path d="M210.609 273.666C210.157 275.66 207.704 276.97 204.956 276.347C202.209 275.723 200.562 273.483 201.014 271.489C201.467 269.496 203.92 268.186 206.667 268.809C209.414 269.432 211.061 271.673 210.609 273.666Z" fill="#0D2819" stroke="#0D2819" stroke-width="0.936389"/>
<path d="M205.893 260.649C205.893 263.901 205.012 266.782 203.661 268.808C202.303 270.845 200.582 271.885 198.87 271.885C197.159 271.885 195.438 270.845 194.08 268.808C192.729 266.782 191.847 263.901 191.847 260.649C191.847 257.397 192.729 254.516 194.08 252.489C195.438 250.453 197.159 249.412 198.87 249.412C200.582 249.412 202.303 250.453 203.661 252.489C205.012 254.516 205.893 257.397 205.893 260.649Z" fill="white" stroke="#0D2819" stroke-width="2.80917"/>
<path d="M241.476 266.735C241.476 274.577 236.561 280.313 231.176 280.313C225.79 280.313 220.876 274.577 220.876 266.735C220.876 258.894 225.79 253.158 231.176 253.158C236.561 253.158 241.476 258.894 241.476 266.735Z" fill="white" stroke="#0D2819" stroke-width="2.80917"/>
<path d="M236.794 270.013C236.794 275.282 233.352 279.377 229.303 279.377C225.253 279.377 221.812 275.282 221.812 270.013C221.812 264.744 225.253 260.649 229.303 260.649C233.352 260.649 236.794 264.744 236.794 270.013Z" fill="#0D2819" stroke="#0D2819" stroke-width="0.936389"/>
<path d="M204.02 263.926C204.02 266.166 203.364 268.174 202.326 269.611C201.288 271.049 199.895 271.886 198.402 271.886C196.909 271.886 195.516 271.049 194.478 269.611C193.44 268.174 192.784 266.166 192.784 263.926C192.784 261.687 193.44 259.678 194.478 258.241C195.516 256.804 196.909 255.967 198.402 255.967C199.895 255.967 201.288 256.804 202.326 258.241C203.364 259.678 204.02 261.687 204.02 263.926Z" fill="#0D2819" stroke="#0D2819" stroke-width="0.936389"/>
<ellipse cx="226.494" cy="273.29" rx="3.27736" ry="3.74555" fill="white"/>
<ellipse cx="198.402" cy="266.735" rx="3.27736" ry="3.74555" fill="white"/>
<path d="M9.26548 36.5942C8.6536 45.6736 13.7398 64.158 38.9798 65.4598C70.5297 67.087 66.3173 33.5823 51.0608 36.6585C35.8043 39.7347 31.6604 65.7534 52.0918 74.0191C60.6334 77.3889 63.6437 78.6567 64.733 79.1692M76.9061 71.6781C74.9959 68.9741 72.0815 61.0616 75.7053 51.0434" stroke="#195033" stroke-width="6.55472" stroke-linecap="round" stroke-linejoin="round"/>
<defs>
<linearGradient id="paint0_linear_2186_9215" x1="111.893" y1="199.858" x2="108.365" y2="294.049" gradientUnits="userSpaceOnUse">
<stop stop-color="#A9ECC7"/>
<stop offset="1" stop-color="#3FC87E"/>
</linearGradient>
<linearGradient id="paint1_linear_2186_9215" x1="198.839" y1="115.977" x2="198.839" y2="258.439" gradientUnits="userSpaceOnUse">
<stop stop-color="#F3FFC4"/>
<stop offset="1" stop-color="#E6FF86"/>
</linearGradient>
<linearGradient id="paint2_linear_2186_9215" x1="228.651" y1="207.743" x2="228.651" y2="311.819" gradientUnits="userSpaceOnUse">
<stop stop-color="#5B6168"/>
<stop offset="1" stop-color="#36393C"/>
</linearGradient>
</defs>
</svg>
