<svg width="48" height="48" viewBox="0 0 48 48" fill="none" xmlns="http://www.w3.org/2000/svg">
<path fill-rule="evenodd" clip-rule="evenodd" d="M15.25 5C15.6642 5 16 5.33579 16 5.75V21.375C16 21.9963 16.5037 22.5 17.125 22.5H32.75C33.1642 22.5 33.5 22.8358 33.5 23.25C33.5 23.6642 33.1642 24 32.75 24H17.125C15.6753 24 14.5 22.8247 14.5 21.375V5.75C14.5 5.33579 14.8358 5 15.25 5Z" fill="#40C97F"/>
<path fill-rule="evenodd" clip-rule="evenodd" d="M29.2502 9.99878C28.8359 9.99878 28.5002 9.66299 28.5002 9.24878C28.5002 8.83457 28.8359 8.49878 29.2502 8.49878H32.7502C33.0535 8.49878 33.327 8.68151 33.4431 8.96177C33.5592 9.24202 33.495 9.56461 33.2805 9.77911L26.2805 16.7791C25.9876 17.072 25.5127 17.072 25.2198 16.7791L21.9585 13.5178L18.1138 17.3624C17.8209 17.6553 17.3461 17.6553 17.0532 17.3624C16.7603 17.0695 16.7603 16.5947 17.0532 16.3018L21.4282 11.9268C21.7211 11.6339 22.1959 11.6339 22.4888 11.9268L25.7502 15.1881L30.9395 9.99878H29.2502Z" fill="#40C97F"/>
<path d="M8.6782 34.67L11.6282 42.11H10.3382L9.5582 40.14H6.3382L5.5482 42.11H4.2582L7.2582 34.67H8.6782ZM6.7482 39.1H9.1482L7.9682 36.13L6.7482 39.1ZM16.4671 39.25C16.4671 38.35 16.0171 37.81 15.2271 37.81C14.5171 37.81 13.9371 38.39 13.9571 39.25V42.11H12.7571V36.8H13.9571V37.69C14.2471 37.19 14.8771 36.83 15.4471 36.83C16.3571 36.83 17.6671 37.39 17.6671 39.22V42.11H16.4671V39.25ZM21.3197 41.17C22.1097 41.17 22.7797 40.45 22.7897 39.48C22.7797 38.52 22.1097 37.8 21.3197 37.8C20.4697 37.8 19.9097 38.47 19.9097 39.48C19.9097 40.5 20.4697 41.17 21.3197 41.17ZM18.7097 39.48C18.7097 37.92 19.7397 36.82 21.2197 36.82C21.7797 36.82 22.3697 37.09 22.7797 37.65V36.8H23.9797V42.11H22.7797V41.32C22.3597 41.89 21.7897 42.15 21.2197 42.15C19.7397 42.15 18.7097 41.05 18.7097 39.48ZM25.2452 34.67H26.4452V42.11H25.2452V34.67ZM29.8185 44.21H28.5085L29.5985 41.65L27.4285 36.8H28.7585L30.2185 40.34L31.6385 36.8H32.9485L29.8185 44.21ZM37.909 36.8V38L35.149 41.13H37.909V42.11H33.719V40.97L36.529 37.78H33.719V36.8H37.909ZM42.6485 39.02C42.5485 38.43 42.1585 37.78 41.3185 37.78C40.5585 37.78 39.9885 38.34 39.8785 39.02H42.6485ZM38.7585 39.47C38.7585 37.9 39.8085 36.8 41.3085 36.8C42.9685 36.8 43.4885 38.16 43.5185 38.23C43.8385 38.95 43.7285 39.77 43.7285 39.9H39.8785C39.9985 40.64 40.6485 41.14 41.3185 41.14C42.2585 41.14 42.5485 40.59 42.5785 40.55L43.5385 40.96C43.5385 40.96 43.0485 42.13 41.3085 42.13C39.8085 42.13 38.7585 41.04 38.7585 39.47Z" fill="#40C97F"/>
</svg>
