<svg width="304" height="322" viewBox="0 0 304 322" fill="none" xmlns="http://www.w3.org/2000/svg">
<mask id="mask0_1702_3177" style="mask-type:alpha" maskUnits="userSpaceOnUse" x="0" y="0" width="304" height="322">
<rect y="0.30957" width="304" height="321.1" rx="10" fill="#FAFAFC"/>
</mask>
<g mask="url(#mask0_1702_3177)">
<rect x="138.324" y="104.019" width="14.6133" height="72.1532" fill="#B2E9CC" stroke="#40C97F" stroke-width="3.65333"/>
<path d="M125.538 175.258C125.538 171.223 128.809 167.952 132.844 167.952H157.504C161.54 167.952 164.811 171.223 164.811 175.258V181.652H125.538V175.258Z" fill="#B2E9CC" stroke="#40C97F" stroke-width="3.65333"/>
<rect x="18.6777" y="18.1654" width="253.906" height="119.646" rx="3.65333" fill="#ECF7F2" stroke="#66D498" stroke-width="3.65333"/>
<rect x="35.1177" y="38.2587" width="73.0666" height="21.0066" rx="7.30666" fill="#B2E9CC"/>
<rect x="122.798" y="35.5187" width="42.0133" height="39.2733" rx="7.30666" fill="#B2E9CC"/>
<rect x="168.464" y="35.5187" width="42.0133" height="39.2733" rx="7.30666" fill="#B2E9CC"/>
<rect x="214.131" y="35.5187" width="42.0133" height="39.2733" rx="7.30666" fill="#B2E9CC"/>
<path d="M36.9443 65.202H87.1776" stroke="#66D498" stroke-width="2.74" stroke-linecap="round"/>
<path d="M36.9443 75.2486H87.1776" stroke="#66D498" stroke-width="2.74" stroke-linecap="round"/>
<path d="M36.9443 85.2953H68.911" stroke="#66D498" stroke-width="2.74" stroke-linecap="round"/>
<path d="M123.711 81.642H173.944" stroke="#66D498" stroke-width="2.74" stroke-linecap="round"/>
<path d="M123.711 89.862H256.144" stroke="#66D498" stroke-width="2.74" stroke-linecap="round"/>
<path d="M123.711 98.0819H256.144" stroke="#66D498" stroke-width="2.74" stroke-linecap="round"/>
<ellipse cx="65.7141" cy="191.242" rx="45.2099" ry="17.81" fill="#8CDEB2"/>
<mask id="path-16-inside-1_1702_3177" fill="white">
<path fill-rule="evenodd" clip-rule="evenodd" d="M17.222 129.867C10.126 119.91 2.74133 105.162 13.8976 102.713C24.7846 100.322 37.7296 108.396 45.2875 114.757C45.196 114.494 45.1008 114.216 45.0017 113.924C43.2452 108.741 40.0645 97.0166 46.9387 94.2332C53.6426 91.5188 70.3569 104.635 75.8948 117.475C75.897 117.48 75.8992 117.485 75.9014 117.491C80.6822 117.533 85.0601 119.109 88.1077 122.278C93.4364 127.818 93.1158 136.583 88.0295 144.022C95.668 148.803 99.4701 156.707 96.8045 163.917C94.1018 171.229 85.5627 175.625 76.0554 175.339C75.442 184.33 69.76 191.93 61.5389 193.647C53.3034 195.367 45.0396 190.657 40.8859 182.638C32.2433 186.797 22.565 186.216 17.1251 180.559C11.7964 175.018 12.117 166.253 17.2033 158.815C9.56485 154.034 5.76274 146.13 8.42835 138.92C9.89686 134.947 13.0884 131.835 17.222 129.867Z"/>
</mask>
<path fill-rule="evenodd" clip-rule="evenodd" d="M17.222 129.867C10.126 119.91 2.74133 105.162 13.8976 102.713C24.7846 100.322 37.7296 108.396 45.2875 114.757C45.196 114.494 45.1008 114.216 45.0017 113.924C43.2452 108.741 40.0645 97.0166 46.9387 94.2332C53.6426 91.5188 70.3569 104.635 75.8948 117.475C75.897 117.48 75.8992 117.485 75.9014 117.491C80.6822 117.533 85.0601 119.109 88.1077 122.278C93.4364 127.818 93.1158 136.583 88.0295 144.022C95.668 148.803 99.4701 156.707 96.8045 163.917C94.1018 171.229 85.5627 175.625 76.0554 175.339C75.442 184.33 69.76 191.93 61.5389 193.647C53.3034 195.367 45.0396 190.657 40.8859 182.638C32.2433 186.797 22.565 186.216 17.1251 180.559C11.7964 175.018 12.117 166.253 17.2033 158.815C9.56485 154.034 5.76274 146.13 8.42835 138.92C9.89686 134.947 13.0884 131.835 17.222 129.867Z" fill="url(#paint0_linear_1702_3177)"/>
<path d="M13.8976 102.713L12.9307 98.3085L13.8976 102.713ZM17.222 129.867L20.894 127.25C21.6676 128.336 21.9212 129.708 21.5867 130.998C21.2522 132.289 20.3639 133.365 19.1603 133.938L17.222 129.867ZM45.2875 114.757L49.5472 113.279C50.2127 115.196 49.5152 117.322 47.8432 118.472C46.1712 119.622 43.9367 119.514 42.384 118.207L45.2875 114.757ZM45.0017 113.924L49.2721 112.476L49.2721 112.476L45.0017 113.924ZM46.9387 94.2332L48.6309 98.4126L48.6309 98.4126L46.9387 94.2332ZM75.8948 117.475L71.7546 119.261L71.7544 119.261L75.8948 117.475ZM75.9014 117.491L75.8618 121.999C74.0601 121.984 72.4408 120.897 71.7436 119.235L75.9014 117.491ZM88.1077 122.278L84.8579 125.403L84.8577 125.403L88.1077 122.278ZM88.0295 144.022L85.6373 147.844C84.5968 147.193 83.8667 146.145 83.6158 144.944C83.3648 143.742 83.6146 142.49 84.3075 141.477L88.0295 144.022ZM96.8045 163.917L92.5752 162.354L92.5753 162.354L96.8045 163.917ZM76.0554 175.339L71.5569 175.032C71.7219 172.614 73.7686 170.759 76.191 170.832L76.0554 175.339ZM61.5389 193.647L60.6171 189.234L60.6171 189.234L61.5389 193.647ZM40.8859 182.638L38.9308 178.575C41.1282 177.517 43.7682 178.398 44.8897 180.564L40.8859 182.638ZM17.1251 180.559L20.375 177.433L20.3751 177.433L17.1251 180.559ZM17.2033 158.815L19.5956 154.993C20.6361 155.644 21.3661 156.691 21.6171 157.893C21.868 159.094 21.6183 160.346 20.9254 161.36L17.2033 158.815ZM8.42835 138.92L12.6576 140.483L12.6576 140.483L8.42835 138.92ZM14.8645 107.117C13.2265 107.476 12.9895 108.041 12.8894 108.287C12.6528 108.869 12.5149 110.132 13.0838 112.358C14.2102 116.765 17.4292 122.388 20.894 127.25L13.5501 132.484C9.91879 127.388 5.89748 120.659 4.34663 114.591C3.5769 111.579 3.24113 108.073 4.53585 104.89C5.96704 101.371 8.99056 99.1735 12.9307 98.3085L14.8645 107.117ZM42.384 118.207C38.8185 115.206 34.0401 111.856 28.9777 109.559C23.8426 107.229 18.9467 106.22 14.8645 107.117L12.9307 98.3085C19.7355 96.8145 26.7556 98.6478 32.7042 101.347C38.7255 104.08 44.1985 107.947 48.191 111.308L42.384 118.207ZM49.2721 112.476C49.3679 112.759 49.4596 113.026 49.5472 113.279L41.0278 116.236C40.9324 115.961 40.8337 115.673 40.7314 115.371L49.2721 112.476ZM48.6309 98.4126C48.0493 98.6481 47.098 99.4363 47.2391 103C47.3681 106.258 48.4271 109.983 49.2721 112.476L40.7314 115.371C39.8198 112.682 38.4102 107.954 38.2282 103.357C38.0584 99.0675 38.9539 92.6017 45.2464 90.0538L48.6309 98.4126ZM71.7544 119.261C69.3556 113.699 64.3458 107.768 59.0456 103.549C56.4167 101.456 53.9012 99.9338 51.8239 99.0949C50.7897 98.6772 49.973 98.4733 49.3799 98.407C48.78 98.34 48.5839 98.4316 48.6309 98.4126L45.2464 90.0538C48.5839 88.7025 52.2833 89.5547 55.2011 90.7331C58.3163 91.9912 61.5824 94.0417 64.6623 96.4936C70.7797 101.364 76.896 108.411 80.0351 115.689L71.7544 119.261ZM71.7436 119.235C71.7474 119.244 71.7511 119.253 71.7546 119.261L80.0349 115.689C80.0429 115.707 80.0509 115.726 80.0591 115.746L71.7436 119.235ZM84.8577 125.403C82.8248 123.289 79.7067 122.033 75.8618 121.999L75.9409 112.982C81.6577 113.032 87.2954 114.928 91.3578 119.152L84.8577 125.403ZM84.3075 141.477C88.6328 135.151 88.2205 128.9 84.8579 125.403L91.3576 119.152C98.6524 126.737 97.5989 138.015 91.7516 146.567L84.3075 141.477ZM92.5753 162.354C94.2574 157.804 92.1329 151.91 85.6373 147.844L90.4218 140.2C99.2031 145.696 104.683 155.61 101.034 165.481L92.5753 162.354ZM76.191 170.832C84.5368 171.083 90.7785 167.215 92.5752 162.354L101.034 165.48C97.4252 175.243 86.5885 180.167 75.9198 179.846L76.191 170.832ZM60.6171 189.234C66.4739 188.01 71.0521 182.431 71.5569 175.032L80.554 175.646C79.8319 186.229 73.0461 195.85 62.4608 198.061L60.6171 189.234ZM44.8897 180.564C48.3084 187.164 54.7502 190.459 60.6171 189.234L62.4608 198.061C51.8566 200.276 41.7708 194.15 36.8821 184.711L44.8897 180.564ZM20.3751 177.433C23.9916 181.194 31.3384 182.228 38.9308 178.575L42.8411 186.701C33.1482 191.365 21.1384 191.237 13.8751 183.684L20.3751 177.433ZM20.9254 161.36C16.6001 167.685 17.0123 173.937 20.375 177.433L13.8753 183.685C6.58051 176.1 7.63396 164.821 13.4813 156.27L20.9254 161.36ZM12.6576 140.483C10.9755 145.033 13.0999 150.927 19.5956 154.993L14.8111 162.637C6.02977 157.141 0.550017 147.226 4.19913 137.356L12.6576 140.483ZM19.1603 133.938C15.857 135.511 13.6377 137.832 12.6576 140.483L4.19906 137.356C6.156 132.062 10.3198 128.159 15.2838 125.796L19.1603 133.938Z" fill="#0D2819" mask="url(#path-16-inside-1_1702_3177)"/>
<path d="M45.8921 117.403C47.303 116.772 52.2092 116.059 60.5466 118.258" stroke="#0D2819" stroke-width="3.60719" stroke-linecap="round"/>
<ellipse cx="5.20846" cy="4.60564" rx="5.20846" ry="4.60564" transform="matrix(-0.996657 0.0817054 0.0817054 0.996657 67.4956 149.24)" fill="#0D2819"/>
<mask id="path-20-inside-2_1702_3177" fill="white">
<path fill-rule="evenodd" clip-rule="evenodd" d="M61.1193 132.198C60.4053 129.135 62.3097 126.073 65.3728 125.359L88.6866 119.925C91.7497 119.211 94.8117 121.115 95.5257 124.178L97.7881 133.884C99.2161 140.011 95.4073 146.135 89.281 147.563L77.06 150.411C70.9336 151.839 64.8097 148.031 63.3817 141.904L63.0586 140.518L58.1429 141.664L58.4661 143.05C59.8941 149.177 56.0853 155.301 49.959 156.729L37.7379 159.577C31.6116 161.005 25.4876 157.196 24.0597 151.07L21.7973 141.364C21.0833 138.301 22.9877 135.239 26.0508 134.525L49.3645 129.091C52.4277 128.377 55.4897 130.281 56.2037 133.344L56.5269 134.731L61.4426 133.585L61.1193 132.198Z"/>
</mask>
<g filter="url(#filter0_i_1702_3177)">
<path fill-rule="evenodd" clip-rule="evenodd" d="M61.1193 132.198C60.4053 129.135 62.3097 126.073 65.3728 125.359L88.6866 119.925C91.7497 119.211 94.8117 121.115 95.5257 124.178L97.7881 133.884C99.2161 140.011 95.4073 146.135 89.281 147.563L77.06 150.411C70.9336 151.839 64.8097 148.031 63.3817 141.904L63.0586 140.518L58.1429 141.664L58.4661 143.05C59.8941 149.177 56.0853 155.301 49.959 156.729L37.7379 159.577C31.6116 161.005 25.4876 157.196 24.0597 151.07L21.7973 141.364C21.0833 138.301 22.9877 135.239 26.0508 134.525L49.3645 129.091C52.4277 128.377 55.4897 130.281 56.2037 133.344L56.5269 134.731L61.4426 133.585L61.1193 132.198Z" fill="#FAFAFC"/>
</g>
<path d="M61.1193 132.198L56.6719 133.235L61.1193 132.198ZM63.0586 140.518L67.506 139.481L66.4694 135.034L62.0219 136.071L63.0586 140.518ZM58.1429 141.664L57.1062 137.216L52.6588 138.253L53.6955 142.7L58.1429 141.664ZM49.959 156.729L50.9956 161.176L49.959 156.729ZM37.7379 159.577L36.7013 155.13L37.7379 159.577ZM24.0597 151.07L28.5071 150.033L24.0597 151.07ZM21.7973 141.364L17.3498 142.401L21.7973 141.364ZM26.0508 134.525L25.0142 130.077L26.0508 134.525ZM49.3645 129.091L50.4012 133.538L49.3645 129.091ZM56.5269 134.731L52.0795 135.767L53.1161 140.215L57.5635 139.178L56.5269 134.731ZM61.4426 133.585L62.4792 138.032L66.9267 136.996L65.89 132.548L61.4426 133.585ZM64.3362 120.912C58.8168 122.198 55.3853 127.715 56.6719 133.235L65.5667 131.161C65.4253 130.555 65.8026 129.948 66.4095 129.806L64.3362 120.912ZM87.6499 115.477L64.3362 120.912L66.4095 129.806L89.7232 124.372L87.6499 115.477ZM99.9731 123.142C98.6866 117.622 93.1693 114.191 87.6499 115.477L89.7232 124.372C90.3301 124.231 90.9368 124.608 91.0783 125.215L99.9731 123.142ZM102.236 132.848L99.9731 123.142L91.0783 125.215L93.3407 134.921L102.236 132.848ZM90.3177 152.01C98.9002 150.01 104.236 141.43 102.236 132.848L93.3407 134.921C94.1961 138.591 91.9144 142.26 88.2443 143.115L90.3177 152.01ZM78.0966 154.859L90.3177 152.01L88.2443 143.115L76.0233 145.964L78.0966 154.859ZM58.9342 142.941C60.9348 151.523 69.514 156.859 78.0966 154.859L76.0233 145.964C72.3532 146.819 68.6846 144.538 67.8291 140.868L58.9342 142.941ZM58.6111 141.555L58.9342 142.941L67.8291 140.868L67.506 139.481L58.6111 141.555ZM62.0219 136.071L57.1062 137.216L59.1795 146.111L64.0952 144.965L62.0219 136.071ZM62.9135 142.014L62.5903 140.627L53.6955 142.7L54.0186 144.087L62.9135 142.014ZM50.9956 161.176C59.5782 159.176 64.914 150.596 62.9135 142.014L54.0186 144.087C54.8741 147.757 52.5924 151.426 48.9223 152.281L50.9956 161.176ZM38.7746 164.025L50.9956 161.176L48.9223 152.281L36.7013 155.13L38.7746 164.025ZM19.6122 152.107C21.6127 160.689 30.192 166.025 38.7746 164.025L36.7013 155.13C33.0312 155.985 29.3626 153.704 28.5071 150.033L19.6122 152.107ZM17.3498 142.401L19.6122 152.107L28.5071 150.033L26.2447 140.327L17.3498 142.401ZM25.0142 130.077C19.4948 131.364 16.0633 136.881 17.3498 142.401L26.2447 140.327C26.1032 139.72 26.4806 139.114 27.0875 138.972L25.0142 130.077ZM48.3279 124.643L25.0142 130.077L27.0875 138.972L50.4012 133.538L48.3279 124.643ZM60.6511 132.308C59.3646 126.788 53.8473 123.357 48.3279 124.643L50.4012 133.538C51.0081 133.397 51.6148 133.774 51.7562 134.381L60.6511 132.308ZM60.9743 133.694L60.6511 132.308L51.7562 134.381L52.0795 135.767L60.9743 133.694ZM57.5635 139.178L62.4792 138.032L60.4059 129.138L55.4902 130.283L57.5635 139.178ZM56.6719 133.235L56.9951 134.622L65.89 132.548L65.5667 131.161L56.6719 133.235Z" fill="#0D2819" mask="url(#path-20-inside-2_1702_3177)"/>
<path d="M143.443 298.838C136.432 296.455 137.664 286.187 145.039 285.53L197.043 280.897C197.917 280.819 198.797 280.909 199.637 281.164L232.08 290.995C239.162 293.141 238.282 303.435 230.939 304.348L180.31 310.647C179.283 310.774 178.24 310.668 177.26 310.334L143.443 298.838Z" fill="#D9F4E5" stroke="#26784C" stroke-width="4.56666"/>
<path fill-rule="evenodd" clip-rule="evenodd" d="M219.862 156C223.802 154 228.154 152.16 232.939 150.583C266.516 139.516 282.564 142.434 286.435 145.919C290.306 149.404 292.171 166.855 270.965 197.528C267.402 200.787 264.407 205.892 262.319 209.451C261.864 210.226 261.452 210.927 261.087 211.521C263.482 226.102 260.97 241.484 252.84 255.305C233.441 288.282 189.404 299.88 154.481 281.209C141.692 274.371 131.898 264.423 125.575 252.938C109.792 242.057 102.634 225.477 109.509 213.789C111.625 210.192 114.78 208.239 118.652 207.518C120.084 200.732 122.635 194.046 126.373 187.691C132.61 177.088 141.395 168.695 151.605 162.808C156.904 149.411 167.896 131.588 188.517 117.519C221.951 94.7072 222.43 137.612 219.862 156Z" fill="url(#paint1_linear_1702_3177)"/>
<path d="M232.939 150.583L233.753 153.025L232.939 150.583ZM219.862 156L217.213 155.709C217.08 156.661 217.503 157.595 218.311 158.134C219.119 158.674 220.18 158.73 221.066 158.28L219.862 156ZM286.435 145.919L288.279 144.013L288.279 144.013L286.435 145.919ZM270.965 197.528L272.782 199.384C272.931 199.248 273.064 199.095 273.179 198.93L270.965 197.528ZM262.319 209.451L264.637 210.687L262.319 209.451ZM261.087 211.521L258.797 210.237C258.473 210.763 258.349 211.38 258.447 211.978L261.087 211.521ZM125.575 252.938L127.941 251.689C127.752 251.346 127.485 251.052 127.158 250.827L125.575 252.938ZM118.652 207.518L119.104 210.052C120.19 209.85 121.05 209.028 121.271 207.981L118.652 207.518ZM151.605 162.808L152.939 165.017C153.47 164.711 153.879 164.24 154.099 163.684L151.605 162.808ZM188.517 117.519L187.005 115.421L188.517 117.519ZM232.124 148.142C227.204 149.763 222.722 151.657 218.658 153.72L221.066 158.28C224.883 156.342 229.105 154.557 233.753 153.025L232.124 148.142ZM288.279 144.013C286.849 142.725 284.628 141.75 281.835 141.109C278.989 140.455 275.333 140.1 270.814 140.213C261.775 140.44 249.092 142.549 232.124 148.142L233.753 153.025C250.364 147.55 262.492 145.585 270.839 145.375C275.013 145.27 278.194 145.605 280.495 146.134C282.848 146.674 284.085 147.37 284.59 147.825L288.279 144.013ZM273.179 198.93C283.925 183.385 288.943 171.026 290.729 161.958C291.622 157.427 291.717 153.666 291.279 150.719C290.853 147.863 289.874 145.449 288.279 144.013L284.59 147.825C284.931 148.131 285.636 149.206 285.987 151.56C286.324 153.824 286.286 156.996 285.478 161.098C283.863 169.295 279.211 180.998 268.752 196.126L273.179 198.93ZM264.637 210.687C266.778 207.039 269.576 202.317 272.782 199.384L269.149 195.671C265.229 199.257 262.036 204.745 260 208.215L264.637 210.687ZM263.377 212.805C263.76 212.183 264.187 211.455 264.637 210.687L260 208.215C259.541 208.997 259.145 209.672 258.797 210.237L263.377 212.805ZM258.447 211.978C260.751 226.008 258.333 240.788 250.522 254.066L255.157 256.544C263.606 242.181 266.213 226.196 263.728 211.063L258.447 211.978ZM250.522 254.066C231.902 285.72 189.533 296.971 155.814 278.944L153.149 283.474C189.276 302.789 234.979 290.845 255.157 256.544L250.522 254.066ZM155.814 278.944C143.472 272.346 134.033 262.753 127.941 251.689L123.209 254.188C129.764 266.092 139.912 276.397 153.149 283.474L155.814 278.944ZM127.158 250.827C119.602 245.617 114.217 239.112 111.528 232.659C108.839 226.207 108.902 220 111.827 215.028L107.192 212.55C103.241 219.266 103.445 227.193 106.562 234.674C109.679 242.153 115.764 249.378 123.991 255.05L127.158 250.827ZM111.827 215.028C113.511 212.165 115.944 210.641 119.104 210.052L118.2 204.983C113.615 205.837 109.74 208.219 107.192 212.55L111.827 215.028ZM121.271 207.981C122.646 201.463 125.097 195.04 128.69 188.93L124.056 186.452C120.173 193.053 117.522 200.001 116.033 207.054L121.271 207.981ZM128.69 188.93C134.684 178.74 143.124 170.677 152.939 165.017L150.271 160.598C139.666 166.713 130.536 175.435 124.056 186.452L128.69 188.93ZM154.099 163.684C159.244 150.676 169.938 133.324 190.028 119.617L187.005 115.421C165.854 129.852 154.563 148.145 149.11 161.931L154.099 163.684ZM190.028 119.617C198.158 114.07 203.621 112.994 207.199 113.832C210.688 114.649 213.332 117.522 215.187 122.266C217.029 126.978 217.876 133.034 218.078 139.159C218.278 145.252 217.837 151.237 217.213 155.709L222.511 156.292C223.17 151.569 223.632 145.295 223.421 138.885C223.211 132.507 222.329 125.814 220.193 120.353C218.07 114.924 214.486 110.199 208.562 108.812C202.728 107.447 195.593 109.562 187.005 115.421L190.028 119.617Z" fill="#195033"/>
<ellipse cx="7.83542" cy="7.46128" rx="7.83542" ry="7.46128" transform="matrix(0.753995 0.643869 -0.696582 0.730102 112.566 198.145)" fill="#195033"/>
<path d="M259.72 264.081C241.52 295.021 202.552 306.89 172.787 290.976C143.021 275.062 133.323 237.175 151.523 206.236C169.723 175.296 208.691 163.427 238.456 179.341C268.222 195.255 277.92 233.142 259.72 264.081Z" fill="url(#paint2_linear_1702_3177)" stroke="#195033" stroke-width="5.25551"/>
<path d="M285.373 217.545C288.487 225.538 289.331 240.961 286.367 255.485C284.896 262.696 282.518 269.508 279.149 274.947C275.78 280.385 271.522 284.296 266.333 286.035C254.81 289.899 247.21 289.434 241.823 286.551C236.363 283.628 232.442 277.843 229.155 269.407C226.003 261.317 226.016 253.871 229.329 247.578C232.66 241.25 239.545 235.676 250.996 231.837C261.287 228.387 268.716 222.36 274.036 218.045C275.118 217.167 276.113 216.36 277.028 215.659C278.41 214.6 279.533 213.837 280.483 213.365C281.445 212.887 281.971 212.84 282.227 212.871C282.38 212.889 282.713 212.958 283.264 213.597C283.865 214.294 284.582 215.514 285.373 217.545Z" fill="#E8FF8D" stroke="#195033" stroke-width="5.25391"/>
<path d="M254.402 175.482C253.494 173.975 246.906 165.131 235.029 160.115C224.489 155.663 219.672 156.384 218.223 156.196" stroke="#195033" stroke-width="5.11508" stroke-linecap="round"/>
<path d="M180.794 252.171C180.794 248.734 183.34 245.83 186.747 245.38L265.294 235.006C269.397 234.464 273.041 237.657 273.041 241.797V292.379C273.041 295.815 270.494 298.72 267.088 299.17L188.541 309.544C184.437 310.086 180.794 306.892 180.794 302.753V252.171Z" fill="#D9F4E5" stroke="#26784C" stroke-width="4.56666"/>
<path d="M220.068 295.961C220.068 292.557 222.567 289.67 225.936 289.182L242.376 286.803C246.507 286.205 250.207 289.408 250.207 293.582V300.293C250.207 303.697 247.708 306.584 244.339 307.072L227.899 309.451C223.768 310.049 220.068 306.846 220.068 302.672V295.961Z" fill="#66D498" stroke="#26784C" stroke-width="4.56666"/>
<path d="M108.147 85.7381C106.417 85.4638 104.789 86.6324 104.495 88.3588L91.6171 163.995C91.3184 165.75 92.5101 167.41 94.2678 167.689L96.0306 167.969C97.7883 168.247 99.4353 167.037 99.694 165.276L110.849 89.3666C111.104 87.6339 109.917 86.0189 108.187 85.7446L108.147 85.7381Z" fill="#FAFAFC" stroke="#26784C" stroke-width="2.74"/>
<mask id="mask1_1702_3177" style="mask-type:alpha" maskUnits="userSpaceOnUse" x="90" y="84" width="23" height="86">
<path d="M108.147 85.7381C106.417 85.4638 104.789 86.6324 104.495 88.3588L91.6171 163.995C91.3184 165.75 92.5101 167.41 94.2678 167.689L96.0306 167.969C97.7883 168.247 99.4353 167.037 99.694 165.276L110.849 89.3666C111.104 87.6339 109.917 86.0189 108.187 85.7446L108.147 85.7381Z" fill="#FAFAFC" stroke="#26784C" stroke-width="2.74"/>
</mask>
<g mask="url(#mask1_1702_3177)">
<path d="M94.1596 156.575L92.8066 156.36L92.592 157.713L91.5906 164.028C91.3141 165.771 92.5034 167.409 94.2471 167.686L96.0512 167.972C97.7949 168.248 99.4326 167.059 99.7091 165.315L100.711 159.001L100.925 157.648L99.572 157.433L94.1596 156.575Z" fill="#33A165" stroke="#26784C" stroke-width="2.74"/>
</g>
</g>
<defs>
<filter id="filter0_i_1702_3177" x="19.8206" y="119.775" width="78.2673" height="41.929" filterUnits="userSpaceOnUse" color-interpolation-filters="sRGB">
<feFlood flood-opacity="0" result="BackgroundImageFix"/>
<feBlend mode="normal" in="SourceGraphic" in2="BackgroundImageFix" result="shape"/>
<feColorMatrix in="SourceAlpha" type="matrix" values="0 0 0 0 0 0 0 0 0 0 0 0 0 0 0 0 0 0 127 0" result="hardAlpha"/>
<feOffset dx="-3.65333" dy="7.30666"/>
<feGaussianBlur stdDeviation="0.913332"/>
<feComposite in2="hardAlpha" operator="arithmetic" k2="-1" k3="1"/>
<feColorMatrix type="matrix" values="0 0 0 0 0.698039 0 0 0 0 0.913725 0 0 0 0 0.8 0 0 0 0.4 0"/>
<feBlend mode="normal" in2="shape" result="effect1_innerShadow_1702_3177"/>
</filter>
<linearGradient id="paint0_linear_1702_3177" x1="47.3148" y1="86.7476" x2="56.7148" y2="201.411" gradientUnits="userSpaceOnUse">
<stop stop-color="#5B6168"/>
<stop offset="1" stop-color="#36393C"/>
</linearGradient>
<linearGradient id="paint1_linear_1702_3177" x1="260.817" y1="122.7" x2="171.272" y2="290.187" gradientUnits="userSpaceOnUse">
<stop stop-color="#F3FFC4"/>
<stop offset="1" stop-color="#E6FF86"/>
</linearGradient>
<linearGradient id="paint2_linear_1702_3177" x1="150.233" y1="203.25" x2="262.413" y2="264.496" gradientUnits="userSpaceOnUse">
<stop stop-color="#6AE2A1"/>
<stop offset="1" stop-color="#40C97F"/>
</linearGradient>
</defs>
</svg>
