<svg width="360" height="200" viewBox="0 0 360 200" fill="none" xmlns="http://www.w3.org/2000/svg">
<g style="mix-blend-mode:plus-darker" opacity="0.4">
<mask id="mask0_1702_10011" style="mask-type:alpha" maskUnits="userSpaceOnUse" x="0" y="0" width="360" height="200">
<rect width="360" height="200" fill="#B2E9CC"/>
</mask>
<g mask="url(#mask0_1702_10011)">
<g opacity="0.7">
<rect x="216.818" width="93.3971" height="31.1489" rx="4.66986" fill="#B2E9CC" stroke="#33A165" stroke-width="4.66986"/>
<path d="M200.474 73.4446C200.474 57.9701 213.018 45.4255 228.493 45.4255H297.373C312.848 45.4255 325.392 57.9701 325.392 73.4446V222.979C325.392 228.138 321.211 232.319 316.053 232.319H209.813C204.655 232.319 200.474 228.138 200.474 222.979V73.4446Z" fill="#ECFAF2" stroke="#33A165" stroke-width="4.66986"/>
<rect x="226.158" y="31.1489" width="74.7177" height="14.2766" fill="#ECFAF2" stroke="#33A165" stroke-width="4.66986"/>
<g style="mix-blend-mode:darken">
<path d="M283.364 55.8085H298.541C304.989 55.8085 310.215 61.0354 310.215 67.4832V215.192C310.215 220.35 306.034 224.532 300.876 224.532H283.364V55.8085Z" fill="#B2E9CC"/>
</g>
<g style="mix-blend-mode:darken">
<path d="M230.828 55.8085C219.222 55.8085 209.814 65.217 209.814 76.8229V222.979C209.814 228.138 213.995 232.319 219.153 232.319H230.828V55.8085Z" fill="#B2E9CC"/>
</g>
<g style="mix-blend-mode:darken">
<path d="M299.708 55.8085C308.735 55.8085 316.053 63.1262 316.053 72.153V215.192C316.053 220.35 311.871 224.532 306.713 224.532H299.708V55.8085Z" fill="#66D498"/>
</g>
<g style="mix-blend-mode:darken">
<rect x="228.493" y="55.8085" width="59.5407" height="5.19149" fill="#B2E9CC"/>
</g>
<path d="M228.493 92.4036C228.493 87.2454 232.674 83.0638 237.833 83.0638H323.058V194.681H237.833C232.674 194.681 228.493 190.499 228.493 185.341V92.4036Z" fill="#ECFAF2"/>
<path d="M226.158 92.4036C226.158 85.9558 231.385 80.7289 237.833 80.7289H323.058V85.3988H237.833C233.964 85.3988 230.828 88.5349 230.828 92.4036H226.158ZM323.058 197.016H237.833C231.385 197.016 226.158 191.789 226.158 185.341H230.828C230.828 189.21 233.964 192.346 237.833 192.346H323.058V197.016ZM237.833 197.016C231.385 197.016 226.158 191.789 226.158 185.341V92.4036C226.158 85.9558 231.385 80.7289 237.833 80.7289V85.3988C233.964 85.3988 230.828 88.5349 230.828 92.4036V185.341C230.828 189.21 233.964 192.346 237.833 192.346V197.016ZM323.058 83.0638V194.681V83.0638Z" fill="#66D498"/>
<g style="mix-blend-mode:darken">
<line x1="302.627" y1="1.29785" x2="302.627" y2="29.851" stroke="#40C97F" stroke-width="3.50239"/>
</g>
<rect x="320.722" y="37.6383" width="49.0335" height="31.1489" rx="4.66986" fill="#8CDEB2" stroke="#195033" stroke-width="4.66986"/>
<rect x="320.722" y="68.7874" width="49.0335" height="10.383" rx="4.66986" fill="#D9F4E5" stroke="#195033" stroke-width="4.66986"/>
<path d="M310.215 97.8498C310.215 87.5334 318.578 79.1703 328.895 79.1703H361.584C371.9 79.1703 380.263 87.5334 380.263 97.8498V234.66C380.263 239.819 376.082 244 370.923 244H319.555C314.397 244 310.215 239.819 310.215 234.66V97.8498Z" fill="url(#paint0_linear_1702_10011)" stroke="#195033" stroke-width="4.66986"/>
<g style="mix-blend-mode:darken">
<path d="M318.387 102.265C318.387 94.5278 324.66 88.2555 332.397 88.2555H358.081C365.819 88.2555 372.091 94.5278 372.091 102.265V216.49C372.091 221.648 367.909 225.83 362.751 225.83H327.727C322.569 225.83 318.387 221.648 318.387 216.49V102.265Z" fill="#8CDEB2"/>
</g>
<g style="mix-blend-mode:overlay" opacity="0.4">
<rect x="325.392" y="96.0427" width="7.00478" height="15.5745" rx="3.50239" fill="#D9F4E5"/>
</g>
<g style="mix-blend-mode:overlay" opacity="0.4">
<rect x="325.392" y="120.702" width="7.00478" height="107.723" rx="3.50239" fill="#D9F4E5"/>
</g>
<rect x="99.488" y="40.937" width="85.2249" height="183.292" rx="7.58852" fill="#B2E9CC" stroke="#26784C" stroke-width="3.50239"/>
<path fill-rule="evenodd" clip-rule="evenodd" d="M142.1 68.8807C143.39 68.8807 144.435 70.0428 144.435 71.4764L144.435 194.774C144.435 196.208 143.39 197.37 142.1 197.37C140.811 197.37 139.765 196.208 139.765 194.774L139.765 71.4764C139.765 70.0428 140.811 68.8807 142.1 68.8807Z" fill="#26784C"/>
<circle cx="119.919" cy="75.1509" r="8.75598" fill="white" stroke="#40C97F" stroke-width="3.50239"/>
<circle cx="119.919" cy="110.175" r="8.75598" fill="white" stroke="#40C97F" stroke-width="3.50239"/>
<circle cx="119.919" cy="145.199" r="8.75598" fill="white" stroke="#40C97F" stroke-width="3.50239"/>
<circle cx="119.919" cy="180.223" r="8.75598" fill="white" stroke="#40C97F" stroke-width="3.50239"/>
<circle cx="164.282" cy="75.1509" r="8.75598" fill="white" stroke="#40C97F" stroke-width="3.50239"/>
<circle cx="164.282" cy="110.175" r="8.75598" fill="white" stroke="#40C97F" stroke-width="3.50239"/>
<circle cx="164.282" cy="145.199" r="8.75598" fill="white" stroke="#40C97F" stroke-width="3.50239"/>
<circle cx="164.282" cy="180.223" r="8.75598" fill="white" stroke="#40C97F" stroke-width="3.50239"/>
<g style="mix-blend-mode:darken">
<rect x="234.33" y="31.1489" width="59.5407" height="14.2766" fill="#B2E9CC"/>
</g>
<path d="M167.785 111.356C167.785 110.067 168.83 109.021 170.12 109.021H244.837C246.127 109.021 247.172 110.067 247.172 111.356V122.261C247.172 123.55 246.127 124.596 244.837 124.596H170.12C168.83 124.596 167.785 123.55 167.785 122.261V111.356Z" fill="white" stroke="#33A165" stroke-width="3.50239"/>
<rect x="180.627" y="124.596" width="53.7034" height="10.383" fill="white" stroke="#33A165" stroke-width="3.50239"/>
<path d="M161.947 144.318C161.947 139.16 166.129 134.979 171.287 134.979H243.67C248.828 134.979 253.009 139.16 253.009 144.318V239.33C253.009 241.909 250.919 244 248.34 244H166.617C164.038 244 161.947 241.909 161.947 239.33V144.318Z" fill="url(#paint1_linear_1702_10011)" stroke="#33A165" stroke-width="3.50239"/>
<g style="mix-blend-mode:darken">
<line x1="294.455" y1="1.29785" x2="294.455" y2="29.851" stroke="#40C97F" stroke-width="3.50239"/>
</g>
<g style="mix-blend-mode:darken">
<line x1="261.766" y1="1.29785" x2="261.766" y2="29.851" stroke="#40C97F" stroke-width="3.50239"/>
</g>
<g style="mix-blend-mode:darken">
<line x1="286.282" y1="1.29785" x2="286.282" y2="29.851" stroke="#40C97F" stroke-width="3.50239"/>
</g>
<g style="mix-blend-mode:darken">
<line x1="253.593" y1="1.29785" x2="253.593" y2="29.851" stroke="#40C97F" stroke-width="3.50239"/>
</g>
<g style="mix-blend-mode:darken">
<line x1="278.11" y1="1.29785" x2="278.11" y2="29.851" stroke="#40C97F" stroke-width="3.50239"/>
</g>
<g style="mix-blend-mode:darken">
<line x1="245.421" y1="1.29785" x2="245.421" y2="29.851" stroke="#40C97F" stroke-width="3.50239"/>
</g>
<g style="mix-blend-mode:darken">
<line x1="229.077" y1="1.29785" x2="229.077" y2="29.851" stroke="#40C97F" stroke-width="3.50239"/>
</g>
<g style="mix-blend-mode:darken">
<line x1="269.938" y1="1.29785" x2="269.938" y2="29.851" stroke="#40C97F" stroke-width="3.50239"/>
</g>
<g style="mix-blend-mode:darken">
<line x1="237.249" y1="1.29785" x2="237.249" y2="29.851" stroke="#40C97F" stroke-width="3.50239"/>
</g>
<g style="mix-blend-mode:darken">
<line x1="220.904" y1="1.29785" x2="220.904" y2="29.851" stroke="#40C97F" stroke-width="3.50239"/>
</g>
<rect x="161.947" y="172.617" width="91.0622" height="36.3404" fill="#D9F4E5" stroke="#33A165" stroke-width="3.50239"/>
<line x1="241.335" y1="109.021" x2="241.335" y2="124.596" stroke="#33A165" stroke-width="2.33493"/>
<line x1="206.311" y1="109.021" x2="206.311" y2="124.596" stroke="#33A165" stroke-width="2.33493"/>
<line x1="235.498" y1="109.021" x2="235.498" y2="124.596" stroke="#33A165" stroke-width="2.33493"/>
<line x1="200.474" y1="109.021" x2="200.474" y2="124.596" stroke="#33A165" stroke-width="2.33493"/>
<line x1="229.66" y1="109.021" x2="229.66" y2="124.596" stroke="#33A165" stroke-width="2.33493"/>
<line x1="194.636" y1="109.021" x2="194.636" y2="124.596" stroke="#33A165" stroke-width="2.33493"/>
<line x1="223.823" y1="109.021" x2="223.823" y2="124.596" stroke="#33A165" stroke-width="2.33493"/>
<line x1="188.799" y1="109.021" x2="188.799" y2="124.596" stroke="#33A165" stroke-width="2.33493"/>
<line x1="217.986" y1="109.021" x2="217.986" y2="124.596" stroke="#33A165" stroke-width="2.33493"/>
<line x1="182.962" y1="109.021" x2="182.962" y2="124.596" stroke="#33A165" stroke-width="2.33493"/>
<line x1="212.148" y1="109.021" x2="212.148" y2="124.596" stroke="#33A165" stroke-width="2.33493"/>
<line x1="177.124" y1="109.021" x2="177.124" y2="124.596" stroke="#33A165" stroke-width="2.33493"/>
<line x1="172.455" y1="109.021" x2="172.455" y2="124.596" stroke="#33A165" stroke-width="2.33493"/>
</g>
</g>
</g>
<defs>
<linearGradient id="paint0_linear_1702_10011" x1="345.239" y1="244" x2="345.239" y2="79.1703" gradientUnits="userSpaceOnUse">
<stop stop-color="#40C97F"/>
<stop offset="1" stop-color="#FCFDFC"/>
</linearGradient>
<linearGradient id="paint1_linear_1702_10011" x1="207.478" y1="134.979" x2="207.478" y2="244" gradientUnits="userSpaceOnUse">
<stop stop-color="#40C97F"/>
<stop offset="1" stop-color="#C1CAD4"/>
</linearGradient>
</defs>
</svg>
