<svg width="304" height="322" viewBox="0 0 304 322" fill="none" xmlns="http://www.w3.org/2000/svg">
<mask id="mask0_1702_3178" style="mask-type:alpha" maskUnits="userSpaceOnUse" x="0" y="0" width="304" height="322">
<rect y="0.30957" width="304" height="321.1" rx="10" fill="#FAFAFC"/>
</mask>
<g mask="url(#mask0_1702_3178)">
<circle cx="104.83" cy="99.6177" r="93.6082" fill="#D9F4E5"/>
<circle cx="185.483" cy="173.337" r="78.3261" fill="#D9F4E5"/>
<path d="M202.123 194.977C192.938 238.351 150.706 266.089 107.849 257.013C64.9911 247.937 37.6281 205.461 46.8133 162.087C55.9984 118.714 98.2303 90.9758 141.088 100.052C183.946 109.127 211.309 151.603 202.123 194.977Z" fill="#40C97F" stroke="#195033" stroke-width="6.44034"/>
<path fill-rule="evenodd" clip-rule="evenodd" d="M48.19 110.972C50.5816 99.6781 59.3511 78.4898 80.8769 60.8453C111.147 36.0328 128.094 33.5293 133.023 36.0961C137.952 38.6629 146.313 43.4796 128.869 77.8623C126.138 83.161 121.489 87.9486 118.199 90.8932C119.229 91.0718 120.261 91.2702 121.293 91.4887C124.57 92.1827 127.761 93.0605 130.858 94.1094C144.225 82.8761 168.461 68.707 201.649 66.4226C253.214 62.8734 218.29 113.354 205.168 127.329C196.313 136.759 189.703 142.944 183.812 148.211C188.205 161.894 189.197 176.902 185.999 192.006C176.281 237.895 131.556 267.292 86.1017 257.666C40.6477 248.04 11.6777 203.037 21.3954 157.148C25.3349 138.546 35.0277 122.653 48.19 110.972Z" fill="url(#paint0_linear_1702_3178)"/>
<path d="M80.8769 60.8453L82.9183 63.3357L80.8769 60.8453ZM48.19 110.972L50.3275 113.38C50.8426 112.923 51.1976 112.313 51.3403 111.639L48.19 110.972ZM133.023 36.0961L134.511 33.24L133.023 36.0961ZM128.869 77.8623L131.731 79.3375C131.734 79.3314 131.738 79.3253 131.741 79.3192L128.869 77.8623ZM118.199 90.8932L116.051 88.4936C115.131 89.317 114.763 90.5939 115.103 91.7807C115.443 92.9676 116.432 93.8554 117.649 94.0661L118.199 90.8932ZM130.858 94.1094L129.826 97.1594C130.892 97.5204 132.069 97.2986 132.93 96.5746L130.858 94.1094ZM201.649 66.4226L201.87 69.6352L201.649 66.4226ZM205.168 127.329L207.515 129.533L205.168 127.329ZM183.812 148.211L181.666 145.811C180.718 146.659 180.357 147.985 180.746 149.196L183.812 148.211ZM21.3954 157.148L18.2451 156.481L21.3954 157.148ZM78.8355 58.3549C56.6757 76.5191 47.5637 98.3857 45.0397 110.305L51.3403 111.639C53.5995 100.97 62.0266 80.4605 82.9183 63.3357L78.8355 58.3549ZM134.511 33.24C132.501 32.1935 129.806 31.8951 126.749 32.1853C123.619 32.4823 119.792 33.4248 115.272 35.2079C106.23 38.7742 94.1376 45.8118 78.8355 58.3549L82.9183 63.3357C97.8867 51.0662 109.403 44.4458 117.635 41.199C121.751 39.5755 124.977 38.8227 127.357 38.5968C129.809 38.3641 131.081 38.7153 131.536 38.9522L134.511 33.24ZM131.741 79.3192C140.497 62.0596 143.156 51.5525 142.543 44.7586C142.223 41.2166 141.011 38.6331 139.309 36.726C137.676 34.8956 135.751 33.8859 134.511 33.24L131.536 38.9522C132.76 39.5898 133.728 40.1447 134.504 41.0138C135.211 41.8062 135.923 43.0571 136.129 45.3379C136.567 50.1897 134.685 59.2823 125.997 76.4053L131.741 79.3192ZM120.346 93.2928C123.737 90.2581 128.731 85.158 131.731 79.3375L126.007 76.387C123.545 81.164 119.241 85.6391 116.051 88.4936L120.346 93.2928ZM117.649 94.0661C118.64 94.2379 119.633 94.4287 120.625 94.639L121.96 88.3384C120.889 88.1116 119.818 87.9057 118.748 87.7203L117.649 94.0661ZM120.625 94.639C123.778 95.3067 126.848 96.1511 129.826 97.1594L131.891 91.0593C128.674 89.97 125.361 89.0586 121.96 88.3384L120.625 94.639ZM132.93 96.5746C145.887 85.6855 169.496 71.8635 201.87 69.6352L201.428 63.2101C167.426 65.5504 142.563 80.0666 128.787 91.6442L132.93 96.5746ZM201.87 69.6352C214.477 68.7675 220.596 71.3181 223.341 74.5584C226.052 77.7579 226.439 82.7908 224.567 89.4304C222.729 95.9464 218.938 103.144 214.704 109.664C210.486 116.159 205.96 121.781 202.82 125.125L207.515 129.533C210.937 125.889 215.696 119.961 220.106 113.171C224.499 106.406 228.677 98.5853 230.765 91.1781C232.819 83.8943 233.088 76.099 228.255 70.3949C223.456 64.7317 214.603 62.3032 201.428 63.2101L201.87 69.6352ZM202.82 125.125C194.041 134.474 187.5 140.593 181.666 145.811L185.959 150.612C191.905 145.294 198.585 139.044 207.515 129.533L202.82 125.125ZM180.746 149.196C184.971 162.357 185.928 176.796 182.849 191.339L189.149 192.673C192.467 177.007 191.438 161.43 186.878 147.227L180.746 149.196ZM182.849 191.339C173.493 235.516 130.455 263.767 86.7688 254.516L85.4346 260.816C132.657 270.816 179.069 240.273 189.149 192.673L182.849 191.339ZM86.7688 254.516C43.0829 245.264 15.1905 201.993 24.5457 157.816L18.2451 156.481C8.16494 204.081 38.2125 250.816 85.4346 260.816L86.7688 254.516ZM24.5457 157.816C28.3382 139.907 37.6646 124.618 50.3275 113.38L46.0526 108.563C32.3908 120.688 22.3316 137.184 18.2451 156.481L24.5457 157.816Z" fill="#195033"/>
<path d="M129.306 99.1855L132.416 100.032L134.074 93.8149L130.964 92.9681L129.306 99.1855ZM89.5663 91.9925C87.824 92.335 86.6967 94.0282 87.0483 95.7744C87.4 97.5205 89.0975 98.6585 90.8398 98.316L89.5663 91.9925ZM130.964 92.9681C117.907 89.4124 106.622 88.64 89.5663 91.9925L90.8398 98.316C106.951 95.1492 117.232 95.8973 129.306 99.1855L130.964 92.9681Z" fill="#195033"/>
<path d="M153.006 108.134C163.102 102.231 184.511 94.7964 188.827 94.9356C189.084 94.9439 189.334 94.9702 189.591 94.971C192.779 94.9809 197.769 96.2699 194.859 101.504C192.156 106.365 181.419 119.217 174.739 126.952C173.531 128.352 171.402 128.432 170.053 127.168C165.569 122.964 158.761 116.985 153.212 113.27C151.315 111.999 151.035 109.287 153.006 108.134Z" fill="#40C97F"/>
<path d="M192.577 93.821C188.836 93.0288 159.254 103.518 152.473 109.697" stroke="#195033" stroke-width="6.44034" stroke-linecap="round"/>
<path d="M73.9994 203.789C75.3043 204.065 76.5861 203.231 76.8625 201.927C77.1388 200.622 76.305 199.34 75.0001 199.064L73.9994 203.789ZM75.0001 199.064C62.4671 196.409 54.6313 185.084 56.9567 174.104L52.2312 173.103C49.2715 187.079 59.26 200.668 73.9994 203.789L75.0001 199.064ZM56.9567 174.104C59.282 163.123 71.0358 155.946 83.5688 158.6L84.5695 153.875C69.8301 150.754 55.1909 159.127 52.2312 173.103L56.9567 174.104Z" fill="#195033"/>
<path d="M91.5278 161.625C90.7606 165.248 85.114 167.121 78.9157 165.808C72.7174 164.496 68.3146 160.495 69.0818 156.872C69.849 153.249 75.4956 151.376 81.6939 152.689C87.8922 154.002 92.295 158.002 91.5278 161.625Z" fill="#195033"/>
<path fill-rule="evenodd" clip-rule="evenodd" d="M69.9946 145.935C70.3175 147.206 69.5486 148.499 68.2772 148.822L38.3026 157.667C37.0312 157.99 35.8419 155.961 35.5191 154.69C35.1963 153.418 35.9652 152.126 37.2365 151.803L67.1081 144.218C68.3795 143.895 69.6718 144.664 69.9946 145.935Z" fill="#195033"/>
<path fill-rule="evenodd" clip-rule="evenodd" d="M154.076 168.331C154.592 167.125 156.475 163.992 154.076 163.229L115.636 149.293C114.43 148.777 113.034 149.336 112.518 150.542C112.002 151.748 112.561 153.144 113.767 153.66L150.958 169.58C152.164 170.096 153.56 169.537 154.076 168.331Z" fill="#195033"/>
<mask id="path-14-outside-1_1702_3178" maskUnits="userSpaceOnUse" x="115.5" y="151.91" width="167" height="169" fill="black">
<rect fill="white" x="115.5" y="151.91" width="167" height="169"/>
<path fill-rule="evenodd" clip-rule="evenodd" d="M139.5 159.91C130.663 159.91 123.5 167.073 123.5 175.91V274.06C123.5 282.896 130.663 290.06 139.5 290.06H171.122C176.644 290.06 181.122 294.537 181.122 300.06V310.112C181.122 311.216 182.017 312.112 183.122 312.112H213.111C214.215 312.112 215.111 311.216 215.111 310.112V300.06C215.111 294.537 219.588 290.06 225.111 290.06H257.6C266.437 290.06 273.6 282.896 273.6 274.06V175.91C273.6 167.073 266.437 159.91 257.6 159.91H139.5Z"/>
</mask>
<path fill-rule="evenodd" clip-rule="evenodd" d="M139.5 159.91C130.663 159.91 123.5 167.073 123.5 175.91V274.06C123.5 282.896 130.663 290.06 139.5 290.06H171.122C176.644 290.06 181.122 294.537 181.122 300.06V310.112C181.122 311.216 182.017 312.112 183.122 312.112H213.111C214.215 312.112 215.111 311.216 215.111 310.112V300.06C215.111 294.537 219.588 290.06 225.111 290.06H257.6C266.437 290.06 273.6 282.896 273.6 274.06V175.91C273.6 167.073 266.437 159.91 257.6 159.91H139.5Z" fill="#0D2819"/>
<path d="M131.5 175.91C131.5 171.491 135.082 167.91 139.5 167.91V151.91C126.245 151.91 115.5 162.655 115.5 175.91H131.5ZM131.5 274.06V175.91H115.5V274.06H131.5ZM139.5 282.06C135.082 282.06 131.5 278.478 131.5 274.06H115.5C115.5 287.314 126.245 298.06 139.5 298.06V282.06ZM171.122 282.06H139.5V298.06H171.122V282.06ZM189.122 310.112V300.06H173.122V310.112H189.122ZM183.122 304.112C186.435 304.112 189.122 306.798 189.122 310.112H173.122C173.122 315.635 177.599 320.112 183.122 320.112V304.112ZM213.111 304.112H183.122V320.112H213.111V304.112ZM207.111 310.112C207.111 306.798 209.797 304.112 213.111 304.112V320.112C218.634 320.112 223.111 315.635 223.111 310.112H207.111ZM207.111 300.06V310.112H223.111V300.06H207.111ZM257.6 282.06H225.111V298.06H257.6V282.06ZM265.6 274.06C265.6 278.478 262.018 282.06 257.6 282.06V298.06C270.855 298.06 281.6 287.314 281.6 274.06H265.6ZM265.6 175.91V274.06H281.6V175.91H265.6ZM257.6 167.91C262.018 167.91 265.6 171.491 265.6 175.91H281.6C281.6 162.655 270.855 151.91 257.6 151.91V167.91ZM139.5 167.91H257.6V151.91H139.5V167.91ZM223.111 300.06C223.111 298.955 224.006 298.06 225.111 298.06V282.06C215.17 282.06 207.111 290.118 207.111 300.06H223.111ZM171.122 298.06C172.226 298.06 173.122 298.955 173.122 300.06H189.122C189.122 290.118 181.063 282.06 171.122 282.06V298.06Z" fill="url(#paint1_linear_1702_3178)" mask="url(#path-14-outside-1_1702_3178)"/>
<mask id="mask1_1702_3178" style="mask-type:alpha" maskUnits="userSpaceOnUse" x="123" y="159" width="157" height="161">
<path d="M123.5 175.481C123.5 166.645 130.663 159.481 139.5 159.481H275.3C277.509 159.481 279.3 161.272 279.3 163.481V315.533C279.3 317.742 277.509 319.533 275.3 319.533H127.5C125.291 319.533 123.5 317.742 123.5 315.533V175.481Z" fill="#0D2819"/>
</mask>
<g mask="url(#mask1_1702_3178)">
<g filter="url(#filter0_f_1702_3178)">
<path fill-rule="evenodd" clip-rule="evenodd" d="M90.3662 71.8204C70.2374 88.3198 62.0369 108.133 59.8004 118.694C47.492 129.617 38.4281 144.479 34.7442 161.875C25.6571 204.785 52.7473 246.868 95.2519 255.87C98.6482 256.589 102.04 257.075 105.412 257.339C108.495 258.42 111.683 259.316 114.964 260.011C140.956 265.515 166.691 257.112 184.563 239.804C191.395 242.686 199.379 244.342 207.91 244.342C233.13 244.342 253.574 202.75 253.574 184.901C253.574 173.546 250.248 174.315 241.334 176.378C236.237 177.558 229.313 179.16 220.138 179.16C216.334 179.16 212.36 179.502 208.354 180.143C207.824 166.946 203.965 154.341 197.449 143.375C200.214 140.65 203.23 137.57 206.592 133.99C218.863 120.922 251.521 73.7167 203.301 77.0356C173.23 79.1055 151.018 91.6098 138.297 101.94L137.257 101.657C133.389 100.604 129.686 99.811 125.927 99.3184C128.94 96.5389 132.868 92.3429 135.244 87.7331C151.556 55.5815 143.738 51.0774 139.129 48.6771C134.52 46.2769 118.672 48.6179 90.3662 71.8204Z" fill="#D9D9D9" fill-opacity="0.4"/>
</g>
</g>
<g filter="url(#filter1_f_1702_3178)">
<path d="M198.651 206.971C198.554 206.624 198.805 206.278 199.164 206.262L199.893 206.228C204.062 206.035 208.012 204.302 210.976 201.364C211.237 201.105 211.679 201.205 211.803 201.551L216.096 213.488C216.174 213.705 216.023 213.938 215.793 213.959C211.008 214.392 206.382 216.047 202.417 218.76C202.218 218.896 201.945 218.797 201.88 218.564L198.651 206.971Z" fill="#ECEEF0" fill-opacity="0.7"/>
<path d="M181.246 210.78C181.246 210.369 181.601 210.048 182.01 210.091L182.159 210.107C186.694 210.58 191.267 209.677 195.281 207.516C195.683 207.3 196.179 207.534 196.268 207.981L198.419 218.875C198.626 219.923 197.972 220.949 196.935 221.204L190.378 222.82L183.545 223.852C182.335 224.035 181.246 223.098 181.246 221.875L181.246 210.78Z" fill="#ECEEF0" fill-opacity="0.7"/>
<path d="M214.049 201.671C213.64 200.636 214.153 199.466 215.192 199.067L224.769 195.389L236.29 191.236C237.189 190.912 238.193 191.27 238.684 192.091L239.237 193.015C239.746 193.865 239.556 194.959 238.791 195.587L229.056 203.59L220.084 210.124C219.027 210.894 217.528 210.46 217.047 209.244L214.049 201.671Z" fill="#ECEEF0" fill-opacity="0.7"/>
<path fill-rule="evenodd" clip-rule="evenodd" d="M181.805 186.096C183.91 185.105 184.806 182.925 183.804 181.046C182.739 179.05 179.932 178.15 177.534 179.038C176.898 179.273 176.393 179.586 176.185 179.715C175.92 179.88 175.637 180.071 175.41 180.224L175.362 180.257C174.878 180.584 174.351 180.939 173.687 181.339C172.346 182.144 170.403 183.148 167.632 184.034C162.112 185.797 152.88 187.224 137.968 185.181C135.379 184.827 132.936 186.287 132.51 188.443C132.084 190.6 133.837 192.635 136.426 192.99C152.7 195.219 163.678 193.772 171.034 191.422C174.7 190.251 177.36 188.888 179.245 187.756C180.131 187.224 180.836 186.747 181.32 186.42L181.388 186.374C181.593 186.236 181.719 186.152 181.805 186.096ZM181.878 186.05C181.903 186.034 181.915 186.028 181.915 186.028C181.914 186.029 181.901 186.037 181.878 186.05Z" fill="#ECEEF0" fill-opacity="0.7"/>
<path fill-rule="evenodd" clip-rule="evenodd" d="M179.839 189.872C181.351 191.658 180.839 194.126 178.695 195.386C178.975 195.221 177.013 196.495 175.272 197.455C173.215 198.589 170.358 199.978 166.748 201.245C159.506 203.786 149.284 205.813 136.545 204.341C133.946 204.041 132.132 202.043 132.493 199.878C132.853 197.714 135.252 196.203 137.85 196.503C157.898 198.82 170.109 190.924 172.792 189.19C172.983 189.067 173.125 188.975 173.219 188.919C175.363 187.66 178.327 188.086 179.839 189.872Z" fill="#ECEEF0" fill-opacity="0.7"/>
<path fill-rule="evenodd" clip-rule="evenodd" d="M172.595 203.974C174.086 202.353 173.854 200.023 172.001 198.632C170.052 197.169 167.049 197.299 165.293 198.923C164.907 199.279 164.621 199.668 164.523 199.802C164.519 199.807 164.515 199.812 164.512 199.817C164.415 199.949 164.296 200.117 164.192 200.262C164.157 200.312 164.123 200.36 164.093 200.402C163.819 200.787 163.498 201.225 163.084 201.712C162.263 202.678 161.054 203.858 159.253 204.954C155.761 207.08 149.388 209.288 137.772 208.108C135.168 207.844 132.8 209.388 132.482 211.557C132.165 213.726 134.019 215.699 136.623 215.963C150.239 217.346 159.123 214.835 164.858 211.343C167.67 209.632 169.567 207.778 170.837 206.286C171.468 205.543 171.939 204.895 172.265 204.438C172.329 204.348 172.381 204.275 172.425 204.213C172.497 204.111 172.547 204.04 172.595 203.974ZM172.634 203.922C172.651 203.899 172.659 203.89 172.658 203.891C172.658 203.891 172.65 203.903 172.634 203.922Z" fill="#ECEEF0" fill-opacity="0.7"/>
<path d="M131.032 237.811C129.665 231.692 134.063 225.791 140.317 225.353L158.668 224.067C161.665 223.857 164.211 226.231 164.211 229.235C162.922 238.737 154.809 245.824 145.22 245.824H141.034C136.235 245.824 132.078 242.494 131.032 237.811Z" fill="#ECEEF0" fill-opacity="0.7"/>
</g>
</g>
<defs>
<filter id="filter0_f_1702_3178" x="20.1888" y="35.133" width="246.185" height="239.353" filterUnits="userSpaceOnUse" color-interpolation-filters="sRGB">
<feFlood flood-opacity="0" result="BackgroundImageFix"/>
<feBlend mode="normal" in="SourceGraphic" in2="BackgroundImageFix" result="shape"/>
<feGaussianBlur stdDeviation="6.4" result="effect1_foregroundBlur_1702_3178"/>
</filter>
<filter id="filter1_f_1702_3178" x="127.682" y="175.596" width="114.94" height="73.3285" filterUnits="userSpaceOnUse" color-interpolation-filters="sRGB">
<feFlood flood-opacity="0" result="BackgroundImageFix"/>
<feBlend mode="normal" in="SourceGraphic" in2="BackgroundImageFix" result="shape"/>
<feGaussianBlur stdDeviation="1.55" result="effect1_foregroundBlur_1702_3178"/>
</filter>
<linearGradient id="paint0_linear_1702_3178" x1="144.494" y1="38.3119" x2="97.5296" y2="260.086" gradientUnits="userSpaceOnUse">
<stop stop-color="#F3FFC4"/>
<stop offset="1" stop-color="#E6FF86"/>
</linearGradient>
<linearGradient id="paint1_linear_1702_3178" x1="198.438" y1="159.481" x2="198.438" y2="331.399" gradientUnits="userSpaceOnUse">
<stop stop-color="#195033"/>
<stop offset="1" stop-color="#3D4145"/>
</linearGradient>
</defs>
</svg>
