<svg width="48" height="48" viewBox="0 0 48 48" fill="none" xmlns="http://www.w3.org/2000/svg">
<path fill-rule="evenodd" clip-rule="evenodd" d="M15.25 5C15.6642 5 16 5.33579 16 5.75V21.375C16 21.9963 16.5037 22.5 17.125 22.5H32.75C33.1642 22.5 33.5 22.8358 33.5 23.25C33.5 23.6642 33.1642 24 32.75 24H17.125C15.6753 24 14.5 22.8247 14.5 21.375V5.75C14.5 5.33579 14.8358 5 15.25 5Z" fill="#AFB8C1"/>
<path fill-rule="evenodd" clip-rule="evenodd" d="M29.2502 9.9989C28.8359 9.9989 28.5002 9.66312 28.5002 9.2489C28.5002 8.83469 28.8359 8.4989 29.2502 8.4989H32.7502C33.0535 8.4989 33.327 8.68163 33.4431 8.96189C33.5592 9.24214 33.495 9.56473 33.2805 9.77923L26.2805 16.7792C25.9876 17.0721 25.5127 17.0721 25.2198 16.7792L21.9585 13.5179L18.1138 17.3626C17.8209 17.6555 17.3461 17.6555 17.0532 17.3626C16.7603 17.0697 16.7603 16.5948 17.0532 16.3019L21.4282 11.9269C21.7211 11.634 22.1959 11.634 22.4888 11.9269L25.7502 15.1882L30.9395 9.9989H29.2502Z" fill="#AFB8C1"/>
<path d="M13.3312 42H12.5612L11.7712 39.92H8.53121L7.72121 42H6.95121L9.74121 34.78H10.5812L13.3312 42ZM11.5212 39.28L10.1612 35.7L8.77121 39.28H11.5212ZM17.7786 39.29C17.7786 38.9233 17.6753 38.6233 17.4686 38.39C17.262 38.1567 16.992 38.04 16.6586 38.04C16.4053 38.04 16.1786 38.1 15.9786 38.22C15.7786 38.3333 15.622 38.4867 15.5086 38.68C15.3953 38.8667 15.3386 39.07 15.3386 39.29V42H14.6186V37.39H15.3386V38.08C15.4986 37.8733 15.6986 37.7067 15.9386 37.58C16.1853 37.4533 16.4253 37.39 16.6586 37.39C17.012 37.39 17.3286 37.47 17.6086 37.63C17.8886 37.7833 18.1053 38 18.2586 38.28C18.4186 38.56 18.4986 38.8767 18.4986 39.23V42H17.7786V39.29ZM21.8432 42.07C21.4232 42.07 21.0466 41.97 20.7132 41.77C20.3799 41.57 20.1199 41.2933 19.9332 40.94C19.7466 40.5867 19.6532 40.1867 19.6532 39.74C19.6532 39.2933 19.7466 38.8933 19.9332 38.54C20.1199 38.18 20.3799 37.9 20.7132 37.7C21.0466 37.5 21.4232 37.4 21.8432 37.4C22.1099 37.4 22.3732 37.4733 22.6332 37.62C22.8999 37.7667 23.1332 37.98 23.3332 38.26V37.39H24.0532V42H23.3332V41.2C23.1332 41.5 22.9032 41.72 22.6432 41.86C22.3899 42 22.1232 42.07 21.8432 42.07ZM20.3732 39.74C20.3732 40.2333 20.5099 40.6367 20.7832 40.95C21.0632 41.2633 21.4199 41.42 21.8532 41.42C22.1132 41.42 22.3566 41.35 22.5832 41.21C22.8099 41.0633 22.9932 40.8633 23.1332 40.61C23.2732 40.35 23.3432 40.06 23.3432 39.74C23.3432 39.4267 23.2732 39.14 23.1332 38.88C22.9932 38.62 22.8099 38.4167 22.5832 38.27C22.3566 38.1233 22.1132 38.05 21.8532 38.05C21.4199 38.05 21.0632 38.21 20.7832 38.53C20.5099 38.8433 20.3732 39.2467 20.3732 39.74ZM26.1375 34.98V42H25.4175V34.98H26.1375ZM28.1895 44.15L29.1495 41.79L27.2795 37.39H28.0695L29.5295 40.92L30.9195 37.39H31.6995L29.9595 41.7L28.9795 44.15H28.1895ZM35.9434 38.08L33.4134 41.35H35.9434V42H32.5434V41.31L35.0734 38.04H32.5434V37.39H35.9434V38.08ZM39.0896 42.05C38.6629 42.05 38.2829 41.95 37.9496 41.75C37.6162 41.55 37.3562 41.2733 37.1696 40.92C36.9829 40.5667 36.8896 40.1667 36.8896 39.72C36.8896 39.2733 36.9829 38.8733 37.1696 38.52C37.3562 38.1667 37.6162 37.89 37.9496 37.69C38.2829 37.49 38.6629 37.39 39.0896 37.39C39.5162 37.39 39.8662 37.4767 40.1396 37.65C40.4129 37.8233 40.6096 38.0033 40.7296 38.19C40.8562 38.3767 40.9396 38.53 40.9796 38.65C41.1129 39.01 41.1796 39.3767 41.1796 39.75C41.1796 39.87 41.1729 39.97 41.1596 40.05H37.6396C37.6996 40.4433 37.8629 40.7667 38.1296 41.02C38.4029 41.2733 38.7229 41.4 39.0896 41.4C39.3829 41.4 39.6296 41.3533 39.8296 41.26C40.0296 41.16 40.1696 41.0633 40.2496 40.97C40.3362 40.8767 40.4162 40.7767 40.4896 40.67L41.0496 40.99C40.9162 41.2767 40.6796 41.5267 40.3396 41.74C40.0062 41.9467 39.5896 42.05 39.0896 42.05ZM40.4496 39.4C40.3562 38.4933 39.9029 38.04 39.0896 38.04C38.7162 38.04 38.3962 38.1667 38.1296 38.42C37.8629 38.6733 37.6996 39.0033 37.6396 39.41L40.4496 39.4Z" fill="#AFB8C1"/>
</svg>
