<svg width="360" height="200" viewBox="0 0 360 200" fill="none" xmlns="http://www.w3.org/2000/svg">
<rect width="360" height="200" fill="url(#paint0_linear_3076_3824)"/>
<g style="mix-blend-mode:plus-darker" opacity="0.4">
<mask id="mask0_3076_3824" style="mask-type:alpha" maskUnits="userSpaceOnUse" x="0" y="0" width="360" height="200">
<rect width="360" height="200" fill="#B2E9CC"/>
</mask>
<g mask="url(#mask0_3076_3824)">
<g opacity="0.7">
<rect x="216.818" width="93.3971" height="31.1489" rx="4.66986" fill="#B2E9CC" stroke="#33A165" stroke-width="4.66986"/>
<path d="M200.474 73.4447C200.474 57.9701 213.018 45.4255 228.493 45.4255H297.373C312.848 45.4255 325.392 57.9701 325.392 73.4447V222.979C325.392 228.138 321.211 232.319 316.053 232.319H209.813C204.655 232.319 200.474 228.138 200.474 222.979V73.4447Z" fill="#ECFAF2" stroke="#33A165" stroke-width="4.66986"/>
<rect x="226.158" y="31.1489" width="74.7177" height="14.2766" fill="#ECFAF2" stroke="#33A165" stroke-width="4.66986"/>
<g style="mix-blend-mode:darken">
<path d="M283.364 55.8086H298.541C304.989 55.8086 310.215 61.0355 310.215 67.4832V215.192C310.215 220.35 306.034 224.532 300.876 224.532H283.364V55.8086Z" fill="#B2E9CC"/>
</g>
<g style="mix-blend-mode:darken">
<path d="M230.828 55.8086C219.222 55.8086 209.814 65.217 209.814 76.8229V222.98C209.814 228.138 213.995 232.319 219.153 232.319H230.828V55.8086Z" fill="#B2E9CC"/>
</g>
<g style="mix-blend-mode:darken">
<path d="M299.708 55.8086C308.735 55.8086 316.053 63.1263 316.053 72.1531V215.192C316.053 220.35 311.871 224.532 306.713 224.532H299.708V55.8086Z" fill="#66D498"/>
</g>
<g style="mix-blend-mode:darken">
<rect x="228.493" y="55.8086" width="59.5407" height="5.19149" fill="#B2E9CC"/>
</g>
<path d="M228.493 92.4036C228.493 87.2454 232.674 83.0638 237.833 83.0638H323.058V194.681H237.833C232.674 194.681 228.493 190.499 228.493 185.341V92.4036Z" fill="#ECFAF2"/>
<path d="M226.158 92.4036C226.158 85.9558 231.385 80.7289 237.833 80.7289H323.058V85.3988H237.833C233.964 85.3988 230.828 88.5349 230.828 92.4036H226.158ZM323.058 197.016H237.833C231.385 197.016 226.158 191.789 226.158 185.341H230.828C230.828 189.21 233.964 192.346 237.833 192.346H323.058V197.016ZM237.833 197.016C231.385 197.016 226.158 191.789 226.158 185.341V92.4036C226.158 85.9558 231.385 80.7289 237.833 80.7289V85.3988C233.964 85.3988 230.828 88.5349 230.828 92.4036V185.341C230.828 189.21 233.964 192.346 237.833 192.346V197.016ZM323.058 83.0638V194.681V83.0638Z" fill="#66D498"/>
<g style="mix-blend-mode:darken">
<line x1="302.627" y1="1.29785" x2="302.627" y2="29.851" stroke="#40C97F" stroke-width="3.50239"/>
</g>
<rect x="320.722" y="37.6383" width="49.0335" height="31.1489" rx="4.66986" fill="#8CDEB2" stroke="#195033" stroke-width="4.66986"/>
<rect x="320.722" y="68.7874" width="49.0335" height="10.383" rx="4.66986" fill="#D9F4E5" stroke="#195033" stroke-width="4.66986"/>
<path d="M310.215 97.8499C310.215 87.5335 318.578 79.1704 328.895 79.1704H361.584C371.9 79.1704 380.263 87.5335 380.263 97.8498V234.66C380.263 239.819 376.082 244 370.923 244H319.555C314.397 244 310.215 239.819 310.215 234.66V97.8499Z" fill="url(#paint1_linear_3076_3824)" stroke="#195033" stroke-width="4.66986"/>
<g style="mix-blend-mode:darken">
<path d="M318.387 102.265C318.387 94.5278 324.66 88.2555 332.397 88.2555H358.081C365.819 88.2555 372.091 94.5278 372.091 102.265V216.49C372.091 221.648 367.909 225.83 362.751 225.83H327.727C322.569 225.83 318.387 221.648 318.387 216.49V102.265Z" fill="#8CDEB2"/>
</g>
<g style="mix-blend-mode:overlay" opacity="0.4">
<rect x="325.392" y="96.0427" width="7.00478" height="15.5745" rx="3.50239" fill="#D9F4E5"/>
</g>
<g style="mix-blend-mode:overlay" opacity="0.4">
<rect x="325.392" y="120.702" width="7.00478" height="107.723" rx="3.50239" fill="#D9F4E5"/>
</g>
<rect x="99.488" y="40.9371" width="85.2249" height="183.292" rx="7.58852" fill="#B2E9CC" stroke="#26784C" stroke-width="3.50239"/>
<path fill-rule="evenodd" clip-rule="evenodd" d="M142.1 68.8807C143.39 68.8807 144.435 70.0429 144.435 71.4765L144.435 194.774C144.435 196.208 143.39 197.37 142.1 197.37C140.811 197.37 139.765 196.208 139.765 194.774L139.765 71.4765C139.765 70.0429 140.811 68.8807 142.1 68.8807Z" fill="#26784C"/>
<circle cx="119.919" cy="75.151" r="8.75598" fill="white" stroke="#40C97F" stroke-width="3.50239"/>
<circle cx="119.919" cy="110.175" r="8.75598" fill="white" stroke="#40C97F" stroke-width="3.50239"/>
<circle cx="119.919" cy="145.199" r="8.75598" fill="white" stroke="#40C97F" stroke-width="3.50239"/>
<circle cx="119.919" cy="180.223" r="8.75598" fill="white" stroke="#40C97F" stroke-width="3.50239"/>
<circle cx="164.282" cy="75.151" r="8.75598" fill="white" stroke="#40C97F" stroke-width="3.50239"/>
<circle cx="164.282" cy="110.175" r="8.75598" fill="white" stroke="#40C97F" stroke-width="3.50239"/>
<circle cx="164.282" cy="145.199" r="8.75598" fill="white" stroke="#40C97F" stroke-width="3.50239"/>
<circle cx="164.282" cy="180.223" r="8.75598" fill="white" stroke="#40C97F" stroke-width="3.50239"/>
<g style="mix-blend-mode:darken">
<rect x="234.33" y="31.1489" width="59.5407" height="14.2766" fill="#B2E9CC"/>
</g>
<path d="M167.785 111.356C167.785 110.067 168.83 109.021 170.12 109.021H244.837C246.127 109.021 247.172 110.067 247.172 111.356V122.261C247.172 123.55 246.127 124.596 244.837 124.596H170.12C168.83 124.596 167.785 123.55 167.785 122.261V111.356Z" fill="white" stroke="#33A165" stroke-width="3.50239"/>
<rect x="180.627" y="124.596" width="53.7034" height="10.383" fill="white" stroke="#33A165" stroke-width="3.50239"/>
<path d="M161.947 144.318C161.947 139.16 166.129 134.979 171.287 134.979H243.67C248.828 134.979 253.009 139.16 253.009 144.318V239.33C253.009 241.909 250.919 244 248.34 244H166.617C164.038 244 161.947 241.909 161.947 239.33V144.318Z" fill="url(#paint2_linear_3076_3824)" stroke="#33A165" stroke-width="3.50239"/>
<g style="mix-blend-mode:darken">
<line x1="294.455" y1="1.29785" x2="294.455" y2="29.851" stroke="#40C97F" stroke-width="3.50239"/>
</g>
<g style="mix-blend-mode:darken">
<line x1="261.766" y1="1.29785" x2="261.766" y2="29.851" stroke="#40C97F" stroke-width="3.50239"/>
</g>
<g style="mix-blend-mode:darken">
<line x1="286.282" y1="1.29785" x2="286.282" y2="29.851" stroke="#40C97F" stroke-width="3.50239"/>
</g>
<g style="mix-blend-mode:darken">
<line x1="253.593" y1="1.29785" x2="253.593" y2="29.851" stroke="#40C97F" stroke-width="3.50239"/>
</g>
<g style="mix-blend-mode:darken">
<line x1="278.11" y1="1.29785" x2="278.11" y2="29.851" stroke="#40C97F" stroke-width="3.50239"/>
</g>
<g style="mix-blend-mode:darken">
<line x1="245.421" y1="1.29785" x2="245.421" y2="29.851" stroke="#40C97F" stroke-width="3.50239"/>
</g>
<g style="mix-blend-mode:darken">
<line x1="229.077" y1="1.29785" x2="229.077" y2="29.851" stroke="#40C97F" stroke-width="3.50239"/>
</g>
<g style="mix-blend-mode:darken">
<line x1="269.938" y1="1.29785" x2="269.938" y2="29.851" stroke="#40C97F" stroke-width="3.50239"/>
</g>
<g style="mix-blend-mode:darken">
<line x1="237.249" y1="1.29785" x2="237.249" y2="29.851" stroke="#40C97F" stroke-width="3.50239"/>
</g>
<g style="mix-blend-mode:darken">
<line x1="220.904" y1="1.29785" x2="220.904" y2="29.851" stroke="#40C97F" stroke-width="3.50239"/>
</g>
<rect x="161.947" y="172.617" width="91.0622" height="36.3404" fill="#D9F4E5" stroke="#33A165" stroke-width="3.50239"/>
<line x1="241.335" y1="109.021" x2="241.335" y2="124.596" stroke="#33A165" stroke-width="2.33493"/>
<line x1="206.311" y1="109.021" x2="206.311" y2="124.596" stroke="#33A165" stroke-width="2.33493"/>
<line x1="235.498" y1="109.021" x2="235.498" y2="124.596" stroke="#33A165" stroke-width="2.33493"/>
<line x1="200.474" y1="109.021" x2="200.474" y2="124.596" stroke="#33A165" stroke-width="2.33493"/>
<line x1="229.66" y1="109.021" x2="229.66" y2="124.596" stroke="#33A165" stroke-width="2.33493"/>
<line x1="194.636" y1="109.021" x2="194.636" y2="124.596" stroke="#33A165" stroke-width="2.33493"/>
<line x1="223.823" y1="109.021" x2="223.823" y2="124.596" stroke="#33A165" stroke-width="2.33493"/>
<line x1="188.799" y1="109.021" x2="188.799" y2="124.596" stroke="#33A165" stroke-width="2.33493"/>
<line x1="217.986" y1="109.021" x2="217.986" y2="124.596" stroke="#33A165" stroke-width="2.33493"/>
<line x1="182.962" y1="109.021" x2="182.962" y2="124.596" stroke="#33A165" stroke-width="2.33493"/>
<line x1="212.148" y1="109.021" x2="212.148" y2="124.596" stroke="#33A165" stroke-width="2.33493"/>
<line x1="177.124" y1="109.021" x2="177.124" y2="124.596" stroke="#33A165" stroke-width="2.33493"/>
<line x1="172.455" y1="109.021" x2="172.455" y2="124.596" stroke="#33A165" stroke-width="2.33493"/>
</g>
</g>
</g>
<g filter="url(#filter0_d_3076_3824)">
<path d="M38.62 28.82V33.96H41.08V35.78H38.62V41.9H36.42V28.82H38.62ZM25.3 30.08H27.48V32.8H31.56V30.08H33.72V39.04H25.3V30.08ZM27.3 40.6H29.5V44.5H39.32V46.26H27.3V40.6ZM31.56 37.28V34.5H27.48V37.28H31.56ZM56.1905 28.78V46.64H53.9905V39.32H50.7705V37.56H53.9905V34.46H50.8505V32.68H53.9905V28.78H56.1905ZM41.9905 30.34H49.8705V37.04H44.1905V40.8C45.4571 40.7867 46.6171 40.7467 47.6705 40.68C48.7238 40.6133 49.8105 40.4933 50.9305 40.32L51.0905 42.12C49.8505 42.32 48.6371 42.4533 47.4505 42.52C46.2771 42.5867 44.9305 42.62 43.4105 42.62H42.0105V35.28H47.6905V32.1H41.9905V30.34ZM72.9409 28.8V41.96H70.7209V38.1H66.4609V36.32H70.7209V34.08H66.7409C66.1143 35.4533 65.1676 36.6467 63.9009 37.66C62.6343 38.66 61.1009 39.4467 59.3009 40.02L58.3609 38.26C60.3209 37.6467 61.9009 36.7867 63.1009 35.68C64.3009 34.5733 64.9943 33.32 65.1809 31.92H59.3009V30.16H67.5609C67.5609 30.92 67.4809 31.64 67.3209 32.32H70.7209V28.8H72.9409ZM61.4209 40.7H63.6409V44.5H73.3609V46.26H61.4209V40.7ZM90.0714 28.8V46.6H87.9914V28.8H90.0714ZM75.0314 36.5C75.0314 35.2067 75.1847 34.08 75.4914 33.12C75.8114 32.16 76.2581 31.4267 76.8314 30.92C77.4047 30.4 78.0781 30.14 78.8514 30.14C79.9181 30.14 80.7914 30.62 81.4714 31.58C82.1514 32.5267 82.5514 33.8333 82.6714 35.5H84.3914V29.14H86.4514V45.76H84.3914V37.28H82.6914C82.5981 39.0267 82.2047 40.4 81.5114 41.4C80.8314 42.3867 79.9447 42.88 78.8514 42.88C78.0781 42.88 77.4047 42.6267 76.8314 42.12C76.2581 41.6 75.8114 40.86 75.4914 39.9C75.1847 38.94 75.0314 37.8067 75.0314 36.5ZM77.0314 36.5C77.0314 37.8867 77.1914 38.9533 77.5114 39.7C77.8314 40.4467 78.2781 40.82 78.8514 40.82C79.4381 40.82 79.8914 40.4467 80.2114 39.7C80.5314 38.9533 80.6914 37.8867 80.6914 36.5C80.6914 35.1133 80.5314 34.0533 80.2114 33.32C79.8914 32.5867 79.4381 32.22 78.8514 32.22C78.2781 32.22 77.8314 32.5933 77.5114 33.34C77.1914 34.0733 77.0314 35.1267 77.0314 36.5ZM106.842 28.8V46.6H104.742V28.8H106.842ZM91.4419 41.3C93.2419 40.2333 94.5885 39 95.4819 37.6C96.3885 36.2 96.9219 34.58 97.0819 32.74H92.3419V30.96H99.2819C99.2819 32.7733 99.0552 34.3867 98.6019 35.8H101.002V29.22H103.062V45.76H101.002V37.56H97.8819C96.8152 39.7067 95.0885 41.4733 92.7019 42.86L91.4419 41.3ZM121.172 29.98V37.74H112.812V29.98H121.172ZM113.832 44.88C115.352 44.68 116.598 44.2667 117.572 43.64C118.545 43.0133 119.118 42.3 119.292 41.5H114.572V39.76H126.392V41.5H121.712C121.832 42.0067 122.125 42.4933 122.592 42.96C123.058 43.4267 123.678 43.8333 124.452 44.18C125.238 44.5133 126.125 44.7533 127.112 44.9L126.332 46.58C124.972 46.38 123.785 46 122.772 45.44C121.772 44.88 121.012 44.1933 120.492 43.38C119.985 44.1933 119.225 44.8733 118.212 45.42C117.198 45.98 116.005 46.36 114.632 46.56L113.832 44.88ZM119.012 36V31.74H114.972V36H119.012ZM123.932 28.82H126.132V32.82H128.592V34.64H126.132V38.84H123.932V28.82ZM133.162 29.44V33.82H143.222V35.58H130.982V29.44H133.162ZM128.922 37.64H145.042V39.4H128.922V37.64ZM130.842 40.94H133.022V44.44H143.322V46.22H130.842V40.94ZM39.46 60.82V74.38H37.26V70.9H34.66V69.14H37.26V67.1H34.66V65.34H37.26V60.82H39.46ZM24.7 62.78H28.64V60.76H30.84V62.78H34.56V64.52H24.7V62.78ZM25.6 68.76C25.6 68.08 25.7733 67.48 26.12 66.96C26.48 66.4267 26.9667 66.02 27.58 65.74C28.2067 65.4467 28.9133 65.3 29.7 65.3C30.5 65.3 31.2133 65.4467 31.84 65.74C32.4667 66.02 32.9533 66.4267 33.3 66.96C33.66 67.48 33.84 68.08 33.84 68.76C33.84 69.4267 33.66 70.0267 33.3 70.56C32.9533 71.08 32.4667 71.4867 31.84 71.78C31.2133 72.06 30.5 72.2 29.7 72.2C28.9133 72.2 28.2067 72.06 27.58 71.78C26.9667 71.4867 26.48 71.08 26.12 70.56C25.7733 70.0267 25.6 69.4267 25.6 68.76ZM27.66 68.76C27.66 69.3067 27.8467 69.74 28.22 70.06C28.5933 70.3667 29.0867 70.52 29.7 70.52C30.3133 70.52 30.8067 70.3667 31.18 70.06C31.5667 69.74 31.76 69.3067 31.76 68.76C31.76 68.2133 31.5667 67.78 31.18 67.46C30.8067 67.14 30.3133 66.98 29.7 66.98C29.0867 66.98 28.5933 67.14 28.22 67.46C27.8467 67.78 27.66 68.2133 27.66 68.76ZM27.8 73.24H30.02V76.5H39.86V78.26H27.8V73.24ZM56.7105 60.8V78.6H54.6105V69.56H52.8305V77.76H50.7705V61.14H52.8305V67.78H54.6105V60.8H56.7105ZM41.1105 73.44C42.3505 72.7067 43.2638 71.64 43.8505 70.24C44.4505 68.8267 44.7505 67.1933 44.7505 65.34V64.52H41.6305V62.72H49.7705V64.52H46.8705V65.34C46.8705 67.02 47.1705 68.52 47.7705 69.84C48.3705 71.16 49.2905 72.1467 50.5305 72.8L49.2705 74.48C47.6838 73.6267 46.5505 72.1733 45.8705 70.12C45.2305 72.4667 44.0905 74.1333 42.4505 75.12L41.1105 73.44ZM66.8803 61.8C67.587 61.8 68.2403 61.9267 68.8403 62.18C69.4536 62.4333 69.9736 62.7867 70.4003 63.24H74.5803V60.82H76.7803V71.28H74.5803V69.02H70.3803C69.9536 69.46 69.4403 69.8067 68.8403 70.06C68.2403 70.3 67.587 70.42 66.8803 70.42C66.0003 70.42 65.207 70.24 64.5003 69.88C63.7936 69.5067 63.2336 68.9933 62.8203 68.34C62.4203 67.6867 62.2203 66.9467 62.2203 66.12C62.2203 65.2933 62.4203 64.5533 62.8203 63.9C63.2336 63.2333 63.7936 62.72 64.5003 62.36C65.207 61.9867 66.0003 61.8 66.8803 61.8ZM64.3003 66.12C64.3003 66.8533 64.5403 67.4467 65.0203 67.9C65.5136 68.34 66.1336 68.56 66.8803 68.56C67.627 68.56 68.2336 68.34 68.7003 67.9C69.1803 67.4467 69.4203 66.8533 69.4203 66.12C69.4203 65.3733 69.1803 64.78 68.7003 64.34C68.2336 63.8867 67.627 63.66 66.8803 63.66C66.1203 63.66 65.5003 63.8867 65.0203 64.34C64.5403 64.78 64.3003 65.3733 64.3003 66.12ZM64.7803 75.14C64.7803 74.0467 65.3203 73.1933 66.4003 72.58C67.4803 71.9667 68.9536 71.66 70.8203 71.66C72.687 71.66 74.1536 71.9667 75.2203 72.58C76.3003 73.1933 76.8403 74.0467 76.8403 75.14C76.8403 76.22 76.3003 77.0667 75.2203 77.68C74.1536 78.2933 72.687 78.6 70.8203 78.6C68.9536 78.6 67.4803 78.2933 66.4003 77.68C65.3203 77.0667 64.7803 76.22 64.7803 75.14ZM66.9403 75.14C66.9403 75.7133 67.2736 76.1533 67.9403 76.46C68.6203 76.7533 69.5803 76.9 70.8203 76.9C72.0603 76.9 73.0136 76.7533 73.6803 76.46C74.347 76.1533 74.6803 75.7133 74.6803 75.14C74.6803 74.5667 74.347 74.1267 73.6803 73.82C73.0136 73.5133 72.0603 73.36 70.8203 73.36C69.5803 73.36 68.6203 73.5133 67.9403 73.82C67.2736 74.1267 66.9403 74.5667 66.9403 75.14ZM74.5803 67.24V65H71.3803C71.4736 65.3333 71.5203 65.7067 71.5203 66.12C71.5203 66.5333 71.4736 66.9067 71.3803 67.24H74.5803ZM83.6908 61.82C84.5841 61.82 85.3908 62 86.1108 62.36C86.8441 62.72 87.4174 63.2267 87.8308 63.88C88.2441 64.5333 88.4508 65.2667 88.4508 66.08C88.4508 66.8933 88.2441 67.6267 87.8308 68.28C87.4174 68.9333 86.8441 69.44 86.1108 69.8C85.3908 70.16 84.5841 70.34 83.6908 70.34C82.7841 70.34 81.9708 70.16 81.2508 69.8C80.5308 69.44 79.9641 68.94 79.5508 68.3C79.1374 67.6467 78.9308 66.9067 78.9308 66.08C78.9308 65.2533 79.1374 64.52 79.5508 63.88C79.9641 63.2267 80.5308 62.72 81.2508 62.36C81.9708 62 82.7841 61.82 83.6908 61.82ZM80.9508 75.16C80.9508 74.08 81.4841 73.2333 82.5508 72.62C83.6174 72.0067 85.0708 71.7 86.9108 71.7C88.7508 71.7 90.1974 72.0067 91.2508 72.62C92.3174 73.2333 92.8508 74.08 92.8508 75.16C92.8508 76.24 92.3174 77.08 91.2508 77.68C90.1974 78.2933 88.7508 78.6 86.9108 78.6C85.0708 78.6 83.6174 78.2933 82.5508 77.68C81.4841 77.08 80.9508 76.24 80.9508 75.16ZM81.0708 66.08C81.0708 66.8133 81.3174 67.4 81.8108 67.84C82.3041 68.28 82.9308 68.5 83.6908 68.5C84.4508 68.5 85.0774 68.28 85.5708 67.84C86.0641 67.4 86.3108 66.8133 86.3108 66.08C86.3108 65.3467 86.0641 64.76 85.5708 64.32C85.0774 63.88 84.4508 63.66 83.6908 63.66C82.9308 63.66 82.3041 63.88 81.8108 64.32C81.3174 64.76 81.0708 65.3467 81.0708 66.08ZM83.1308 75.16C83.1308 75.7067 83.4574 76.1333 84.1108 76.44C84.7641 76.7333 85.6974 76.88 86.9108 76.88C88.1108 76.88 89.0374 76.7333 89.6908 76.44C90.3574 76.1333 90.6908 75.7067 90.6908 75.16C90.6908 74.6 90.3641 74.1733 89.7108 73.88C89.0574 73.5867 88.1241 73.44 86.9108 73.44C85.6841 73.44 84.7441 73.5867 84.0908 73.88C83.4508 74.1733 83.1308 74.6 83.1308 75.16ZM90.4508 60.82H92.6508V63.18H95.0508V64.98H92.6508V67.02H95.0508V68.82H92.6508V71.26H90.4508V60.82ZM105.581 61.76V63.62C105.581 64.7933 105.941 65.86 106.661 66.82C107.381 67.7667 108.394 68.4533 109.701 68.88L108.561 70.58C107.627 70.26 106.814 69.7867 106.121 69.16C105.441 68.5333 104.907 67.8 104.521 66.96C104.134 67.9333 103.581 68.7733 102.861 69.48C102.154 70.1867 101.294 70.7267 100.281 71.1L99.1006 69.36C100.487 68.88 101.547 68.1067 102.281 67.04C103.027 65.96 103.401 64.76 103.401 63.44V61.76H105.581ZM101.541 75.24C101.541 74.1867 102.067 73.3667 103.121 72.78C104.187 72.18 105.647 71.88 107.501 71.88C109.354 71.88 110.807 72.18 111.861 72.78C112.914 73.3667 113.441 74.1867 113.441 75.24C113.441 76.2933 112.914 77.1133 111.861 77.7C110.807 78.3 109.354 78.6 107.501 78.6C105.647 78.6 104.187 78.3 103.121 77.7C102.067 77.1133 101.541 76.2933 101.541 75.24ZM103.701 75.24C103.701 75.7733 104.027 76.1867 104.681 76.48C105.347 76.76 106.287 76.9 107.501 76.9C108.714 76.9 109.647 76.76 110.301 76.48C110.954 76.1867 111.281 75.7733 111.281 75.24C111.281 74.7067 110.954 74.3 110.301 74.02C109.647 73.7267 108.714 73.58 107.501 73.58C106.287 73.58 105.347 73.7267 104.681 74.02C104.027 74.3 103.701 74.7067 103.701 75.24ZM111.041 60.82H113.241V65.12H115.721V66.94H113.241V71.44H111.041V60.82ZM123.791 62.72V64.48H118.771V67.4H123.491V69.12H118.771V72.6C119.971 72.5867 120.971 72.5533 121.771 72.5C122.571 72.4467 123.384 72.3467 124.211 72.2L124.431 74C123.471 74.1733 122.524 74.2867 121.591 74.34C120.671 74.3933 119.438 74.42 117.891 74.42H116.691V62.72H123.791ZM125.291 61.14H127.351V67.78H129.171V60.8H131.251V78.6H129.171V69.58H127.351V77.76H125.291V61.14ZM146.622 60.78V67.76H149.242V69.58H146.622V78.6H144.402V60.78H146.622ZM132.702 73.74C134.848 72.6333 136.502 71.3133 137.662 69.78C138.822 68.2467 139.508 66.4667 139.722 64.44H133.642V62.66H141.942C141.942 68.4733 139.275 72.72 133.942 75.4L132.702 73.74ZM167.511 61.52V62.86C167.511 63.7933 167.485 64.62 167.431 65.34C167.391 66.06 167.285 66.86 167.111 67.74H169.491V69.5H162.491V71.9C164.105 72.0067 165.358 72.3533 166.251 72.94C167.158 73.5133 167.611 74.28 167.611 75.24C167.611 76.3067 167.058 77.1333 165.951 77.72C164.858 78.3067 163.338 78.6 161.391 78.6C159.458 78.6 157.938 78.3067 156.831 77.72C155.738 77.1333 155.191 76.3067 155.191 75.24C155.191 74.28 155.638 73.5133 156.531 72.94C157.438 72.3533 158.698 72.0067 160.311 71.9V69.5H153.371V67.74H164.931C165.118 66.9133 165.238 66.1533 165.291 65.46C165.345 64.7667 165.371 64.0333 165.371 63.26H155.391V61.52H167.511ZM157.391 75.24C157.391 75.7733 157.731 76.18 158.411 76.46C159.091 76.7267 160.085 76.86 161.391 76.86C162.698 76.86 163.691 76.7267 164.371 76.46C165.065 76.18 165.411 75.7733 165.411 75.24C165.411 74.7067 165.065 74.3067 164.371 74.04C163.691 73.76 162.698 73.62 161.391 73.62C160.085 73.62 159.091 73.76 158.411 74.04C157.731 74.3067 157.391 74.7067 157.391 75.24ZM184.242 61.66V63.04C184.242 64.0133 184.215 64.8733 184.162 65.62C184.122 66.3533 184.009 67.1867 183.822 68.12H186.222V69.9H170.102V68.12H181.642C181.829 67.2533 181.949 66.46 182.002 65.74C182.069 65.02 182.102 64.2533 182.102 63.44H172.122V61.66H184.242ZM172.022 71.96H184.222V78.42H172.022V71.96ZM182.082 76.66V73.68H174.182V76.66H182.082ZM200.692 60.82V67.9H203.392V69.72H200.692V78.62H198.492V60.82H200.692ZM186.732 63.52H190.872V61.08H193.092V63.52H197.172V65.28H186.732V63.52ZM187.552 70.66C187.552 69.86 187.746 69.14 188.132 68.5C188.519 67.86 189.046 67.3667 189.712 67.02C190.392 66.66 191.152 66.48 191.992 66.48C192.846 66.48 193.612 66.66 194.292 67.02C194.972 67.3667 195.499 67.86 195.872 68.5C196.259 69.1267 196.452 69.8467 196.452 70.66C196.452 71.4733 196.259 72.2 195.872 72.84C195.486 73.4667 194.952 73.96 194.272 74.32C193.606 74.6667 192.846 74.84 191.992 74.84C191.152 74.84 190.392 74.6667 189.712 74.32C189.046 73.96 188.519 73.46 188.132 72.82C187.746 72.18 187.552 71.46 187.552 70.66ZM189.672 70.66C189.672 71.38 189.886 71.96 190.312 72.4C190.739 72.8267 191.299 73.04 191.992 73.04C192.686 73.04 193.246 72.8267 193.672 72.4C194.112 71.96 194.332 71.38 194.332 70.66C194.332 69.94 194.112 69.36 193.672 68.92C193.246 68.48 192.686 68.26 191.992 68.26C191.312 68.26 190.752 68.48 190.312 68.92C189.886 69.36 189.672 69.94 189.672 70.66ZM218.243 60.82V73.8H216.043V60.82H218.243ZM203.583 69.62C204.956 69.1133 206.016 68.3067 206.763 67.2C207.523 66.08 207.903 64.8667 207.903 63.56V61.78H210.123V63.56C210.123 64.8267 210.489 65.9867 211.223 67.04C211.969 68.0933 213.023 68.8467 214.383 69.3L213.243 71.06C212.256 70.7 211.409 70.1867 210.703 69.52C209.996 68.84 209.443 68.0333 209.043 67.1C208.643 68.1 208.076 68.9667 207.343 69.7C206.609 70.4333 205.729 70.9867 204.703 71.36L203.583 69.62ZM206.563 72.58H208.763V76.5H218.743V78.26H206.563V72.58ZM234.133 60.78V67.76H236.753V69.58H234.133V78.6H231.913V60.78H234.133ZM220.213 73.74C222.36 72.6333 224.013 71.3133 225.173 69.78C226.333 68.2467 227.02 66.4667 227.233 64.44H221.153V62.66H229.453C229.453 68.4733 226.787 72.72 221.453 75.4L220.213 73.74ZM240.724 74.66V70.12C240.004 69.7067 239.45 69.1867 239.064 68.56C238.677 67.9333 238.484 67.2333 238.484 66.46C238.484 65.5267 238.764 64.7067 239.324 64C239.897 63.28 240.677 62.7267 241.664 62.34C242.664 61.9533 243.797 61.76 245.064 61.76C246.33 61.76 247.464 61.9533 248.464 62.34C249.464 62.7267 250.244 63.28 250.804 64C251.364 64.7067 251.644 65.5267 251.644 66.46C251.644 67.2333 251.45 67.9333 251.064 68.56C250.677 69.1867 250.13 69.7067 249.424 70.12V74.66H253.144V76.44H237.024V74.66H240.724ZM240.644 66.46C240.644 67.38 241.044 68.1067 241.844 68.64C242.657 69.1733 243.73 69.44 245.064 69.44C246.397 69.44 247.464 69.1733 248.264 68.64C249.077 68.1067 249.484 67.38 249.484 66.46C249.484 65.5533 249.077 64.8333 248.264 64.3C247.45 63.7533 246.384 63.48 245.064 63.48C243.744 63.48 242.677 63.7533 241.864 64.3C241.05 64.8333 240.644 65.5533 240.644 66.46ZM247.224 74.66V70.94C246.53 71.0867 245.81 71.16 245.064 71.16C244.33 71.16 243.617 71.0867 242.924 70.94V74.66H247.224ZM258.274 77.48C257.901 77.48 257.594 77.36 257.354 77.12C257.128 76.8933 257.014 76.5933 257.014 76.22C257.014 75.8467 257.128 75.5467 257.354 75.32C257.594 75.0933 257.901 74.98 258.274 74.98C258.648 74.98 258.948 75.0933 259.174 75.32C259.401 75.5467 259.514 75.8467 259.514 76.22C259.514 76.5933 259.401 76.8933 259.174 77.12C258.948 77.36 258.648 77.48 258.274 77.48ZM253.914 64.98C254.288 63.9933 254.908 63.1867 255.774 62.56C256.654 61.92 257.594 61.6 258.594 61.6C259.514 61.6 260.328 61.7867 261.034 62.16C261.741 62.52 262.288 63.0333 262.674 63.7C263.061 64.3667 263.254 65.1267 263.254 65.98C263.254 66.7667 263.041 67.5267 262.614 68.26C262.201 68.9933 261.508 69.72 260.534 70.44C260.188 70.6933 259.928 70.9267 259.754 71.14C259.594 71.3533 259.481 71.6067 259.414 71.9C259.348 72.1933 259.321 72.5933 259.334 73.1L257.174 73.12C257.161 72.0933 257.314 71.24 257.634 70.56C257.968 69.8667 258.508 69.2467 259.254 68.7C259.988 68.1533 260.474 67.6867 260.714 67.3C260.968 66.9 261.094 66.46 261.094 65.98C261.094 65.3133 260.861 64.7733 260.394 64.36C259.928 63.9467 259.328 63.74 258.594 63.74C258.034 63.74 257.501 63.9267 256.994 64.3C256.501 64.66 256.141 65.1333 255.914 65.72L253.914 64.98Z" fill="white"/>
</g>
<defs>
<filter id="filter0_d_3076_3824" x="20.7" y="24.78" width="246.554" height="57.84" filterUnits="userSpaceOnUse" color-interpolation-filters="sRGB">
<feFlood flood-opacity="0" result="BackgroundImageFix"/>
<feColorMatrix in="SourceAlpha" type="matrix" values="0 0 0 0 0 0 0 0 0 0 0 0 0 0 0 0 0 0 127 0" result="hardAlpha"/>
<feOffset/>
<feGaussianBlur stdDeviation="2"/>
<feComposite in2="hardAlpha" operator="out"/>
<feColorMatrix type="matrix" values="0 0 0 0 0.364706 0 0 0 0 0.72549 0 0 0 0 0.533333 0 0 0 1 0"/>
<feBlend mode="normal" in2="BackgroundImageFix" result="effect1_dropShadow_3076_3824"/>
<feBlend mode="normal" in="SourceGraphic" in2="effect1_dropShadow_3076_3824" result="shape"/>
</filter>
<linearGradient id="paint0_linear_3076_3824" x1="360" y1="100" x2="0" y2="100" gradientUnits="userSpaceOnUse">
<stop stop-color="#B2E9CC"/>
<stop offset="1" stop-color="#80D6A9"/>
</linearGradient>
<linearGradient id="paint1_linear_3076_3824" x1="345.239" y1="244" x2="345.239" y2="79.1704" gradientUnits="userSpaceOnUse">
<stop stop-color="#40C97F"/>
<stop offset="1" stop-color="#FCFDFC"/>
</linearGradient>
<linearGradient id="paint2_linear_3076_3824" x1="207.478" y1="134.979" x2="207.478" y2="244" gradientUnits="userSpaceOnUse">
<stop stop-color="#40C97F"/>
<stop offset="1" stop-color="#C1CAD4"/>
</linearGradient>
</defs>
</svg>
