<svg width="24" height="24" viewBox="0 0 24 24" fill="none" xmlns="http://www.w3.org/2000/svg">
<g clip-path="url(#clip0_1702_8991)">
<path d="M19.8549 11.293C20.0377 11.4805 20.1404 11.7348 20.1404 12C20.1404 12.2652 20.0377 12.5195 19.8549 12.707L14.3393 18.364C14.1554 18.5462 13.9091 18.647 13.6535 18.6447C13.3979 18.6424 13.1533 18.5372 12.9725 18.3518C12.7918 18.1664 12.6892 17.9156 12.687 17.6534C12.6848 17.3912 12.7831 17.1386 12.9607 16.95L16.8119 13H3.89998C3.6414 13 3.3934 12.8946 3.21055 12.7071C3.02771 12.5196 2.92498 12.2652 2.92498 12C2.92498 11.7348 3.02771 11.4804 3.21055 11.2929C3.3934 11.1054 3.6414 11 3.89998 11H16.8119L12.9607 7.05C12.7831 6.8614 12.6848 6.6088 12.687 6.3466C12.6892 6.0844 12.7918 5.83359 12.9725 5.64818C13.1533 5.46277 13.3979 5.3576 13.6535 5.35533C13.9091 5.35305 14.1554 5.45384 14.3393 5.636L19.8549 11.293Z" fill="white"/>
</g>
<defs>
<clipPath id="clip0_1702_8991">
<rect width="23.4" height="24" fill="white" transform="matrix(-1 0 0 1 23.4 0)"/>
</clipPath>
</defs>
</svg>
