<svg width="312" height="57" viewBox="0 0 312 57" fill="none" xmlns="http://www.w3.org/2000/svg">
<rect width="312" height="57" rx="8" fill="#4F5357"/>
<path d="M145.804 21.176C146.572 21.176 147.25 21.308 147.838 21.572C148.438 21.836 148.906 22.208 149.242 22.688C149.578 23.168 149.746 23.72 149.746 24.344C149.746 25.148 149.47 25.832 148.918 26.396C148.366 26.948 147.634 27.296 146.722 27.44V28.844C148.15 28.772 149.494 28.646 150.754 28.466L150.88 29.744C149.428 30.02 147.91 30.2 146.326 30.284C144.754 30.356 143.044 30.392 141.196 30.392L140.98 28.97C142.672 28.97 143.998 28.952 144.958 28.916V27.458C144.022 27.314 143.272 26.966 142.708 26.414C142.144 25.85 141.862 25.16 141.862 24.344C141.862 23.72 142.03 23.168 142.366 22.688C142.702 22.208 143.164 21.836 143.752 21.572C144.352 21.308 145.036 21.176 145.804 21.176ZM143.194 31.616H144.976V34.622H154.012V36.062H143.194V31.616ZM143.518 24.344C143.518 24.908 143.728 25.358 144.148 25.694C144.568 26.018 145.12 26.18 145.804 26.18C146.488 26.18 147.04 26.018 147.46 25.694C147.88 25.358 148.09 24.908 148.09 24.344C148.09 23.792 147.88 23.348 147.46 23.012C147.04 22.676 146.488 22.508 145.804 22.508C145.12 22.508 144.568 22.676 144.148 23.012C143.728 23.348 143.518 23.792 143.518 24.344ZM151.69 20.492H153.454V25.712H155.686V27.17H153.454V32.642H151.69V20.492ZM160.436 33.056V30.266H158.294V25.172H167.51V22.994H158.258V21.59H169.256V26.558H160.04V28.826H169.616V30.266H167.24V33.056H170.984V34.496H156.548V33.056H160.436ZM165.512 33.056V30.266H162.182V33.056H165.512Z" fill="white"/>
</svg>
