<svg width="312" height="200" viewBox="0 0 312 200" fill="none" xmlns="http://www.w3.org/2000/svg">
<rect width="312" height="200" rx="8" fill="#D9F4E5"/>
<mask id="mask0_3277_3826" style="mask-type:alpha" maskUnits="userSpaceOnUse" x="0" y="0" width="312" height="200">
<rect width="312" height="200" rx="8" fill="#D9F4E5"/>
</mask>
<g mask="url(#mask0_3277_3826)">
<g style="mix-blend-mode:multiply" opacity="0.2">
<path d="M357.3 147.169C357.3 215.536 305.26 270.471 241.647 270.471C178.033 270.471 125.993 215.536 125.993 147.169C125.993 78.8032 178.033 23.8674 241.647 23.8674C305.26 23.8674 357.3 78.8032 357.3 147.169Z" fill="#40C97F" stroke="#40C97F" stroke-width="9.09706"/>
<path fill-rule="evenodd" clip-rule="evenodd" d="M113.074 85.2268C113.992 83.8627 114.494 82.2737 114.544 80.6301C115.099 62.3192 121.753 29.3991 145.929 -2.37034C181.544 -49.1728 204.917 -58.3049 212.708 -56.0219C220.499 -53.7388 233.855 -49.1727 219.386 7.9034C217.576 14.8666 213.963 21.7316 210.653 26.9987C209.65 28.5949 210.824 30.7327 212.709 30.7327C215.996 30.7327 219.253 30.8704 222.475 31.1407C225.35 31.3818 228.165 30.1866 229.954 27.924C246.283 7.2734 275.664 -19.1905 319.555 -32.3491C391.899 -54.038 357.397 32.7177 342.928 57.8312C334.485 72.4854 327.7 82.9692 321.623 91.852C319.915 94.3492 319.75 97.5814 321.094 100.292C330.061 118.385 335.137 138.995 335.137 160.866C335.137 232.737 280.324 291 212.709 291C145.094 291 90.2808 232.737 90.2808 160.866C90.2808 132.657 98.7254 106.543 113.074 85.2268Z" fill="url(#paint0_linear_3277_3826)"/>
<path d="M145.929 -2.37034L142.309 -5.12481L145.929 -2.37034ZM212.708 -56.0219L211.429 -51.6569L212.708 -56.0219ZM219.386 7.9034L223.788 9.04796C223.79 9.03901 223.793 9.03006 223.795 9.0211L219.386 7.9034ZM319.555 -32.3491L318.249 -36.706L319.555 -32.3491ZM342.928 57.8312L338.987 55.5605L342.928 57.8312ZM321.623 91.852L325.377 94.4203L321.623 91.852ZM321.094 100.292L317.018 102.312L321.094 100.292ZM210.653 26.9987L206.802 24.5787L210.653 26.9987ZM222.475 31.1407L222.095 35.6733L222.475 31.1407ZM229.954 27.924L226.386 25.1028L229.954 27.924ZM114.544 80.6301L109.998 80.4923L114.544 80.6301ZM113.074 85.2268L116.847 87.7667L113.074 85.2268ZM142.309 -5.12481C117.473 27.5129 110.576 61.3877 109.998 80.4923L119.091 80.7678C119.621 63.2506 126.033 31.2854 149.548 0.384136L142.309 -5.12481ZM213.987 -60.3869C210.788 -61.3243 206.84 -60.9099 202.572 -59.5036C198.203 -58.064 193.043 -55.4375 187.153 -51.3357C175.373 -43.1316 160.297 -28.7625 142.309 -5.12481L149.548 0.384136C167.176 -22.7806 181.595 -36.3788 192.352 -43.8706C197.731 -47.6168 202.101 -49.7704 205.419 -50.8635C208.838 -51.9901 210.732 -51.8611 211.429 -51.6569L213.987 -60.3869ZM223.795 9.0211C231.055 -19.6192 231.632 -36.0663 228.76 -45.8836C227.27 -50.9789 224.82 -54.4019 221.856 -56.6947C218.995 -58.9072 215.956 -59.8098 213.987 -60.3869L211.429 -51.6569C213.355 -51.0924 214.908 -50.5682 216.29 -49.4988C217.569 -48.5097 219.015 -46.7959 220.029 -43.3297C222.166 -36.0241 222.185 -21.6501 214.977 6.7857L223.795 9.0211ZM214.504 29.4188C217.93 23.9673 221.811 16.6519 223.788 9.04796L214.984 6.75884C213.34 13.0814 209.996 19.4958 206.802 24.5787L214.504 29.4188ZM212.709 35.2812C215.869 35.2812 218.999 35.4136 222.095 35.6733L222.856 26.6081C219.507 26.3272 216.123 26.1841 212.709 26.1841V35.2812ZM233.521 30.7452C249.411 10.6509 278.057 -15.1592 320.861 -27.9922L318.249 -36.706C273.272 -23.2218 243.155 3.8959 226.386 25.1028L233.521 30.7452ZM320.861 -27.9922C338.528 -33.2888 347.982 -31.4165 352.887 -27.4154C357.835 -23.3789 359.927 -15.7483 359.257 -5.09542C357.929 16.0088 346.073 43.2616 338.987 55.5605L346.869 60.1018C354.252 47.2872 366.881 18.6055 368.336 -4.52431C369.057 -15.9884 367.114 -27.5497 358.637 -34.4646C350.117 -41.415 336.754 -42.2539 318.249 -36.706L320.861 -27.9922ZM338.987 55.5605C330.607 70.1045 323.886 80.4891 317.869 89.2838L325.377 94.4203C331.515 85.4493 338.363 74.8662 346.869 60.1018L338.987 55.5605ZM317.018 102.312C325.678 119.783 330.589 139.704 330.589 160.866H339.686C339.686 138.287 334.445 116.986 325.169 98.2722L317.018 102.312ZM330.589 160.866C330.589 230.49 277.555 286.451 212.709 286.451V295.548C283.094 295.548 339.686 234.984 339.686 160.866H330.589ZM212.709 286.451C147.863 286.451 94.8294 230.49 94.8294 160.866H85.7323C85.7323 234.984 142.324 295.548 212.709 295.548V286.451ZM94.8294 160.866C94.8294 133.572 102.998 108.341 116.847 87.7667L109.301 82.6869C94.4525 104.745 85.7323 131.741 85.7323 160.866H94.8294ZM317.869 89.2838C315.19 93.1997 314.976 98.1931 317.018 102.312L325.169 98.2722C324.523 96.9698 324.64 95.4987 325.377 94.4203L317.869 89.2838ZM206.802 24.5787C203.908 29.183 207.222 35.2812 212.709 35.2812V26.1841C213.605 26.1841 214.278 26.7168 214.583 27.2719C214.888 27.8254 214.975 28.6695 214.504 29.4188L206.802 24.5787ZM222.095 35.6733C226.461 36.0395 230.769 34.226 233.521 30.7452L226.386 25.1028C225.56 26.1471 224.238 26.7241 222.856 26.6081L222.095 35.6733ZM109.998 80.4923C109.973 81.2958 109.73 82.0488 109.301 82.6869L116.847 87.7667C118.254 85.6765 119.015 83.2517 119.091 80.7678L109.998 80.4923Z" fill="#40C97F"/>
<path d="M225.768 35.2754L230.304 35.5489L230.899 26.463L226.362 26.1896L225.768 35.2754ZM167.095 37.8738C164.8 38.9036 163.763 41.5972 164.779 43.8901C165.796 46.183 168.481 47.2069 170.776 46.1771L167.095 37.8738ZM226.362 26.1896C206.686 25.0035 190.373 27.4315 167.095 37.8738L170.776 46.1771C192.752 36.3189 207.601 34.1804 225.768 35.2754L226.362 26.1896Z" fill="#40C97F"/>
<path d="M258.448 45.9002C271.777 34.33 295.487 19.384 301.89 17.7085C302.539 17.5389 303.186 17.4604 303.844 17.334C308.41 16.4569 315.362 17.0505 312.877 25.5445C310.676 33.069 300.768 52.9932 293.612 66.7991C291.433 71.0043 286.087 72.3476 282.061 69.8537C275.871 66.0198 268.11 61.5224 261.166 58.2191C256.156 55.8353 254.258 49.5375 258.448 45.9002Z" fill="#40C97F"/>
<mask id="path-8-inside-1_3277_3826" fill="white">
<path fill-rule="evenodd" clip-rule="evenodd" d="M167.076 162.831C171.139 162.831 175.344 160.809 176.084 156.815C176.744 153.255 177.093 149.535 177.093 145.708C177.093 119.86 161.148 98.906 141.478 98.906C121.808 98.906 105.862 119.86 105.862 145.708C105.862 166.977 116.658 184.931 131.44 190.627C135.606 192.231 139.468 188.728 140.741 184.45C144.483 171.874 154.86 162.831 167.076 162.831Z"/>
</mask>
<path fill-rule="evenodd" clip-rule="evenodd" d="M167.076 162.831C171.139 162.831 175.344 160.809 176.084 156.815C176.744 153.255 177.093 149.535 177.093 145.708C177.093 119.86 161.148 98.906 141.478 98.906C121.808 98.906 105.862 119.86 105.862 145.708C105.862 166.977 116.658 184.931 131.44 190.627C135.606 192.231 139.468 188.728 140.741 184.45C144.483 171.874 154.86 162.831 167.076 162.831Z" fill="white"/>
<path d="M131.44 190.627L128.988 196.993L131.44 190.627ZM140.741 184.45L134.201 182.504L140.741 184.45ZM176.084 156.815L169.376 155.572L176.084 156.815ZM170.27 145.708C170.27 149.12 169.959 152.424 169.376 155.572L182.793 158.057C183.529 154.085 183.916 149.95 183.916 145.708H170.27ZM141.478 105.729C148.726 105.729 155.774 109.573 161.232 116.746C166.694 123.924 170.27 134.141 170.27 145.708H183.916C183.916 131.427 179.519 118.243 172.091 108.482C164.659 98.7161 153.899 92.0832 141.478 92.0832V105.729ZM112.685 145.708C112.685 134.141 116.261 123.924 121.723 116.746C127.182 109.573 134.229 105.729 141.478 105.729V92.0832C129.056 92.0832 118.296 98.7161 110.864 108.482C103.436 118.243 99.0393 131.427 99.0393 145.708H112.685ZM133.893 184.26C122.491 179.867 112.685 165.052 112.685 145.708H99.0393C99.0393 168.901 110.824 189.996 128.988 196.993L133.893 184.26ZM147.28 186.396C150.346 176.092 158.48 169.654 167.076 169.654V156.008C151.24 156.008 138.62 167.655 134.201 182.504L147.28 186.396ZM128.988 196.993C133.618 198.777 138.047 197.573 141.217 195.241C144.229 193.025 146.284 189.742 147.28 186.396L134.201 182.504C134.076 182.925 133.887 183.321 133.668 183.648C133.445 183.98 133.243 184.167 133.133 184.248C133.028 184.325 133.077 184.258 133.294 184.22C133.547 184.175 133.78 184.216 133.893 184.26L128.988 196.993ZM169.376 155.572C169.389 155.502 169.43 155.411 169.472 155.354C169.501 155.316 169.466 155.379 169.281 155.492C168.86 155.748 168.062 156.008 167.076 156.008V169.654C172.536 169.654 181.166 166.843 182.793 158.057L169.376 155.572Z" fill="#40C97F" mask="url(#path-8-inside-1_3277_3826)"/>
<path d="M307.312 14.7522C301.747 14.7522 262.793 39.8657 255.002 51.2809" stroke="#40C97F" stroke-width="9.09706" stroke-linecap="round"/>
<ellipse cx="134.799" cy="135.435" rx="24.4857" ry="31.9626" fill="#40C97F"/>
<path d="M284.98 145.708C284.98 157.954 281.199 168.913 275.245 176.737C269.294 184.558 261.318 189.099 252.776 189.099C244.235 189.099 236.259 184.558 230.307 176.737C224.353 168.913 220.572 157.954 220.572 145.708C220.572 133.463 224.353 122.504 230.307 114.68C236.259 106.859 244.235 102.317 252.776 102.317C261.318 102.317 269.294 106.859 275.245 114.68C281.199 122.504 284.98 133.463 284.98 145.708Z" fill="white" stroke="#40C97F" stroke-width="6.82279"/>
<ellipse cx="246.099" cy="135.434" rx="24.4857" ry="31.9626" fill="#40C97F"/>
<ellipse cx="242.76" cy="125.16" rx="10.0169" ry="12.5567" fill="white"/>
<ellipse cx="131.461" cy="125.16" rx="10.0169" ry="12.5567" fill="white"/>
<path d="M175.98 231.322C155.695 231.322 139.252 215.478 139.252 195.935C139.252 176.391 155.695 160.547 175.98 160.547" stroke="#40C97F" stroke-width="6.82279"/>
<path d="M188.223 166.255C188.223 171.929 180.749 176.529 171.528 176.529C162.308 176.529 154.834 171.929 154.834 166.255C154.834 160.581 162.308 155.981 171.528 155.981C180.749 155.981 188.223 160.581 188.223 166.255Z" fill="#40C97F"/>
</g>
</g>
<g clip-path="url(#clip0_3277_3826)">
<path fill-rule="evenodd" clip-rule="evenodd" d="M281.763 33.599C281.686 34.0517 282.079 34.4449 282.532 34.3679L285.372 33.8852C285.508 33.8621 285.634 33.7971 285.732 33.6994L294.993 24.4384C295.253 24.1781 295.253 23.756 294.993 23.4956L292.636 21.1386C292.375 20.8782 291.953 20.8782 291.693 21.1386L282.432 30.3996C282.334 30.4973 282.269 30.623 282.246 30.7592L281.763 33.599Z" fill="#26784C"/>
<path fill-rule="evenodd" clip-rule="evenodd" d="M280.185 33.3299L280.668 30.4902C280.747 30.0269 280.968 29.5996 281.3 29.2673L288.063 22.5038C288.524 22.0427 288.597 21.2797 288.04 20.9411C287.608 20.6786 287.106 20.5338 286.585 20.5338H276.667C275.121 20.5338 273.867 21.7874 273.867 23.3338V40.6671C273.867 42.2135 275.121 43.4671 276.667 43.4671H291.334C292.88 43.4671 294.134 42.2135 294.134 40.6671V30.5963C294.134 30.052 293.975 29.5195 293.677 29.064C293.464 28.7369 293.003 28.6893 292.727 28.9656L286.862 34.8298C286.53 35.1621 286.103 35.3829 285.639 35.4617L282.8 35.9444C281.26 36.2061 279.924 34.8693 280.185 33.3299Z" fill="#26784C"/>
</g>
<defs>
<linearGradient id="paint0_linear_3277_3826" x1="229.708" y1="-56.3418" x2="229.708" y2="290.999" gradientUnits="userSpaceOnUse">
<stop stop-color="#F3FFC4"/>
<stop offset="1" stop-color="#E6FF86"/>
</linearGradient>
<clipPath id="clip0_3277_3826">
<rect width="32" height="32" fill="white" transform="translate(268 16)"/>
</clipPath>
</defs>
</svg>
