<svg width="322" height="217" viewBox="0 0 322 217" fill="none" xmlns="http://www.w3.org/2000/svg">
<rect y="6" width="312" height="200" rx="8" fill="#D9F4E5"/>
<mask id="mask0_3065_3357" style="mask-type:alpha" maskUnits="userSpaceOnUse" x="0" y="6" width="312" height="200">
<rect y="6" width="312" height="200" rx="8" fill="#D9F4E5"/>
</mask>
<g mask="url(#mask0_3065_3357)">
<g style="mix-blend-mode:multiply" opacity="0.2">
<path d="M357.3 153.169C357.3 221.536 305.26 276.471 241.646 276.471C178.033 276.471 125.993 221.536 125.993 153.169C125.993 84.8032 178.033 29.8674 241.646 29.8674C305.26 29.8674 357.3 84.8032 357.3 153.169Z" fill="#40C97F" stroke="#40C97F" stroke-width="9.09706"/>
<path fill-rule="evenodd" clip-rule="evenodd" d="M113.074 91.2268C113.992 89.8627 114.494 88.2737 114.544 86.6301C115.099 68.3192 121.753 35.3991 145.929 3.62966C181.544 -43.1728 204.917 -52.3049 212.708 -50.0219C220.499 -47.7388 233.855 -43.1727 219.386 13.9034C217.575 20.8666 213.963 27.7315 210.653 32.9987C209.65 34.5949 210.824 36.7327 212.709 36.7327V36.7327C215.996 36.7327 219.253 36.8704 222.475 37.1407C225.35 37.3818 228.165 36.1866 229.954 33.9241C246.283 13.2735 275.664 -13.1903 319.555 -26.3489C391.899 -48.0378 357.397 38.7179 342.928 63.8314C334.485 78.4856 327.7 88.9693 321.623 97.8522C319.915 100.349 319.75 103.582 321.094 106.292C330.061 124.385 335.137 144.995 335.137 166.866C335.137 238.737 280.324 297 212.709 297C145.094 297 90.2808 238.737 90.2808 166.866C90.2808 138.657 98.7253 112.543 113.074 91.2268Z" fill="url(#paint0_linear_3065_3357)"/>
<path d="M145.929 3.62966L142.309 0.875185L142.309 0.875186L145.929 3.62966ZM212.708 -50.0219L211.429 -45.6569L212.708 -50.0219ZM219.386 13.9034L223.788 15.048C223.79 15.039 223.793 15.0301 223.795 15.0211L219.386 13.9034ZM319.555 -26.3489L318.249 -30.7058L318.249 -30.7058L319.555 -26.3489ZM342.928 63.8314L338.987 61.5607L338.987 61.5607L342.928 63.8314ZM321.623 97.8522L325.377 100.42L321.623 97.8522ZM321.094 106.292L317.018 108.312L321.094 106.292ZM210.653 32.9987L206.802 30.5787L210.653 32.9987ZM222.475 37.1407L222.856 32.6081L222.475 37.1407ZM229.954 33.9241L233.522 36.7453L229.954 33.9241ZM114.544 86.6301L109.998 86.4923L114.544 86.6301ZM113.074 91.2268L116.847 93.7667L113.074 91.2268ZM142.309 0.875186C117.473 33.5129 110.576 67.3877 109.998 86.4923L119.09 86.7678C119.621 69.2506 126.033 37.2854 149.548 6.38414L142.309 0.875186ZM213.987 -54.3869C210.788 -55.3243 206.84 -54.9099 202.572 -53.5036C198.203 -52.064 193.043 -49.4375 187.153 -45.3357C175.373 -37.1316 160.297 -22.7625 142.309 0.875185L149.548 6.38414C167.176 -16.7806 181.595 -30.3788 192.352 -37.8706C197.731 -41.6168 202.101 -43.7704 205.419 -44.8635C208.838 -45.9901 210.732 -45.8611 211.429 -45.6569L213.987 -54.3869ZM223.795 15.0211C231.055 -13.6192 231.631 -30.0663 228.76 -39.8836C227.27 -44.9789 224.82 -48.4019 221.856 -50.6947C218.995 -52.9072 215.956 -53.8098 213.987 -54.3869L211.429 -45.6569C213.355 -45.0924 214.907 -44.5682 216.29 -43.4988C217.569 -42.5097 219.015 -40.7959 220.029 -37.3297C222.166 -30.0241 222.185 -15.6501 214.977 12.7857L223.795 15.0211ZM214.504 35.4188C217.93 29.9673 221.811 22.6519 223.788 15.048L214.984 12.7588C213.34 19.0814 209.996 25.4958 206.802 30.5787L214.504 35.4188ZM212.709 41.2812C215.869 41.2812 218.999 41.4136 222.095 41.6733L222.856 32.6081C219.507 32.3272 216.123 32.1841 212.709 32.1841V41.2812ZM233.522 36.7453C249.411 16.651 278.057 -9.15898 320.861 -21.9919L318.249 -30.7058C273.272 -17.2216 243.155 9.89596 226.386 31.1028L233.522 36.7453ZM320.861 -21.9919C338.528 -27.2885 347.982 -25.4162 352.887 -21.4152C357.835 -17.3787 359.927 -9.74809 359.257 0.904826C357.929 22.009 346.072 49.2619 338.987 61.5607L346.869 66.1021C354.252 53.2875 366.881 24.6057 368.336 1.47593C369.057 -9.98815 367.114 -21.5494 358.637 -28.4644C350.117 -35.4148 336.754 -36.2536 318.249 -30.7058L320.861 -21.9919ZM338.987 61.5607C330.607 76.1047 323.886 86.4893 317.869 95.2839L325.377 100.42C331.515 91.4494 338.363 80.8664 346.869 66.1021L338.987 61.5607ZM317.018 108.312C325.678 125.783 330.589 145.704 330.589 166.866H339.686C339.686 144.287 334.445 122.986 325.169 104.272L317.018 108.312ZM330.589 166.866C330.589 236.49 277.555 292.451 212.709 292.451V301.548C283.094 301.548 339.686 240.984 339.686 166.866H330.589ZM212.709 292.451C147.863 292.451 94.8293 236.49 94.8293 166.866H85.7322C85.7322 240.984 142.324 301.548 212.709 301.548V292.451ZM94.8293 166.866C94.8293 139.572 102.998 114.341 116.847 93.7667L109.301 88.6869C94.4525 110.745 85.7322 137.741 85.7322 166.866H94.8293ZM317.869 95.2839C315.19 99.1998 314.976 104.193 317.018 108.312L325.169 104.272C324.523 102.97 324.64 101.499 325.377 100.42L317.869 95.2839ZM206.802 30.5787C203.908 35.183 207.222 41.2812 212.709 41.2812V32.1841C213.604 32.1841 214.278 32.7168 214.583 33.2719C214.888 33.8254 214.975 34.6695 214.504 35.4188L206.802 30.5787ZM222.095 41.6733C226.461 42.0396 230.769 40.2261 233.522 36.7453L226.386 31.1028C225.56 32.1471 224.238 32.7241 222.856 32.6081L222.095 41.6733ZM109.998 86.4923C109.973 87.2958 109.73 88.0488 109.301 88.6869L116.847 93.7667C118.254 91.6765 119.015 89.2517 119.09 86.7678L109.998 86.4923Z" fill="#40C97F"/>
<path d="M225.768 41.2754L230.304 41.5489L230.899 32.463L226.362 32.1896L225.768 41.2754ZM167.095 43.8738C164.8 44.9036 163.763 47.5972 164.779 49.8901C165.796 52.183 168.481 53.2069 170.776 52.1771L167.095 43.8738ZM226.362 32.1896C206.686 31.0035 190.373 33.4315 167.095 43.8738L170.776 52.1771C192.752 42.3189 207.601 40.1804 225.768 41.2754L226.362 32.1896Z" fill="#40C97F"/>
<path d="M258.448 51.9002C271.777 40.33 295.487 25.384 301.89 23.7085C302.539 23.5389 303.186 23.4604 303.844 23.334C308.41 22.4569 315.362 23.0505 312.877 31.5445C310.676 39.069 300.768 58.9932 293.612 72.7991C291.433 77.0043 286.087 78.3476 282.061 75.8537C275.87 72.0198 268.109 67.5224 261.166 64.2191C256.156 61.8353 254.258 55.5375 258.448 51.9002Z" fill="#40C97F"/>
<mask id="path-8-inside-1_3065_3357" fill="white">
<path fill-rule="evenodd" clip-rule="evenodd" d="M167.076 168.831C171.139 168.831 175.344 166.809 176.084 162.815C176.744 159.255 177.093 155.535 177.093 151.708C177.093 125.86 161.147 104.906 141.478 104.906C121.808 104.906 105.862 125.86 105.862 151.708C105.862 172.977 116.657 190.931 131.44 196.627C135.606 198.231 139.468 194.728 140.741 190.45C144.483 177.874 154.86 168.831 167.076 168.831V168.831Z"/>
</mask>
<path fill-rule="evenodd" clip-rule="evenodd" d="M167.076 168.831C171.139 168.831 175.344 166.809 176.084 162.815C176.744 159.255 177.093 155.535 177.093 151.708C177.093 125.86 161.147 104.906 141.478 104.906C121.808 104.906 105.862 125.86 105.862 151.708C105.862 172.977 116.657 190.931 131.44 196.627C135.606 198.231 139.468 194.728 140.741 190.45C144.483 177.874 154.86 168.831 167.076 168.831V168.831Z" fill="white"/>
<path d="M131.44 196.627L128.988 202.993L131.44 196.627ZM140.741 190.45L134.201 188.504L140.741 190.45ZM176.084 162.815L169.376 161.572L176.084 162.815ZM170.27 151.708C170.27 155.12 169.959 158.424 169.376 161.572L182.793 164.057C183.529 160.085 183.916 155.95 183.916 151.708H170.27ZM141.478 111.729C148.726 111.729 155.774 115.573 161.232 122.746C166.694 129.924 170.27 140.141 170.27 151.708H183.916C183.916 137.427 179.519 124.243 172.091 114.482C164.659 104.716 153.899 98.0832 141.478 98.0832V111.729ZM112.685 151.708C112.685 140.141 116.261 129.924 121.723 122.746C127.181 115.573 134.229 111.729 141.478 111.729V98.0832C129.056 98.0832 118.296 104.716 110.864 114.482C103.436 124.243 99.0393 137.427 99.0393 151.708H112.685ZM133.893 190.26C122.491 185.867 112.685 171.052 112.685 151.708H99.0393C99.0393 174.901 110.824 195.996 128.988 202.993L133.893 190.26ZM147.28 192.396C150.346 182.092 158.48 175.654 167.076 175.654V162.008C151.24 162.008 138.62 173.655 134.201 188.504L147.28 192.396ZM128.988 202.993C133.618 204.777 138.047 203.573 141.217 201.241C144.229 199.025 146.284 195.742 147.28 192.396L134.201 188.504C134.076 188.925 133.887 189.321 133.668 189.648C133.445 189.98 133.243 190.167 133.133 190.248C133.028 190.325 133.077 190.258 133.294 190.22C133.547 190.175 133.78 190.216 133.893 190.26L128.988 202.993ZM169.376 161.572C169.389 161.502 169.429 161.411 169.472 161.354C169.501 161.316 169.466 161.379 169.281 161.492C168.86 161.748 168.062 162.008 167.076 162.008V175.654C172.536 175.654 181.166 172.843 182.793 164.057L169.376 161.572Z" fill="#40C97F" mask="url(#path-8-inside-1_3065_3357)"/>
<path d="M307.312 20.7522C301.747 20.7522 262.793 45.8657 255.002 57.2809" stroke="#40C97F" stroke-width="9.09706" stroke-linecap="round"/>
<ellipse cx="134.799" cy="141.435" rx="24.4857" ry="31.9626" fill="#40C97F"/>
<path d="M284.98 151.708C284.98 163.954 281.199 174.913 275.245 182.737C269.294 190.558 261.318 195.099 252.776 195.099C244.234 195.099 236.259 190.558 230.307 182.737C224.353 174.913 220.572 163.954 220.572 151.708C220.572 139.463 224.353 128.504 230.307 120.68C236.259 112.859 244.234 108.317 252.776 108.317C261.318 108.317 269.294 112.859 275.245 120.68C281.199 128.504 284.98 139.463 284.98 151.708Z" fill="white" stroke="#40C97F" stroke-width="6.82279"/>
<ellipse cx="246.098" cy="141.434" rx="24.4857" ry="31.9626" fill="#40C97F"/>
<ellipse cx="242.76" cy="131.16" rx="10.0169" ry="12.5567" fill="white"/>
<ellipse cx="131.461" cy="131.16" rx="10.0169" ry="12.5567" fill="white"/>
<path d="M175.98 237.322C155.695 237.322 139.251 221.478 139.251 201.935C139.251 182.391 155.695 166.547 175.98 166.547" stroke="#40C97F" stroke-width="6.82279"/>
<path d="M188.223 172.255C188.223 177.929 180.749 182.529 171.528 182.529C162.308 182.529 154.833 177.929 154.833 172.255C154.833 166.581 162.308 161.981 171.528 161.981C180.749 161.981 188.223 166.581 188.223 172.255Z" fill="#40C97F"/>
</g>
</g>
<g clip-path="url(#clip0_3065_3357)">
<path fill-rule="evenodd" clip-rule="evenodd" d="M281.763 39.599C281.686 40.0517 282.079 40.4449 282.532 40.3679L285.372 39.8852C285.508 39.8621 285.634 39.7971 285.732 39.6994L294.992 30.4384C295.253 30.1781 295.253 29.756 294.992 29.4956L292.635 27.1386C292.375 26.8782 291.953 26.8782 291.693 27.1386L282.432 36.3996C282.334 36.4973 282.269 36.623 282.246 36.7592L281.763 39.599Z" fill="#26784C"/>
<path fill-rule="evenodd" clip-rule="evenodd" d="M280.185 39.3299L280.668 36.4902C280.747 36.0269 280.968 35.5996 281.3 35.2673L288.063 28.5038C288.524 28.0427 288.597 27.2797 288.04 26.9411C287.608 26.6786 287.106 26.5338 286.585 26.5338H276.667C275.121 26.5338 273.867 27.7874 273.867 29.3338V46.6671C273.867 48.2135 275.121 49.4671 276.667 49.4671H291.334C292.88 49.4671 294.134 48.2135 294.134 46.6671V36.5963C294.134 36.052 293.975 35.5195 293.677 35.064C293.464 34.7369 293.003 34.6893 292.727 34.9656L286.862 40.8298C286.53 41.1621 286.103 41.3829 285.639 41.4617L282.8 41.9444C281.26 42.2061 279.924 40.8693 280.185 39.3299Z" fill="#26784C"/>
</g>
<defs>
<linearGradient id="paint0_linear_3065_3357" x1="229.708" y1="-50.3418" x2="229.708" y2="296.999" gradientUnits="userSpaceOnUse">
<stop stop-color="#F3FFC4"/>
<stop offset="1" stop-color="#E6FF86"/>
</linearGradient>
<clipPath id="clip0_3065_3357">
<rect width="32" height="32" fill="white" transform="translate(268 22)"/>
</clipPath>
</defs>
</svg>
