<svg width="322" height="217" viewBox="0 0 322 217" fill="none" xmlns="http://www.w3.org/2000/svg">
<rect y="6" width="312" height="200" rx="8" fill="#D9F4E5"/>
<mask id="mask0_2186_12680" style="mask-type:alpha" maskUnits="userSpaceOnUse" x="0" y="6" width="312" height="200">
<rect y="6" width="312" height="200" rx="8" fill="#D9F4E5"/>
</mask>
<g mask="url(#mask0_2186_12680)">
<g style="mix-blend-mode:multiply" opacity="0.2">
<path d="M357.3 153.169C357.3 221.536 305.26 276.471 241.647 276.471C178.033 276.471 125.993 221.536 125.993 153.169C125.993 84.8032 178.033 29.8674 241.647 29.8674C305.26 29.8674 357.3 84.8032 357.3 153.169Z" fill="#40C97F" stroke="#40C97F" stroke-width="9.09706"/>
<path fill-rule="evenodd" clip-rule="evenodd" d="M113.074 91.2268C113.992 89.8627 114.494 88.2737 114.544 86.6301C115.099 68.3192 121.753 35.3991 145.929 3.62966C181.544 -43.1728 204.917 -52.3049 212.708 -50.0219C220.499 -47.7388 233.855 -43.1727 219.386 13.9034C217.575 20.8666 213.963 27.7316 210.653 32.9987C209.65 34.5949 210.824 36.7327 212.709 36.7327C215.996 36.7327 219.253 36.8704 222.475 37.1407C225.35 37.3818 228.165 36.1866 229.954 33.924C246.283 13.2735 275.664 -13.1903 319.555 -26.3489C391.899 -48.0378 357.397 38.7179 342.928 63.8314C334.485 78.4855 327.7 88.9693 321.623 97.8522C319.915 100.349 319.75 103.582 321.094 106.292C330.061 124.385 335.137 144.995 335.137 166.866C335.137 238.737 280.324 297 212.709 297C145.094 297 90.2808 238.737 90.2808 166.866C90.2808 138.657 98.7253 112.543 113.074 91.2268Z" fill="url(#paint0_linear_2186_12680)"/>
<path d="M145.929 3.62966L142.309 0.875187L145.929 3.62966ZM212.708 -50.0219L211.429 -45.6569L212.708 -50.0219ZM219.386 13.9034L223.788 15.048C223.79 15.039 223.793 15.0301 223.795 15.0211L219.386 13.9034ZM319.555 -26.3489L318.249 -30.7058L319.555 -26.3489ZM342.928 63.8314L338.987 61.5607L342.928 63.8314ZM321.623 97.8522L325.377 100.42L321.623 97.8522ZM321.094 106.292L317.018 108.312L321.094 106.292ZM210.653 32.9987L206.802 30.5787L210.653 32.9987ZM222.475 37.1407L222.856 32.6081L222.475 37.1407ZM229.954 33.924L233.522 36.7453L229.954 33.924ZM114.544 86.6301L109.998 86.4923L114.544 86.6301ZM113.074 91.2268L116.847 93.7667L113.074 91.2268ZM142.309 0.875187C117.473 33.5129 110.576 67.3877 109.998 86.4923L119.091 86.7678C119.621 69.2506 126.033 37.2854 149.548 6.38414L142.309 0.875187ZM213.987 -54.3869C210.788 -55.3243 206.84 -54.9099 202.572 -53.5036C198.203 -52.064 193.043 -49.4375 187.153 -45.3357C175.373 -37.1316 160.297 -22.7625 142.309 0.875187L149.548 6.38414C167.176 -16.7806 181.595 -30.3788 192.352 -37.8706C197.731 -41.6168 202.101 -43.7704 205.419 -44.8635C208.838 -45.9901 210.732 -45.8611 211.429 -45.6569L213.987 -54.3869ZM223.795 15.0211C231.055 -13.6192 231.632 -30.0663 228.76 -39.8836C227.27 -44.9789 224.82 -48.4019 221.856 -50.6947C218.995 -52.9072 215.956 -53.8098 213.987 -54.3869L211.429 -45.6569C213.355 -45.0924 214.908 -44.5682 216.29 -43.4988C217.569 -42.5097 219.015 -40.7959 220.029 -37.3297C222.166 -30.0241 222.185 -15.6501 214.977 12.7857L223.795 15.0211ZM214.504 35.4188C217.93 29.9673 221.811 22.6519 223.788 15.048L214.984 12.7588C213.34 19.0814 209.996 25.4958 206.802 30.5787L214.504 35.4188ZM212.709 41.2812C215.869 41.2812 218.999 41.4136 222.095 41.6733L222.856 32.6081C219.507 32.3272 216.124 32.1841 212.709 32.1841V41.2812ZM233.522 36.7453C249.411 16.651 278.057 -9.15898 320.861 -21.9919L318.249 -30.7058C273.272 -17.2216 243.155 9.89596 226.386 31.1028L233.522 36.7453ZM320.861 -21.9919C338.528 -27.2885 347.982 -25.4162 352.887 -21.4152C357.835 -17.3787 359.927 -9.74809 359.257 0.904827C357.929 22.009 346.073 49.2619 338.987 61.5607L346.869 66.1021C354.252 53.2875 366.881 24.6057 368.336 1.47593C369.057 -9.98815 367.114 -21.5494 358.637 -28.4644C350.117 -35.4148 336.754 -36.2536 318.249 -30.7058L320.861 -21.9919ZM338.987 61.5607C330.607 76.1047 323.886 86.4893 317.869 95.2839L325.377 100.42C331.515 91.4494 338.363 80.8664 346.869 66.1021L338.987 61.5607ZM317.018 108.312C325.678 125.783 330.589 145.704 330.589 166.866H339.686C339.686 144.287 334.445 122.986 325.169 104.272L317.018 108.312ZM330.589 166.866C330.589 236.49 277.555 292.451 212.709 292.451V301.548C283.094 301.548 339.686 240.984 339.686 166.866H330.589ZM212.709 292.451C147.863 292.451 94.8293 236.49 94.8293 166.866H85.7323C85.7323 240.984 142.324 301.548 212.709 301.548V292.451ZM94.8293 166.866C94.8293 139.572 102.998 114.341 116.847 93.7667L109.301 88.6869C94.4525 110.745 85.7323 137.741 85.7323 166.866H94.8293ZM317.869 95.2839C315.19 99.1998 314.976 104.193 317.018 108.312L325.169 104.272C324.523 102.97 324.64 101.499 325.377 100.42L317.869 95.2839ZM206.802 30.5787C203.908 35.183 207.222 41.2812 212.709 41.2812V32.1841C213.604 32.1841 214.278 32.7168 214.583 33.2719C214.888 33.8254 214.975 34.6695 214.504 35.4188L206.802 30.5787ZM222.095 41.6733C226.461 42.0396 230.769 40.2261 233.522 36.7453L226.386 31.1028C225.56 32.1471 224.238 32.7241 222.856 32.6081L222.095 41.6733ZM109.998 86.4923C109.973 87.2958 109.73 88.0488 109.301 88.6869L116.847 93.7667C118.254 91.6765 119.015 89.2517 119.091 86.7678L109.998 86.4923Z" fill="#40C97F"/>
<path d="M225.768 41.2754L230.304 41.5489L230.899 32.463L226.362 32.1896L225.768 41.2754ZM167.095 43.8738C164.8 44.9036 163.763 47.5972 164.779 49.8901C165.796 52.183 168.481 53.2069 170.776 52.1771L167.095 43.8738ZM226.362 32.1896C206.686 31.0035 190.373 33.4315 167.095 43.8738L170.776 52.1771C192.752 42.3189 207.601 40.1804 225.768 41.2754L226.362 32.1896Z" fill="#40C97F"/>
<path d="M258.448 51.9002C271.777 40.33 295.487 25.384 301.89 23.7085C302.539 23.5389 303.186 23.4604 303.844 23.334C308.41 22.4569 315.362 23.0505 312.877 31.5445C310.676 39.069 300.768 58.9932 293.612 72.7991C291.433 77.0043 286.087 78.3476 282.061 75.8537C275.87 72.0198 268.11 67.5224 261.166 64.2191C256.156 61.8353 254.258 55.5375 258.448 51.9002Z" fill="#40C97F"/>
<mask id="path-8-inside-1_2186_12680" fill="white">
<path fill-rule="evenodd" clip-rule="evenodd" d="M167.076 168.831C171.139 168.831 175.344 166.809 176.084 162.815C176.744 159.255 177.093 155.535 177.093 151.708C177.093 125.86 161.147 104.906 141.478 104.906C121.808 104.906 105.862 125.86 105.862 151.708C105.862 172.977 116.658 190.931 131.44 196.627C135.606 198.231 139.468 194.728 140.741 190.45C144.483 177.874 154.86 168.831 167.076 168.831Z"/>
</mask>
<path fill-rule="evenodd" clip-rule="evenodd" d="M167.076 168.831C171.139 168.831 175.344 166.809 176.084 162.815C176.744 159.255 177.093 155.535 177.093 151.708C177.093 125.86 161.147 104.906 141.478 104.906C121.808 104.906 105.862 125.86 105.862 151.708C105.862 172.977 116.658 190.931 131.44 196.627C135.606 198.231 139.468 194.728 140.741 190.45C144.483 177.874 154.86 168.831 167.076 168.831Z" fill="white"/>
<path d="M131.44 196.627L128.988 202.993L131.44 196.627ZM140.741 190.45L134.201 188.504L140.741 190.45ZM176.084 162.815L169.376 161.572L176.084 162.815ZM170.27 151.708C170.27 155.12 169.959 158.424 169.376 161.572L182.793 164.057C183.529 160.085 183.916 155.95 183.916 151.708H170.27ZM141.478 111.729C148.726 111.729 155.774 115.573 161.232 122.746C166.694 129.924 170.27 140.141 170.27 151.708H183.916C183.916 137.427 179.519 124.243 172.091 114.482C164.659 104.716 153.899 98.0832 141.478 98.0832V111.729ZM112.685 151.708C112.685 140.141 116.261 129.924 121.723 122.746C127.181 115.573 134.229 111.729 141.478 111.729V98.0832C129.056 98.0832 118.296 104.716 110.864 114.482C103.436 124.243 99.0393 137.427 99.0393 151.708H112.685ZM133.893 190.26C122.491 185.867 112.685 171.052 112.685 151.708H99.0393C99.0393 174.901 110.824 195.996 128.988 202.993L133.893 190.26ZM147.28 192.396C150.346 182.092 158.48 175.654 167.076 175.654V162.008C151.24 162.008 138.62 173.655 134.201 188.504L147.28 192.396ZM128.988 202.993C133.618 204.777 138.047 203.573 141.217 201.241C144.229 199.025 146.284 195.742 147.28 192.396L134.201 188.504C134.076 188.925 133.887 189.321 133.668 189.648C133.445 189.98 133.243 190.167 133.133 190.248C133.028 190.325 133.077 190.258 133.294 190.22C133.547 190.175 133.78 190.216 133.893 190.26L128.988 202.993ZM169.376 161.572C169.389 161.502 169.43 161.411 169.472 161.354C169.501 161.316 169.466 161.379 169.281 161.492C168.86 161.748 168.062 162.008 167.076 162.008V175.654C172.536 175.654 181.166 172.843 182.793 164.057L169.376 161.572Z" fill="#40C97F" mask="url(#path-8-inside-1_2186_12680)"/>
<path d="M307.312 20.7522C301.747 20.7522 262.793 45.8657 255.002 57.2809" stroke="#40C97F" stroke-width="9.09706" stroke-linecap="round"/>
<ellipse cx="134.799" cy="141.435" rx="24.4857" ry="31.9626" fill="#40C97F"/>
<path d="M284.98 151.708C284.98 163.954 281.199 174.913 275.245 182.737C269.294 190.558 261.318 195.099 252.776 195.099C244.235 195.099 236.259 190.558 230.307 182.737C224.353 174.913 220.572 163.954 220.572 151.708C220.572 139.463 224.353 128.504 230.307 120.68C236.259 112.859 244.235 108.317 252.776 108.317C261.318 108.317 269.294 112.859 275.245 120.68C281.199 128.504 284.98 139.463 284.98 151.708Z" fill="white" stroke="#40C97F" stroke-width="6.82279"/>
<ellipse cx="246.099" cy="141.434" rx="24.4857" ry="31.9626" fill="#40C97F"/>
<ellipse cx="242.76" cy="131.16" rx="10.0169" ry="12.5567" fill="white"/>
<ellipse cx="131.461" cy="131.16" rx="10.0169" ry="12.5567" fill="white"/>
<path d="M175.98 237.322C155.695 237.322 139.252 221.478 139.252 201.935C139.252 182.391 155.695 166.547 175.98 166.547" stroke="#40C97F" stroke-width="6.82279"/>
<path d="M188.223 172.255C188.223 177.929 180.749 182.529 171.528 182.529C162.308 182.529 154.834 177.929 154.834 172.255C154.834 166.581 162.308 161.981 171.528 161.981C180.749 161.981 188.223 166.581 188.223 172.255Z" fill="#40C97F"/>
</g>
</g>
<path d="M26 29.86C26 34.52 22.9 37.74 17.62 39.12L16.8 37.38C20.9 36.34 23.3 34.22 23.66 31.62H17.78V29.86H26ZM29.16 28.8H31.36V38.76H29.16V28.8ZM19.7 39.56H31.36V46.38H19.7V39.56ZM29.22 41.3H21.86V44.64H29.22V41.3ZM34.0905 29.94H36.1505V32.58H39.0305V29.94H41.0705V38.44H34.0905V29.94ZM36.1505 34.26V36.7H39.0305V34.26H36.1505ZM46.4105 28.82H48.4905V39.52H46.4105V35.06H44.6705V39.44H42.6305V29.14H44.6705V33.26H46.4105V28.82ZM36.3705 40.42H48.4905V46.62H46.3105V42.2H36.3705V40.42ZM57.0409 29.26H59.3009V29.96C59.3009 32.06 61.7409 34.22 65.3409 34.74L64.5209 36.46C61.6209 36 59.3209 34.58 58.2009 32.7C57.0609 34.62 54.7609 36.04 51.8409 36.5L51.0009 34.78C54.6409 34.26 57.0409 32.1 57.0409 29.96V29.26ZM50.1209 37.68H66.2409V39.44H59.4609V42.68H57.2609V39.44H50.1209V37.68ZM52.0609 41.08H54.2609V44.5H64.4609V46.28H52.0609V41.08Z" fill="#33A165"/>
<path d="M67.6314 32.292H75.5514V33.102C75.5514 34.362 75.5514 36.432 75.1014 39.384L73.7694 39.276C74.2014 36.612 74.2374 34.668 74.2374 33.408H67.6314V32.292ZM70.1334 36.81H71.4654V41.634C73.2114 41.562 74.9934 41.454 76.6134 41.256L76.6854 42.246C73.4094 42.768 69.7194 42.84 66.9294 42.84L66.7494 41.706L70.1334 41.67V36.81ZM77.6034 30.564H78.9354V37.188H81.5094V38.322H78.9354V46.314H77.6034V30.564ZM96.1463 30.564H97.4963V34.776H99.8543V35.892H97.4963V40.032H96.1463V30.564ZM87.6503 40.95H97.4963V46.098H87.6503V40.95ZM96.1643 42.048H88.9643V45H96.1643V42.048ZM85.3463 32.256H89.3243V30.42H90.6743V32.256H94.6523V33.354H85.3463V32.256ZM89.9903 34.164C92.2403 34.164 93.7523 35.28 93.7523 36.972C93.7523 38.682 92.2403 39.78 89.9903 39.78C87.7403 39.78 86.2463 38.682 86.2463 36.972C86.2463 35.28 87.7403 34.164 89.9903 34.164ZM89.9903 35.208C88.5143 35.208 87.5243 35.892 87.5243 36.972C87.5243 38.052 88.5143 38.736 89.9903 38.736C91.4663 38.736 92.4563 38.052 92.4563 36.972C92.4563 35.892 91.4663 35.208 89.9903 35.208ZM104.127 32.472C104.127 35.748 103.677 39.492 101.391 42.552L100.329 41.904C102.291 39.42 102.867 36.486 102.975 33.588H100.635V32.472H104.127ZM107.601 32.472C107.601 33.75 107.565 35.244 107.367 36.774H109.491V30.978H110.751V45.486H109.491V37.89H107.205C106.845 39.852 106.161 41.85 104.883 43.596L103.803 42.948C105.999 40.14 106.377 36.522 106.449 33.588H104.649V32.472H107.601ZM112.371 30.564H113.667V46.314H112.371V30.564ZM18.052 63.068H29.572V64.112H27.16V67.226H29.518V68.27H18.106V67.226H20.464V64.112H18.052V63.068ZM16.72 69.638H30.94V70.718H16.72V69.638ZM18.448 72.158H29.104V75.578H19.816V77.09H29.59V78.134H18.502V74.588H27.79V73.184H18.448V72.158ZM21.832 67.226H25.828V64.112H21.832V67.226ZM32.2064 64.31H37.8224V69.728H33.5384V73.292C35.3564 73.292 37.0844 73.22 39.1544 72.842L39.2624 73.958C37.0304 74.354 35.2484 74.408 33.2684 74.408H32.2424V68.648H36.5264V65.444H32.2064V64.31ZM43.7444 62.564H45.0404V78.314H43.7444V62.564ZM38.5784 68.252H40.5764V62.96H41.8364V77.468H40.5764V69.368H38.5784V68.252ZM58.1868 62.546H59.5368V78.332H58.1868V62.546ZM51.2568 63.788C53.5788 63.788 55.2348 65.912 55.2348 69.26C55.2348 72.608 53.5788 74.75 51.2568 74.75C48.9168 74.75 47.2608 72.608 47.2608 69.26C47.2608 65.912 48.9168 63.788 51.2568 63.788ZM51.2568 64.994C49.6728 64.994 48.5748 66.686 48.5748 69.26C48.5748 71.834 49.6728 73.544 51.2568 73.544C52.8228 73.544 53.9388 71.834 53.9388 69.26C53.9388 66.686 52.8228 64.994 51.2568 64.994ZM63.5213 63.932H74.1413V65.03H64.8893V67.442H73.7993V68.54H64.8893V71.078H74.3033V72.194H63.5213V63.932ZM61.6673 75.128H75.9413V76.244H61.6673V75.128ZM80.0481 69.962H94.2681V71.06H87.8241V72.806C90.7941 72.932 92.5401 73.886 92.5401 75.542C92.5401 77.288 90.5241 78.278 87.1581 78.278C83.7921 78.278 81.7761 77.288 81.7761 75.542C81.7761 73.886 83.5221 72.932 86.4741 72.806V71.06H80.0481V69.962ZM87.1581 73.832C84.6381 73.832 83.1261 74.444 83.1261 75.542C83.1261 76.622 84.6381 77.234 87.1581 77.234C89.6601 77.234 91.1721 76.622 91.1721 75.542C91.1721 74.444 89.6601 73.832 87.1581 73.832ZM81.3621 63.32H92.9901V64.4H88.0401C88.1121 66.218 90.7401 67.604 93.4761 67.892L92.9721 68.972C90.4341 68.648 88.0221 67.514 87.1761 65.75C86.3121 67.514 83.9001 68.648 81.3621 68.972L80.8581 67.892C83.5761 67.604 86.2221 66.218 86.2941 64.4H81.3621V63.32ZM106.533 62.546H107.883V78.332H106.533V62.546ZM99.6025 63.788C101.925 63.788 103.581 65.912 103.581 69.26C103.581 72.608 101.925 74.75 99.6025 74.75C97.2625 74.75 95.6065 72.608 95.6065 69.26C95.6065 65.912 97.2625 63.788 99.6025 63.788ZM99.6025 64.994C98.0185 64.994 96.9205 66.686 96.9205 69.26C96.9205 71.834 98.0185 73.544 99.6025 73.544C101.169 73.544 102.285 71.834 102.285 69.26C102.285 66.686 101.169 64.994 99.6025 64.994ZM122.073 62.564H123.369V78.314H122.073V62.564ZM118.959 62.924H120.237V77.504H118.959V69.836H116.889C116.781 72.914 115.485 74.822 113.541 74.822C111.525 74.822 110.211 72.716 110.211 69.35C110.211 66.002 111.525 63.896 113.541 63.896C115.467 63.896 116.727 65.732 116.889 68.72H118.959V62.924ZM113.541 65.156C112.263 65.156 111.453 66.776 111.453 69.35C111.453 71.924 112.263 73.562 113.541 73.562C114.855 73.562 115.665 71.924 115.665 69.35C115.665 66.776 114.855 65.156 113.541 65.156ZM124.995 75.146H128.541V70.844C127.209 70.16 126.399 69.026 126.399 67.604C126.399 65.156 128.793 63.572 132.105 63.572C135.453 63.572 137.811 65.156 137.811 67.604C137.811 69.008 137.019 70.124 135.723 70.826V75.146H139.269V76.262H124.995V75.146ZM132.105 64.652C129.549 64.652 127.713 65.822 127.713 67.604C127.713 69.386 129.549 70.556 132.105 70.556C134.661 70.556 136.515 69.386 136.515 67.604C136.515 65.822 134.661 64.652 132.105 64.652ZM129.873 75.146H134.373V71.348C133.689 71.528 132.933 71.618 132.105 71.618C131.295 71.618 130.557 71.528 129.873 71.348V75.146ZM142.912 64.004L142.696 73.886H141.508L141.274 64.004H142.912ZM142.12 75.434C142.642 75.434 143.002 75.794 143.002 76.316C143.002 76.856 142.642 77.234 142.12 77.234C141.58 77.234 141.202 76.856 141.202 76.316C141.202 75.794 141.58 75.434 142.12 75.434Z" fill="#36393C"/>
<g clip-path="url(#clip0_2186_12680)">
<path fill-rule="evenodd" clip-rule="evenodd" d="M281.763 39.599C281.686 40.0517 282.079 40.4449 282.532 40.3679L285.372 39.8852C285.508 39.8621 285.634 39.7971 285.732 39.6994L294.993 30.4384C295.253 30.1781 295.253 29.756 294.993 29.4956L292.636 27.1386C292.375 26.8782 291.953 26.8782 291.693 27.1386L282.432 36.3996C282.334 36.4973 282.269 36.623 282.246 36.7592L281.763 39.599Z" fill="#26784C"/>
<path fill-rule="evenodd" clip-rule="evenodd" d="M280.185 39.3299L280.668 36.4902C280.747 36.0269 280.968 35.5996 281.3 35.2673L288.063 28.5038C288.524 28.0427 288.597 27.2797 288.04 26.9411C287.608 26.6786 287.106 26.5338 286.585 26.5338H276.667C275.121 26.5338 273.867 27.7874 273.867 29.3338V46.6671C273.867 48.2135 275.121 49.4671 276.667 49.4671H291.334C292.88 49.4671 294.134 48.2135 294.134 46.6671V36.5963C294.134 36.052 293.975 35.5195 293.677 35.064C293.464 34.7369 293.003 34.6893 292.727 34.9656L286.862 40.8298C286.53 41.1621 286.103 41.3829 285.639 41.4617L282.8 41.9444C281.26 42.2061 279.924 40.8693 280.185 39.3299Z" fill="#26784C"/>
</g>
<defs>
<linearGradient id="paint0_linear_2186_12680" x1="229.708" y1="-50.3418" x2="229.708" y2="296.999" gradientUnits="userSpaceOnUse">
<stop stop-color="#F3FFC4"/>
<stop offset="1" stop-color="#E6FF86"/>
</linearGradient>
<clipPath id="clip0_2186_12680">
<rect width="32" height="32" fill="white" transform="translate(268 22)"/>
</clipPath>
</defs>
</svg>
