<svg width="48" height="48" viewBox="0 0 48 48" fill="none" xmlns="http://www.w3.org/2000/svg">
<path fill-rule="evenodd" clip-rule="evenodd" d="M25.5709 4.27205C24.6392 3.57598 23.3605 3.57599 22.4288 4.27205L14.9705 9.84393C14.3071 10.3395 13.9165 11.1189 13.9165 11.9469L13.9166 22.1596C13.9167 23.6093 15.0919 24.7845 16.5416 24.7845H31.4582C32.9079 24.7845 34.0832 23.6093 34.0832 22.1595V11.9469C34.0832 11.1189 33.6925 10.3395 33.0292 9.84394L25.5709 4.27205ZM24.0247 15.8644C24.8071 15.8318 25.5698 16.5088 25.7221 17.2471L25.7226 17.2495C25.8494 17.854 25.5153 18.472 24.7442 18.707C24.6428 18.7366 24.5301 18.7598 24.3891 18.786L24.3166 18.7993C24.2334 18.8146 24.1393 18.8317 24.0439 18.8516C23.5364 18.7997 23.1488 18.6454 22.8295 18.3497C22.6249 18.1497 22.5172 17.9627 22.4688 17.7898C22.4208 17.6188 22.4168 17.4121 22.4974 17.1475L22.4975 17.1475L22.5006 17.1368C22.5935 16.8141 22.8154 16.4931 23.1165 16.2481C23.4202 16.0011 23.7508 15.8742 24.0202 15.8646L24.0247 15.8644ZM23.9645 14.3656C25.5772 14.2996 26.9102 15.5852 27.1909 16.9428C27.496 18.4008 26.5996 19.7121 25.1763 20.1434L25.1704 20.1452L25.1704 20.1452C24.9896 20.1984 24.8118 20.2332 24.663 20.2608L24.572 20.2776C24.4556 20.2989 24.3603 20.3164 24.2651 20.3388L24.1532 20.3651L24.0386 20.3567C23.2359 20.298 22.4576 20.0545 21.8007 19.4413L21.79 19.4313L21.7901 19.4312C21.4323 19.084 21.1586 18.6736 21.0244 18.1946C20.8898 17.7141 20.9098 17.2153 21.0608 16.7161C21.2514 16.0591 21.6695 15.4916 22.17 15.0845C22.6688 14.6787 23.3026 14.3898 23.9645 14.3656ZM22.6435 11.3696C23.1595 11.3696 23.5423 11.7691 23.5423 12.285C23.5423 12.7843 23.1428 13.1671 22.6435 13.1671C22.1276 13.1671 21.7281 12.751 21.7448 12.2517C21.7448 11.7524 22.1442 11.3696 22.6435 11.3696ZM27.0549 14.1488C27.0382 14.6814 27.421 15.0975 27.937 15.0975C28.4529 15.0975 28.869 14.7147 28.869 14.1987C28.869 13.6994 28.4862 13.2833 27.9869 13.2833C27.4709 13.2833 27.0549 13.6495 27.0549 14.1488ZM26.4379 12.285C26.4379 12.801 26.0218 13.1838 25.5058 13.1838C25.0065 13.1838 24.6237 12.7843 24.6237 12.2684C24.6404 11.7524 25.0398 11.3696 25.5558 11.3696C26.0551 11.3696 26.4379 11.7691 26.4379 12.285ZM19.3325 14.1832C19.3325 14.6992 19.7153 15.0986 20.2313 15.0986C20.7472 15.0986 21.1466 14.7158 21.1466 14.2165C21.1466 13.7006 20.7638 13.3011 20.2479 13.3011C19.732 13.3011 19.3325 13.6839 19.3325 14.1832Z" fill="#40C97F"/>
<path d="M17.0411 42.08H15.9711V38.75H12.4911V42.08H11.4311V34.7H12.4911V37.83H15.9711V34.7H17.0411V42.08ZM20.6291 41.22C21.0024 41.22 21.3024 41.0833 21.5291 40.81C21.7557 40.5367 21.8691 40.1733 21.8691 39.72C21.8691 39.2733 21.7557 38.9133 21.5291 38.64C21.3024 38.36 21.0024 38.22 20.6291 38.22C20.2557 38.22 19.9557 38.3567 19.7291 38.63C19.5024 38.9033 19.3891 39.2667 19.3891 39.72C19.3891 40.1733 19.5024 40.5367 19.7291 40.81C19.9557 41.0833 20.2557 41.22 20.6291 41.22ZM18.3291 39.72C18.3291 39.2533 18.4257 38.84 18.6191 38.48C18.8191 38.1133 19.0924 37.8267 19.4391 37.62C19.7857 37.4133 20.1824 37.31 20.6291 37.31C21.0757 37.31 21.4724 37.4133 21.8191 37.62C22.1657 37.8267 22.4357 38.1133 22.6291 38.48C22.8291 38.84 22.9291 39.2533 22.9291 39.72C22.9291 40.18 22.8291 40.5933 22.6291 40.96C22.4357 41.3267 22.1657 41.6133 21.8191 41.82C21.4724 42.0267 21.0757 42.13 20.6291 42.13C20.1824 42.13 19.7857 42.0267 19.4391 41.82C19.0924 41.6133 18.8191 41.3267 18.6191 40.96C18.4257 40.5933 18.3291 40.18 18.3291 39.72ZM30.0673 39.38C30.0673 39.04 29.984 38.7667 29.8173 38.56C29.6507 38.3533 29.4307 38.25 29.1573 38.25C28.8573 38.25 28.6107 38.3533 28.4173 38.56C28.2307 38.7667 28.1373 39.0233 28.1373 39.33V42.09H27.0673V39.38C27.0673 39.04 26.984 38.7667 26.8173 38.56C26.6573 38.3533 26.444 38.25 26.1773 38.25C25.8773 38.25 25.6273 38.3633 25.4273 38.59C25.234 38.8167 25.1373 39.1 25.1373 39.44V42.09H24.0773V37.32H25.1373V37.97C25.284 37.7767 25.454 37.6233 25.6473 37.51C25.8473 37.39 26.0573 37.33 26.2773 37.33C26.5573 37.33 26.8273 37.41 27.0873 37.57C27.3473 37.73 27.5473 37.9367 27.6873 38.19C27.854 37.9367 28.0807 37.73 28.3673 37.57C28.654 37.41 28.9407 37.33 29.2273 37.33C29.6007 37.33 29.9307 37.4167 30.2173 37.59C30.5107 37.7633 30.7373 38.0033 30.8973 38.31C31.0573 38.61 31.1373 38.9533 31.1373 39.34V42.09H30.0673V39.38ZM34.6037 42.11C34.157 42.11 33.7603 42.01 33.4137 41.81C33.067 41.6033 32.7937 41.32 32.5937 40.96C32.4003 40.5933 32.3037 40.18 32.3037 39.72C32.3037 39.2533 32.4003 38.84 32.5937 38.48C32.7937 38.1133 33.067 37.83 33.4137 37.63C33.7603 37.4233 34.157 37.32 34.6037 37.32C35.2237 37.32 35.687 37.4767 35.9937 37.79C36.3003 38.0967 36.497 38.37 36.5837 38.61C36.7237 38.9367 36.7937 39.3267 36.7937 39.78C36.7937 39.9 36.7903 39.9867 36.7837 40.04C36.7837 40.0867 36.7837 40.1167 36.7837 40.13H33.3437C33.4037 40.45 33.5537 40.71 33.7937 40.91C34.0337 41.11 34.3037 41.21 34.6037 41.21C34.9437 41.21 35.207 41.1433 35.3937 41.01C35.5803 40.8767 35.7137 40.7433 35.7937 40.61L36.6437 40.99C36.5103 41.2967 36.267 41.56 35.9137 41.78C35.567 42 35.1303 42.11 34.6037 42.11ZM35.7837 39.29C35.7303 38.97 35.607 38.7133 35.4137 38.52C35.2203 38.32 34.9503 38.22 34.6037 38.22C34.2903 38.22 34.017 38.32 33.7837 38.52C33.5503 38.72 33.4037 38.9767 33.3437 39.29H35.7837Z" fill="#40C97F"/>
</svg>
