<svg width="48" height="48" viewBox="0 0 48 48" fill="none" xmlns="http://www.w3.org/2000/svg">
<path fill-rule="evenodd" clip-rule="evenodd" d="M22.4288 4.27205C23.3605 3.57598 24.6392 3.57598 25.5709 4.27205L33.0292 9.84394C33.6925 10.3395 34.0832 11.1189 34.0832 11.9469V22.1595C34.0832 23.6093 32.9079 24.7845 31.4582 24.7845H16.5416C15.0919 24.7845 13.9167 23.6093 13.9166 22.1596L13.9165 11.9469C13.9165 11.1189 14.3071 10.3395 14.9705 9.84393L22.4288 4.27205ZM24.6731 5.47373C24.2738 5.17542 23.7258 5.17542 23.3265 5.47373L15.8682 11.0456C15.5839 11.258 15.4165 11.5921 15.4165 11.9469L15.4166 22.1596C15.4166 22.7809 15.9203 23.2845 16.5416 23.2845H31.4582C32.0795 23.2845 32.5832 22.7809 32.5832 22.1595V11.9469C32.5832 11.5921 32.4157 11.258 32.1315 11.0456L24.6731 5.47373Z" fill="#AFB8C1"/>
<path fill-rule="evenodd" clip-rule="evenodd" d="M25.7223 17.247C25.5699 16.5087 24.8073 15.8317 24.0248 15.8643L24.0204 15.8644L24.0204 15.8644C23.751 15.8741 23.4203 16.001 23.1167 16.248C22.8155 16.493 22.5937 16.814 22.5007 17.1367L22.4976 17.1474L22.4975 17.1474C22.417 17.412 22.421 17.6187 22.4689 17.7897C22.5173 17.9626 22.625 18.1496 22.8297 18.3496C23.1489 18.6453 23.5365 18.7996 24.0441 18.8515C24.1395 18.8316 24.2335 18.8145 24.3167 18.7992C24.342 18.7946 24.3662 18.7902 24.3892 18.7859C24.5303 18.7597 24.643 18.7365 24.7443 18.7069C25.5154 18.4719 25.8495 17.8539 25.7228 17.2494L25.7223 17.247L25.7223 17.247ZM27.1911 16.9427C26.9103 15.5851 25.5773 14.2995 23.9646 14.3655C23.3027 14.3897 22.6689 14.6786 22.1701 15.0844C21.6696 15.4915 21.2516 16.059 21.0609 16.716C20.9099 17.2152 20.8899 17.714 21.0246 18.1945C21.1588 18.6735 21.4325 19.0839 21.7903 19.4311L21.7902 19.4312L21.8009 19.4412C22.4578 20.0544 23.2361 20.2979 24.0387 20.3566L24.1533 20.365L24.2652 20.3387C24.3604 20.3163 24.4557 20.2988 24.5721 20.2775C24.601 20.2722 24.6313 20.2666 24.6631 20.2607C24.812 20.2331 24.9897 20.1982 25.1705 20.1451L25.1705 20.1451L25.1764 20.1433C26.5998 19.712 27.4962 18.4007 27.1911 16.9427Z" fill="#AFB8C1"/>
<path d="M22.6434 11.3696C23.1593 11.3696 23.5421 11.7691 23.5421 12.285C23.5421 12.7843 23.1427 13.1671 22.6434 13.1671C22.1274 13.1671 21.728 12.751 21.7446 12.2517C21.7446 11.7524 22.1441 11.3696 22.6434 11.3696Z" fill="#AFB8C1"/>
<path d="M27.9368 15.0976C27.4209 15.0976 27.0381 14.6815 27.0547 14.1489C27.0547 13.6496 27.4708 13.2834 27.9867 13.2834C28.4861 13.2834 28.8688 13.6995 28.8688 14.1988C28.8688 14.7148 28.4528 15.0976 27.9368 15.0976Z" fill="#AFB8C1"/>
<path d="M26.4377 12.285C26.4377 12.801 26.0216 13.1838 25.5056 13.1838C25.0063 13.1838 24.6235 12.7843 24.6235 12.2684C24.6402 11.7524 25.0396 11.3696 25.5556 11.3696C26.0549 11.3696 26.4377 11.7691 26.4377 12.285Z" fill="#AFB8C1"/>
<path d="M20.2313 15.0985C19.7153 15.0985 19.3325 14.6991 19.3325 14.1831C19.3325 13.6838 19.732 13.301 20.2479 13.301C20.7638 13.301 21.1466 13.7005 21.1466 14.2164C21.1466 14.7157 20.7472 15.0985 20.2313 15.0985Z" fill="#AFB8C1"/>
<path d="M16.5507 34.78V42H15.8307V38.61H11.8307V42H11.1107V34.78H11.8307V37.97H15.8307V34.78H16.5507ZM20.3398 41.4C21.3398 41.4 22.0498 40.6 22.0498 39.46C22.0498 38.32 21.3398 37.52 20.3398 37.52C19.3398 37.52 18.6398 38.32 18.6398 39.46C18.6398 40.6 19.3398 41.4 20.3398 41.4ZM17.9198 39.46C17.9198 37.95 18.9198 36.88 20.3398 36.88C21.7698 36.88 22.7698 37.95 22.7698 39.46C22.7698 40.97 21.7698 42.04 20.3398 42.04C18.9198 42.04 17.9198 40.97 17.9198 39.46ZM30.5604 38.88C30.5604 38.1 30.0704 37.55 29.3704 37.55C28.5604 37.55 27.9904 38.06 27.9904 38.78V42H27.2704V38.88C27.2704 38.1 26.7904 37.55 26.1004 37.55C25.2804 37.55 24.7104 38.25 24.7104 39V42H23.9904V36.91H24.7104V37.78C25.0004 37.27 25.5804 36.91 26.1004 36.91C26.7704 36.91 27.4304 37.33 27.7004 37.93C28.0104 37.33 28.7004 36.91 29.3704 36.91C30.4904 36.91 31.2804 37.69 31.2804 38.8V42H30.5604V38.88ZM36.4597 39.17C36.3797 38.35 36.0197 37.53 34.9397 37.53C34.0597 37.53 33.3697 38.21 33.2497 39.18L36.4597 39.17ZM32.5097 39.46C32.5097 37.95 33.4997 36.89 34.9097 36.89C36.4897 36.89 36.9397 38.15 36.9897 38.27C37.2897 39.09 37.1697 39.8 37.1697 39.81H33.2497C33.3797 40.74 34.0697 41.39 34.9197 41.39C36.0697 41.39 36.4097 40.68 36.4797 40.58L37.0397 40.91C37.0397 40.91 36.5797 42.03 34.9097 42.03C33.4997 42.03 32.5097 40.97 32.5097 39.46Z" fill="#AFB8C1"/>
</svg>
