<svg width="360" height="800" viewBox="0 0 360 800" fill="none" xmlns="http://www.w3.org/2000/svg">
<rect width="360" height="800" fill="#F5F5F5"/>
<g id="id_201">
<rect width="360" height="800" fill="#FAFAFC"/>
<g id="Frame 4">
<g id="Group 3">
<g id="Right Side">
<g id="Battery">
<path id="Rectangle" opacity="0.35" d="M318.5 19.0006C318.5 17.804 319.47 16.834 320.667 16.834H337.333C338.53 16.834 339.5 17.804 339.5 19.0007V25.0007C339.5 26.1973 338.53 27.1673 337.333 27.1673H320.667C319.47 27.1673 318.5 26.1973 318.5 25.0007V19.0006Z" stroke="#191F28"/>
<path id="Combined Shape" opacity="0.4" d="M341 20.001V24.001C341.805 23.6622 342.328 22.8741 342.328 22.001C342.328 21.1278 341.805 20.3398 341 20.001Z" fill="#191F28"/>
<path id="Rectangle_2" d="M320 19.434C320 18.8265 320.492 18.334 321.1 18.334H336.9C337.508 18.334 338 18.8265 338 19.434V24.5673C338 25.1748 337.508 25.6673 336.9 25.6673H321.1C320.492 25.6673 320 25.1748 320 24.5673V19.434Z" fill="#191F28"/>
</g>
<path id="Wifi" fill-rule="evenodd" clip-rule="evenodd" d="M305.331 18.6084C307.547 18.6085 309.678 19.4599 311.284 20.9867C311.405 21.1046 311.598 21.1031 311.717 20.9834L312.873 19.8167C312.934 19.756 312.967 19.6737 312.967 19.5882C312.966 19.5026 312.932 19.4207 312.871 19.3607C308.656 15.3212 302.006 15.3212 297.791 19.3607C297.73 19.4207 297.695 19.5025 297.694 19.5881C297.694 19.6737 297.727 19.7559 297.788 19.8167L298.944 20.9834C299.063 21.1033 299.256 21.1048 299.377 20.9867C300.983 19.4598 303.115 18.6084 305.331 18.6084ZM305.331 22.404C306.548 22.404 307.722 22.8565 308.625 23.6737C308.747 23.7897 308.939 23.7872 309.058 23.668L310.213 22.5014C310.274 22.4402 310.307 22.3572 310.307 22.2709C310.306 22.1846 310.27 22.1023 310.208 22.0424C307.46 19.486 303.204 19.486 300.456 22.0424C300.394 22.1023 300.358 22.1847 300.358 22.271C300.357 22.3573 300.391 22.4403 300.452 22.5014L301.606 23.668C301.725 23.7872 301.917 23.7897 302.039 23.6737C302.941 22.857 304.114 22.4046 305.331 22.404ZM307.644 24.9579C307.646 25.0444 307.612 25.1278 307.55 25.1884L305.553 27.204C305.494 27.2633 305.414 27.2966 305.331 27.2966C305.248 27.2966 305.168 27.2633 305.109 27.204L303.112 25.1884C303.05 25.1277 303.016 25.0443 303.018 24.9578C303.02 24.8713 303.057 24.7894 303.121 24.7314C304.397 23.6525 306.265 23.6525 307.541 24.7314C307.605 24.7894 307.642 24.8714 307.644 24.9579Z" fill="#191F28"/>
<path id="Mobile Signal" fill-rule="evenodd" clip-rule="evenodd" d="M291.667 16.667H290.667C290.115 16.667 289.667 17.1147 289.667 17.667V26.3337C289.667 26.8859 290.115 27.3337 290.667 27.3337H291.667C292.219 27.3337 292.667 26.8859 292.667 26.3337V17.667C292.667 17.1147 292.219 16.667 291.667 16.667ZM286 19.0003H287C287.553 19.0003 288 19.448 288 20.0003V26.3337C288 26.8859 287.553 27.3337 287 27.3337H286C285.448 27.3337 285 26.8859 285 26.3337V20.0003C285 19.448 285.448 19.0003 286 19.0003ZM282.334 21.3337H281.334C280.781 21.3337 280.334 21.7814 280.334 22.3337V26.3337C280.334 26.8859 280.781 27.3337 281.334 27.3337H282.334C282.886 27.3337 283.334 26.8859 283.334 26.3337V22.3337C283.334 21.7814 282.886 21.3337 282.334 21.3337ZM277.667 23.3337H276.667C276.115 23.3337 275.667 23.7814 275.667 24.3337V26.3337C275.667 26.8859 276.115 27.3337 276.667 27.3337H277.667C278.219 27.3337 278.667 26.8859 278.667 26.3337V24.3337C278.667 23.7814 278.219 23.3337 277.667 23.3337Z" fill="#191F28"/>
</g>
<path id="9:41" d="M35.9165 17.265C35.2365 17.265 34.6815 17.485 34.2515 17.925C33.8215 18.365 33.6065 18.935 33.6065 19.635C33.6065 20.335 33.8215 20.905 34.2515 21.345C34.6815 21.785 35.2365 22.005 35.9165 22.005C36.5765 22.005 37.1165 21.785 37.5365 21.345C37.9665 20.905 38.1815 20.335 38.1815 19.635C38.1815 18.935 37.9665 18.365 37.5365 17.925C37.1165 17.485 36.5765 17.265 35.9165 17.265ZM32.1815 19.635C32.1815 18.935 32.3365 18.31 32.6465 17.76C32.9665 17.21 33.4065 16.785 33.9665 16.485C34.5265 16.175 35.1665 16.02 35.8865 16.02C36.6065 16.02 37.2465 16.175 37.8065 16.485C38.3765 16.785 38.8165 17.21 39.1265 17.76C39.4465 18.31 39.6065 18.935 39.6065 19.635C39.6065 20.295 39.4115 20.98 39.0215 21.69L35.9915 27.045H34.3565L36.5615 23.175C36.3115 23.225 36.0815 23.25 35.8715 23.25C35.1515 23.25 34.5115 23.095 33.9515 22.785C33.3915 22.475 32.9565 22.05 32.6465 21.51C32.3365 20.96 32.1815 20.335 32.1815 19.635ZM42.0717 18.225C42.3117 18.225 42.5067 18.3 42.6567 18.45C42.8067 18.6 42.8817 18.795 42.8817 19.035C42.8817 19.275 42.8067 19.475 42.6567 19.635C42.5067 19.785 42.3117 19.86 42.0717 19.86C41.8417 19.86 41.6467 19.785 41.4867 19.635C41.3367 19.475 41.2617 19.275 41.2617 19.035C41.2617 18.795 41.3367 18.6 41.4867 18.45C41.6467 18.3 41.8417 18.225 42.0717 18.225ZM41.2617 24.075C41.2617 23.845 41.3367 23.655 41.4867 23.505C41.6467 23.345 41.8417 23.265 42.0717 23.265C42.3117 23.265 42.5067 23.345 42.6567 23.505C42.8067 23.655 42.8817 23.845 42.8817 24.075C42.8817 24.315 42.8067 24.515 42.6567 24.675C42.5067 24.825 42.3117 24.9 42.0717 24.9C41.8417 24.9 41.6467 24.825 41.4867 24.675C41.3367 24.515 41.2617 24.315 41.2617 24.075ZM50.8112 22.89H52.2662V24.135H50.8112V27.03H49.3862V24.135H44.6762L44.5262 22.89L49.4462 16.14H50.8112V22.89ZM49.3862 22.89V18.54L46.2362 22.89H49.3862ZM57.0937 27.03L55.6687 27.015V17.7L53.8387 18.795L53.1937 17.625L55.6837 16.155H57.0937V27.03Z" fill="#191F28"/>
</g>
</g>
<g id="header">
<path id="&#237;&#154;&#140;&#236;&#155;&#144;&#234;&#176;&#128;&#236;&#158;&#133; &#236;&#153;&#132;&#235;&#163;&#140;" d="M138.871 66.184V70.44H140.951V71.432H138.871V76.44H137.671V66.184H138.871ZM128.631 67.176H129.815V69.56H133.895V67.176H135.079V74.088H128.631V67.176ZM133.895 73.112V70.504H129.815V73.112H133.895ZM130.199 75.464H131.383V78.856H139.511V79.848H130.199V75.464ZM153.464 66.152V80.184H152.28V74.2H149.368V73.224H152.28V70.376H149.464V69.384H152.28V66.152H153.464ZM142.472 67.448H148.568V72.408H143.688V75.896C144.829 75.896 145.858 75.8693 146.776 75.816C147.693 75.752 148.653 75.64 149.656 75.48L149.768 76.488C148.733 76.648 147.746 76.76 146.808 76.824C145.869 76.8773 144.781 76.904 143.544 76.904H142.504V71.416H147.384V68.44H142.472V67.448ZM167.48 66.168V76.6H166.264V73.208H162.504V72.216H166.264V70.056H162.696C162.216 71.1547 161.459 72.12 160.424 72.952C159.4 73.7733 158.168 74.424 156.728 74.904L156.2 73.928C157.864 73.384 159.208 72.616 160.232 71.624C161.267 70.632 161.848 69.5067 161.976 68.248H156.904V67.272H163.272C163.272 67.8693 163.197 68.4667 163.048 69.064H166.264V66.168H167.48ZM158.648 75.592H159.864V78.856H167.816V79.848H158.648V75.592ZM178.512 66.84V68.2C178.512 68.872 178.661 69.5173 178.96 70.136C179.269 70.744 179.69 71.2827 180.224 71.752C180.768 72.2107 181.376 72.5627 182.048 72.808L181.456 73.752C180.645 73.4427 179.93 72.9947 179.312 72.408C178.704 71.8213 178.25 71.1387 177.952 70.36C177.653 71.2027 177.189 71.944 176.56 72.584C175.941 73.2133 175.221 73.688 174.4 74.008L173.776 73.048C174.458 72.792 175.066 72.4187 175.6 71.928C176.144 71.4373 176.565 70.872 176.864 70.232C177.162 69.5813 177.312 68.904 177.312 68.2V66.84H178.512ZM175.76 75.32H185.088V80.168H183.888V76.312H175.76V75.32ZM183.888 66.168H185.088V74.6H183.888V66.168ZM198.496 66.152V70.36H200.592V71.352H198.496V76.296H197.296V66.152H198.496ZM188.32 67.368H194.48V68.376H189.504V72.808C190.976 72.808 192.16 72.776 193.056 72.712C193.963 72.648 194.864 72.5253 195.76 72.344L195.904 73.32C194.944 73.512 193.99 73.6453 193.04 73.72C192.091 73.784 190.875 73.816 189.392 73.816H188.32V67.368ZM189.824 75.288H191.008V78.856H199.136V79.848H189.824V75.288ZM216.744 66.168V73.672H215.544V66.168H216.744ZM205.624 70.056C205.624 69.4267 205.779 68.872 206.088 68.392C206.397 67.9013 206.829 67.5227 207.384 67.256C207.939 66.9893 208.563 66.856 209.256 66.856C209.949 66.856 210.573 66.9893 211.128 67.256C211.683 67.5227 212.115 67.9013 212.424 68.392C212.733 68.872 212.888 69.4267 212.888 70.056C212.888 70.6853 212.733 71.2453 212.424 71.736C212.115 72.216 211.683 72.5947 211.128 72.872C210.573 73.1387 209.949 73.272 209.256 73.272C208.563 73.272 207.939 73.1387 207.384 72.872C206.829 72.5947 206.397 72.216 206.088 71.736C205.779 71.2453 205.624 70.6853 205.624 70.056ZM206.792 70.056C206.792 70.7067 207.021 71.24 207.48 71.656C207.949 72.0613 208.541 72.264 209.256 72.264C209.971 72.264 210.557 72.0613 211.016 71.656C211.485 71.24 211.72 70.7067 211.72 70.056C211.72 69.4053 211.485 68.8773 211.016 68.472C210.557 68.056 209.971 67.848 209.256 67.848C208.541 67.848 207.949 68.056 207.48 68.472C207.021 68.8773 206.792 69.4053 206.792 70.056ZM207.768 74.392H208.952V76.12H215.56V74.392H216.744V79.976H207.768V74.392ZM215.56 79V77.08H208.952V79H215.56ZM225.864 67.016V70.936H221.064V73.144C222.472 73.144 223.566 73.1227 224.344 73.08C225.123 73.0373 225.907 72.9413 226.696 72.792L226.824 73.768C225.992 73.9173 225.166 74.0133 224.344 74.056C223.523 74.0987 222.36 74.12 220.856 74.12H219.88V69.992H224.68V68.008H219.832V67.016H225.864ZM221.432 75.544H230.776V80.2H229.576V76.52H221.432V75.544ZM226.792 71.16H229.576V69.256H226.792V68.264H229.576V66.184H230.776V74.776H229.576V72.136H226.792V71.16Z" fill="#191919"/>
<g id="Frame 1000003803">
<g id="Group 1000003764">
<path id="Vector 1761" d="M321 66L335 80" stroke="#36393C" stroke-width="2" stroke-linecap="round" stroke-linejoin="round"/>
<path id="Vector 1762" d="M335 66L321 80" stroke="#36393C" stroke-width="2" stroke-linecap="round" stroke-linejoin="round"/>
</g>
</g>
<g id="mingcute:arrow-left-line" clip-path="url(#clip0_1324_13743)">
<g id="Group">
<path id="Vector" d="M23.6356 72.2929C23.4481 72.4805 23.3428 72.7348 23.3428 72.9999C23.3428 73.2651 23.4481 73.5194 23.6356 73.7069L29.2926 79.3639C29.4812 79.5461 29.7338 79.6469 29.996 79.6446C30.2582 79.6423 30.509 79.5372 30.6944 79.3518C30.8798 79.1663 30.985 78.9155 30.9872 78.6533C30.9895 78.3911 30.8887 78.1385 30.7066 77.9499L26.7566 73.9999H39.9996C40.2648 73.9999 40.5191 73.8946 40.7067 73.707C40.8942 73.5195 40.9996 73.2652 40.9996 72.9999C40.9996 72.7347 40.8942 72.4804 40.7067 72.2928C40.5191 72.1053 40.2648 71.9999 39.9996 71.9999H26.7566L30.7066 68.0499C30.8887 67.8613 30.9895 67.6087 30.9872 67.3465C30.985 67.0843 30.8798 66.8335 30.6944 66.6481C30.509 66.4627 30.2582 66.3575 29.996 66.3553C29.7338 66.353 29.4812 66.4538 29.2926 66.6359L23.6356 72.2929Z" fill="#36393C"/>
</g>
</g>
</g>
<g id="Frame 1000004320">
<g id="Frame 1000004304">
<path id="&#235;&#176;&#152;&#235;&#160;&#164;&#234;&#178;&#172;&#236;&#157;&#180; &#235;&#168;&#185;&#236;&#157;&#128; &#236;&#139;&#157;&#235;&#139;&#168;&#236;&#157;&#132; &#236;&#158;&#133;&#235;&#160;&#165;&#237;&#149;&#180;&#236;&#163;&#188;&#236;&#132;&#184;&#236;&#154;&#148;." d="M38.62 137.82V142.96H41.08V144.78H38.62V150.9H36.42V137.82H38.62ZM25.3 139.08H27.48V141.8H31.56V139.08H33.72V148.04H25.3V139.08ZM27.3 149.6H29.5V153.5H39.32V155.26H27.3V149.6ZM31.56 146.28V143.5H27.48V146.28H31.56ZM56.1905 137.78V155.64H53.9905V148.32H50.7705V146.56H53.9905V143.46H50.8505V141.68H53.9905V137.78H56.1905ZM41.9905 139.34H49.8705V146.04H44.1905V149.8C45.4571 149.787 46.6171 149.747 47.6705 149.68C48.7238 149.613 49.8105 149.493 50.9305 149.32L51.0905 151.12C49.8505 151.32 48.6371 151.453 47.4505 151.52C46.2771 151.587 44.9305 151.62 43.4105 151.62H42.0105V144.28H47.6905V141.1H41.9905V139.34ZM72.9409 137.8V150.96H70.7209V147.1H66.4609V145.32H70.7209V143.08H66.7409C66.1143 144.453 65.1676 145.647 63.9009 146.66C62.6343 147.66 61.1009 148.447 59.3009 149.02L58.3609 147.26C60.3209 146.647 61.9009 145.787 63.1009 144.68C64.3009 143.573 64.9943 142.32 65.1809 140.92H59.3009V139.16H67.5609C67.5609 139.92 67.4809 140.64 67.3209 141.32H70.7209V137.8H72.9409ZM61.4209 149.7H63.6409V153.5H73.3609V155.26H61.4209V149.7ZM89.5514 137.78V155.64H87.3314V137.78H89.5514ZM75.4114 145.38C75.4114 144.113 75.6047 143.007 75.9914 142.06C76.3914 141.1 76.9381 140.367 77.6314 139.86C78.3381 139.34 79.1381 139.08 80.0314 139.08C80.9247 139.08 81.7181 139.34 82.4114 139.86C83.1181 140.367 83.6647 141.1 84.0514 142.06C84.4514 143.007 84.6514 144.113 84.6514 145.38C84.6514 146.647 84.4514 147.76 84.0514 148.72C83.6647 149.68 83.1181 150.42 82.4114 150.94C81.7181 151.447 80.9247 151.7 80.0314 151.7C79.1381 151.7 78.3381 151.447 77.6314 150.94C76.9381 150.42 76.3914 149.68 75.9914 148.72C75.6047 147.76 75.4114 146.647 75.4114 145.38ZM77.5314 145.38C77.5314 146.727 77.7581 147.787 78.2114 148.56C78.6781 149.333 79.2847 149.72 80.0314 149.72C80.7781 149.72 81.3781 149.333 81.8314 148.56C82.2981 147.787 82.5314 146.727 82.5314 145.38C82.5314 144.047 82.2981 143 81.8314 142.24C81.3781 141.467 80.7781 141.08 80.0314 141.08C79.2847 141.08 78.6781 141.467 78.2114 142.24C77.7581 143 77.5314 144.047 77.5314 145.38ZM110.241 149.22V155.62H108.041V150.96H98.2013V149.22H110.241ZM96.2213 139.12H104.521V142.14H108.041V137.82H110.241V148.32H108.041V143.92H104.521V147.28H96.2213V139.12ZM102.361 145.54V140.84H98.3813V145.54H102.361ZM128.272 147V148.76H112.192V147H128.272ZM113.852 141.98C113.852 141.247 114.112 140.607 114.632 140.06C115.165 139.513 115.912 139.093 116.872 138.8C117.832 138.507 118.952 138.36 120.232 138.36C121.512 138.36 122.632 138.507 123.592 138.8C124.552 139.093 125.292 139.513 125.812 140.06C126.345 140.607 126.612 141.247 126.612 141.98C126.612 142.727 126.345 143.373 125.812 143.92C125.292 144.467 124.552 144.887 123.592 145.18C122.632 145.473 121.512 145.62 120.232 145.62C118.952 145.62 117.832 145.473 116.872 145.18C115.912 144.887 115.165 144.467 114.632 143.92C114.112 143.373 113.852 142.727 113.852 141.98ZM114.192 150.1H116.372V153.5H126.472V155.28H114.192V150.1ZM116.112 141.98C116.112 142.58 116.472 143.047 117.192 143.38C117.925 143.7 118.938 143.86 120.232 143.86C121.525 143.86 122.532 143.7 123.252 143.38C123.972 143.047 124.332 142.58 124.332 141.98C124.332 141.38 123.972 140.927 123.252 140.62C122.532 140.3 121.525 140.14 120.232 140.14C118.938 140.14 117.925 140.3 117.192 140.62C116.472 140.94 116.112 141.393 116.112 141.98ZM139.322 138.64V140.34C139.322 141.553 139.695 142.66 140.442 143.66C141.188 144.647 142.235 145.36 143.582 145.8L142.522 147.52C141.522 147.187 140.662 146.7 139.942 146.06C139.222 145.407 138.655 144.64 138.242 143.76C137.842 144.707 137.268 145.54 136.522 146.26C135.775 146.967 134.888 147.493 133.862 147.84L132.762 146.08C134.148 145.613 135.215 144.86 135.962 143.82C136.722 142.767 137.102 141.607 137.102 140.34V138.64H139.322ZM135.422 149.28H147.462V155.62H145.262V151.06H135.422V149.28ZM145.262 137.82H147.462V148.46H145.262V137.82ZM163.452 137.8V142.84H165.932V144.62H163.452V150.68H161.252V137.8H163.452ZM150.252 139.26H158.172V141.04H152.452V145.9C154.159 145.887 155.539 145.84 156.592 145.76C157.645 145.68 158.672 145.54 159.672 145.34L159.892 147.08C158.772 147.32 157.612 147.487 156.412 147.58C155.225 147.66 153.652 147.7 151.692 147.7H150.252V139.26ZM152.132 149.36H154.332V153.5H164.152V155.26H152.132V149.36ZM174.283 138.1C176.296 138.1 177.863 138.36 178.983 138.88C180.103 139.4 180.663 140.153 180.663 141.14C180.663 142.127 180.103 142.887 178.983 143.42C177.863 143.94 176.296 144.2 174.283 144.2C172.269 144.2 170.703 143.94 169.583 143.42C168.463 142.887 167.903 142.127 167.903 141.14C167.903 140.153 168.463 139.4 169.583 138.88C170.703 138.36 172.269 138.1 174.283 138.1ZM166.243 145.16H182.323V146.92H166.243V145.16ZM168.103 148.1H180.323V152.46H170.303V153.8H180.823V155.46H168.163V150.92H178.163V149.76H168.103V148.1ZM170.183 141.14C170.183 142.1 171.549 142.58 174.283 142.58C177.016 142.58 178.383 142.1 178.383 141.14C178.383 140.673 178.029 140.32 177.322 140.08C176.629 139.827 175.616 139.7 174.283 139.7C172.936 139.7 171.916 139.827 171.223 140.08C170.529 140.32 170.183 140.673 170.183 141.14ZM201.512 137.82V147.36H199.312V137.82H201.512ZM187.132 142.74C187.132 141.94 187.339 141.227 187.752 140.6C188.166 139.973 188.732 139.487 189.452 139.14C190.172 138.78 190.986 138.6 191.892 138.6C192.799 138.6 193.612 138.78 194.332 139.14C195.052 139.487 195.619 139.973 196.032 140.6C196.446 141.227 196.652 141.94 196.652 142.74C196.652 143.553 196.446 144.273 196.032 144.9C195.619 145.527 195.052 146.02 194.332 146.38C193.612 146.727 192.799 146.9 191.892 146.9C190.986 146.9 190.172 146.727 189.452 146.38C188.732 146.02 188.166 145.527 187.752 144.9C187.339 144.273 187.132 143.553 187.132 142.74ZM189.272 142.74C189.272 143.447 189.512 144.013 189.992 144.44C190.486 144.867 191.119 145.08 191.892 145.08C192.666 145.08 193.292 144.867 193.772 144.44C194.266 144.013 194.512 143.447 194.512 142.74C194.512 142.033 194.266 141.467 193.772 141.04C193.292 140.613 192.666 140.4 191.892 140.4C191.119 140.4 190.486 140.613 189.992 141.04C189.512 141.467 189.272 142.033 189.272 142.74ZM189.832 148.2H192.012V150.04H199.352V148.2H201.512V155.4H189.832V148.2ZM199.352 153.64V151.74H192.012V153.64H199.352ZM211.983 138.84V144.24H206.443V146.42C207.923 146.407 209.116 146.373 210.023 146.32C210.929 146.267 211.843 146.16 212.763 146L212.983 147.74C211.969 147.927 210.943 148.047 209.903 148.1C208.863 148.153 207.416 148.18 205.563 148.18H204.243V142.58H209.823V140.62H204.203V138.84H211.983ZM206.263 149.64H218.343V155.64H216.143V151.4H206.263V149.64ZM213.063 144.1H216.143V142.12H213.063V140.34H216.143V137.82H218.343V148.78H216.143V145.84H213.063V144.1ZM223.513 140.64V138.28H225.673V140.64H228.893V142.38H220.253V140.64H223.513ZM220.733 147.5C220.733 146.7 220.9 145.987 221.233 145.36C221.567 144.72 222.027 144.227 222.613 143.88C223.2 143.52 223.86 143.34 224.593 143.34C225.34 143.34 226.007 143.52 226.593 143.88C227.18 144.227 227.64 144.72 227.973 145.36C228.307 145.987 228.473 146.7 228.473 147.5C228.473 148.313 228.307 149.04 227.973 149.68C227.64 150.307 227.18 150.8 226.593 151.16C226.007 151.507 225.34 151.68 224.593 151.68C223.86 151.68 223.2 151.507 222.613 151.16C222.027 150.8 221.567 150.307 221.233 149.68C220.9 149.04 220.733 148.313 220.733 147.5ZM222.673 147.5C222.673 148.207 222.847 148.773 223.193 149.2C223.553 149.627 224.02 149.84 224.593 149.84C225.167 149.84 225.633 149.627 225.993 149.2C226.353 148.773 226.533 148.207 226.533 147.5C226.533 146.793 226.353 146.227 225.993 145.8C225.633 145.373 225.167 145.16 224.593 145.16C224.033 145.16 223.573 145.373 223.213 145.8C222.853 146.227 222.673 146.793 222.673 147.5ZM229.613 138.18H231.673V145.14H233.393V137.8H235.473V155.6H233.393V146.92H231.673V154.8H229.613V138.18ZM253.124 147.76V149.54H246.124V155.64H243.924V149.54H237.024V147.76H253.124ZM237.864 144.82C238.997 144.673 240.004 144.393 240.884 143.98C241.764 143.553 242.457 143.04 242.964 142.44C243.47 141.84 243.75 141.213 243.804 140.56H238.484V138.8H251.624V140.56H246.344C246.397 141.213 246.677 141.84 247.184 142.44C247.69 143.04 248.384 143.553 249.264 143.98C250.144 144.393 251.15 144.673 252.284 144.82L251.464 146.58C249.984 146.367 248.684 145.927 247.564 145.26C246.444 144.593 245.61 143.773 245.064 142.8C244.53 143.76 243.704 144.58 242.584 145.26C241.464 145.927 240.164 146.367 238.684 146.58L237.864 144.82ZM263.234 143.94V138.14H265.294V154.76H263.234V145.74H260.754V143.94H263.234ZM253.434 150.3C254.648 149.58 255.568 148.513 256.194 147.1C256.821 145.687 257.134 144.167 257.134 142.54V139.42H259.254V142.46C259.254 144.007 259.534 145.447 260.094 146.78C260.654 148.1 261.501 149.127 262.634 149.86L261.414 151.56C259.948 150.667 258.881 149.147 258.214 147C257.894 148.093 257.448 149.067 256.874 149.92C256.301 150.773 255.608 151.453 254.794 151.96L253.434 150.3ZM266.854 137.8H268.954V155.6H266.854V137.8ZM274.185 151.66V147.12C273.465 146.707 272.911 146.187 272.525 145.56C272.138 144.933 271.945 144.233 271.945 143.46C271.945 142.527 272.225 141.707 272.785 141C273.358 140.28 274.138 139.727 275.125 139.34C276.125 138.953 277.258 138.76 278.525 138.76C279.791 138.76 280.925 138.953 281.925 139.34C282.925 139.727 283.705 140.28 284.265 141C284.825 141.707 285.105 142.527 285.105 143.46C285.105 144.233 284.911 144.933 284.525 145.56C284.138 146.187 283.591 146.707 282.885 147.12V151.66H286.605V153.44H270.485V151.66H274.185ZM274.105 143.46C274.105 144.38 274.505 145.107 275.305 145.64C276.118 146.173 277.191 146.44 278.525 146.44C279.858 146.44 280.925 146.173 281.725 145.64C282.538 145.107 282.945 144.38 282.945 143.46C282.945 142.553 282.538 141.833 281.725 141.3C280.911 140.753 279.845 140.48 278.525 140.48C277.205 140.48 276.138 140.753 275.325 141.3C274.511 141.833 274.105 142.553 274.105 143.46ZM280.685 151.66V147.94C279.991 148.087 279.271 148.16 278.525 148.16C277.791 148.16 277.078 148.087 276.385 147.94V151.66H280.685ZM288.855 151.98C289.215 151.98 289.508 152.1 289.735 152.34C289.962 152.567 290.075 152.86 290.075 153.22C290.075 153.593 289.962 153.893 289.735 154.12C289.508 154.36 289.215 154.48 288.855 154.48C288.482 154.48 288.175 154.36 287.935 154.12C287.708 153.893 287.595 153.593 287.595 153.22C287.595 152.86 287.708 152.567 287.935 152.34C288.175 152.1 288.482 151.98 288.855 151.98Z" fill="#4F5357"/>
<path id="&#236;&#130;&#172;&#235;&#163;&#140;, &#236;&#158;&#144;&#236;&#151;&#176;&#236;&#139;&#157;, &#237;&#143;&#172;&#236;&#158;&#165;&#234;&#176;&#132;&#236;&#139;&#157;&#236;&#156;&#188;&#235;&#161;&#156; &#235;&#130;&#152;&#235;&#136;&#160; &#236;&#139;&#157;&#235;&#139;&#168; &#234;&#184;&#176;&#235;&#161;&#157;&#236;&#157;&#132; &#236;&#139;&#156;&#236;&#158;&#145;&#237;&#149;&#180;&#235;&#179;&#180;&#236;&#149;&#132;&#236;&#154;&#148;." d="M28.62 176.85V179.076C28.62 179.776 28.76 180.481 29.04 181.19C29.3293 181.89 29.712 182.52 30.188 183.08C30.6733 183.631 31.2007 184.046 31.77 184.326L31.126 185.152C30.4633 184.797 29.8613 184.279 29.32 183.598C28.788 182.907 28.3913 182.133 28.13 181.274C27.8593 182.189 27.4487 183.015 26.898 183.752C26.3473 184.48 25.7313 185.031 25.05 185.404L24.406 184.55C24.9847 184.261 25.5167 183.827 26.002 183.248C26.4967 182.66 26.884 182.002 27.164 181.274C27.4533 180.537 27.598 179.804 27.598 179.076V176.85H28.62ZM32.904 175.772H33.954V180.756H35.998V181.652H33.954V188.022H32.904V175.772ZM39.9323 185.614V183.248H38.1963V179.496H45.4763V177.536H38.1683V176.682H46.5123V180.336H39.2323V182.38H46.7923V183.248H44.8743V185.614H47.8983V186.482H36.7963V185.614H39.9323ZM43.8523 185.614V183.248H40.9683V185.614H43.8523ZM49.8307 188.526H49.0887L49.5087 185.936H50.6007L49.8307 188.526ZM62.9193 177.032V177.914H60.1753V179.566C60.1753 180.201 60.3153 180.849 60.5953 181.512C60.8847 182.175 61.272 182.777 61.7573 183.318C62.2427 183.85 62.7747 184.251 63.3533 184.522L62.7513 185.362C62.07 185.026 61.454 184.517 60.9033 183.836C60.3527 183.155 59.942 182.403 59.6713 181.582C59.3913 182.469 58.9667 183.281 58.3973 184.018C57.828 184.755 57.2027 185.301 56.5213 185.656L55.9053 184.83C56.4747 184.55 57.0067 184.125 57.5013 183.556C58.0053 182.987 58.4067 182.347 58.7053 181.638C59.004 180.929 59.1533 180.238 59.1533 179.566V177.914H56.3253V177.032H62.9193ZM64.4313 175.772H65.4813V180.756H67.5113V181.638H65.4813V188.022H64.4313V175.772ZM78.3757 175.786V184.83H77.3257V181.498H74.1897C73.9097 181.862 73.5503 182.147 73.1117 182.352C72.673 182.557 72.1877 182.66 71.6557 182.66C71.0583 182.66 70.5217 182.534 70.0457 182.282C69.5697 182.021 69.1963 181.661 68.9257 181.204C68.655 180.737 68.5197 180.21 68.5197 179.622C68.5197 179.025 68.655 178.497 68.9257 178.04C69.1963 177.573 69.5697 177.209 70.0457 176.948C70.5217 176.687 71.0583 176.556 71.6557 176.556C72.1783 176.556 72.6543 176.659 73.0837 176.864C73.5223 177.06 73.8817 177.34 74.1617 177.704H77.3257V175.786H78.3757ZM69.5137 179.622C69.5137 180.238 69.7143 180.747 70.1157 181.148C70.5263 181.549 71.0397 181.75 71.6557 181.75C72.057 181.75 72.421 181.661 72.7477 181.484C73.0743 181.297 73.331 181.045 73.5177 180.728C73.7043 180.401 73.7977 180.033 73.7977 179.622C73.7977 179.211 73.7043 178.847 73.5177 178.53C73.331 178.203 73.0743 177.951 72.7477 177.774C72.421 177.587 72.057 177.494 71.6557 177.494C71.0397 177.494 70.5263 177.695 70.1157 178.096C69.7143 178.497 69.5137 179.006 69.5137 179.622ZM70.5777 183.892H71.6277V186.874H78.7257V187.742H70.5777V183.892ZM74.6377 178.572C74.7497 178.889 74.8057 179.239 74.8057 179.622C74.8057 179.967 74.7543 180.303 74.6517 180.63H77.3257V178.572H74.6377ZM84.816 176.36V177.55C84.816 178.138 84.9467 178.703 85.208 179.244C85.4787 179.776 85.8473 180.247 86.314 180.658C86.79 181.059 87.322 181.367 87.91 181.582L87.392 182.408C86.6827 182.137 86.0573 181.745 85.516 181.232C84.984 180.719 84.5873 180.121 84.326 179.44C84.0647 180.177 83.6587 180.826 83.108 181.386C82.5667 181.937 81.9367 182.352 81.218 182.632L80.672 181.792C81.2693 181.568 81.8013 181.241 82.268 180.812C82.744 180.383 83.1127 179.888 83.374 179.328C83.6353 178.759 83.766 178.166 83.766 177.55V176.36H84.816ZM82.408 183.78H90.57V188.022H89.52V184.648H82.408V183.78ZM89.52 175.772H90.57V183.15H89.52V175.772ZM93.5943 188.526H92.8523L93.2723 185.936H94.3643L93.5943 188.526ZM104.849 185.6V182.744H100.873V181.89H102.763V177.816H100.845V176.962H109.903V177.816H107.971V181.89H109.889V182.744H105.885V185.6H110.953V186.482H99.851V185.6H104.849ZM106.935 181.89V177.816H103.827V181.89H106.935ZM118.933 176.682V177.55H116.189V178.082C116.189 178.894 116.46 179.636 117.001 180.308C117.552 180.971 118.275 181.451 119.171 181.75L118.667 182.562C117.977 182.329 117.375 181.979 116.861 181.512C116.348 181.045 115.961 180.499 115.699 179.874C115.438 180.583 115.037 181.204 114.495 181.736C113.954 182.268 113.319 182.665 112.591 182.926L112.059 182.1C112.974 181.773 113.716 181.246 114.285 180.518C114.864 179.781 115.153 178.973 115.153 178.096V177.55H112.381V176.682H118.933ZM113.683 185.74C113.683 185.04 114.038 184.494 114.747 184.102C115.457 183.71 116.437 183.514 117.687 183.514C118.938 183.514 119.918 183.71 120.627 184.102C121.346 184.494 121.705 185.04 121.705 185.74C121.705 186.449 121.346 187 120.627 187.392C119.918 187.793 118.938 187.994 117.687 187.994C116.437 187.994 115.457 187.793 114.747 187.392C114.038 187 113.683 186.449 113.683 185.74ZM114.705 185.74C114.705 186.188 114.971 186.538 115.503 186.79C116.035 187.042 116.763 187.168 117.687 187.168C118.611 187.168 119.339 187.042 119.871 186.79C120.403 186.538 120.669 186.188 120.669 185.74C120.669 185.311 120.403 184.975 119.871 184.732C119.339 184.48 118.611 184.354 117.687 184.354C116.763 184.354 116.035 184.48 115.503 184.732C114.971 184.975 114.705 185.311 114.705 185.74ZM120.529 175.772H121.579V178.922H123.413V179.79H121.579V183.164H120.529V175.772ZM133.816 175.772V179.51H135.65V180.392H133.816V184.732H132.766V175.772H133.816ZM124.352 182.464C125.826 182.007 127.007 181.353 127.894 180.504C128.79 179.655 129.294 178.684 129.406 177.592H124.856V176.724H130.54C130.54 178.273 130.031 179.617 129.014 180.756C127.996 181.895 126.592 182.749 124.8 183.318L124.352 182.464ZM126.214 183.822H127.264V186.874H134.376V187.742H126.214V183.822ZM140.816 176.36V177.55C140.816 178.138 140.947 178.703 141.208 179.244C141.479 179.776 141.847 180.247 142.314 180.658C142.79 181.059 143.322 181.367 143.91 181.582L143.392 182.408C142.683 182.137 142.057 181.745 141.516 181.232C140.984 180.719 140.587 180.121 140.326 179.44C140.065 180.177 139.659 180.826 139.108 181.386C138.567 181.937 137.937 182.352 137.218 182.632L136.672 181.792C137.269 181.568 137.801 181.241 138.268 180.812C138.744 180.383 139.113 179.888 139.374 179.328C139.635 178.759 139.766 178.166 139.766 177.55V176.36H140.816ZM138.408 183.78H146.57V188.022H145.52V184.648H138.408V183.78ZM145.52 175.772H146.57V183.15H145.52V175.772ZM154.326 176.556C155.166 176.556 155.922 176.696 156.594 176.976C157.276 177.256 157.808 177.653 158.19 178.166C158.573 178.67 158.764 179.253 158.764 179.916C158.764 180.579 158.573 181.167 158.19 181.68C157.808 182.184 157.28 182.576 156.608 182.856C155.936 183.136 155.176 183.276 154.326 183.276C153.486 183.276 152.726 183.136 152.044 182.856C151.372 182.576 150.845 182.184 150.462 181.68C150.08 181.167 149.888 180.579 149.888 179.916C149.888 179.253 150.08 178.67 150.462 178.166C150.845 177.653 151.372 177.256 152.044 176.976C152.726 176.696 153.486 176.556 154.326 176.556ZM148.796 185.488H159.898V186.37H148.796V185.488ZM150.896 179.916C150.896 180.411 151.046 180.849 151.344 181.232C151.643 181.605 152.049 181.899 152.562 182.114C153.085 182.319 153.673 182.422 154.326 182.422C154.98 182.422 155.568 182.319 156.09 182.114C156.613 181.899 157.019 181.605 157.308 181.232C157.607 180.849 157.756 180.411 157.756 179.916C157.756 179.431 157.607 178.997 157.308 178.614C157.019 178.231 156.613 177.937 156.09 177.732C155.568 177.517 154.98 177.41 154.326 177.41C153.682 177.41 153.099 177.517 152.576 177.732C152.054 177.937 151.643 178.231 151.344 178.614C151.046 178.997 150.896 179.431 150.896 179.916ZM166.045 185.614V183.262H162.433V179.51H169.713V177.536H162.405V176.682H170.749V180.35H163.469V182.408H171.029V183.262H167.081V185.614H172.135V186.482H161.033V185.614H166.045ZM185.904 175.758V180.686H187.878V181.568H185.904V188.022H184.854V175.758H185.904ZM177.014 176.976H178.05V184.032C180.019 184.032 181.895 183.845 183.678 183.472L183.804 184.354C181.984 184.718 180.042 184.9 177.98 184.9H177.014V176.976ZM198.7 175.772V188.036H197.65V184.886H194.836V184.046H197.65V175.772H198.7ZM188.62 182.1C190.179 182.1 191.611 182.081 192.918 182.044C194.234 182.007 195.48 181.927 196.656 181.806L196.726 182.59C195.615 182.739 194.416 182.842 193.128 182.898V187.644H192.078V182.94C190.921 182.968 189.815 182.982 188.76 182.982L188.62 182.1ZM189.782 176.43H190.832V179.636H195.788V180.49H189.782V176.43ZM28.816 198.36V199.55C28.816 200.138 28.9467 200.703 29.208 201.244C29.4787 201.776 29.8473 202.247 30.314 202.658C30.79 203.059 31.322 203.367 31.91 203.582L31.392 204.408C30.6827 204.137 30.0573 203.745 29.516 203.232C28.984 202.719 28.5873 202.121 28.326 201.44C28.0647 202.177 27.6587 202.826 27.108 203.386C26.5667 203.937 25.9367 204.352 25.218 204.632L24.672 203.792C25.2693 203.568 25.8013 203.241 26.268 202.812C26.744 202.383 27.1127 201.888 27.374 201.328C27.6353 200.759 27.766 200.166 27.766 199.55V198.36H28.816ZM26.408 205.78H34.57V210.022H33.52V206.648H26.408V205.78ZM33.52 197.772H34.57V205.15H33.52V197.772ZM46.3023 197.758V201.44H48.1363V202.308H46.3023V206.634H45.2523V197.758H46.3023ZM37.3983 198.822H42.7883V199.704H38.4343V203.582C39.7223 203.582 40.7583 203.554 41.5423 203.498C42.3357 203.442 43.1243 203.335 43.9083 203.176L44.0343 204.03C43.1943 204.198 42.359 204.315 41.5283 204.38C40.6977 204.436 39.6337 204.464 38.3363 204.464H37.3983V198.822ZM38.7143 205.752H39.7503V208.874H46.8623V209.742H38.7143V205.752ZM62.2832 197.772V210.022H61.2332V197.772H62.2832ZM52.4132 206.872C54.0372 206.097 55.2786 205.127 56.1372 203.96C57.0052 202.784 57.4952 201.449 57.6072 199.956H52.9592V199.088H58.6712C58.6712 200.936 58.2092 202.597 57.2852 204.072C56.3706 205.537 54.9332 206.751 52.9732 207.712L52.4132 206.872ZM69.5075 204.534V203.19H65.9375V200.25H73.1195V198.934H65.9095V198.094H74.1555V201.02H66.9595V202.364H74.4215V203.19H70.5575V204.534H75.5975V205.402H64.4955V204.534H69.5075ZM65.7275 206.354H74.2255V209.896H73.1755V207.222H65.7275V206.354ZM82.2619 197.996C83.6152 197.996 84.6699 198.178 85.4259 198.542C86.1819 198.906 86.5599 199.429 86.5599 200.11C86.5599 200.791 86.1819 201.319 85.4259 201.692C84.6699 202.056 83.6152 202.238 82.2619 202.238C80.9085 202.238 79.8539 202.056 79.0979 201.692C78.3419 201.319 77.9639 200.791 77.9639 200.11C77.9639 199.429 78.3419 198.906 79.0979 198.542C79.8539 198.178 80.9085 197.996 82.2619 197.996ZM76.7319 203.092H87.7919V203.946H76.7319V203.092ZM78.0759 205.024H86.3639V207.74H79.1399V209.056H86.7419V209.882H78.1179V206.97H85.3419V205.836H78.0759V205.024ZM79.0419 200.11C79.0419 200.53 79.3219 200.857 79.8819 201.09C80.4512 201.323 81.2445 201.44 82.2619 201.44C83.2792 201.44 84.0679 201.323 84.6279 201.09C85.1972 200.857 85.4819 200.53 85.4819 200.11C85.4819 199.69 85.1972 199.363 84.6279 199.13C84.0585 198.897 83.2699 198.78 82.2619 198.78C81.2539 198.78 80.4652 198.897 79.8959 199.13C79.3265 199.363 79.0419 199.69 79.0419 200.11ZM96.4788 198.85V201.076C96.4788 201.804 96.6281 202.527 96.9268 203.246C97.2254 203.955 97.6268 204.59 98.1308 205.15C98.6348 205.71 99.1808 206.125 99.7688 206.396L99.1388 207.236C98.4388 206.891 97.8088 206.373 97.2488 205.682C96.6888 204.982 96.2641 204.193 95.9748 203.316C95.6948 204.249 95.2701 205.085 94.7008 205.822C94.1314 206.559 93.4874 207.105 92.7688 207.46L92.1248 206.592C92.7128 206.312 93.2588 205.883 93.7628 205.304C94.2761 204.725 94.6821 204.067 94.9808 203.33C95.2794 202.583 95.4288 201.832 95.4288 201.076V198.85H96.4788ZM101.127 197.758H102.177V210.036H101.127V197.758ZM111.277 198.64V199.508H108.533V200.04C108.533 200.861 108.808 201.617 109.359 202.308C109.91 202.989 110.633 203.484 111.529 203.792L110.983 204.632C110.302 204.389 109.704 204.025 109.191 203.54C108.678 203.055 108.29 202.49 108.029 201.846C107.768 202.546 107.371 203.157 106.839 203.68C106.307 204.203 105.682 204.599 104.963 204.87L104.389 204.044C105.313 203.717 106.06 203.19 106.629 202.462C107.208 201.734 107.497 200.931 107.497 200.054V199.508H104.725V198.64H111.277ZM105.999 205.822H113.923V210.022H112.873V206.676H105.999V205.822ZM112.873 197.772H113.923V201.034H115.757V201.916H113.923V205.136H112.873V197.772ZM119.173 199.9V198.122H120.209V199.9H122.729V200.754H116.639V199.9H119.173ZM117.073 204.38C117.073 203.848 117.185 203.372 117.409 202.952C117.633 202.532 117.941 202.205 118.333 201.972C118.735 201.729 119.187 201.608 119.691 201.608C120.195 201.608 120.648 201.729 121.049 201.972C121.451 202.205 121.763 202.532 121.987 202.952C122.211 203.372 122.323 203.848 122.323 204.38C122.323 204.921 122.211 205.407 121.987 205.836C121.763 206.256 121.451 206.583 121.049 206.816C120.648 207.049 120.195 207.166 119.691 207.166C119.187 207.166 118.735 207.049 118.333 206.816C117.941 206.583 117.633 206.256 117.409 205.836C117.185 205.407 117.073 204.921 117.073 204.38ZM118.011 204.38C118.011 204.931 118.165 205.383 118.473 205.738C118.791 206.093 119.197 206.27 119.691 206.27C120.186 206.27 120.592 206.093 120.909 205.738C121.227 205.383 121.385 204.931 121.385 204.38C121.385 203.829 121.222 203.377 120.895 203.022C120.578 202.667 120.177 202.49 119.691 202.49C119.206 202.49 118.805 202.667 118.487 203.022C118.17 203.377 118.011 203.829 118.011 204.38ZM123.373 198.066H124.367V202.952H126.005V197.772H126.999V210.022H126.005V203.82H124.367V209.406H123.373V198.066ZM133.916 207.558V204.884H130.234V198.64H131.27V200.852H137.626V198.64H138.662V204.884H134.952V207.558H140.006V208.44H128.904V207.558H133.916ZM137.626 204.03V201.72H131.27V204.03H137.626ZM144.402 198.724C144.999 198.724 145.527 198.901 145.984 199.256C146.451 199.601 146.81 200.096 147.062 200.74C147.323 201.375 147.454 202.121 147.454 202.98C147.454 203.839 147.323 204.59 147.062 205.234C146.81 205.878 146.451 206.377 145.984 206.732C145.527 207.077 144.999 207.25 144.402 207.25C143.805 207.25 143.273 207.077 142.806 206.732C142.349 206.377 141.989 205.878 141.728 205.234C141.467 204.581 141.336 203.829 141.336 202.98C141.336 202.131 141.467 201.384 141.728 200.74C141.989 200.096 142.349 199.601 142.806 199.256C143.273 198.901 143.805 198.724 144.402 198.724ZM142.344 202.98C142.344 203.643 142.428 204.226 142.596 204.73C142.773 205.234 143.016 205.626 143.324 205.906C143.641 206.177 144.001 206.312 144.402 206.312C144.803 206.312 145.158 206.177 145.466 205.906C145.783 205.626 146.026 205.234 146.194 204.73C146.371 204.226 146.46 203.643 146.46 202.98C146.46 202.317 146.371 201.739 146.194 201.244C146.026 200.74 145.783 200.353 145.466 200.082C145.158 199.802 144.803 199.662 144.402 199.662C144.001 199.662 143.641 199.802 143.324 200.082C143.016 200.353 142.773 200.74 142.596 201.244C142.428 201.739 142.344 202.317 142.344 202.98ZM149.498 197.772H150.548V202.7H152.578V203.582H150.548V210.022H149.498V197.772ZM156.134 207.558V204.212C155.612 203.941 155.201 203.591 154.902 203.162C154.613 202.723 154.468 202.233 154.468 201.692C154.468 201.067 154.655 200.516 155.028 200.04C155.411 199.564 155.938 199.2 156.61 198.948C157.282 198.687 158.048 198.556 158.906 198.556C159.765 198.556 160.53 198.687 161.202 198.948C161.874 199.2 162.397 199.564 162.77 200.04C163.153 200.516 163.344 201.067 163.344 201.692C163.344 202.224 163.2 202.705 162.91 203.134C162.63 203.563 162.234 203.918 161.72 204.198V207.558H164.478V208.426H153.376V207.558H156.134ZM155.49 201.692C155.49 202.149 155.635 202.551 155.924 202.896C156.214 203.241 156.615 203.512 157.128 203.708C157.651 203.895 158.244 203.988 158.906 203.988C159.569 203.988 160.157 203.895 160.67 203.708C161.193 203.512 161.599 203.241 161.888 202.896C162.187 202.551 162.336 202.149 162.336 201.692C162.336 201.235 162.187 200.833 161.888 200.488C161.599 200.143 161.193 199.877 160.67 199.69C160.157 199.494 159.569 199.396 158.906 199.396C158.244 199.396 157.651 199.494 157.128 199.69C156.615 199.877 156.214 200.143 155.924 200.488C155.635 200.833 155.49 201.235 155.49 201.692ZM160.67 207.558V204.604C160.138 204.744 159.55 204.814 158.906 204.814C158.281 204.814 157.702 204.744 157.17 204.604V207.558H160.67ZM166.635 207.782C166.84 207.782 167.003 207.847 167.125 207.978C167.255 208.099 167.321 208.263 167.321 208.468C167.321 208.683 167.255 208.855 167.125 208.986C167.003 209.117 166.84 209.182 166.635 209.182C166.429 209.182 166.257 209.117 166.117 208.986C165.986 208.846 165.921 208.673 165.921 208.468C165.921 208.263 165.986 208.099 166.117 207.978C166.247 207.847 166.42 207.782 166.635 207.782Z" fill="#AFB8C1"/>
</g>
<g id="Frame 1000004412">
<g id="btn_foodlist">
<rect x="24.5" y="243.5" width="311" height="57" rx="7.5" fill="white"/>
<rect x="24.5" y="243.5" width="311" height="57" rx="7.5" stroke="#ECEEF0"/>
<g id="Frame 1000004408">
<g id="&#236;&#130;&#172;&#235;&#163;&#140;_circle">
<mask id="mask0_1324_13743" style="mask-type:alpha" maskUnits="userSpaceOnUse" x="40" y="259" width="26" height="26">
<circle id="Ellipse 797" cx="53" cy="272" r="13" fill="#D9D9D9"/>
</mask>
<g mask="url(#mask0_1324_13743)">
<circle id="Ellipse 798" cx="53" cy="272" r="13" fill="#D9F4E5"/>
</g>
<g id="&#236;&#130;&#172;&#235;&#163;&#140;" clip-path="url(#clip1_1324_13743)">
<g id="Frame 1000004351">
<g id="Group 1000003997">
<g id="Group 1000003995">
<path id="Rectangle 34625738 (Stroke)" fill-rule="evenodd" clip-rule="evenodd" d="M46.1856 270.121C46.42 269.497 47.0168 269.084 47.6834 269.084H57.6316C58.2982 269.084 58.8949 269.497 59.1294 270.121L61.2113 275.662C61.6044 276.709 60.8311 277.825 59.7135 277.825H45.6015C44.4839 277.825 43.7106 276.709 44.1037 275.662L46.1856 270.121ZM47.6834 270.284C47.5167 270.284 47.3675 270.387 47.3089 270.543L45.227 276.085C45.1287 276.346 45.3221 276.625 45.6015 276.625H59.7135C59.9929 276.625 60.1862 276.346 60.088 276.085L58.0061 270.543C57.9474 270.387 57.7983 270.284 57.6316 270.284H47.6834Z" fill="#40C97F"/>
<path id="Subtract (Stroke)" fill-rule="evenodd" clip-rule="evenodd" d="M50.8357 266.747C51.2848 266.289 51.9021 266 52.5916 266C53.2808 266 53.898 266.289 54.347 266.746C54.5211 266.701 54.7027 266.677 54.8895 266.677C56.3922 266.677 57.4059 268.133 57.4059 269.648C57.4059 269.667 57.4058 269.686 57.4055 269.705C57.4003 270.033 57.1332 270.296 56.8056 270.296H48.3748C48.0472 270.296 47.7801 270.033 47.7749 269.705C47.7746 269.686 47.7744 269.667 47.7744 269.648C47.7744 268.133 48.7881 266.677 50.2909 266.677C50.4785 266.677 50.6608 266.701 50.8357 266.747ZM52.5916 267.2C52.1638 267.2 51.772 267.424 51.5258 267.792C51.3563 268.045 51.0235 268.131 50.7523 267.992C50.6057 267.916 50.4507 267.877 50.2909 267.877C49.7873 267.877 49.2244 268.326 49.0381 269.096H56.1423C55.9559 268.326 55.3931 267.877 54.8895 267.877C54.7301 267.877 54.5757 267.916 54.4295 267.991C54.1585 268.13 53.8263 268.044 53.6569 267.791C53.4107 267.423 53.0191 267.2 52.5916 267.2Z" fill="#40C97F"/>
</g>
<g id="Group 1000003994">
<path id="Vector (Stroke)" fill-rule="evenodd" clip-rule="evenodd" d="M53.402 274.203C53.3312 273.86 52.9721 273.548 52.6211 273.563L52.6181 273.563L52.6181 273.563C52.5049 273.567 52.3531 273.622 52.2079 273.74C52.0643 273.857 51.962 274.008 51.9201 274.153L51.9181 274.16L51.918 274.16C51.8809 274.282 51.8848 274.37 51.9037 274.437C51.923 274.506 51.9676 274.588 52.0636 274.682C52.2066 274.814 52.3814 274.888 52.6215 274.915C52.6677 274.905 52.7125 274.897 52.7514 274.89C52.7644 274.888 52.7767 274.885 52.7882 274.883C52.8614 274.87 52.9158 274.858 52.9633 274.844C53.3209 274.735 53.4561 274.461 53.4023 274.204L53.402 274.203L53.402 274.203ZM54.3812 274C54.2249 273.244 53.4854 272.527 52.5809 272.564C52.206 272.578 51.8522 272.741 51.5768 272.965C51.3003 273.19 51.0673 273.505 50.9603 273.873C50.8762 274.151 50.8641 274.433 50.9408 274.707C51.0172 274.98 51.1725 275.211 51.3707 275.403L51.3706 275.403L51.3778 275.41C51.7446 275.752 52.1782 275.886 52.6161 275.918L52.6925 275.924L52.7671 275.906C52.8142 275.895 52.861 275.887 52.9216 275.875C52.937 275.873 52.9533 275.87 52.9708 275.866C53.0493 275.852 53.147 275.833 53.2474 275.803L53.2474 275.803L53.2514 275.802C54.0439 275.562 54.5538 274.825 54.3812 274Z" fill="#40C97F"/>
<path id="Vector_2" d="M51.8933 271.1C52.1638 271.1 52.3645 271.31 52.3645 271.58C52.3645 271.842 52.1551 272.043 51.8933 272.043C51.6228 272.043 51.4134 271.824 51.4221 271.563C51.4221 271.301 51.6316 271.1 51.8933 271.1Z" fill="#40C97F"/>
<path id="Vector_3" d="M54.6678 273.055C54.3973 273.055 54.1966 272.836 54.2054 272.557C54.2054 272.295 54.4235 272.104 54.694 272.104C54.9558 272.104 55.1565 272.322 55.1565 272.583C55.1565 272.854 54.9383 273.055 54.6678 273.055Z" fill="#40C97F"/>
<path id="Vector_4" d="M53.8828 271.58C53.8828 271.851 53.6646 272.051 53.3941 272.051C53.1323 272.051 52.9316 271.842 52.9316 271.571C52.9404 271.301 53.1498 271.1 53.4203 271.1C53.6821 271.1 53.8828 271.31 53.8828 271.58Z" fill="#40C97F"/>
<path id="Vector_5" d="M50.6284 273.054C50.3579 273.054 50.1572 272.845 50.1572 272.574C50.1572 272.313 50.3667 272.112 50.6372 272.112C50.9077 272.112 51.1084 272.321 51.1084 272.592C51.1084 272.854 50.8989 273.054 50.6284 273.054Z" fill="#40C97F"/>
</g>
</g>
</g>
</g>
</g>
<path id="&#235;&#130;&#152;&#236;&#154;&#176; &#236;&#150;&#180;&#235;&#141;&#156;&#237;&#138;&#184; &#236;&#138;&#164;&#235;&#170;&#176;&#235;&#184;&#140;&#235;&#166;&#172;&#235;&#147;&#156;" d="M84.7 265.41H94.96V266.544H86.05V270.36H95.176V271.476H84.7V265.41ZM82.72 273.636H96.994V274.752H93.232V280.332H91.9V274.752H87.814V280.332H86.464V274.752H82.72V273.636ZM98.4404 265.932H105.586V268.956H109.276V264.582H110.626V276.066H109.276V270.072H105.586V273.24H98.4404V265.932ZM104.272 267.03H99.7544V272.142H104.272V267.03ZM100.618 275.022H101.968V278.838H111.076V279.954H100.618V275.022Z" fill="#4F5357"/>
</g>
<path id="50g" d="M292.301 272.862L291.005 272.646L291.419 265.986H297.899V267.138H292.661L292.409 271.17C293.075 270.792 293.849 270.558 294.551 270.558C297.125 270.558 298.943 272.322 298.943 274.824C298.943 277.38 297.125 279.18 294.551 279.18C292.553 279.18 290.843 277.83 290.393 275.922L291.653 275.634C291.959 277.002 293.147 277.956 294.551 277.956C296.369 277.956 297.647 276.66 297.647 274.824C297.647 273.042 296.369 271.782 294.551 271.782C293.777 271.782 292.841 272.232 292.301 272.862ZM304.797 277.974C306.741 277.974 308.109 275.706 308.109 272.502C308.109 269.298 306.741 267.048 304.797 267.048C302.835 267.048 301.467 269.298 301.467 272.502C301.467 275.706 302.835 277.974 304.797 277.974ZM304.797 279.126C302.079 279.126 300.171 276.39 300.171 272.502C300.171 268.632 302.079 265.896 304.797 265.896C307.497 265.896 309.405 268.632 309.405 272.502C309.405 276.39 307.497 279.126 304.797 279.126ZM314.65 277.938C316.126 277.938 317.296 276.57 317.296 274.914C317.296 273.294 316.108 271.872 314.65 271.872C313.084 271.872 311.986 273.15 311.986 274.914C311.986 276.696 313.084 277.938 314.65 277.938ZM318.592 278.514C318.592 280.944 316.99 282.834 314.542 282.834C313.21 282.834 312.004 282.222 311.158 280.926L312.238 280.278C312.814 281.232 313.624 281.664 314.542 281.664C316.252 281.664 317.296 280.278 317.296 278.496V277.542C316.702 278.46 315.622 279.108 314.632 279.108C312.328 279.108 310.69 277.362 310.69 274.914C310.69 272.484 312.328 270.702 314.632 270.702C315.766 270.702 316.756 271.296 317.296 272.214V270.702H318.592V278.514Z" fill="#4F5357"/>
</g>
<g id="btn_foodlist_2">
<rect x="24.5" y="309.5" width="311" height="57" rx="7.5" fill="white"/>
<rect x="24.5" y="309.5" width="311" height="57" rx="7.5" stroke="#ECEEF0"/>
<g id="Frame 1000004408_2">
<g id="&#236;&#158;&#144;&#236;&#151;&#176;&#236;&#139;&#157;_circle">
<mask id="mask1_1324_13743" style="mask-type:alpha" maskUnits="userSpaceOnUse" x="40" y="325" width="26" height="26">
<circle id="Ellipse 797_2" cx="53" cy="338" r="13" fill="#D9D9D9"/>
</mask>
<g mask="url(#mask1_1324_13743)">
<circle id="Ellipse 798_2" cx="53" cy="338" r="13" fill="#D9F4E5"/>
</g>
<g id="&#236;&#158;&#144;&#236;&#151;&#176;&#236;&#139;&#157;" clip-path="url(#clip2_1324_13743)">
<g id="Frame 1000004352">
<g id="Group 1000004024">
<path id="Union" fill-rule="evenodd" clip-rule="evenodd" d="M59.3687 336.905C59.1549 337.158 59.1869 337.537 59.4401 337.751C59.7564 338.018 59.744 338.216 59.7248 338.32C59.711 338.394 59.6813 338.463 59.652 338.515C59.6379 338.54 59.6256 338.558 59.6185 338.568L59.6144 338.573L59.3445 338.893C58.1481 338.154 56.5396 338.502 55.7727 339.737L52.6708 344.734C52.1594 345.558 52.3297 346.633 53.0709 347.258C53.812 347.884 54.8997 347.871 55.626 347.228L60.0307 343.33C61.1198 342.366 61.1918 340.722 60.2616 339.667L60.5259 339.354L60.5305 339.349L60.5364 339.343C60.545 339.334 60.5609 339.319 60.5832 339.301C60.6296 339.263 60.692 339.222 60.7629 339.196C60.8624 339.16 61.0556 339.114 61.372 339.381C61.6253 339.595 62.0038 339.563 62.2175 339.309C62.4311 339.056 62.399 338.677 62.1457 338.464C61.9549 338.303 61.7644 338.187 61.5778 338.107L61.7947 337.85C62.0085 337.597 61.9764 337.219 61.7232 337.005C61.4699 336.791 61.0914 336.823 60.8777 337.076L60.6608 337.333C60.5513 337.163 60.4048 336.995 60.2142 336.834C59.961 336.62 59.5825 336.652 59.3687 336.905ZM57.0388 340.073L57.9406 340.834C58.1517 341.012 58.1784 341.327 58.0003 341.538C57.8222 341.749 57.5067 341.776 57.2957 341.598L56.4651 340.897L55.314 342.752L55.5809 342.977C55.792 343.155 55.8187 343.47 55.6406 343.681C55.4625 343.892 55.1471 343.919 54.936 343.741L54.781 343.61L53.6904 345.367C53.4931 345.685 53.5588 346.1 53.8448 346.341C54.1308 346.583 54.5505 346.578 54.8307 346.33L57.6556 343.83L57.3117 343.539C57.1006 343.361 57.0739 343.046 57.252 342.835C57.4301 342.624 57.7456 342.597 57.9566 342.775L58.4124 343.16L59.2355 342.432C59.875 341.866 59.8632 340.864 59.2106 340.313L58.8847 340.038C58.3338 339.573 57.5429 339.613 57.0388 340.073Z" fill="#40C97F"/>
<path id="Union_2" fill-rule="evenodd" clip-rule="evenodd" d="M44.4579 334.234C44.2121 334.375 44.1273 334.689 44.2685 334.935C44.4097 335.181 44.7235 335.266 44.9694 335.124C45.2567 334.959 45.6237 335.058 45.7887 335.346L46.7838 337.078L47.3523 336.751L46.3572 335.019C46.1923 334.732 46.2911 334.366 46.5781 334.2C46.8236 334.059 46.9083 333.745 46.7671 333.5C46.6259 333.254 46.3121 333.169 46.0663 333.31C45.912 333.399 45.8206 333.555 45.8095 333.723C45.7963 333.923 45.6838 334.103 45.5097 334.203C45.3356 334.303 45.1231 334.31 44.9434 334.22C44.7932 334.145 44.6122 334.146 44.4579 334.234ZM43.228 335.533C42.7566 334.712 43.0397 333.665 43.8602 333.194C44.1567 333.023 44.4827 332.952 44.8001 332.968C44.946 332.686 45.1721 332.44 45.4685 332.27C46.289 331.798 47.3363 332.081 47.8077 332.902C48.1737 333.539 48.0848 334.313 47.6426 334.848L48.63 336.567L51.8991 339.023C53.8586 340.496 53.674 343.492 51.5485 344.713C49.4231 345.934 46.7418 344.584 46.4568 342.15L45.9816 338.091L44.9933 336.37C44.3082 336.483 43.5942 336.17 43.228 335.533ZM47.205 338.22L47.6486 342.01C47.8335 343.589 49.5724 344.465 50.9508 343.673C52.3292 342.881 52.4489 340.938 51.1781 339.983L48.1279 337.69L47.205 338.22ZM50.8971 340.971C51.0748 340.869 51.1361 340.642 51.0341 340.464C50.932 340.286 50.7051 340.225 50.5274 340.327C50.3497 340.429 50.2883 340.656 50.3904 340.834C50.4925 341.011 50.7194 341.073 50.8971 340.971ZM50.4374 341.662C50.5395 341.84 50.4782 342.067 50.3004 342.169C50.1227 342.271 49.8959 342.21 49.7938 342.032C49.6917 341.854 49.753 341.627 49.9307 341.525C50.1084 341.423 50.3353 341.484 50.4374 341.662ZM51.4508 341.935C51.6285 341.833 51.6899 341.607 51.5878 341.429C51.4857 341.251 51.2588 341.19 51.0811 341.292C50.9034 341.394 50.8421 341.621 50.9442 341.799C51.0462 341.976 51.2731 342.038 51.4508 341.935Z" fill="#40C97F"/>
<path id="Union_3" fill-rule="evenodd" clip-rule="evenodd" d="M56.0533 329.612L56.9319 334.776C56.1841 334.833 55.4303 334.762 54.7037 334.565C53.9772 334.367 53.2916 334.045 52.6763 333.616L56.0533 329.612ZM58.1365 334.7L58.1401 334.722L58.4032 336.269C58.5035 336.858 58.107 337.457 57.4673 337.529C56.2964 337.66 55.1097 337.568 53.9699 337.258C52.83 336.947 51.761 336.424 50.8184 335.717C50.3034 335.331 50.2654 334.614 50.6508 334.157L51.6627 332.957L51.6766 332.94L55.275 328.673C55.8785 327.957 57.0433 328.275 57.2003 329.198L58.1365 334.7ZM57.1998 336.35L57.1339 335.963C56.2133 336.047 55.2833 335.966 54.3883 335.722C53.4932 335.478 52.6507 335.076 51.9 334.537L51.6469 334.837C52.4417 335.413 53.3353 335.841 54.2853 336.1C55.2354 336.359 56.2228 336.443 57.1998 336.35ZM55.433 332.09C55.6012 332.141 55.7788 332.046 55.8295 331.878C55.8802 331.709 55.8767 331.227 55.7085 331.176C55.5402 331.126 55.2709 331.526 55.2202 331.694C55.1695 331.862 55.2647 332.04 55.433 332.09ZM54.4564 333.126C54.4057 333.294 54.2282 333.389 54.06 333.338C53.8917 333.288 53.7964 333.11 53.8471 332.942C53.8978 332.774 54.1672 332.374 54.3354 332.424C54.5037 332.475 54.5071 332.957 54.4564 333.126ZM55.8881 333.889C56.0563 333.94 56.2338 333.845 56.2845 333.676C56.3353 333.508 56.3318 333.026 56.1635 332.975C55.9953 332.925 55.726 333.324 55.6753 333.493C55.6245 333.661 55.7198 333.838 55.8881 333.889Z" fill="#40C97F"/>
</g>
</g>
</g>
</g>
<path id="&#235;&#130;&#152;&#236;&#154;&#176; &#236;&#150;&#180;&#235;&#141;&#156;&#237;&#138;&#184; &#236;&#138;&#164;&#235;&#170;&#176;&#235;&#184;&#140;&#235;&#166;&#172;&#235;&#147;&#156;_2" d="M93.466 330.564H94.816V336.792H97.426V337.944H94.816V346.314H93.466V330.564ZM83.386 331.914H84.718V336.09H89.362V331.914H90.694V342.516H83.386V331.914ZM84.718 337.17V341.4H89.362V337.17H84.718ZM108.448 330.546H109.798V336.882H112.336V338.016H109.798V346.314H108.448V330.546ZM98.3684 332.112H99.7004V341.184C101.986 341.184 104.362 341.004 106.936 340.464L107.098 341.598C104.398 342.138 102.004 342.3 99.6104 342.3H98.3684V332.112ZM123.431 330.546H124.781V336.882H127.319V338.016H124.781V346.314H123.431V330.546ZM113.351 332.112H114.683V341.184C116.969 341.184 119.345 341.004 121.919 340.464L122.081 341.598C119.381 342.138 116.987 342.3 114.593 342.3H113.351V332.112Z" fill="#4F5357"/>
</g>
<path id="50g_2" d="M287.683 332.022V345H286.387V333.498L284.371 334.902L283.651 333.912L286.387 332.022H287.683ZM294.35 343.974C296.294 343.974 297.662 341.706 297.662 338.502C297.662 335.298 296.294 333.048 294.35 333.048C292.388 333.048 291.02 335.298 291.02 338.502C291.02 341.706 292.388 343.974 294.35 343.974ZM294.35 345.126C291.632 345.126 289.724 342.39 289.724 338.502C289.724 334.632 291.632 331.896 294.35 331.896C297.05 331.896 298.958 334.632 298.958 338.502C298.958 342.39 297.05 345.126 294.35 345.126ZM304.797 343.974C306.741 343.974 308.109 341.706 308.109 338.502C308.109 335.298 306.741 333.048 304.797 333.048C302.835 333.048 301.467 335.298 301.467 338.502C301.467 341.706 302.835 343.974 304.797 343.974ZM304.797 345.126C302.079 345.126 300.171 342.39 300.171 338.502C300.171 334.632 302.079 331.896 304.797 331.896C307.497 331.896 309.405 334.632 309.405 338.502C309.405 342.39 307.497 345.126 304.797 345.126ZM314.65 343.938C316.126 343.938 317.296 342.57 317.296 340.914C317.296 339.294 316.108 337.872 314.65 337.872C313.084 337.872 311.986 339.15 311.986 340.914C311.986 342.696 313.084 343.938 314.65 343.938ZM318.592 344.514C318.592 346.944 316.99 348.834 314.542 348.834C313.21 348.834 312.004 348.222 311.158 346.926L312.238 346.278C312.814 347.232 313.624 347.664 314.542 347.664C316.252 347.664 317.296 346.278 317.296 344.496V343.542C316.702 344.46 315.622 345.108 314.632 345.108C312.328 345.108 310.69 343.362 310.69 340.914C310.69 338.484 312.328 336.702 314.632 336.702C315.766 336.702 316.756 337.296 317.296 338.214V336.702H318.592V344.514Z" fill="#4F5357"/>
</g>
<g id="btn_foodlist_3">
<rect x="24.5" y="375.5" width="311" height="57" rx="7.5" fill="white"/>
<rect x="24.5" y="375.5" width="311" height="57" rx="7.5" stroke="#ECEEF0"/>
<g id="Frame 1000004408_3">
<g id="&#234;&#176;&#132;&#236;&#139;&#157;_circle">
<mask id="mask2_1324_13743" style="mask-type:alpha" maskUnits="userSpaceOnUse" x="40" y="391" width="26" height="26">
<circle id="Ellipse 797_3" cx="53" cy="404" r="13" fill="#D9D9D9"/>
</mask>
<g mask="url(#mask2_1324_13743)">
<circle id="Ellipse 798_3" cx="53" cy="404" r="13" fill="#D9F4E5"/>
</g>
<g id="&#237;&#143;&#172;&#236;&#158;&#165;&#234;&#176;&#132;&#236;&#139;&#157;" clip-path="url(#clip3_1324_13743)">
<g id="Frame 1000004353">
<g id="Group 1000004023">
<path id="Rectangle 34625740 (Stroke)" fill-rule="evenodd" clip-rule="evenodd" d="M47.001 399C47.001 398.669 47.2696 398.4 47.601 398.4H57.601C57.9323 398.4 58.201 398.669 58.201 399V409C58.201 409.332 57.9323 409.6 57.601 409.6H47.601C47.2696 409.6 47.001 409.332 47.001 409V399ZM48.201 399.6V408.4H57.001V399.6H48.201Z" fill="#40C97F"/>
<path id="Vector 1771 (Stroke)" fill-rule="evenodd" clip-rule="evenodd" d="M47.3714 395.446C47.5956 395.353 47.8536 395.405 48.0252 395.576L48.601 396.152L49.1767 395.576C49.411 395.342 49.7909 395.342 50.0252 395.576L50.601 396.152L51.1767 395.576C51.411 395.342 51.7909 395.342 52.0252 395.576L52.601 396.152L53.1767 395.576C53.411 395.342 53.7909 395.342 54.0252 395.576L54.601 396.152L55.1767 395.576C55.411 395.342 55.7909 395.342 56.0252 395.576L56.601 396.152L57.1767 395.576C57.3483 395.405 57.6064 395.353 57.8306 395.446C58.0548 395.539 58.201 395.758 58.201 396V399H57.001V397.448C56.7654 397.659 56.4031 397.651 56.1767 397.425L55.601 396.849L55.0252 397.425C54.7909 397.659 54.411 397.659 54.1767 397.425L53.601 396.849L53.0252 397.425C52.7909 397.659 52.411 397.659 52.1767 397.425L51.601 396.849L51.0252 397.425C50.7909 397.659 50.411 397.659 50.1767 397.425L49.601 396.849L49.0252 397.425C48.7989 397.651 48.4366 397.659 48.201 397.448V399H47.001V396C47.001 395.758 47.1472 395.539 47.3714 395.446Z" fill="#40C97F"/>
<path id="Vector 1772 (Stroke)" fill-rule="evenodd" clip-rule="evenodd" d="M57.8298 412.554C57.6056 412.647 57.3475 412.595 57.1759 412.424L56.6002 411.848L56.0245 412.424C55.7901 412.658 55.4102 412.658 55.1759 412.424L54.6002 411.848L54.0245 412.424C53.7901 412.658 53.4102 412.658 53.1759 412.424L52.6002 411.848L52.0245 412.424C51.7901 412.658 51.4102 412.658 51.1759 412.424L50.6002 411.848L50.0245 412.424C49.7901 412.658 49.4102 412.658 49.1759 412.424L48.6002 411.848L48.0245 412.424C47.8529 412.595 47.5948 412.647 47.3706 412.554C47.1464 412.461 47.0002 412.242 47.0002 412L47.0002 409L48.2002 409L48.2002 410.552C48.4358 410.341 48.7981 410.349 49.0245 410.575L49.6002 411.151L50.1759 410.575C50.4102 410.341 50.7901 410.341 51.0245 410.575L51.6002 411.151L52.1759 410.575C52.4102 410.341 52.7901 410.341 53.0245 410.575L53.6002 411.151L54.1759 410.575C54.4102 410.341 54.7901 410.341 55.0245 410.575L55.6002 411.151L56.1759 410.575C56.4023 410.349 56.7646 410.341 57.0002 410.552L57.0002 409L58.2002 409L58.2002 412C58.2002 412.242 58.054 412.461 57.8298 412.554Z" fill="#40C97F"/>
<g id="Group 1000003994_2">
<path id="Vector (Stroke)_2" fill-rule="evenodd" clip-rule="evenodd" d="M53.3454 405.103C53.2746 404.76 52.9155 404.448 52.5644 404.463L52.5615 404.463L52.5615 404.463C52.4482 404.467 52.2965 404.522 52.1512 404.64C52.0076 404.757 51.9054 404.908 51.8635 405.053L51.8614 405.06L51.8614 405.06C51.8243 405.182 51.8281 405.269 51.8471 405.337C51.8664 405.406 51.911 405.488 52.007 405.582C52.15 405.714 52.3247 405.788 52.5649 405.815C52.6111 405.805 52.6558 405.797 52.6948 405.79C52.7077 405.787 52.72 405.785 52.7315 405.783C52.8047 405.77 52.8592 405.758 52.9067 405.744C53.2643 405.635 53.3994 405.361 53.3457 405.104L53.3454 405.103L53.3454 405.103ZM54.3246 404.9C54.1682 404.144 53.4288 403.427 52.5243 403.464C52.1494 403.478 51.7956 403.641 51.5202 403.865C51.2437 404.089 51.0106 404.404 50.9036 404.772C50.8196 405.051 50.8074 405.333 50.8842 405.607C50.9606 405.88 51.1158 406.111 51.314 406.303L51.314 406.303L51.3211 406.31C51.688 406.652 52.1215 406.786 52.5595 406.818L52.6359 406.824L52.7105 406.806C52.7576 406.795 52.8044 406.786 52.865 406.775C52.8804 406.773 52.8967 406.77 52.9141 406.766C52.9926 406.752 53.0904 406.733 53.1908 406.703L53.1908 406.703L53.1947 406.702C53.9873 406.462 54.4972 405.725 54.3246 404.9Z" fill="#40C97F"/>
<path id="Vector_6" d="M51.8367 402C52.1072 402 52.3079 402.209 52.3079 402.48C52.3079 402.742 52.0985 402.942 51.8367 402.942C51.5662 402.942 51.3568 402.724 51.3655 402.462C51.3655 402.201 51.5749 402 51.8367 402Z" fill="#40C97F"/>
<path id="Vector_7" d="M54.6112 403.955C54.3407 403.955 54.14 403.736 54.1487 403.457C54.1487 403.195 54.3669 403.003 54.6374 403.003C54.8991 403.003 55.0998 403.222 55.0998 403.483C55.0998 403.754 54.8817 403.955 54.6112 403.955Z" fill="#40C97F"/>
<path id="Vector_8" d="M53.8261 402.48C53.8261 402.75 53.608 402.951 53.3375 402.951C53.0757 402.951 52.875 402.742 52.875 402.471C52.8837 402.201 53.0931 402 53.3637 402C53.6254 402 53.8261 402.209 53.8261 402.48Z" fill="#40C97F"/>
<path id="Vector_9" d="M50.5718 403.954C50.3013 403.954 50.1006 403.745 50.1006 403.474C50.1006 403.212 50.31 403.012 50.5805 403.012C50.851 403.012 51.0517 403.221 51.0517 403.492C51.0517 403.753 50.8423 403.954 50.5718 403.954Z" fill="#40C97F"/>
</g>
</g>
</g>
</g>
</g>
<path id="&#235;&#130;&#152;&#236;&#154;&#176; &#236;&#150;&#180;&#235;&#141;&#156;&#237;&#138;&#184; &#236;&#138;&#164;&#235;&#170;&#176;&#235;&#184;&#140;&#235;&#166;&#172;&#235;&#147;&#156;_3" d="M93.322 398.004V411H92.026L84.844 400.308V411H83.548V398.004H84.844L92.026 408.66V398.004H93.322ZM98.9274 411.126C96.6234 411.126 94.9854 409.38 94.9854 406.932C94.9854 404.484 96.6234 402.72 98.9274 402.72C99.8454 402.72 100.871 403.224 101.609 404.268V402.702H102.905V411H101.609V409.56C100.853 410.694 99.8634 411.126 98.9274 411.126ZM98.9454 409.956C100.349 409.956 101.609 408.696 101.627 406.932C101.609 405.186 100.349 403.89 98.9454 403.89C97.3794 403.89 96.2814 405.15 96.2814 406.932C96.2814 408.696 97.3794 409.956 98.9454 409.956ZM105.376 411V403.854H103.882V402.702H105.376V399.84H106.672V402.702H108.634V403.854H106.672V411H105.376ZM110.821 407.58C110.821 408.93 111.649 409.974 112.837 409.974C114.223 409.974 115.195 409.092 115.195 407.76V402.702H116.509V411H115.195V409.938C114.637 410.64 113.665 411.144 112.837 411.144C110.893 411.144 109.507 409.65 109.507 407.724V402.702H110.821V407.58ZM118.265 411V402.702H119.561V404.16C120.119 403.224 121.271 402.576 122.459 402.612V403.89C120.929 403.854 119.561 405.168 119.561 406.734V411H118.265ZM126.742 411.126C124.438 411.126 122.8 409.38 122.8 406.932C122.8 404.484 124.438 402.72 126.742 402.72C127.66 402.72 128.686 403.224 129.424 404.268V402.702H130.72V411H129.424V409.56C128.668 410.694 127.678 411.126 126.742 411.126ZM126.76 409.956C128.164 409.956 129.424 408.696 129.442 406.932C129.424 405.186 128.164 403.89 126.76 403.89C125.194 403.89 124.096 405.15 124.096 406.932C124.096 408.696 125.194 409.956 126.76 409.956ZM132.426 398.364H133.722V411H132.426V398.364ZM145.441 411.144C141.679 411.144 139.033 408.408 139.033 404.502C139.033 400.596 141.679 397.86 145.441 397.86C147.223 397.86 148.825 398.616 149.977 399.804L149.095 400.524C148.177 399.57 146.845 399.012 145.441 399.012C142.453 399.012 140.347 401.28 140.347 404.502C140.347 407.724 142.453 409.992 145.441 409.992C146.845 409.992 148.141 409.434 149.059 408.48L149.977 409.2C148.825 410.388 147.223 411.144 145.441 411.144ZM154.961 409.956C156.527 409.956 157.625 408.696 157.625 406.914C157.625 405.132 156.527 403.872 154.961 403.872C153.395 403.872 152.315 405.114 152.315 406.914C152.315 408.714 153.395 409.956 154.961 409.956ZM154.961 402.702C157.283 402.702 158.921 404.466 158.921 406.914C158.921 409.362 157.283 411.126 154.961 411.126C152.657 411.126 151.019 409.362 151.019 406.914C151.019 404.466 152.657 402.702 154.961 402.702ZM160.153 411V402.702H161.449V404.16C162.007 403.224 163.159 402.576 164.347 402.612V403.89C162.817 403.854 161.449 405.168 161.449 406.734V411H160.153ZM168.649 411.09C166.327 411.09 164.689 409.344 164.689 406.896C164.689 404.448 166.327 402.702 168.649 402.702C171.205 402.702 171.979 404.754 172.051 404.97C172.555 406.302 172.375 407.49 172.375 407.49H166.039C166.255 408.912 167.335 409.92 168.649 409.92C170.431 409.92 171.061 408.768 171.169 408.606L172.177 409.182C171.763 410.1 170.593 411.09 168.649 411.09ZM171.097 406.32C170.953 404.934 170.305 403.872 168.649 403.872C167.317 403.872 166.255 404.862 166.039 406.338L171.097 406.32Z" fill="#4F5357"/>
</g>
<path id="50g_3" d="M294.728 410.01C296.456 410.01 297.662 408.894 297.662 407.31C297.662 405.798 296.456 404.736 294.728 404.736C293 404.736 291.794 405.798 291.794 407.31C291.794 408.894 293 410.01 294.728 410.01ZM292.136 401.298C292.136 402.63 293.198 403.566 294.728 403.566C296.258 403.566 297.338 402.63 297.338 401.298C297.338 399.894 296.258 398.922 294.728 398.922C293.198 398.922 292.136 399.894 292.136 401.298ZM296.87 404.124C298.094 404.844 298.958 406.14 298.958 407.274C298.958 409.56 297.212 411.162 294.728 411.162C292.244 411.162 290.498 409.56 290.498 407.274C290.498 406.14 291.362 404.844 292.604 404.124C291.56 403.422 290.84 402.27 290.84 401.334C290.84 399.246 292.442 397.77 294.728 397.77C297.014 397.77 298.634 399.246 298.634 401.334C298.634 402.27 297.914 403.422 296.87 404.124ZM304.797 409.974C306.741 409.974 308.109 407.706 308.109 404.502C308.109 401.298 306.741 399.048 304.797 399.048C302.835 399.048 301.467 401.298 301.467 404.502C301.467 407.706 302.835 409.974 304.797 409.974ZM304.797 411.126C302.079 411.126 300.171 408.39 300.171 404.502C300.171 400.632 302.079 397.896 304.797 397.896C307.497 397.896 309.405 400.632 309.405 404.502C309.405 408.39 307.497 411.126 304.797 411.126ZM314.65 409.938C316.126 409.938 317.296 408.57 317.296 406.914C317.296 405.294 316.108 403.872 314.65 403.872C313.084 403.872 311.986 405.15 311.986 406.914C311.986 408.696 313.084 409.938 314.65 409.938ZM318.592 410.514C318.592 412.944 316.99 414.834 314.542 414.834C313.21 414.834 312.004 414.222 311.158 412.926L312.238 412.278C312.814 413.232 313.624 413.664 314.542 413.664C316.252 413.664 317.296 412.278 317.296 410.496V409.542C316.702 410.46 315.622 411.108 314.632 411.108C312.328 411.108 310.69 409.362 310.69 406.914C310.69 404.484 312.328 402.702 314.632 402.702C315.766 402.702 316.756 403.296 317.296 404.214V402.702H318.592V410.514Z" fill="#4F5357"/>
</g>
</g>
</g>
<g id="progress_bar">
<rect id="Rectangle 34625139" x="24" y="99" width="48" height="4" rx="2" fill="#40C97F"/>
<rect id="Rectangle 34625136" x="77" y="99" width="48" height="4" rx="2" fill="#40C97F"/>
<rect id="Rectangle 34625137" x="130" y="99" width="48" height="4" rx="2" fill="#40C97F"/>
<rect id="Rectangle 34625138" x="183" y="99" width="48" height="4" rx="2" fill="#40C97F"/>
<rect id="Rectangle 34625140" x="236" y="99" width="48" height="4" rx="2" fill="#40C97F"/>
<rect id="Rectangle 34625141" x="289" y="99" width="48" height="4" rx="2" fill="#40C97F"/>
</g>
<g id="btn_cta">
<rect x="24" y="707" width="312" height="57" rx="8" fill="#4F5357"/>
<path id="&#234;&#176;&#128;&#236;&#158;&#133; &#236;&#153;&#132;&#235;&#163;&#140;" d="M169.804 728.176C170.572 728.176 171.25 728.308 171.838 728.572C172.438 728.836 172.906 729.208 173.242 729.688C173.578 730.168 173.746 730.72 173.746 731.344C173.746 732.148 173.47 732.832 172.918 733.396C172.366 733.948 171.634 734.296 170.722 734.44V735.844C172.15 735.772 173.494 735.646 174.754 735.466L174.88 736.744C173.428 737.02 171.91 737.2 170.326 737.284C168.754 737.356 167.044 737.392 165.196 737.392L164.98 735.97C166.672 735.97 167.998 735.952 168.958 735.916V734.458C168.022 734.314 167.272 733.966 166.708 733.414C166.144 732.85 165.862 732.16 165.862 731.344C165.862 730.72 166.03 730.168 166.366 729.688C166.702 729.208 167.164 728.836 167.752 728.572C168.352 728.308 169.036 728.176 169.804 728.176ZM167.194 738.616H168.976V741.622H178.012V743.062H167.194V738.616ZM167.518 731.344C167.518 731.908 167.728 732.358 168.148 732.694C168.568 733.018 169.12 733.18 169.804 733.18C170.488 733.18 171.04 733.018 171.46 732.694C171.88 732.358 172.09 731.908 172.09 731.344C172.09 730.792 171.88 730.348 171.46 730.012C171.04 729.676 170.488 729.508 169.804 729.508C169.12 729.508 168.568 729.676 168.148 730.012C167.728 730.348 167.518 730.792 167.518 731.344ZM175.69 727.492H177.454V732.712H179.686V734.17H177.454V739.642H175.69V727.492ZM184.436 740.056V737.266H182.294V732.172H191.51V729.994H182.258V728.59H193.256V733.558H184.04V735.826H193.616V737.266H191.24V740.056H194.984V741.496H180.548V740.056H184.436ZM189.512 740.056V737.266H186.182V740.056H189.512Z" fill="white"/>
</g>
<g id="add" filter="url(#filter0_d_1324_13743)">
<rect x="107" y="615" width="146" height="42" rx="21" fill="#40C97F"/>
<rect x="107.5" y="615.5" width="145" height="41" rx="20.5" stroke="#8CDEB2"/>
<g id="Group 1000003411">
<g id="Frame 1000004234">
<g id="ph:plus">
<path id="Vector_10" d="M145.75 636C145.75 636.215 145.664 636.422 145.512 636.575C145.36 636.727 145.153 636.812 144.938 636.812H136.812V644.938C136.812 645.153 136.727 645.36 136.575 645.512C136.422 645.664 136.215 645.75 136 645.75C135.785 645.75 135.578 645.664 135.425 645.512C135.273 645.36 135.188 645.153 135.188 644.938V636.812H127.062C126.847 636.812 126.64 636.727 126.488 636.575C126.336 636.422 126.25 636.215 126.25 636C126.25 635.785 126.336 635.578 126.488 635.425C126.64 635.273 126.847 635.188 127.062 635.188H135.188V627.062C135.188 626.847 135.273 626.64 135.425 626.488C135.578 626.336 135.785 626.25 136 626.25C136.215 626.25 136.422 626.336 136.575 626.488C136.727 626.64 136.812 626.847 136.812 627.062V635.188H144.938C145.153 635.188 145.36 635.273 145.512 635.425C145.664 635.578 145.75 635.785 145.75 636Z" fill="white"/>
</g>
<path id="&#236;&#139;&#157;&#235;&#139;&#168; &#236;&#182;&#148;&#234;&#176;&#128;&#237;&#149;&#152;&#234;&#184;&#176;" d="M154.776 629.712V631.072C154.776 632.043 155.075 632.928 155.672 633.728C156.269 634.517 157.107 635.088 158.184 635.44L157.336 636.816C156.536 636.549 155.848 636.16 155.272 635.648C154.696 635.125 154.243 634.512 153.912 633.808C153.592 634.565 153.133 635.232 152.536 635.808C151.939 636.373 151.229 636.795 150.408 637.072L149.528 635.664C150.637 635.291 151.491 634.688 152.088 633.856C152.696 633.013 153 632.085 153 631.072V629.712H154.776ZM151.656 638.224H161.288V643.296H159.528V639.648H151.656V638.224ZM159.528 629.056H161.288V637.568H159.528V629.056ZM174.68 629.04V633.072H176.664V634.496H174.68V639.344H172.92V629.04H174.68ZM164.12 630.208H170.456V631.632H165.88V635.52C167.246 635.509 168.35 635.472 169.192 635.408C170.035 635.344 170.856 635.232 171.656 635.072L171.832 636.464C170.936 636.656 170.008 636.789 169.048 636.864C168.099 636.928 166.84 636.96 165.272 636.96H164.12V630.208ZM165.624 638.288H167.384V641.6H175.24V643.008H165.624V638.288ZM194.08 637.6V639.04H188.512V643.312H186.736V639.04H181.2V637.6H194.08ZM181.92 635.36C182.827 635.243 183.632 635.024 184.336 634.704C185.051 634.373 185.611 633.984 186.016 633.536C186.422 633.088 186.656 632.619 186.72 632.128H182.384V630.72H186.736V629.072H188.512V630.72H192.88V632.128H188.528C188.592 632.608 188.827 633.077 189.232 633.536C189.648 633.984 190.208 634.373 190.912 634.704C191.616 635.024 192.422 635.243 193.328 635.36L192.704 636.736C191.552 636.597 190.534 636.288 189.648 635.808C188.774 635.328 188.102 634.736 187.632 634.032C187.174 634.736 186.502 635.328 185.616 635.808C184.731 636.277 183.702 636.587 182.528 636.736L181.92 635.36ZM206.257 629.024V634.608H208.353V636.064H206.257V643.28H204.481V629.024H206.257ZM195.121 639.392C196.838 638.507 198.161 637.451 199.089 636.224C200.017 634.997 200.566 633.573 200.737 631.952H195.873V630.528H202.513C202.513 635.179 200.379 638.576 196.113 640.72L195.121 639.392ZM220.257 629.056V634.72H222.417V636.176H220.257V643.296H218.497V629.056H220.257ZM209.089 631.216H212.401V629.264H214.177V631.216H217.441V632.624H209.089V631.216ZM209.745 636.928C209.745 636.288 209.9 635.712 210.209 635.2C210.518 634.688 210.94 634.293 211.473 634.016C212.017 633.728 212.625 633.584 213.297 633.584C213.98 633.584 214.593 633.728 215.137 634.016C215.681 634.293 216.102 634.688 216.401 635.2C216.71 635.701 216.865 636.277 216.865 636.928C216.865 637.579 216.71 638.16 216.401 638.672C216.092 639.173 215.665 639.568 215.121 639.856C214.588 640.133 213.98 640.272 213.297 640.272C212.625 640.272 212.017 640.133 211.473 639.856C210.94 639.568 210.518 639.168 210.209 638.656C209.9 638.144 209.745 637.568 209.745 636.928ZM211.441 636.928C211.441 637.504 211.612 637.968 211.953 638.32C212.294 638.661 212.742 638.832 213.297 638.832C213.852 638.832 214.3 638.661 214.641 638.32C214.993 637.968 215.169 637.504 215.169 636.928C215.169 636.352 214.993 635.888 214.641 635.536C214.3 635.184 213.852 635.008 213.297 635.008C212.753 635.008 212.305 635.184 211.953 635.536C211.612 635.888 211.441 636.352 211.441 636.928ZM234.929 629.04V643.28H233.169V629.04H234.929ZM223.233 639.392C225.047 638.517 226.407 637.472 227.313 636.256C228.22 635.04 228.753 633.605 228.913 631.952H223.937V630.528H230.721C230.721 632.811 230.215 634.805 229.201 636.512C228.188 638.219 226.503 639.643 224.145 640.784L223.233 639.392Z" fill="white"/>
</g>
</g>
</g>
</g>
<defs>
<filter id="filter0_d_1324_13743" x="103" y="611" width="158" height="54" filterUnits="userSpaceOnUse" color-interpolation-filters="sRGB">
<feFlood flood-opacity="0" result="BackgroundImageFix"/>
<feColorMatrix in="SourceAlpha" type="matrix" values="0 0 0 0 0 0 0 0 0 0 0 0 0 0 0 0 0 0 127 0" result="hardAlpha"/>
<feOffset dx="2" dy="2"/>
<feGaussianBlur stdDeviation="3"/>
<feComposite in2="hardAlpha" operator="out"/>
<feColorMatrix type="matrix" values="0 0 0 0 0.600087 0 0 0 0 0.62296 0 0 0 0 0.645833 0 0 0 0.2 0"/>
<feBlend mode="normal" in2="BackgroundImageFix" result="effect1_dropShadow_1324_13743"/>
<feBlend mode="normal" in="SourceGraphic" in2="effect1_dropShadow_1324_13743" result="shape"/>
</filter>
<clipPath id="clip0_1324_13743">
<rect width="24" height="24" fill="white" transform="translate(20 61)"/>
</clipPath>
<clipPath id="clip1_1324_13743">
<rect width="24" height="24" fill="white" transform="translate(41 260)"/>
</clipPath>
<clipPath id="clip2_1324_13743">
<rect width="24" height="24" fill="white" transform="translate(41 326)"/>
</clipPath>
<clipPath id="clip3_1324_13743">
<rect width="24" height="24" fill="white" transform="translate(41 392)"/>
</clipPath>
</defs>
</svg>
