<svg width="360" height="800" viewBox="0 0 360 800" fill="none" xmlns="http://www.w3.org/2000/svg">
<rect width="360" height="800" fill="#FAFAFC"/>
<path d="M138.871 66.184V70.44H140.951V71.432H138.871V76.44H137.671V66.184H138.871ZM128.631 67.176H129.815V69.56H133.895V67.176H135.079V74.088H128.631V67.176ZM133.895 73.112V70.504H129.815V73.112H133.895ZM130.199 75.464H131.383V78.856H139.511V79.848H130.199V75.464ZM153.464 66.152V80.184H152.28V74.2H149.368V73.224H152.28V70.376H149.464V69.384H152.28V66.152H153.464ZM142.472 67.448H148.568V72.408H143.688V75.896C144.829 75.896 145.858 75.8693 146.776 75.816C147.693 75.752 148.653 75.64 149.656 75.48L149.768 76.488C148.733 76.648 147.746 76.76 146.808 76.824C145.869 76.8773 144.781 76.904 143.544 76.904H142.504V71.416H147.384V68.44H142.472V67.448ZM167.48 66.168V76.6H166.264V73.208H162.504V72.216H166.264V70.056H162.696C162.216 71.1547 161.459 72.12 160.424 72.952C159.4 73.7733 158.168 74.424 156.728 74.904L156.2 73.928C157.864 73.384 159.208 72.616 160.232 71.624C161.267 70.632 161.848 69.5067 161.976 68.248H156.904V67.272H163.272C163.272 67.8693 163.197 68.4667 163.048 69.064H166.264V66.168H167.48ZM158.648 75.592H159.864V78.856H167.816V79.848H158.648V75.592ZM178.512 66.84V68.2C178.512 68.872 178.661 69.5173 178.96 70.136C179.269 70.744 179.69 71.2827 180.224 71.752C180.768 72.2107 181.376 72.5627 182.048 72.808L181.456 73.752C180.645 73.4427 179.93 72.9947 179.312 72.408C178.704 71.8213 178.25 71.1387 177.952 70.36C177.653 71.2027 177.189 71.944 176.56 72.584C175.941 73.2133 175.221 73.688 174.4 74.008L173.776 73.048C174.458 72.792 175.066 72.4187 175.6 71.928C176.144 71.4373 176.565 70.872 176.864 70.232C177.162 69.5813 177.312 68.904 177.312 68.2V66.84H178.512ZM175.76 75.32H185.088V80.168H183.888V76.312H175.76V75.32ZM183.888 66.168H185.088V74.6H183.888V66.168ZM198.496 66.152V70.36H200.592V71.352H198.496V76.296H197.296V66.152H198.496ZM188.32 67.368H194.48V68.376H189.504V72.808C190.976 72.808 192.16 72.776 193.056 72.712C193.963 72.648 194.864 72.5253 195.76 72.344L195.904 73.32C194.944 73.512 193.99 73.6453 193.04 73.72C192.091 73.784 190.875 73.816 189.392 73.816H188.32V67.368ZM189.824 75.288H191.008V78.856H199.136V79.848H189.824V75.288ZM216.744 66.168V73.672H215.544V66.168H216.744ZM205.624 70.056C205.624 69.4267 205.779 68.872 206.088 68.392C206.397 67.9013 206.829 67.5227 207.384 67.256C207.939 66.9893 208.563 66.856 209.256 66.856C209.949 66.856 210.573 66.9893 211.128 67.256C211.683 67.5227 212.115 67.9013 212.424 68.392C212.733 68.872 212.888 69.4267 212.888 70.056C212.888 70.6853 212.733 71.2453 212.424 71.736C212.115 72.216 211.683 72.5947 211.128 72.872C210.573 73.1387 209.949 73.272 209.256 73.272C208.563 73.272 207.939 73.1387 207.384 72.872C206.829 72.5947 206.397 72.216 206.088 71.736C205.779 71.2453 205.624 70.6853 205.624 70.056ZM206.792 70.056C206.792 70.7067 207.021 71.24 207.48 71.656C207.949 72.0613 208.541 72.264 209.256 72.264C209.971 72.264 210.557 72.0613 211.016 71.656C211.485 71.24 211.72 70.7067 211.72 70.056C211.72 69.4053 211.485 68.8773 211.016 68.472C210.557 68.056 209.971 67.848 209.256 67.848C208.541 67.848 207.949 68.056 207.48 68.472C207.021 68.8773 206.792 69.4053 206.792 70.056ZM207.768 74.392H208.952V76.12H215.56V74.392H216.744V79.976H207.768V74.392ZM215.56 79V77.08H208.952V79H215.56ZM225.864 67.016V70.936H221.064V73.144C222.472 73.144 223.566 73.1227 224.344 73.08C225.123 73.0373 225.907 72.9413 226.696 72.792L226.824 73.768C225.992 73.9173 225.166 74.0133 224.344 74.056C223.523 74.0987 222.36 74.12 220.856 74.12H219.88V69.992H224.68V68.008H219.832V67.016H225.864ZM221.432 75.544H230.776V80.2H229.576V76.52H221.432V75.544ZM226.792 71.16H229.576V69.256H226.792V68.264H229.576V66.184H230.776V74.776H229.576V72.136H226.792V71.16Z" fill="#191919"/>
<path d="M321 66L335 80" stroke="#36393C" stroke-width="2" stroke-linecap="round" stroke-linejoin="round"/>
<path d="M335 66L321 80" stroke="#36393C" stroke-width="2" stroke-linecap="round" stroke-linejoin="round"/>
<g clip-path="url(#clip0_2725_2836)">
<path d="M23.6356 72.2929C23.4481 72.4805 23.3428 72.7348 23.3428 72.9999C23.3428 73.2651 23.4481 73.5194 23.6356 73.7069L29.2926 79.3639C29.4812 79.5461 29.7338 79.6469 29.996 79.6446C30.2582 79.6423 30.509 79.5372 30.6944 79.3518C30.8798 79.1663 30.985 78.9155 30.9872 78.6533C30.9895 78.3911 30.8887 78.1385 30.7066 77.9499L26.7566 73.9999H39.9996C40.2648 73.9999 40.5191 73.8946 40.7067 73.707C40.8942 73.5195 40.9996 73.2652 40.9996 72.9999C40.9996 72.7347 40.8942 72.4804 40.7067 72.2928C40.5191 72.1053 40.2648 71.9999 39.9996 71.9999H26.7566L30.7066 68.0499C30.8887 67.8613 30.9895 67.6087 30.9872 67.3465C30.985 67.0843 30.8798 66.8335 30.6944 66.6481C30.509 66.4627 30.2582 66.3575 29.996 66.3553C29.7338 66.353 29.4812 66.4538 29.2926 66.6359L23.6356 72.2929Z" fill="#36393C"/>
</g>
<path d="M38.62 137.82V142.96H41.08V144.78H38.62V150.9H36.42V137.82H38.62ZM25.3 139.08H27.48V141.8H31.56V139.08H33.72V148.04H25.3V139.08ZM27.3 149.6H29.5V153.5H39.32V155.26H27.3V149.6ZM31.56 146.28V143.5H27.48V146.28H31.56ZM56.1905 137.78V155.64H53.9905V148.32H50.7705V146.56H53.9905V143.46H50.8505V141.68H53.9905V137.78H56.1905ZM41.9905 139.34H49.8705V146.04H44.1905V149.8C45.4571 149.787 46.6171 149.747 47.6705 149.68C48.7238 149.613 49.8105 149.493 50.9305 149.32L51.0905 151.12C49.8505 151.32 48.6371 151.453 47.4505 151.52C46.2771 151.587 44.9305 151.62 43.4105 151.62H42.0105V144.28H47.6905V141.1H41.9905V139.34ZM72.9409 137.8V150.96H70.7209V147.1H66.4609V145.32H70.7209V143.08H66.7409C66.1143 144.453 65.1676 145.647 63.9009 146.66C62.6343 147.66 61.1009 148.447 59.3009 149.02L58.3609 147.26C60.3209 146.647 61.9009 145.787 63.1009 144.68C64.3009 143.573 64.9943 142.32 65.1809 140.92H59.3009V139.16H67.5609C67.5609 139.92 67.4809 140.64 67.3209 141.32H70.7209V137.8H72.9409ZM61.4209 149.7H63.6409V153.5H73.3609V155.26H61.4209V149.7ZM89.5514 137.78V155.64H87.3314V137.78H89.5514ZM75.4114 145.38C75.4114 144.113 75.6047 143.007 75.9914 142.06C76.3914 141.1 76.9381 140.367 77.6314 139.86C78.3381 139.34 79.1381 139.08 80.0314 139.08C80.9247 139.08 81.7181 139.34 82.4114 139.86C83.1181 140.367 83.6647 141.1 84.0514 142.06C84.4514 143.007 84.6514 144.113 84.6514 145.38C84.6514 146.647 84.4514 147.76 84.0514 148.72C83.6647 149.68 83.1181 150.42 82.4114 150.94C81.7181 151.447 80.9247 151.7 80.0314 151.7C79.1381 151.7 78.3381 151.447 77.6314 150.94C76.9381 150.42 76.3914 149.68 75.9914 148.72C75.6047 147.76 75.4114 146.647 75.4114 145.38ZM77.5314 145.38C77.5314 146.727 77.7581 147.787 78.2114 148.56C78.6781 149.333 79.2847 149.72 80.0314 149.72C80.7781 149.72 81.3781 149.333 81.8314 148.56C82.2981 147.787 82.5314 146.727 82.5314 145.38C82.5314 144.047 82.2981 143 81.8314 142.24C81.3781 141.467 80.7781 141.08 80.0314 141.08C79.2847 141.08 78.6781 141.467 78.2114 142.24C77.7581 143 77.5314 144.047 77.5314 145.38ZM110.241 149.22V155.62H108.041V150.96H98.2013V149.22H110.241ZM96.2213 139.12H104.521V142.14H108.041V137.82H110.241V148.32H108.041V143.92H104.521V147.28H96.2213V139.12ZM102.361 145.54V140.84H98.3813V145.54H102.361ZM128.272 147V148.76H112.192V147H128.272ZM113.852 141.98C113.852 141.247 114.112 140.607 114.632 140.06C115.165 139.513 115.912 139.093 116.872 138.8C117.832 138.507 118.952 138.36 120.232 138.36C121.512 138.36 122.632 138.507 123.592 138.8C124.552 139.093 125.292 139.513 125.812 140.06C126.345 140.607 126.612 141.247 126.612 141.98C126.612 142.727 126.345 143.373 125.812 143.92C125.292 144.467 124.552 144.887 123.592 145.18C122.632 145.473 121.512 145.62 120.232 145.62C118.952 145.62 117.832 145.473 116.872 145.18C115.912 144.887 115.165 144.467 114.632 143.92C114.112 143.373 113.852 142.727 113.852 141.98ZM114.192 150.1H116.372V153.5H126.472V155.28H114.192V150.1ZM116.112 141.98C116.112 142.58 116.472 143.047 117.192 143.38C117.925 143.7 118.938 143.86 120.232 143.86C121.525 143.86 122.532 143.7 123.252 143.38C123.972 143.047 124.332 142.58 124.332 141.98C124.332 141.38 123.972 140.927 123.252 140.62C122.532 140.3 121.525 140.14 120.232 140.14C118.938 140.14 117.925 140.3 117.192 140.62C116.472 140.94 116.112 141.393 116.112 141.98ZM139.322 138.64V140.34C139.322 141.553 139.695 142.66 140.442 143.66C141.188 144.647 142.235 145.36 143.582 145.8L142.522 147.52C141.522 147.187 140.662 146.7 139.942 146.06C139.222 145.407 138.655 144.64 138.242 143.76C137.842 144.707 137.268 145.54 136.522 146.26C135.775 146.967 134.888 147.493 133.862 147.84L132.762 146.08C134.148 145.613 135.215 144.86 135.962 143.82C136.722 142.767 137.102 141.607 137.102 140.34V138.64H139.322ZM135.422 149.28H147.462V155.62H145.262V151.06H135.422V149.28ZM145.262 137.82H147.462V148.46H145.262V137.82ZM163.452 137.8V142.84H165.932V144.62H163.452V150.68H161.252V137.8H163.452ZM150.252 139.26H158.172V141.04H152.452V145.9C154.159 145.887 155.539 145.84 156.592 145.76C157.645 145.68 158.672 145.54 159.672 145.34L159.892 147.08C158.772 147.32 157.612 147.487 156.412 147.58C155.225 147.66 153.652 147.7 151.692 147.7H150.252V139.26ZM152.132 149.36H154.332V153.5H164.152V155.26H152.132V149.36ZM174.283 138.1C176.296 138.1 177.863 138.36 178.983 138.88C180.103 139.4 180.663 140.153 180.663 141.14C180.663 142.127 180.103 142.887 178.983 143.42C177.863 143.94 176.296 144.2 174.283 144.2C172.269 144.2 170.703 143.94 169.583 143.42C168.463 142.887 167.903 142.127 167.903 141.14C167.903 140.153 168.463 139.4 169.583 138.88C170.703 138.36 172.269 138.1 174.283 138.1ZM166.243 145.16H182.323V146.92H166.243V145.16ZM168.103 148.1H180.323V152.46H170.303V153.8H180.823V155.46H168.163V150.92H178.163V149.76H168.103V148.1ZM170.183 141.14C170.183 142.1 171.549 142.58 174.283 142.58C177.016 142.58 178.383 142.1 178.383 141.14C178.383 140.673 178.029 140.32 177.322 140.08C176.629 139.827 175.616 139.7 174.283 139.7C172.936 139.7 171.916 139.827 171.223 140.08C170.529 140.32 170.183 140.673 170.183 141.14ZM201.512 137.82V147.36H199.312V137.82H201.512ZM187.132 142.74C187.132 141.94 187.339 141.227 187.752 140.6C188.166 139.973 188.732 139.487 189.452 139.14C190.172 138.78 190.986 138.6 191.892 138.6C192.799 138.6 193.612 138.78 194.332 139.14C195.052 139.487 195.619 139.973 196.032 140.6C196.446 141.227 196.652 141.94 196.652 142.74C196.652 143.553 196.446 144.273 196.032 144.9C195.619 145.527 195.052 146.02 194.332 146.38C193.612 146.727 192.799 146.9 191.892 146.9C190.986 146.9 190.172 146.727 189.452 146.38C188.732 146.02 188.166 145.527 187.752 144.9C187.339 144.273 187.132 143.553 187.132 142.74ZM189.272 142.74C189.272 143.447 189.512 144.013 189.992 144.44C190.486 144.867 191.119 145.08 191.892 145.08C192.666 145.08 193.292 144.867 193.772 144.44C194.266 144.013 194.512 143.447 194.512 142.74C194.512 142.033 194.266 141.467 193.772 141.04C193.292 140.613 192.666 140.4 191.892 140.4C191.119 140.4 190.486 140.613 189.992 141.04C189.512 141.467 189.272 142.033 189.272 142.74ZM189.832 148.2H192.012V150.04H199.352V148.2H201.512V155.4H189.832V148.2ZM199.352 153.64V151.74H192.012V153.64H199.352ZM211.983 138.84V144.24H206.443V146.42C207.923 146.407 209.116 146.373 210.023 146.32C210.929 146.267 211.843 146.16 212.763 146L212.983 147.74C211.969 147.927 210.943 148.047 209.903 148.1C208.863 148.153 207.416 148.18 205.563 148.18H204.243V142.58H209.823V140.62H204.203V138.84H211.983ZM206.263 149.64H218.343V155.64H216.143V151.4H206.263V149.64ZM213.063 144.1H216.143V142.12H213.063V140.34H216.143V137.82H218.343V148.78H216.143V145.84H213.063V144.1ZM223.513 140.64V138.28H225.673V140.64H228.893V142.38H220.253V140.64H223.513ZM220.733 147.5C220.733 146.7 220.9 145.987 221.233 145.36C221.567 144.72 222.027 144.227 222.613 143.88C223.2 143.52 223.86 143.34 224.593 143.34C225.34 143.34 226.007 143.52 226.593 143.88C227.18 144.227 227.64 144.72 227.973 145.36C228.307 145.987 228.473 146.7 228.473 147.5C228.473 148.313 228.307 149.04 227.973 149.68C227.64 150.307 227.18 150.8 226.593 151.16C226.007 151.507 225.34 151.68 224.593 151.68C223.86 151.68 223.2 151.507 222.613 151.16C222.027 150.8 221.567 150.307 221.233 149.68C220.9 149.04 220.733 148.313 220.733 147.5ZM222.673 147.5C222.673 148.207 222.847 148.773 223.193 149.2C223.553 149.627 224.02 149.84 224.593 149.84C225.167 149.84 225.633 149.627 225.993 149.2C226.353 148.773 226.533 148.207 226.533 147.5C226.533 146.793 226.353 146.227 225.993 145.8C225.633 145.373 225.167 145.16 224.593 145.16C224.033 145.16 223.573 145.373 223.213 145.8C222.853 146.227 222.673 146.793 222.673 147.5ZM229.613 138.18H231.673V145.14H233.393V137.8H235.473V155.6H233.393V146.92H231.673V154.8H229.613V138.18ZM253.124 147.76V149.54H246.124V155.64H243.924V149.54H237.024V147.76H253.124ZM237.864 144.82C238.997 144.673 240.004 144.393 240.884 143.98C241.764 143.553 242.457 143.04 242.964 142.44C243.47 141.84 243.75 141.213 243.804 140.56H238.484V138.8H251.624V140.56H246.344C246.397 141.213 246.677 141.84 247.184 142.44C247.69 143.04 248.384 143.553 249.264 143.98C250.144 144.393 251.15 144.673 252.284 144.82L251.464 146.58C249.984 146.367 248.684 145.927 247.564 145.26C246.444 144.593 245.61 143.773 245.064 142.8C244.53 143.76 243.704 144.58 242.584 145.26C241.464 145.927 240.164 146.367 238.684 146.58L237.864 144.82ZM263.234 143.94V138.14H265.294V154.76H263.234V145.74H260.754V143.94H263.234ZM253.434 150.3C254.648 149.58 255.568 148.513 256.194 147.1C256.821 145.687 257.134 144.167 257.134 142.54V139.42H259.254V142.46C259.254 144.007 259.534 145.447 260.094 146.78C260.654 148.1 261.501 149.127 262.634 149.86L261.414 151.56C259.948 150.667 258.881 149.147 258.214 147C257.894 148.093 257.448 149.067 256.874 149.92C256.301 150.773 255.608 151.453 254.794 151.96L253.434 150.3ZM266.854 137.8H268.954V155.6H266.854V137.8ZM274.185 151.66V147.12C273.465 146.707 272.911 146.187 272.525 145.56C272.138 144.933 271.945 144.233 271.945 143.46C271.945 142.527 272.225 141.707 272.785 141C273.358 140.28 274.138 139.727 275.125 139.34C276.125 138.953 277.258 138.76 278.525 138.76C279.791 138.76 280.925 138.953 281.925 139.34C282.925 139.727 283.705 140.28 284.265 141C284.825 141.707 285.105 142.527 285.105 143.46C285.105 144.233 284.911 144.933 284.525 145.56C284.138 146.187 283.591 146.707 282.885 147.12V151.66H286.605V153.44H270.485V151.66H274.185ZM274.105 143.46C274.105 144.38 274.505 145.107 275.305 145.64C276.118 146.173 277.191 146.44 278.525 146.44C279.858 146.44 280.925 146.173 281.725 145.64C282.538 145.107 282.945 144.38 282.945 143.46C282.945 142.553 282.538 141.833 281.725 141.3C280.911 140.753 279.845 140.48 278.525 140.48C277.205 140.48 276.138 140.753 275.325 141.3C274.511 141.833 274.105 142.553 274.105 143.46ZM280.685 151.66V147.94C279.991 148.087 279.271 148.16 278.525 148.16C277.791 148.16 277.078 148.087 276.385 147.94V151.66H280.685ZM288.855 151.98C289.215 151.98 289.508 152.1 289.735 152.34C289.962 152.567 290.075 152.86 290.075 153.22C290.075 153.593 289.962 153.893 289.735 154.12C289.508 154.36 289.215 154.48 288.855 154.48C288.482 154.48 288.175 154.36 287.935 154.12C287.708 153.893 287.595 153.593 287.595 153.22C287.595 152.86 287.708 152.567 287.935 152.34C288.175 152.1 288.482 151.98 288.855 151.98Z" fill="#4F5357"/>
<path d="M28.62 176.85V179.076C28.62 179.776 28.76 180.481 29.04 181.19C29.3293 181.89 29.712 182.52 30.188 183.08C30.6733 183.631 31.2007 184.046 31.77 184.326L31.126 185.152C30.4633 184.797 29.8613 184.279 29.32 183.598C28.788 182.907 28.3913 182.133 28.13 181.274C27.8593 182.189 27.4487 183.015 26.898 183.752C26.3473 184.48 25.7313 185.031 25.05 185.404L24.406 184.55C24.9847 184.261 25.5167 183.827 26.002 183.248C26.4967 182.66 26.884 182.002 27.164 181.274C27.4533 180.537 27.598 179.804 27.598 179.076V176.85H28.62ZM32.904 175.772H33.954V180.756H35.998V181.652H33.954V188.022H32.904V175.772ZM39.9323 185.614V183.248H38.1963V179.496H45.4763V177.536H38.1683V176.682H46.5123V180.336H39.2323V182.38H46.7923V183.248H44.8743V185.614H47.8983V186.482H36.7963V185.614H39.9323ZM43.8523 185.614V183.248H40.9683V185.614H43.8523ZM49.8307 188.526H49.0887L49.5087 185.936H50.6007L49.8307 188.526ZM62.9193 177.032V177.914H60.1753V179.566C60.1753 180.201 60.3153 180.849 60.5953 181.512C60.8847 182.175 61.272 182.777 61.7573 183.318C62.2427 183.85 62.7747 184.251 63.3533 184.522L62.7513 185.362C62.07 185.026 61.454 184.517 60.9033 183.836C60.3527 183.155 59.942 182.403 59.6713 181.582C59.3913 182.469 58.9667 183.281 58.3973 184.018C57.828 184.755 57.2027 185.301 56.5213 185.656L55.9053 184.83C56.4747 184.55 57.0067 184.125 57.5013 183.556C58.0053 182.987 58.4067 182.347 58.7053 181.638C59.004 180.929 59.1533 180.238 59.1533 179.566V177.914H56.3253V177.032H62.9193ZM64.4313 175.772H65.4813V180.756H67.5113V181.638H65.4813V188.022H64.4313V175.772ZM78.3757 175.786V184.83H77.3257V181.498H74.1897C73.9097 181.862 73.5503 182.147 73.1117 182.352C72.673 182.557 72.1877 182.66 71.6557 182.66C71.0583 182.66 70.5217 182.534 70.0457 182.282C69.5697 182.021 69.1963 181.661 68.9257 181.204C68.655 180.737 68.5197 180.21 68.5197 179.622C68.5197 179.025 68.655 178.497 68.9257 178.04C69.1963 177.573 69.5697 177.209 70.0457 176.948C70.5217 176.687 71.0583 176.556 71.6557 176.556C72.1783 176.556 72.6543 176.659 73.0837 176.864C73.5223 177.06 73.8817 177.34 74.1617 177.704H77.3257V175.786H78.3757ZM69.5137 179.622C69.5137 180.238 69.7143 180.747 70.1157 181.148C70.5263 181.549 71.0397 181.75 71.6557 181.75C72.057 181.75 72.421 181.661 72.7477 181.484C73.0743 181.297 73.331 181.045 73.5177 180.728C73.7043 180.401 73.7977 180.033 73.7977 179.622C73.7977 179.211 73.7043 178.847 73.5177 178.53C73.331 178.203 73.0743 177.951 72.7477 177.774C72.421 177.587 72.057 177.494 71.6557 177.494C71.0397 177.494 70.5263 177.695 70.1157 178.096C69.7143 178.497 69.5137 179.006 69.5137 179.622ZM70.5777 183.892H71.6277V186.874H78.7257V187.742H70.5777V183.892ZM74.6377 178.572C74.7497 178.889 74.8057 179.239 74.8057 179.622C74.8057 179.967 74.7543 180.303 74.6517 180.63H77.3257V178.572H74.6377ZM84.816 176.36V177.55C84.816 178.138 84.9467 178.703 85.208 179.244C85.4787 179.776 85.8473 180.247 86.314 180.658C86.79 181.059 87.322 181.367 87.91 181.582L87.392 182.408C86.6827 182.137 86.0573 181.745 85.516 181.232C84.984 180.719 84.5873 180.121 84.326 179.44C84.0647 180.177 83.6587 180.826 83.108 181.386C82.5667 181.937 81.9367 182.352 81.218 182.632L80.672 181.792C81.2693 181.568 81.8013 181.241 82.268 180.812C82.744 180.383 83.1127 179.888 83.374 179.328C83.6353 178.759 83.766 178.166 83.766 177.55V176.36H84.816ZM82.408 183.78H90.57V188.022H89.52V184.648H82.408V183.78ZM89.52 175.772H90.57V183.15H89.52V175.772ZM93.5943 188.526H92.8523L93.2723 185.936H94.3643L93.5943 188.526ZM104.849 185.6V182.744H100.873V181.89H102.763V177.816H100.845V176.962H109.903V177.816H107.971V181.89H109.889V182.744H105.885V185.6H110.953V186.482H99.851V185.6H104.849ZM106.935 181.89V177.816H103.827V181.89H106.935ZM118.933 176.682V177.55H116.189V178.082C116.189 178.894 116.46 179.636 117.001 180.308C117.552 180.971 118.275 181.451 119.171 181.75L118.667 182.562C117.977 182.329 117.375 181.979 116.861 181.512C116.348 181.045 115.961 180.499 115.699 179.874C115.438 180.583 115.037 181.204 114.495 181.736C113.954 182.268 113.319 182.665 112.591 182.926L112.059 182.1C112.974 181.773 113.716 181.246 114.285 180.518C114.864 179.781 115.153 178.973 115.153 178.096V177.55H112.381V176.682H118.933ZM113.683 185.74C113.683 185.04 114.038 184.494 114.747 184.102C115.457 183.71 116.437 183.514 117.687 183.514C118.938 183.514 119.918 183.71 120.627 184.102C121.346 184.494 121.705 185.04 121.705 185.74C121.705 186.449 121.346 187 120.627 187.392C119.918 187.793 118.938 187.994 117.687 187.994C116.437 187.994 115.457 187.793 114.747 187.392C114.038 187 113.683 186.449 113.683 185.74ZM114.705 185.74C114.705 186.188 114.971 186.538 115.503 186.79C116.035 187.042 116.763 187.168 117.687 187.168C118.611 187.168 119.339 187.042 119.871 186.79C120.403 186.538 120.669 186.188 120.669 185.74C120.669 185.311 120.403 184.975 119.871 184.732C119.339 184.48 118.611 184.354 117.687 184.354C116.763 184.354 116.035 184.48 115.503 184.732C114.971 184.975 114.705 185.311 114.705 185.74ZM120.529 175.772H121.579V178.922H123.413V179.79H121.579V183.164H120.529V175.772ZM133.816 175.772V179.51H135.65V180.392H133.816V184.732H132.766V175.772H133.816ZM124.352 182.464C125.826 182.007 127.007 181.353 127.894 180.504C128.79 179.655 129.294 178.684 129.406 177.592H124.856V176.724H130.54C130.54 178.273 130.031 179.617 129.014 180.756C127.996 181.895 126.592 182.749 124.8 183.318L124.352 182.464ZM126.214 183.822H127.264V186.874H134.376V187.742H126.214V183.822ZM140.816 176.36V177.55C140.816 178.138 140.947 178.703 141.208 179.244C141.479 179.776 141.847 180.247 142.314 180.658C142.79 181.059 143.322 181.367 143.91 181.582L143.392 182.408C142.683 182.137 142.057 181.745 141.516 181.232C140.984 180.719 140.587 180.121 140.326 179.44C140.065 180.177 139.659 180.826 139.108 181.386C138.567 181.937 137.937 182.352 137.218 182.632L136.672 181.792C137.269 181.568 137.801 181.241 138.268 180.812C138.744 180.383 139.113 179.888 139.374 179.328C139.635 178.759 139.766 178.166 139.766 177.55V176.36H140.816ZM138.408 183.78H146.57V188.022H145.52V184.648H138.408V183.78ZM145.52 175.772H146.57V183.15H145.52V175.772ZM154.326 176.556C155.166 176.556 155.922 176.696 156.594 176.976C157.276 177.256 157.808 177.653 158.19 178.166C158.573 178.67 158.764 179.253 158.764 179.916C158.764 180.579 158.573 181.167 158.19 181.68C157.808 182.184 157.28 182.576 156.608 182.856C155.936 183.136 155.176 183.276 154.326 183.276C153.486 183.276 152.726 183.136 152.044 182.856C151.372 182.576 150.845 182.184 150.462 181.68C150.08 181.167 149.888 180.579 149.888 179.916C149.888 179.253 150.08 178.67 150.462 178.166C150.845 177.653 151.372 177.256 152.044 176.976C152.726 176.696 153.486 176.556 154.326 176.556ZM148.796 185.488H159.898V186.37H148.796V185.488ZM150.896 179.916C150.896 180.411 151.046 180.849 151.344 181.232C151.643 181.605 152.049 181.899 152.562 182.114C153.085 182.319 153.673 182.422 154.326 182.422C154.98 182.422 155.568 182.319 156.09 182.114C156.613 181.899 157.019 181.605 157.308 181.232C157.607 180.849 157.756 180.411 157.756 179.916C157.756 179.431 157.607 178.997 157.308 178.614C157.019 178.231 156.613 177.937 156.09 177.732C155.568 177.517 154.98 177.41 154.326 177.41C153.682 177.41 153.099 177.517 152.576 177.732C152.054 177.937 151.643 178.231 151.344 178.614C151.046 178.997 150.896 179.431 150.896 179.916ZM166.045 185.614V183.262H162.433V179.51H169.713V177.536H162.405V176.682H170.749V180.35H163.469V182.408H171.029V183.262H167.081V185.614H172.135V186.482H161.033V185.614H166.045ZM185.904 175.758V180.686H187.878V181.568H185.904V188.022H184.854V175.758H185.904ZM177.014 176.976H178.05V184.032C180.019 184.032 181.895 183.845 183.678 183.472L183.804 184.354C181.984 184.718 180.042 184.9 177.98 184.9H177.014V176.976ZM198.7 175.772V188.036H197.65V184.886H194.836V184.046H197.65V175.772H198.7ZM188.62 182.1C190.179 182.1 191.611 182.081 192.918 182.044C194.234 182.007 195.48 181.927 196.656 181.806L196.726 182.59C195.615 182.739 194.416 182.842 193.128 182.898V187.644H192.078V182.94C190.921 182.968 189.815 182.982 188.76 182.982L188.62 182.1ZM189.782 176.43H190.832V179.636H195.788V180.49H189.782V176.43ZM28.816 198.36V199.55C28.816 200.138 28.9467 200.703 29.208 201.244C29.4787 201.776 29.8473 202.247 30.314 202.658C30.79 203.059 31.322 203.367 31.91 203.582L31.392 204.408C30.6827 204.137 30.0573 203.745 29.516 203.232C28.984 202.719 28.5873 202.121 28.326 201.44C28.0647 202.177 27.6587 202.826 27.108 203.386C26.5667 203.937 25.9367 204.352 25.218 204.632L24.672 203.792C25.2693 203.568 25.8013 203.241 26.268 202.812C26.744 202.383 27.1127 201.888 27.374 201.328C27.6353 200.759 27.766 200.166 27.766 199.55V198.36H28.816ZM26.408 205.78H34.57V210.022H33.52V206.648H26.408V205.78ZM33.52 197.772H34.57V205.15H33.52V197.772ZM46.3023 197.758V201.44H48.1363V202.308H46.3023V206.634H45.2523V197.758H46.3023ZM37.3983 198.822H42.7883V199.704H38.4343V203.582C39.7223 203.582 40.7583 203.554 41.5423 203.498C42.3357 203.442 43.1243 203.335 43.9083 203.176L44.0343 204.03C43.1943 204.198 42.359 204.315 41.5283 204.38C40.6977 204.436 39.6337 204.464 38.3363 204.464H37.3983V198.822ZM38.7143 205.752H39.7503V208.874H46.8623V209.742H38.7143V205.752ZM62.2832 197.772V210.022H61.2332V197.772H62.2832ZM52.4132 206.872C54.0372 206.097 55.2786 205.127 56.1372 203.96C57.0052 202.784 57.4952 201.449 57.6072 199.956H52.9592V199.088H58.6712C58.6712 200.936 58.2092 202.597 57.2852 204.072C56.3706 205.537 54.9332 206.751 52.9732 207.712L52.4132 206.872ZM69.5075 204.534V203.19H65.9375V200.25H73.1195V198.934H65.9095V198.094H74.1555V201.02H66.9595V202.364H74.4215V203.19H70.5575V204.534H75.5975V205.402H64.4955V204.534H69.5075ZM65.7275 206.354H74.2255V209.896H73.1755V207.222H65.7275V206.354ZM82.2619 197.996C83.6152 197.996 84.6699 198.178 85.4259 198.542C86.1819 198.906 86.5599 199.429 86.5599 200.11C86.5599 200.791 86.1819 201.319 85.4259 201.692C84.6699 202.056 83.6152 202.238 82.2619 202.238C80.9085 202.238 79.8539 202.056 79.0979 201.692C78.3419 201.319 77.9639 200.791 77.9639 200.11C77.9639 199.429 78.3419 198.906 79.0979 198.542C79.8539 198.178 80.9085 197.996 82.2619 197.996ZM76.7319 203.092H87.7919V203.946H76.7319V203.092ZM78.0759 205.024H86.3639V207.74H79.1399V209.056H86.7419V209.882H78.1179V206.97H85.3419V205.836H78.0759V205.024ZM79.0419 200.11C79.0419 200.53 79.3219 200.857 79.8819 201.09C80.4512 201.323 81.2445 201.44 82.2619 201.44C83.2792 201.44 84.0679 201.323 84.6279 201.09C85.1972 200.857 85.4819 200.53 85.4819 200.11C85.4819 199.69 85.1972 199.363 84.6279 199.13C84.0585 198.897 83.2699 198.78 82.2619 198.78C81.2539 198.78 80.4652 198.897 79.8959 199.13C79.3265 199.363 79.0419 199.69 79.0419 200.11ZM96.4788 198.85V201.076C96.4788 201.804 96.6281 202.527 96.9268 203.246C97.2254 203.955 97.6268 204.59 98.1308 205.15C98.6348 205.71 99.1808 206.125 99.7688 206.396L99.1388 207.236C98.4388 206.891 97.8088 206.373 97.2488 205.682C96.6888 204.982 96.2641 204.193 95.9748 203.316C95.6948 204.249 95.2701 205.085 94.7008 205.822C94.1314 206.559 93.4874 207.105 92.7688 207.46L92.1248 206.592C92.7128 206.312 93.2588 205.883 93.7628 205.304C94.2761 204.725 94.6821 204.067 94.9808 203.33C95.2794 202.583 95.4288 201.832 95.4288 201.076V198.85H96.4788ZM101.127 197.758H102.177V210.036H101.127V197.758ZM111.277 198.64V199.508H108.533V200.04C108.533 200.861 108.808 201.617 109.359 202.308C109.91 202.989 110.633 203.484 111.529 203.792L110.983 204.632C110.302 204.389 109.704 204.025 109.191 203.54C108.678 203.055 108.29 202.49 108.029 201.846C107.768 202.546 107.371 203.157 106.839 203.68C106.307 204.203 105.682 204.599 104.963 204.87L104.389 204.044C105.313 203.717 106.06 203.19 106.629 202.462C107.208 201.734 107.497 200.931 107.497 200.054V199.508H104.725V198.64H111.277ZM105.999 205.822H113.923V210.022H112.873V206.676H105.999V205.822ZM112.873 197.772H113.923V201.034H115.757V201.916H113.923V205.136H112.873V197.772ZM119.173 199.9V198.122H120.209V199.9H122.729V200.754H116.639V199.9H119.173ZM117.073 204.38C117.073 203.848 117.185 203.372 117.409 202.952C117.633 202.532 117.941 202.205 118.333 201.972C118.735 201.729 119.187 201.608 119.691 201.608C120.195 201.608 120.648 201.729 121.049 201.972C121.451 202.205 121.763 202.532 121.987 202.952C122.211 203.372 122.323 203.848 122.323 204.38C122.323 204.921 122.211 205.407 121.987 205.836C121.763 206.256 121.451 206.583 121.049 206.816C120.648 207.049 120.195 207.166 119.691 207.166C119.187 207.166 118.735 207.049 118.333 206.816C117.941 206.583 117.633 206.256 117.409 205.836C117.185 205.407 117.073 204.921 117.073 204.38ZM118.011 204.38C118.011 204.931 118.165 205.383 118.473 205.738C118.791 206.093 119.197 206.27 119.691 206.27C120.186 206.27 120.592 206.093 120.909 205.738C121.227 205.383 121.385 204.931 121.385 204.38C121.385 203.829 121.222 203.377 120.895 203.022C120.578 202.667 120.177 202.49 119.691 202.49C119.206 202.49 118.805 202.667 118.487 203.022C118.17 203.377 118.011 203.829 118.011 204.38ZM123.373 198.066H124.367V202.952H126.005V197.772H126.999V210.022H126.005V203.82H124.367V209.406H123.373V198.066ZM133.916 207.558V204.884H130.234V198.64H131.27V200.852H137.626V198.64H138.662V204.884H134.952V207.558H140.006V208.44H128.904V207.558H133.916ZM137.626 204.03V201.72H131.27V204.03H137.626ZM144.402 198.724C144.999 198.724 145.527 198.901 145.984 199.256C146.451 199.601 146.81 200.096 147.062 200.74C147.323 201.375 147.454 202.121 147.454 202.98C147.454 203.839 147.323 204.59 147.062 205.234C146.81 205.878 146.451 206.377 145.984 206.732C145.527 207.077 144.999 207.25 144.402 207.25C143.805 207.25 143.273 207.077 142.806 206.732C142.349 206.377 141.989 205.878 141.728 205.234C141.467 204.581 141.336 203.829 141.336 202.98C141.336 202.131 141.467 201.384 141.728 200.74C141.989 200.096 142.349 199.601 142.806 199.256C143.273 198.901 143.805 198.724 144.402 198.724ZM142.344 202.98C142.344 203.643 142.428 204.226 142.596 204.73C142.773 205.234 143.016 205.626 143.324 205.906C143.641 206.177 144.001 206.312 144.402 206.312C144.803 206.312 145.158 206.177 145.466 205.906C145.783 205.626 146.026 205.234 146.194 204.73C146.371 204.226 146.46 203.643 146.46 202.98C146.46 202.317 146.371 201.739 146.194 201.244C146.026 200.74 145.783 200.353 145.466 200.082C145.158 199.802 144.803 199.662 144.402 199.662C144.001 199.662 143.641 199.802 143.324 200.082C143.016 200.353 142.773 200.74 142.596 201.244C142.428 201.739 142.344 202.317 142.344 202.98ZM149.498 197.772H150.548V202.7H152.578V203.582H150.548V210.022H149.498V197.772ZM156.134 207.558V204.212C155.612 203.941 155.201 203.591 154.902 203.162C154.613 202.723 154.468 202.233 154.468 201.692C154.468 201.067 154.655 200.516 155.028 200.04C155.411 199.564 155.938 199.2 156.61 198.948C157.282 198.687 158.048 198.556 158.906 198.556C159.765 198.556 160.53 198.687 161.202 198.948C161.874 199.2 162.397 199.564 162.77 200.04C163.153 200.516 163.344 201.067 163.344 201.692C163.344 202.224 163.2 202.705 162.91 203.134C162.63 203.563 162.234 203.918 161.72 204.198V207.558H164.478V208.426H153.376V207.558H156.134ZM155.49 201.692C155.49 202.149 155.635 202.551 155.924 202.896C156.214 203.241 156.615 203.512 157.128 203.708C157.651 203.895 158.244 203.988 158.906 203.988C159.569 203.988 160.157 203.895 160.67 203.708C161.193 203.512 161.599 203.241 161.888 202.896C162.187 202.551 162.336 202.149 162.336 201.692C162.336 201.235 162.187 200.833 161.888 200.488C161.599 200.143 161.193 199.877 160.67 199.69C160.157 199.494 159.569 199.396 158.906 199.396C158.244 199.396 157.651 199.494 157.128 199.69C156.615 199.877 156.214 200.143 155.924 200.488C155.635 200.833 155.49 201.235 155.49 201.692ZM160.67 207.558V204.604C160.138 204.744 159.55 204.814 158.906 204.814C158.281 204.814 157.702 204.744 157.17 204.604V207.558H160.67ZM166.635 207.782C166.84 207.782 167.003 207.847 167.125 207.978C167.255 208.099 167.321 208.263 167.321 208.468C167.321 208.683 167.255 208.855 167.125 208.986C167.003 209.117 166.84 209.182 166.635 209.182C166.429 209.182 166.257 209.117 166.117 208.986C165.986 208.846 165.921 208.673 165.921 208.468C165.921 208.263 165.986 208.099 166.117 207.978C166.247 207.847 166.42 207.782 166.635 207.782Z" fill="#AFB8C1"/>
<rect x="24" y="99" width="48" height="4" rx="2" fill="#40C97F"/>
<rect x="77" y="99" width="48" height="4" rx="2" fill="#40C97F"/>
<rect x="130" y="99" width="48" height="4" rx="2" fill="#40C97F"/>
<rect x="183" y="99" width="48" height="4" rx="2" fill="#40C97F"/>
<rect x="236" y="99" width="48" height="4" rx="2" fill="#40C97F"/>
<rect x="289" y="99" width="48" height="4" rx="2" fill="#40C97F"/>
<defs>
<clipPath id="clip0_2725_2836">
<rect width="24" height="24" fill="white" transform="translate(20 61)"/>
</clipPath>
</defs>
</svg>
