<svg width="360" height="756" viewBox="0 0 360 756" fill="none" xmlns="http://www.w3.org/2000/svg">
<g clip-path="url(#clip0_3065_3516)">
<rect width="360" height="756" fill="#FAFAFC"/>
<path d="M34.066 466.786V470.51H35.886V471.378H34.066V475.76H33.016V466.786H34.066ZM25.106 467.654H26.142V469.74H29.712V467.654H30.748V473.702H25.106V467.654ZM29.712 472.848V470.566H26.142V472.848H29.712ZM26.478 474.906H27.514V477.874H34.626V478.742H26.478V474.906ZM46.8343 466.758V479.036H45.7983V473.8H43.2503V472.946H45.7983V470.454H43.3343V469.586H45.7983V466.758H46.8343ZM37.2163 467.892H42.5503V472.232H38.2803V475.284C39.279 475.284 40.1797 475.261 40.9823 475.214C41.785 475.158 42.625 475.06 43.5023 474.92L43.6003 475.802C42.695 475.942 41.8317 476.04 41.0103 476.096C40.189 476.143 39.237 476.166 38.1543 476.166H37.2443V471.364H41.5143V468.76H37.2163V467.892ZM59.0987 466.772V475.9H58.0347V472.932H54.7447V472.064H58.0347V470.174H54.9127C54.4927 471.135 53.83 471.98 52.9247 472.708C52.0287 473.427 50.9507 473.996 49.6907 474.416L49.2287 473.562C50.6847 473.086 51.8607 472.414 52.7567 471.546C53.662 470.678 54.1707 469.693 54.2827 468.592H49.8447V467.738H55.4167C55.4167 468.261 55.3513 468.783 55.2207 469.306H58.0347V466.772H59.0987ZM51.3707 475.018H52.4347V477.874H59.3927V478.742H51.3707V475.018ZM73.4975 469.978V466.772H74.5475V474.066H73.4975V470.846H71.0055V469.978H73.4975ZM64.5515 473.114C65.1489 472.899 65.6809 472.582 66.1475 472.162C66.6142 471.742 66.9782 471.261 67.2395 470.72C67.5102 470.169 67.6455 469.605 67.6455 469.026V468.55H64.8735V467.682H71.4115V468.55H68.6955V469.026C68.6955 469.549 68.8215 470.062 69.0735 470.566C69.3255 471.061 69.6802 471.499 70.1375 471.882C70.5949 472.265 71.1129 472.559 71.6915 472.764L71.1455 473.604C70.4642 473.352 69.8669 472.983 69.3535 472.498C68.8402 472.003 68.4529 471.434 68.1915 470.79C67.9302 471.518 67.5289 472.157 66.9875 472.708C66.4462 473.259 65.8115 473.674 65.0835 473.954L64.5515 473.114ZM66.4555 476.74C66.4555 476.031 66.8149 475.475 67.5335 475.074C68.2615 474.663 69.2602 474.458 70.5295 474.458C71.7895 474.458 72.7789 474.663 73.4975 475.074C74.2255 475.475 74.5895 476.031 74.5895 476.74C74.5895 477.459 74.2302 478.014 73.5115 478.406C72.7929 478.807 71.7989 479.008 70.5295 479.008C69.2602 479.008 68.2615 478.807 67.5335 478.406C66.8149 478.014 66.4555 477.459 66.4555 476.74ZM67.5055 476.74C67.5055 477.188 67.7715 477.543 68.3035 477.804C68.8449 478.056 69.5869 478.182 70.5295 478.182C71.4629 478.182 72.2002 478.056 72.7415 477.804C73.2829 477.543 73.5535 477.188 73.5535 476.74C73.5535 476.283 73.2829 475.928 72.7415 475.676C72.2002 475.415 71.4629 475.284 70.5295 475.284C69.5869 475.284 68.8449 475.415 68.3035 475.676C67.7715 475.928 67.5055 476.283 67.5055 476.74ZM81.7439 476.558V473.884H78.0619V467.64H79.0979V469.852H85.4539V467.64H86.4899V473.884H82.7799V476.558H87.8339V477.44H76.7319V476.558H81.7439ZM85.4539 473.03V470.72H79.0979V473.03H85.4539ZM98.2848 467.22V467.92C98.2848 468.48 98.4994 469.012 98.9288 469.516C99.3581 470.02 99.9134 470.445 100.595 470.79C101.276 471.135 101.981 471.364 102.709 471.476L102.275 472.316C101.304 472.148 100.403 471.807 99.5728 471.294C98.7421 470.781 98.1354 470.16 97.7528 469.432C97.3794 470.169 96.7728 470.795 95.9328 471.308C95.1021 471.812 94.1921 472.148 93.2028 472.316L92.7688 471.476C93.5061 471.364 94.2154 471.14 94.8968 470.804C95.5781 470.459 96.1288 470.034 96.5488 469.53C96.9781 469.026 97.1928 468.489 97.1928 467.92V467.22H98.2848ZM92.1948 473.702H103.269V474.57H98.2288V479.022H97.1928V474.57H92.1948V473.702ZM113.433 469.978V466.772H114.483V474.066H113.433V470.846H110.941V469.978H113.433ZM104.487 473.114C105.084 472.899 105.616 472.582 106.083 472.162C106.55 471.742 106.914 471.261 107.175 470.72C107.446 470.169 107.581 469.605 107.581 469.026V468.55H104.809V467.682H111.347V468.55H108.631V469.026C108.631 469.549 108.757 470.062 109.009 470.566C109.261 471.061 109.616 471.499 110.073 471.882C110.53 472.265 111.048 472.559 111.627 472.764L111.081 473.604C110.4 473.352 109.802 472.983 109.289 472.498C108.776 472.003 108.388 471.434 108.127 470.79C107.866 471.518 107.464 472.157 106.923 472.708C106.382 473.259 105.747 473.674 105.019 473.954L104.487 473.114ZM106.391 476.74C106.391 476.031 106.75 475.475 107.469 475.074C108.197 474.663 109.196 474.458 110.465 474.458C111.725 474.458 112.714 474.663 113.433 475.074C114.161 475.475 114.525 476.031 114.525 476.74C114.525 477.459 114.166 478.014 113.447 478.406C112.728 478.807 111.734 479.008 110.465 479.008C109.196 479.008 108.197 478.807 107.469 478.406C106.75 478.014 106.391 477.459 106.391 476.74ZM107.441 476.74C107.441 477.188 107.707 477.543 108.239 477.804C108.78 478.056 109.522 478.182 110.465 478.182C111.398 478.182 112.136 478.056 112.677 477.804C113.218 477.543 113.489 477.188 113.489 476.74C113.489 476.283 113.218 475.928 112.677 475.676C112.136 475.415 111.398 475.284 110.465 475.284C109.522 475.284 108.78 475.415 108.239 475.676C107.707 475.928 107.441 476.283 107.441 476.74ZM125.144 467.514V468.368H121.448V469.838H125.018V470.678H121.448V472.274C122.381 472.274 123.156 472.251 123.772 472.204C124.397 472.157 125.023 472.064 125.648 471.924L125.76 472.792C125.088 472.923 124.421 473.011 123.758 473.058C123.105 473.105 122.255 473.128 121.21 473.128H120.44V467.514H125.144ZM122.204 474.22H123.24V475.62H129.176V474.22H130.198V478.854H122.204V474.22ZM129.176 477.986V476.46H123.24V477.986H129.176ZM126.488 467.01H127.482V469.754H129.204V466.786H130.198V473.73H129.204V470.622H127.482V473.632H126.488V467.01ZM142.518 466.772V479.022H141.51V466.772H142.518ZM132.284 472.05C132.284 471.191 132.392 470.445 132.606 469.81C132.821 469.166 133.12 468.671 133.502 468.326C133.894 467.981 134.352 467.808 134.874 467.808C135.621 467.808 136.223 468.144 136.68 468.816C137.147 469.479 137.413 470.393 137.478 471.56H139.088V467.052H140.082V478.392H139.088V472.428H137.478C137.441 473.623 137.184 474.57 136.708 475.27C136.242 475.961 135.63 476.306 134.874 476.306C134.352 476.306 133.894 476.133 133.502 475.788C133.12 475.443 132.821 474.948 132.606 474.304C132.392 473.66 132.284 472.909 132.284 472.05ZM133.25 472.05C133.25 473.049 133.395 473.847 133.684 474.444C133.983 475.032 134.38 475.326 134.874 475.326C135.388 475.326 135.789 475.032 136.078 474.444C136.377 473.856 136.526 473.058 136.526 472.05C136.526 471.051 136.377 470.258 136.078 469.67C135.789 469.082 135.388 468.788 134.874 468.788C134.38 468.788 133.983 469.082 133.684 469.67C133.395 470.258 133.25 471.051 133.25 472.05ZM153.369 470.972V466.758H154.405V479.036H153.369V471.826H150.471V470.972H153.369ZM144.367 475.578C144.945 475.289 145.477 474.855 145.963 474.276C146.457 473.688 146.845 473.025 147.125 472.288C147.414 471.551 147.559 470.813 147.559 470.076V467.836H148.609V470.076C148.609 470.795 148.749 471.509 149.029 472.218C149.318 472.927 149.705 473.562 150.191 474.122C150.676 474.673 151.208 475.083 151.787 475.354L151.171 476.208C150.48 475.853 149.859 475.326 149.309 474.626C148.767 473.926 148.361 473.137 148.091 472.26C147.829 473.184 147.423 474.015 146.873 474.752C146.331 475.489 145.715 476.045 145.025 476.418L144.367 475.578ZM169.882 466.786V475.802H168.832V471.042H166.284C166.172 471.807 165.826 472.428 165.248 472.904C164.678 473.371 163.983 473.604 163.162 473.604C162.564 473.604 162.028 473.478 161.552 473.226C161.076 472.965 160.702 472.605 160.432 472.148C160.161 471.691 160.026 471.168 160.026 470.58C160.026 470.001 160.161 469.483 160.432 469.026C160.702 468.569 161.076 468.214 161.552 467.962C162.028 467.701 162.564 467.57 163.162 467.57C163.712 467.57 164.212 467.682 164.66 467.906C165.108 468.121 165.476 468.429 165.766 468.83C166.055 469.222 166.228 469.675 166.284 470.188H168.832V466.786H169.882ZM161.02 470.58C161.02 471.196 161.22 471.7 161.622 472.092C162.032 472.484 162.546 472.68 163.162 472.68C163.778 472.68 164.286 472.484 164.688 472.092C165.098 471.7 165.304 471.196 165.304 470.58C165.304 469.973 165.098 469.474 164.688 469.082C164.286 468.69 163.778 468.494 163.162 468.494C162.546 468.494 162.032 468.69 161.622 469.082C161.22 469.474 161.02 469.973 161.02 470.58ZM162.084 474.892H163.134V477.874H170.232V478.742H162.084V474.892ZM182.44 466.772V479.022H181.432V466.772H182.44ZM171.926 475.774C172.747 475.27 173.396 474.514 173.872 473.506C174.357 472.489 174.6 471.406 174.6 470.258V469.096H172.234V468.228H177.848V469.096H175.622V470.258C175.622 471.35 175.855 472.377 176.322 473.338C176.789 474.299 177.428 475.018 178.24 475.494L177.596 476.264C177.008 475.909 176.504 475.419 176.084 474.794C175.664 474.159 175.342 473.441 175.118 472.638C174.903 473.497 174.577 474.271 174.138 474.962C173.699 475.643 173.177 476.175 172.57 476.558L171.926 475.774ZM176.91 471.196H178.982V467.066H179.962V478.378H178.982V472.064H176.91V471.196ZM195.376 472.974V473.828H184.316V472.974H195.376ZM185.716 467.304H193.99V468.158H186.752V470.72H194.102V471.602H185.716V467.304ZM185.744 475.158H186.78V477.874H194.2V478.742H185.744V475.158ZM203.763 468.032V468.914H200.851V470.566C200.851 471.238 201 471.91 201.299 472.582C201.607 473.245 202.013 473.837 202.517 474.36C203.021 474.873 203.567 475.261 204.155 475.522L203.553 476.362C202.843 476.026 202.199 475.522 201.621 474.85C201.042 474.178 200.613 473.422 200.333 472.582C200.053 473.487 199.623 474.304 199.045 475.032C198.475 475.76 197.841 476.301 197.141 476.656L196.539 475.83C197.108 475.55 197.645 475.13 198.149 474.57C198.653 474.001 199.054 473.361 199.353 472.652C199.651 471.943 199.801 471.247 199.801 470.566V468.914H196.917V468.032H203.763ZM205.471 466.772H206.521V479.022H205.471V466.772ZM221.409 466.772V471.616H223.439V472.512H221.409V479.022H220.359V466.772H221.409ZM212.519 467.822H213.555V471.07H217.167V467.822H218.203V476.068H212.519V467.822ZM217.167 475.2V471.91H213.555V475.2H217.167ZM227.738 471.14C228.008 470.151 228.167 469.133 228.214 468.088H225.316V467.22H229.222V467.598C229.222 468.121 229.194 468.662 229.138 469.222C229.091 469.782 228.974 470.421 228.788 471.14H232.582C232.843 470.085 232.983 469.068 233.002 468.088H230.16V467.22H234.024V467.64C234.024 468.172 234 468.713 233.954 469.264C233.907 469.805 233.8 470.431 233.632 471.14H235.34V472.008H230.286V473.562H233.912V476.6H226.632V478.028H234.304V478.882H225.596V475.788H232.876V474.416H225.568V473.562H229.25V472.008H224.238V471.14H227.738ZM245.791 467.22V467.92C245.791 468.48 246.005 469.012 246.435 469.516C246.864 470.02 247.419 470.445 248.101 470.79C248.782 471.135 249.487 471.364 250.215 471.476L249.781 472.316C248.81 472.148 247.909 471.807 247.079 471.294C246.248 470.781 245.641 470.16 245.259 469.432C244.885 470.169 244.279 470.795 243.439 471.308C242.608 471.812 241.698 472.148 240.709 472.316L240.275 471.476C241.012 471.364 241.721 471.14 242.403 470.804C243.084 470.459 243.635 470.034 244.055 469.53C244.484 469.026 244.699 468.489 244.699 467.92V467.22H245.791ZM239.701 473.702H250.775V474.57H245.735V479.022H244.699V474.57H239.701V473.702ZM259.266 474.332V475.004C259.266 475.573 259.415 476.124 259.714 476.656C260.012 477.188 260.442 477.617 261.002 477.944C261.571 477.589 262.01 477.137 262.318 476.586C262.635 476.035 262.794 475.508 262.794 475.004V474.332H263.816V475.004C263.816 475.657 264.04 476.269 264.488 476.838C264.936 477.398 265.538 477.809 266.294 478.07L265.776 478.854C265.188 478.639 264.679 478.331 264.25 477.93C263.83 477.519 263.508 477.053 263.284 476.53C263.088 477.062 262.798 477.543 262.416 477.972C262.042 478.401 261.585 478.733 261.044 478.966C260.474 478.742 259.994 478.42 259.602 478C259.219 477.589 258.934 477.113 258.748 476.572C258.524 477.076 258.202 477.529 257.782 477.93C257.371 478.331 256.881 478.639 256.312 478.854L255.78 478.07C256.274 477.893 256.708 477.641 257.082 477.314C257.464 476.978 257.754 476.609 257.95 476.208C258.155 475.797 258.258 475.396 258.258 475.004V474.332H259.266ZM255.458 470.356C255.458 469.796 255.593 469.301 255.864 468.872C256.134 468.443 256.512 468.107 256.998 467.864C257.483 467.621 258.029 467.5 258.636 467.5C259.242 467.5 259.788 467.621 260.274 467.864C260.759 468.107 261.137 468.443 261.408 468.872C261.678 469.301 261.814 469.796 261.814 470.356C261.814 470.907 261.678 471.397 261.408 471.826C261.137 472.255 260.759 472.591 260.274 472.834C259.788 473.067 259.242 473.184 258.636 473.184C258.029 473.184 257.483 473.067 256.998 472.834C256.512 472.591 256.134 472.255 255.864 471.826C255.593 471.397 255.458 470.907 255.458 470.356ZM256.48 470.356C256.48 470.935 256.68 471.406 257.082 471.77C257.492 472.134 258.01 472.316 258.636 472.316C259.27 472.316 259.788 472.134 260.19 471.77C260.591 471.406 260.792 470.935 260.792 470.356C260.792 469.777 260.591 469.306 260.19 468.942C259.788 468.569 259.27 468.382 258.636 468.382C258.01 468.382 257.492 468.569 257.082 468.942C256.68 469.306 256.48 469.777 256.48 470.356ZM264.138 466.786H265.202V473.786H264.138V466.786ZM270.648 467.724C271.199 467.724 271.693 467.878 272.132 468.186C272.571 468.485 272.925 468.919 273.196 469.488C273.467 470.057 273.625 470.72 273.672 471.476H276.416V466.758H277.452V479.036H276.416V472.316H273.672C273.644 473.109 273.495 473.805 273.224 474.402C272.963 474.99 272.608 475.447 272.16 475.774C271.712 476.091 271.208 476.25 270.648 476.25C270.06 476.25 269.533 476.077 269.066 475.732C268.609 475.377 268.249 474.878 267.988 474.234C267.736 473.59 267.61 472.839 267.61 471.98C267.61 471.131 267.736 470.384 267.988 469.74C268.249 469.096 268.609 468.601 269.066 468.256C269.533 467.901 270.06 467.724 270.648 467.724ZM268.604 471.98C268.604 472.643 268.688 473.226 268.856 473.73C269.033 474.234 269.276 474.626 269.584 474.906C269.892 475.177 270.247 475.312 270.648 475.312C271.049 475.312 271.404 475.177 271.712 474.906C272.02 474.626 272.258 474.234 272.426 473.73C272.603 473.226 272.692 472.643 272.692 471.98C272.692 471.317 272.603 470.739 272.426 470.244C272.258 469.74 272.02 469.353 271.712 469.082C271.404 468.802 271.049 468.662 270.648 468.662C270.247 468.662 269.892 468.802 269.584 469.082C269.276 469.353 269.033 469.74 268.856 470.244C268.688 470.739 268.604 471.317 268.604 471.98ZM282.394 476.558V473.212C281.872 472.941 281.461 472.591 281.162 472.162C280.873 471.723 280.728 471.233 280.728 470.692C280.728 470.067 280.915 469.516 281.288 469.04C281.671 468.564 282.198 468.2 282.87 467.948C283.542 467.687 284.308 467.556 285.166 467.556C286.025 467.556 286.79 467.687 287.462 467.948C288.134 468.2 288.657 468.564 289.03 469.04C289.413 469.516 289.604 470.067 289.604 470.692C289.604 471.224 289.46 471.705 289.17 472.134C288.89 472.563 288.494 472.918 287.98 473.198V476.558H290.738V477.426H279.636V476.558H282.394ZM281.75 470.692C281.75 471.149 281.895 471.551 282.184 471.896C282.474 472.241 282.875 472.512 283.388 472.708C283.911 472.895 284.504 472.988 285.166 472.988C285.829 472.988 286.417 472.895 286.93 472.708C287.453 472.512 287.859 472.241 288.148 471.896C288.447 471.551 288.596 471.149 288.596 470.692C288.596 470.235 288.447 469.833 288.148 469.488C287.859 469.143 287.453 468.877 286.93 468.69C286.417 468.494 285.829 468.396 285.166 468.396C284.504 468.396 283.911 468.494 283.388 468.69C282.875 468.877 282.474 469.143 282.184 469.488C281.895 469.833 281.75 470.235 281.75 470.692ZM286.93 476.558V473.604C286.398 473.744 285.81 473.814 285.166 473.814C284.541 473.814 283.962 473.744 283.43 473.604V476.558H286.93Z" fill="#AFB8C1"/>
<rect x="24.5" y="142.5" width="311" height="47" rx="7.5" fill="white"/>
<rect x="24.5" y="142.5" width="311" height="47" rx="7.5" stroke="#ECEEF0"/>
<path d="M51.504 159.184V163.44H53.584V164.432H51.504V169.44H50.304V159.184H51.504ZM41.264 160.176H42.448V162.56H46.528V160.176H47.712V167.088H41.264V160.176ZM46.528 166.112V163.504H42.448V166.112H46.528ZM42.832 168.464H44.016V171.856H52.144V172.848H42.832V168.464ZM66.0964 159.152V173.184H64.9124V167.2H62.0004V166.224H64.9124V163.376H62.0964V162.384H64.9124V159.152H66.0964ZM55.1044 160.448H61.2004V165.408H56.3204V168.896C57.4617 168.896 58.491 168.869 59.4084 168.816C60.3257 168.752 61.2857 168.64 62.2884 168.48L62.4004 169.488C61.3657 169.648 60.379 169.76 59.4404 169.824C58.5017 169.877 57.4137 169.904 56.1764 169.904H55.1364V164.416H60.0164V161.44H55.1044V160.448ZM80.1128 159.168V169.6H78.8968V166.208H75.1368V165.216H78.8968V163.056H75.3288C74.8488 164.155 74.0914 165.12 73.0568 165.952C72.0328 166.773 70.8008 167.424 69.3608 167.904L68.8328 166.928C70.4968 166.384 71.8408 165.616 72.8648 164.624C73.8994 163.632 74.4808 162.507 74.6088 161.248H69.5368V160.272H75.9048C75.9048 160.869 75.8301 161.467 75.6808 162.064H78.8968V159.168H80.1128ZM71.2808 168.592H72.4968V171.856H80.4488V172.848H71.2808V168.592ZM87.1211 160.192C87.8358 160.192 88.4758 160.331 89.0411 160.608C89.6065 160.885 90.0491 161.275 90.3691 161.776C90.6891 162.267 90.8491 162.832 90.8491 163.472C90.8491 164.112 90.6891 164.683 90.3691 165.184C90.0491 165.675 89.6065 166.059 89.0411 166.336C88.4758 166.613 87.8358 166.752 87.1211 166.752C86.3958 166.752 85.7505 166.613 85.1851 166.336C84.6198 166.059 84.1771 165.675 83.8571 165.184C83.5371 164.683 83.3771 164.112 83.3771 163.472C83.3771 162.832 83.5371 162.267 83.8571 161.776C84.1771 161.275 84.6198 160.885 85.1851 160.608C85.7505 160.331 86.3958 160.192 87.1211 160.192ZM82.6571 169.072C84.5345 169.072 86.1931 169.045 87.6331 168.992C89.0838 168.939 90.4811 168.805 91.8251 168.592L91.9211 169.472C90.5345 169.739 89.1158 169.909 87.6651 169.984C86.2145 170.059 84.5985 170.096 82.8171 170.096L82.6571 169.072ZM84.5451 163.472C84.5451 164.123 84.7851 164.661 85.2651 165.088C85.7558 165.504 86.3745 165.712 87.1211 165.712C87.8571 165.712 88.4651 165.504 88.9451 165.088C89.4358 164.661 89.6811 164.123 89.6811 163.472C89.6811 162.811 89.4411 162.272 88.9611 161.856C88.4811 161.44 87.8678 161.232 87.1211 161.232C86.3745 161.232 85.7558 161.44 85.2651 161.856C84.7851 162.272 84.5451 162.811 84.5451 163.472ZM92.7531 159.152H93.9531V173.184H92.7531V159.152ZM111.689 159.152V173.184H110.489V159.152H111.689ZM100.777 165.12C100.777 164.149 100.926 163.296 101.225 162.56C101.524 161.824 101.94 161.259 102.473 160.864C103.017 160.459 103.636 160.256 104.329 160.256C105.012 160.256 105.62 160.459 106.153 160.864C106.697 161.259 107.118 161.824 107.417 162.56C107.716 163.296 107.865 164.149 107.865 165.12C107.865 166.091 107.716 166.949 107.417 167.696C107.118 168.432 106.697 169.003 106.153 169.408C105.62 169.803 105.012 170 104.329 170C103.636 170 103.017 169.803 102.473 169.408C101.94 169.003 101.524 168.432 101.225 167.696C100.926 166.96 100.777 166.101 100.777 165.12ZM101.945 165.12C101.945 165.877 102.046 166.544 102.249 167.12C102.452 167.696 102.729 168.144 103.081 168.464C103.444 168.773 103.86 168.928 104.329 168.928C104.788 168.928 105.198 168.773 105.561 168.464C105.924 168.144 106.206 167.696 106.409 167.12C106.612 166.533 106.713 165.867 106.713 165.12C106.713 164.373 106.612 163.712 106.409 163.136C106.206 162.56 105.924 162.117 105.561 161.808C105.198 161.488 104.788 161.328 104.329 161.328C103.86 161.328 103.444 161.488 103.081 161.808C102.729 162.117 102.452 162.56 102.249 163.136C102.046 163.701 101.945 164.363 101.945 165.12ZM126.937 166.4V167.392H114.249V166.4H126.937ZM115.865 159.536H125.289V162.784H117.065V164.208H125.593V165.168H115.897V161.888H124.105V160.48H115.865V159.536ZM115.977 168.704H125.289V172.976H115.977V168.704ZM124.121 172V169.664H117.145V172H124.121Z" fill="#36393C"/>
<path d="M270.415 170.352V167.136H271.599V170.352H277.359V171.36H264.671V170.352H270.415ZM265.407 166.672C266.303 166.523 267.13 166.251 267.887 165.856C268.655 165.451 269.269 164.949 269.727 164.352C270.186 163.755 270.415 163.099 270.415 162.384H265.871V161.392H270.415V159.456H271.599V161.392H276.143V162.384H271.615C271.615 163.099 271.839 163.755 272.287 164.352C272.746 164.949 273.354 165.451 274.111 165.856C274.879 166.251 275.711 166.523 276.607 166.672L276.127 167.616C274.986 167.403 273.951 167.019 273.023 166.464C272.106 165.899 271.434 165.189 271.007 164.336C270.581 165.179 269.903 165.883 268.975 166.448C268.058 167.013 267.023 167.403 265.871 167.616L265.407 166.672ZM289.744 160.544V161.888C289.744 163.061 289.712 164.117 289.648 165.056C289.584 165.995 289.424 167.093 289.168 168.352L287.984 168.208C288.229 167.077 288.394 165.952 288.48 164.832L279.984 165.328L279.808 164.272L288.528 163.92C288.549 163.429 288.56 162.752 288.56 161.888V161.536H280.176V160.544H289.744ZM278.656 170.224H283.632V166.576H284.816V170.224H291.296V171.216H278.656V170.224Z" fill="#BDC5CC"/>
<path d="M306 161L311 166L306 171" stroke="#959CA4" stroke-width="2" stroke-linecap="round" stroke-linejoin="round"/>
<rect x="24.5" y="206.5" width="311" height="47" rx="7.5" fill="white"/>
<rect x="24.5" y="206.5" width="311" height="47" rx="7.5" stroke="#ECEEF0"/>
<path d="M51.392 223.152V228.784H53.648V229.792H51.392V237.168H50.192V223.152H51.392ZM41.232 224.544H42.416V232.608C44.6667 232.608 46.8107 232.395 48.848 231.968L48.992 232.976C46.912 233.392 44.6933 233.6 42.336 233.6H41.232V224.544ZM66.0484 223.152V237.184H64.8484V223.152H66.0484ZM55.1364 229.12C55.1364 228.149 55.2857 227.296 55.5844 226.56C55.883 225.824 56.299 225.259 56.8324 224.864C57.3764 224.459 57.995 224.256 58.6884 224.256C59.371 224.256 59.979 224.459 60.5124 224.864C61.0564 225.259 61.4777 225.824 61.7764 226.56C62.075 227.296 62.2244 228.149 62.2244 229.12C62.2244 230.091 62.075 230.949 61.7764 231.696C61.4777 232.432 61.0564 233.003 60.5124 233.408C59.979 233.803 59.371 234 58.6884 234C57.995 234 57.3764 233.803 56.8324 233.408C56.299 233.003 55.883 232.432 55.5844 231.696C55.2857 230.96 55.1364 230.101 55.1364 229.12ZM56.3044 229.12C56.3044 229.877 56.4057 230.544 56.6084 231.12C56.811 231.696 57.0884 232.144 57.4404 232.464C57.803 232.773 58.219 232.928 58.6884 232.928C59.147 232.928 59.5577 232.773 59.9204 232.464C60.283 232.144 60.5657 231.696 60.7684 231.12C60.971 230.533 61.0724 229.867 61.0724 229.12C61.0724 228.373 60.971 227.712 60.7684 227.136C60.5657 226.56 60.283 226.117 59.9204 225.808C59.5577 225.488 59.147 225.328 58.6884 225.328C58.219 225.328 57.803 225.488 57.4404 225.808C57.0884 226.117 56.811 226.56 56.6084 227.136C56.4057 227.701 56.3044 228.363 56.3044 229.12Z" fill="#36393C"/>
<path d="M275.549 230.032C276.039 230.331 276.423 230.731 276.701 231.232C276.989 231.733 277.133 232.235 277.133 232.736C277.133 233.387 276.973 233.968 276.653 234.48C276.343 234.981 275.906 235.376 275.341 235.664C274.775 235.952 274.13 236.096 273.405 236.096C272.69 236.096 272.05 235.952 271.485 235.664C270.919 235.376 270.477 234.981 270.157 234.48C269.847 233.968 269.693 233.387 269.693 232.736H270.845C270.845 233.419 271.079 233.979 271.549 234.416C272.029 234.853 272.647 235.072 273.405 235.072C274.162 235.072 274.781 234.859 275.261 234.432C275.741 233.995 275.981 233.435 275.981 232.752C275.981 232.101 275.741 231.573 275.261 231.168C274.791 230.752 274.183 230.544 273.437 230.544H272.589V229.488H273.437C274.13 229.488 274.701 229.301 275.149 228.928C275.597 228.544 275.821 228.059 275.821 227.472C275.821 226.853 275.602 226.352 275.165 225.968C274.738 225.573 274.183 225.376 273.501 225.376C272.818 225.376 272.258 225.573 271.821 225.968C271.383 226.363 271.164 226.875 271.164 227.504H270.013C270.013 226.896 270.162 226.352 270.461 225.872C270.759 225.392 271.17 225.019 271.693 224.752C272.226 224.485 272.829 224.352 273.501 224.352C274.173 224.352 274.77 224.485 275.293 224.752C275.826 225.019 276.237 225.392 276.525 225.872C276.823 226.352 276.973 226.896 276.973 227.504C276.973 227.952 276.845 228.411 276.589 228.88C276.343 229.349 275.997 229.733 275.549 230.032ZM286.528 228.208V223.488H287.648V236.448H286.528V229.216H284.16V228.208H286.528ZM278.496 233.232C279.114 232.869 279.658 232.368 280.128 231.728C280.597 231.088 280.96 230.373 281.216 229.584C281.472 228.795 281.6 228 281.6 227.2V224.512H282.752V227.168C282.752 228.309 283.018 229.413 283.552 230.48C284.085 231.547 284.8 232.352 285.696 232.896L284.992 233.824C284.341 233.44 283.776 232.896 283.296 232.192C282.816 231.477 282.448 230.683 282.192 229.808C281.936 230.757 281.552 231.611 281.04 232.368C280.528 233.125 279.93 233.712 279.248 234.128L278.496 233.232ZM289.376 223.168H290.528V237.168H289.376V223.168Z" fill="#BDC5CC"/>
<path d="M306 225L311 230L306 235" stroke="#959CA4" stroke-width="2" stroke-linecap="round" stroke-linejoin="round"/>
<rect x="24.5" y="270.5" width="311" height="47" rx="7.5" fill="white"/>
<rect x="24.5" y="270.5" width="311" height="47" rx="7.5" stroke="#ECEEF0"/>
<path d="M51.728 296.4V300.976H42.208V296.4H51.728ZM40.64 294H46.368V292.368H42.272V287.696H51.664V292.368H47.552V294H53.28V294.976H40.64V294ZM50.56 300V297.36H43.376V300H50.56ZM50.48 291.392V288.656H43.44V291.392H50.48ZM67.3124 295.328V296.32H61.5204V301.184H60.3364V296.32H54.6244V295.328H67.3124ZM56.2564 287.968H65.6484V293.392H56.2564V287.968ZM64.4804 292.448V288.944H57.4244V292.448H64.4804ZM80.4808 287.168V301.168H79.3288V287.168H80.4808ZM68.6248 297.264C70.1074 296.379 71.2434 295.317 72.0328 294.08C72.8221 292.832 73.2754 291.456 73.3928 289.952H69.2008V288.96H74.5928C74.5928 290.389 74.3581 291.712 73.8888 292.928H76.4167V287.536H77.5528V300.432H76.4167V293.904H73.4568C72.5608 295.621 71.1848 297.035 69.3288 298.144L68.6248 297.264Z" fill="#36393C"/>
<path d="M270.861 289.344C270.071 289.344 269.426 289.605 268.925 290.128C268.423 290.64 268.173 291.301 268.173 292.112C268.173 292.933 268.423 293.605 268.925 294.128C269.426 294.64 270.071 294.896 270.861 294.896C271.362 294.896 271.81 294.779 272.205 294.544C272.61 294.309 272.925 293.979 273.149 293.552C273.373 293.125 273.485 292.645 273.485 292.112C273.485 291.301 273.239 290.64 272.749 290.128C272.258 289.605 271.629 289.344 270.861 289.344ZM267.021 292.112C267.021 291.376 267.181 290.72 267.501 290.144C267.831 289.568 268.285 289.12 268.861 288.8C269.437 288.48 270.093 288.32 270.829 288.32C271.565 288.32 272.221 288.48 272.797 288.8C273.373 289.12 273.821 289.568 274.141 290.144C274.471 290.72 274.637 291.376 274.637 292.112C274.637 292.848 274.439 293.563 274.045 294.256L270.765 300H269.437L271.853 295.808C271.479 295.883 271.138 295.92 270.829 295.92C270.093 295.92 269.437 295.76 268.861 295.44C268.285 295.109 267.831 294.656 267.501 294.08C267.181 293.504 267.021 292.848 267.021 292.112ZM277.995 296.352L281.195 292.624H282.731L279.915 295.888L282.843 300H281.419L279.099 296.768L277.995 298.096V300H276.843V288.768H277.995V296.352ZM287.245 299.056C287.672 299.056 288.066 298.939 288.429 298.704C288.792 298.459 289.074 298.128 289.277 297.712C289.49 297.296 289.597 296.848 289.597 296.368C289.597 295.899 289.49 295.456 289.277 295.04C289.064 294.624 288.776 294.293 288.413 294.048C288.061 293.792 287.672 293.664 287.245 293.664C286.552 293.664 285.981 293.92 285.533 294.432C285.096 294.933 284.877 295.579 284.877 296.368C284.877 297.157 285.096 297.803 285.533 298.304C285.981 298.805 286.552 299.056 287.245 299.056ZM283.725 296.368C283.725 295.653 283.874 295.013 284.173 294.448C284.472 293.883 284.888 293.44 285.421 293.12C285.954 292.789 286.557 292.624 287.229 292.624C287.73 292.624 288.189 292.747 288.605 292.992C289.021 293.227 289.352 293.552 289.597 293.968V292.624H290.749V299.568C290.749 300.283 290.6 300.933 290.301 301.52C290.002 302.107 289.581 302.565 289.037 302.896C288.493 303.237 287.864 303.408 287.149 303.408C286.541 303.408 285.981 303.264 285.469 302.976C284.957 302.699 284.514 302.277 284.141 301.712L285.101 301.136C285.592 301.957 286.274 302.368 287.149 302.368C287.896 302.368 288.488 302.101 288.925 301.568C289.373 301.035 289.597 300.363 289.597 299.552V298.704C289.33 299.109 288.978 299.445 288.541 299.712C288.104 299.968 287.666 300.096 287.229 300.096C286.557 300.096 285.954 299.936 285.421 299.616C284.888 299.296 284.472 298.853 284.173 298.288C283.874 297.723 283.725 297.083 283.725 296.368Z" fill="#BDC5CC"/>
<path d="M306 289L311 294L306 299" stroke="#959CA4" stroke-width="2" stroke-linecap="round" stroke-linejoin="round"/>
<rect x="24.5" y="334.5" width="311" height="47" rx="7.5" fill="white"/>
<rect x="24.5" y="334.5" width="311" height="47" rx="7.5" stroke="#ECEEF0"/>
<path d="M51.456 351.168V354.784H53.552V355.792H51.456V359.424H50.256V351.168H51.456ZM40.576 358.192C42.1973 358.192 43.4613 358.176 44.368 358.144V357.248C43.536 357.184 42.8853 356.997 42.416 356.688C41.9467 356.368 41.712 355.947 41.712 355.424C41.712 354.848 42 354.4 42.576 354.08C43.1627 353.749 43.952 353.584 44.944 353.584C45.9467 353.584 46.736 353.749 47.312 354.08C47.8987 354.4 48.192 354.848 48.192 355.424C48.192 355.936 47.9573 356.352 47.488 356.672C47.0187 356.992 46.3733 357.184 45.552 357.248V358.112C47.0773 358.037 48.3627 357.925 49.408 357.776L49.488 358.544C48.1653 358.768 46.7893 358.917 45.36 358.992C43.9307 359.056 42.384 359.088 40.72 359.088L40.576 358.192ZM40.928 352.24H44.368V351.024H45.552V352.24H48.976V353.12H40.928V352.24ZM42.448 360.08H51.456V362.864H43.648V364.144H52V365.008H42.48V362.064H50.288V360.928H42.448V360.08ZM42.848 355.424C42.848 355.744 43.0347 356 43.408 356.192C43.792 356.373 44.304 356.464 44.944 356.464C45.5947 356.464 46.1067 356.373 46.48 356.192C46.864 356 47.056 355.744 47.056 355.424C47.056 355.104 46.864 354.853 46.48 354.672C46.1067 354.48 45.5947 354.384 44.944 354.384C44.304 354.384 43.792 354.48 43.408 354.672C43.0347 354.853 42.848 355.104 42.848 355.424ZM60.3524 358.112V356.464H56.2404V351.824H65.6964V352.8H57.4244V355.472H65.7924V356.464H61.5364V358.112H67.2804V359.088H54.6404V358.112H60.3524ZM56.1604 362.64C56.1604 361.84 56.5817 361.221 57.4244 360.784C58.267 360.347 59.4404 360.128 60.9444 360.128C62.4377 360.128 63.6057 360.347 64.4484 360.784C65.3017 361.221 65.7284 361.84 65.7284 362.64C65.7284 363.44 65.307 364.059 64.4644 364.496C63.6217 364.933 62.4484 365.152 60.9444 365.152C59.4404 365.152 58.267 364.933 57.4244 364.496C56.5817 364.059 56.1604 363.44 56.1604 362.64ZM57.3604 362.64C57.3604 363.141 57.675 363.531 58.3044 363.808C58.9444 364.075 59.8244 364.208 60.9444 364.208C62.0644 364.208 62.939 364.075 63.5684 363.808C64.1977 363.531 64.5124 363.141 64.5124 362.64C64.5124 362.149 64.1977 361.765 63.5684 361.488C62.939 361.211 62.0644 361.072 60.9444 361.072C59.8244 361.072 58.9444 361.211 58.3044 361.488C57.675 361.765 57.3604 362.149 57.3604 362.64ZM79.4728 351.168V353.392H81.5688V354.4H79.4728V356.336H81.5688V357.328H79.4728V359.648H78.2728V351.168H79.4728ZM69.2168 352.032H75.5048V355.808H70.4328V357.808C71.7661 357.808 72.9181 357.776 73.8888 357.712C74.8594 357.648 75.8568 357.525 76.8808 357.344L76.9928 358.336C75.9368 358.517 74.9074 358.64 73.9048 358.704C72.9128 358.768 71.7234 358.8 70.3368 358.8H69.2488V354.864H74.3208V353.04H69.2168V352.032ZM70.4168 362.592C70.4168 361.803 70.8221 361.189 71.6328 360.752C72.4541 360.304 73.5794 360.08 75.0088 360.08C76.4381 360.08 77.5581 360.304 78.3688 360.752C79.1794 361.189 79.5848 361.803 79.5848 362.592C79.5848 363.392 79.1794 364.016 78.3688 364.464C77.5581 364.923 76.4381 365.152 75.0088 365.152C73.5794 365.152 72.4541 364.923 71.6328 364.464C70.8221 364.016 70.4168 363.392 70.4168 362.592ZM71.5848 362.592C71.5848 363.104 71.8888 363.504 72.4968 363.792C73.1048 364.069 73.9421 364.208 75.0088 364.208C76.0754 364.208 76.9074 364.069 77.5048 363.792C78.1128 363.504 78.4168 363.104 78.4168 362.592C78.4168 362.101 78.1128 361.717 77.5048 361.44C76.8968 361.152 76.0648 361.008 75.0088 361.008C73.9421 361.008 73.1048 361.152 72.4968 361.44C71.8888 361.717 71.5848 362.101 71.5848 362.592Z" fill="#36393C"/>
<path d="M275.487 351.168V354.784H277.583V355.792H275.487V359.424H274.287V351.168H275.487ZM264.607 358.192C266.229 358.192 267.493 358.176 268.399 358.144V357.248C267.567 357.184 266.917 356.997 266.447 356.688C265.978 356.368 265.743 355.947 265.743 355.424C265.743 354.848 266.031 354.4 266.607 354.08C267.194 353.749 267.983 353.584 268.975 353.584C269.978 353.584 270.767 353.749 271.343 354.08C271.93 354.4 272.223 354.848 272.223 355.424C272.223 355.936 271.989 356.352 271.519 356.672C271.05 356.992 270.405 357.184 269.583 357.248V358.112C271.109 358.037 272.394 357.925 273.439 357.776L273.519 358.544C272.197 358.768 270.821 358.917 269.391 358.992C267.962 359.056 266.415 359.088 264.751 359.088L264.607 358.192ZM264.959 352.24H268.399V351.024H269.583V352.24H273.007V353.12H264.959V352.24ZM266.479 360.08H275.487V362.864H267.679V364.144H276.031V365.008H266.511V362.064H274.319V360.928H266.479V360.08ZM266.879 355.424C266.879 355.744 267.066 356 267.439 356.192C267.823 356.373 268.335 356.464 268.975 356.464C269.626 356.464 270.138 356.373 270.511 356.192C270.895 356 271.087 355.744 271.087 355.424C271.087 355.104 270.895 354.853 270.511 354.672C270.138 354.48 269.626 354.384 268.975 354.384C268.335 354.384 267.823 354.48 267.439 354.672C267.066 354.853 266.879 355.104 266.879 355.424ZM280.464 351.744V353.792H284.544V351.744H285.728V357.84H279.28V351.744H280.464ZM284.544 356.864V354.736H280.464V356.864H284.544ZM280.672 359.088H289.52V362.448H281.888V364.032H290.032V365.008H280.704V361.536H288.336V360.048H280.672V359.088ZM288.32 351.168H289.52V354.224H291.6V355.216H289.52V358.4H288.32V351.168Z" fill="#BDC5CC"/>
<path d="M306 353L311 358L306 363" stroke="#959CA4" stroke-width="2" stroke-linecap="round" stroke-linejoin="round"/>
<rect x="24.5" y="398.5" width="311" height="47" rx="7.5" fill="white"/>
<rect x="24.5" y="398.5" width="311" height="47" rx="7.5" stroke="#ECEEF0"/>
<path d="M53.28 421.744V422.72H47.552V424.272C48.8853 424.325 49.9147 424.565 50.64 424.992C51.376 425.408 51.744 425.979 51.744 426.704C51.744 427.472 51.3227 428.069 50.48 428.496C49.6373 428.923 48.464 429.136 46.96 429.136C45.456 429.136 44.2827 428.923 43.44 428.496C42.5973 428.069 42.176 427.472 42.176 426.704C42.176 425.979 42.5387 425.408 43.264 424.992C44 424.565 45.0293 424.325 46.352 424.272V422.72H40.64V421.744H53.28ZM41.36 419.904C42.1813 419.819 42.9547 419.632 43.68 419.344C44.416 419.056 45.0133 418.693 45.472 418.256C45.9307 417.808 46.1707 417.323 46.192 416.8H41.808V415.84H52.144V416.8H47.744C47.7653 417.323 48.0053 417.808 48.464 418.256C48.9227 418.693 49.5147 419.056 50.24 419.344C50.976 419.632 51.7547 419.819 52.576 419.904L52.128 420.864C50.944 420.715 49.8773 420.389 48.928 419.888C47.9893 419.387 47.3387 418.757 46.976 418C46.6027 418.757 45.9413 419.387 44.992 419.888C44.0533 420.389 42.992 420.715 41.808 420.864L41.36 419.904ZM43.376 426.704C43.376 427.184 43.6907 427.557 44.32 427.824C44.9493 428.08 45.8293 428.208 46.96 428.208C48.08 428.208 48.9547 428.08 49.584 427.824C50.2133 427.557 50.528 427.184 50.528 426.704C50.528 426.224 50.2133 425.851 49.584 425.584C48.9547 425.317 48.08 425.184 46.96 425.184C45.8293 425.184 44.9493 425.317 44.32 425.584C43.6907 425.851 43.376 426.224 43.376 426.704ZM59.3604 415.968V417.376C59.3604 418.368 59.675 419.275 60.3044 420.096C60.9444 420.907 61.7764 421.488 62.8004 421.84L62.1444 422.784C61.3764 422.496 60.699 422.075 60.1124 421.52C59.5364 420.965 59.099 420.315 58.8004 419.568C58.5017 420.411 58.043 421.147 57.4244 421.776C56.8164 422.405 56.091 422.88 55.2484 423.2L54.6244 422.224C55.691 421.84 56.5497 421.216 57.2004 420.352C57.851 419.477 58.1764 418.501 58.1764 417.424V415.968H59.3604ZM56.8484 426.512C56.8484 425.68 57.2644 425.035 58.0964 424.576C58.9284 424.107 60.0697 423.872 61.5204 423.872C62.971 423.872 64.107 424.107 64.9284 424.576C65.7497 425.035 66.1604 425.68 66.1604 426.512C66.1604 427.344 65.7497 427.989 64.9284 428.448C64.107 428.907 62.971 429.136 61.5204 429.136C60.059 429.136 58.9124 428.907 58.0804 428.448C57.259 427.989 56.8484 427.344 56.8484 426.512ZM58.0644 426.512C58.0644 427.035 58.3684 427.445 58.9764 427.744C59.595 428.043 60.443 428.192 61.5204 428.192C62.587 428.192 63.4297 428.043 64.0484 427.744C64.667 427.445 64.9764 427.035 64.9764 426.512C64.9764 425.989 64.667 425.579 64.0484 425.28C63.4297 424.981 62.587 424.832 61.5204 424.832C60.443 424.832 59.595 424.981 58.9764 425.28C58.3684 425.579 58.0644 425.989 58.0644 426.512ZM61.7924 418.176H64.8964V415.168H66.0964V423.456H64.8964V419.184H61.7924V418.176ZM79.3608 415.168V421.136H81.5848V422.16H79.3608V429.168H78.1608V415.168H79.3608ZM68.4488 425.44C70.0914 425.44 71.3714 425.424 72.2888 425.392V423.84C71.4674 423.744 70.8114 423.472 70.3207 423.024C69.8408 422.565 69.6008 421.989 69.6008 421.296C69.6008 420.517 69.9048 419.893 70.5128 419.424C71.1208 418.944 71.9101 418.704 72.8808 418.704C73.8621 418.704 74.6568 418.944 75.2648 419.424C75.8728 419.893 76.1768 420.517 76.1768 421.296C76.1768 421.989 75.9314 422.565 75.4408 423.024C74.9501 423.472 74.2994 423.744 73.4888 423.84V425.344C74.9928 425.269 76.2621 425.157 77.2968 425.008L77.3928 425.888C76.0594 426.133 74.6941 426.293 73.2968 426.368C71.8994 426.432 70.3474 426.464 68.6408 426.464L68.4488 425.44ZM68.6888 416.88H72.2888V415.184H73.4888V416.88H77.0728V417.856H68.6888V416.88ZM70.7368 421.296C70.7368 421.787 70.9341 422.181 71.3288 422.48C71.7234 422.779 72.2408 422.928 72.8808 422.928C73.5314 422.928 74.0541 422.779 74.4488 422.48C74.8434 422.181 75.0408 421.787 75.0408 421.296C75.0408 420.795 74.8434 420.395 74.4488 420.096C74.0541 419.787 73.5314 419.632 72.8808 419.632C72.2408 419.632 71.7234 419.787 71.3288 420.096C70.9341 420.395 70.7368 420.795 70.7368 421.296ZM89.9926 416.256C90.6326 416.256 91.2033 416.437 91.7046 416.8C92.2166 417.152 92.622 417.659 92.9206 418.32H96.5846V415.152H97.7686V429.184H96.5846V423.744H93.0006C92.7126 424.459 92.3073 425.013 91.7846 425.408C91.262 425.803 90.6646 426 89.9926 426C89.3206 426 88.718 425.803 88.1846 425.408C87.662 425.003 87.2513 424.432 86.9526 423.696C86.6646 422.96 86.5206 422.101 86.5206 421.12C86.5206 420.149 86.6646 419.296 86.9526 418.56C87.2513 417.824 87.662 417.259 88.1846 416.864C88.718 416.459 89.3206 416.256 89.9926 416.256ZM87.6566 421.12C87.6566 421.877 87.7526 422.544 87.9446 423.12C88.1473 423.696 88.4246 424.144 88.7766 424.464C89.1286 424.773 89.534 424.928 89.9926 424.928C90.4513 424.928 90.8566 424.773 91.2086 424.464C91.5713 424.144 91.8486 423.696 92.0406 423.12C92.2433 422.544 92.3446 421.877 92.3446 421.12C92.3446 420.363 92.2433 419.701 92.0406 419.136C91.8486 418.56 91.5713 418.117 91.2086 417.808C90.8566 417.488 90.4513 417.328 89.9926 417.328C89.534 417.328 89.1286 417.488 88.7766 417.808C88.4246 418.117 88.1473 418.56 87.9446 419.136C87.7526 419.701 87.6566 420.363 87.6566 421.12ZM93.2566 419.312C93.3953 419.835 93.4646 420.437 93.4646 421.12C93.4646 421.653 93.4113 422.197 93.3046 422.752H96.5846V419.312H93.2566ZM112.953 423.504V424.48H107.161V429.168H105.977V424.48H100.265V423.504H112.953ZM101.881 415.76H103.065V417.696H110.121V415.76H111.305V421.792H101.881V415.76ZM110.121 420.8V418.672H103.065V420.8H110.121Z" fill="#36393C"/>
<path d="M217.686 421.744V422.72H211.958V424.272C213.292 424.325 214.321 424.565 215.046 424.992C215.782 425.408 216.15 425.979 216.15 426.704C216.15 427.472 215.729 428.069 214.886 428.496C214.044 428.923 212.87 429.136 211.366 429.136C209.862 429.136 208.689 428.923 207.846 428.496C207.004 428.069 206.582 427.472 206.582 426.704C206.582 425.979 206.945 425.408 207.67 424.992C208.406 424.565 209.436 424.325 210.758 424.272V422.72H205.046V421.744H217.686ZM205.766 419.904C206.588 419.819 207.361 419.632 208.086 419.344C208.822 419.056 209.42 418.693 209.878 418.256C210.337 417.808 210.577 417.323 210.598 416.8H206.214V415.84H216.55V416.8H212.15C212.172 417.323 212.412 417.808 212.87 418.256C213.329 418.693 213.921 419.056 214.646 419.344C215.382 419.632 216.161 419.819 216.982 419.904L216.534 420.864C215.35 420.715 214.284 420.389 213.334 419.888C212.396 419.387 211.745 418.757 211.382 418C211.009 418.757 210.348 419.387 209.398 419.888C208.46 420.389 207.398 420.715 206.214 420.864L205.766 419.904ZM207.782 426.704C207.782 427.184 208.097 427.557 208.726 427.824C209.356 428.08 210.236 428.208 211.366 428.208C212.486 428.208 213.361 428.08 213.99 427.824C214.62 427.557 214.934 427.184 214.934 426.704C214.934 426.224 214.62 425.851 213.99 425.584C213.361 425.317 212.486 425.184 211.366 425.184C210.236 425.184 209.356 425.317 208.726 425.584C208.097 425.851 207.782 426.224 207.782 426.704ZM223.767 415.968V417.376C223.767 418.368 224.081 419.275 224.711 420.096C225.351 420.907 226.183 421.488 227.207 421.84L226.551 422.784C225.783 422.496 225.105 422.075 224.519 421.52C223.943 420.965 223.505 420.315 223.207 419.568C222.908 420.411 222.449 421.147 221.831 421.776C221.223 422.405 220.497 422.88 219.655 423.2L219.031 422.224C220.097 421.84 220.956 421.216 221.607 420.352C222.257 419.477 222.583 418.501 222.583 417.424V415.968H223.767ZM221.255 426.512C221.255 425.68 221.671 425.035 222.503 424.576C223.335 424.107 224.476 423.872 225.927 423.872C227.377 423.872 228.513 424.107 229.335 424.576C230.156 425.035 230.567 425.68 230.567 426.512C230.567 427.344 230.156 427.989 229.335 428.448C228.513 428.907 227.377 429.136 225.927 429.136C224.465 429.136 223.319 428.907 222.487 428.448C221.665 427.989 221.255 427.344 221.255 426.512ZM222.471 426.512C222.471 427.035 222.775 427.445 223.383 427.744C224.001 428.043 224.849 428.192 225.927 428.192C226.993 428.192 227.836 428.043 228.455 427.744C229.073 427.445 229.383 427.035 229.383 426.512C229.383 425.989 229.073 425.579 228.455 425.28C227.836 424.981 226.993 424.832 225.927 424.832C224.849 424.832 224.001 424.981 223.383 425.28C222.775 425.579 222.471 425.989 222.471 426.512ZM226.199 418.176H229.303V415.168H230.503V423.456H229.303V419.184H226.199V418.176ZM243.767 415.168V421.136H245.991V422.16H243.767V429.168H242.567V415.168H243.767ZM232.855 425.44C234.498 425.44 235.778 425.424 236.695 425.392V423.84C235.874 423.744 235.218 423.472 234.727 423.024C234.247 422.565 234.007 421.989 234.007 421.296C234.007 420.517 234.311 419.893 234.919 419.424C235.527 418.944 236.316 418.704 237.287 418.704C238.268 418.704 239.063 418.944 239.671 419.424C240.279 419.893 240.583 420.517 240.583 421.296C240.583 421.989 240.338 422.565 239.847 423.024C239.356 423.472 238.706 423.744 237.895 423.84V425.344C239.399 425.269 240.668 425.157 241.703 425.008L241.799 425.888C240.466 426.133 239.1 426.293 237.703 426.368C236.306 426.432 234.754 426.464 233.047 426.464L232.855 425.44ZM233.095 416.88H236.695V415.184H237.895V416.88H241.479V417.856H233.095V416.88ZM235.143 421.296C235.143 421.787 235.34 422.181 235.735 422.48C236.13 422.779 236.647 422.928 237.287 422.928C237.938 422.928 238.46 422.779 238.855 422.48C239.25 422.181 239.447 421.787 239.447 421.296C239.447 420.795 239.25 420.395 238.855 420.096C238.46 419.787 237.938 419.632 237.287 419.632C236.647 419.632 236.13 419.787 235.735 420.096C235.34 420.395 235.143 420.795 235.143 421.296ZM262.479 415.184V423.856H261.327V420.032H259.487V423.632H258.351V415.392H259.487V419.04H261.327V415.184H262.479ZM250.607 416.8H253.615V415.232H254.783V416.8H257.743V417.76H250.607V416.8ZM251.231 420.88C251.231 420.155 251.503 419.579 252.047 419.152C252.591 418.715 253.306 418.496 254.191 418.496C255.076 418.496 255.791 418.715 256.335 419.152C256.89 419.579 257.167 420.155 257.167 420.88C257.167 421.595 256.89 422.171 256.335 422.608C255.791 423.045 255.076 423.264 254.191 423.264C253.306 423.264 252.591 423.045 252.047 422.608C251.503 422.171 251.231 421.595 251.231 420.88ZM251.599 428.096C252.164 427.904 252.66 427.627 253.087 427.264C253.514 426.901 253.839 426.501 254.063 426.064C254.298 425.627 254.415 425.195 254.415 424.768V424.256H255.567V424.768C255.567 425.387 255.738 425.989 256.079 426.576C256.431 427.152 256.922 427.616 257.551 427.968C258.18 427.584 258.671 427.093 259.023 426.496C259.386 425.899 259.567 425.323 259.567 424.768V424.256H260.751V424.768C260.751 425.472 261.007 426.133 261.519 426.752C262.031 427.371 262.719 427.819 263.583 428.096L263.007 428.992C262.324 428.757 261.738 428.416 261.247 427.968C260.756 427.52 260.388 427.003 260.143 426.416C259.919 427.003 259.588 427.536 259.151 428.016C258.724 428.496 258.202 428.864 257.583 429.12C256.932 428.875 256.388 428.523 255.951 428.064C255.514 427.605 255.188 427.077 254.975 426.48C254.708 427.035 254.335 427.536 253.855 427.984C253.375 428.421 252.81 428.757 252.159 428.992L251.599 428.096ZM252.287 420.88C252.287 421.317 252.463 421.675 252.815 421.952C253.167 422.229 253.626 422.368 254.191 422.368C254.756 422.368 255.215 422.229 255.567 421.952C255.919 421.675 256.095 421.317 256.095 420.88C256.095 420.432 255.919 420.075 255.567 419.808C255.215 419.531 254.756 419.392 254.191 419.392C253.626 419.392 253.167 419.531 252.815 419.808C252.463 420.075 252.287 420.432 252.287 420.88ZM268.383 416.256C269.013 416.256 269.578 416.432 270.079 416.784C270.581 417.125 270.986 417.621 271.295 418.272C271.605 418.923 271.786 419.68 271.839 420.544H274.975V415.152H276.159V429.184H274.975V421.504H271.839C271.807 422.411 271.637 423.205 271.327 423.888C271.029 424.56 270.623 425.083 270.111 425.456C269.599 425.819 269.023 426 268.383 426C267.711 426 267.109 425.803 266.575 425.408C266.053 425.003 265.642 424.432 265.343 423.696C265.055 422.96 264.911 422.101 264.911 421.12C264.911 420.149 265.055 419.296 265.343 418.56C265.642 417.824 266.053 417.259 266.575 416.864C267.109 416.459 267.711 416.256 268.383 416.256ZM266.047 421.12C266.047 421.877 266.143 422.544 266.335 423.12C266.538 423.696 266.815 424.144 267.167 424.464C267.519 424.773 267.925 424.928 268.383 424.928C268.842 424.928 269.247 424.773 269.599 424.464C269.951 424.144 270.223 423.696 270.415 423.12C270.618 422.544 270.719 421.877 270.719 421.12C270.719 420.363 270.618 419.701 270.415 419.136C270.223 418.56 269.951 418.117 269.599 417.808C269.247 417.488 268.842 417.328 268.383 417.328C267.925 417.328 267.519 417.488 267.167 417.808C266.815 418.117 266.538 418.56 266.335 419.136C266.143 419.701 266.047 420.363 266.047 421.12ZM281.808 426.352V422.528C281.21 422.219 280.741 421.819 280.4 421.328C280.069 420.827 279.904 420.267 279.904 419.648C279.904 418.933 280.117 418.304 280.544 417.76C280.981 417.216 281.584 416.8 282.352 416.512C283.12 416.213 283.994 416.064 284.976 416.064C285.957 416.064 286.832 416.213 287.6 416.512C288.368 416.8 288.965 417.216 289.392 417.76C289.829 418.304 290.048 418.933 290.048 419.648C290.048 420.256 289.882 420.805 289.552 421.296C289.232 421.787 288.778 422.192 288.192 422.512V426.352H291.344V427.344H278.656V426.352H281.808ZM281.072 419.648C281.072 420.171 281.237 420.629 281.568 421.024C281.898 421.419 282.357 421.728 282.944 421.952C283.541 422.165 284.218 422.272 284.976 422.272C285.733 422.272 286.405 422.165 286.992 421.952C287.589 421.728 288.053 421.419 288.384 421.024C288.725 420.629 288.896 420.171 288.896 419.648C288.896 419.125 288.725 418.667 288.384 418.272C288.053 417.877 287.589 417.573 286.992 417.36C286.405 417.136 285.733 417.024 284.976 417.024C284.218 417.024 283.541 417.136 282.944 417.36C282.357 417.573 281.898 417.877 281.568 418.272C281.237 418.667 281.072 419.125 281.072 419.648ZM286.992 426.352V422.976C286.384 423.136 285.712 423.216 284.976 423.216C284.261 423.216 283.6 423.136 282.992 422.976V426.352H286.992Z" fill="#BDC5CC"/>
<path d="M306 417L311 422L306 427" stroke="#959CA4" stroke-width="2" stroke-linecap="round" stroke-linejoin="round"/>
<path d="M138.871 22.184V26.44H140.951V27.432H138.871V32.44H137.671V22.184H138.871ZM128.631 23.176H129.815V25.56H133.895V23.176H135.079V30.088H128.631V23.176ZM133.895 29.112V26.504H129.815V29.112H133.895ZM130.199 31.464H131.383V34.856H139.511V35.848H130.199V31.464ZM153.464 22.152V36.184H152.28V30.2H149.368V29.224H152.28V26.376H149.464V25.384H152.28V22.152H153.464ZM142.472 23.448H148.568V28.408H143.688V31.896C144.829 31.896 145.858 31.8693 146.776 31.816C147.693 31.752 148.653 31.64 149.656 31.48L149.768 32.488C148.733 32.648 147.746 32.76 146.808 32.824C145.869 32.8773 144.781 32.904 143.544 32.904H142.504V27.416H147.384V24.44H142.472V23.448ZM167.48 22.168V32.6H166.264V29.208H162.504V28.216H166.264V26.056H162.696C162.216 27.1547 161.459 28.12 160.424 28.952C159.4 29.7733 158.168 30.424 156.728 30.904L156.2 29.928C157.864 29.384 159.208 28.616 160.232 27.624C161.267 26.632 161.848 25.5067 161.976 24.248H156.904V23.272H163.272C163.272 23.8693 163.197 24.4667 163.048 25.064H166.264V22.168H167.48ZM158.648 31.592H159.864V34.856H167.816V35.848H158.648V31.592ZM183.936 25.832V22.168H185.136V30.504H183.936V26.824H181.088V25.832H183.936ZM173.712 29.416C174.394 29.1707 175.002 28.808 175.536 28.328C176.069 27.848 176.485 27.2987 176.784 26.68C177.093 26.0507 177.248 25.4053 177.248 24.744V24.2H174.08V23.208H181.552V24.2H178.448V24.744C178.448 25.3413 178.592 25.928 178.88 26.504C179.168 27.0693 179.573 27.5707 180.096 28.008C180.618 28.4453 181.21 28.7813 181.872 29.016L181.248 29.976C180.469 29.688 179.786 29.2667 179.2 28.712C178.613 28.1467 178.17 27.496 177.872 26.76C177.573 27.592 177.114 28.3227 176.496 28.952C175.877 29.5813 175.152 30.056 174.32 30.376L173.712 29.416ZM175.888 33.56C175.888 32.7493 176.298 32.1147 177.12 31.656C177.952 31.1867 179.093 30.952 180.544 30.952C181.984 30.952 183.114 31.1867 183.936 31.656C184.768 32.1147 185.184 32.7493 185.184 33.56C185.184 34.3813 184.773 35.016 183.952 35.464C183.13 35.9227 181.994 36.152 180.544 36.152C179.093 36.152 177.952 35.9227 177.12 35.464C176.298 35.016 175.888 34.3813 175.888 33.56ZM177.088 33.56C177.088 34.072 177.392 34.4773 178 34.776C178.618 35.064 179.466 35.208 180.544 35.208C181.61 35.208 182.453 35.064 183.072 34.776C183.69 34.4773 184 34.072 184 33.56C184 33.0373 183.69 32.632 183.072 32.344C182.453 32.0453 181.61 31.896 180.544 31.896C179.466 31.896 178.618 32.0453 178 32.344C177.392 32.632 177.088 33.0373 177.088 33.56ZM193.36 33.352V30.296H189.152V23.16H190.336V25.688H197.6V23.16H198.784V30.296H194.544V33.352H200.32V34.36H187.632V33.352H193.36ZM197.6 29.32V26.68H190.336V29.32H197.6ZM216.744 22.168V29.672H215.544V22.168H216.744ZM205.624 26.056C205.624 25.4267 205.779 24.872 206.088 24.392C206.397 23.9013 206.829 23.5227 207.384 23.256C207.939 22.9893 208.563 22.856 209.256 22.856C209.949 22.856 210.573 22.9893 211.128 23.256C211.683 23.5227 212.115 23.9013 212.424 24.392C212.733 24.872 212.888 25.4267 212.888 26.056C212.888 26.6853 212.733 27.2453 212.424 27.736C212.115 28.216 211.683 28.5947 211.128 28.872C210.573 29.1387 209.949 29.272 209.256 29.272C208.563 29.272 207.939 29.1387 207.384 28.872C206.829 28.5947 206.397 28.216 206.088 27.736C205.779 27.2453 205.624 26.6853 205.624 26.056ZM206.792 26.056C206.792 26.7067 207.021 27.24 207.48 27.656C207.949 28.0613 208.541 28.264 209.256 28.264C209.971 28.264 210.557 28.0613 211.016 27.656C211.485 27.24 211.72 26.7067 211.72 26.056C211.72 25.4053 211.485 24.8773 211.016 24.472C210.557 24.056 209.971 23.848 209.256 23.848C208.541 23.848 207.949 24.056 207.48 24.472C207.021 24.8773 206.792 25.4053 206.792 26.056ZM207.768 30.392H208.952V32.12H215.56V30.392H216.744V35.976H207.768V30.392ZM215.56 35V33.08H208.952V35H215.56ZM225.864 23.016V26.936H221.064V29.144C222.472 29.144 223.566 29.1227 224.344 29.08C225.123 29.0373 225.907 28.9413 226.696 28.792L226.824 29.768C225.992 29.9173 225.166 30.0133 224.344 30.056C223.523 30.0987 222.36 30.12 220.856 30.12H219.88V25.992H224.68V24.008H219.832V23.016H225.864ZM221.432 31.544H230.776V36.2H229.576V32.52H221.432V31.544ZM226.792 27.16H229.576V25.256H226.792V24.264H229.576V22.184H230.776V30.776H229.576V28.136H226.792V27.16Z" fill="#191919"/>
<path d="M321 22L335 36" stroke="#36393C" stroke-width="2" stroke-linecap="round" stroke-linejoin="round"/>
<path d="M335 22L321 36" stroke="#36393C" stroke-width="2" stroke-linecap="round" stroke-linejoin="round"/>
<g clip-path="url(#clip1_3065_3516)">
<path d="M23.636 28.293C23.4486 28.4805 23.3433 28.7348 23.3433 29C23.3433 29.2652 23.4486 29.5195 23.636 29.707L29.293 35.364C29.4817 35.5462 29.7343 35.6469 29.9964 35.6447C30.2586 35.6424 30.5095 35.5372 30.6949 35.3518C30.8803 35.1664 30.9854 34.9156 30.9877 34.6534C30.99 34.3912 30.8892 34.1386 30.707 33.95L26.757 30H40C40.2653 30 40.5196 29.8946 40.7072 29.7071C40.8947 29.5196 41 29.2652 41 29C41 28.7348 40.8947 28.4804 40.7072 28.2929C40.5196 28.1054 40.2653 28 40 28H26.757L30.707 24.05C30.8892 23.8614 30.99 23.6088 30.9877 23.3466C30.9854 23.0844 30.8803 22.8336 30.6949 22.6482C30.5095 22.4628 30.2586 22.3576 29.9964 22.3553C29.7343 22.353 29.4817 22.4538 29.293 22.636L23.636 28.293Z" fill="#36393C"/>
</g>
<path d="M37.26 98.24V93.82H39.46V104.38H37.26V100.02H34.24V98.24H37.26ZM24.64 102.6C26 102.12 27.0533 101.353 27.8 100.3C28.56 99.2333 28.94 98.08 28.94 96.84V96.74H25.24V94.98H34.8V96.74H31.16V96.84C31.16 97.9733 31.52 99.0267 32.24 100C32.96 100.973 33.98 101.687 35.3 102.14L34.2 103.86C33.24 103.527 32.4133 103.047 31.72 102.42C31.0267 101.78 30.4867 101.027 30.1 100.16C29.7 101.133 29.1267 101.987 28.38 102.72C27.6467 103.44 26.7667 103.98 25.74 104.34L24.64 102.6ZM27.46 108.24C27.46 107.187 28 106.36 29.08 105.76C30.16 105.147 31.6333 104.84 33.5 104.84C35.3667 104.84 36.8333 105.147 37.9 105.76C38.98 106.36 39.52 107.187 39.52 108.24C39.52 109.307 38.98 110.133 37.9 110.72C36.8333 111.32 35.3667 111.62 33.5 111.62C31.62 111.62 30.14 111.32 29.06 110.72C27.9933 110.133 27.46 109.307 27.46 108.24ZM29.66 108.24C29.66 108.787 29.9933 109.207 30.66 109.5C31.3267 109.793 32.2733 109.94 33.5 109.94C34.7267 109.94 35.6733 109.793 36.34 109.5C37.0067 109.207 37.34 108.787 37.34 108.24C37.34 107.68 37.0067 107.253 36.34 106.96C35.6733 106.667 34.7267 106.52 33.5 106.52C32.26 106.52 31.3067 106.667 30.64 106.96C29.9867 107.253 29.66 107.68 29.66 108.24ZM48.3505 107.66V104.18H43.1905V94.98H45.3705V97.88H53.5305V94.98H55.7105V104.18H50.5305V107.66H57.5305V109.46H41.4105V107.66H48.3505ZM53.5305 102.42V99.62H45.3705V102.42H53.5305ZM74.2609 101.92V103.52H58.1409V101.92H74.2609ZM59.9809 104.62H72.3009V108.68H62.2009V109.92H72.8209V111.44H60.0209V107.26H70.1409V106.14H59.9809V104.62ZM60.1409 94.2H72.2409V98.22H62.3209V99.36H72.5809V100.9H60.1809V96.8H70.0809V95.72H60.1409V94.2ZM92.5908 93.78V100.54H95.2908V102.36H92.5908V111.64H90.3708V93.78H92.5908ZM79.4508 95.5H87.7508V97.26H81.6508V105.46C83.1441 105.447 84.4508 105.4 85.5708 105.32C86.7041 105.24 87.8441 105.093 88.9908 104.88L89.2108 106.72C87.9574 106.947 86.7041 107.1 85.4508 107.18C84.2108 107.26 82.6974 107.3 80.9108 107.3H79.4508V95.5ZM102.121 95.26V98.06C102.121 99.1667 102.301 100.24 102.661 101.28C103.021 102.32 103.541 103.247 104.221 104.06C104.915 104.86 105.728 105.467 106.661 105.88L105.381 107.66C104.368 107.193 103.495 106.513 102.761 105.62C102.028 104.713 101.455 103.667 101.041 102.48C100.628 103.76 100.041 104.887 99.2813 105.86C98.5346 106.82 97.6346 107.547 96.5813 108.04L95.2613 106.22C96.2079 105.793 97.0279 105.16 97.7212 104.32C98.4279 103.48 98.9679 102.52 99.3413 101.44C99.7146 100.347 99.9013 99.22 99.9013 98.06V95.26H102.121ZM107.921 93.78H110.121V111.64H107.921V93.78ZM129.971 93.82V99.4H132.451V101.22H129.971V107.14H127.771V93.82H129.971ZM116.071 95.78H120.211V93.8H122.411V95.78H126.551V97.52H116.071V95.78ZM116.991 101.68C116.991 101.013 117.171 100.427 117.531 99.92C117.904 99.4 118.418 99 119.071 98.72C119.724 98.44 120.471 98.3 121.311 98.3C122.151 98.3 122.898 98.44 123.551 98.72C124.218 99 124.731 99.4 125.091 99.92C125.464 100.427 125.651 101.013 125.651 101.68C125.651 102.347 125.464 102.94 125.091 103.46C124.731 103.98 124.218 104.38 123.551 104.66C122.898 104.94 122.151 105.08 121.311 105.08C120.471 105.08 119.724 104.94 119.071 104.66C118.418 104.38 117.904 103.98 117.531 103.46C117.171 102.94 116.991 102.347 116.991 101.68ZM118.651 106.1H120.851V109.5H130.691V111.26H118.651V106.1ZM119.091 101.68C119.091 102.213 119.291 102.633 119.691 102.94C120.104 103.233 120.644 103.38 121.311 103.38C121.978 103.38 122.511 103.233 122.911 102.94C123.324 102.633 123.531 102.213 123.531 101.68C123.531 101.147 123.324 100.733 122.911 100.44C122.511 100.133 121.978 99.98 121.311 99.98C120.644 99.98 120.104 100.133 119.691 100.44C119.291 100.733 119.091 101.147 119.091 101.68ZM147.562 93.82V106.96H145.362V100.42H141.842V104.1H133.582V94.98H135.742V97.86H139.682V94.98H141.842V98.64H145.362V93.82H147.562ZM139.682 102.32V99.54H135.742V102.32H139.682ZM135.922 105.68H138.122V109.5H147.962V111.26H135.922V105.68ZM167.351 93.82V99.02H169.751V100.82H167.351V105.86H165.151V93.82H167.351ZM153.191 103.74C155.111 103.74 156.598 103.727 157.651 103.7V102.58C156.665 102.46 155.885 102.173 155.311 101.72C154.751 101.267 154.471 100.693 154.471 100C154.471 99.1867 154.851 98.5467 155.611 98.08C156.385 97.6 157.418 97.36 158.711 97.36C160.018 97.36 161.058 97.6 161.831 98.08C162.605 98.5467 162.991 99.1867 162.991 100C162.991 100.693 162.711 101.267 162.151 101.72C161.591 102.16 160.818 102.447 159.831 102.58V103.62C161.538 103.527 163.018 103.393 164.271 103.22L164.451 104.76C162.798 105.053 161.118 105.24 159.411 105.32C157.718 105.4 155.738 105.447 153.471 105.46L153.191 103.74ZM153.651 95.22H157.651V93.66H159.831V95.22H163.791V96.84H153.651V95.22ZM155.431 106.64H167.351V111.62H165.151V108.36H155.431V106.64ZM156.551 100C156.551 100.373 156.745 100.667 157.131 100.88C157.518 101.093 158.045 101.2 158.711 101.2C159.391 101.2 159.925 101.093 160.311 100.88C160.711 100.667 160.911 100.373 160.911 100C160.911 99.6267 160.711 99.3333 160.311 99.12C159.925 98.9067 159.391 98.8 158.711 98.8C158.031 98.8 157.498 98.9067 157.111 99.12C156.738 99.3333 156.551 99.6267 156.551 100ZM184.802 93.82V106.68H182.602V93.82H184.802ZM170.402 99.46C170.402 98.6067 170.609 97.84 171.022 97.16C171.449 96.4667 172.022 95.9333 172.742 95.56C173.475 95.1733 174.282 94.98 175.162 94.98C176.055 94.98 176.862 95.1733 177.582 95.56C178.315 95.9333 178.889 96.4667 179.302 97.16C179.715 97.84 179.922 98.6067 179.922 99.46C179.922 100.3 179.715 101.06 179.302 101.74C178.889 102.42 178.315 102.953 177.582 103.34C176.862 103.727 176.055 103.92 175.162 103.92C174.282 103.92 173.475 103.727 172.742 103.34C172.022 102.953 171.449 102.42 171.022 101.74C170.609 101.06 170.402 100.3 170.402 99.46ZM172.542 99.46C172.542 100.22 172.789 100.833 173.282 101.3C173.789 101.767 174.415 102 175.162 102C175.909 102 176.529 101.767 177.022 101.3C177.529 100.833 177.782 100.22 177.782 99.46C177.782 98.6867 177.535 98.0667 177.042 97.6C176.549 97.12 175.922 96.88 175.162 96.88C174.402 96.88 173.775 97.12 173.282 97.6C172.789 98.0667 172.542 98.6867 172.542 99.46ZM173.122 105.4H175.302V109.5H185.282V111.26H173.122V105.4ZM190.052 96.64V94.28H192.212V96.64H195.432V98.38H186.792V96.64H190.052ZM187.272 103.5C187.272 102.7 187.439 101.987 187.772 101.36C188.106 100.72 188.566 100.227 189.152 99.88C189.739 99.52 190.399 99.34 191.132 99.34C191.879 99.34 192.546 99.52 193.132 99.88C193.719 100.227 194.179 100.72 194.512 101.36C194.846 101.987 195.012 102.7 195.012 103.5C195.012 104.313 194.846 105.04 194.512 105.68C194.179 106.307 193.719 106.8 193.132 107.16C192.546 107.507 191.879 107.68 191.132 107.68C190.399 107.68 189.739 107.507 189.152 107.16C188.566 106.8 188.106 106.307 187.772 105.68C187.439 105.04 187.272 104.313 187.272 103.5ZM189.212 103.5C189.212 104.207 189.386 104.773 189.732 105.2C190.092 105.627 190.559 105.84 191.132 105.84C191.706 105.84 192.172 105.627 192.532 105.2C192.892 104.773 193.072 104.207 193.072 103.5C193.072 102.793 192.892 102.227 192.532 101.8C192.172 101.373 191.706 101.16 191.132 101.16C190.572 101.16 190.112 101.373 189.752 101.8C189.392 102.227 189.212 102.793 189.212 103.5ZM196.152 94.18H198.212V101.14H199.932V93.8H202.012V111.6H199.932V102.92H198.212V110.8H196.152V94.18ZM219.663 103.76V105.54H212.663V111.64H210.463V105.54H203.563V103.76H219.663ZM204.403 100.82C205.536 100.673 206.543 100.393 207.423 99.98C208.303 99.5533 208.996 99.04 209.503 98.44C210.009 97.84 210.289 97.2133 210.343 96.56H205.023V94.8H218.163V96.56H212.883C212.936 97.2133 213.216 97.84 213.723 98.44C214.229 99.04 214.923 99.5533 215.803 99.98C216.683 100.393 217.689 100.673 218.823 100.82L218.003 102.58C216.523 102.367 215.223 101.927 214.103 101.26C212.983 100.593 212.149 99.7733 211.603 98.8C211.069 99.76 210.243 100.58 209.123 101.26C208.003 101.927 206.703 102.367 205.223 102.58L204.403 100.82ZM229.773 99.94V94.14H231.833V110.76H229.773V101.74H227.293V99.94H229.773ZM219.973 106.3C221.187 105.58 222.107 104.513 222.733 103.1C223.36 101.687 223.673 100.167 223.673 98.54V95.42H225.793V98.46C225.793 100.007 226.073 101.447 226.633 102.78C227.193 104.1 228.04 105.127 229.173 105.86L227.953 107.56C226.487 106.667 225.42 105.147 224.753 103C224.433 104.093 223.987 105.067 223.413 105.92C222.84 106.773 222.147 107.453 221.333 107.96L219.973 106.3ZM233.393 93.8H235.493V111.6H233.393V93.8ZM240.724 107.66V103.12C240.004 102.707 239.45 102.187 239.064 101.56C238.677 100.933 238.484 100.233 238.484 99.46C238.484 98.5267 238.764 97.7067 239.324 97C239.897 96.28 240.677 95.7267 241.664 95.34C242.664 94.9533 243.797 94.76 245.064 94.76C246.33 94.76 247.464 94.9533 248.464 95.34C249.464 95.7267 250.244 96.28 250.804 97C251.364 97.7067 251.644 98.5267 251.644 99.46C251.644 100.233 251.45 100.933 251.064 101.56C250.677 102.187 250.13 102.707 249.424 103.12V107.66H253.144V109.44H237.024V107.66H240.724ZM240.644 99.46C240.644 100.38 241.044 101.107 241.844 101.64C242.657 102.173 243.73 102.44 245.064 102.44C246.397 102.44 247.464 102.173 248.264 101.64C249.077 101.107 249.484 100.38 249.484 99.46C249.484 98.5533 249.077 97.8333 248.264 97.3C247.45 96.7533 246.384 96.48 245.064 96.48C243.744 96.48 242.677 96.7533 241.864 97.3C241.05 97.8333 240.644 98.5533 240.644 99.46ZM247.224 107.66V103.94C246.53 104.087 245.81 104.16 245.064 104.16C244.33 104.16 243.617 104.087 242.924 103.94V107.66H247.224Z" fill="#36393C"/>
<rect x="24" y="55" width="48" height="4" rx="2" fill="#40C97F"/>
<rect x="77" y="55" width="48" height="4" rx="2" fill="#40C97F"/>
<rect x="130" y="55" width="48" height="4" rx="2" fill="#40C97F"/>
<rect x="183" y="55" width="48" height="4" rx="2" fill="#40C97F"/>
<rect x="236" y="55" width="48" height="4" rx="2" fill="#40C97F"/>
<rect x="289" y="55" width="48" height="4" rx="2" fill="#CDD2D8"/>
<rect x="86.5" y="614" width="188" height="27" rx="13.5" fill="#B2E9CC"/>
<path d="M110.482 622.328H111.658V625.448H113.158V626.42H111.658V630.116H110.482V622.328ZM104.962 629.36H106.138V631.76H112.102V632.72H104.962V629.36ZM103.774 623.072H104.938V624.764H107.59V623.072H108.754V628.388H103.774V623.072ZM104.938 625.676V627.44H107.59V625.676H104.938ZM121.462 622.304H122.638V632.948H121.462V628.532H119.446V627.584H121.462V625.628H119.494V624.668H121.462V622.304ZM114.202 623.252H118.882V627.164H115.39V629.54C116.842 629.528 118.102 629.48 119.578 629.252L119.674 630.224C118.054 630.476 116.698 630.524 115.042 630.524H114.226V626.216H117.718V624.2H114.202V623.252ZM131.95 622.316H133.138V630.188H131.95V627.788H129.298V626.828H131.95V625.4H129.454C128.71 627.056 127.126 628.292 124.99 628.988L124.486 628.04C126.862 627.272 128.434 625.844 128.662 624.08H125.038V623.132H129.934C129.934 623.588 129.886 624.02 129.79 624.44H131.95V622.316ZM126.322 629.432H127.51V631.76H133.39V632.72H126.322V629.432ZM145.168 622.316H146.344V632.936H145.168V622.316ZM143.212 623.432C143.212 626.576 141.94 629.252 138.292 631.028L137.68 630.092C140.476 628.748 141.784 626.864 142 624.392H138.184V623.432H143.212ZM149.344 622.724H150.508V623.936H155.26V622.724H156.436V626.996H153.46V628.052H157.672V629H148.084V628.052H152.284V626.996H149.344V622.724ZM150.508 624.86V626.072H155.26V624.86H150.508ZM149.296 629.768H150.472V631.772H156.604V632.732H149.296V629.768ZM167.026 625.004H168.946V622.316H170.122V628.628H168.946V625.964H167.026V625.004ZM166.594 628.928C168.802 628.928 170.158 629.684 170.158 630.932C170.158 632.204 168.802 632.936 166.594 632.936C164.374 632.936 163.006 632.204 163.006 630.932C163.006 629.684 164.374 628.928 166.594 628.928ZM166.594 629.828C165.07 629.828 164.194 630.224 164.194 630.932C164.194 631.628 165.07 632.024 166.594 632.024C168.094 632.024 168.994 631.628 168.994 630.932C168.994 630.224 168.094 629.828 166.594 629.828ZM161.674 623.048H167.362V623.996H165.13V624.176C165.13 625.496 166.042 626.804 167.638 627.356L167.05 628.292C165.874 627.872 165.022 627.044 164.566 626.012C164.098 627.188 163.186 628.124 161.926 628.58L161.338 627.644C162.97 627.068 163.942 625.64 163.942 624.176V623.996H161.674V623.048ZM171.827 630.656H176.039V628.496H172.919V623.036H174.083V624.824H179.171V623.036H180.335V628.496H177.203V630.656H181.451V631.628H171.827V630.656ZM174.083 625.772V627.548H179.171V625.772H174.083ZM189.347 622.304H190.535V626.528H192.155V627.5H190.535V632.936H189.347V622.304ZM187.763 623.432C187.763 626.516 186.443 629.24 182.975 630.98L182.315 630.08C184.931 628.748 186.347 626.852 186.575 624.392H182.843V623.432H187.763ZM203.189 622.304H204.353V632.948H203.189V627.08H201.053V626.12H203.189V622.304ZM195.845 623.372H201.665V624.332H199.349V625.244C199.349 627.056 200.429 629 202.061 629.744L201.365 630.68C200.153 630.08 199.241 628.868 198.761 627.44C198.293 628.964 197.357 630.26 196.133 630.896L195.449 629.96C197.069 629.18 198.161 627.164 198.161 625.244V624.332H195.845V623.372ZM206.309 623.072H212.009V624.032H209.765V624.248C209.765 625.58 210.665 626.816 212.285 627.344L211.709 628.256C210.533 627.872 209.669 627.092 209.201 626.096C208.745 627.248 207.833 628.16 206.573 628.592L205.973 627.668C207.629 627.092 208.589 625.712 208.589 624.26V624.032H206.309V623.072ZM213.161 622.316H214.337V624.92H215.849V625.892H214.337V628.676H213.161V622.316ZM210.929 628.928C213.101 628.928 214.457 629.66 214.457 630.92C214.457 632.18 213.101 632.924 210.929 632.924C208.757 632.924 207.401 632.18 207.401 630.92C207.401 629.66 208.757 628.928 210.929 628.928ZM210.929 629.864C209.441 629.864 208.553 630.236 208.553 630.92C208.553 631.616 209.441 632.012 210.929 632.012C212.417 632.012 213.293 631.616 213.293 630.92C213.293 630.236 212.417 629.864 210.929 629.864ZM217.325 623.3H222.749V624.248H218.501V626.78H222.797V627.74H220.613V629.684C221.573 629.648 222.533 629.588 223.433 629.48L223.517 630.332C221.213 630.692 218.741 630.74 216.725 630.728L216.581 629.756C217.469 629.756 218.441 629.744 219.437 629.72V627.74H217.325V623.3ZM224.081 622.304H225.257V632.948H224.081V622.304ZM229.674 628.736H230.814V629.276C230.814 630.188 231.246 631.16 232.182 631.76C233.142 631.112 233.586 630.092 233.586 629.276V628.736H234.738V629.276C234.738 630.392 235.434 631.484 236.814 631.94L236.214 632.804C235.194 632.432 234.498 631.724 234.138 630.848C233.814 631.7 233.19 632.492 232.206 632.9C231.21 632.504 230.574 631.772 230.238 630.908C229.866 631.736 229.182 632.432 228.198 632.804L227.61 631.94C228.966 631.436 229.674 630.32 229.674 629.276V628.736ZM229.95 622.892C231.33 622.892 232.41 623.708 232.65 624.896H234.654V622.316H235.83V628.328H234.654V625.868H232.662C232.434 627.092 231.354 627.908 229.95 627.908C228.366 627.908 227.202 626.876 227.202 625.4C227.202 623.936 228.366 622.892 229.95 622.892ZM229.95 623.876C229.002 623.876 228.318 624.488 228.318 625.4C228.318 626.324 229.002 626.936 229.95 626.936C230.886 626.936 231.57 626.324 231.57 625.4C231.57 624.488 230.886 623.876 229.95 623.876ZM240.366 623.096C241.806 623.096 242.862 624.32 243.03 626.276H245.142V622.304H246.318V632.948H245.142V627.224H243.042C242.922 629.3 241.842 630.584 240.366 630.584C238.818 630.584 237.69 629.132 237.69 626.828C237.69 624.548 238.818 623.096 240.366 623.096ZM240.366 624.164C239.454 624.164 238.806 625.172 238.806 626.828C238.806 628.496 239.454 629.516 240.366 629.516C241.314 629.516 241.938 628.496 241.938 626.828C241.938 625.172 241.314 624.164 240.366 624.164ZM248.01 630.656H250.278V627.884C249.426 627.404 248.91 626.636 248.91 625.7C248.91 624.008 250.554 622.916 252.81 622.916C255.078 622.916 256.71 624.008 256.71 625.7C256.71 626.636 256.206 627.392 255.354 627.884V630.656H257.634V631.616H248.01V630.656ZM252.81 623.852C251.19 623.852 250.062 624.56 250.062 625.7C250.062 626.84 251.19 627.548 252.81 627.548C254.418 627.548 255.558 626.84 255.558 625.7C255.558 624.56 254.418 623.852 252.81 623.852ZM251.454 630.656H254.178V628.328C253.758 628.424 253.302 628.472 252.81 628.472C252.33 628.472 251.874 628.424 251.454 628.328V630.656Z" fill="#26784C"/>
<path d="M180.5 650L174.871 640.25H186.129L180.5 650Z" fill="#B2E9CC"/>
<rect x="24" y="663" width="312" height="57" rx="8" fill="#40C97F"/>
<path d="M161.831 683.456V689.594H164.315V691.07H161.831V699.422H160.049V683.456H161.831ZM150.149 685.004H157.565V686.426H151.913V694.022C153.353 694.01 154.583 693.968 155.603 693.896C156.635 693.824 157.673 693.692 158.717 693.5L158.897 694.976C157.745 695.192 156.605 695.336 155.477 695.408C154.361 695.48 153.011 695.516 151.427 695.516H150.149V685.004ZM172.216 683.816C173.968 683.816 175.348 684.086 176.356 684.626C177.376 685.166 177.886 685.91 177.886 686.858C177.886 687.806 177.376 688.55 176.356 689.09C175.348 689.63 173.968 689.9 172.216 689.9C170.464 689.9 169.078 689.63 168.058 689.09C167.05 688.55 166.546 687.806 166.546 686.858C166.546 685.91 167.05 685.166 168.058 684.626C169.078 684.086 170.464 683.816 172.216 683.816ZM165.016 691.088H179.398V692.51H165.016V691.088ZM166.744 693.896H177.652V699.206H166.744V693.896ZM168.364 686.858C168.364 687.386 168.7 687.794 169.372 688.082C170.056 688.37 171.004 688.514 172.216 688.514C173.416 688.514 174.352 688.37 175.024 688.082C175.708 687.794 176.05 687.386 176.05 686.858C176.05 686.318 175.714 685.91 175.042 685.634C174.37 685.346 173.428 685.202 172.216 685.202C170.992 685.202 170.044 685.346 169.372 685.634C168.7 685.91 168.364 686.318 168.364 686.858ZM175.924 697.802V695.3H168.472V697.802H175.924ZM187.748 684.392C188.852 684.392 189.848 684.578 190.736 684.95C191.624 685.322 192.32 685.85 192.824 686.534C193.34 687.206 193.598 687.98 193.598 688.856C193.598 689.744 193.34 690.53 192.824 691.214C192.32 691.886 191.624 692.408 190.736 692.78C189.848 693.152 188.852 693.338 187.748 693.338C186.644 693.338 185.648 693.152 184.76 692.78C183.872 692.408 183.17 691.886 182.654 691.214C182.15 690.53 181.898 689.744 181.898 688.856C181.898 687.98 182.15 687.206 182.654 686.534C183.17 685.85 183.872 685.322 184.76 684.95C185.648 684.578 186.644 684.392 187.748 684.392ZM180.548 695.894H194.984V697.352H180.548V695.894ZM183.608 688.856C183.608 689.468 183.782 690.002 184.13 690.458C184.49 690.914 184.982 691.268 185.606 691.52C186.242 691.76 186.956 691.88 187.748 691.88C188.54 691.88 189.248 691.76 189.872 691.52C190.496 691.268 190.982 690.914 191.33 690.458C191.69 690.002 191.87 689.468 191.87 688.856C191.87 688.256 191.69 687.728 191.33 687.272C190.982 686.816 190.496 686.462 189.872 686.21C189.248 685.958 188.54 685.832 187.748 685.832C186.956 685.832 186.242 685.958 185.606 686.21C184.982 686.462 184.49 686.816 184.13 687.272C183.782 687.728 183.608 688.256 183.608 688.856ZM202.398 696.056V693.302H197.826V688.19H207.042V685.994H197.79V684.59H208.788V689.594H199.572V691.88H209.148V693.302H204.144V696.056H210.516V697.496H196.08V696.056H202.398Z" fill="white"/>
<g filter="url(#filter0_b_3065_3516)">
<rect y="-44" width="360" height="800" fill="#4B937D" fill-opacity="0.3"/>
</g>
</g>
<defs>
<filter id="filter0_b_3065_3516" x="-4" y="-48" width="368" height="808" filterUnits="userSpaceOnUse" color-interpolation-filters="sRGB">
<feFlood flood-opacity="0" result="BackgroundImageFix"/>
<feGaussianBlur in="BackgroundImageFix" stdDeviation="2"/>
<feComposite in2="SourceAlpha" operator="in" result="effect1_backgroundBlur_3065_3516"/>
<feBlend mode="normal" in="SourceGraphic" in2="effect1_backgroundBlur_3065_3516" result="shape"/>
</filter>
<clipPath id="clip0_3065_3516">
<rect width="360" height="756" fill="white"/>
</clipPath>
<clipPath id="clip1_3065_3516">
<rect width="24" height="24" fill="white" transform="translate(20 17)"/>
</clipPath>
</defs>
</svg>
