<svg width="360" height="800" viewBox="0 0 360 800" fill="none" xmlns="http://www.w3.org/2000/svg">
<g clip-path="url(#clip0_1324_15242)">
<rect width="360" height="800" fill="#FAFAFC"/>
<path opacity="0.35" d="M318.5 19.0006C318.5 17.804 319.47 16.834 320.667 16.834H337.333C338.53 16.834 339.5 17.804 339.5 19.0007V25.0007C339.5 26.1973 338.53 27.1673 337.333 27.1673H320.667C319.47 27.1673 318.5 26.1973 318.5 25.0007V19.0006Z" stroke="#191F28"/>
<path opacity="0.4" d="M341 20.001V24.001C341.805 23.6622 342.328 22.8741 342.328 22.001C342.328 21.1278 341.805 20.3398 341 20.001Z" fill="#191F28"/>
<path d="M320 19.434C320 18.8265 320.492 18.334 321.1 18.334H336.9C337.508 18.334 338 18.8265 338 19.434V24.5673C338 25.1748 337.508 25.6673 336.9 25.6673H321.1C320.492 25.6673 320 25.1748 320 24.5673V19.434Z" fill="#191F28"/>
<path fill-rule="evenodd" clip-rule="evenodd" d="M305.33 18.6084C307.546 18.6085 309.678 19.4599 311.283 20.9867C311.404 21.1046 311.598 21.1031 311.717 20.9834L312.873 19.8167C312.933 19.756 312.967 19.6737 312.966 19.5882C312.966 19.5026 312.931 19.4207 312.87 19.3607C308.655 15.3212 302.005 15.3212 297.79 19.3607C297.729 19.4207 297.694 19.5025 297.694 19.5881C297.693 19.6737 297.727 19.7559 297.787 19.8167L298.943 20.9834C299.062 21.1033 299.256 21.1048 299.377 20.9867C300.983 19.4598 303.114 18.6084 305.33 18.6084ZM305.33 22.404C306.548 22.404 307.722 22.8565 308.624 23.6737C308.747 23.7897 308.939 23.7872 309.058 23.668L310.212 22.5014C310.273 22.4402 310.307 22.3572 310.306 22.2709C310.305 22.1846 310.27 22.1023 310.208 22.0424C307.46 19.486 303.204 19.486 300.455 22.0424C300.393 22.1023 300.358 22.1847 300.357 22.271C300.356 22.3573 300.39 22.4403 300.451 22.5014L301.605 23.668C301.724 23.7872 301.917 23.7897 302.039 23.6737C302.941 22.857 304.114 22.4046 305.33 22.404ZM307.643 24.9579C307.645 25.0444 307.611 25.1278 307.549 25.1884L305.552 27.204C305.494 27.2633 305.414 27.2966 305.33 27.2966C305.247 27.2966 305.167 27.2633 305.109 27.204L303.111 25.1884C303.049 25.1277 303.015 25.0443 303.017 24.9578C303.019 24.8713 303.057 24.7894 303.121 24.7314C304.396 23.6525 306.265 23.6525 307.54 24.7314C307.604 24.7894 307.642 24.8714 307.643 24.9579Z" fill="#191F28"/>
<path fill-rule="evenodd" clip-rule="evenodd" d="M291.667 16.667H290.667C290.115 16.667 289.667 17.1147 289.667 17.667V26.3337C289.667 26.8859 290.115 27.3337 290.667 27.3337H291.667C292.219 27.3337 292.667 26.8859 292.667 26.3337V17.667C292.667 17.1147 292.219 16.667 291.667 16.667ZM286 19.0003H287C287.553 19.0003 288 19.448 288 20.0003V26.3337C288 26.8859 287.553 27.3337 287 27.3337H286C285.448 27.3337 285 26.8859 285 26.3337V20.0003C285 19.448 285.448 19.0003 286 19.0003ZM282.334 21.3337H281.334C280.781 21.3337 280.334 21.7814 280.334 22.3337V26.3337C280.334 26.8859 280.781 27.3337 281.334 27.3337H282.334C282.886 27.3337 283.334 26.8859 283.334 26.3337V22.3337C283.334 21.7814 282.886 21.3337 282.334 21.3337ZM277.667 23.3337H276.667C276.115 23.3337 275.667 23.7814 275.667 24.3337V26.3337C275.667 26.8859 276.115 27.3337 276.667 27.3337H277.667C278.219 27.3337 278.667 26.8859 278.667 26.3337V24.3337C278.667 23.7814 278.219 23.3337 277.667 23.3337Z" fill="#191F28"/>
<path d="M35.9165 17.265C35.2365 17.265 34.6815 17.485 34.2515 17.925C33.8215 18.365 33.6065 18.935 33.6065 19.635C33.6065 20.335 33.8215 20.905 34.2515 21.345C34.6815 21.785 35.2365 22.005 35.9165 22.005C36.5765 22.005 37.1165 21.785 37.5365 21.345C37.9665 20.905 38.1815 20.335 38.1815 19.635C38.1815 18.935 37.9665 18.365 37.5365 17.925C37.1165 17.485 36.5765 17.265 35.9165 17.265ZM32.1815 19.635C32.1815 18.935 32.3365 18.31 32.6465 17.76C32.9665 17.21 33.4065 16.785 33.9665 16.485C34.5265 16.175 35.1665 16.02 35.8865 16.02C36.6065 16.02 37.2465 16.175 37.8065 16.485C38.3765 16.785 38.8165 17.21 39.1265 17.76C39.4465 18.31 39.6065 18.935 39.6065 19.635C39.6065 20.295 39.4115 20.98 39.0215 21.69L35.9915 27.045H34.3565L36.5615 23.175C36.3115 23.225 36.0815 23.25 35.8715 23.25C35.1515 23.25 34.5115 23.095 33.9515 22.785C33.3915 22.475 32.9565 22.05 32.6465 21.51C32.3365 20.96 32.1815 20.335 32.1815 19.635ZM42.0717 18.225C42.3117 18.225 42.5067 18.3 42.6567 18.45C42.8067 18.6 42.8817 18.795 42.8817 19.035C42.8817 19.275 42.8067 19.475 42.6567 19.635C42.5067 19.785 42.3117 19.86 42.0717 19.86C41.8417 19.86 41.6467 19.785 41.4867 19.635C41.3367 19.475 41.2617 19.275 41.2617 19.035C41.2617 18.795 41.3367 18.6 41.4867 18.45C41.6467 18.3 41.8417 18.225 42.0717 18.225ZM41.2617 24.075C41.2617 23.845 41.3367 23.655 41.4867 23.505C41.6467 23.345 41.8417 23.265 42.0717 23.265C42.3117 23.265 42.5067 23.345 42.6567 23.505C42.8067 23.655 42.8817 23.845 42.8817 24.075C42.8817 24.315 42.8067 24.515 42.6567 24.675C42.5067 24.825 42.3117 24.9 42.0717 24.9C41.8417 24.9 41.6467 24.825 41.4867 24.675C41.3367 24.515 41.2617 24.315 41.2617 24.075ZM50.8112 22.89H52.2662V24.135H50.8112V27.03H49.3862V24.135H44.6762L44.5262 22.89L49.4462 16.14H50.8112V22.89ZM49.3862 22.89V18.54L46.2362 22.89H49.3862ZM57.0937 27.03L55.6687 27.015V17.7L53.8387 18.795L53.1937 17.625L55.6837 16.155H57.0937V27.03Z" fill="#191F28"/>
<path d="M138.871 66.184V70.44H140.951V71.432H138.871V76.44H137.671V66.184H138.871ZM128.631 67.176H129.815V69.56H133.895V67.176H135.079V74.088H128.631V67.176ZM133.895 73.112V70.504H129.815V73.112H133.895ZM130.199 75.464H131.383V78.856H139.511V79.848H130.199V75.464ZM153.464 66.152V80.184H152.28V74.2H149.368V73.224H152.28V70.376H149.464V69.384H152.28V66.152H153.464ZM142.472 67.448H148.568V72.408H143.688V75.896C144.829 75.896 145.858 75.8693 146.776 75.816C147.693 75.752 148.653 75.64 149.656 75.48L149.768 76.488C148.733 76.648 147.746 76.76 146.808 76.824C145.869 76.8773 144.781 76.904 143.544 76.904H142.504V71.416H147.384V68.44H142.472V67.448ZM167.48 66.168V76.6H166.264V73.208H162.504V72.216H166.264V70.056H162.696C162.216 71.1547 161.459 72.12 160.424 72.952C159.4 73.7733 158.168 74.424 156.728 74.904L156.2 73.928C157.864 73.384 159.208 72.616 160.232 71.624C161.267 70.632 161.848 69.5067 161.976 68.248H156.904V67.272H163.272C163.272 67.8693 163.197 68.4667 163.048 69.064H166.264V66.168H167.48ZM158.648 75.592H159.864V78.856H167.816V79.848H158.648V75.592ZM183.936 69.832V66.168H185.136V74.504H183.936V70.824H181.088V69.832H183.936ZM173.712 73.416C174.394 73.1707 175.002 72.808 175.536 72.328C176.069 71.848 176.485 71.2987 176.784 70.68C177.093 70.0507 177.248 69.4053 177.248 68.744V68.2H174.08V67.208H181.552V68.2H178.448V68.744C178.448 69.3413 178.592 69.928 178.88 70.504C179.168 71.0693 179.573 71.5707 180.096 72.008C180.618 72.4453 181.21 72.7813 181.872 73.016L181.248 73.976C180.469 73.688 179.786 73.2667 179.2 72.712C178.613 72.1467 178.17 71.496 177.872 70.76C177.573 71.592 177.114 72.3227 176.496 72.952C175.877 73.5813 175.152 74.056 174.32 74.376L173.712 73.416ZM175.888 77.56C175.888 76.7493 176.298 76.1147 177.12 75.656C177.952 75.1867 179.093 74.952 180.544 74.952C181.984 74.952 183.114 75.1867 183.936 75.656C184.768 76.1147 185.184 76.7493 185.184 77.56C185.184 78.3813 184.773 79.016 183.952 79.464C183.13 79.9227 181.994 80.152 180.544 80.152C179.093 80.152 177.952 79.9227 177.12 79.464C176.298 79.016 175.888 78.3813 175.888 77.56ZM177.088 77.56C177.088 78.072 177.392 78.4773 178 78.776C178.618 79.064 179.466 79.208 180.544 79.208C181.61 79.208 182.453 79.064 183.072 78.776C183.69 78.4773 184 78.072 184 77.56C184 77.0373 183.69 76.632 183.072 76.344C182.453 76.0453 181.61 75.896 180.544 75.896C179.466 75.896 178.618 76.0453 178 76.344C177.392 76.632 177.088 77.0373 177.088 77.56ZM193.36 77.352V74.296H189.152V67.16H190.336V69.688H197.6V67.16H198.784V74.296H194.544V77.352H200.32V78.36H187.632V77.352H193.36ZM197.6 73.32V70.68H190.336V73.32H197.6ZM216.744 66.168V73.672H215.544V66.168H216.744ZM205.624 70.056C205.624 69.4267 205.779 68.872 206.088 68.392C206.397 67.9013 206.829 67.5227 207.384 67.256C207.939 66.9893 208.563 66.856 209.256 66.856C209.949 66.856 210.573 66.9893 211.128 67.256C211.683 67.5227 212.115 67.9013 212.424 68.392C212.733 68.872 212.888 69.4267 212.888 70.056C212.888 70.6853 212.733 71.2453 212.424 71.736C212.115 72.216 211.683 72.5947 211.128 72.872C210.573 73.1387 209.949 73.272 209.256 73.272C208.563 73.272 207.939 73.1387 207.384 72.872C206.829 72.5947 206.397 72.216 206.088 71.736C205.779 71.2453 205.624 70.6853 205.624 70.056ZM206.792 70.056C206.792 70.7067 207.021 71.24 207.48 71.656C207.949 72.0613 208.541 72.264 209.256 72.264C209.971 72.264 210.557 72.0613 211.016 71.656C211.485 71.24 211.72 70.7067 211.72 70.056C211.72 69.4053 211.485 68.8773 211.016 68.472C210.557 68.056 209.971 67.848 209.256 67.848C208.541 67.848 207.949 68.056 207.48 68.472C207.021 68.8773 206.792 69.4053 206.792 70.056ZM207.768 74.392H208.952V76.12H215.56V74.392H216.744V79.976H207.768V74.392ZM215.56 79V77.08H208.952V79H215.56ZM225.864 67.016V70.936H221.064V73.144C222.472 73.144 223.566 73.1227 224.344 73.08C225.123 73.0373 225.907 72.9413 226.696 72.792L226.824 73.768C225.992 73.9173 225.166 74.0133 224.344 74.056C223.523 74.0987 222.36 74.12 220.856 74.12H219.88V69.992H224.68V68.008H219.832V67.016H225.864ZM221.432 75.544H230.776V80.2H229.576V76.52H221.432V75.544ZM226.792 71.16H229.576V69.256H226.792V68.264H229.576V66.184H230.776V74.776H229.576V72.136H226.792V71.16Z" fill="#191919"/>
<path d="M321 66L335 80" stroke="#36393C" stroke-width="2" stroke-linecap="round" stroke-linejoin="round"/>
<path d="M335 66L321 80" stroke="#36393C" stroke-width="2" stroke-linecap="round" stroke-linejoin="round"/>
<g clip-path="url(#clip1_1324_15242)">
<path d="M23.636 72.2931C23.4486 72.4806 23.3433 72.7349 23.3433 73.0001C23.3433 73.2652 23.4486 73.5195 23.636 73.7071L29.293 79.3641C29.4817 79.5462 29.7343 79.647 29.9964 79.6447C30.2586 79.6425 30.5095 79.5373 30.6949 79.3519C30.8803 79.1665 30.9854 78.9157 30.9877 78.6535C30.99 78.3913 30.8892 78.1387 30.707 77.9501L26.757 74.0001H40C40.2653 74.0001 40.5196 73.8947 40.7072 73.7072C40.8947 73.5196 41 73.2653 41 73.0001C41 72.7348 40.8947 72.4805 40.7072 72.293C40.5196 72.1054 40.2653 72.0001 40 72.0001H26.757L30.707 68.0501C30.8892 67.8615 30.99 67.6089 30.9877 67.3467C30.9854 67.0845 30.8803 66.8336 30.6949 66.6482C30.5095 66.4628 30.2586 66.3577 29.9964 66.3554C29.7343 66.3531 29.4817 66.4539 29.293 66.6361L23.636 72.2931Z" fill="#36393C"/>
</g>
<rect x="24" y="99" width="48" height="4" rx="2" fill="#40C97F"/>
<rect x="77" y="99" width="48" height="4" rx="2" fill="#40C97F"/>
<rect x="130" y="99" width="48" height="4" rx="2" fill="#40C97F"/>
<rect x="183" y="99" width="48" height="4" rx="2" fill="#40C97F"/>
<rect x="236" y="99" width="48" height="4" rx="2" fill="#40C97F"/>
<rect x="289" y="99" width="48" height="4" rx="2" fill="#CDD2D8"/>
<path d="M40.76 146V147.76H33.8V149.3C35.4 149.407 36.64 149.733 37.52 150.28C38.4 150.813 38.84 151.533 38.84 152.44C38.84 153.44 38.2933 154.213 37.2 154.76C36.12 155.32 34.62 155.6 32.7 155.6C30.7667 155.6 29.2533 155.32 28.16 154.76C27.08 154.213 26.54 153.44 26.54 152.44C26.54 151.533 26.98 150.813 27.86 150.28C28.7533 149.733 30 149.407 31.6 149.3V147.76H24.68V146H40.76ZM25.44 143.44C26.5067 143.347 27.4467 143.147 28.26 142.84C29.0867 142.533 29.7467 142.167 30.24 141.74C30.7333 141.3 31.04 140.833 31.16 140.34H26.14V138.6H39.32V140.34H34.28C34.4667 141.113 35.0667 141.787 36.08 142.36C37.0933 142.933 38.4 143.293 40 143.44L39.22 145.16C37.6333 144.987 36.2733 144.6 35.14 144C34.0067 143.4 33.2 142.647 32.72 141.74C32.24 142.647 31.4333 143.4 30.3 144C29.1667 144.6 27.8 144.987 26.2 145.16L25.44 143.44ZM28.76 152.44C28.76 152.933 29.0933 153.307 29.76 153.56C30.4267 153.813 31.4067 153.94 32.7 153.94C33.98 153.94 34.9533 153.813 35.62 153.56C36.2867 153.307 36.62 152.933 36.62 152.44C36.62 151.933 36.2867 151.553 35.62 151.3C34.9533 151.047 33.98 150.92 32.7 150.92C30.0733 150.92 28.76 151.427 28.76 152.44ZM47.8705 138.78V140.36C47.8705 141.613 48.2238 142.74 48.9305 143.74C49.6371 144.74 50.6571 145.453 51.9905 145.88L50.8305 147.6C49.8971 147.28 49.0905 146.813 48.4105 146.2C47.7438 145.573 47.2171 144.833 46.8305 143.98C46.4305 144.967 45.8571 145.82 45.1105 146.54C44.3771 147.247 43.4838 147.78 42.4305 148.14L41.2905 146.36C42.6905 145.893 43.7705 145.127 44.5305 144.06C45.2905 142.98 45.6705 141.773 45.6705 140.44V138.78H47.8705ZM44.1705 152.18C44.1705 151.1 44.7105 150.26 45.7905 149.66C46.8705 149.06 48.3505 148.76 50.2305 148.76C52.0971 148.76 53.5638 149.06 54.6305 149.66C55.7105 150.26 56.2505 151.1 56.2505 152.18C56.2505 153.26 55.7171 154.1 54.6505 154.7C53.5838 155.3 52.1105 155.6 50.2305 155.6C48.3505 155.6 46.8705 155.3 45.7905 154.7C44.7105 154.1 44.1705 153.26 44.1705 152.18ZM46.3905 152.18C46.3905 152.74 46.7171 153.167 47.3705 153.46C48.0371 153.753 48.9905 153.9 50.2305 153.9C51.4571 153.9 52.4038 153.753 53.0705 153.46C53.7371 153.167 54.0705 152.74 54.0705 152.18C54.0705 151.62 53.7371 151.193 53.0705 150.9C52.4038 150.607 51.4571 150.46 50.2305 150.46C48.9905 150.46 48.0371 150.607 47.3705 150.9C46.7171 151.193 46.3905 151.62 46.3905 152.18ZM50.4905 141.24H53.9705V137.82H56.1705V148.28H53.9705V143.06H50.4905V141.24ZM72.1209 137.82V145.16H74.5609V147H72.1209V155.62H69.9209V137.82H72.1209ZM57.9409 150.68C59.8609 150.68 61.3609 150.667 62.4409 150.64V148.96C61.4676 148.8 60.6943 148.433 60.1209 147.86C59.5476 147.287 59.2609 146.58 59.2609 145.74C59.2609 145.087 59.4409 144.507 59.8009 144C60.1609 143.493 60.6609 143.107 61.3009 142.84C61.9543 142.56 62.7009 142.42 63.5409 142.42C64.3809 142.42 65.1209 142.56 65.7609 142.84C66.4143 143.107 66.9209 143.493 67.2809 144C67.6543 144.507 67.8409 145.087 67.8409 145.74C67.8409 146.58 67.5476 147.287 66.9609 147.86C66.3876 148.433 65.6143 148.8 64.6409 148.96V150.54C65.9876 150.487 67.4209 150.36 68.9409 150.16L69.1209 151.74C67.4543 152.06 65.7676 152.267 64.0609 152.36C62.3676 152.44 60.4276 152.48 58.2409 152.48L57.9409 150.68ZM58.2609 139.84H62.4409V137.88H64.6409V139.84H68.8009V141.58H58.2609V139.84ZM61.3409 145.74C61.3409 146.26 61.5409 146.667 61.9409 146.96C62.3409 147.253 62.8743 147.4 63.5409 147.4C64.2209 147.4 64.7609 147.253 65.1609 146.96C65.5609 146.667 65.7609 146.26 65.7609 145.74C65.7609 145.22 65.5609 144.813 65.1609 144.52C64.7609 144.227 64.2209 144.08 63.5409 144.08C62.8743 144.08 62.3409 144.227 61.9409 144.52C61.5409 144.813 61.3409 145.22 61.3409 145.74ZM87.9508 138.38V139.28C87.9508 140.027 88.2108 140.753 88.7308 141.46C89.2508 142.167 89.9841 142.78 90.9308 143.3C91.8774 143.807 92.9574 144.147 94.1708 144.32L93.3108 146.06C91.8308 145.833 90.5174 145.373 89.3708 144.68C88.2374 143.987 87.3774 143.133 86.7908 142.12C86.2174 143.133 85.3641 143.987 84.2308 144.68C83.0974 145.373 81.7774 145.833 80.2708 146.06L79.4108 144.32C80.6241 144.147 81.7041 143.807 82.6508 143.3C83.5974 142.793 84.3308 142.187 84.8508 141.48C85.3708 140.773 85.6308 140.04 85.6308 139.28V138.38H87.9508ZM78.7308 147.62H94.8308V149.42H87.8308V155.62H85.6308V149.42H78.7308V147.62ZM104.621 137.9V138.38C104.621 139.007 104.875 139.607 105.381 140.18C105.888 140.74 106.601 141.22 107.521 141.62C108.441 142.02 109.501 142.28 110.701 142.4L109.981 144.06C108.488 143.873 107.175 143.5 106.041 142.94C104.921 142.367 104.075 141.653 103.501 140.8C102.928 141.653 102.075 142.367 100.941 142.94C99.8213 143.5 98.5079 143.873 97.0013 144.06L96.2813 142.4C97.4813 142.28 98.5413 142.02 99.4613 141.62C100.395 141.22 101.108 140.74 101.601 140.18C102.108 139.607 102.361 139.007 102.361 138.38V137.9H104.621ZM95.4613 144.94H111.541V146.7H104.581V148.08H109.541V152.48H99.5213V153.8H110.041V155.46H97.3813V150.94H107.381V149.72H97.3213V148.08H102.381V146.7H95.4613V144.94ZM120.232 138.1C122.245 138.1 123.812 138.36 124.932 138.88C126.052 139.4 126.612 140.153 126.612 141.14C126.612 142.127 126.052 142.887 124.932 143.42C123.812 143.94 122.245 144.2 120.232 144.2C118.218 144.2 116.652 143.94 115.532 143.42C114.412 142.887 113.852 142.127 113.852 141.14C113.852 140.153 114.412 139.4 115.532 138.88C116.652 138.36 118.218 138.1 120.232 138.1ZM112.192 145.16H128.272V146.92H112.192V145.16ZM114.052 148.1H126.272V152.46H116.252V153.8H126.772V155.46H114.112V150.92H124.112V149.76H114.052V148.1ZM116.132 141.14C116.132 142.1 117.498 142.58 120.232 142.58C122.965 142.58 124.332 142.1 124.332 141.14C124.332 140.673 123.978 140.32 123.272 140.08C122.578 139.827 121.565 139.7 120.232 139.7C118.885 139.7 117.865 139.827 117.172 140.08C116.478 140.32 116.132 140.673 116.132 141.14ZM147.882 137.82V148.8H145.802V144.28H144.142V148.58H142.082V138.06H144.142V142.5H145.802V137.82H147.882ZM132.682 139.66H136.022V137.92H138.182V139.66H141.482V141.36H132.682V139.66ZM133.302 145.12C133.302 144.52 133.462 143.987 133.782 143.52C134.115 143.053 134.568 142.693 135.142 142.44C135.715 142.173 136.368 142.04 137.102 142.04C138.222 142.04 139.135 142.327 139.842 142.9C140.562 143.46 140.922 144.2 140.922 145.12C140.922 146.04 140.562 146.787 139.842 147.36C139.135 147.92 138.222 148.2 137.102 148.2C136.368 148.2 135.715 148.073 135.142 147.82C134.568 147.553 134.115 147.187 133.782 146.72C133.462 146.253 133.302 145.72 133.302 145.12ZM133.842 153.78C134.922 153.433 135.755 152.893 136.342 152.16C136.928 151.413 137.222 150.627 137.222 149.8V149.34H139.362V149.8C139.362 150.52 139.542 151.213 139.902 151.88C140.262 152.533 140.795 153.073 141.502 153.5C142.208 153.047 142.748 152.48 143.122 151.8C143.508 151.12 143.702 150.453 143.702 149.8V149.34H145.862V149.8C145.862 150.693 146.155 151.5 146.742 152.22C147.328 152.94 148.175 153.46 149.282 153.78L148.242 155.38C147.402 155.113 146.688 154.727 146.102 154.22C145.515 153.713 145.062 153.113 144.742 152.42C144.448 153.127 144.028 153.753 143.482 154.3C142.948 154.86 142.295 155.28 141.522 155.56C140.735 155.28 140.068 154.873 139.522 154.34C138.988 153.82 138.575 153.207 138.282 152.5C137.948 153.167 137.488 153.747 136.902 154.24C136.328 154.733 135.642 155.113 134.842 155.38L133.842 153.78ZM135.242 145.12C135.242 145.573 135.408 145.94 135.742 146.22C136.088 146.487 136.542 146.62 137.102 146.62C137.662 146.62 138.115 146.487 138.462 146.22C138.808 145.94 138.982 145.573 138.982 145.12C138.982 144.653 138.808 144.293 138.462 144.04C138.115 143.773 137.662 143.64 137.102 143.64C136.542 143.64 136.088 143.773 135.742 144.04C135.408 144.293 135.242 144.653 135.242 145.12ZM163.372 137.78V144.68H165.972V146.5H163.372V155.6H161.152V137.78H163.372ZM150.132 139.52H152.312V149.38C154.912 149.34 157.412 149.08 159.812 148.6L160.052 150.4C157.559 150.92 154.745 151.18 151.612 151.18H150.132V139.52ZM169.943 151.66V147.12C169.223 146.707 168.669 146.187 168.283 145.56C167.896 144.933 167.703 144.233 167.703 143.46C167.703 142.527 167.983 141.707 168.543 141C169.116 140.28 169.896 139.727 170.883 139.34C171.883 138.953 173.016 138.76 174.283 138.76C175.549 138.76 176.683 138.953 177.683 139.34C178.683 139.727 179.463 140.28 180.023 141C180.583 141.707 180.863 142.527 180.863 143.46C180.863 144.233 180.669 144.933 180.283 145.56C179.896 146.187 179.349 146.707 178.643 147.12V151.66H182.363V153.44H166.243V151.66H169.943ZM169.863 143.46C169.863 144.38 170.263 145.107 171.063 145.64C171.876 146.173 172.949 146.44 174.283 146.44C175.616 146.44 176.683 146.173 177.483 145.64C178.296 145.107 178.703 144.38 178.703 143.46C178.703 142.553 178.296 141.833 177.483 141.3C176.669 140.753 175.603 140.48 174.283 140.48C172.963 140.48 171.896 140.753 171.083 141.3C170.269 141.833 169.863 142.553 169.863 143.46ZM176.443 151.66V147.94C175.749 148.087 175.029 148.16 174.283 148.16C173.549 148.16 172.836 148.087 172.143 147.94V151.66H176.443ZM187.493 154.48C187.12 154.48 186.813 154.36 186.573 154.12C186.346 153.893 186.233 153.593 186.233 153.22C186.233 152.847 186.346 152.547 186.573 152.32C186.813 152.093 187.12 151.98 187.493 151.98C187.866 151.98 188.166 152.093 188.393 152.32C188.62 152.547 188.733 152.847 188.733 153.22C188.733 153.593 188.62 153.893 188.393 154.12C188.166 154.36 187.866 154.48 187.493 154.48ZM183.133 141.98C183.506 140.993 184.126 140.187 184.993 139.56C185.873 138.92 186.813 138.6 187.813 138.6C188.733 138.6 189.546 138.787 190.253 139.16C190.96 139.52 191.506 140.033 191.893 140.7C192.28 141.367 192.473 142.127 192.473 142.98C192.473 143.767 192.26 144.527 191.833 145.26C191.42 145.993 190.726 146.72 189.753 147.44C189.406 147.693 189.146 147.927 188.973 148.14C188.813 148.353 188.7 148.607 188.633 148.9C188.566 149.193 188.54 149.593 188.553 150.1L186.393 150.12C186.38 149.093 186.533 148.24 186.853 147.56C187.186 146.867 187.726 146.247 188.473 145.7C189.206 145.153 189.693 144.687 189.933 144.3C190.186 143.9 190.313 143.46 190.313 142.98C190.313 142.313 190.08 141.773 189.613 141.36C189.146 140.947 188.546 140.74 187.813 140.74C187.253 140.74 186.72 140.927 186.213 141.3C185.72 141.66 185.36 142.133 185.133 142.72L183.133 141.98Z" fill="#36393C"/>
<path d="M34.066 175.786V179.51H35.886V180.378H34.066V184.76H33.016V175.786H34.066ZM25.106 176.654H26.142V178.74H29.712V176.654H30.748V182.702H25.106V176.654ZM29.712 181.848V179.566H26.142V181.848H29.712ZM26.478 183.906H27.514V186.874H34.626V187.742H26.478V183.906ZM46.8343 175.758V188.036H45.7983V182.8H43.2503V181.946H45.7983V179.454H43.3343V178.586H45.7983V175.758H46.8343ZM37.2163 176.892H42.5503V181.232H38.2803V184.284C39.279 184.284 40.1797 184.261 40.9823 184.214C41.785 184.158 42.625 184.06 43.5023 183.92L43.6003 184.802C42.695 184.942 41.8317 185.04 41.0103 185.096C40.189 185.143 39.237 185.166 38.1543 185.166H37.2443V180.364H41.5143V177.76H37.2163V176.892ZM59.0987 175.772V184.9H58.0347V181.932H54.7447V181.064H58.0347V179.174H54.9127C54.4927 180.135 53.83 180.98 52.9247 181.708C52.0287 182.427 50.9507 182.996 49.6907 183.416L49.2287 182.562C50.6847 182.086 51.8607 181.414 52.7567 180.546C53.662 179.678 54.1707 178.693 54.2827 177.592H49.8447V176.738H55.4167C55.4167 177.261 55.3513 177.783 55.2207 178.306H58.0347V175.772H59.0987ZM51.3707 184.018H52.4347V186.874H59.3927V187.742H51.3707V184.018ZM65.231 176.668C65.8563 176.668 66.4163 176.789 66.911 177.032C67.4057 177.275 67.793 177.615 68.073 178.054C68.353 178.483 68.493 178.978 68.493 179.538C68.493 180.098 68.353 180.597 68.073 181.036C67.793 181.465 67.4057 181.801 66.911 182.044C66.4163 182.287 65.8563 182.408 65.231 182.408C64.5963 182.408 64.0317 182.287 63.537 182.044C63.0423 181.801 62.655 181.465 62.375 181.036C62.095 180.597 61.955 180.098 61.955 179.538C61.955 178.978 62.095 178.483 62.375 178.054C62.655 177.615 63.0423 177.275 63.537 177.032C64.0317 176.789 64.5963 176.668 65.231 176.668ZM61.325 184.438C62.9677 184.438 64.419 184.415 65.679 184.368C66.9483 184.321 68.171 184.205 69.347 184.018L69.431 184.788C68.2177 185.021 66.9763 185.171 65.707 185.236C64.4377 185.301 63.0237 185.334 61.465 185.334L61.325 184.438ZM62.977 179.538C62.977 180.107 63.187 180.579 63.607 180.952C64.0363 181.316 64.5777 181.498 65.231 181.498C65.875 181.498 66.407 181.316 66.827 180.952C67.2563 180.579 67.471 180.107 67.471 179.538C67.471 178.959 67.261 178.488 66.841 178.124C66.421 177.76 65.8843 177.578 65.231 177.578C64.5777 177.578 64.0363 177.76 63.607 178.124C63.187 178.488 62.977 178.959 62.977 179.538ZM70.159 175.758H71.209V188.036H70.159V175.758ZM87.7919 181.526V182.38H82.7799V183.738C83.9465 183.785 84.8472 183.995 85.4819 184.368C86.1259 184.732 86.4479 185.231 86.4479 185.866C86.4479 186.538 86.0792 187.061 85.3419 187.434C84.6045 187.807 83.5779 187.994 82.2619 187.994C80.9459 187.994 79.9192 187.807 79.1819 187.434C78.4445 187.061 78.0759 186.538 78.0759 185.866C78.0759 185.231 78.3932 184.732 79.0279 184.368C79.6719 183.995 80.5725 183.785 81.7299 183.738V182.38H76.7319V181.526H87.7919ZM77.3619 179.916C78.0805 179.841 78.7572 179.678 79.3919 179.426C80.0359 179.174 80.5585 178.857 80.9599 178.474C81.3612 178.082 81.5712 177.657 81.5899 177.2H77.7539V176.36H86.7979V177.2H82.9479C82.9665 177.657 83.1765 178.082 83.5779 178.474C83.9792 178.857 84.4972 179.174 85.1319 179.426C85.7759 179.678 86.4572 179.841 87.1759 179.916L86.7839 180.756C85.7479 180.625 84.8145 180.341 83.9839 179.902C83.1625 179.463 82.5932 178.913 82.2759 178.25C81.9492 178.913 81.3705 179.463 80.5399 179.902C79.7185 180.341 78.7899 180.625 77.7539 180.756L77.3619 179.916ZM79.1259 185.866C79.1259 186.286 79.4012 186.613 79.9519 186.846C80.5025 187.07 81.2725 187.182 82.2619 187.182C83.2419 187.182 84.0072 187.07 84.5579 186.846C85.1085 186.613 85.3839 186.286 85.3839 185.866C85.3839 185.446 85.1085 185.119 84.5579 184.886C84.0072 184.653 83.2419 184.536 82.2619 184.536C81.2725 184.536 80.5025 184.653 79.9519 184.886C79.4012 185.119 79.1259 185.446 79.1259 185.866ZM93.1122 176.472V177.704C93.1122 178.572 93.3875 179.365 93.9382 180.084C94.4982 180.793 95.2262 181.302 96.1222 181.61L95.5482 182.436C94.8762 182.184 94.2835 181.815 93.7702 181.33C93.2662 180.845 92.8835 180.275 92.6222 179.622C92.3609 180.359 91.9595 181.003 91.4182 181.554C90.8862 182.105 90.2515 182.52 89.5142 182.8L88.9682 181.946C89.9015 181.61 90.6529 181.064 91.2222 180.308C91.7915 179.543 92.0762 178.689 92.0762 177.746V176.472H93.1122ZM90.9142 185.698C90.9142 184.97 91.2782 184.405 92.0062 184.004C92.7342 183.593 93.7329 183.388 95.0022 183.388C96.2715 183.388 97.2655 183.593 97.9842 184.004C98.7029 184.405 99.0622 184.97 99.0622 185.698C99.0622 186.426 98.7029 186.991 97.9842 187.392C97.2655 187.793 96.2715 187.994 95.0022 187.994C93.7235 187.994 92.7202 187.793 91.9922 187.392C91.2735 186.991 90.9142 186.426 90.9142 185.698ZM91.9782 185.698C91.9782 186.155 92.2442 186.515 92.7762 186.776C93.3175 187.037 94.0595 187.168 95.0022 187.168C95.9355 187.168 96.6729 187.037 97.2142 186.776C97.7555 186.515 98.0262 186.155 98.0262 185.698C98.0262 185.241 97.7555 184.881 97.2142 184.62C96.6729 184.359 95.9355 184.228 95.0022 184.228C94.0595 184.228 93.3175 184.359 92.7762 184.62C92.2442 184.881 91.9782 185.241 91.9782 185.698ZM95.2402 178.404H97.9562V175.772H99.0062V183.024H97.9562V179.286H95.2402V178.404ZM110.613 175.772V180.994H112.559V181.89H110.613V188.022H109.563V175.772H110.613ZM101.065 184.76C102.502 184.76 103.622 184.746 104.425 184.718V183.36C103.706 183.276 103.132 183.038 102.703 182.646C102.283 182.245 102.073 181.741 102.073 181.134C102.073 180.453 102.339 179.907 102.871 179.496C103.403 179.076 104.093 178.866 104.943 178.866C105.801 178.866 106.497 179.076 107.029 179.496C107.561 179.907 107.827 180.453 107.827 181.134C107.827 181.741 107.612 182.245 107.183 182.646C106.753 183.038 106.184 183.276 105.475 183.36V184.676C106.791 184.611 107.901 184.513 108.807 184.382L108.891 185.152C107.724 185.367 106.529 185.507 105.307 185.572C104.084 185.628 102.726 185.656 101.233 185.656L101.065 184.76ZM101.275 177.27H104.425V175.786H105.475V177.27H108.611V178.124H101.275V177.27ZM103.067 181.134C103.067 181.563 103.239 181.909 103.585 182.17C103.93 182.431 104.383 182.562 104.943 182.562C105.512 182.562 105.969 182.431 106.315 182.17C106.66 181.909 106.833 181.563 106.833 181.134C106.833 180.695 106.66 180.345 106.315 180.084C105.969 179.813 105.512 179.678 104.943 179.678C104.383 179.678 103.93 179.813 103.585 180.084C103.239 180.345 103.067 180.695 103.067 181.134ZM122.757 176.22V176.92C122.757 177.48 122.972 178.012 123.401 178.516C123.831 179.02 124.386 179.445 125.067 179.79C125.749 180.135 126.453 180.364 127.181 180.476L126.747 181.316C125.777 181.148 124.876 180.807 124.045 180.294C123.215 179.781 122.608 179.16 122.225 178.432C121.852 179.169 121.245 179.795 120.405 180.308C119.575 180.812 118.665 181.148 117.675 181.316L117.241 180.476C117.979 180.364 118.688 180.14 119.369 179.804C120.051 179.459 120.601 179.034 121.021 178.53C121.451 178.026 121.665 177.489 121.665 176.92V176.22H122.757ZM116.667 182.702H127.741V183.57H122.701V188.022H121.665V183.57H116.667V182.702ZM134.98 175.828V176.318C134.98 176.813 135.19 177.27 135.61 177.69C136.03 178.11 136.576 178.46 137.248 178.74C137.92 179.011 138.62 179.188 139.348 179.272L138.998 180.084C137.999 179.953 137.08 179.673 136.24 179.244C135.409 178.805 134.807 178.264 134.434 177.62C134.07 178.264 133.468 178.805 132.628 179.244C131.788 179.673 130.868 179.953 129.87 180.084L129.52 179.272C130.257 179.188 130.962 179.011 131.634 178.74C132.306 178.46 132.852 178.11 133.272 177.69C133.692 177.27 133.902 176.813 133.902 176.318V175.828H134.98ZM128.904 180.91H139.964V181.764H134.952V183.024H138.536V185.768H131.312V187.056H138.914V187.882H130.29V184.998H137.514V183.836H130.248V183.024H133.902V181.764H128.904V180.91ZM147.615 176.724C148.175 176.724 148.674 176.883 149.113 177.2C149.561 177.508 149.915 177.951 150.177 178.53H153.383V175.758H154.419V188.036H153.383V183.276H150.247C149.995 183.901 149.64 184.387 149.183 184.732C148.725 185.077 148.203 185.25 147.615 185.25C147.027 185.25 146.499 185.077 146.033 184.732C145.575 184.377 145.216 183.878 144.955 183.234C144.703 182.59 144.577 181.839 144.577 180.98C144.577 180.131 144.703 179.384 144.955 178.74C145.216 178.096 145.575 177.601 146.033 177.256C146.499 176.901 147.027 176.724 147.615 176.724ZM145.571 180.98C145.571 181.643 145.655 182.226 145.823 182.73C146 183.234 146.243 183.626 146.551 183.906C146.859 184.177 147.213 184.312 147.615 184.312C148.016 184.312 148.371 184.177 148.679 183.906C148.996 183.626 149.239 183.234 149.407 182.73C149.584 182.226 149.673 181.643 149.673 180.98C149.673 180.317 149.584 179.739 149.407 179.244C149.239 178.74 148.996 178.353 148.679 178.082C148.371 177.802 148.016 177.662 147.615 177.662C147.213 177.662 146.859 177.802 146.551 178.082C146.243 178.353 146 178.74 145.823 179.244C145.655 179.739 145.571 180.317 145.571 180.98ZM150.471 179.398C150.592 179.855 150.653 180.383 150.653 180.98C150.653 181.447 150.606 181.923 150.513 182.408H153.383V179.398H150.471ZM167.705 183.066V183.92H162.637V188.022H161.601V183.92H156.603V183.066H167.705ZM158.017 176.29H159.053V177.984H165.227V176.29H166.263V181.568H158.017V176.29ZM165.227 180.7V178.838H159.053V180.7H165.227ZM179.941 181.498V182.296H168.839V181.498H179.941ZM170.169 183.318H178.541V185.908H171.233V187.084H178.933V187.868H170.197V185.166H177.519V184.088H170.169V183.318ZM170.253 176.15H178.499V178.67H171.303V179.762H178.723V180.546H170.281V177.942H177.463V176.92H170.253V176.15ZM193.766 175.786V179.51H195.6V180.378H193.766V183.976H192.716V175.786H193.766ZM184.246 182.758C185.665 182.758 186.771 182.744 187.564 182.716V181.792C186.846 181.736 186.276 181.549 185.856 181.232C185.446 180.915 185.24 180.504 185.24 180C185.24 179.44 185.497 179.001 186.01 178.684C186.524 178.357 187.21 178.194 188.068 178.194C188.936 178.194 189.627 178.357 190.14 178.684C190.654 179.001 190.91 179.44 190.91 180C190.91 180.504 190.7 180.915 190.28 181.232C189.87 181.54 189.31 181.727 188.6 181.792V182.674C189.832 182.618 190.957 182.515 191.974 182.366L192.058 183.122C190.901 183.327 189.706 183.463 188.474 183.528C187.252 183.584 185.889 183.612 184.386 183.612L184.246 182.758ZM184.554 176.906H187.564V175.674H188.6V176.906H191.596V177.704H184.554V176.906ZM185.744 184.606H193.766V188.022H192.716V185.446H185.744V184.606ZM186.234 180C186.234 180.327 186.398 180.593 186.724 180.798C187.06 180.994 187.508 181.092 188.068 181.092C188.628 181.092 189.076 180.994 189.412 180.798C189.748 180.593 189.916 180.327 189.916 180C189.916 179.673 189.748 179.412 189.412 179.216C189.086 179.02 188.638 178.922 188.068 178.922C187.508 178.922 187.06 179.02 186.724 179.216C186.398 179.412 186.234 179.673 186.234 180ZM206.563 175.786V184.732H205.499V175.786H206.563ZM196.819 179.65C196.819 179.071 196.954 178.553 197.225 178.096C197.505 177.639 197.887 177.284 198.373 177.032C198.858 176.771 199.399 176.64 199.997 176.64C200.594 176.64 201.135 176.771 201.621 177.032C202.106 177.284 202.484 177.639 202.755 178.096C203.035 178.553 203.175 179.071 203.175 179.65C203.175 180.229 203.035 180.747 202.755 181.204C202.484 181.652 202.106 182.007 201.621 182.268C201.135 182.52 200.594 182.646 199.997 182.646C199.399 182.646 198.858 182.52 198.373 182.268C197.887 182.007 197.505 181.647 197.225 181.19C196.954 180.733 196.819 180.219 196.819 179.65ZM197.841 179.65C197.841 180.042 197.934 180.397 198.121 180.714C198.317 181.031 198.578 181.279 198.905 181.456C199.231 181.633 199.595 181.722 199.997 181.722C200.407 181.722 200.776 181.633 201.103 181.456C201.429 181.279 201.686 181.031 201.873 180.714C202.069 180.397 202.167 180.042 202.167 179.65C202.167 179.034 201.961 178.53 201.551 178.138C201.14 177.746 200.622 177.55 199.997 177.55C199.595 177.55 199.227 177.639 198.891 177.816C198.564 177.993 198.307 178.245 198.121 178.572C197.934 178.889 197.841 179.249 197.841 179.65ZM198.737 183.822H199.773V186.874H206.941V187.742H198.737V183.822ZM211.281 177.9V176.122H212.317V177.9H214.837V178.754H208.747V177.9H211.281ZM209.181 182.38C209.181 181.848 209.293 181.372 209.517 180.952C209.741 180.532 210.049 180.205 210.441 179.972C210.842 179.729 211.295 179.608 211.799 179.608C212.303 179.608 212.756 179.729 213.157 179.972C213.558 180.205 213.871 180.532 214.095 180.952C214.319 181.372 214.431 181.848 214.431 182.38C214.431 182.921 214.319 183.407 214.095 183.836C213.871 184.256 213.558 184.583 213.157 184.816C212.756 185.049 212.303 185.166 211.799 185.166C211.295 185.166 210.842 185.049 210.441 184.816C210.049 184.583 209.741 184.256 209.517 183.836C209.293 183.407 209.181 182.921 209.181 182.38ZM210.119 182.38C210.119 182.931 210.273 183.383 210.581 183.738C210.898 184.093 211.304 184.27 211.799 184.27C212.294 184.27 212.7 184.093 213.017 183.738C213.334 183.383 213.493 182.931 213.493 182.38C213.493 181.829 213.33 181.377 213.003 181.022C212.686 180.667 212.284 180.49 211.799 180.49C211.314 180.49 210.912 180.667 210.595 181.022C210.278 181.377 210.119 181.829 210.119 182.38ZM215.481 176.066H216.475V180.952H218.113V175.772H219.107V188.022H218.113V181.82H216.475V187.406H215.481V176.066ZM232.085 182.786V183.654H227.045V188.022H226.009V183.654H221.011V182.786H232.085ZM221.683 180.868C222.393 180.765 223.074 180.551 223.727 180.224C224.39 179.897 224.927 179.496 225.337 179.02C225.757 178.544 225.967 178.04 225.967 177.508V177.41H222.061V176.556H231.007V177.41H227.129V177.508C227.129 178.04 227.335 178.544 227.745 179.02C228.165 179.496 228.702 179.897 229.355 180.224C230.018 180.551 230.704 180.765 231.413 180.868L231.007 181.722C230.037 181.554 229.141 181.218 228.319 180.714C227.498 180.21 226.91 179.599 226.555 178.88C226.201 179.599 225.608 180.21 224.777 180.714C223.956 181.218 223.06 181.554 222.089 181.722L221.683 180.868ZM240.136 180.182V176.052H241.116V187.392H240.136V181.064H238.064V180.182H240.136ZM233.108 184.578C233.649 184.261 234.125 183.822 234.535 183.262C234.946 182.702 235.264 182.077 235.488 181.386C235.712 180.695 235.824 180 235.824 179.3V176.948H236.832V179.272C236.832 180.271 237.065 181.237 237.532 182.17C237.998 183.103 238.624 183.808 239.408 184.284L238.792 185.096C238.222 184.76 237.728 184.284 237.308 183.668C236.888 183.043 236.566 182.347 236.342 181.582C236.118 182.413 235.782 183.159 235.334 183.822C234.886 184.485 234.363 184.998 233.766 185.362L233.108 184.578ZM242.628 175.772H243.636V188.022H242.628V175.772ZM248.242 185.558V182.212C247.719 181.941 247.308 181.591 247.01 181.162C246.72 180.723 246.576 180.233 246.576 179.692C246.576 179.067 246.762 178.516 247.136 178.04C247.518 177.564 248.046 177.2 248.718 176.948C249.39 176.687 250.155 176.556 251.014 176.556C251.872 176.556 252.638 176.687 253.31 176.948C253.982 177.2 254.504 177.564 254.878 178.04C255.26 178.516 255.452 179.067 255.452 179.692C255.452 180.224 255.307 180.705 255.018 181.134C254.738 181.563 254.341 181.918 253.828 182.198V185.558H256.586V186.426H245.484V185.558H248.242ZM247.598 179.692C247.598 180.149 247.742 180.551 248.032 180.896C248.321 181.241 248.722 181.512 249.236 181.708C249.758 181.895 250.351 181.988 251.014 181.988C251.676 181.988 252.264 181.895 252.778 181.708C253.3 181.512 253.706 181.241 253.996 180.896C254.294 180.551 254.444 180.149 254.444 179.692C254.444 179.235 254.294 178.833 253.996 178.488C253.706 178.143 253.3 177.877 252.778 177.69C252.264 177.494 251.676 177.396 251.014 177.396C250.351 177.396 249.758 177.494 249.236 177.69C248.722 177.877 248.321 178.143 248.032 178.488C247.742 178.833 247.598 179.235 247.598 179.692ZM252.778 185.558V182.604C252.246 182.744 251.658 182.814 251.014 182.814C250.388 182.814 249.81 182.744 249.278 182.604V185.558H252.778ZM258.742 185.782C258.947 185.782 259.111 185.847 259.232 185.978C259.363 186.099 259.428 186.263 259.428 186.468C259.428 186.683 259.363 186.855 259.232 186.986C259.111 187.117 258.947 187.182 258.742 187.182C258.537 187.182 258.364 187.117 258.224 186.986C258.093 186.846 258.028 186.673 258.028 186.468C258.028 186.263 258.093 186.099 258.224 185.978C258.355 185.847 258.527 185.782 258.742 185.782Z" fill="#7C8389"/>
<g clip-path="url(#clip2_1324_15242)">
<rect x="24.5" y="221.5" width="311" height="47" rx="7.5" fill="#ECEEF0" stroke="#BDC5CC"/>
<path d="M77.28 244.744V245.72H71.552V247.272C72.8853 247.325 73.9147 247.565 74.64 247.992C75.376 248.408 75.744 248.979 75.744 249.704C75.744 250.472 75.3227 251.069 74.48 251.496C73.6373 251.923 72.464 252.136 70.96 252.136C69.456 252.136 68.2827 251.923 67.44 251.496C66.5973 251.069 66.176 250.472 66.176 249.704C66.176 248.979 66.5387 248.408 67.264 247.992C68 247.565 69.0293 247.325 70.352 247.272V245.72H64.64V244.744H77.28ZM65.36 242.904C66.1813 242.819 66.9547 242.632 67.68 242.344C68.416 242.056 69.0133 241.693 69.472 241.256C69.9307 240.808 70.1707 240.323 70.192 239.8H65.808V238.84H76.144V239.8H71.744C71.7653 240.323 72.0053 240.808 72.464 241.256C72.9227 241.693 73.5147 242.056 74.24 242.344C74.976 242.632 75.7547 242.819 76.576 242.904L76.128 243.864C74.944 243.715 73.8773 243.389 72.928 242.888C71.9893 242.387 71.3387 241.757 70.976 241C70.6027 241.757 69.9413 242.387 68.992 242.888C68.0533 243.389 66.992 243.715 65.808 243.864L65.36 242.904ZM67.376 249.704C67.376 250.184 67.6907 250.557 68.32 250.824C68.9493 251.08 69.8293 251.208 70.96 251.208C72.08 251.208 72.9547 251.08 73.584 250.824C74.2133 250.557 74.528 250.184 74.528 249.704C74.528 249.224 74.2133 248.851 73.584 248.584C72.9547 248.317 72.08 248.184 70.96 248.184C69.8293 248.184 68.9493 248.317 68.32 248.584C67.6907 248.851 67.376 249.224 67.376 249.704ZM83.3604 238.968V240.376C83.3604 241.368 83.675 242.275 84.3044 243.096C84.9444 243.907 85.7764 244.488 86.8004 244.84L86.1444 245.784C85.3764 245.496 84.699 245.075 84.1124 244.52C83.5364 243.965 83.099 243.315 82.8004 242.568C82.5017 243.411 82.043 244.147 81.4244 244.776C80.8164 245.405 80.091 245.88 79.2484 246.2L78.6244 245.224C79.691 244.84 80.5497 244.216 81.2004 243.352C81.851 242.477 82.1764 241.501 82.1764 240.424V238.968H83.3604ZM80.8484 249.512C80.8484 248.68 81.2644 248.035 82.0964 247.576C82.9284 247.107 84.0697 246.872 85.5204 246.872C86.971 246.872 88.107 247.107 88.9284 247.576C89.7497 248.035 90.1604 248.68 90.1604 249.512C90.1604 250.344 89.7497 250.989 88.9284 251.448C88.107 251.907 86.971 252.136 85.5204 252.136C84.059 252.136 82.9124 251.907 82.0804 251.448C81.259 250.989 80.8484 250.344 80.8484 249.512ZM82.0644 249.512C82.0644 250.035 82.3684 250.445 82.9764 250.744C83.595 251.043 84.443 251.192 85.5204 251.192C86.587 251.192 87.4297 251.043 88.0484 250.744C88.667 250.445 88.9764 250.035 88.9764 249.512C88.9764 248.989 88.667 248.579 88.0484 248.28C87.4297 247.981 86.587 247.832 85.5204 247.832C84.443 247.832 83.595 247.981 82.9764 248.28C82.3684 248.579 82.0644 248.989 82.0644 249.512ZM85.7924 241.176H88.8964V238.168H90.0964V246.456H88.8964V242.184H85.7924V241.176ZM103.361 238.168V244.136H105.585V245.16H103.361V252.168H102.161V238.168H103.361ZM92.4488 248.44C94.0914 248.44 95.3714 248.424 96.2888 248.392V246.84C95.4674 246.744 94.8114 246.472 94.3207 246.024C93.8408 245.565 93.6008 244.989 93.6008 244.296C93.6008 243.517 93.9048 242.893 94.5128 242.424C95.1208 241.944 95.9101 241.704 96.8808 241.704C97.8621 241.704 98.6568 241.944 99.2648 242.424C99.8728 242.893 100.177 243.517 100.177 244.296C100.177 244.989 99.9314 245.565 99.4408 246.024C98.9501 246.472 98.2994 246.744 97.4888 246.84V248.344C98.9928 248.269 100.262 248.157 101.297 248.008L101.393 248.888C100.059 249.133 98.6941 249.293 97.2968 249.368C95.8994 249.432 94.3474 249.464 92.6408 249.464L92.4488 248.44ZM92.6888 239.88H96.2888V238.184H97.4888V239.88H101.073V240.856H92.6888V239.88ZM94.7368 244.296C94.7368 244.787 94.9341 245.181 95.3288 245.48C95.7234 245.779 96.2408 245.928 96.8808 245.928C97.5314 245.928 98.0541 245.779 98.4488 245.48C98.8434 245.181 99.0408 244.787 99.0408 244.296C99.0408 243.795 98.8434 243.395 98.4488 243.096C98.0541 242.787 97.5314 242.632 96.8808 242.632C96.2408 242.632 95.7234 242.787 95.3288 243.096C94.9341 243.395 94.7368 243.795 94.7368 244.296ZM117.241 238.68V239.48C117.241 240.12 117.486 240.728 117.977 241.304C118.467 241.88 119.102 242.365 119.881 242.76C120.659 243.155 121.465 243.416 122.297 243.544L121.801 244.504C120.691 244.312 119.662 243.923 118.713 243.336C117.763 242.749 117.07 242.04 116.633 241.208C116.206 242.051 115.513 242.765 114.553 243.352C113.603 243.928 112.563 244.312 111.433 244.504L110.937 243.544C111.779 243.416 112.59 243.16 113.369 242.776C114.147 242.381 114.777 241.896 115.257 241.32C115.747 240.744 115.993 240.131 115.993 239.48V238.68H117.241ZM110.281 246.088H122.937V247.08H117.177V252.168H115.993V247.08H110.281V246.088ZM131.209 238.232V238.792C131.209 239.357 131.449 239.88 131.929 240.36C132.409 240.84 133.033 241.24 133.801 241.56C134.569 241.869 135.369 242.072 136.201 242.168L135.801 243.096C134.66 242.947 133.609 242.627 132.649 242.136C131.7 241.635 131.012 241.016 130.585 240.28C130.169 241.016 129.481 241.635 128.521 242.136C127.561 242.627 126.51 242.947 125.369 243.096L124.969 242.168C125.812 242.072 126.617 241.869 127.385 241.56C128.153 241.24 128.777 240.84 129.257 240.36C129.737 239.88 129.977 239.357 129.977 238.792V238.232H131.209ZM124.265 244.04H136.905V245.016H131.177V246.456H135.273V249.592H127.017V251.064H135.705V252.008H125.849V248.712H134.105V247.384H125.801V246.456H129.977V245.016H124.265V244.04ZM144.569 238.424C146.116 238.424 147.321 238.632 148.185 239.048C149.049 239.464 149.481 240.061 149.481 240.84C149.481 241.619 149.049 242.221 148.185 242.648C147.321 243.064 146.116 243.272 144.569 243.272C143.023 243.272 141.817 243.064 140.953 242.648C140.089 242.221 139.657 241.619 139.657 240.84C139.657 240.061 140.089 239.464 140.953 239.048C141.817 238.632 143.023 238.424 144.569 238.424ZM138.249 244.248H150.889V245.224H138.249V244.248ZM139.785 246.456H149.257V249.56H141.001V251.064H149.689V252.008H139.833V248.68H148.089V247.384H139.785V246.456ZM140.889 240.84C140.889 241.32 141.209 241.693 141.849 241.96C142.5 242.227 143.407 242.36 144.569 242.36C145.732 242.36 146.633 242.227 147.273 241.96C147.924 241.693 148.249 241.32 148.249 240.84C148.249 240.36 147.924 239.987 147.273 239.72C146.623 239.453 145.721 239.32 144.569 239.32C143.417 239.32 142.516 239.453 141.865 239.72C141.215 239.987 140.889 240.36 140.889 240.84ZM166.673 238.168V243.96H168.993V244.968H166.673V252.168H165.473V238.168H166.673ZM155.841 240.424H159.425V238.328H160.641V240.424H164.129V241.416H155.841V240.424ZM156.657 245.816C156.657 245.197 156.801 244.648 157.089 244.168C157.388 243.677 157.793 243.299 158.305 243.032C158.828 242.755 159.409 242.616 160.049 242.616C160.7 242.616 161.281 242.755 161.793 243.032C162.305 243.299 162.705 243.677 162.993 244.168C163.292 244.648 163.441 245.197 163.441 245.816C163.441 246.435 163.292 246.989 162.993 247.48C162.705 247.96 162.305 248.339 161.793 248.616C161.281 248.883 160.7 249.016 160.049 249.016C159.409 249.016 158.828 248.883 158.305 248.616C157.793 248.339 157.388 247.96 157.089 247.48C156.801 246.989 156.657 246.435 156.657 245.816ZM157.809 245.816C157.809 246.456 158.017 246.984 158.433 247.4C158.86 247.805 159.399 248.008 160.049 248.008C160.7 248.008 161.233 247.805 161.649 247.4C162.076 246.984 162.289 246.456 162.289 245.816C162.289 245.176 162.076 244.648 161.649 244.232C161.233 243.816 160.7 243.608 160.049 243.608C159.399 243.608 158.86 243.816 158.433 244.232C158.017 244.648 157.809 245.176 157.809 245.816ZM178.162 239.608V240.616H174.834V242.504C174.834 243.272 175.004 244.04 175.346 244.808C175.698 245.565 176.162 246.243 176.738 246.84C177.314 247.427 177.938 247.869 178.61 248.168L177.922 249.128C177.111 248.744 176.375 248.168 175.714 247.4C175.052 246.632 174.562 245.768 174.242 244.808C173.922 245.843 173.431 246.776 172.77 247.608C172.119 248.44 171.394 249.059 170.594 249.464L169.906 248.52C170.556 248.2 171.17 247.72 171.746 247.08C172.322 246.429 172.78 245.699 173.122 244.888C173.463 244.077 173.634 243.283 173.634 242.504V240.616H170.338V239.608H178.162ZM180.114 238.168H181.314V252.168H180.114V238.168ZM191.45 238.968C192.143 238.968 192.762 239.107 193.306 239.384C193.86 239.661 194.292 240.045 194.602 240.536C194.911 241.027 195.066 241.581 195.066 242.2C195.066 242.829 194.911 243.389 194.602 243.88C194.292 244.371 193.86 244.755 193.306 245.032C192.762 245.299 192.143 245.432 191.45 245.432C190.778 245.432 190.164 245.299 189.61 245.032C189.066 244.755 188.639 244.371 188.33 243.88C188.02 243.379 187.866 242.819 187.866 242.2C187.866 241.581 188.02 241.027 188.33 240.536C188.639 240.045 189.066 239.661 189.61 239.384C190.164 239.107 190.778 238.968 191.45 238.968ZM189.034 242.2C189.034 242.851 189.263 243.389 189.722 243.816C190.18 244.232 190.756 244.44 191.45 244.44C192.154 244.44 192.735 244.232 193.194 243.816C193.663 243.389 193.898 242.851 193.898 242.2C193.898 241.549 193.663 241.016 193.194 240.6C192.735 240.184 192.154 239.976 191.45 239.976C190.756 239.976 190.18 240.189 189.722 240.616C189.263 241.032 189.034 241.56 189.034 242.2ZM189.066 246.696H190.234V250.792C191.343 250.749 192.303 250.589 193.114 250.312L193.322 251.288C192.287 251.629 191.092 251.8 189.738 251.8H189.066V246.696ZM192.81 246.776H195.738V245.496H196.922V246.776H199.834V247.672H192.81V246.776ZM193.754 250.168C193.754 249.571 193.988 249.096 194.458 248.744C194.938 248.381 195.562 248.2 196.33 248.2C197.087 248.2 197.706 248.381 198.186 248.744C198.666 249.096 198.906 249.571 198.906 250.168C198.906 250.765 198.666 251.24 198.186 251.592C197.706 251.955 197.087 252.136 196.33 252.136C195.562 252.136 194.938 251.955 194.458 251.592C193.988 251.24 193.754 250.765 193.754 250.168ZM194.826 250.168C194.826 250.499 194.964 250.771 195.242 250.984C195.519 251.187 195.882 251.288 196.33 251.288C196.778 251.288 197.14 251.187 197.418 250.984C197.695 250.771 197.834 250.499 197.834 250.168C197.834 249.837 197.695 249.571 197.418 249.368C197.14 249.155 196.778 249.048 196.33 249.048C195.882 249.048 195.519 249.155 195.242 249.368C194.964 249.571 194.826 249.837 194.826 250.168ZM197.226 238.168H198.426V241.336H200.522V242.344H198.426V245.144H197.226V238.168ZM205.482 239C206.175 239 206.794 239.139 207.338 239.416C207.893 239.693 208.325 240.083 208.634 240.584C208.954 241.075 209.114 241.64 209.114 242.28C209.114 242.92 208.954 243.491 208.634 243.992C208.325 244.483 207.893 244.867 207.338 245.144C206.794 245.421 206.175 245.56 205.482 245.56C204.789 245.56 204.165 245.421 203.61 245.144C203.066 244.867 202.634 244.483 202.314 243.992C202.005 243.491 201.85 242.92 201.85 242.28C201.85 241.64 202.005 241.075 202.314 240.584C202.634 240.083 203.066 239.693 203.61 239.416C204.165 239.139 204.789 239 205.482 239ZM202.138 251.096C202.703 250.883 203.199 250.589 203.626 250.216C204.063 249.832 204.394 249.411 204.618 248.952C204.853 248.483 204.97 248.024 204.97 247.576V246.792H206.122V247.576C206.122 248.237 206.293 248.872 206.634 249.48C206.986 250.077 207.482 250.563 208.122 250.936C208.762 250.541 209.258 250.029 209.61 249.4C209.973 248.76 210.154 248.152 210.154 247.576V246.792H211.322V247.576C211.322 248.323 211.573 249.021 212.074 249.672C212.586 250.323 213.274 250.797 214.138 251.096L213.546 251.992C212.863 251.747 212.282 251.395 211.802 250.936C211.322 250.477 210.959 249.944 210.714 249.336C210.479 249.944 210.143 250.493 209.706 250.984C209.279 251.475 208.757 251.853 208.138 252.12C207.487 251.864 206.943 251.496 206.506 251.016C206.069 250.536 205.743 249.987 205.53 249.368C205.274 249.955 204.906 250.477 204.426 250.936C203.957 251.395 203.397 251.747 202.746 251.992L202.138 251.096ZM203.018 242.28C203.018 242.952 203.247 243.501 203.706 243.928C204.175 244.344 204.767 244.552 205.482 244.552C206.197 244.552 206.789 244.344 207.258 243.928C207.727 243.501 207.962 242.952 207.962 242.28C207.962 241.619 207.727 241.075 207.258 240.648C206.789 240.221 206.197 240.008 205.482 240.008C204.767 240.008 204.175 240.221 203.706 240.648C203.247 241.075 203.018 241.619 203.018 242.28ZM211.21 238.168H212.41V241.56H214.506V242.552H212.41V246.152H211.21V238.168ZM219.258 239.256C219.888 239.256 220.453 239.432 220.954 239.784C221.456 240.125 221.861 240.621 222.17 241.272C222.48 241.923 222.661 242.68 222.714 243.544H225.85V238.152H227.034V252.184H225.85V244.504H222.714C222.682 245.411 222.512 246.205 222.202 246.888C221.904 247.56 221.498 248.083 220.986 248.456C220.474 248.819 219.898 249 219.258 249C218.586 249 217.984 248.803 217.45 248.408C216.928 248.003 216.517 247.432 216.218 246.696C215.93 245.96 215.786 245.101 215.786 244.12C215.786 243.149 215.93 242.296 216.218 241.56C216.517 240.824 216.928 240.259 217.45 239.864C217.984 239.459 218.586 239.256 219.258 239.256ZM216.922 244.12C216.922 244.877 217.018 245.544 217.21 246.12C217.413 246.696 217.69 247.144 218.042 247.464C218.394 247.773 218.8 247.928 219.258 247.928C219.717 247.928 220.122 247.773 220.474 247.464C220.826 247.144 221.098 246.696 221.29 246.12C221.493 245.544 221.594 244.877 221.594 244.12C221.594 243.363 221.493 242.701 221.29 242.136C221.098 241.56 220.826 241.117 220.474 240.808C220.122 240.488 219.717 240.328 219.258 240.328C218.8 240.328 218.394 240.488 218.042 240.808C217.69 241.117 217.413 241.56 217.21 242.136C217.018 242.701 216.922 243.363 216.922 244.12ZM232.683 249.352V245.528C232.085 245.219 231.616 244.819 231.275 244.328C230.944 243.827 230.779 243.267 230.779 242.648C230.779 241.933 230.992 241.304 231.419 240.76C231.856 240.216 232.459 239.8 233.227 239.512C233.995 239.213 234.869 239.064 235.851 239.064C236.832 239.064 237.707 239.213 238.475 239.512C239.243 239.8 239.84 240.216 240.267 240.76C240.704 241.304 240.923 241.933 240.923 242.648C240.923 243.256 240.757 243.805 240.427 244.296C240.107 244.787 239.653 245.192 239.067 245.512V249.352H242.219V250.344H229.531V249.352H232.683ZM231.947 242.648C231.947 243.171 232.112 243.629 232.443 244.024C232.773 244.419 233.232 244.728 233.819 244.952C234.416 245.165 235.093 245.272 235.851 245.272C236.608 245.272 237.28 245.165 237.867 244.952C238.464 244.728 238.928 244.419 239.259 244.024C239.6 243.629 239.771 243.171 239.771 242.648C239.771 242.125 239.6 241.667 239.259 241.272C238.928 240.877 238.464 240.573 237.867 240.36C237.28 240.136 236.608 240.024 235.851 240.024C235.093 240.024 234.416 240.136 233.819 240.36C233.232 240.573 232.773 240.877 232.443 241.272C232.112 241.667 231.947 242.125 231.947 242.648ZM237.867 249.352V245.976C237.259 246.136 236.587 246.216 235.851 246.216C235.136 246.216 234.475 246.136 233.867 245.976V249.352H237.867Z" fill="#7C8389"/>
<circle cx="46" cy="245" r="10" fill="#BDC5CC"/>
<circle cx="46" cy="245" r="5" fill="#ECEEF0"/>
</g>
<g clip-path="url(#clip3_1324_15242)">
<rect x="24.5" y="277.5" width="311" height="47" rx="7.5" fill="#D9F4E5" stroke="#66D498"/>
<path d="M77.28 300.744V301.72H71.552V303.272C72.8853 303.325 73.9147 303.565 74.64 303.992C75.376 304.408 75.744 304.979 75.744 305.704C75.744 306.472 75.3227 307.069 74.48 307.496C73.6373 307.923 72.464 308.136 70.96 308.136C69.456 308.136 68.2827 307.923 67.44 307.496C66.5973 307.069 66.176 306.472 66.176 305.704C66.176 304.979 66.5387 304.408 67.264 303.992C68 303.565 69.0293 303.325 70.352 303.272V301.72H64.64V300.744H77.28ZM65.36 298.904C66.1813 298.819 66.9547 298.632 67.68 298.344C68.416 298.056 69.0133 297.693 69.472 297.256C69.9307 296.808 70.1707 296.323 70.192 295.8H65.808V294.84H76.144V295.8H71.744C71.7653 296.323 72.0053 296.808 72.464 297.256C72.9227 297.693 73.5147 298.056 74.24 298.344C74.976 298.632 75.7547 298.819 76.576 298.904L76.128 299.864C74.944 299.715 73.8773 299.389 72.928 298.888C71.9893 298.387 71.3387 297.757 70.976 297C70.6027 297.757 69.9413 298.387 68.992 298.888C68.0533 299.389 66.992 299.715 65.808 299.864L65.36 298.904ZM67.376 305.704C67.376 306.184 67.6907 306.557 68.32 306.824C68.9493 307.08 69.8293 307.208 70.96 307.208C72.08 307.208 72.9547 307.08 73.584 306.824C74.2133 306.557 74.528 306.184 74.528 305.704C74.528 305.224 74.2133 304.851 73.584 304.584C72.9547 304.317 72.08 304.184 70.96 304.184C69.8293 304.184 68.9493 304.317 68.32 304.584C67.6907 304.851 67.376 305.224 67.376 305.704ZM83.3604 294.968V296.376C83.3604 297.368 83.675 298.275 84.3044 299.096C84.9444 299.907 85.7764 300.488 86.8004 300.84L86.1444 301.784C85.3764 301.496 84.699 301.075 84.1124 300.52C83.5364 299.965 83.099 299.315 82.8004 298.568C82.5017 299.411 82.043 300.147 81.4244 300.776C80.8164 301.405 80.091 301.88 79.2484 302.2L78.6244 301.224C79.691 300.84 80.5497 300.216 81.2004 299.352C81.851 298.477 82.1764 297.501 82.1764 296.424V294.968H83.3604ZM80.8484 305.512C80.8484 304.68 81.2644 304.035 82.0964 303.576C82.9284 303.107 84.0697 302.872 85.5204 302.872C86.971 302.872 88.107 303.107 88.9284 303.576C89.7497 304.035 90.1604 304.68 90.1604 305.512C90.1604 306.344 89.7497 306.989 88.9284 307.448C88.107 307.907 86.971 308.136 85.5204 308.136C84.059 308.136 82.9124 307.907 82.0804 307.448C81.259 306.989 80.8484 306.344 80.8484 305.512ZM82.0644 305.512C82.0644 306.035 82.3684 306.445 82.9764 306.744C83.595 307.043 84.443 307.192 85.5204 307.192C86.587 307.192 87.4297 307.043 88.0484 306.744C88.667 306.445 88.9764 306.035 88.9764 305.512C88.9764 304.989 88.667 304.579 88.0484 304.28C87.4297 303.981 86.587 303.832 85.5204 303.832C84.443 303.832 83.595 303.981 82.9764 304.28C82.3684 304.579 82.0644 304.989 82.0644 305.512ZM85.7924 297.176H88.8964V294.168H90.0964V302.456H88.8964V298.184H85.7924V297.176ZM103.361 294.168V300.136H105.585V301.16H103.361V308.168H102.161V294.168H103.361ZM92.4488 304.44C94.0914 304.44 95.3714 304.424 96.2888 304.392V302.84C95.4674 302.744 94.8114 302.472 94.3207 302.024C93.8408 301.565 93.6008 300.989 93.6008 300.296C93.6008 299.517 93.9048 298.893 94.5128 298.424C95.1208 297.944 95.9101 297.704 96.8808 297.704C97.8621 297.704 98.6568 297.944 99.2648 298.424C99.8728 298.893 100.177 299.517 100.177 300.296C100.177 300.989 99.9314 301.565 99.4408 302.024C98.9501 302.472 98.2994 302.744 97.4888 302.84V304.344C98.9928 304.269 100.262 304.157 101.297 304.008L101.393 304.888C100.059 305.133 98.6941 305.293 97.2968 305.368C95.8994 305.432 94.3474 305.464 92.6408 305.464L92.4488 304.44ZM92.6888 295.88H96.2888V294.184H97.4888V295.88H101.073V296.856H92.6888V295.88ZM94.7368 300.296C94.7368 300.787 94.9341 301.181 95.3288 301.48C95.7234 301.779 96.2408 301.928 96.8808 301.928C97.5314 301.928 98.0541 301.779 98.4488 301.48C98.8434 301.181 99.0408 300.787 99.0408 300.296C99.0408 299.795 98.8434 299.395 98.4488 299.096C98.0541 298.787 97.5314 298.632 96.8808 298.632C96.2408 298.632 95.7234 298.787 95.3288 299.096C94.9341 299.395 94.7368 299.795 94.7368 300.296ZM117.241 294.68V295.48C117.241 296.12 117.486 296.728 117.977 297.304C118.467 297.88 119.102 298.365 119.881 298.76C120.659 299.155 121.465 299.416 122.297 299.544L121.801 300.504C120.691 300.312 119.662 299.923 118.713 299.336C117.763 298.749 117.07 298.04 116.633 297.208C116.206 298.051 115.513 298.765 114.553 299.352C113.603 299.928 112.563 300.312 111.433 300.504L110.937 299.544C111.779 299.416 112.59 299.16 113.369 298.776C114.147 298.381 114.777 297.896 115.257 297.32C115.747 296.744 115.993 296.131 115.993 295.48V294.68H117.241ZM110.281 302.088H122.937V303.08H117.177V308.168H115.993V303.08H110.281V302.088ZM131.209 294.232V294.792C131.209 295.357 131.449 295.88 131.929 296.36C132.409 296.84 133.033 297.24 133.801 297.56C134.569 297.869 135.369 298.072 136.201 298.168L135.801 299.096C134.66 298.947 133.609 298.627 132.649 298.136C131.7 297.635 131.012 297.016 130.585 296.28C130.169 297.016 129.481 297.635 128.521 298.136C127.561 298.627 126.51 298.947 125.369 299.096L124.969 298.168C125.812 298.072 126.617 297.869 127.385 297.56C128.153 297.24 128.777 296.84 129.257 296.36C129.737 295.88 129.977 295.357 129.977 294.792V294.232H131.209ZM124.265 300.04H136.905V301.016H131.177V302.456H135.273V305.592H127.017V307.064H135.705V308.008H125.849V304.712H134.105V303.384H125.801V302.456H129.977V301.016H124.265V300.04ZM144.569 294.424C146.116 294.424 147.321 294.632 148.185 295.048C149.049 295.464 149.481 296.061 149.481 296.84C149.481 297.619 149.049 298.221 148.185 298.648C147.321 299.064 146.116 299.272 144.569 299.272C143.023 299.272 141.817 299.064 140.953 298.648C140.089 298.221 139.657 297.619 139.657 296.84C139.657 296.061 140.089 295.464 140.953 295.048C141.817 294.632 143.023 294.424 144.569 294.424ZM138.249 300.248H150.889V301.224H138.249V300.248ZM139.785 302.456H149.257V305.56H141.001V307.064H149.689V308.008H139.833V304.68H148.089V303.384H139.785V302.456ZM140.889 296.84C140.889 297.32 141.209 297.693 141.849 297.96C142.5 298.227 143.407 298.36 144.569 298.36C145.732 298.36 146.633 298.227 147.273 297.96C147.924 297.693 148.249 297.32 148.249 296.84C148.249 296.36 147.924 295.987 147.273 295.72C146.623 295.453 145.721 295.32 144.569 295.32C143.417 295.32 142.516 295.453 141.865 295.72C141.215 295.987 140.889 296.36 140.889 296.84ZM167.713 294.184V302.856H166.561V299.032H164.721V302.632H163.585V294.392H164.721V298.04H166.561V294.184H167.713ZM155.841 295.8H158.849V294.232H160.017V295.8H162.977V296.76H155.841V295.8ZM156.465 299.88C156.465 299.155 156.737 298.579 157.281 298.152C157.825 297.715 158.54 297.496 159.425 297.496C160.311 297.496 161.025 297.715 161.569 298.152C162.124 298.579 162.401 299.155 162.401 299.88C162.401 300.595 162.124 301.171 161.569 301.608C161.025 302.045 160.311 302.264 159.425 302.264C158.54 302.264 157.825 302.045 157.281 301.608C156.737 301.171 156.465 300.595 156.465 299.88ZM156.833 307.096C157.399 306.904 157.895 306.627 158.321 306.264C158.748 305.901 159.073 305.501 159.297 305.064C159.532 304.627 159.649 304.195 159.649 303.768V303.256H160.801V303.768C160.801 304.387 160.972 304.989 161.313 305.576C161.665 306.152 162.156 306.616 162.785 306.968C163.415 306.584 163.905 306.093 164.257 305.496C164.62 304.899 164.801 304.323 164.801 303.768V303.256H165.985V303.768C165.985 304.472 166.241 305.133 166.753 305.752C167.265 306.371 167.953 306.819 168.817 307.096L168.241 307.992C167.559 307.757 166.972 307.416 166.481 306.968C165.991 306.52 165.623 306.003 165.377 305.416C165.153 306.003 164.823 306.536 164.385 307.016C163.959 307.496 163.436 307.864 162.817 308.12C162.167 307.875 161.623 307.523 161.185 307.064C160.748 306.605 160.423 306.077 160.209 305.48C159.943 306.035 159.569 306.536 159.089 306.984C158.609 307.421 158.044 307.757 157.393 307.992L156.833 307.096ZM157.521 299.88C157.521 300.317 157.697 300.675 158.049 300.952C158.401 301.229 158.86 301.368 159.425 301.368C159.991 301.368 160.449 301.229 160.801 300.952C161.153 300.675 161.329 300.317 161.329 299.88C161.329 299.432 161.153 299.075 160.801 298.808C160.449 298.531 159.991 298.392 159.425 298.392C158.86 298.392 158.401 298.531 158.049 298.808C157.697 299.075 157.521 299.432 157.521 299.88ZM173.618 295.256C174.247 295.256 174.812 295.432 175.314 295.784C175.815 296.125 176.22 296.621 176.53 297.272C176.839 297.923 177.02 298.68 177.074 299.544H180.21V294.152H181.394V308.184H180.21V300.504H177.074C177.042 301.411 176.871 302.205 176.562 302.888C176.263 303.56 175.858 304.083 175.346 304.456C174.834 304.819 174.258 305 173.618 305C172.946 305 172.343 304.803 171.81 304.408C171.287 304.003 170.876 303.432 170.578 302.696C170.29 301.96 170.146 301.101 170.146 300.12C170.146 299.149 170.29 298.296 170.578 297.56C170.876 296.824 171.287 296.259 171.81 295.864C172.343 295.459 172.946 295.256 173.618 295.256ZM171.282 300.12C171.282 300.877 171.378 301.544 171.57 302.12C171.772 302.696 172.05 303.144 172.402 303.464C172.754 303.773 173.159 303.928 173.618 303.928C174.076 303.928 174.482 303.773 174.834 303.464C175.186 303.144 175.458 302.696 175.65 302.12C175.852 301.544 175.954 300.877 175.954 300.12C175.954 299.363 175.852 298.701 175.65 298.136C175.458 297.56 175.186 297.117 174.834 296.808C174.482 296.488 174.076 296.328 173.618 296.328C173.159 296.328 172.754 296.488 172.402 296.808C172.05 297.117 171.772 297.56 171.57 298.136C171.378 298.701 171.282 299.363 171.282 300.12ZM187.042 305.352V301.528C186.445 301.219 185.975 300.819 185.634 300.328C185.303 299.827 185.138 299.267 185.138 298.648C185.138 297.933 185.351 297.304 185.778 296.76C186.215 296.216 186.818 295.8 187.586 295.512C188.354 295.213 189.229 295.064 190.21 295.064C191.191 295.064 192.066 295.213 192.834 295.512C193.602 295.8 194.199 296.216 194.626 296.76C195.063 297.304 195.282 297.933 195.282 298.648C195.282 299.256 195.117 299.805 194.786 300.296C194.466 300.787 194.013 301.192 193.426 301.512V305.352H196.578V306.344H183.89V305.352H187.042ZM186.306 298.648C186.306 299.171 186.471 299.629 186.802 300.024C187.133 300.419 187.591 300.728 188.178 300.952C188.775 301.165 189.453 301.272 190.21 301.272C190.967 301.272 191.639 301.165 192.226 300.952C192.823 300.728 193.287 300.419 193.618 300.024C193.959 299.629 194.13 299.171 194.13 298.648C194.13 298.125 193.959 297.667 193.618 297.272C193.287 296.877 192.823 296.573 192.226 296.36C191.639 296.136 190.967 296.024 190.21 296.024C189.453 296.024 188.775 296.136 188.178 296.36C187.591 296.573 187.133 296.877 186.802 297.272C186.471 297.667 186.306 298.125 186.306 298.648ZM192.226 305.352V301.976C191.618 302.136 190.946 302.216 190.21 302.216C189.495 302.216 188.834 302.136 188.226 301.976V305.352H192.226Z" fill="#36393C"/>
<circle cx="46" cy="301" r="10" fill="#66D498"/>
<circle cx="46" cy="301" r="5" fill="white"/>
</g>
<rect x="24" y="707" width="312" height="57" rx="8" fill="#4F5357"/>
<path d="M161.831 727.456V733.594H164.315V735.07H161.831V743.422H160.049V727.456H161.831ZM150.149 729.004H157.565V730.426H151.913V738.022C153.353 738.01 154.583 737.968 155.603 737.896C156.635 737.824 157.673 737.692 158.717 737.5L158.897 738.976C157.745 739.192 156.605 739.336 155.477 739.408C154.361 739.48 153.011 739.516 151.427 739.516H150.149V729.004ZM172.216 727.816C173.968 727.816 175.348 728.086 176.356 728.626C177.376 729.166 177.886 729.91 177.886 730.858C177.886 731.806 177.376 732.55 176.356 733.09C175.348 733.63 173.968 733.9 172.216 733.9C170.464 733.9 169.078 733.63 168.058 733.09C167.05 732.55 166.546 731.806 166.546 730.858C166.546 729.91 167.05 729.166 168.058 728.626C169.078 728.086 170.464 727.816 172.216 727.816ZM165.016 735.088H179.398V736.51H165.016V735.088ZM166.744 737.896H177.652V743.206H166.744V737.896ZM168.364 730.858C168.364 731.386 168.7 731.794 169.372 732.082C170.056 732.37 171.004 732.514 172.216 732.514C173.416 732.514 174.352 732.37 175.024 732.082C175.708 731.794 176.05 731.386 176.05 730.858C176.05 730.318 175.714 729.91 175.042 729.634C174.37 729.346 173.428 729.202 172.216 729.202C170.992 729.202 170.044 729.346 169.372 729.634C168.7 729.91 168.364 730.318 168.364 730.858ZM175.924 741.802V739.3H168.472V741.802H175.924ZM187.748 728.392C188.852 728.392 189.848 728.578 190.736 728.95C191.624 729.322 192.32 729.85 192.824 730.534C193.34 731.206 193.598 731.98 193.598 732.856C193.598 733.744 193.34 734.53 192.824 735.214C192.32 735.886 191.624 736.408 190.736 736.78C189.848 737.152 188.852 737.338 187.748 737.338C186.644 737.338 185.648 737.152 184.76 736.78C183.872 736.408 183.17 735.886 182.654 735.214C182.15 734.53 181.898 733.744 181.898 732.856C181.898 731.98 182.15 731.206 182.654 730.534C183.17 729.85 183.872 729.322 184.76 728.95C185.648 728.578 186.644 728.392 187.748 728.392ZM180.548 739.894H194.984V741.352H180.548V739.894ZM183.608 732.856C183.608 733.468 183.782 734.002 184.13 734.458C184.49 734.914 184.982 735.268 185.606 735.52C186.242 735.76 186.956 735.88 187.748 735.88C188.54 735.88 189.248 735.76 189.872 735.52C190.496 735.268 190.982 734.914 191.33 734.458C191.69 734.002 191.87 733.468 191.87 732.856C191.87 732.256 191.69 731.728 191.33 731.272C190.982 730.816 190.496 730.462 189.872 730.21C189.248 729.958 188.54 729.832 187.748 729.832C186.956 729.832 186.242 729.958 185.606 730.21C184.982 730.462 184.49 730.816 184.13 731.272C183.782 731.728 183.608 732.256 183.608 732.856ZM202.398 740.056V737.302H197.826V732.19H207.042V729.994H197.79V728.59H208.788V733.594H199.572V735.88H209.148V737.302H204.144V740.056H210.516V741.496H196.08V740.056H202.398Z" fill="white"/>
<g filter="url(#filter0_b_1324_15242)">
<rect width="360" height="800" fill="#4B937D" fill-opacity="0.3"/>
</g>
</g>
<defs>
<filter id="filter0_b_1324_15242" x="-4" y="-4" width="368" height="808" filterUnits="userSpaceOnUse" color-interpolation-filters="sRGB">
<feFlood flood-opacity="0" result="BackgroundImageFix"/>
<feGaussianBlur in="BackgroundImageFix" stdDeviation="2"/>
<feComposite in2="SourceAlpha" operator="in" result="effect1_backgroundBlur_1324_15242"/>
<feBlend mode="normal" in="SourceGraphic" in2="effect1_backgroundBlur_1324_15242" result="shape"/>
</filter>
<clipPath id="clip0_1324_15242">
<rect width="360" height="800" fill="white"/>
</clipPath>
<clipPath id="clip1_1324_15242">
<rect width="24" height="24" fill="white" transform="translate(20 61)"/>
</clipPath>
<clipPath id="clip2_1324_15242">
<rect width="312" height="48" fill="white" transform="translate(24 221)"/>
</clipPath>
<clipPath id="clip3_1324_15242">
<rect width="312" height="48" fill="white" transform="translate(24 277)"/>
</clipPath>
</defs>
</svg>
