<svg width="360" height="285" viewBox="0 0 360 285" fill="none" xmlns="http://www.w3.org/2000/svg">
<mask id="mask0_2762_8121" style="mask-type:alpha" maskUnits="userSpaceOnUse" x="0" y="0" width="360" height="285">
<path d="M0 0H360V285H0V0Z" fill="#B2E9CC"/>
</mask>
<g mask="url(#mask0_2762_8121)">
<path d="M0 -159C0 -172.255 10.7452 -183 24 -183H336C349.255 -183 360 -172.255 360 -159V122C360 135.255 349.255 146 336 146H24C10.7452 146 0 135.255 0 122V-159Z" fill="#B2E9CC"/>
<path d="M0 -20C0 -33.2548 10.7452 -44 24 -44H336C349.255 -44 360 -33.2548 360 -20V261C360 274.255 349.255 285 336 285H24C10.7452 285 0 274.255 0 261V-20Z" fill="#B2E9CC"/>
<mask id="mask1_2762_8121" style="mask-type:alpha" maskUnits="userSpaceOnUse" x="37" y="5" width="405" height="398">
<path d="M134.837 5.92426L441.802 106.934L344.687 402.06L37.7228 301.05L134.837 5.92426Z" fill="#33A165"/>
</mask>
<g mask="url(#mask1_2762_8121)">
<path d="M361.159 260.878C358.192 309.156 318.089 345.774 271.816 342.93C225.543 340.086 190.226 298.833 193.193 250.555C196.16 202.277 236.263 165.66 282.536 168.504C328.809 171.348 364.126 212.6 361.159 260.878Z" fill="#40C97F" stroke="#195033" stroke-width="6.47242"/>
<path fill-rule="evenodd" clip-rule="evenodd" d="M187.713 204.754C188.482 192.241 194.408 168.076 214.23 145.662C242.106 114.142 259.461 108.724 265.014 110.686C270.568 112.649 280.06 116.474 267.08 156.206C265.036 162.335 260.905 168.225 257.913 171.917C259.019 171.943 260.129 171.99 261.242 172.058C264.779 172.275 268.254 172.704 271.658 173.331C283.924 159.115 307.118 139.996 341.508 132.197C394.94 120.08 366.135 179.913 354.545 197.034C346.724 208.587 340.755 216.293 335.397 222.899C342.097 236.884 345.441 252.841 344.412 269.575C341.288 320.418 298.985 359.189 249.927 356.174C200.868 353.159 163.632 309.499 166.756 258.657C168.023 238.046 175.729 219.418 187.713 204.754Z" fill="url(#paint0_linear_2762_8121)"/>
<path d="M214.23 145.662L216.654 147.806L216.654 147.806L214.23 145.662ZM187.713 204.754L190.219 206.802C190.648 206.277 190.901 205.63 190.943 204.953L187.713 204.754ZM265.014 110.686L263.936 113.738L263.936 113.738L265.014 110.686ZM267.08 156.206L270.15 157.23C270.152 157.223 270.155 157.217 270.157 157.211L267.08 156.206ZM257.913 171.917L255.399 169.879C254.622 170.838 254.457 172.155 254.976 173.276C255.494 174.396 256.604 175.124 257.838 175.152L257.913 171.917ZM271.658 173.331L271.071 176.514C272.201 176.722 273.357 176.316 274.108 175.446L271.658 173.331ZM341.508 132.197L340.792 129.041L341.508 132.197ZM354.545 197.034L351.865 195.22L354.545 197.034ZM335.397 222.899L332.884 220.86C332.096 221.831 331.939 223.169 332.479 224.297L335.397 222.899ZM211.806 143.518C191.444 166.543 185.29 191.422 184.483 204.555L190.943 204.953C191.674 193.06 197.372 169.61 216.654 147.806L211.806 143.518ZM266.093 107.635C263.852 106.843 261.003 106.953 257.858 107.755C254.64 108.575 250.791 110.198 246.343 112.834C237.446 118.108 225.886 127.598 211.806 143.518L216.654 147.806C230.45 132.206 241.505 123.227 249.643 118.402C253.713 115.99 256.986 114.656 259.456 114.027C261.997 113.379 263.401 113.548 263.936 113.738L266.093 107.635ZM270.157 157.211C276.67 137.273 277.811 125.642 276.148 118.545C275.284 114.857 273.65 112.326 271.609 110.58C269.642 108.898 267.493 108.13 266.093 107.635L263.936 113.738C265.313 114.224 266.433 114.67 267.402 115.499C268.296 116.264 269.265 117.54 269.846 120.021C271.073 125.259 270.47 135.407 264.004 155.201L270.157 157.211ZM260.427 173.955C263.506 170.156 267.922 163.908 270.15 157.23L264.01 155.182C262.149 160.762 258.304 166.294 255.399 169.879L260.427 173.955ZM257.838 175.152C258.902 175.177 259.971 175.222 261.044 175.288L261.441 168.828C260.286 168.757 259.135 168.708 257.988 168.682L257.838 175.152ZM261.044 175.288C264.45 175.497 267.796 175.91 271.071 176.514L272.244 170.149C268.713 169.498 265.108 169.053 261.441 168.828L261.044 175.288ZM274.108 175.446C286.028 161.631 308.65 142.967 342.224 135.353L340.792 129.041C305.586 137.025 281.821 156.6 269.208 171.217L274.108 175.446ZM342.224 135.353C355.29 132.39 362.128 134.13 365.55 137.213C368.968 140.291 370.146 145.763 369.199 153.245C368.271 160.587 365.393 168.962 361.956 176.657C358.532 184.327 354.648 191.109 351.865 195.22L357.225 198.848C360.237 194.399 364.3 187.282 367.866 179.296C371.421 171.335 374.578 162.299 375.62 154.057C376.645 145.956 375.73 137.671 369.882 132.404C364.04 127.141 354.442 125.945 340.792 129.041L342.224 135.353ZM351.865 195.22C344.106 206.682 338.194 214.313 332.884 220.86L337.911 224.937C343.315 218.274 349.343 210.492 357.225 198.848L351.865 195.22ZM332.479 224.297C338.944 237.794 342.176 253.202 341.182 269.377L347.643 269.774C348.705 252.48 345.249 235.974 338.316 221.501L332.479 224.297ZM341.182 269.377C338.161 318.545 297.292 355.843 250.125 352.944L249.728 359.405C300.678 362.536 344.415 322.291 347.643 269.774L341.182 269.377ZM250.125 352.944C202.958 350.046 166.965 308.024 169.986 258.855L163.526 258.458C160.299 310.975 198.778 356.273 249.728 359.405L250.125 352.944ZM169.986 258.855C171.211 238.935 178.655 220.951 190.219 206.802L185.207 202.706C172.802 217.885 164.835 237.156 163.526 258.458L169.986 258.855Z" fill="#195033"/>
<path d="M270.546 175.865L273.759 176.253L274.534 169.827L271.321 169.439L270.546 175.865ZM227.88 175.054C226.201 175.669 225.339 177.527 225.953 179.206C226.568 180.884 228.426 181.747 230.105 181.132L227.88 175.054ZM271.321 169.439C257.121 167.726 245.203 168.712 227.88 175.054L230.105 181.132C246.497 175.131 257.388 174.277 270.546 175.865L271.321 169.439Z" fill="#195033"/>
<path d="M291.038 186.977C300.552 178.996 322.271 167.304 326.835 166.771C327.098 166.74 327.355 166.729 327.617 166.689C330.955 166.183 336.39 166.758 334.146 172.854C332.052 178.539 322.7 194.202 316.902 203.569C315.909 205.174 313.762 205.576 312.224 204.482C306.795 200.62 298.501 195.13 292.032 192.04C289.984 191.062 289.299 188.436 291.038 186.977Z" fill="#40C97F"/>
<mask id="path-10-inside-1_2762_8121" fill="white">
<path fill-rule="evenodd" clip-rule="evenodd" d="M229.821 242.297C231.371 238.418 232.361 234.109 232.642 229.54C233.766 211.255 223.107 195.72 208.836 194.843C194.564 193.966 182.084 208.078 180.96 226.364C179.878 243.978 189.728 259.039 203.209 260.905C204.693 249.246 213.983 240.552 224.63 241.206C226.442 241.317 228.181 241.693 229.821 242.297Z"/>
</mask>
<path fill-rule="evenodd" clip-rule="evenodd" d="M229.821 242.297C231.371 238.418 232.361 234.109 232.642 229.54C233.766 211.255 223.107 195.72 208.836 194.843C194.564 193.966 182.084 208.078 180.96 226.364C179.878 243.978 189.728 259.039 203.209 260.905C204.693 249.246 213.983 240.552 224.63 241.206C226.442 241.317 228.181 241.693 229.821 242.297Z" fill="white"/>
<path d="M229.821 242.297L228.143 246.852L232.577 248.485L234.329 244.098L229.821 242.297ZM203.209 260.905L202.544 265.714L207.405 266.387L208.025 261.518L203.209 260.905ZM227.797 229.242C227.547 233.302 226.669 237.103 225.314 240.496L234.329 244.098C236.073 239.732 237.175 234.916 237.487 229.838L227.797 229.242ZM208.538 199.688C219.084 200.337 228.829 212.446 227.797 229.242L237.487 229.838C238.702 210.063 227.13 191.104 209.134 189.998L208.538 199.688ZM185.805 226.662C186.838 209.865 197.992 199.04 208.538 199.688L209.134 189.998C191.137 188.892 177.33 206.291 176.115 226.066L185.805 226.662ZM203.875 256.097C193.822 254.705 184.814 242.782 185.805 226.662L176.115 226.066C174.941 245.173 185.634 263.373 202.544 265.714L203.875 256.097ZM208.025 261.518C209.249 251.901 216.709 245.583 224.332 246.051L224.927 236.361C211.256 235.521 200.138 246.592 198.394 260.292L208.025 261.518ZM224.332 246.051C225.664 246.133 226.939 246.408 228.143 246.852L231.499 237.742C229.424 236.977 227.219 236.502 224.927 236.361L224.332 246.051Z" fill="#195033" mask="url(#path-10-inside-1_2762_8121)"/>
<path d="M330.577 164.972C326.54 164.723 297.184 180.752 291.035 188.48" stroke="#195033" stroke-width="6.47242" stroke-linecap="round"/>
<ellipse cx="202.402" cy="220.387" rx="17.7991" ry="22.6535" transform="rotate(3.5169 202.402 220.387)" fill="#195033"/>
<path d="M309.921 244.678C308.843 262.219 297.025 274.688 284.616 273.925C272.207 273.163 262.006 259.341 263.084 241.8C264.162 224.259 275.979 211.79 288.388 212.553C300.797 213.316 310.999 227.138 309.921 244.678Z" fill="white" stroke="#195033" stroke-width="4.85431"/>
<ellipse cx="282.104" cy="235.673" rx="17.7991" ry="22.6535" transform="rotate(3.5169 282.104 235.673)" fill="#195033"/>
<ellipse cx="280.128" cy="228.257" rx="7.28147" ry="8.89957" transform="rotate(3.5169 280.128 228.257)" fill="white"/>
<ellipse cx="200.427" cy="212.971" rx="7.28147" ry="8.89957" transform="rotate(3.5169 200.427 212.971)" fill="white"/>
<path d="M225.756 288.902C211.038 287.998 199.796 276.057 200.646 262.231C201.496 248.406 214.115 237.931 228.833 238.836" stroke="#195033" stroke-width="4.85431"/>
<path d="M239.824 244.572C239.577 248.586 233.954 251.506 227.264 251.095C220.574 250.684 215.351 247.097 215.598 243.083C215.845 239.069 221.468 236.148 228.158 236.559C234.847 236.971 240.071 240.558 239.824 244.572Z" fill="#195033"/>
</g>
</g>
<path d="M34.178 74.716V78.356H35.928V79.49H34.178V83.802H32.806V74.716H34.178ZM24.98 75.584H26.338V77.558H29.432V75.584H30.79V81.786H24.98V75.584ZM29.432 80.68V78.622H26.338V80.68H29.432ZM26.366 82.92H27.738V85.72H34.696V86.84H26.366V82.92ZM46.9883 74.688V87.106H45.6163V81.954H43.2643V80.848H45.6163V78.566H43.3203V77.446H45.6163V74.688H46.9883ZM37.1463 75.794H42.6063V80.358H38.5323V83.13C39.4843 83.1207 40.3337 83.0927 41.0803 83.046C41.8363 82.9993 42.6157 82.9153 43.4183 82.794L43.5303 83.928C42.6437 84.068 41.7897 84.1613 40.9683 84.208C40.147 84.2547 39.1997 84.278 38.1263 84.278H37.1743V79.252H41.2483V76.9H37.1463V75.794ZM59.2387 74.702V83.886H57.8527V81.086H54.7587V79.966H57.8527V78.3H54.9407C54.5113 79.2613 53.8487 80.0967 52.9527 80.806C52.066 81.5153 50.9927 82.0753 49.7327 82.486L49.1447 81.38C50.5447 80.932 51.674 80.3067 52.5327 79.504C53.3913 78.692 53.886 77.7773 54.0167 76.76H49.7887V75.654H55.5007C55.5007 76.1767 55.4447 76.6853 55.3327 77.18H57.8527V74.702H59.2387ZM51.2867 83.004H52.6727V85.72H59.5327V86.84H51.2867V83.004ZM70.6835 75.528V80.89H64.9155V75.528H70.6835ZM65.6155 86C66.3155 85.9067 66.9455 85.734 67.5055 85.482C68.0749 85.23 68.5275 84.9313 68.8635 84.586C69.2089 84.2313 69.4142 83.8627 69.4795 83.48H66.1195V82.388H74.3095V83.48H70.9635C71.0289 83.8627 71.2342 84.2313 71.5795 84.586C71.9249 84.9313 72.3729 85.23 72.9235 85.482C73.4835 85.734 74.1089 85.9113 74.7995 86.014L74.2955 87.064C73.3622 86.9147 72.5362 86.6393 71.8175 86.238C71.1082 85.8367 70.5762 85.3467 70.2215 84.768C69.8669 85.3467 69.3302 85.832 68.6115 86.224C67.9022 86.6253 67.0762 86.9007 66.1335 87.05L65.6155 86ZM69.3255 79.798V76.634H66.2595V79.798H69.3255ZM72.7415 74.702H74.1135V77.558H75.8635V78.706H74.1135V81.716H72.7415V74.702ZM87.8619 80.75V81.842H82.9619V83.06H86.5039V86.938H78.0199V83.06H81.5759V81.842H76.6759V80.75H87.8619ZM77.2499 79.098C78.4912 79.0047 79.4899 78.762 80.2459 78.37C81.0112 77.978 81.4312 77.4927 81.5059 76.914H77.7959V75.836H81.5759V74.66H82.9619V75.836H86.7559V76.914H83.0319C83.1065 77.4927 83.5219 77.978 84.2779 78.37C85.0432 78.762 86.0419 79.0047 87.2739 79.098L86.8819 80.134C85.7899 80.0407 84.8425 79.826 84.0399 79.49C83.2372 79.154 82.6445 78.7153 82.2619 78.174C81.8792 78.7153 81.2865 79.154 80.4839 79.49C79.6905 79.826 78.7525 80.0407 77.6699 80.134L77.2499 79.098ZM85.1599 85.846V84.138H79.3639V85.846H85.1599ZM97.7742 77.586V74.702H99.1462V82.668H97.7742V81.128H95.8562V80.022H97.7742V78.678H95.8842V77.586H97.7742ZM88.9262 75.976H91.7402V74.59H93.1262V75.976H95.8142V77.068H88.9262V75.976ZM89.5842 79.924C89.5842 79.476 89.7009 79.0793 89.9342 78.734C90.1769 78.3793 90.5129 78.1087 90.9422 77.922C91.3715 77.726 91.8615 77.628 92.4122 77.628C92.9629 77.628 93.4529 77.726 93.8822 77.922C94.3209 78.1087 94.6569 78.3793 94.8902 78.734C95.1329 79.0793 95.2542 79.476 95.2542 79.924C95.2542 80.3813 95.1329 80.7873 94.8902 81.142C94.6569 81.4873 94.3209 81.758 93.8822 81.954C93.4529 82.1407 92.9629 82.234 92.4122 82.234C91.8615 82.234 91.3715 82.1407 90.9422 81.954C90.5129 81.758 90.1769 81.4873 89.9342 81.142C89.7009 80.7873 89.5842 80.3813 89.5842 79.924ZM90.8722 84.936C90.8722 84.264 91.2409 83.7413 91.9782 83.368C92.7249 82.9947 93.7469 82.808 95.0442 82.808C96.3415 82.808 97.3589 82.9947 98.0962 83.368C98.8429 83.7413 99.2162 84.264 99.2162 84.936C99.2162 85.608 98.8429 86.1307 98.0962 86.504C97.3589 86.8867 96.3415 87.078 95.0442 87.078C93.7469 87.078 92.7249 86.8867 91.9782 86.504C91.2409 86.1307 90.8722 85.608 90.8722 84.936ZM90.8722 79.924C90.8722 80.316 91.0122 80.6287 91.2922 80.862C91.5722 81.086 91.9455 81.198 92.4122 81.198C92.8882 81.198 93.2662 81.086 93.5462 80.862C93.8355 80.6287 93.9802 80.316 93.9802 79.924C93.9802 79.532 93.8355 79.2287 93.5462 79.014C93.2662 78.79 92.8882 78.678 92.4122 78.678C91.9455 78.678 91.5722 78.79 91.2922 79.014C91.0122 79.2287 90.8722 79.532 90.8722 79.924ZM92.3142 84.936C92.3142 85.2813 92.5522 85.552 93.0282 85.748C93.5042 85.9347 94.1762 86.028 95.0442 86.028C95.9029 86.028 96.5702 85.9347 97.0462 85.748C97.5315 85.552 97.7742 85.2813 97.7742 84.936C97.7742 84.5813 97.5362 84.3153 97.0602 84.138C96.5842 83.9513 95.9122 83.858 95.0442 83.858C94.1762 83.858 93.5042 83.9513 93.0282 84.138C92.5522 84.3153 92.3142 84.5813 92.3142 84.936ZM107.763 75.402C108.267 75.402 108.729 75.4953 109.149 75.682C109.578 75.8593 109.942 76.1113 110.241 76.438H113.251V74.702H114.623V82.01H113.251V80.358H110.227C109.928 80.6753 109.564 80.9227 109.135 81.1C108.715 81.2773 108.258 81.366 107.763 81.366C107.156 81.366 106.606 81.24 106.111 80.988C105.626 80.736 105.243 80.386 104.963 79.938C104.683 79.4807 104.543 78.9673 104.543 78.398C104.543 77.8193 104.683 77.306 104.963 76.858C105.243 76.4007 105.626 76.046 106.111 75.794C106.606 75.5327 107.156 75.402 107.763 75.402ZM105.845 78.398C105.845 78.93 106.022 79.364 106.377 79.7C106.741 80.0267 107.203 80.19 107.763 80.19C108.323 80.19 108.776 80.0267 109.121 79.7C109.476 79.364 109.653 78.93 109.653 78.398C109.653 77.8473 109.476 77.4087 109.121 77.082C108.776 76.746 108.323 76.578 107.763 76.578C107.203 76.578 106.741 76.746 106.377 77.082C106.022 77.4087 105.845 77.8473 105.845 78.398ZM106.321 84.684C106.321 83.928 106.694 83.34 107.441 82.92C108.188 82.4907 109.21 82.276 110.507 82.276C111.795 82.276 112.808 82.4907 113.545 82.92C114.292 83.34 114.665 83.928 114.665 84.684C114.665 85.44 114.292 86.028 113.545 86.448C112.808 86.868 111.795 87.078 110.507 87.078C109.21 87.078 108.188 86.8633 107.441 86.434C106.694 86.014 106.321 85.4307 106.321 84.684ZM107.679 84.684C107.679 85.104 107.926 85.4307 108.421 85.664C108.916 85.8973 109.611 86.014 110.507 86.014C111.394 86.014 112.08 85.8973 112.565 85.664C113.06 85.4307 113.307 85.104 113.307 84.684C113.307 84.2547 113.064 83.928 112.579 83.704C112.094 83.4707 111.403 83.354 110.507 83.354C109.611 83.354 108.916 83.4707 108.421 83.704C107.926 83.928 107.679 84.2547 107.679 84.684ZM110.857 77.544C110.932 77.824 110.969 78.1087 110.969 78.398C110.969 78.678 110.932 78.958 110.857 79.238H113.251V77.544H110.857ZM120.069 75.416C120.685 75.416 121.241 75.542 121.735 75.794C122.239 76.046 122.631 76.396 122.911 76.844C123.201 77.292 123.345 77.8007 123.345 78.37C123.345 78.9393 123.201 79.448 122.911 79.896C122.631 80.344 122.239 80.694 121.735 80.946C121.241 81.1887 120.685 81.31 120.069 81.31C119.444 81.31 118.879 81.1887 118.375 80.946C117.881 80.694 117.493 80.344 117.213 79.896C116.933 79.448 116.793 78.9393 116.793 78.37C116.793 77.8007 116.933 77.292 117.213 76.844C117.493 76.396 117.881 76.046 118.375 75.794C118.879 75.542 119.444 75.416 120.069 75.416ZM118.123 78.37C118.123 78.9113 118.305 79.3453 118.669 79.672C119.033 79.9987 119.5 80.162 120.069 80.162C120.639 80.162 121.105 79.9987 121.469 79.672C121.833 79.3453 122.015 78.9113 122.015 78.37C122.015 77.8287 121.833 77.3947 121.469 77.068C121.105 76.7413 120.639 76.578 120.069 76.578C119.5 76.578 119.033 76.7413 118.669 77.068C118.305 77.3947 118.123 77.8287 118.123 78.37ZM118.179 84.712C118.179 83.9653 118.548 83.382 119.285 82.962C120.023 82.542 121.026 82.332 122.295 82.332C123.565 82.332 124.568 82.542 125.305 82.962C126.043 83.382 126.411 83.9653 126.411 84.712C126.411 85.4493 126.043 86.028 125.305 86.448C124.568 86.868 123.565 87.078 122.295 87.078C121.026 87.078 120.023 86.868 119.285 86.448C118.548 86.028 118.179 85.4493 118.179 84.712ZM119.537 84.712C119.537 85.1133 119.78 85.4307 120.265 85.664C120.751 85.888 121.427 86 122.295 86C123.163 86 123.84 85.888 124.325 85.664C124.811 85.4307 125.053 85.1133 125.053 84.712C125.053 84.3013 124.811 83.9887 124.325 83.774C123.849 83.55 123.173 83.438 122.295 83.438C121.418 83.438 120.737 83.55 120.251 83.774C119.775 83.9887 119.537 84.3013 119.537 84.712ZM124.899 74.702H126.271V76.424H127.993V77.558H126.271V79.084H127.993V80.218H126.271V81.996H124.899V74.702ZM143.288 81.17V82.276H138.472V84.502H137.086V82.276H132.06V81.17H143.288ZM133.446 83.466H134.804V85.72H142.042V86.854H133.446V83.466ZM133.544 75.08H134.902V76.55H140.446V75.08H141.818V80.106H133.544V75.08ZM140.446 79.014V77.6H134.902V79.014H140.446ZM153.173 77.18V74.702H154.545V82.052H153.173V78.314H150.639V77.18H153.173ZM144.283 80.722C145.225 80.3953 145.963 79.8587 146.495 79.112C147.027 78.356 147.293 77.5113 147.293 76.578V75.332H148.665V76.648C148.665 77.488 148.926 78.2627 149.449 78.972C149.971 79.672 150.685 80.176 151.591 80.484L150.863 81.562C150.2 81.3193 149.621 80.9647 149.127 80.498C148.641 80.0313 148.263 79.4853 147.993 78.86C147.731 79.5507 147.344 80.1527 146.831 80.666C146.317 81.17 145.706 81.5527 144.997 81.814L144.283 80.722ZM146.215 82.682H154.545V87.092H153.173V83.788H146.215V82.682ZM169.924 75.08V76.116H168.16V78.188H169.854V79.224H160.852V78.188H162.546V76.116H160.782V75.08H169.924ZM159.774 80.106H170.96V81.198H159.774V80.106ZM161.09 82.136H169.56V84.992H162.476V85.944H169.91V86.98H161.132V84.04H168.202V83.144H161.09V82.136ZM166.802 78.188V76.116H163.932V78.188H166.802ZM182.496 74.702V83.102H181.194V78.972H179.78V82.052H178.492V74.94H179.78V77.852H181.194V74.702H182.496ZM172.528 75.64H177.204V79.21H173.872V80.806C174.656 80.7967 175.351 80.7687 175.958 80.722C176.565 80.666 177.185 80.5773 177.82 80.456L177.946 81.548C177.246 81.688 176.56 81.7813 175.888 81.828C175.225 81.8747 174.385 81.898 173.368 81.898H172.556V78.202H175.874V76.732H172.528V75.64ZM173.536 85.986C174.311 85.874 175.011 85.664 175.636 85.356C176.261 85.0387 176.751 84.6607 177.106 84.222C177.461 83.774 177.638 83.3073 177.638 82.822V82.556H179.01V82.822C179.01 83.3073 179.187 83.774 179.542 84.222C179.897 84.6607 180.387 85.0387 181.012 85.356C181.637 85.664 182.337 85.874 183.112 85.986L182.566 87.05C181.605 86.8913 180.751 86.5973 180.004 86.168C179.257 85.7387 178.697 85.2067 178.324 84.572C177.941 85.2067 177.377 85.7387 176.63 86.168C175.883 86.5973 175.029 86.8913 174.068 87.05L173.536 85.986ZM189.146 80.848V79.616H185.324V78.51H187.018V76.186H185.254V75.08H194.396V76.186H192.632V78.51H194.326V79.616H190.518V80.848H195.432V81.954H184.246V80.848H189.146ZM185.59 82.99H194.074V86.938H185.59V82.99ZM192.73 85.846V84.068H186.934V85.846H192.73ZM191.274 78.51V76.186H188.404V78.51H191.274Z" fill="#0D2819"/>
<path d="M49.664 102.952V122.632H45.632V102.952H49.664ZM26.912 116.104V108.456H25.184V105.064H38.368V108.456H36.544V115.752C37.504 115.667 38.24 115.592 38.752 115.528L38.976 118.632C37.0347 119.016 34.8907 119.272 32.544 119.4C30.1973 119.507 27.7227 119.56 25.12 119.56L24.704 116.104H26.912ZM28.384 128.36C30.432 128.125 32.1387 127.677 33.504 127.016C34.8907 126.355 35.9147 125.576 36.576 124.68C37.2373 123.784 37.568 122.845 37.568 121.864V121.16H41.824V121.864C41.824 122.845 42.1547 123.784 42.816 124.68C43.4773 125.576 44.4907 126.355 45.856 127.016C47.2213 127.677 48.9173 128.125 50.944 128.36L49.44 131.656C47.136 131.357 45.152 130.771 43.488 129.896C41.8453 129.043 40.576 127.976 39.68 126.696C38.784 127.997 37.504 129.075 35.84 129.928C34.1973 130.781 32.2347 131.357 29.952 131.656L28.384 128.36ZM30.72 116.04C31.1467 116.04 31.808 116.019 32.704 115.976V108.456H30.72V116.04ZM37.632 110.44H40.16V103.496H44.16V119.976H40.16V113.832H37.632V110.44ZM75.8908 103.72V106.888H72.3068V110.376H75.6668V113.576H54.6428V110.376H58.0348V106.888H54.4188V103.72H75.8908ZM52.1788 114.952H78.1948V118.28H52.1788V114.952ZM55.1228 119.784H75.0588V127.048H59.3468V128.456H75.8268V131.56H55.1868V124.2H70.8668V122.856H55.1228V119.784ZM68.0508 110.376V106.888H62.2908V110.376H68.0508ZM90.2775 105.736V116.808H84.2615V121.544C87.2695 121.48 89.9468 121.245 92.2935 120.84L92.6455 124.264C90.9602 124.563 89.3175 124.765 87.7175 124.872C86.1175 124.979 84.2828 125.032 82.2135 125.032H80.1655V113.512H86.2135V109.096H80.1335V105.736H90.2775ZM91.4615 112.68H94.2135V103.432H98.1815V130.344H94.2135V116.168H91.4615V112.68ZM100.07 102.92H104.134V131.72H100.07V102.92ZM130.52 102.888V131.784H126.232V102.888H130.52ZM107.384 115.176C107.384 113.107 107.704 111.293 108.344 109.736C109.006 108.179 109.912 106.984 111.064 106.152C112.216 105.299 113.518 104.872 114.968 104.872C116.419 104.872 117.72 105.299 118.872 106.152C120.024 106.984 120.92 108.179 121.56 109.736C122.222 111.293 122.552 113.107 122.552 115.176C122.552 117.267 122.222 119.101 121.56 120.68C120.92 122.237 120.024 123.443 118.872 124.296C117.72 125.128 116.419 125.544 114.968 125.544C113.518 125.544 112.216 125.128 111.064 124.296C109.912 123.443 109.006 122.237 108.344 120.68C107.704 119.101 107.384 117.267 107.384 115.176ZM111.48 115.176C111.48 117.267 111.79 118.877 112.408 120.008C113.048 121.117 113.902 121.672 114.968 121.672C116.035 121.672 116.878 121.117 117.496 120.008C118.136 118.877 118.456 117.267 118.456 115.176C118.456 113.128 118.136 111.549 117.496 110.44C116.878 109.331 116.035 108.776 114.968 108.776C113.902 108.776 113.048 109.331 112.408 110.44C111.79 111.549 111.48 113.128 111.48 115.176ZM156.939 104.968V108.36H141.195V111.304H156.267V114.6H141.195V117.672H157.163V121.032H136.875V104.968H156.939ZM133.835 125H159.915V128.456H133.835V125Z" fill="#36393C"/>
<path d="M34.056 231.352V232.312H29.796V235.936H28.62V232.312H24.432V231.352H34.056ZM25.452 228.064C25.452 227.592 25.608 227.18 25.92 226.828C26.24 226.476 26.68 226.208 27.24 226.024C27.808 225.832 28.464 225.736 29.208 225.736C29.952 225.736 30.608 225.832 31.176 226.024C31.744 226.208 32.184 226.476 32.496 226.828C32.816 227.18 32.976 227.592 32.976 228.064C32.976 228.536 32.816 228.952 32.496 229.312C32.184 229.664 31.744 229.936 31.176 230.128C30.608 230.32 29.952 230.416 29.208 230.416C28.464 230.416 27.808 230.32 27.24 230.128C26.68 229.936 26.24 229.664 25.92 229.312C25.608 228.952 25.452 228.536 25.452 228.064ZM26.664 228.064C26.664 228.496 26.892 228.84 27.348 229.096C27.812 229.352 28.432 229.48 29.208 229.48C29.984 229.48 30.604 229.352 31.068 229.096C31.54 228.84 31.776 228.496 31.776 228.064C31.776 227.632 31.54 227.292 31.068 227.044C30.604 226.796 29.984 226.672 29.208 226.672C28.432 226.672 27.812 226.796 27.348 227.044C26.892 227.292 26.664 227.632 26.664 228.064ZM43.6683 225.304V235.948H42.4923V225.304H43.6683ZM35.4963 226.276H40.4403V230.188H36.7083V232.444C37.6603 232.436 38.5123 232.408 39.2643 232.36C40.0163 232.312 40.7923 232.22 41.5923 232.084L41.7123 233.032C40.8483 233.184 40.0083 233.288 39.1923 233.344C38.3843 233.392 37.4603 233.416 36.4203 233.416H35.5203V229.228H39.2523V227.224H35.4963V226.276ZM56.4542 225.316V227.968H57.9662V228.94H56.4542V231.592H55.2782V225.316H56.4542ZM48.1502 230.752C49.3742 230.408 50.3422 229.912 51.0542 229.264C51.7742 228.608 52.1822 227.86 52.2782 227.02H48.6302V226.06H53.5622C53.5622 227.428 53.1302 228.6 52.2662 229.576C51.4102 230.544 50.2022 231.252 48.6422 231.7L48.1502 230.752ZM49.5902 233.824C49.5902 233.4 49.7342 233.028 50.0222 232.708C50.3102 232.388 50.7182 232.144 51.2462 231.976C51.7742 231.808 52.3902 231.724 53.0942 231.724C53.7902 231.724 54.4022 231.812 54.9302 231.988C55.4582 232.156 55.8622 232.4 56.1422 232.72C56.4302 233.032 56.5742 233.4 56.5742 233.824C56.5742 234.256 56.4302 234.632 56.1422 234.952C55.8622 235.264 55.4582 235.504 54.9302 235.672C54.4102 235.84 53.7982 235.924 53.0942 235.924C52.0222 235.924 51.1702 235.736 50.5382 235.36C49.9062 234.984 49.5902 234.472 49.5902 233.824ZM50.7542 233.824C50.7542 234.192 50.9622 234.48 51.3782 234.688C51.7942 234.896 52.3662 235 53.0942 235C53.8222 235 54.3902 234.896 54.7982 234.688C55.2142 234.48 55.4222 234.192 55.4222 233.824C55.4222 233.456 55.2142 233.168 54.7982 232.96C54.3902 232.752 53.8222 232.648 53.0942 232.648C52.3662 232.648 51.7942 232.752 51.3782 232.96C50.9622 233.168 50.7542 233.456 50.7542 233.824ZM61.4945 226.096C62.0225 226.096 62.4905 226.252 62.8985 226.564C63.3065 226.868 63.6265 227.304 63.8585 227.872C64.0905 228.432 64.2065 229.084 64.2065 229.828C64.2065 230.58 64.0905 231.24 63.8585 231.808C63.6265 232.376 63.3065 232.816 62.8985 233.128C62.4905 233.432 62.0225 233.584 61.4945 233.584C60.9665 233.584 60.4985 233.432 60.0905 233.128C59.6825 232.816 59.3625 232.376 59.1305 231.808C58.8985 231.24 58.7825 230.58 58.7825 229.828C58.7825 229.084 58.8985 228.432 59.1305 227.872C59.3625 227.304 59.6825 226.868 60.0905 226.564C60.4985 226.252 60.9665 226.096 61.4945 226.096ZM59.9105 229.828C59.9105 230.652 60.0545 231.308 60.3425 231.796C60.6385 232.276 61.0225 232.516 61.4945 232.516C61.9745 232.516 62.3585 232.276 62.6465 231.796C62.9345 231.308 63.0785 230.652 63.0785 229.828C63.0785 229.004 62.9345 228.356 62.6465 227.884C62.3585 227.404 61.9745 227.164 61.4945 227.164C61.0225 227.164 60.6385 227.404 60.3425 227.884C60.0545 228.364 59.9105 229.012 59.9105 229.828ZM65.7065 225.316H66.8945V229.468H68.5505V230.452H66.8945V235.936H65.7065V225.316ZM75.4268 226.372V227.356H73.0388V228.424C73.0388 229.008 73.1548 229.588 73.3868 230.164C73.6188 230.732 73.9428 231.244 74.3588 231.7C74.7828 232.148 75.2628 232.488 75.7988 232.72L75.1388 233.656C74.5308 233.376 73.9948 232.964 73.5308 232.42C73.0668 231.876 72.7108 231.252 72.4628 230.548C72.2148 231.308 71.8548 231.988 71.3828 232.588C70.9188 233.18 70.3828 233.62 69.7748 233.908L69.1028 232.984C69.6308 232.736 70.1028 232.368 70.5188 231.88C70.9428 231.392 71.2708 230.844 71.5028 230.236C71.7348 229.628 71.8508 229.024 71.8508 228.424V227.356H69.4748V226.372H75.4268ZM76.6868 225.316H77.8628V235.936H76.6868V225.316ZM83.059 226.06C83.603 226.06 84.091 226.168 84.523 226.384C84.963 226.6 85.307 226.904 85.555 227.296C85.803 227.68 85.927 228.116 85.927 228.604C85.927 229.1 85.803 229.54 85.555 229.924C85.307 230.308 84.963 230.608 84.523 230.824C84.091 231.04 83.603 231.148 83.059 231.148C82.507 231.148 82.011 231.04 81.571 230.824C81.139 230.608 80.799 230.308 80.551 229.924C80.303 229.54 80.179 229.1 80.179 228.604C80.179 228.116 80.303 227.68 80.551 227.296C80.799 226.904 81.139 226.6 81.571 226.384C82.011 226.168 82.507 226.06 83.059 226.06ZM79.675 232.72C81.019 232.72 82.243 232.7 83.347 232.66C84.459 232.612 85.519 232.512 86.527 232.36L86.611 233.212C85.571 233.412 84.503 233.544 83.407 233.608C82.311 233.664 81.115 233.692 79.819 233.692L79.675 232.72ZM81.331 228.604C81.331 229.06 81.491 229.432 81.811 229.72C82.139 230 82.555 230.14 83.059 230.14C83.555 230.14 83.963 230 84.283 229.72C84.611 229.432 84.775 229.06 84.775 228.604C84.775 228.14 84.615 227.772 84.295 227.5C83.975 227.22 83.563 227.08 83.059 227.08C82.555 227.08 82.139 227.22 81.811 227.5C81.491 227.772 81.331 228.14 81.331 228.604ZM87.175 225.304H88.351V235.948H87.175V225.304ZM33.216 244.316V252.128H32.04V248.492H29.916V247.52H32.04V244.316H33.216ZM24.564 250.04C25.756 249.648 26.716 249.112 27.444 248.432C28.172 247.744 28.592 246.96 28.704 246.08H25.116V245.132H29.964C29.964 246.508 29.532 247.704 28.668 248.72C27.804 249.728 26.6 250.484 25.056 250.988L24.564 250.04ZM26.412 251.336H27.6V253.76H33.48V254.72H26.412V251.336ZM43.2003 244.316V246.968H44.7123V247.94H43.2003V250.592H42.0243V244.316H43.2003ZM34.8963 249.752C36.1203 249.408 37.0883 248.912 37.8003 248.264C38.5203 247.608 38.9283 246.86 39.0243 246.02H35.3763V245.06H40.3083C40.3083 246.428 39.8763 247.6 39.0123 248.576C38.1563 249.544 36.9483 250.252 35.3883 250.7L34.8963 249.752ZM36.3363 252.824C36.3363 252.4 36.4803 252.028 36.7683 251.708C37.0563 251.388 37.4643 251.144 37.9923 250.976C38.5203 250.808 39.1363 250.724 39.8403 250.724C40.5363 250.724 41.1483 250.812 41.6763 250.988C42.2043 251.156 42.6083 251.4 42.8883 251.72C43.1763 252.032 43.3203 252.4 43.3203 252.824C43.3203 253.256 43.1763 253.632 42.8883 253.952C42.6083 254.264 42.2043 254.504 41.6763 254.672C41.1563 254.84 40.5443 254.924 39.8403 254.924C38.7683 254.924 37.9163 254.736 37.2843 254.36C36.6523 253.984 36.3363 253.472 36.3363 252.824ZM37.5003 252.824C37.5003 253.192 37.7083 253.48 38.1243 253.688C38.5403 253.896 39.1123 254 39.8403 254C40.5683 254 41.1363 253.896 41.5443 253.688C41.9603 253.48 42.1683 253.192 42.1683 252.824C42.1683 252.456 41.9603 252.168 41.5443 251.96C41.1363 251.752 40.5683 251.648 39.8403 251.648C39.1123 251.648 38.5403 251.752 38.1243 251.96C37.7083 252.168 37.5003 252.456 37.5003 252.824ZM50.2086 244.496C51.4006 244.496 52.3286 244.652 52.9926 244.964C53.6566 245.276 53.9886 245.728 53.9886 246.32C53.9886 246.904 53.6566 247.356 52.9926 247.676C52.3286 247.988 51.4006 248.144 50.2086 248.144C49.0166 248.144 48.0886 247.988 47.4246 247.676C46.7606 247.356 46.4286 246.904 46.4286 246.32C46.4286 245.728 46.7566 245.276 47.4126 244.964C48.0766 244.652 49.0086 244.496 50.2086 244.496ZM45.4086 248.78H54.9966V249.728H45.4086V248.78ZM46.5366 250.508H53.7966V253.028H47.7246V253.94H54.0966V254.84H46.5726V252.188H52.6326V251.396H46.5366V250.508ZM47.6406 246.32C47.6406 246.632 47.8606 246.868 48.3006 247.028C48.7406 247.188 49.3766 247.268 50.2086 247.268C51.0326 247.268 51.6646 247.188 52.1046 247.028C52.5446 246.868 52.7646 246.632 52.7646 246.32C52.7646 246.008 52.5446 245.772 52.1046 245.612C51.6646 245.444 51.0326 245.36 50.2086 245.36C49.3766 245.36 48.7406 245.444 48.3006 245.612C47.8606 245.772 47.6406 246.008 47.6406 246.32ZM62.1065 244.784C62.6345 244.784 63.1065 244.88 63.5225 245.072C63.9385 245.256 64.2625 245.516 64.4945 245.852C64.7265 246.188 64.8425 246.572 64.8425 247.004C64.8425 247.428 64.7265 247.808 64.4945 248.144C64.2625 248.48 63.9385 248.744 63.5225 248.936C63.1065 249.12 62.6345 249.212 62.1065 249.212C61.5865 249.212 61.1185 249.12 60.7025 248.936C60.2865 248.744 59.9585 248.48 59.7185 248.144C59.4865 247.808 59.3705 247.428 59.3705 247.004C59.3705 246.572 59.4865 246.188 59.7185 245.852C59.9585 245.516 60.2865 245.256 60.7025 245.072C61.1185 244.88 61.5865 244.784 62.1065 244.784ZM58.6505 250.004C60.0105 250.004 61.2465 249.984 62.3585 249.944C63.4705 249.896 64.5345 249.792 65.5505 249.632L65.6225 250.508C64.7905 250.668 63.8305 250.788 62.7425 250.868V254.612H61.5665V250.928C60.7345 250.968 59.8105 250.988 58.7945 250.988L58.6505 250.004ZM60.5105 247.004C60.5105 247.38 60.6585 247.68 60.9545 247.904C61.2505 248.128 61.6345 248.24 62.1065 248.24C62.5785 248.24 62.9625 248.128 63.2585 247.904C63.5625 247.68 63.7145 247.38 63.7145 247.004C63.7145 246.628 63.5625 246.328 63.2585 246.104C62.9625 245.872 62.5785 245.756 62.1065 245.756C61.6345 245.756 61.2505 245.872 60.9545 246.104C60.6585 246.328 60.5105 246.628 60.5105 247.004ZM66.2465 244.316H67.4225V254.948H66.2465V244.316ZM77.4308 244.328V247.712H78.9428V248.696H77.4308V252.272H76.2548V244.328H77.4308ZM69.1748 245.54H71.7068V244.316H72.8948V245.54H75.4268V246.476H69.1748V245.54ZM69.7388 248.996C69.7388 248.596 69.8468 248.244 70.0628 247.94C70.2788 247.636 70.5788 247.404 70.9628 247.244C71.3468 247.076 71.7908 246.992 72.2948 246.992C72.7988 246.992 73.2468 247.076 73.6388 247.244C74.0308 247.404 74.3348 247.636 74.5508 247.94C74.7668 248.244 74.8748 248.596 74.8748 248.996C74.8748 249.388 74.7668 249.736 74.5508 250.04C74.3348 250.344 74.0308 250.58 73.6388 250.748C73.2468 250.916 72.7988 251 72.2948 251C71.7988 251 71.3548 250.916 70.9628 250.748C70.5788 250.58 70.2788 250.344 70.0628 250.04C69.8468 249.736 69.7388 249.388 69.7388 248.996ZM70.7348 251.648H71.9108V253.76H77.8868V254.72H70.7348V251.648ZM70.8668 248.996C70.8668 249.332 70.9948 249.6 71.2508 249.8C71.5148 249.992 71.8628 250.088 72.2948 250.088C72.7268 250.088 73.0748 249.992 73.3388 249.8C73.6028 249.6 73.7348 249.332 73.7348 248.996C73.7348 248.66 73.6028 248.392 73.3388 248.192C73.0748 247.992 72.7268 247.892 72.2948 247.892C71.8628 247.892 71.5148 247.992 71.2508 248.192C70.9948 248.392 70.8668 248.66 70.8668 248.996ZM90.6847 244.328V247.712H92.1967V248.696H90.6847V252.272H89.5087V244.328H90.6847ZM82.4287 245.54H84.9607V244.316H86.1487V245.54H88.6807V246.476H82.4287V245.54ZM82.9927 248.996C82.9927 248.596 83.1007 248.244 83.3167 247.94C83.5327 247.636 83.8327 247.404 84.2167 247.244C84.6007 247.076 85.0447 246.992 85.5487 246.992C86.0527 246.992 86.5007 247.076 86.8927 247.244C87.2847 247.404 87.5887 247.636 87.8047 247.94C88.0207 248.244 88.1287 248.596 88.1287 248.996C88.1287 249.388 88.0207 249.736 87.8047 250.04C87.5887 250.344 87.2847 250.58 86.8927 250.748C86.5007 250.916 86.0527 251 85.5487 251C85.0527 251 84.6087 250.916 84.2167 250.748C83.8327 250.58 83.5327 250.344 83.3167 250.04C83.1007 249.736 82.9927 249.388 82.9927 248.996ZM83.9887 251.648H85.1647V253.76H91.1407V254.72H83.9887V251.648ZM84.1207 248.996C84.1207 249.332 84.2487 249.6 84.5047 249.8C84.7687 249.992 85.1167 250.088 85.5487 250.088C85.9807 250.088 86.3287 249.992 86.5927 249.8C86.8567 249.6 86.9887 249.332 86.9887 248.996C86.9887 248.66 86.8567 248.392 86.5927 248.192C86.3287 247.992 85.9807 247.892 85.5487 247.892C85.1167 247.892 84.7687 247.992 84.5047 248.192C84.2487 248.392 84.1207 248.66 84.1207 248.996ZM104.011 245.372V246.512C104.011 247.464 103.987 248.312 103.939 249.056C103.899 249.8 103.795 250.668 103.627 251.66L102.439 251.552C102.623 250.616 102.735 249.78 102.775 249.044C102.823 248.3 102.847 247.456 102.847 246.512V246.32H96.6786V245.372H104.011ZM95.6586 252.476H105.259V253.448H95.6586V252.476ZM115.771 249.836V250.784H106.147V249.836H115.771ZM106.867 254C107.563 253.92 108.175 253.768 108.703 253.544C109.231 253.32 109.639 253.044 109.927 252.716C110.215 252.38 110.359 252.016 110.359 251.624V251.42H111.559V251.624C111.559 252.016 111.703 252.38 111.991 252.716C112.287 253.044 112.699 253.32 113.227 253.544C113.755 253.768 114.367 253.92 115.063 254L114.655 254.9C113.807 254.788 113.059 254.568 112.411 254.24C111.763 253.92 111.279 253.512 110.959 253.016C110.639 253.512 110.155 253.92 109.507 254.24C108.859 254.568 108.107 254.788 107.251 254.9L106.867 254ZM107.347 244.64H114.547V247.28H108.523V248.18H114.775V249.092H107.371V246.428H113.383V245.552H107.347V244.64Z" fill="#33A165"/>
<defs>
<linearGradient id="paint0_linear_2762_8121" x1="277.362" y1="111.218" x2="262.261" y2="356.932" gradientUnits="userSpaceOnUse">
<stop stop-color="#F3FFC4"/>
<stop offset="1" stop-color="#E6FF86"/>
</linearGradient>
</defs>
</svg>
