<svg width="360" height="241" viewBox="0 0 360 241" fill="none" xmlns="http://www.w3.org/2000/svg">
<mask id="mask0_3168_3769" style="mask-type:alpha" maskUnits="userSpaceOnUse" x="0" y="0" width="360" height="241">
<path d="M0 0H360V241H0V0Z" fill="#B2E9CC"/>
</mask>
<g mask="url(#mask0_3168_3769)">
<path d="M0 -130.747C0 -144.002 10.7452 -154.747 24 -154.747H336C349.255 -154.747 360 -144.002 360 -130.747V99.4597C360 112.714 349.255 123.46 336 123.46H24C10.7452 123.46 0 112.714 0 99.4597V-130.747Z" fill="#B2E9CC"/>
<path d="M0 -13.207C0 -26.4619 10.7452 -37.207 24 -37.207H336C349.255 -37.207 360 -26.4619 360 -13.207V217C360 230.255 349.255 241 336 241H24C10.7452 241 0 230.255 0 217V-13.207Z" fill="#B2E9CC"/>
<mask id="mask1_3168_3769" style="mask-type:alpha" maskUnits="userSpaceOnUse" x="37" y="5" width="405" height="335">
<path d="M134.837 5.00964L441.802 90.4252L344.687 339.987L37.7228 254.572L134.837 5.00964Z" fill="#33A165"/>
</mask>
<g mask="url(#mask1_3168_3769)">
<path d="M361.088 220.599C358.161 260.871 318.444 292.001 271.846 289.58C225.247 287.158 190.337 252.149 193.264 211.877C196.191 171.605 235.908 140.474 282.506 142.896C329.105 145.317 364.015 180.326 361.088 220.599Z" fill="#40C97F" stroke="#195033" stroke-width="6.47242"/>
<path fill-rule="evenodd" clip-rule="evenodd" d="M187.713 173.143C188.482 162.562 194.408 142.128 214.23 123.174C242.106 96.5199 259.461 91.9384 265.014 93.5979C270.568 95.2574 280.06 98.4924 267.08 132.09C265.036 137.273 260.905 142.253 257.913 145.375C259.019 145.397 260.129 145.437 261.242 145.495C264.779 145.678 268.254 146.041 271.658 146.571C283.924 134.55 307.118 118.382 341.508 111.788C394.94 101.541 366.135 152.137 354.545 166.615C346.724 176.384 340.755 182.901 335.397 188.486C342.097 200.312 345.441 213.806 344.412 227.957C341.288 270.95 298.985 303.736 249.927 301.186C200.868 298.637 163.632 261.717 166.756 218.724C168.023 201.295 175.729 185.543 187.713 173.143Z" fill="url(#paint0_linear_3168_3769)"/>
<path d="M214.23 123.174L211.899 120.976L214.23 123.174ZM187.713 173.143L190.136 175.25C190.652 174.716 190.962 174.033 191.014 173.315L187.713 173.143ZM265.014 93.5979L266.049 90.5988L266.049 90.5988L265.014 93.5979ZM267.08 132.09L270.177 133.155C270.18 133.148 270.182 133.142 270.185 133.135L267.08 132.09ZM257.913 145.375L255.48 143.278C254.604 144.193 254.361 145.501 254.859 146.627C255.357 147.754 256.505 148.492 257.797 148.517L257.913 145.375ZM271.658 146.571L271.076 149.673C272.151 149.84 273.252 149.492 274.018 148.742L271.658 146.571ZM341.508 111.788L340.898 108.707L341.508 111.788ZM354.545 166.615L351.922 164.735L354.545 166.615ZM335.397 188.486L332.966 186.388C332.011 187.384 331.815 188.835 332.478 190.006L335.397 188.486ZM166.756 218.724L163.455 218.552L166.756 218.724ZM211.899 120.976C191.46 140.519 185.231 161.693 184.412 172.971L191.014 173.315C191.733 163.43 197.356 143.737 216.561 125.373L211.899 120.976ZM266.049 90.5988C263.879 89.9505 261.096 90.0327 257.969 90.7065C254.773 91.395 250.933 92.7621 246.482 94.9937C237.578 99.457 226 107.493 211.899 120.976L216.561 125.373C230.336 112.201 241.374 104.619 249.505 100.543C253.571 98.5049 256.853 97.3719 259.344 96.8352C261.904 96.2837 263.373 96.4155 263.98 96.5969L266.049 90.5988ZM270.185 133.135C276.703 116.263 277.921 106.246 276.198 100.027C275.296 96.7697 273.592 94.566 271.534 93.0773C269.569 91.6564 267.436 91.0134 266.049 90.5988L263.98 96.5969C265.37 97.0122 266.506 97.3958 267.477 98.0981C268.354 98.7326 269.254 99.7487 269.796 101.707C270.963 105.92 270.437 114.319 263.976 131.045L270.185 133.135ZM260.345 147.472C263.427 144.257 267.905 138.914 270.177 133.155L263.984 131.024C262.166 135.632 258.383 140.25 255.48 143.278L260.345 147.472ZM257.797 148.517C258.865 148.538 259.938 148.577 261.014 148.633L261.47 142.357C260.319 142.297 259.172 142.256 258.029 142.233L257.797 148.517ZM261.014 148.633C264.432 148.81 267.79 149.161 271.076 149.673L272.239 143.47C268.719 142.921 265.126 142.547 261.47 142.357L261.014 148.633ZM274.018 148.742C285.885 137.111 308.491 121.316 342.118 114.868L340.898 108.707C305.744 115.449 281.963 131.989 269.297 144.401L274.018 148.742ZM342.118 114.868C355.226 112.354 362.168 113.826 365.624 116.458C368.915 118.966 370.057 123.358 369.134 129.532C368.221 135.631 365.382 142.638 361.958 149.123C358.549 155.577 354.685 161.284 351.922 164.735L357.169 168.494C360.201 164.707 364.283 158.66 367.865 151.876C371.432 145.122 374.627 137.406 375.686 130.328C376.733 123.323 375.782 116.083 369.809 111.533C364.001 107.108 354.505 106.098 340.898 108.707L342.118 114.868ZM351.922 164.735C344.173 174.415 338.27 180.858 332.966 186.388L337.829 190.584C343.24 184.943 349.276 178.353 357.169 168.494L351.922 164.735ZM332.478 190.006C338.9 201.342 342.095 214.252 341.111 227.785L347.714 228.128C348.787 213.359 345.294 199.283 338.317 186.967L332.478 190.006ZM341.111 227.785C338.13 268.81 297.648 300.516 250.155 298.048L249.699 304.324C300.322 306.955 344.446 273.09 347.714 228.128L341.111 227.785ZM250.155 298.048C202.662 295.58 167.076 259.92 170.057 218.896L163.455 218.552C160.187 263.514 199.075 301.693 249.699 304.324L250.155 298.048ZM170.057 218.896C171.268 202.233 178.632 187.153 190.136 175.25L185.29 171.036C172.825 183.933 164.778 200.357 163.455 218.552L170.057 218.896Z" fill="#195033"/>
<path d="M270.613 149.117L273.91 149.454L274.55 143.213L271.254 142.877L270.613 149.117ZM227.933 147.614C226.2 148.15 225.269 149.922 225.854 151.57C226.438 153.218 228.317 154.119 230.051 153.582L227.933 147.614ZM271.254 142.877C257.099 141.432 245.225 142.261 227.933 147.614L230.051 153.582C246.475 148.498 257.41 147.77 270.613 149.117L271.254 142.877Z" fill="#195033"/>
<path d="M291.707 157.644C301.562 150.896 322.496 141.41 326.873 141.02C327.114 140.999 327.345 140.99 327.585 140.959C330.919 140.524 336.398 140.996 334.146 146.168C332.054 150.972 322.713 164.201 316.915 172.124C315.883 173.534 313.869 173.904 312.362 172.996C307.089 169.819 299.026 165.29 292.587 162.619C290.366 161.697 289.717 159.007 291.707 157.644Z" fill="#40C97F"/>
<mask id="path-10-inside-1_3168_3769" fill="white">
<path fill-rule="evenodd" clip-rule="evenodd" d="M229.821 204.89C231.371 201.609 232.361 197.966 232.642 194.102C233.766 178.64 223.107 165.504 208.836 164.762C194.564 164.02 182.084 175.954 180.96 191.416C179.878 206.311 189.728 219.047 203.209 220.625C204.693 210.766 213.983 203.414 224.63 203.967C226.442 204.061 228.181 204.379 229.821 204.89Z"/>
</mask>
<path fill-rule="evenodd" clip-rule="evenodd" d="M229.821 204.89C231.371 201.609 232.361 197.966 232.642 194.102C233.766 178.64 223.107 165.504 208.836 164.762C194.564 164.02 182.084 175.954 180.96 191.416C179.878 206.311 189.728 219.047 203.209 220.625C204.693 210.766 213.983 203.414 224.63 203.967C226.442 204.061 228.181 204.379 229.821 204.89Z" fill="white"/>
<path d="M229.821 204.89L228.214 209.371L232.487 210.702L234.345 206.768L229.821 204.89ZM203.209 220.625L202.532 225.304L207.423 225.876L208.123 221.227L203.209 220.625ZM227.69 193.845C227.45 197.15 226.605 200.245 225.298 203.011L234.345 206.768C236.138 202.974 237.272 198.782 237.594 194.36L227.69 193.845ZM208.494 169.469C219.442 170.038 228.668 180.385 227.69 193.845L237.594 194.36C238.863 176.895 226.773 160.97 209.178 160.055L208.494 169.469ZM185.912 191.674C186.89 178.213 197.546 168.9 208.494 169.469L209.178 160.055C191.583 159.141 177.278 173.694 176.008 191.159L185.912 191.674ZM203.886 215.946C193.504 214.731 184.971 204.615 185.912 191.674L176.008 191.159C174.784 208.007 185.952 223.363 202.532 225.304L203.886 215.946ZM208.123 221.227C209.239 213.813 216.239 208.256 224.288 208.674L224.972 199.26C211.727 198.572 200.148 207.719 198.296 220.024L208.123 221.227ZM224.288 208.674C225.665 208.746 226.979 208.986 228.214 209.371L231.429 200.408C229.384 199.771 227.219 199.377 224.972 199.26L224.288 208.674Z" fill="#195033" mask="url(#path-10-inside-1_3168_3769)"/>
<path d="M330.577 139.502C326.54 139.292 297.184 152.846 291.035 159.381" stroke="#195033" stroke-width="6.47242" stroke-linecap="round"/>
<ellipse cx="17.4159" cy="19.7184" rx="17.4159" ry="19.7184" transform="matrix(1.02008 0.0530138 -0.0704738 0.969653 186.026 166.319)" fill="#195033"/>
<path d="M309.867 206.901C308.816 221.362 297.248 231.985 284.639 231.33C272.029 230.675 262.086 218.933 263.137 204.472C264.188 190.011 275.756 179.387 288.366 180.043C300.976 180.698 310.918 192.439 309.867 206.901Z" fill="white" stroke="#195033" stroke-width="4.85431"/>
<ellipse cx="17.4159" cy="19.7184" rx="17.4159" ry="19.7184" transform="matrix(1.02008 0.0530138 -0.0704738 0.969653 265.728 179.245)" fill="#195033"/>
<ellipse cx="7.1247" cy="7.74651" rx="7.1247" ry="7.74651" transform="matrix(1.02008 0.0530138 -0.0704738 0.969653 273.406 185.128)" fill="white"/>
<ellipse cx="7.1247" cy="7.74651" rx="7.1247" ry="7.74651" transform="matrix(1.02008 0.0530138 -0.0704738 0.969653 193.705 172.202)" fill="white"/>
<path d="M225.756 244.3C211.038 243.535 199.796 233.438 200.646 221.746C201.496 210.055 214.115 201.198 228.833 201.963" stroke="#195033" stroke-width="4.85431"/>
<path d="M239.824 206.813C239.577 210.207 233.954 212.677 227.264 212.329C220.574 211.982 215.351 208.948 215.598 205.554C215.845 202.16 221.468 199.69 228.158 200.038C234.847 200.386 240.071 203.419 239.824 206.813Z" fill="#195033"/>
</g>
</g>
<path d="M34.178 30.716V34.356H35.928V35.49H34.178V39.802H32.806V30.716H34.178ZM24.98 31.584H26.338V33.558H29.432V31.584H30.79V37.786H24.98V31.584ZM29.432 36.68V34.622H26.338V36.68H29.432ZM26.366 38.92H27.738V41.72H34.696V42.84H26.366V38.92ZM46.9883 30.688V43.106H45.6163V37.954H43.2643V36.848H45.6163V34.566H43.3203V33.446H45.6163V30.688H46.9883ZM37.1463 31.794H42.6063V36.358H38.5323V39.13C39.4843 39.1207 40.3337 39.0927 41.0803 39.046C41.8363 38.9993 42.6157 38.9153 43.4183 38.794L43.5303 39.928C42.6437 40.068 41.7897 40.1613 40.9683 40.208C40.147 40.2547 39.1997 40.278 38.1263 40.278H37.1743V35.252H41.2483V32.9H37.1463V31.794ZM59.2387 30.702V39.886H57.8527V37.086H54.7587V35.966H57.8527V34.3H54.9407C54.5113 35.2613 53.8487 36.0967 52.9527 36.806C52.066 37.5153 50.9927 38.0753 49.7327 38.486L49.1447 37.38C50.5447 36.932 51.674 36.3067 52.5327 35.504C53.3913 34.692 53.886 33.7773 54.0167 32.76H49.7887V31.654H55.5007C55.5007 32.1767 55.4447 32.6853 55.3327 33.18H57.8527V30.702H59.2387ZM51.2867 39.004H52.6727V41.72H59.5327V42.84H51.2867V39.004ZM70.6835 31.528V36.89H64.9155V31.528H70.6835ZM65.6155 42C66.3155 41.9067 66.9455 41.734 67.5055 41.482C68.0749 41.23 68.5275 40.9313 68.8635 40.586C69.2089 40.2313 69.4142 39.8627 69.4795 39.48H66.1195V38.388H74.3095V39.48H70.9635C71.0289 39.8627 71.2342 40.2313 71.5795 40.586C71.9249 40.9313 72.3729 41.23 72.9235 41.482C73.4835 41.734 74.1089 41.9113 74.7995 42.014L74.2955 43.064C73.3622 42.9147 72.5362 42.6393 71.8175 42.238C71.1082 41.8367 70.5762 41.3467 70.2215 40.768C69.8669 41.3467 69.3302 41.832 68.6115 42.224C67.9022 42.6253 67.0762 42.9007 66.1335 43.05L65.6155 42ZM69.3255 35.798V32.634H66.2595V35.798H69.3255ZM72.7415 30.702H74.1135V33.558H75.8635V34.706H74.1135V37.716H72.7415V30.702ZM87.8619 36.75V37.842H82.9619V39.06H86.5039V42.938H78.0199V39.06H81.5759V37.842H76.6759V36.75H87.8619ZM77.2499 35.098C78.4912 35.0047 79.4899 34.762 80.2459 34.37C81.0112 33.978 81.4312 33.4927 81.5059 32.914H77.7959V31.836H81.5759V30.66H82.9619V31.836H86.7559V32.914H83.0319C83.1065 33.4927 83.5219 33.978 84.2779 34.37C85.0432 34.762 86.0419 35.0047 87.2739 35.098L86.8819 36.134C85.7899 36.0407 84.8425 35.826 84.0399 35.49C83.2372 35.154 82.6445 34.7153 82.2619 34.174C81.8792 34.7153 81.2865 35.154 80.4839 35.49C79.6905 35.826 78.7525 36.0407 77.6699 36.134L77.2499 35.098ZM85.1599 41.846V40.138H79.3639V41.846H85.1599ZM97.7742 33.586V30.702H99.1462V38.668H97.7742V37.128H95.8562V36.022H97.7742V34.678H95.8842V33.586H97.7742ZM88.9262 31.976H91.7402V30.59H93.1262V31.976H95.8142V33.068H88.9262V31.976ZM89.5842 35.924C89.5842 35.476 89.7009 35.0793 89.9342 34.734C90.1769 34.3793 90.5129 34.1087 90.9422 33.922C91.3715 33.726 91.8615 33.628 92.4122 33.628C92.9629 33.628 93.4529 33.726 93.8822 33.922C94.3209 34.1087 94.6569 34.3793 94.8902 34.734C95.1329 35.0793 95.2542 35.476 95.2542 35.924C95.2542 36.3813 95.1329 36.7873 94.8902 37.142C94.6569 37.4873 94.3209 37.758 93.8822 37.954C93.4529 38.1407 92.9629 38.234 92.4122 38.234C91.8615 38.234 91.3715 38.1407 90.9422 37.954C90.5129 37.758 90.1769 37.4873 89.9342 37.142C89.7009 36.7873 89.5842 36.3813 89.5842 35.924ZM90.8722 40.936C90.8722 40.264 91.2409 39.7413 91.9782 39.368C92.7249 38.9947 93.7469 38.808 95.0442 38.808C96.3415 38.808 97.3589 38.9947 98.0962 39.368C98.8429 39.7413 99.2162 40.264 99.2162 40.936C99.2162 41.608 98.8429 42.1307 98.0962 42.504C97.3589 42.8867 96.3415 43.078 95.0442 43.078C93.7469 43.078 92.7249 42.8867 91.9782 42.504C91.2409 42.1307 90.8722 41.608 90.8722 40.936ZM90.8722 35.924C90.8722 36.316 91.0122 36.6287 91.2922 36.862C91.5722 37.086 91.9455 37.198 92.4122 37.198C92.8882 37.198 93.2662 37.086 93.5462 36.862C93.8355 36.6287 93.9802 36.316 93.9802 35.924C93.9802 35.532 93.8355 35.2287 93.5462 35.014C93.2662 34.79 92.8882 34.678 92.4122 34.678C91.9455 34.678 91.5722 34.79 91.2922 35.014C91.0122 35.2287 90.8722 35.532 90.8722 35.924ZM92.3142 40.936C92.3142 41.2813 92.5522 41.552 93.0282 41.748C93.5042 41.9347 94.1762 42.028 95.0442 42.028C95.9029 42.028 96.5702 41.9347 97.0462 41.748C97.5315 41.552 97.7742 41.2813 97.7742 40.936C97.7742 40.5813 97.5362 40.3153 97.0602 40.138C96.5842 39.9513 95.9122 39.858 95.0442 39.858C94.1762 39.858 93.5042 39.9513 93.0282 40.138C92.5522 40.3153 92.3142 40.5813 92.3142 40.936ZM107.763 31.402C108.267 31.402 108.729 31.4953 109.149 31.682C109.578 31.8593 109.942 32.1113 110.241 32.438H113.251V30.702H114.623V38.01H113.251V36.358H110.227C109.928 36.6753 109.564 36.9227 109.135 37.1C108.715 37.2773 108.258 37.366 107.763 37.366C107.156 37.366 106.606 37.24 106.111 36.988C105.626 36.736 105.243 36.386 104.963 35.938C104.683 35.4807 104.543 34.9673 104.543 34.398C104.543 33.8193 104.683 33.306 104.963 32.858C105.243 32.4007 105.626 32.046 106.111 31.794C106.606 31.5327 107.156 31.402 107.763 31.402ZM105.845 34.398C105.845 34.93 106.022 35.364 106.377 35.7C106.741 36.0267 107.203 36.19 107.763 36.19C108.323 36.19 108.776 36.0267 109.121 35.7C109.476 35.364 109.653 34.93 109.653 34.398C109.653 33.8473 109.476 33.4087 109.121 33.082C108.776 32.746 108.323 32.578 107.763 32.578C107.203 32.578 106.741 32.746 106.377 33.082C106.022 33.4087 105.845 33.8473 105.845 34.398ZM106.321 40.684C106.321 39.928 106.694 39.34 107.441 38.92C108.188 38.4907 109.21 38.276 110.507 38.276C111.795 38.276 112.808 38.4907 113.545 38.92C114.292 39.34 114.665 39.928 114.665 40.684C114.665 41.44 114.292 42.028 113.545 42.448C112.808 42.868 111.795 43.078 110.507 43.078C109.21 43.078 108.188 42.8633 107.441 42.434C106.694 42.014 106.321 41.4307 106.321 40.684ZM107.679 40.684C107.679 41.104 107.926 41.4307 108.421 41.664C108.916 41.8973 109.611 42.014 110.507 42.014C111.394 42.014 112.08 41.8973 112.565 41.664C113.06 41.4307 113.307 41.104 113.307 40.684C113.307 40.2547 113.064 39.928 112.579 39.704C112.094 39.4707 111.403 39.354 110.507 39.354C109.611 39.354 108.916 39.4707 108.421 39.704C107.926 39.928 107.679 40.2547 107.679 40.684ZM110.857 33.544C110.932 33.824 110.969 34.1087 110.969 34.398C110.969 34.678 110.932 34.958 110.857 35.238H113.251V33.544H110.857ZM120.069 31.416C120.685 31.416 121.241 31.542 121.735 31.794C122.239 32.046 122.631 32.396 122.911 32.844C123.201 33.292 123.345 33.8007 123.345 34.37C123.345 34.9393 123.201 35.448 122.911 35.896C122.631 36.344 122.239 36.694 121.735 36.946C121.241 37.1887 120.685 37.31 120.069 37.31C119.444 37.31 118.879 37.1887 118.375 36.946C117.881 36.694 117.493 36.344 117.213 35.896C116.933 35.448 116.793 34.9393 116.793 34.37C116.793 33.8007 116.933 33.292 117.213 32.844C117.493 32.396 117.881 32.046 118.375 31.794C118.879 31.542 119.444 31.416 120.069 31.416ZM118.123 34.37C118.123 34.9113 118.305 35.3453 118.669 35.672C119.033 35.9987 119.5 36.162 120.069 36.162C120.639 36.162 121.105 35.9987 121.469 35.672C121.833 35.3453 122.015 34.9113 122.015 34.37C122.015 33.8287 121.833 33.3947 121.469 33.068C121.105 32.7413 120.639 32.578 120.069 32.578C119.5 32.578 119.033 32.7413 118.669 33.068C118.305 33.3947 118.123 33.8287 118.123 34.37ZM118.179 40.712C118.179 39.9653 118.548 39.382 119.285 38.962C120.023 38.542 121.026 38.332 122.295 38.332C123.565 38.332 124.568 38.542 125.305 38.962C126.043 39.382 126.411 39.9653 126.411 40.712C126.411 41.4493 126.043 42.028 125.305 42.448C124.568 42.868 123.565 43.078 122.295 43.078C121.026 43.078 120.023 42.868 119.285 42.448C118.548 42.028 118.179 41.4493 118.179 40.712ZM119.537 40.712C119.537 41.1133 119.78 41.4307 120.265 41.664C120.751 41.888 121.427 42 122.295 42C123.163 42 123.84 41.888 124.325 41.664C124.811 41.4307 125.053 41.1133 125.053 40.712C125.053 40.3013 124.811 39.9887 124.325 39.774C123.849 39.55 123.173 39.438 122.295 39.438C121.418 39.438 120.737 39.55 120.251 39.774C119.775 39.9887 119.537 40.3013 119.537 40.712ZM124.899 30.702H126.271V32.424H127.993V33.558H126.271V35.084H127.993V36.218H126.271V37.996H124.899V30.702ZM143.288 37.17V38.276H138.472V40.502H137.086V38.276H132.06V37.17H143.288ZM133.446 39.466H134.804V41.72H142.042V42.854H133.446V39.466ZM133.544 31.08H134.902V32.55H140.446V31.08H141.818V36.106H133.544V31.08ZM140.446 35.014V33.6H134.902V35.014H140.446ZM153.173 33.18V30.702H154.545V38.052H153.173V34.314H150.639V33.18H153.173ZM144.283 36.722C145.225 36.3953 145.963 35.8587 146.495 35.112C147.027 34.356 147.293 33.5113 147.293 32.578V31.332H148.665V32.648C148.665 33.488 148.926 34.2627 149.449 34.972C149.971 35.672 150.685 36.176 151.591 36.484L150.863 37.562C150.2 37.3193 149.621 36.9647 149.127 36.498C148.641 36.0313 148.263 35.4853 147.993 34.86C147.731 35.5507 147.344 36.1527 146.831 36.666C146.317 37.17 145.706 37.5527 144.997 37.814L144.283 36.722ZM146.215 38.682H154.545V43.092H153.173V39.788H146.215V38.682ZM169.924 31.08V32.116H168.16V34.188H169.854V35.224H160.852V34.188H162.546V32.116H160.782V31.08H169.924ZM159.774 36.106H170.96V37.198H159.774V36.106ZM161.09 38.136H169.56V40.992H162.476V41.944H169.91V42.98H161.132V40.04H168.202V39.144H161.09V38.136ZM166.802 34.188V32.116H163.932V34.188H166.802ZM182.496 30.702V39.102H181.194V34.972H179.78V38.052H178.492V30.94H179.78V33.852H181.194V30.702H182.496ZM172.528 31.64H177.204V35.21H173.872V36.806C174.656 36.7967 175.351 36.7687 175.958 36.722C176.565 36.666 177.185 36.5773 177.82 36.456L177.946 37.548C177.246 37.688 176.56 37.7813 175.888 37.828C175.225 37.8747 174.385 37.898 173.368 37.898H172.556V34.202H175.874V32.732H172.528V31.64ZM173.536 41.986C174.311 41.874 175.011 41.664 175.636 41.356C176.261 41.0387 176.751 40.6607 177.106 40.222C177.461 39.774 177.638 39.3073 177.638 38.822V38.556H179.01V38.822C179.01 39.3073 179.187 39.774 179.542 40.222C179.897 40.6607 180.387 41.0387 181.012 41.356C181.637 41.664 182.337 41.874 183.112 41.986L182.566 43.05C181.605 42.8913 180.751 42.5973 180.004 42.168C179.257 41.7387 178.697 41.2067 178.324 40.572C177.941 41.2067 177.377 41.7387 176.63 42.168C175.883 42.5973 175.029 42.8913 174.068 43.05L173.536 41.986ZM189.146 36.848V35.616H185.324V34.51H187.018V32.186H185.254V31.08H194.396V32.186H192.632V34.51H194.326V35.616H190.518V36.848H195.432V37.954H184.246V36.848H189.146ZM185.59 38.99H194.074V42.938H185.59V38.99ZM192.73 41.846V40.068H186.934V41.846H192.73ZM191.274 34.51V32.186H188.404V34.51H191.274Z" fill="#0D2819"/>
<path d="M49.664 58.952V78.632H45.632V58.952H49.664ZM26.912 72.104V64.456H25.184V61.064H38.368V64.456H36.544V71.752C37.504 71.6667 38.24 71.592 38.752 71.528L38.976 74.632C37.0347 75.016 34.8907 75.272 32.544 75.4C30.1973 75.5067 27.7227 75.56 25.12 75.56L24.704 72.104H26.912ZM28.384 84.36C30.432 84.1253 32.1387 83.6773 33.504 83.016C34.8907 82.3547 35.9147 81.576 36.576 80.68C37.2373 79.784 37.568 78.8453 37.568 77.864V77.16H41.824V77.864C41.824 78.8453 42.1547 79.784 42.816 80.68C43.4773 81.576 44.4907 82.3547 45.856 83.016C47.2213 83.6773 48.9173 84.1253 50.944 84.36L49.44 87.656C47.136 87.3573 45.152 86.7707 43.488 85.896C41.8453 85.0427 40.576 83.976 39.68 82.696C38.784 83.9973 37.504 85.0747 35.84 85.928C34.1973 86.7813 32.2347 87.3573 29.952 87.656L28.384 84.36ZM30.72 72.04C31.1467 72.04 31.808 72.0187 32.704 71.976V64.456H30.72V72.04ZM37.632 66.44H40.16V59.496H44.16V75.976H40.16V69.832H37.632V66.44ZM75.8908 59.72V62.888H72.3068V66.376H75.6668V69.576H54.6428V66.376H58.0348V62.888H54.4188V59.72H75.8908ZM52.1788 70.952H78.1948V74.28H52.1788V70.952ZM55.1228 75.784H75.0588V83.048H59.3468V84.456H75.8268V87.56H55.1868V80.2H70.8668V78.856H55.1228V75.784ZM68.0508 66.376V62.888H62.2908V66.376H68.0508ZM90.2775 61.736V72.808H84.2615V77.544C87.2695 77.48 89.9468 77.2453 92.2935 76.84L92.6455 80.264C90.9602 80.5627 89.3175 80.7653 87.7175 80.872C86.1175 80.9787 84.2828 81.032 82.2135 81.032H80.1655V69.512H86.2135V65.096H80.1335V61.736H90.2775ZM91.4615 68.68H94.2135V59.432H98.1815V86.344H94.2135V72.168H91.4615V68.68ZM100.07 58.92H104.134V87.72H100.07V58.92ZM130.52 58.888V87.784H126.232V58.888H130.52ZM107.384 71.176C107.384 69.1067 107.704 67.2933 108.344 65.736C109.006 64.1787 109.912 62.984 111.064 62.152C112.216 61.2987 113.518 60.872 114.968 60.872C116.419 60.872 117.72 61.2987 118.872 62.152C120.024 62.984 120.92 64.1787 121.56 65.736C122.222 67.2933 122.552 69.1067 122.552 71.176C122.552 73.2667 122.222 75.1013 121.56 76.68C120.92 78.2373 120.024 79.4427 118.872 80.296C117.72 81.128 116.419 81.544 114.968 81.544C113.518 81.544 112.216 81.128 111.064 80.296C109.912 79.4427 109.006 78.2373 108.344 76.68C107.704 75.1013 107.384 73.2667 107.384 71.176ZM111.48 71.176C111.48 73.2667 111.79 74.8773 112.408 76.008C113.048 77.1173 113.902 77.672 114.968 77.672C116.035 77.672 116.878 77.1173 117.496 76.008C118.136 74.8773 118.456 73.2667 118.456 71.176C118.456 69.128 118.136 67.5493 117.496 66.44C116.878 65.3307 116.035 64.776 114.968 64.776C113.902 64.776 113.048 65.3307 112.408 66.44C111.79 67.5493 111.48 69.128 111.48 71.176ZM156.939 60.968V64.36H141.195V67.304H156.267V70.6H141.195V73.672H157.163V77.032H136.875V60.968H156.939ZM133.835 81H159.915V84.456H133.835V81Z" fill="#36393C"/>
<path d="M34.056 187.352V188.312H29.796V191.936H28.62V188.312H24.432V187.352H34.056ZM25.452 184.064C25.452 183.592 25.608 183.18 25.92 182.828C26.24 182.476 26.68 182.208 27.24 182.024C27.808 181.832 28.464 181.736 29.208 181.736C29.952 181.736 30.608 181.832 31.176 182.024C31.744 182.208 32.184 182.476 32.496 182.828C32.816 183.18 32.976 183.592 32.976 184.064C32.976 184.536 32.816 184.952 32.496 185.312C32.184 185.664 31.744 185.936 31.176 186.128C30.608 186.32 29.952 186.416 29.208 186.416C28.464 186.416 27.808 186.32 27.24 186.128C26.68 185.936 26.24 185.664 25.92 185.312C25.608 184.952 25.452 184.536 25.452 184.064ZM26.664 184.064C26.664 184.496 26.892 184.84 27.348 185.096C27.812 185.352 28.432 185.48 29.208 185.48C29.984 185.48 30.604 185.352 31.068 185.096C31.54 184.84 31.776 184.496 31.776 184.064C31.776 183.632 31.54 183.292 31.068 183.044C30.604 182.796 29.984 182.672 29.208 182.672C28.432 182.672 27.812 182.796 27.348 183.044C26.892 183.292 26.664 183.632 26.664 184.064ZM43.6683 181.304V191.948H42.4923V181.304H43.6683ZM35.4963 182.276H40.4403V186.188H36.7083V188.444C37.6603 188.436 38.5123 188.408 39.2643 188.36C40.0163 188.312 40.7923 188.22 41.5923 188.084L41.7123 189.032C40.8483 189.184 40.0083 189.288 39.1923 189.344C38.3843 189.392 37.4603 189.416 36.4203 189.416H35.5203V185.228H39.2523V183.224H35.4963V182.276ZM56.4542 181.316V183.968H57.9662V184.94H56.4542V187.592H55.2782V181.316H56.4542ZM48.1502 186.752C49.3742 186.408 50.3422 185.912 51.0542 185.264C51.7742 184.608 52.1822 183.86 52.2782 183.02H48.6302V182.06H53.5622C53.5622 183.428 53.1302 184.6 52.2662 185.576C51.4102 186.544 50.2022 187.252 48.6422 187.7L48.1502 186.752ZM49.5902 189.824C49.5902 189.4 49.7342 189.028 50.0222 188.708C50.3102 188.388 50.7182 188.144 51.2462 187.976C51.7742 187.808 52.3902 187.724 53.0942 187.724C53.7902 187.724 54.4022 187.812 54.9302 187.988C55.4582 188.156 55.8622 188.4 56.1422 188.72C56.4302 189.032 56.5742 189.4 56.5742 189.824C56.5742 190.256 56.4302 190.632 56.1422 190.952C55.8622 191.264 55.4582 191.504 54.9302 191.672C54.4102 191.84 53.7982 191.924 53.0942 191.924C52.0222 191.924 51.1702 191.736 50.5382 191.36C49.9062 190.984 49.5902 190.472 49.5902 189.824ZM50.7542 189.824C50.7542 190.192 50.9622 190.48 51.3782 190.688C51.7942 190.896 52.3662 191 53.0942 191C53.8222 191 54.3902 190.896 54.7982 190.688C55.2142 190.48 55.4222 190.192 55.4222 189.824C55.4222 189.456 55.2142 189.168 54.7982 188.96C54.3902 188.752 53.8222 188.648 53.0942 188.648C52.3662 188.648 51.7942 188.752 51.3782 188.96C50.9622 189.168 50.7542 189.456 50.7542 189.824ZM61.4945 182.096C62.0225 182.096 62.4905 182.252 62.8985 182.564C63.3065 182.868 63.6265 183.304 63.8585 183.872C64.0905 184.432 64.2065 185.084 64.2065 185.828C64.2065 186.58 64.0905 187.24 63.8585 187.808C63.6265 188.376 63.3065 188.816 62.8985 189.128C62.4905 189.432 62.0225 189.584 61.4945 189.584C60.9665 189.584 60.4985 189.432 60.0905 189.128C59.6825 188.816 59.3625 188.376 59.1305 187.808C58.8985 187.24 58.7825 186.58 58.7825 185.828C58.7825 185.084 58.8985 184.432 59.1305 183.872C59.3625 183.304 59.6825 182.868 60.0905 182.564C60.4985 182.252 60.9665 182.096 61.4945 182.096ZM59.9105 185.828C59.9105 186.652 60.0545 187.308 60.3425 187.796C60.6385 188.276 61.0225 188.516 61.4945 188.516C61.9745 188.516 62.3585 188.276 62.6465 187.796C62.9345 187.308 63.0785 186.652 63.0785 185.828C63.0785 185.004 62.9345 184.356 62.6465 183.884C62.3585 183.404 61.9745 183.164 61.4945 183.164C61.0225 183.164 60.6385 183.404 60.3425 183.884C60.0545 184.364 59.9105 185.012 59.9105 185.828ZM65.7065 181.316H66.8945V185.468H68.5505V186.452H66.8945V191.936H65.7065V181.316ZM75.4268 182.372V183.356H73.0388V184.424C73.0388 185.008 73.1548 185.588 73.3868 186.164C73.6188 186.732 73.9428 187.244 74.3588 187.7C74.7828 188.148 75.2628 188.488 75.7988 188.72L75.1388 189.656C74.5308 189.376 73.9948 188.964 73.5308 188.42C73.0668 187.876 72.7108 187.252 72.4628 186.548C72.2148 187.308 71.8548 187.988 71.3828 188.588C70.9188 189.18 70.3828 189.62 69.7748 189.908L69.1028 188.984C69.6308 188.736 70.1028 188.368 70.5188 187.88C70.9428 187.392 71.2708 186.844 71.5028 186.236C71.7348 185.628 71.8508 185.024 71.8508 184.424V183.356H69.4748V182.372H75.4268ZM76.6868 181.316H77.8628V191.936H76.6868V181.316ZM83.059 182.06C83.603 182.06 84.091 182.168 84.523 182.384C84.963 182.6 85.307 182.904 85.555 183.296C85.803 183.68 85.927 184.116 85.927 184.604C85.927 185.1 85.803 185.54 85.555 185.924C85.307 186.308 84.963 186.608 84.523 186.824C84.091 187.04 83.603 187.148 83.059 187.148C82.507 187.148 82.011 187.04 81.571 186.824C81.139 186.608 80.799 186.308 80.551 185.924C80.303 185.54 80.179 185.1 80.179 184.604C80.179 184.116 80.303 183.68 80.551 183.296C80.799 182.904 81.139 182.6 81.571 182.384C82.011 182.168 82.507 182.06 83.059 182.06ZM79.675 188.72C81.019 188.72 82.243 188.7 83.347 188.66C84.459 188.612 85.519 188.512 86.527 188.36L86.611 189.212C85.571 189.412 84.503 189.544 83.407 189.608C82.311 189.664 81.115 189.692 79.819 189.692L79.675 188.72ZM81.331 184.604C81.331 185.06 81.491 185.432 81.811 185.72C82.139 186 82.555 186.14 83.059 186.14C83.555 186.14 83.963 186 84.283 185.72C84.611 185.432 84.775 185.06 84.775 184.604C84.775 184.14 84.615 183.772 84.295 183.5C83.975 183.22 83.563 183.08 83.059 183.08C82.555 183.08 82.139 183.22 81.811 183.5C81.491 183.772 81.331 184.14 81.331 184.604ZM87.175 181.304H88.351V191.948H87.175V181.304ZM33.216 200.316V208.128H32.04V204.492H29.916V203.52H32.04V200.316H33.216ZM24.564 206.04C25.756 205.648 26.716 205.112 27.444 204.432C28.172 203.744 28.592 202.96 28.704 202.08H25.116V201.132H29.964C29.964 202.508 29.532 203.704 28.668 204.72C27.804 205.728 26.6 206.484 25.056 206.988L24.564 206.04ZM26.412 207.336H27.6V209.76H33.48V210.72H26.412V207.336ZM43.2003 200.316V202.968H44.7123V203.94H43.2003V206.592H42.0243V200.316H43.2003ZM34.8963 205.752C36.1203 205.408 37.0883 204.912 37.8003 204.264C38.5203 203.608 38.9283 202.86 39.0243 202.02H35.3763V201.06H40.3083C40.3083 202.428 39.8763 203.6 39.0123 204.576C38.1563 205.544 36.9483 206.252 35.3883 206.7L34.8963 205.752ZM36.3363 208.824C36.3363 208.4 36.4803 208.028 36.7683 207.708C37.0563 207.388 37.4643 207.144 37.9923 206.976C38.5203 206.808 39.1363 206.724 39.8403 206.724C40.5363 206.724 41.1483 206.812 41.6763 206.988C42.2043 207.156 42.6083 207.4 42.8883 207.72C43.1763 208.032 43.3203 208.4 43.3203 208.824C43.3203 209.256 43.1763 209.632 42.8883 209.952C42.6083 210.264 42.2043 210.504 41.6763 210.672C41.1563 210.84 40.5443 210.924 39.8403 210.924C38.7683 210.924 37.9163 210.736 37.2843 210.36C36.6523 209.984 36.3363 209.472 36.3363 208.824ZM37.5003 208.824C37.5003 209.192 37.7083 209.48 38.1243 209.688C38.5403 209.896 39.1123 210 39.8403 210C40.5683 210 41.1363 209.896 41.5443 209.688C41.9603 209.48 42.1683 209.192 42.1683 208.824C42.1683 208.456 41.9603 208.168 41.5443 207.96C41.1363 207.752 40.5683 207.648 39.8403 207.648C39.1123 207.648 38.5403 207.752 38.1243 207.96C37.7083 208.168 37.5003 208.456 37.5003 208.824ZM50.2086 200.496C51.4006 200.496 52.3286 200.652 52.9926 200.964C53.6566 201.276 53.9886 201.728 53.9886 202.32C53.9886 202.904 53.6566 203.356 52.9926 203.676C52.3286 203.988 51.4006 204.144 50.2086 204.144C49.0166 204.144 48.0886 203.988 47.4246 203.676C46.7606 203.356 46.4286 202.904 46.4286 202.32C46.4286 201.728 46.7566 201.276 47.4126 200.964C48.0766 200.652 49.0086 200.496 50.2086 200.496ZM45.4086 204.78H54.9966V205.728H45.4086V204.78ZM46.5366 206.508H53.7966V209.028H47.7246V209.94H54.0966V210.84H46.5726V208.188H52.6326V207.396H46.5366V206.508ZM47.6406 202.32C47.6406 202.632 47.8606 202.868 48.3006 203.028C48.7406 203.188 49.3766 203.268 50.2086 203.268C51.0326 203.268 51.6646 203.188 52.1046 203.028C52.5446 202.868 52.7646 202.632 52.7646 202.32C52.7646 202.008 52.5446 201.772 52.1046 201.612C51.6646 201.444 51.0326 201.36 50.2086 201.36C49.3766 201.36 48.7406 201.444 48.3006 201.612C47.8606 201.772 47.6406 202.008 47.6406 202.32ZM62.1065 200.784C62.6345 200.784 63.1065 200.88 63.5225 201.072C63.9385 201.256 64.2625 201.516 64.4945 201.852C64.7265 202.188 64.8425 202.572 64.8425 203.004C64.8425 203.428 64.7265 203.808 64.4945 204.144C64.2625 204.48 63.9385 204.744 63.5225 204.936C63.1065 205.12 62.6345 205.212 62.1065 205.212C61.5865 205.212 61.1185 205.12 60.7025 204.936C60.2865 204.744 59.9585 204.48 59.7185 204.144C59.4865 203.808 59.3705 203.428 59.3705 203.004C59.3705 202.572 59.4865 202.188 59.7185 201.852C59.9585 201.516 60.2865 201.256 60.7025 201.072C61.1185 200.88 61.5865 200.784 62.1065 200.784ZM58.6505 206.004C60.0105 206.004 61.2465 205.984 62.3585 205.944C63.4705 205.896 64.5345 205.792 65.5505 205.632L65.6225 206.508C64.7905 206.668 63.8305 206.788 62.7425 206.868V210.612H61.5665V206.928C60.7345 206.968 59.8105 206.988 58.7945 206.988L58.6505 206.004ZM60.5105 203.004C60.5105 203.38 60.6585 203.68 60.9545 203.904C61.2505 204.128 61.6345 204.24 62.1065 204.24C62.5785 204.24 62.9625 204.128 63.2585 203.904C63.5625 203.68 63.7145 203.38 63.7145 203.004C63.7145 202.628 63.5625 202.328 63.2585 202.104C62.9625 201.872 62.5785 201.756 62.1065 201.756C61.6345 201.756 61.2505 201.872 60.9545 202.104C60.6585 202.328 60.5105 202.628 60.5105 203.004ZM66.2465 200.316H67.4225V210.948H66.2465V200.316ZM77.4308 200.328V203.712H78.9428V204.696H77.4308V208.272H76.2548V200.328H77.4308ZM69.1748 201.54H71.7068V200.316H72.8948V201.54H75.4268V202.476H69.1748V201.54ZM69.7388 204.996C69.7388 204.596 69.8468 204.244 70.0628 203.94C70.2788 203.636 70.5788 203.404 70.9628 203.244C71.3468 203.076 71.7908 202.992 72.2948 202.992C72.7988 202.992 73.2468 203.076 73.6388 203.244C74.0308 203.404 74.3348 203.636 74.5508 203.94C74.7668 204.244 74.8748 204.596 74.8748 204.996C74.8748 205.388 74.7668 205.736 74.5508 206.04C74.3348 206.344 74.0308 206.58 73.6388 206.748C73.2468 206.916 72.7988 207 72.2948 207C71.7988 207 71.3548 206.916 70.9628 206.748C70.5788 206.58 70.2788 206.344 70.0628 206.04C69.8468 205.736 69.7388 205.388 69.7388 204.996ZM70.7348 207.648H71.9108V209.76H77.8868V210.72H70.7348V207.648ZM70.8668 204.996C70.8668 205.332 70.9948 205.6 71.2508 205.8C71.5148 205.992 71.8628 206.088 72.2948 206.088C72.7268 206.088 73.0748 205.992 73.3388 205.8C73.6028 205.6 73.7348 205.332 73.7348 204.996C73.7348 204.66 73.6028 204.392 73.3388 204.192C73.0748 203.992 72.7268 203.892 72.2948 203.892C71.8628 203.892 71.5148 203.992 71.2508 204.192C70.9948 204.392 70.8668 204.66 70.8668 204.996ZM90.6847 200.328V203.712H92.1967V204.696H90.6847V208.272H89.5087V200.328H90.6847ZM82.4287 201.54H84.9607V200.316H86.1487V201.54H88.6807V202.476H82.4287V201.54ZM82.9927 204.996C82.9927 204.596 83.1007 204.244 83.3167 203.94C83.5327 203.636 83.8327 203.404 84.2167 203.244C84.6007 203.076 85.0447 202.992 85.5487 202.992C86.0527 202.992 86.5007 203.076 86.8927 203.244C87.2847 203.404 87.5887 203.636 87.8047 203.94C88.0207 204.244 88.1287 204.596 88.1287 204.996C88.1287 205.388 88.0207 205.736 87.8047 206.04C87.5887 206.344 87.2847 206.58 86.8927 206.748C86.5007 206.916 86.0527 207 85.5487 207C85.0527 207 84.6087 206.916 84.2167 206.748C83.8327 206.58 83.5327 206.344 83.3167 206.04C83.1007 205.736 82.9927 205.388 82.9927 204.996ZM83.9887 207.648H85.1647V209.76H91.1407V210.72H83.9887V207.648ZM84.1207 204.996C84.1207 205.332 84.2487 205.6 84.5047 205.8C84.7687 205.992 85.1167 206.088 85.5487 206.088C85.9807 206.088 86.3287 205.992 86.5927 205.8C86.8567 205.6 86.9887 205.332 86.9887 204.996C86.9887 204.66 86.8567 204.392 86.5927 204.192C86.3287 203.992 85.9807 203.892 85.5487 203.892C85.1167 203.892 84.7687 203.992 84.5047 204.192C84.2487 204.392 84.1207 204.66 84.1207 204.996ZM104.011 201.372V202.512C104.011 203.464 103.987 204.312 103.939 205.056C103.899 205.8 103.795 206.668 103.627 207.66L102.439 207.552C102.623 206.616 102.735 205.78 102.775 205.044C102.823 204.3 102.847 203.456 102.847 202.512V202.32H96.6786V201.372H104.011ZM95.6586 208.476H105.259V209.448H95.6586V208.476ZM115.771 205.836V206.784H106.147V205.836H115.771ZM106.867 210C107.563 209.92 108.175 209.768 108.703 209.544C109.231 209.32 109.639 209.044 109.927 208.716C110.215 208.38 110.359 208.016 110.359 207.624V207.42H111.559V207.624C111.559 208.016 111.703 208.38 111.991 208.716C112.287 209.044 112.699 209.32 113.227 209.544C113.755 209.768 114.367 209.92 115.063 210L114.655 210.9C113.807 210.788 113.059 210.568 112.411 210.24C111.763 209.92 111.279 209.512 110.959 209.016C110.639 209.512 110.155 209.92 109.507 210.24C108.859 210.568 108.107 210.788 107.251 210.9L106.867 210ZM107.347 200.64H114.547V203.28H108.523V204.18H114.775V205.092H107.371V202.428H113.383V201.552H107.347V200.64Z" fill="#33A165"/>
<defs>
<linearGradient id="paint0_linear_3168_3769" x1="277.362" y1="94.0475" x2="266.552" y2="302.05" gradientUnits="userSpaceOnUse">
<stop stop-color="#F3FFC4"/>
<stop offset="1" stop-color="#E6FF86"/>
</linearGradient>
</defs>
</svg>
