<svg width="360" height="329" viewBox="0 0 360 329" fill="none" xmlns="http://www.w3.org/2000/svg">
<mask id="mask0_1702_10668" style="mask-type:alpha" maskUnits="userSpaceOnUse" x="0" y="0" width="360" height="329">
<path d="M0 0H360V329H0V0Z" fill="#B2E9CC"/>
</mask>
<g mask="url(#mask0_1702_10668)">
<path d="M0 -115C0 -128.255 10.7452 -139 24 -139H336C349.255 -139 360 -128.255 360 -115V166C360 179.255 349.255 190 336 190H24C10.7452 190 0 179.255 0 166V-115Z" fill="#B2E9CC"/>
<path d="M0 24C0 10.7452 10.7452 0 24 0H336C349.255 0 360 10.7452 360 24V305C360 318.255 349.255 329 336 329H24C10.7452 329 0 318.255 0 305V24Z" fill="#B2E9CC"/>
<mask id="mask1_1702_10668" style="mask-type:alpha" maskUnits="userSpaceOnUse" x="37" y="49" width="405" height="398">
<path d="M134.837 49.9243L441.802 150.934L344.687 446.06L37.7228 345.05L134.837 49.9243Z" fill="#33A165"/>
</mask>
<g mask="url(#mask1_1702_10668)">
<path d="M361.159 304.878C358.192 353.156 318.089 389.774 271.816 386.93C225.543 384.086 190.226 342.833 193.193 294.555C196.16 246.277 236.263 209.66 282.536 212.504C328.809 215.348 364.126 256.6 361.159 304.878Z" fill="#40C97F" stroke="#195033" stroke-width="6.47242"/>
<path fill-rule="evenodd" clip-rule="evenodd" d="M187.713 248.754C188.482 236.241 194.408 212.076 214.23 189.662C242.106 158.142 259.461 152.724 265.014 154.686C270.568 156.649 280.06 160.474 267.08 200.206C265.036 206.335 260.905 212.225 257.913 215.917C259.019 215.943 260.129 215.99 261.242 216.058C264.779 216.275 268.254 216.704 271.658 217.331C283.924 203.115 307.118 183.996 341.508 176.197C394.94 164.08 366.135 223.913 354.545 241.034C346.724 252.587 340.755 260.293 335.397 266.899C342.097 280.884 345.441 296.841 344.412 313.575C341.288 364.418 298.985 403.189 249.927 400.174C200.868 397.159 163.632 353.499 166.756 302.657C168.023 282.046 175.729 263.418 187.713 248.754Z" fill="url(#paint0_linear_1702_10668)"/>
<path d="M214.23 189.662L216.654 191.806L216.654 191.806L214.23 189.662ZM187.713 248.754L190.219 250.802C190.648 250.277 190.901 249.63 190.943 248.953L187.713 248.754ZM265.014 154.686L263.936 157.738L263.936 157.738L265.014 154.686ZM267.08 200.206L270.15 201.23C270.152 201.223 270.155 201.217 270.157 201.211L267.08 200.206ZM257.913 215.917L255.399 213.879C254.622 214.838 254.457 216.155 254.976 217.276C255.494 218.396 256.604 219.124 257.838 219.152L257.913 215.917ZM271.658 217.331L271.071 220.514C272.201 220.722 273.357 220.316 274.108 219.446L271.658 217.331ZM341.508 176.197L340.792 173.041L341.508 176.197ZM354.545 241.034L351.865 239.22L354.545 241.034ZM335.397 266.899L332.884 264.86C332.096 265.831 331.939 267.169 332.479 268.297L335.397 266.899ZM211.806 187.518C191.444 210.543 185.29 235.422 184.483 248.555L190.943 248.953C191.674 237.06 197.372 213.61 216.654 191.806L211.806 187.518ZM266.093 151.635C263.852 150.843 261.003 150.953 257.858 151.755C254.64 152.575 250.791 154.198 246.343 156.834C237.446 162.108 225.886 171.598 211.806 187.518L216.654 191.806C230.45 176.206 241.505 167.227 249.643 162.402C253.713 159.99 256.986 158.656 259.456 158.027C261.997 157.379 263.401 157.548 263.936 157.738L266.093 151.635ZM270.157 201.211C276.67 181.273 277.811 169.642 276.148 162.545C275.284 158.857 273.65 156.326 271.609 154.58C269.642 152.898 267.493 152.13 266.093 151.635L263.936 157.738C265.313 158.224 266.433 158.67 267.402 159.499C268.296 160.264 269.265 161.54 269.846 164.021C271.073 169.259 270.47 179.407 264.004 199.201L270.157 201.211ZM260.427 217.955C263.506 214.156 267.922 207.908 270.15 201.23L264.01 199.182C262.149 204.762 258.304 210.294 255.399 213.879L260.427 217.955ZM257.838 219.152C258.902 219.177 259.971 219.222 261.044 219.288L261.441 212.828C260.286 212.757 259.135 212.708 257.988 212.682L257.838 219.152ZM261.044 219.288C264.45 219.497 267.796 219.91 271.071 220.514L272.244 214.149C268.713 213.498 265.108 213.053 261.441 212.828L261.044 219.288ZM274.108 219.446C286.028 205.631 308.65 186.967 342.224 179.353L340.792 173.041C305.586 181.025 281.821 200.6 269.208 215.217L274.108 219.446ZM342.224 179.353C355.29 176.39 362.128 178.13 365.55 181.213C368.968 184.291 370.146 189.763 369.199 197.245C368.271 204.587 365.393 212.962 361.956 220.657C358.532 228.327 354.648 235.109 351.865 239.22L357.225 242.848C360.237 238.399 364.3 231.282 367.866 223.296C371.421 215.335 374.578 206.299 375.62 198.057C376.645 189.956 375.73 181.671 369.882 176.404C364.04 171.141 354.442 169.945 340.792 173.041L342.224 179.353ZM351.865 239.22C344.106 250.682 338.194 258.313 332.884 264.86L337.911 268.937C343.315 262.274 349.343 254.492 357.225 242.848L351.865 239.22ZM332.479 268.297C338.944 281.794 342.176 297.202 341.182 313.377L347.643 313.774C348.705 296.48 345.249 279.974 338.316 265.501L332.479 268.297ZM341.182 313.377C338.161 362.545 297.292 399.843 250.125 396.944L249.728 403.405C300.678 406.536 344.415 366.291 347.643 313.774L341.182 313.377ZM250.125 396.944C202.958 394.046 166.965 352.024 169.986 302.855L163.526 302.458C160.299 354.975 198.778 400.273 249.728 403.405L250.125 396.944ZM169.986 302.855C171.211 282.935 178.655 264.951 190.219 250.802L185.207 246.706C172.802 261.885 164.835 281.156 163.526 302.458L169.986 302.855Z" fill="#195033"/>
<path d="M270.546 219.865L273.759 220.253L274.534 213.827L271.321 213.439L270.546 219.865ZM227.88 219.054C226.201 219.669 225.339 221.527 225.953 223.206C226.568 224.884 228.426 225.747 230.105 225.132L227.88 219.054ZM271.321 213.439C257.121 211.726 245.203 212.712 227.88 219.054L230.105 225.132C246.497 219.131 257.388 218.277 270.546 219.865L271.321 213.439Z" fill="#195033"/>
<path d="M291.038 230.977C300.552 222.996 322.271 211.304 326.835 210.771C327.098 210.74 327.355 210.729 327.617 210.689C330.955 210.183 336.39 210.758 334.146 216.854C332.052 222.539 322.7 238.202 316.902 247.569C315.909 249.174 313.762 249.576 312.224 248.482C306.795 244.62 298.501 239.13 292.032 236.04C289.984 235.062 289.299 232.436 291.038 230.977Z" fill="#40C97F"/>
<mask id="path-10-inside-1_1702_10668" fill="white">
<path fill-rule="evenodd" clip-rule="evenodd" d="M229.821 286.297C231.371 282.418 232.361 278.109 232.642 273.54C233.766 255.255 223.107 239.72 208.836 238.843C194.564 237.966 182.084 252.078 180.96 270.364C179.878 287.978 189.728 303.039 203.209 304.905C204.693 293.246 213.983 284.552 224.63 285.206C226.442 285.317 228.182 285.693 229.821 286.297Z"/>
</mask>
<path fill-rule="evenodd" clip-rule="evenodd" d="M229.821 286.297C231.371 282.418 232.361 278.109 232.642 273.54C233.766 255.255 223.107 239.72 208.836 238.843C194.564 237.966 182.084 252.078 180.96 270.364C179.878 287.978 189.728 303.039 203.209 304.905C204.693 293.246 213.983 284.552 224.63 285.206C226.442 285.317 228.182 285.693 229.821 286.297Z" fill="white"/>
<path d="M229.821 286.297L228.143 290.852L232.577 292.485L234.329 288.098L229.821 286.297ZM203.209 304.905L202.544 309.714L207.405 310.387L208.025 305.518L203.209 304.905ZM227.797 273.242C227.547 277.302 226.669 281.103 225.314 284.496L234.329 288.098C236.073 283.732 237.175 278.916 237.487 273.838L227.797 273.242ZM208.538 243.688C219.084 244.337 228.829 256.446 227.797 273.242L237.487 273.838C238.702 254.063 227.13 235.104 209.134 233.998L208.538 243.688ZM185.805 270.662C186.838 253.865 197.992 243.04 208.538 243.688L209.134 233.998C191.137 232.892 177.33 250.291 176.115 270.066L185.805 270.662ZM203.875 300.097C193.822 298.705 184.814 286.782 185.805 270.662L176.115 270.066C174.941 289.173 185.634 307.373 202.544 309.714L203.875 300.097ZM208.025 305.518C209.249 295.901 216.709 289.583 224.332 290.051L224.927 280.361C211.256 279.521 200.138 290.592 198.394 304.292L208.025 305.518ZM224.332 290.051C225.664 290.133 226.939 290.408 228.143 290.852L231.5 281.742C229.424 280.977 227.219 280.502 224.927 280.361L224.332 290.051Z" fill="#195033" mask="url(#path-10-inside-1_1702_10668)"/>
<path d="M330.577 208.972C326.54 208.723 297.184 224.752 291.035 232.48" stroke="#195033" stroke-width="6.47242" stroke-linecap="round"/>
<ellipse cx="202.402" cy="264.387" rx="17.7991" ry="22.6535" transform="rotate(3.5169 202.402 264.387)" fill="#195033"/>
<path d="M309.921 288.678C308.843 306.219 297.025 318.688 284.616 317.925C272.207 317.163 262.006 303.341 263.084 285.8C264.162 268.259 275.979 255.79 288.388 256.553C300.797 257.316 310.999 271.138 309.921 288.678Z" fill="white" stroke="#195033" stroke-width="4.85431"/>
<ellipse cx="282.104" cy="279.673" rx="17.7991" ry="22.6535" transform="rotate(3.5169 282.104 279.673)" fill="#195033"/>
<ellipse cx="280.128" cy="272.257" rx="7.28147" ry="8.89957" transform="rotate(3.5169 280.128 272.257)" fill="white"/>
<ellipse cx="200.427" cy="256.971" rx="7.28147" ry="8.89957" transform="rotate(3.5169 200.427 256.971)" fill="white"/>
<path d="M225.756 332.902C211.038 331.998 199.796 320.057 200.646 306.231C201.496 292.406 214.115 281.931 228.833 282.836" stroke="#195033" stroke-width="4.85431"/>
<path d="M239.824 288.572C239.577 292.586 233.954 295.506 227.264 295.095C220.574 294.684 215.351 291.097 215.598 287.083C215.845 283.069 221.468 280.148 228.158 280.559C234.847 280.971 240.071 284.558 239.824 288.572Z" fill="#195033"/>
</g>
</g>
<defs>
<linearGradient id="paint0_linear_1702_10668" x1="277.362" y1="155.218" x2="262.261" y2="400.932" gradientUnits="userSpaceOnUse">
<stop stop-color="#F3FFC4"/>
<stop offset="1" stop-color="#E6FF86"/>
</linearGradient>
</defs>
</svg>
