<svg width="260" height="72" viewBox="0 0 260 72" fill="none" xmlns="http://www.w3.org/2000/svg">
<path d="M15.3263 58.6209C11.7611 58.6209 10 58.2343 10 57.4396V21.6161C10 20.2845 10.6014 19.6187 11.8255 19.6187H22.1345C27.9118 19.6187 32.0998 20.7999 34.6556 23.1839C37.2113 25.5678 38.4999 29.0256 38.4999 33.5573C38.4999 37.3157 37.2972 40.752 34.8703 43.8662C33.6676 45.434 31.885 46.6797 29.544 47.6247C27.203 48.5697 24.454 49.0421 21.3398 49.0421V57.3967C21.3398 57.8692 20.6096 58.1913 19.1492 58.3631C17.6888 58.535 16.4216 58.6209 15.3692 58.6209H15.3263ZM21.3184 29.8203V39.0768H22.0701C23.4446 39.0768 24.5829 38.6473 25.5278 37.7882C26.4728 36.9291 26.9453 35.7264 26.9453 34.1586C26.9453 32.5908 26.6232 31.474 25.9789 30.8082C25.3345 30.1424 24.1963 29.8203 22.5425 29.8203H21.3184Z" fill="#40C97F"/>
<path d="M92.8849 57.4643C92.8849 58.2354 90.9573 58.6423 87.1021 58.6423C83.2468 58.6423 81.3192 58.2568 81.3192 57.4643V30.2635H74.3155C73.6516 30.2635 73.1804 29.3639 72.9019 27.5648C72.7948 26.7081 72.7306 25.8299 72.7306 24.9304C72.7306 24.0308 72.7948 23.1527 72.9019 22.296C73.1804 20.4969 73.6516 19.6187 74.3155 19.6187H99.7387C100.403 19.6187 100.874 20.5183 101.131 22.296C101.238 23.1527 101.302 24.0308 101.302 24.9304C101.302 25.8299 101.238 26.7081 101.131 27.5648C100.852 29.3639 100.381 30.2635 99.7387 30.2635H92.9064V57.4643H92.8849Z" fill="#40C97F"/>
<path d="M109.503 58.6209C105.938 58.6209 104.177 58.2343 104.177 57.4396V21.6161C104.177 20.2845 104.778 19.6187 106.002 19.6187H116.311C122.088 19.6187 126.276 20.7999 128.832 23.1839C131.388 25.5678 132.676 29.0256 132.676 33.5573C132.676 37.3157 131.474 40.752 129.047 43.8662C127.844 45.434 126.062 46.6797 123.721 47.6247C121.38 48.5697 118.631 49.0421 115.516 49.0421V57.3967C115.516 57.8692 114.786 58.1913 113.326 58.3631C111.865 58.535 110.598 58.6209 109.546 58.6209H109.503ZM115.473 29.8203V39.0768H116.225C117.6 39.0768 118.738 38.6473 119.683 37.7882C120.628 36.9291 121.1 35.7264 121.1 34.1586C121.1 32.5908 120.778 31.474 120.134 30.8082C119.49 30.1424 118.351 29.8203 116.698 29.8203H115.473Z" fill="#40C97F"/>
<path d="M209.462 57.4643C209.462 58.2354 207.534 58.6423 203.679 58.6423C199.824 58.6423 197.896 58.2568 197.896 57.4643V30.2635H190.892C190.228 30.2635 189.757 29.3639 189.479 27.5648C189.372 26.7081 189.307 25.8299 189.307 24.9304C189.307 24.0308 189.372 23.1527 189.479 22.296C189.757 20.4969 190.228 19.6187 190.892 19.6187H216.316C216.98 19.6187 217.451 20.5183 217.708 22.296C217.815 23.1527 217.879 24.0308 217.879 24.9304C217.879 25.8299 217.815 26.7081 217.708 27.5648C217.429 29.3639 216.958 30.2635 216.316 30.2635H209.483V57.4643H209.462Z" fill="#40C97F"/>
<path d="M134.18 54.8195V20.8429C134.18 20.0268 136.156 19.6187 140.129 19.6187C144.102 19.6187 146.078 20.0268 146.078 20.8429V49.2784H155.098C155.807 49.2784 156.28 50.1804 156.559 52.006C156.666 52.8865 156.666 54.4758 156.559 55.4423C156.237 57.3108 155.743 58.2343 155.034 58.2343H136.972C136.113 58.2343 135.425 57.8907 134.91 57.1819C134.395 56.4947 134.158 55.7 134.158 54.798L134.18 54.8195Z" fill="#40C97F"/>
<path d="M56.7768 58.6208C51.8371 58.6208 47.778 56.9885 44.3846 53.6166C41.0342 50.2877 39.3375 45.6057 39.3375 39.6566C39.3375 33.7075 40.9913 28.8322 44.2128 25.2026C47.4773 21.573 51.472 19.8119 56.4547 19.8119C61.4373 19.8119 65.2387 21.0576 67.8804 23.5274C70.5435 26.0187 71.8322 28.9396 71.8322 32.5048C71.8322 40.3654 67.3864 44.1883 58.2587 44.1883H51.7297V45.2836C51.7297 47.238 52.3311 48.634 53.4908 49.4501C54.5647 50.2018 56.0036 50.5454 57.9366 50.5454C61.4588 50.5454 64.8522 49.7937 68.0522 48.3333C68.0952 48.3977 68.1381 48.4836 68.1596 48.5481C69.3408 50.6528 69.9207 52.3924 69.9207 53.7455C69.9207 55.3777 69.2979 55.6784 69.0402 55.7858C65.8401 57.6758 61.7165 58.5993 56.7339 58.5993L56.7768 58.6208Z" fill="#40C97F"/>
<path d="M189.454 58.6209C186.863 58.6209 184.833 57.9514 183.278 56.5909C182.565 56.0294 182.069 55.4031 181.723 54.6472L180.967 53.0275L179.866 54.4313C177.641 57.2387 174.208 58.6209 169.392 58.6209C165.807 58.6209 162.891 57.3899 160.429 54.8416C157.968 52.2933 156.78 49.3346 156.78 45.8577C156.78 37.9104 161.466 34.0448 171.141 34.0448H176.605V32.1443C176.605 30.3951 176.281 29.2937 175.568 28.6674C174.877 28.0627 173.689 27.8036 171.703 27.8036C169.716 27.8036 167.081 28.1707 163.712 28.9265C162.589 26.7885 162.028 25.0393 162.028 23.7219C162.028 22.8797 162.157 21.8215 162.783 21.476C165.569 20.2666 169.608 19.6187 174.683 19.6187C179.758 19.6187 183.062 20.7417 185.006 22.9229C186.971 25.1689 187.986 28.581 187.986 33.0945V46.7215H191.787C191.981 46.7215 192.435 46.7215 192.888 47.6718C193.32 48.5788 193.536 49.8745 193.536 51.559C193.536 53.2435 193.104 54.8848 192.262 56.5261C191.29 58.4049 190.21 58.6209 189.476 58.6209H189.454ZM173.279 39.9188C170.104 39.9188 168.377 41.6249 168.377 44.7563C168.377 46.2248 168.809 47.391 169.673 48.2117C170.515 49.0107 171.573 49.421 172.847 49.421C174.121 49.421 175.287 48.9027 176.281 47.9093L176.605 47.5854V39.9188H173.279Z" fill="#40C97F"/>
<path d="M234.87 58.6208C229.905 58.6208 225.826 56.9805 222.416 53.5918C219.049 50.2463 217.344 45.541 217.344 39.5622C217.344 33.5835 219.005 28.684 222.243 25.0363C225.524 21.3886 229.538 19.6187 234.546 19.6187C239.553 19.6187 243.374 20.8706 246.029 23.3527C248.705 25.8565 250 28.7919 250 32.3748C250 40.2745 245.532 44.1165 236.359 44.1165H229.797V45.2172C229.797 47.1814 230.402 48.5843 231.567 49.4045C232.646 50.1599 234.093 50.5053 236.035 50.5053C239.575 50.5053 242.985 49.7499 246.201 48.2821C246.244 48.3469 246.288 48.4332 246.309 48.498C247.496 50.6132 248.079 52.3615 248.079 53.7213C248.079 55.3617 247.453 55.6638 247.194 55.7718C243.978 57.6712 239.834 58.5993 234.826 58.5993L234.87 58.6208ZM234.567 29.461C233.294 29.461 232.193 29.8495 231.287 30.6265C230.315 31.4467 229.841 32.6122 229.841 34.1231V37.6844H235.215C237.568 37.6844 238.927 36.3031 238.927 33.8857C238.927 31.0798 237.352 29.461 234.567 29.461Z" fill="#40C97F"/>
<rect x="45.4717" y="26.9302" width="14.4105" height="12.6092" fill="#40C97F"/>
<path d="M44.7167 13.9706C48.2999 13.1315 52.6947 21.6369 53.3013 25.8419L42.8861 28.6515C42.7653 24.2093 41.1336 14.8097 44.7167 13.9706Z" fill="#40C97F" stroke="#40C97F" stroke-width="2.03265"/>
<path d="M45.6998 17.326C46.6695 18.1193 47.8154 20.7638 47.8154 22.8793" stroke="#26784C" stroke-width="1.05778" stroke-linecap="round"/>
<path d="M54.1623 13.259C57.2514 12.2134 61.853 19.3412 62.7465 22.9986L53.799 26.3648C53.3138 22.4567 51.0732 14.3046 54.1623 13.259Z" fill="#40C97F" stroke="#40C97F" stroke-width="1.80132"/>
<path d="M52.311 19.4416C52.5755 19.9705 53.1091 20.6011 53.3688 20.4994C54.6649 19.9914 57.0491 19.365 58.7515 19.8211" stroke="#26784C" stroke-width="1.05778" stroke-linecap="round"/>
<path d="M47.8407 31.9369C48.0139 34.7558 49.9131 36.7597 51.9073 36.6371C53.9015 36.5145 55.541 34.2932 55.3677 31.4743C55.1945 28.6554 53.2954 26.6515 51.3011 26.7741C49.3069 26.8967 47.6674 29.118 47.8407 31.9369Z" fill="white" stroke="#26784C" stroke-width="0.780129"/>
<ellipse cx="2.86047" cy="3.6406" rx="2.86047" ry="3.6406" transform="matrix(-0.998117 0.0613429 0.0613429 0.998117 54.9429 26.6805)" fill="#26784C"/>
<ellipse cx="1.17019" cy="1.43024" rx="1.17019" ry="1.43024" transform="matrix(-0.998117 0.0613429 0.0613429 0.998117 53.7089 27.7987)" fill="white"/>
<mask id="path-17-inside-1_2186_8714" fill="white">
<path fill-rule="evenodd" clip-rule="evenodd" d="M60.7133 31.554C60.4643 30.9306 60.3052 30.2382 60.2601 29.5039C60.0795 26.5653 61.7924 24.0688 64.0859 23.9279C66.3795 23.7869 68.3852 26.0549 68.5658 28.9935C68.7398 31.8242 67.1567 34.2447 64.9902 34.5446C64.7517 32.6709 63.2588 31.2735 61.5477 31.3787C61.2565 31.3966 60.9769 31.4569 60.7133 31.554Z"/>
</mask>
<path fill-rule="evenodd" clip-rule="evenodd" d="M60.7133 31.554C60.4643 30.9306 60.3052 30.2382 60.2601 29.5039C60.0795 26.5653 61.7924 24.0688 64.0859 23.9279C66.3795 23.7869 68.3852 26.0549 68.5658 28.9935C68.7398 31.8242 67.1567 34.2447 64.9902 34.5446C64.7517 32.6709 63.2588 31.2735 61.5477 31.3787C61.2565 31.3966 60.9769 31.4569 60.7133 31.554Z" fill="white"/>
<path d="M60.7133 31.554L60.983 32.286L60.2705 32.5485L59.9889 31.8434L60.7133 31.554ZM64.9902 34.5446L65.0972 35.3173L64.3159 35.4255L64.2163 34.6431L64.9902 34.5446ZM61.0387 29.4561C61.0788 30.1086 61.22 30.7193 61.4378 31.2646L59.9889 31.8434C59.7086 31.1418 59.5316 30.3678 59.4814 29.5518L61.0387 29.4561ZM64.1338 24.7065C62.4389 24.8107 60.8728 26.7568 61.0387 29.4561L59.4814 29.5518C59.2861 26.3738 61.1458 23.327 64.0381 23.1492L64.1338 24.7065ZM67.7871 29.0413C67.6212 26.3421 65.8287 24.6024 64.1338 24.7065L64.0381 23.1492C66.9303 22.9715 69.1491 25.7677 69.3444 28.9456L67.7871 29.0413ZM64.8832 33.7718C66.4988 33.5482 67.9463 31.6321 67.7871 29.0413L69.3444 28.9456C69.5332 32.0163 67.8147 34.9411 65.0972 35.3173L64.8832 33.7718ZM64.2163 34.6431C64.0195 33.0974 62.8206 32.082 61.5956 32.1573L61.4999 30.6C63.697 30.465 65.4838 32.2443 65.7641 34.4461L64.2163 34.6431ZM61.5956 32.1573C61.3815 32.1705 61.1765 32.2147 60.983 32.286L60.4436 30.8219C60.7772 30.6991 61.1315 30.6226 61.4999 30.6L61.5956 32.1573Z" fill="#26784C" mask="url(#path-17-inside-1_2186_8714)"/>
<ellipse cx="2.86047" cy="3.6406" rx="2.86047" ry="3.6406" transform="matrix(-0.998117 0.0613429 0.0613429 0.998117 67.7516 24.2237)" fill="#26784C"/>
<ellipse cx="1.17019" cy="1.43024" rx="1.17019" ry="1.43024" transform="matrix(-0.998117 0.0613429 0.0613429 0.998117 66.5176 25.3416)" fill="white"/>
<path d="M61.3667 39.044C63.7319 38.8987 65.5386 36.9796 65.402 34.7578C65.2655 32.5359 63.2374 30.8525 60.8722 30.9979" stroke="#26784C" stroke-width="0.780129"/>
<path d="M59.1059 31.9197C59.1455 32.5648 60.0492 33.0342 61.1243 32.9681C62.1994 32.902 63.0388 32.3255 62.9992 31.6805C62.9595 31.0354 62.0558 30.566 60.9807 30.6321C59.9056 30.6982 59.0662 31.2747 59.1059 31.9197Z" fill="#26784C"/>
</svg>
