<svg width="48" height="48" viewBox="0 0 48 48" fill="none" xmlns="http://www.w3.org/2000/svg">
<path d="M18.9712 10.5C18.9712 8.01472 20.9859 6 23.4712 6C25.9565 6 27.9712 8.01472 27.9712 10.5C27.9712 12.9853 25.9565 15 23.4712 15C20.9859 15 18.9712 12.9853 18.9712 10.5Z" fill="#40C97F"/>
<path d="M13.9857 22.1711C15.4315 18.5442 19.1517 15.9998 23.4717 15.9998C27.7918 15.9998 31.512 18.5442 32.9578 22.1711C33.3938 23.2648 33.105 24.3231 32.4393 25.0733C31.7897 25.8053 30.7864 26.2498 29.7217 26.2498H17.2217C16.1571 26.2498 15.1538 25.8053 14.5042 25.0733C13.8385 24.3231 13.5497 23.2648 13.9857 22.1711Z" fill="#40C97F"/>
<path fill-rule="evenodd" clip-rule="evenodd" d="M28.9717 10.5C28.9717 10.0858 29.3075 9.75 29.7217 9.75L33.4717 9.75C33.8859 9.75 34.2217 10.0858 34.2217 10.5C34.2217 10.9142 33.8859 11.25 33.4717 11.25H29.7217C29.3075 11.25 28.9717 10.9142 28.9717 10.5Z" fill="#40C97F"/>
<path fill-rule="evenodd" clip-rule="evenodd" d="M30.2212 13.6252C30.2212 13.211 30.557 12.8752 30.9712 12.8752L33.4712 12.8752C33.8854 12.8752 34.2212 13.211 34.2212 13.6252C34.2212 14.0395 33.8854 14.3752 33.4712 14.3752L30.9712 14.3752C30.557 14.3752 30.2212 14.0395 30.2212 13.6252Z" fill="#40C97F"/>
<path fill-rule="evenodd" clip-rule="evenodd" d="M31.4717 16.7498C31.4717 16.3355 31.8075 15.9998 32.2217 15.9998L33.4717 15.9998C33.8859 15.9998 34.2217 16.3355 34.2217 16.7498C34.2217 17.164 33.8859 17.4998 33.4717 17.4998L32.2217 17.4998C31.8075 17.4998 31.4717 17.164 31.4717 16.7498Z" fill="#40C97F"/>
<path d="M18.487 37.65V43.08H17.427V35.7H18.577L21.147 40.21L23.707 35.7H24.867V43.08H23.807V37.65L21.607 41.54H20.677L18.487 37.65ZM26.8932 45.16L27.9332 42.69L26.0132 38.32H27.1832L28.4932 41.48L29.7532 38.32H30.9032L29.1232 42.61L28.0532 45.16H26.8932Z" fill="#40C97F"/>
</svg>
