<svg width="48" height="48" viewBox="0 0 48 48" fill="none" xmlns="http://www.w3.org/2000/svg">
<path fill-rule="evenodd" clip-rule="evenodd" d="M23.4712 7.5C21.8143 7.5 20.4712 8.84315 20.4712 10.5C20.4712 12.1569 21.8143 13.5 23.4712 13.5C25.128 13.5 26.4712 12.1569 26.4712 10.5C26.4712 8.84315 25.128 7.5 23.4712 7.5ZM18.9712 10.5C18.9712 8.01472 20.9859 6 23.4712 6C25.9565 6 27.9712 8.01472 27.9712 10.5C27.9712 12.9853 25.9565 15 23.4712 15C20.9859 15 18.9712 12.9853 18.9712 10.5Z" fill="#AFB8C1"/>
<path fill-rule="evenodd" clip-rule="evenodd" d="M23.4717 17.4998C19.7358 17.4998 16.5867 19.6972 15.3791 22.7266C15.176 23.236 15.2939 23.7033 15.6262 24.0777C15.9746 24.4703 16.5605 24.7498 17.2217 24.7498H29.7217C30.383 24.7498 30.9689 24.4703 31.3173 24.0777C31.6496 23.7033 31.7675 23.236 31.5644 22.7266C30.3568 19.6972 27.2076 17.4998 23.4717 17.4998ZM13.9857 22.1711C15.4315 18.5442 19.1517 15.9998 23.4717 15.9998C27.7918 15.9998 31.512 18.5442 32.9578 22.1711C33.3938 23.2648 33.105 24.3231 32.4393 25.0733C31.7897 25.8053 30.7864 26.2498 29.7217 26.2498H17.2217C16.1571 26.2498 15.1538 25.8053 14.5042 25.0733C13.8385 24.3231 13.5497 23.2648 13.9857 22.1711Z" fill="#AFB8C1"/>
<path fill-rule="evenodd" clip-rule="evenodd" d="M28.9717 10.5C28.9717 10.0858 29.3075 9.75 29.7217 9.75L33.4717 9.75C33.8859 9.75 34.2217 10.0858 34.2217 10.5C34.2217 10.9142 33.8859 11.25 33.4717 11.25H29.7217C29.3075 11.25 28.9717 10.9142 28.9717 10.5Z" fill="#AFB8C1"/>
<path fill-rule="evenodd" clip-rule="evenodd" d="M30.2212 13.6252C30.2212 13.211 30.557 12.8752 30.9712 12.8752L33.4712 12.8752C33.8854 12.8752 34.2212 13.211 34.2212 13.6252C34.2212 14.0395 33.8854 14.3752 33.4712 14.3752L30.9712 14.3752C30.557 14.3752 30.2212 14.0395 30.2212 13.6252Z" fill="#AFB8C1"/>
<path fill-rule="evenodd" clip-rule="evenodd" d="M31.4717 16.7498C31.4717 16.3355 31.8075 15.9998 32.2217 15.9998L33.4717 15.9998C33.8859 15.9998 34.2217 16.3355 34.2217 16.7498C34.2217 17.164 33.8859 17.4998 33.4717 17.4998L32.2217 17.4998C31.8075 17.4998 31.4717 17.164 31.4717 16.7498Z" fill="#AFB8C1"/>
<path d="M18.6859 37.28V43H17.9659V35.78H18.6859L21.3659 40.77L24.0459 35.78H24.7759V43H24.0559V37.28L21.7259 41.63H21.0059L18.6859 37.28ZM26.9248 45.15L27.8848 42.79L26.0148 38.39H26.8048L28.2648 41.92L29.6548 38.39H30.4348L28.6948 42.7L27.7148 45.15H26.9248Z" fill="#AFB8C1"/>
</svg>
