<svg width="30" height="30" viewBox="0 0 30 30" fill="none" xmlns="http://www.w3.org/2000/svg">
<g clip-path="url(#clip0_2762_6357)">
<path fill-rule="evenodd" clip-rule="evenodd" d="M5.75 15C5.75 9.89137 9.89137 5.75 15 5.75C20.1086 5.75 24.25 9.89137 24.25 15C24.25 16.8528 23.7053 18.5783 22.7673 20.0252C21.6616 16.935 18.5516 14.7505 14.9464 14.7505C11.3827 14.7505 8.303 16.8849 7.16457 19.9184C6.26838 18.4937 5.75 16.8074 5.75 15ZM15 25.75L14.9732 25.75L14.9464 25.75C11.7667 25.75 8.90878 24.3686 6.94169 22.1756L6.72566 21.9348L6.73109 21.8698C5.18177 20.0069 4.25 17.6123 4.25 15C4.25 9.06294 9.06294 4.25 15 4.25C20.9371 4.25 25.75 9.06294 25.75 15C25.75 20.9371 20.9371 25.75 15 25.75ZM15.0001 6.75C12.86 6.75 11.125 8.48487 11.125 10.625C11.125 12.7651 12.86 14.5 15.0001 14.5C17.1403 14.5 18.8753 12.7651 18.8753 10.625C18.8753 8.48487 17.1403 6.75 15.0001 6.75Z" fill="#36393C"/>
</g>
<defs>
<clipPath id="clip0_2762_6357">
<rect width="30" height="30" fill="white"/>
</clipPath>
</defs>
</svg>
