<svg width="24" height="24" viewBox="0 0 24 24" fill="none" xmlns="http://www.w3.org/2000/svg">
<g clip-path="url(#clip0_2187_9011)">
<path fill-rule="evenodd" clip-rule="evenodd" d="M11.6001 6.59999C10.5507 6.59999 9.7 7.45068 9.7 8.49999C9.7 9.54931 10.5507 10.4 11.6001 10.4C12.6495 10.4 13.5002 9.54931 13.5002 8.49999C13.5002 7.45068 12.6495 6.59999 11.6001 6.59999ZM8.5 8.49999C8.5 6.78789 9.88799 5.39999 11.6001 5.39999C13.3122 5.39999 14.7002 6.78789 14.7002 8.49999C14.7002 10.2121 13.3122 11.6 11.6001 11.6C9.88799 11.6 8.5 10.2121 8.5 8.49999Z" fill="#36393C"/>
<path fill-rule="evenodd" clip-rule="evenodd" d="M11.6 4.59999C7.51309 4.59999 4.2 7.91309 4.2 12C4.2 16.0869 7.51309 19.4 11.6 19.4C15.6869 19.4 19 16.0869 19 12C19 7.91309 15.6869 4.59999 11.6 4.59999ZM3 12C3 7.25035 6.85035 3.39999 11.6 3.39999C16.3496 3.39999 20.2 7.25035 20.2 12C20.2 16.7496 16.3496 20.6 11.6 20.6C6.85035 20.6 3 16.7496 3 12Z" fill="#36393C"/>
<path fill-rule="evenodd" clip-rule="evenodd" d="M5.01452 17.1786C5.44699 14.1119 8.23999 11.8004 11.557 11.8004C14.8741 11.8004 17.6671 14.1119 18.0995 17.1786C18.1048 17.2157 18.1089 17.2529 18.112 17.2899L18.1336 17.5478L17.9608 17.7405C16.3871 19.4949 14.1007 20.6 11.557 20.6C9.01334 20.6 6.72696 19.4949 5.1533 17.7405L4.98047 17.5478L5.00203 17.2899C5.00512 17.2529 5.00928 17.2157 5.01452 17.1786ZM6.2361 17.1427C7.5823 18.5353 9.46832 19.4 11.557 19.4C13.6457 19.4 15.5318 18.5353 16.878 17.1427C16.4433 14.818 14.2533 13.0004 11.557 13.0004C8.86075 13.0004 6.67074 14.818 6.2361 17.1427Z" fill="#36393C"/>
</g>
<defs>
<clipPath id="clip0_2187_9011">
<rect width="24" height="24" fill="white"/>
</clipPath>
</defs>
</svg>
