<svg width="24" height="24" viewBox="0 0 24 24" fill="none" xmlns="http://www.w3.org/2000/svg">
<g clip-path="url(#clip0_2888_1306)">
<path fill-rule="evenodd" clip-rule="evenodd" d="M4.2 11.9999C4.2 7.913 7.51309 4.5999 11.6 4.5999C15.6869 4.5999 19 7.913 19 11.9999C19 13.4821 18.5642 14.8625 17.8138 16.0201C16.9293 13.5479 14.4413 11.8003 11.5571 11.8003C8.70619 11.8003 6.2424 13.5078 5.33166 15.9347C4.6147 14.7949 4.2 13.4458 4.2 11.9999ZM11.6 20.5999L11.5785 20.5999L11.5571 20.5999C9.0134 20.5999 6.72702 19.4948 5.15336 17.7404L4.98053 17.5477L4.98487 17.4957C3.74542 16.0055 3 14.0897 3 11.9999C3 7.25025 6.85035 3.3999 11.6 3.3999C16.3496 3.3999 20.2 7.25025 20.2 11.9999C20.2 16.7496 16.3496 20.5999 11.6 20.5999ZM11.6001 5.3999C9.88799 5.3999 8.5 6.7878 8.5 8.4999C8.5 10.212 9.88799 11.5999 11.6001 11.5999C13.3122 11.5999 14.7002 10.212 14.7002 8.4999C14.7002 6.7878 13.3122 5.3999 11.6001 5.3999Z" fill="#FAFAFC"/>
</g>
<defs>
<clipPath id="clip0_2888_1306">
<rect width="24" height="24" fill="white"/>
</clipPath>
</defs>
</svg>
