<svg width="312" height="169" viewBox="0 0 312 169" fill="none" xmlns="http://www.w3.org/2000/svg">
<rect width="312" height="169" fill="#F5F5F5"/>
<path d="M-112 -449C-112 -450.105 -111.105 -451 -110 -451H2012C2013.1 -451 2014 -450.105 2014 -449V1008C2014 1009.1 2013.1 1010 2012 1010H-110C-111.105 1010 -112 1009.1 -112 1008V-449Z" fill="white"/>
<path d="M-110 -450H2012V-452H-110V-450ZM2013 -449V1008H2015V-449H2013ZM2012 1009H-110V1011H2012V1009ZM-111 1008V-449H-113V1008H-111ZM-110 1009C-110.552 1009 -111 1008.55 -111 1008H-113C-113 1009.66 -111.657 1011 -110 1011V1009ZM2013 1008C2013 1008.55 2012.55 1009 2012 1009V1011C2013.66 1011 2015 1009.66 2015 1008H2013ZM2012 -450C2012.55 -450 2013 -449.552 2013 -449H2015C2015 -450.657 2013.66 -452 2012 -452V-450ZM-110 -452C-111.657 -452 -113 -450.657 -113 -449H-111C-111 -449.552 -110.552 -450 -110 -450V-452Z" fill="black" fill-opacity="0.1"/>
<rect width="312" height="169" rx="16" fill="#D9F4E5"/>
<ellipse cx="235.291" cy="144.032" rx="55.8392" ry="13.5714" fill="white"/>
<rect x="121.592" y="101.802" width="52.3362" height="46.2592" rx="5.5" fill="#ECFAF2" stroke="#33A165" stroke-width="3"/>
<rect x="132.659" y="97.7803" width="30.2017" height="4.03703" rx="2.01852" fill="#ECFAF2" stroke="#33A165" stroke-width="3"/>
<rect x="124.61" y="85.7168" width="46.2995" height="12.0794" rx="5.5" fill="#ECFAF2" stroke="#33A165" stroke-width="3"/>
<path d="M287.994 113.329C284.237 131.866 266.716 143.886 248.931 140.288C231.146 136.689 219.685 118.806 223.441 100.269C227.198 81.7318 244.719 69.7118 262.504 73.3099C280.289 76.9081 291.75 94.7918 287.994 113.329Z" fill="#40C97F" stroke="#195033" stroke-width="2.50715"/>
<path fill-rule="evenodd" clip-rule="evenodd" d="M223.801 82.2434C224.775 77.4403 228.375 68.4035 237.266 60.794C249.769 50.0935 256.786 48.9317 258.832 49.991C260.878 51.0503 264.35 53.0434 257.176 67.7264C256.053 69.9895 254.134 72.0472 252.775 73.3153C253.203 73.3849 253.63 73.463 254.058 73.5495C255.417 73.8245 256.741 74.1778 258.026 74.6043C263.546 69.7619 273.565 63.6105 287.311 62.4457C308.67 60.6358 294.279 82.2484 288.864 88.2519C285.21 92.3029 282.481 94.9646 280.049 97.233C281.89 103.009 282.324 109.367 281.023 115.791C277.068 135.307 258.583 148.037 239.736 144.224C220.889 140.411 208.817 121.499 212.772 101.983C214.375 94.071 218.366 87.2746 223.801 82.2434Z" fill="url(#paint0_linear_1324_13743)"/>
<path d="M237.266 60.794L238.081 61.7462L237.266 60.794ZM223.801 82.2434L224.653 83.1631C224.846 82.9845 224.978 82.7497 225.03 82.492L223.801 82.2434ZM258.832 49.991L258.256 51.1042L258.256 51.1042L258.832 49.991ZM257.176 67.7264L258.299 68.2833L258.302 68.2763L257.176 67.7264ZM252.775 73.3153L251.92 72.3991C251.57 72.7254 251.437 73.222 251.576 73.6795C251.714 74.137 252.101 74.4756 252.573 74.5525L252.775 73.3153ZM258.026 74.6043L257.63 75.794C258.053 75.9341 258.518 75.8399 258.852 75.5465L258.026 74.6043ZM287.311 62.4457L287.206 61.1966L287.311 62.4457ZM288.864 88.2519L287.933 87.4126L288.864 88.2519ZM280.049 97.233L279.194 96.3165C278.839 96.6471 278.707 97.1523 278.854 97.6139L280.049 97.233ZM236.451 59.8419C227.32 67.6567 223.594 76.9554 222.573 81.9948L225.03 82.492C225.955 77.9252 229.43 69.1503 238.081 61.7462L236.451 59.8419ZM259.409 48.8779C258.587 48.4521 257.48 48.341 256.219 48.4815C254.93 48.6253 253.352 49.0456 251.487 49.8263C247.756 51.3878 242.766 54.4376 236.451 59.8419L238.081 61.7462C244.27 56.4499 249.039 53.5685 252.454 52.1388C254.162 51.4239 255.504 51.0837 256.496 50.9731C257.517 50.8593 258.055 51.0003 258.256 51.1042L259.409 48.8779ZM258.302 68.2763C261.902 60.9084 262.971 56.4692 262.71 53.6346C262.575 52.1624 262.079 51.0966 261.384 50.3127C260.714 49.5573 259.925 49.1449 259.409 48.8779L258.256 51.1042C258.763 51.3668 259.175 51.6008 259.507 51.9759C259.814 52.3224 260.122 52.8712 260.213 53.865C260.406 55.9626 259.624 59.8614 256.05 67.1764L258.302 68.2763ZM253.631 74.2315C255.028 72.9272 257.076 70.7473 258.299 68.2833L256.053 67.1694C255.03 69.2317 253.24 71.1672 251.92 72.3991L253.631 74.2315ZM252.573 74.5525C252.985 74.6195 253.397 74.6947 253.809 74.7781L254.307 72.3209C253.864 72.2312 253.42 72.1503 252.977 72.0781L252.573 74.5525ZM253.809 74.7781C255.118 75.043 256.393 75.3834 257.63 75.794L258.421 73.4146C257.088 72.9723 255.716 72.6059 254.307 72.3209L253.809 74.7781ZM258.852 75.5465C264.218 70.8397 273.994 64.8321 287.417 63.6947L287.206 61.1966C273.137 62.3888 262.874 68.6841 257.199 73.6621L258.852 75.5465ZM287.417 63.6947C292.641 63.252 295.203 64.2941 296.367 65.6773C297.529 67.0581 297.688 69.2447 296.918 72.0915C296.161 74.8855 294.593 77.9739 292.846 80.7682C291.105 83.5535 289.234 85.9705 287.933 87.4126L289.795 89.0913C291.201 87.5315 293.16 84.9957 294.972 82.0967C296.779 79.2067 298.489 75.8794 299.338 72.746C300.172 69.6655 300.263 66.413 298.285 64.0629C296.31 61.7152 292.661 60.7344 287.206 61.1966L287.417 63.6947ZM287.933 87.4126C284.308 91.4319 281.605 94.0678 279.194 96.3165L280.904 98.1495C283.357 95.8613 286.112 93.1739 289.795 89.0913L287.933 87.4126ZM278.854 97.6139C280.632 103.19 281.053 109.332 279.794 115.543L282.251 116.04C283.596 109.403 283.148 102.828 281.243 96.8521L278.854 97.6139ZM279.794 115.543C275.968 134.421 258.113 146.663 239.985 142.996L239.487 145.453C259.053 149.411 278.167 136.194 282.251 116.04L279.794 115.543ZM239.985 142.996C221.857 139.328 210.175 121.11 214.001 102.231L211.543 101.734C207.459 121.888 219.922 141.495 239.487 145.453L239.985 142.996ZM214.001 102.231C215.551 94.5826 219.407 88.0194 224.653 83.1631L222.95 81.3237C217.326 86.5298 213.2 93.5594 211.543 101.734L214.001 102.231Z" fill="#195033"/>
<path d="M257.461 75.5142L258.673 75.8344L259.314 73.4105L258.102 73.0904L257.461 75.5142ZM240.972 72.9218C240.295 73.0677 239.864 73.7346 240.01 74.4114C240.156 75.0881 240.823 75.5184 241.5 75.3725L240.972 72.9218ZM258.102 73.0904C252.694 71.6617 248.025 71.401 240.972 72.9218L241.5 75.3725C248.178 73.9327 252.446 74.1893 257.461 75.5142L258.102 73.0904Z" fill="#195033"/>
<path d="M264.785 80.9406C268.898 78.3616 277.968 74.9971 279.762 75.0393C279.865 75.0417 279.964 75.051 280.066 75.0497C281.387 75.0335 283.464 75.5488 282.265 77.7888C281.146 79.8792 276.668 85.4486 273.917 88.7613C273.45 89.3236 272.605 89.363 272.074 88.8616C270.175 87.0698 267.243 84.4835 264.897 82.9365C264.163 82.4526 264.04 81.4078 264.785 80.9406Z" fill="#40C97F"/>
<mask id="path-13-inside-1_1324_13743" fill="white">
<path fill-rule="evenodd" clip-rule="evenodd" d="M236.023 107.548C236.833 106.13 237.449 104.515 237.804 102.762C239.227 95.7426 235.935 89.1534 230.452 88.0441C224.97 86.9349 219.372 91.7257 217.949 98.7447C216.579 105.506 219.583 111.869 224.706 113.318C225.911 108.884 229.98 106.018 234.07 106.846C234.766 106.987 235.42 107.226 236.023 107.548Z"/>
</mask>
<path fill-rule="evenodd" clip-rule="evenodd" d="M236.023 107.548C236.833 106.13 237.449 104.515 237.804 102.762C239.227 95.7426 235.935 89.1534 230.452 88.0441C224.97 86.9349 219.372 91.7257 217.949 98.7447C216.579 105.506 219.583 111.869 224.706 113.318C225.911 108.884 229.98 106.018 234.07 106.846C234.766 106.987 235.42 107.226 236.023 107.548Z" fill="white"/>
<path d="M236.023 107.548L235.136 109.206L236.749 110.069L237.656 108.48L236.023 107.548ZM224.706 113.318L224.194 115.127L226.023 115.645L226.521 113.81L224.706 113.318ZM235.961 102.389C235.645 103.949 235.099 105.375 234.39 106.617L237.656 108.48C238.566 106.886 239.253 105.082 239.647 103.135L235.961 102.389ZM230.079 89.887C234.146 90.7098 237.268 95.9377 235.961 102.389L239.647 103.135C241.185 95.5476 237.724 87.5969 230.826 86.2012L230.079 89.887ZM219.792 99.1176C221.1 92.6665 226.012 89.0642 230.079 89.887L230.826 86.2012C223.927 84.8055 217.644 90.7849 216.106 98.3718L219.792 99.1176ZM225.219 111.509C221.385 110.424 218.538 105.31 219.792 99.1176L216.106 98.3718C214.621 105.702 217.782 113.313 224.194 115.127L225.219 111.509ZM226.521 113.81C227.516 110.147 230.755 108.094 233.696 108.689L234.443 105.003C229.204 103.943 224.305 107.621 222.892 112.826L226.521 113.81ZM233.696 108.689C234.21 108.793 234.691 108.969 235.136 109.206L236.91 105.89C236.149 105.483 235.322 105.181 234.443 105.003L233.696 108.689Z" fill="#195033" mask="url(#path-13-inside-1_1324_13743)"/>
<path d="M281.308 74.5447C279.757 74.2309 267.517 78.8536 264.717 81.514" stroke="#195033" stroke-width="2.50715" stroke-linecap="round"/>
<ellipse cx="6.96336" cy="8.85578" rx="6.96336" ry="8.85578" transform="matrix(0.980142 0.198299 -0.198611 0.980078 221.515 87.5264)" fill="#195033"/>
<path d="M267.906 108.852C266.541 115.587 261.286 119.783 256.511 118.817C251.736 117.851 248.529 111.943 249.894 105.208C251.259 98.4724 256.514 94.2759 261.289 95.2419C266.063 96.208 269.27 102.117 267.906 108.852Z" fill="white" stroke="#195033" stroke-width="1.88036"/>
<ellipse cx="6.96336" cy="8.85578" rx="6.96336" ry="8.85578" transform="matrix(0.980142 0.198299 -0.198611 0.980078 252.538 93.8032)" fill="#195033"/>
<ellipse cx="2.84865" cy="3.47906" rx="2.84865" ry="3.47906" transform="matrix(0.980142 0.198299 -0.198611 0.980078 255.137 96.9106)" fill="white"/>
<ellipse cx="2.84865" cy="3.47906" rx="2.84865" ry="3.47906" transform="matrix(0.980142 0.198299 -0.198611 0.980078 224.115 90.6338)" fill="white"/>
<path d="M232.783 125.948C227.129 124.804 223.417 119.574 224.493 114.267C225.568 108.96 231.023 105.585 236.678 106.729" stroke="#195033" stroke-width="1.88036"/>
<path d="M239.776 108.969C239.464 110.51 237.127 111.337 234.557 110.817C231.987 110.297 230.157 108.627 230.469 107.086C230.782 105.545 233.118 104.718 235.688 105.238C238.258 105.758 240.088 107.428 239.776 108.969Z" fill="#195033"/>
<mask id="path-23-inside-2_1324_13743" fill="white">
<path fill-rule="evenodd" clip-rule="evenodd" d="M164.936 119.573C160.747 114.759 156.167 107.471 161.842 105.639C167.38 103.85 174.514 107.392 178.762 110.316C178.702 110.184 178.638 110.044 178.572 109.898C177.398 107.295 175.155 101.366 178.588 99.5747C181.937 97.8278 191.287 103.802 194.809 110.194C194.81 110.195 194.811 110.196 194.811 110.198C197.298 109.979 199.653 110.578 201.396 112.07C204.444 114.68 204.718 119.248 202.449 123.366C206.659 125.465 209.033 129.379 208.01 133.257C206.973 137.19 202.756 139.902 197.801 140.231C197.934 144.931 195.363 149.164 191.177 150.469C186.983 151.776 182.451 149.745 179.889 145.789C175.606 148.383 170.547 148.568 167.435 145.903C164.387 143.294 164.112 138.726 166.382 134.607C162.171 132.508 159.798 128.595 160.821 124.717C161.384 122.58 162.886 120.803 164.936 119.573Z"/>
</mask>
<path fill-rule="evenodd" clip-rule="evenodd" d="M164.936 119.573C160.747 114.759 156.167 107.471 161.842 105.639C167.38 103.85 174.514 107.392 178.762 110.316C178.702 110.184 178.638 110.044 178.572 109.898C177.398 107.295 175.155 101.366 178.588 99.5747C181.937 97.8278 191.287 103.802 194.809 110.194C194.81 110.195 194.811 110.196 194.811 110.198C197.298 109.979 199.653 110.578 201.396 112.07C204.444 114.68 204.718 119.248 202.449 123.366C206.659 125.465 209.033 129.379 208.01 133.257C206.973 137.19 202.756 139.902 197.801 140.231C197.934 144.931 195.363 149.164 191.177 150.469C186.983 151.776 182.451 149.745 179.889 145.789C175.606 148.383 170.547 148.568 167.435 145.903C164.387 143.294 164.112 138.726 166.382 134.607C162.171 132.508 159.798 128.595 160.821 124.717C161.384 122.58 162.886 120.803 164.936 119.573Z" fill="url(#paint1_linear_1324_13743)"/>
<path d="M161.842 105.639L161.122 103.412L161.122 103.412L161.842 105.639ZM164.936 119.573L166.701 118.038C167.156 118.56 167.355 119.256 167.247 119.94C167.139 120.623 166.734 121.224 166.14 121.58L164.936 119.573ZM178.762 110.316L180.889 109.339C181.329 110.296 181.075 111.429 180.269 112.107C179.463 112.785 178.304 112.841 177.436 112.244L178.762 110.316ZM178.572 109.898L176.438 110.859L176.438 110.859L178.572 109.898ZM178.588 99.5747L179.671 101.649L179.671 101.649L178.588 99.5747ZM194.809 110.194L196.859 109.065L196.859 109.066L194.809 110.194ZM194.811 110.198L195.017 112.529C194.089 112.61 193.202 112.134 192.756 111.316L194.811 110.198ZM201.396 112.07L199.874 113.848L199.874 113.847L201.396 112.07ZM202.449 123.366L201.405 125.46C200.835 125.176 200.405 124.671 200.215 124.063C200.025 123.454 200.092 122.795 200.399 122.237L202.449 123.366ZM208.01 133.257L205.747 132.66L205.747 132.66L208.01 133.257ZM197.801 140.231L195.461 140.297C195.426 139.04 196.39 137.98 197.645 137.896L197.801 140.231ZM191.177 150.469L191.873 152.703L191.177 150.469ZM179.889 145.789L178.676 143.787C179.758 143.132 181.165 143.455 181.853 144.517L179.889 145.789ZM167.435 145.903L168.956 144.126L168.957 144.126L167.435 145.903ZM166.382 134.607L167.426 132.513C167.996 132.798 168.426 133.302 168.616 133.911C168.806 134.519 168.739 135.179 168.432 135.737L166.382 134.607ZM160.821 124.717L163.083 125.314L163.083 125.314L160.821 124.717ZM162.562 107.865C161.724 108.136 161.626 108.444 161.585 108.582C161.49 108.899 161.483 109.564 161.891 110.693C162.698 112.927 164.656 115.687 166.701 118.038L163.17 121.109C161.027 118.646 158.6 115.354 157.489 112.283C156.938 110.758 156.588 108.957 157.1 107.242C157.665 105.347 159.122 104.058 161.122 103.412L162.562 107.865ZM177.436 112.244C175.431 110.864 172.778 109.364 170.03 108.425C167.242 107.472 164.643 107.193 162.562 107.865L161.122 103.412C164.579 102.295 168.316 102.894 171.542 103.996C174.808 105.112 177.845 106.845 180.089 108.389L177.436 112.244ZM180.705 108.936C180.769 109.078 180.83 109.213 180.889 109.339L176.636 111.293C176.573 111.155 176.507 111.01 176.438 110.859L180.705 108.936ZM179.671 101.649C179.372 101.806 178.919 102.271 179.171 104.115C179.402 105.801 180.141 107.684 180.705 108.936L176.438 110.859C175.829 109.508 174.86 107.125 174.534 104.749C174.23 102.529 174.372 99.1348 177.505 97.5L179.671 101.649ZM192.76 111.323C191.233 108.552 188.329 105.722 185.36 103.795C183.887 102.84 182.502 102.174 181.378 101.842C180.818 101.677 180.382 101.612 180.068 101.607C179.751 101.602 179.651 101.66 179.671 101.649L177.505 97.5C179.167 96.6333 181.128 96.8888 182.703 97.3541C184.384 97.8507 186.184 98.7511 187.907 99.8696C191.331 102.091 194.863 105.444 196.859 109.065L192.76 111.323ZM192.756 111.316C192.758 111.319 192.759 111.321 192.759 111.322L196.859 109.066C196.861 109.069 196.863 109.073 196.866 109.079L192.756 111.316ZM199.874 113.847C198.708 112.849 197.02 112.353 195.017 112.529L194.606 107.866C197.576 107.606 200.597 108.306 202.918 110.293L199.874 113.847ZM200.399 122.237C202.331 118.731 201.803 115.499 199.874 113.848L202.918 110.293C207.085 113.86 207.106 119.764 204.499 124.496L200.399 122.237ZM205.747 132.66C206.394 130.206 204.99 127.247 201.405 125.46L203.493 121.272C208.329 123.683 211.672 128.551 210.273 133.854L205.747 132.66ZM197.645 137.896C202 137.607 205.056 135.281 205.747 132.66L210.273 133.854C208.89 139.099 203.513 142.197 197.956 142.566L197.645 137.896ZM190.48 148.234C193.47 147.302 195.571 144.168 195.461 140.297L200.14 140.165C200.297 145.694 197.256 151.025 191.873 152.703L190.48 148.234ZM181.853 144.517C183.964 147.776 187.483 149.168 190.48 148.234L191.873 152.703C186.482 154.383 180.938 151.713 177.924 147.06L181.853 144.517ZM168.957 144.126C171.031 145.903 174.91 146.068 178.676 143.787L181.102 147.79C176.302 150.697 170.062 151.233 165.913 147.681L168.957 144.126ZM168.432 135.737C166.5 139.243 167.027 142.475 168.956 144.126L165.913 147.681C161.746 144.113 161.725 138.209 164.332 133.478L168.432 135.737ZM163.083 125.314C162.436 127.768 163.841 130.726 167.426 132.513L165.338 136.702C160.502 134.291 157.159 129.422 158.558 124.119L163.083 125.314ZM166.14 121.58C164.5 122.564 163.46 123.884 163.083 125.314L158.558 124.119C159.307 121.275 161.273 119.042 163.731 117.567L166.14 121.58Z" fill="#0D2819" mask="url(#path-23-inside-2_1324_13743)"/>
<path d="M179.21 111.66C179.911 111.262 182.426 110.645 186.869 111.368" stroke="#0D2819" stroke-width="1.87211" stroke-linecap="round"/>
<path d="M171.822 129.955C172.524 133.849 175.481 136.261 178.162 135.779C180.844 135.296 182.772 132.004 182.07 128.11C181.368 124.216 178.411 121.803 175.729 122.286C173.048 122.768 171.119 126.061 171.822 129.955Z" fill="white" stroke="#0D2819" stroke-width="1.40408"/>
<path d="M173.858 127.908C174.33 130.524 176.407 132.251 178.421 131.888C180.435 131.526 181.778 129.183 181.307 126.567C180.835 123.951 178.758 122.225 176.744 122.587C174.73 122.95 173.387 125.292 173.858 127.908Z" fill="#0D2819" stroke="#0D2819" stroke-width="0.468028"/>
<ellipse cx="1.65443" cy="1.88933" rx="1.65443" ry="1.88933" transform="matrix(-0.984179 0.177179 0.17746 0.984128 178.963 122.91)" fill="white"/>
<path d="M188.972 125.907C189.675 129.801 192.632 132.214 195.313 131.731C197.995 131.249 199.923 127.956 199.221 124.062C198.519 120.168 195.562 117.756 192.88 118.238C190.199 118.721 188.27 122.013 188.972 125.907Z" fill="white" stroke="#0D2819" stroke-width="1.40408"/>
<path d="M191.01 123.861C191.482 126.477 193.559 128.203 195.572 127.841C197.586 127.478 198.93 125.136 198.458 122.52C197.986 119.904 195.909 118.177 193.895 118.54C191.882 118.902 190.538 121.245 191.01 123.861Z" fill="#0D2819" stroke="#0D2819" stroke-width="0.468028"/>
<ellipse cx="1.65443" cy="1.88933" rx="1.65443" ry="1.88933" transform="matrix(-0.984179 0.177179 0.17746 0.984128 196.115 118.862)" fill="white"/>
<ellipse cx="2.71961" cy="2.40301" rx="2.71961" ry="2.40301" transform="matrix(-0.984179 0.177179 0.17746 0.984128 192.039 127.108)" fill="#0D2819"/>
<path d="M148.263 146.545C148.263 142.659 151.413 139.508 155.3 139.508H166.373V153.582H155.3C151.413 153.582 148.263 150.431 148.263 146.545Z" fill="#33A165" stroke="#26784C" stroke-width="2"/>
<path d="M183.477 146.545C183.477 142.659 180.326 139.508 176.44 139.508H166.373V153.582H176.44C180.326 153.582 183.477 150.431 183.477 146.545Z" fill="white" stroke="#26784C" stroke-width="2"/>
<path d="M177.203 156.19C176.222 152.429 178.477 148.587 182.238 147.608L192.953 144.82L196.503 158.44L185.788 161.228C182.027 162.207 178.183 159.951 177.203 156.19Z" fill="#66D498" stroke="#26784C" stroke-width="2"/>
<path d="M211.28 147.323C210.3 143.562 206.456 141.307 202.695 142.285L192.953 144.82L196.503 158.44L206.244 155.905C210.006 154.926 212.26 151.084 211.28 147.323Z" fill="white" stroke="#26784C" stroke-width="2"/>
<path d="M289.757 147.142C290.737 143.381 288.483 139.539 284.721 138.56L274.006 135.772L270.457 149.392L281.172 152.18C284.933 153.159 288.777 150.903 289.757 147.142Z" fill="#66D498" stroke="#26784C" stroke-width="2"/>
<path d="M255.679 138.275C256.659 134.514 260.503 132.259 264.265 133.237L274.006 135.772L270.456 149.392L260.715 146.857C256.954 145.879 254.699 142.036 255.679 138.275Z" fill="white" stroke="#26784C" stroke-width="2"/>
<path d="M188.895 84.1425C188.662 83.8018 188.662 83.3525 188.895 83.0118L192.098 78.3457C192.488 77.7767 193.325 77.7647 193.731 78.3225L197.133 82.9886C197.389 83.3394 197.389 83.8149 197.133 84.1657L193.731 88.8318C193.325 89.3896 192.488 89.3776 192.098 88.8086L188.895 84.1425Z" fill="#40C97F"/>
<path d="M197.282 92.0717C197.049 91.731 197.049 91.2817 197.282 90.941L199.027 88.3993C199.417 87.8302 200.254 87.8183 200.66 88.376L202.513 90.9178C202.769 91.2686 202.769 91.7441 202.513 92.0949L200.66 94.6367C200.254 95.1944 199.417 95.1825 199.027 94.6134L197.282 92.0717Z" fill="#40C97F"/>
<rect x="106" y="121.407" width="28.1834" height="32.1799" rx="4" fill="#B2E9CC" stroke="#26784C" stroke-width="2"/>
<path d="M106 125.407C106 123.198 107.791 121.407 110 121.407H130.183C132.393 121.407 134.183 123.198 134.183 125.407V129.46H106V125.407Z" fill="#66D498" stroke="#26784C" stroke-width="2"/>
<defs>
<linearGradient id="paint0_linear_1324_13743" x1="263.588" y1="50.8628" x2="244.504" y2="145.189" gradientUnits="userSpaceOnUse">
<stop stop-color="#F3FFC4"/>
<stop offset="1" stop-color="#E6FF86"/>
</linearGradient>
<linearGradient id="paint1_linear_1324_13743" x1="179.075" y1="99.373" x2="188.377" y2="151.041" gradientUnits="userSpaceOnUse">
<stop stop-color="#5B6168"/>
<stop offset="1" stop-color="#36393C"/>
</linearGradient>
</defs>
</svg>
