<svg width="360" height="800" viewBox="0 0 360 800" fill="none" xmlns="http://www.w3.org/2000/svg">
<rect width="360" height="800" fill="#FAFAFC"/>
<path opacity="0.35" d="M318.5 19.0006C318.5 17.804 319.47 16.834 320.667 16.834H337.333C338.53 16.834 339.5 17.804 339.5 19.0007V25.0007C339.5 26.1973 338.53 27.1673 337.333 27.1673H320.667C319.47 27.1673 318.5 26.1973 318.5 25.0007V19.0006Z" stroke="#191F28"/>
<path opacity="0.4" d="M341 20.001V24.001C341.805 23.6622 342.328 22.8741 342.328 22.001C342.328 21.1278 341.805 20.3398 341 20.001Z" fill="#191F28"/>
<path d="M320 19.434C320 18.8265 320.492 18.334 321.1 18.334H336.9C337.508 18.334 338 18.8265 338 19.434V24.5673C338 25.1748 337.508 25.6673 336.9 25.6673H321.1C320.492 25.6673 320 25.1748 320 24.5673V19.434Z" fill="#191F28"/>
<path fill-rule="evenodd" clip-rule="evenodd" d="M305.33 18.6084C307.546 18.6085 309.678 19.4599 311.283 20.9867C311.404 21.1046 311.598 21.1031 311.717 20.9834L312.873 19.8167C312.933 19.756 312.967 19.6737 312.966 19.5882C312.966 19.5026 312.931 19.4207 312.87 19.3607C308.655 15.3212 302.005 15.3212 297.79 19.3607C297.729 19.4207 297.694 19.5025 297.694 19.5881C297.693 19.6737 297.727 19.7559 297.787 19.8167L298.943 20.9834C299.062 21.1033 299.256 21.1048 299.377 20.9867C300.983 19.4598 303.114 18.6084 305.33 18.6084ZM305.33 22.404C306.548 22.404 307.722 22.8565 308.624 23.6737C308.747 23.7897 308.939 23.7872 309.058 23.668L310.212 22.5014C310.273 22.4402 310.307 22.3572 310.306 22.2709C310.305 22.1846 310.27 22.1023 310.208 22.0424C307.46 19.486 303.204 19.486 300.455 22.0424C300.393 22.1023 300.358 22.1847 300.357 22.271C300.356 22.3573 300.39 22.4403 300.451 22.5014L301.605 23.668C301.724 23.7872 301.917 23.7897 302.039 23.6737C302.941 22.857 304.114 22.4046 305.33 22.404ZM307.643 24.9579C307.645 25.0444 307.611 25.1278 307.549 25.1884L305.552 27.204C305.494 27.2633 305.414 27.2966 305.33 27.2966C305.247 27.2966 305.167 27.2633 305.109 27.204L303.111 25.1884C303.049 25.1277 303.015 25.0443 303.017 24.9578C303.019 24.8713 303.057 24.7894 303.121 24.7314C304.396 23.6525 306.265 23.6525 307.54 24.7314C307.604 24.7894 307.642 24.8714 307.643 24.9579Z" fill="#191F28"/>
<path fill-rule="evenodd" clip-rule="evenodd" d="M291.667 16.667H290.667C290.115 16.667 289.667 17.1147 289.667 17.667V26.3337C289.667 26.8859 290.115 27.3337 290.667 27.3337H291.667C292.219 27.3337 292.667 26.8859 292.667 26.3337V17.667C292.667 17.1147 292.219 16.667 291.667 16.667ZM286 19.0003H287C287.553 19.0003 288 19.448 288 20.0003V26.3337C288 26.8859 287.553 27.3337 287 27.3337H286C285.448 27.3337 285 26.8859 285 26.3337V20.0003C285 19.448 285.448 19.0003 286 19.0003ZM282.334 21.3337H281.334C280.781 21.3337 280.334 21.7814 280.334 22.3337V26.3337C280.334 26.8859 280.781 27.3337 281.334 27.3337H282.334C282.886 27.3337 283.334 26.8859 283.334 26.3337V22.3337C283.334 21.7814 282.886 21.3337 282.334 21.3337ZM277.667 23.3337H276.667C276.115 23.3337 275.667 23.7814 275.667 24.3337V26.3337C275.667 26.8859 276.115 27.3337 276.667 27.3337H277.667C278.219 27.3337 278.667 26.8859 278.667 26.3337V24.3337C278.667 23.7814 278.219 23.3337 277.667 23.3337Z" fill="#191F28"/>
<path d="M35.9165 17.265C35.2365 17.265 34.6815 17.485 34.2515 17.925C33.8215 18.365 33.6065 18.935 33.6065 19.635C33.6065 20.335 33.8215 20.905 34.2515 21.345C34.6815 21.785 35.2365 22.005 35.9165 22.005C36.5765 22.005 37.1165 21.785 37.5365 21.345C37.9665 20.905 38.1815 20.335 38.1815 19.635C38.1815 18.935 37.9665 18.365 37.5365 17.925C37.1165 17.485 36.5765 17.265 35.9165 17.265ZM32.1815 19.635C32.1815 18.935 32.3365 18.31 32.6465 17.76C32.9665 17.21 33.4065 16.785 33.9665 16.485C34.5265 16.175 35.1665 16.02 35.8865 16.02C36.6065 16.02 37.2465 16.175 37.8065 16.485C38.3765 16.785 38.8165 17.21 39.1265 17.76C39.4465 18.31 39.6065 18.935 39.6065 19.635C39.6065 20.295 39.4115 20.98 39.0215 21.69L35.9915 27.045H34.3565L36.5615 23.175C36.3115 23.225 36.0815 23.25 35.8715 23.25C35.1515 23.25 34.5115 23.095 33.9515 22.785C33.3915 22.475 32.9565 22.05 32.6465 21.51C32.3365 20.96 32.1815 20.335 32.1815 19.635ZM42.0717 18.225C42.3117 18.225 42.5067 18.3 42.6567 18.45C42.8067 18.6 42.8817 18.795 42.8817 19.035C42.8817 19.275 42.8067 19.475 42.6567 19.635C42.5067 19.785 42.3117 19.86 42.0717 19.86C41.8417 19.86 41.6467 19.785 41.4867 19.635C41.3367 19.475 41.2617 19.275 41.2617 19.035C41.2617 18.795 41.3367 18.6 41.4867 18.45C41.6467 18.3 41.8417 18.225 42.0717 18.225ZM41.2617 24.075C41.2617 23.845 41.3367 23.655 41.4867 23.505C41.6467 23.345 41.8417 23.265 42.0717 23.265C42.3117 23.265 42.5067 23.345 42.6567 23.505C42.8067 23.655 42.8817 23.845 42.8817 24.075C42.8817 24.315 42.8067 24.515 42.6567 24.675C42.5067 24.825 42.3117 24.9 42.0717 24.9C41.8417 24.9 41.6467 24.825 41.4867 24.675C41.3367 24.515 41.2617 24.315 41.2617 24.075ZM50.8112 22.89H52.2662V24.135H50.8112V27.03H49.3862V24.135H44.6762L44.5262 22.89L49.4462 16.14H50.8112V22.89ZM49.3862 22.89V18.54L46.2362 22.89H49.3862ZM57.0937 27.03L55.6687 27.015V17.7L53.8387 18.795L53.1937 17.625L55.6837 16.155H57.0937V27.03Z" fill="#191F28"/>
<path d="M34.066 510.786V514.51H35.886V515.378H34.066V519.76H33.016V510.786H34.066ZM25.106 511.654H26.142V513.74H29.712V511.654H30.748V517.702H25.106V511.654ZM29.712 516.848V514.566H26.142V516.848H29.712ZM26.478 518.906H27.514V521.874H34.626V522.742H26.478V518.906ZM46.8343 510.758V523.036H45.7983V517.8H43.2503V516.946H45.7983V514.454H43.3343V513.586H45.7983V510.758H46.8343ZM37.2163 511.892H42.5503V516.232H38.2803V519.284C39.279 519.284 40.1797 519.261 40.9823 519.214C41.785 519.158 42.625 519.06 43.5023 518.92L43.6003 519.802C42.695 519.942 41.8317 520.04 41.0103 520.096C40.189 520.143 39.237 520.166 38.1543 520.166H37.2443V515.364H41.5143V512.76H37.2163V511.892ZM59.0987 510.772V519.9H58.0347V516.932H54.7447V516.064H58.0347V514.174H54.9127C54.4927 515.135 53.83 515.98 52.9247 516.708C52.0287 517.427 50.9507 517.996 49.6907 518.416L49.2287 517.562C50.6847 517.086 51.8607 516.414 52.7567 515.546C53.662 514.678 54.1707 513.693 54.2827 512.592H49.8447V511.738H55.4167C55.4167 512.261 55.3513 512.783 55.2207 513.306H58.0347V510.772H59.0987ZM51.3707 519.018H52.4347V521.874H59.3927V522.742H51.3707V519.018ZM73.4975 513.978V510.772H74.5475V518.066H73.4975V514.846H71.0055V513.978H73.4975ZM64.5515 517.114C65.1489 516.899 65.6809 516.582 66.1475 516.162C66.6142 515.742 66.9782 515.261 67.2395 514.72C67.5102 514.169 67.6455 513.605 67.6455 513.026V512.55H64.8735V511.682H71.4115V512.55H68.6955V513.026C68.6955 513.549 68.8215 514.062 69.0735 514.566C69.3255 515.061 69.6802 515.499 70.1375 515.882C70.5949 516.265 71.1129 516.559 71.6915 516.764L71.1455 517.604C70.4642 517.352 69.8669 516.983 69.3535 516.498C68.8402 516.003 68.4529 515.434 68.1915 514.79C67.9302 515.518 67.5289 516.157 66.9875 516.708C66.4462 517.259 65.8115 517.674 65.0835 517.954L64.5515 517.114ZM66.4555 520.74C66.4555 520.031 66.8149 519.475 67.5335 519.074C68.2615 518.663 69.2602 518.458 70.5295 518.458C71.7895 518.458 72.7789 518.663 73.4975 519.074C74.2255 519.475 74.5895 520.031 74.5895 520.74C74.5895 521.459 74.2302 522.014 73.5115 522.406C72.7929 522.807 71.7989 523.008 70.5295 523.008C69.2602 523.008 68.2615 522.807 67.5335 522.406C66.8149 522.014 66.4555 521.459 66.4555 520.74ZM67.5055 520.74C67.5055 521.188 67.7715 521.543 68.3035 521.804C68.8449 522.056 69.5869 522.182 70.5295 522.182C71.4629 522.182 72.2002 522.056 72.7415 521.804C73.2829 521.543 73.5535 521.188 73.5535 520.74C73.5535 520.283 73.2829 519.928 72.7415 519.676C72.2002 519.415 71.4629 519.284 70.5295 519.284C69.5869 519.284 68.8449 519.415 68.3035 519.676C67.7715 519.928 67.5055 520.283 67.5055 520.74ZM81.7439 520.558V517.884H78.0619V511.64H79.0979V513.852H85.4539V511.64H86.4899V517.884H82.7799V520.558H87.8339V521.44H76.7319V520.558H81.7439ZM85.4539 517.03V514.72H79.0979V517.03H85.4539ZM98.2848 511.22V511.92C98.2848 512.48 98.4994 513.012 98.9288 513.516C99.3581 514.02 99.9134 514.445 100.595 514.79C101.276 515.135 101.981 515.364 102.709 515.476L102.275 516.316C101.304 516.148 100.403 515.807 99.5728 515.294C98.7421 514.781 98.1354 514.16 97.7528 513.432C97.3794 514.169 96.7728 514.795 95.9328 515.308C95.1021 515.812 94.1921 516.148 93.2028 516.316L92.7688 515.476C93.5061 515.364 94.2154 515.14 94.8968 514.804C95.5781 514.459 96.1288 514.034 96.5488 513.53C96.9781 513.026 97.1928 512.489 97.1928 511.92V511.22H98.2848ZM92.1948 517.702H103.269V518.57H98.2288V523.022H97.1928V518.57H92.1948V517.702ZM113.433 513.978V510.772H114.483V518.066H113.433V514.846H110.941V513.978H113.433ZM104.487 517.114C105.084 516.899 105.616 516.582 106.083 516.162C106.55 515.742 106.914 515.261 107.175 514.72C107.446 514.169 107.581 513.605 107.581 513.026V512.55H104.809V511.682H111.347V512.55H108.631V513.026C108.631 513.549 108.757 514.062 109.009 514.566C109.261 515.061 109.616 515.499 110.073 515.882C110.53 516.265 111.048 516.559 111.627 516.764L111.081 517.604C110.4 517.352 109.802 516.983 109.289 516.498C108.776 516.003 108.388 515.434 108.127 514.79C107.866 515.518 107.464 516.157 106.923 516.708C106.382 517.259 105.747 517.674 105.019 517.954L104.487 517.114ZM106.391 520.74C106.391 520.031 106.75 519.475 107.469 519.074C108.197 518.663 109.196 518.458 110.465 518.458C111.725 518.458 112.714 518.663 113.433 519.074C114.161 519.475 114.525 520.031 114.525 520.74C114.525 521.459 114.166 522.014 113.447 522.406C112.728 522.807 111.734 523.008 110.465 523.008C109.196 523.008 108.197 522.807 107.469 522.406C106.75 522.014 106.391 521.459 106.391 520.74ZM107.441 520.74C107.441 521.188 107.707 521.543 108.239 521.804C108.78 522.056 109.522 522.182 110.465 522.182C111.398 522.182 112.136 522.056 112.677 521.804C113.218 521.543 113.489 521.188 113.489 520.74C113.489 520.283 113.218 519.928 112.677 519.676C112.136 519.415 111.398 519.284 110.465 519.284C109.522 519.284 108.78 519.415 108.239 519.676C107.707 519.928 107.441 520.283 107.441 520.74ZM125.144 511.514V512.368H121.448V513.838H125.018V514.678H121.448V516.274C122.381 516.274 123.156 516.251 123.772 516.204C124.397 516.157 125.023 516.064 125.648 515.924L125.76 516.792C125.088 516.923 124.421 517.011 123.758 517.058C123.105 517.105 122.255 517.128 121.21 517.128H120.44V511.514H125.144ZM122.204 518.22H123.24V519.62H129.176V518.22H130.198V522.854H122.204V518.22ZM129.176 521.986V520.46H123.24V521.986H129.176ZM126.488 511.01H127.482V513.754H129.204V510.786H130.198V517.73H129.204V514.622H127.482V517.632H126.488V511.01ZM142.518 510.772V523.022H141.51V510.772H142.518ZM132.284 516.05C132.284 515.191 132.392 514.445 132.606 513.81C132.821 513.166 133.12 512.671 133.502 512.326C133.894 511.981 134.352 511.808 134.874 511.808C135.621 511.808 136.223 512.144 136.68 512.816C137.147 513.479 137.413 514.393 137.478 515.56H139.088V511.052H140.082V522.392H139.088V516.428H137.478C137.441 517.623 137.184 518.57 136.708 519.27C136.242 519.961 135.63 520.306 134.874 520.306C134.352 520.306 133.894 520.133 133.502 519.788C133.12 519.443 132.821 518.948 132.606 518.304C132.392 517.66 132.284 516.909 132.284 516.05ZM133.25 516.05C133.25 517.049 133.395 517.847 133.684 518.444C133.983 519.032 134.38 519.326 134.874 519.326C135.388 519.326 135.789 519.032 136.078 518.444C136.377 517.856 136.526 517.058 136.526 516.05C136.526 515.051 136.377 514.258 136.078 513.67C135.789 513.082 135.388 512.788 134.874 512.788C134.38 512.788 133.983 513.082 133.684 513.67C133.395 514.258 133.25 515.051 133.25 516.05ZM153.369 514.972V510.758H154.405V523.036H153.369V515.826H150.471V514.972H153.369ZM144.367 519.578C144.945 519.289 145.477 518.855 145.963 518.276C146.457 517.688 146.845 517.025 147.125 516.288C147.414 515.551 147.559 514.813 147.559 514.076V511.836H148.609V514.076C148.609 514.795 148.749 515.509 149.029 516.218C149.318 516.927 149.705 517.562 150.191 518.122C150.676 518.673 151.208 519.083 151.787 519.354L151.171 520.208C150.48 519.853 149.859 519.326 149.309 518.626C148.767 517.926 148.361 517.137 148.091 516.26C147.829 517.184 147.423 518.015 146.873 518.752C146.331 519.489 145.715 520.045 145.025 520.418L144.367 519.578ZM169.882 510.786V519.802H168.832V515.042H166.284C166.172 515.807 165.826 516.428 165.248 516.904C164.678 517.371 163.983 517.604 163.162 517.604C162.564 517.604 162.028 517.478 161.552 517.226C161.076 516.965 160.702 516.605 160.432 516.148C160.161 515.691 160.026 515.168 160.026 514.58C160.026 514.001 160.161 513.483 160.432 513.026C160.702 512.569 161.076 512.214 161.552 511.962C162.028 511.701 162.564 511.57 163.162 511.57C163.712 511.57 164.212 511.682 164.66 511.906C165.108 512.121 165.476 512.429 165.766 512.83C166.055 513.222 166.228 513.675 166.284 514.188H168.832V510.786H169.882ZM161.02 514.58C161.02 515.196 161.22 515.7 161.622 516.092C162.032 516.484 162.546 516.68 163.162 516.68C163.778 516.68 164.286 516.484 164.688 516.092C165.098 515.7 165.304 515.196 165.304 514.58C165.304 513.973 165.098 513.474 164.688 513.082C164.286 512.69 163.778 512.494 163.162 512.494C162.546 512.494 162.032 512.69 161.622 513.082C161.22 513.474 161.02 513.973 161.02 514.58ZM162.084 518.892H163.134V521.874H170.232V522.742H162.084V518.892ZM182.44 510.772V523.022H181.432V510.772H182.44ZM171.926 519.774C172.747 519.27 173.396 518.514 173.872 517.506C174.357 516.489 174.6 515.406 174.6 514.258V513.096H172.234V512.228H177.848V513.096H175.622V514.258C175.622 515.35 175.855 516.377 176.322 517.338C176.789 518.299 177.428 519.018 178.24 519.494L177.596 520.264C177.008 519.909 176.504 519.419 176.084 518.794C175.664 518.159 175.342 517.441 175.118 516.638C174.903 517.497 174.577 518.271 174.138 518.962C173.699 519.643 173.177 520.175 172.57 520.558L171.926 519.774ZM176.91 515.196H178.982V511.066H179.962V522.378H178.982V516.064H176.91V515.196ZM195.376 516.974V517.828H184.316V516.974H195.376ZM185.716 511.304H193.99V512.158H186.752V514.72H194.102V515.602H185.716V511.304ZM185.744 519.158H186.78V521.874H194.2V522.742H185.744V519.158ZM203.763 512.032V512.914H200.851V514.566C200.851 515.238 201 515.91 201.299 516.582C201.607 517.245 202.013 517.837 202.517 518.36C203.021 518.873 203.567 519.261 204.155 519.522L203.553 520.362C202.843 520.026 202.199 519.522 201.621 518.85C201.042 518.178 200.613 517.422 200.333 516.582C200.053 517.487 199.623 518.304 199.045 519.032C198.475 519.76 197.841 520.301 197.141 520.656L196.539 519.83C197.108 519.55 197.645 519.13 198.149 518.57C198.653 518.001 199.054 517.361 199.353 516.652C199.651 515.943 199.801 515.247 199.801 514.566V512.914H196.917V512.032H203.763ZM205.471 510.772H206.521V523.022H205.471V510.772ZM221.409 510.772V515.616H223.439V516.512H221.409V523.022H220.359V510.772H221.409ZM212.519 511.822H213.555V515.07H217.167V511.822H218.203V520.068H212.519V511.822ZM217.167 519.2V515.91H213.555V519.2H217.167ZM227.738 515.14C228.008 514.151 228.167 513.133 228.214 512.088H225.316V511.22H229.222V511.598C229.222 512.121 229.194 512.662 229.138 513.222C229.091 513.782 228.974 514.421 228.788 515.14H232.582C232.843 514.085 232.983 513.068 233.002 512.088H230.16V511.22H234.024V511.64C234.024 512.172 234 512.713 233.954 513.264C233.907 513.805 233.8 514.431 233.632 515.14H235.34V516.008H230.286V517.562H233.912V520.6H226.632V522.028H234.304V522.882H225.596V519.788H232.876V518.416H225.568V517.562H229.25V516.008H224.238V515.14H227.738ZM245.791 511.22V511.92C245.791 512.48 246.005 513.012 246.435 513.516C246.864 514.02 247.419 514.445 248.101 514.79C248.782 515.135 249.487 515.364 250.215 515.476L249.781 516.316C248.81 516.148 247.909 515.807 247.079 515.294C246.248 514.781 245.641 514.16 245.259 513.432C244.885 514.169 244.279 514.795 243.439 515.308C242.608 515.812 241.698 516.148 240.709 516.316L240.275 515.476C241.012 515.364 241.721 515.14 242.403 514.804C243.084 514.459 243.635 514.034 244.055 513.53C244.484 513.026 244.699 512.489 244.699 511.92V511.22H245.791ZM239.701 517.702H250.775V518.57H245.735V523.022H244.699V518.57H239.701V517.702ZM259.266 518.332V519.004C259.266 519.573 259.415 520.124 259.714 520.656C260.012 521.188 260.442 521.617 261.002 521.944C261.571 521.589 262.01 521.137 262.318 520.586C262.635 520.035 262.794 519.508 262.794 519.004V518.332H263.816V519.004C263.816 519.657 264.04 520.269 264.488 520.838C264.936 521.398 265.538 521.809 266.294 522.07L265.776 522.854C265.188 522.639 264.679 522.331 264.25 521.93C263.83 521.519 263.508 521.053 263.284 520.53C263.088 521.062 262.798 521.543 262.416 521.972C262.042 522.401 261.585 522.733 261.044 522.966C260.474 522.742 259.994 522.42 259.602 522C259.219 521.589 258.934 521.113 258.748 520.572C258.524 521.076 258.202 521.529 257.782 521.93C257.371 522.331 256.881 522.639 256.312 522.854L255.78 522.07C256.274 521.893 256.708 521.641 257.082 521.314C257.464 520.978 257.754 520.609 257.95 520.208C258.155 519.797 258.258 519.396 258.258 519.004V518.332H259.266ZM255.458 514.356C255.458 513.796 255.593 513.301 255.864 512.872C256.134 512.443 256.512 512.107 256.998 511.864C257.483 511.621 258.029 511.5 258.636 511.5C259.242 511.5 259.788 511.621 260.274 511.864C260.759 512.107 261.137 512.443 261.408 512.872C261.678 513.301 261.814 513.796 261.814 514.356C261.814 514.907 261.678 515.397 261.408 515.826C261.137 516.255 260.759 516.591 260.274 516.834C259.788 517.067 259.242 517.184 258.636 517.184C258.029 517.184 257.483 517.067 256.998 516.834C256.512 516.591 256.134 516.255 255.864 515.826C255.593 515.397 255.458 514.907 255.458 514.356ZM256.48 514.356C256.48 514.935 256.68 515.406 257.082 515.77C257.492 516.134 258.01 516.316 258.636 516.316C259.27 516.316 259.788 516.134 260.19 515.77C260.591 515.406 260.792 514.935 260.792 514.356C260.792 513.777 260.591 513.306 260.19 512.942C259.788 512.569 259.27 512.382 258.636 512.382C258.01 512.382 257.492 512.569 257.082 512.942C256.68 513.306 256.48 513.777 256.48 514.356ZM264.138 510.786H265.202V517.786H264.138V510.786ZM270.648 511.724C271.199 511.724 271.693 511.878 272.132 512.186C272.571 512.485 272.925 512.919 273.196 513.488C273.467 514.057 273.625 514.72 273.672 515.476H276.416V510.758H277.452V523.036H276.416V516.316H273.672C273.644 517.109 273.495 517.805 273.224 518.402C272.963 518.99 272.608 519.447 272.16 519.774C271.712 520.091 271.208 520.25 270.648 520.25C270.06 520.25 269.533 520.077 269.066 519.732C268.609 519.377 268.249 518.878 267.988 518.234C267.736 517.59 267.61 516.839 267.61 515.98C267.61 515.131 267.736 514.384 267.988 513.74C268.249 513.096 268.609 512.601 269.066 512.256C269.533 511.901 270.06 511.724 270.648 511.724ZM268.604 515.98C268.604 516.643 268.688 517.226 268.856 517.73C269.033 518.234 269.276 518.626 269.584 518.906C269.892 519.177 270.247 519.312 270.648 519.312C271.049 519.312 271.404 519.177 271.712 518.906C272.02 518.626 272.258 518.234 272.426 517.73C272.603 517.226 272.692 516.643 272.692 515.98C272.692 515.317 272.603 514.739 272.426 514.244C272.258 513.74 272.02 513.353 271.712 513.082C271.404 512.802 271.049 512.662 270.648 512.662C270.247 512.662 269.892 512.802 269.584 513.082C269.276 513.353 269.033 513.74 268.856 514.244C268.688 514.739 268.604 515.317 268.604 515.98ZM282.394 520.558V517.212C281.872 516.941 281.461 516.591 281.162 516.162C280.873 515.723 280.728 515.233 280.728 514.692C280.728 514.067 280.915 513.516 281.288 513.04C281.671 512.564 282.198 512.2 282.87 511.948C283.542 511.687 284.308 511.556 285.166 511.556C286.025 511.556 286.79 511.687 287.462 511.948C288.134 512.2 288.657 512.564 289.03 513.04C289.413 513.516 289.604 514.067 289.604 514.692C289.604 515.224 289.46 515.705 289.17 516.134C288.89 516.563 288.494 516.918 287.98 517.198V520.558H290.738V521.426H279.636V520.558H282.394ZM281.75 514.692C281.75 515.149 281.895 515.551 282.184 515.896C282.474 516.241 282.875 516.512 283.388 516.708C283.911 516.895 284.504 516.988 285.166 516.988C285.829 516.988 286.417 516.895 286.93 516.708C287.453 516.512 287.859 516.241 288.148 515.896C288.447 515.551 288.596 515.149 288.596 514.692C288.596 514.235 288.447 513.833 288.148 513.488C287.859 513.143 287.453 512.877 286.93 512.69C286.417 512.494 285.829 512.396 285.166 512.396C284.504 512.396 283.911 512.494 283.388 512.69C282.875 512.877 282.474 513.143 282.184 513.488C281.895 513.833 281.75 514.235 281.75 514.692ZM286.93 520.558V517.604C286.398 517.744 285.81 517.814 285.166 517.814C284.541 517.814 283.962 517.744 283.43 517.604V520.558H286.93Z" fill="#AFB8C1"/>
<rect x="24.5" y="186.5" width="311" height="47" rx="7.5" fill="white"/>
<rect x="24.5" y="186.5" width="311" height="47" rx="7.5" stroke="#ECEEF0"/>
<path d="M51.504 203.184V207.44H53.584V208.432H51.504V213.44H50.304V203.184H51.504ZM41.264 204.176H42.448V206.56H46.528V204.176H47.712V211.088H41.264V204.176ZM46.528 210.112V207.504H42.448V210.112H46.528ZM42.832 212.464H44.016V215.856H52.144V216.848H42.832V212.464ZM66.0964 203.152V217.184H64.9124V211.2H62.0004V210.224H64.9124V207.376H62.0964V206.384H64.9124V203.152H66.0964ZM55.1044 204.448H61.2004V209.408H56.3204V212.896C57.4617 212.896 58.491 212.869 59.4084 212.816C60.3257 212.752 61.2857 212.64 62.2884 212.48L62.4004 213.488C61.3657 213.648 60.379 213.76 59.4404 213.824C58.5017 213.877 57.4137 213.904 56.1764 213.904H55.1364V208.416H60.0164V205.44H55.1044V204.448ZM80.1128 203.168V213.6H78.8968V210.208H75.1368V209.216H78.8968V207.056H75.3288C74.8488 208.155 74.0914 209.12 73.0568 209.952C72.0328 210.773 70.8008 211.424 69.3608 211.904L68.8328 210.928C70.4968 210.384 71.8408 209.616 72.8648 208.624C73.8994 207.632 74.4808 206.507 74.6088 205.248H69.5368V204.272H75.9048C75.9048 204.869 75.8301 205.467 75.6808 206.064H78.8968V203.168H80.1128ZM71.2808 212.592H72.4968V215.856H80.4488V216.848H71.2808V212.592ZM87.1211 204.192C87.8358 204.192 88.4758 204.331 89.0411 204.608C89.6065 204.885 90.0491 205.275 90.3691 205.776C90.6891 206.267 90.8491 206.832 90.8491 207.472C90.8491 208.112 90.6891 208.683 90.3691 209.184C90.0491 209.675 89.6065 210.059 89.0411 210.336C88.4758 210.613 87.8358 210.752 87.1211 210.752C86.3958 210.752 85.7505 210.613 85.1851 210.336C84.6198 210.059 84.1771 209.675 83.8571 209.184C83.5371 208.683 83.3771 208.112 83.3771 207.472C83.3771 206.832 83.5371 206.267 83.8571 205.776C84.1771 205.275 84.6198 204.885 85.1851 204.608C85.7505 204.331 86.3958 204.192 87.1211 204.192ZM82.6571 213.072C84.5345 213.072 86.1931 213.045 87.6331 212.992C89.0838 212.939 90.4811 212.805 91.8251 212.592L91.9211 213.472C90.5345 213.739 89.1158 213.909 87.6651 213.984C86.2145 214.059 84.5985 214.096 82.8171 214.096L82.6571 213.072ZM84.5451 207.472C84.5451 208.123 84.7851 208.661 85.2651 209.088C85.7558 209.504 86.3745 209.712 87.1211 209.712C87.8571 209.712 88.4651 209.504 88.9451 209.088C89.4358 208.661 89.6811 208.123 89.6811 207.472C89.6811 206.811 89.4411 206.272 88.9611 205.856C88.4811 205.44 87.8678 205.232 87.1211 205.232C86.3745 205.232 85.7558 205.44 85.2651 205.856C84.7851 206.272 84.5451 206.811 84.5451 207.472ZM92.7531 203.152H93.9531V217.184H92.7531V203.152ZM111.689 203.152V217.184H110.489V203.152H111.689ZM100.777 209.12C100.777 208.149 100.926 207.296 101.225 206.56C101.524 205.824 101.94 205.259 102.473 204.864C103.017 204.459 103.636 204.256 104.329 204.256C105.012 204.256 105.62 204.459 106.153 204.864C106.697 205.259 107.118 205.824 107.417 206.56C107.716 207.296 107.865 208.149 107.865 209.12C107.865 210.091 107.716 210.949 107.417 211.696C107.118 212.432 106.697 213.003 106.153 213.408C105.62 213.803 105.012 214 104.329 214C103.636 214 103.017 213.803 102.473 213.408C101.94 213.003 101.524 212.432 101.225 211.696C100.926 210.96 100.777 210.101 100.777 209.12ZM101.945 209.12C101.945 209.877 102.046 210.544 102.249 211.12C102.452 211.696 102.729 212.144 103.081 212.464C103.444 212.773 103.86 212.928 104.329 212.928C104.788 212.928 105.198 212.773 105.561 212.464C105.924 212.144 106.206 211.696 106.409 211.12C106.612 210.533 106.713 209.867 106.713 209.12C106.713 208.373 106.612 207.712 106.409 207.136C106.206 206.56 105.924 206.117 105.561 205.808C105.198 205.488 104.788 205.328 104.329 205.328C103.86 205.328 103.444 205.488 103.081 205.808C102.729 206.117 102.452 206.56 102.249 207.136C102.046 207.701 101.945 208.363 101.945 209.12ZM126.937 210.4V211.392H114.249V210.4H126.937ZM115.865 203.536H125.289V206.784H117.065V208.208H125.593V209.168H115.897V205.888H124.105V204.48H115.865V203.536ZM115.977 212.704H125.289V216.976H115.977V212.704ZM124.121 216V213.664H117.145V216H124.121Z" fill="#36393C"/>
<path d="M270.415 214.352V211.136H271.599V214.352H277.359V215.36H264.671V214.352H270.415ZM265.407 210.672C266.303 210.523 267.13 210.251 267.887 209.856C268.655 209.451 269.269 208.949 269.727 208.352C270.186 207.755 270.415 207.099 270.415 206.384H265.871V205.392H270.415V203.456H271.599V205.392H276.143V206.384H271.615C271.615 207.099 271.839 207.755 272.287 208.352C272.746 208.949 273.354 209.451 274.111 209.856C274.879 210.251 275.711 210.523 276.607 210.672L276.127 211.616C274.986 211.403 273.951 211.019 273.023 210.464C272.106 209.899 271.434 209.189 271.007 208.336C270.581 209.179 269.903 209.883 268.975 210.448C268.058 211.013 267.023 211.403 265.871 211.616L265.407 210.672ZM289.744 204.544V205.888C289.744 207.061 289.712 208.117 289.648 209.056C289.584 209.995 289.424 211.093 289.168 212.352L287.984 212.208C288.229 211.077 288.394 209.952 288.48 208.832L279.984 209.328L279.808 208.272L288.528 207.92C288.549 207.429 288.56 206.752 288.56 205.888V205.536H280.176V204.544H289.744ZM278.656 214.224H283.632V210.576H284.816V214.224H291.296V215.216H278.656V214.224Z" fill="#BDC5CC"/>
<path d="M306 205L311 210L306 215" stroke="#959CA4" stroke-width="2" stroke-linecap="round" stroke-linejoin="round"/>
<rect x="24.5" y="250.5" width="311" height="47" rx="7.5" fill="white"/>
<rect x="24.5" y="250.5" width="311" height="47" rx="7.5" stroke="#ECEEF0"/>
<path d="M51.392 267.152V272.784H53.648V273.792H51.392V281.168H50.192V267.152H51.392ZM41.232 268.544H42.416V276.608C44.6667 276.608 46.8107 276.395 48.848 275.968L48.992 276.976C46.912 277.392 44.6933 277.6 42.336 277.6H41.232V268.544ZM66.0484 267.152V281.184H64.8484V267.152H66.0484ZM55.1364 273.12C55.1364 272.149 55.2857 271.296 55.5844 270.56C55.883 269.824 56.299 269.259 56.8324 268.864C57.3764 268.459 57.995 268.256 58.6884 268.256C59.371 268.256 59.979 268.459 60.5124 268.864C61.0564 269.259 61.4777 269.824 61.7764 270.56C62.075 271.296 62.2244 272.149 62.2244 273.12C62.2244 274.091 62.075 274.949 61.7764 275.696C61.4777 276.432 61.0564 277.003 60.5124 277.408C59.979 277.803 59.371 278 58.6884 278C57.995 278 57.3764 277.803 56.8324 277.408C56.299 277.003 55.883 276.432 55.5844 275.696C55.2857 274.96 55.1364 274.101 55.1364 273.12ZM56.3044 273.12C56.3044 273.877 56.4057 274.544 56.6084 275.12C56.811 275.696 57.0884 276.144 57.4404 276.464C57.803 276.773 58.219 276.928 58.6884 276.928C59.147 276.928 59.5577 276.773 59.9204 276.464C60.283 276.144 60.5657 275.696 60.7684 275.12C60.971 274.533 61.0724 273.867 61.0724 273.12C61.0724 272.373 60.971 271.712 60.7684 271.136C60.5657 270.56 60.283 270.117 59.9204 269.808C59.5577 269.488 59.147 269.328 58.6884 269.328C58.219 269.328 57.803 269.488 57.4404 269.808C57.0884 270.117 56.811 270.56 56.6084 271.136C56.4057 271.701 56.3044 272.363 56.3044 273.12Z" fill="#36393C"/>
<path d="M275.549 274.032C276.039 274.331 276.423 274.731 276.701 275.232C276.989 275.733 277.133 276.235 277.133 276.736C277.133 277.387 276.973 277.968 276.653 278.48C276.343 278.981 275.906 279.376 275.341 279.664C274.775 279.952 274.13 280.096 273.405 280.096C272.69 280.096 272.05 279.952 271.485 279.664C270.919 279.376 270.477 278.981 270.157 278.48C269.847 277.968 269.693 277.387 269.693 276.736H270.845C270.845 277.419 271.079 277.979 271.549 278.416C272.029 278.853 272.647 279.072 273.405 279.072C274.162 279.072 274.781 278.859 275.261 278.432C275.741 277.995 275.981 277.435 275.981 276.752C275.981 276.101 275.741 275.573 275.261 275.168C274.791 274.752 274.183 274.544 273.437 274.544H272.589V273.488H273.437C274.13 273.488 274.701 273.301 275.149 272.928C275.597 272.544 275.821 272.059 275.821 271.472C275.821 270.853 275.602 270.352 275.165 269.968C274.738 269.573 274.183 269.376 273.501 269.376C272.818 269.376 272.258 269.573 271.821 269.968C271.383 270.363 271.164 270.875 271.164 271.504H270.013C270.013 270.896 270.162 270.352 270.461 269.872C270.759 269.392 271.17 269.019 271.693 268.752C272.226 268.485 272.829 268.352 273.501 268.352C274.173 268.352 274.77 268.485 275.293 268.752C275.826 269.019 276.237 269.392 276.525 269.872C276.823 270.352 276.973 270.896 276.973 271.504C276.973 271.952 276.845 272.411 276.589 272.88C276.343 273.349 275.997 273.733 275.549 274.032ZM286.528 272.208V267.488H287.648V280.448H286.528V273.216H284.16V272.208H286.528ZM278.496 277.232C279.114 276.869 279.658 276.368 280.128 275.728C280.597 275.088 280.96 274.373 281.216 273.584C281.472 272.795 281.6 272 281.6 271.2V268.512H282.752V271.168C282.752 272.309 283.018 273.413 283.552 274.48C284.085 275.547 284.8 276.352 285.696 276.896L284.992 277.824C284.341 277.44 283.776 276.896 283.296 276.192C282.816 275.477 282.448 274.683 282.192 273.808C281.936 274.757 281.552 275.611 281.04 276.368C280.528 277.125 279.93 277.712 279.248 278.128L278.496 277.232ZM289.376 267.168H290.528V281.168H289.376V267.168Z" fill="#BDC5CC"/>
<path d="M306 269L311 274L306 279" stroke="#959CA4" stroke-width="2" stroke-linecap="round" stroke-linejoin="round"/>
<rect x="24.5" y="314.5" width="311" height="47" rx="7.5" fill="white"/>
<rect x="24.5" y="314.5" width="311" height="47" rx="7.5" stroke="#ECEEF0"/>
<path d="M51.728 340.4V344.976H42.208V340.4H51.728ZM40.64 338H46.368V336.368H42.272V331.696H51.664V336.368H47.552V338H53.28V338.976H40.64V338ZM50.56 344V341.36H43.376V344H50.56ZM50.48 335.392V332.656H43.44V335.392H50.48ZM67.3124 339.328V340.32H61.5204V345.184H60.3364V340.32H54.6244V339.328H67.3124ZM56.2564 331.968H65.6484V337.392H56.2564V331.968ZM64.4804 336.448V332.944H57.4244V336.448H64.4804ZM80.4808 331.168V345.168H79.3288V331.168H80.4808ZM68.6248 341.264C70.1074 340.379 71.2434 339.317 72.0328 338.08C72.8221 336.832 73.2754 335.456 73.3928 333.952H69.2008V332.96H74.5928C74.5928 334.389 74.3581 335.712 73.8888 336.928H76.4167V331.536H77.5528V344.432H76.4167V337.904H73.4568C72.5608 339.621 71.1848 341.035 69.3288 342.144L68.6248 341.264Z" fill="#36393C"/>
<path d="M270.861 333.344C270.071 333.344 269.426 333.605 268.925 334.128C268.423 334.64 268.173 335.301 268.173 336.112C268.173 336.933 268.423 337.605 268.925 338.128C269.426 338.64 270.071 338.896 270.861 338.896C271.362 338.896 271.81 338.779 272.205 338.544C272.61 338.309 272.925 337.979 273.149 337.552C273.373 337.125 273.485 336.645 273.485 336.112C273.485 335.301 273.239 334.64 272.749 334.128C272.258 333.605 271.629 333.344 270.861 333.344ZM267.021 336.112C267.021 335.376 267.181 334.72 267.501 334.144C267.831 333.568 268.285 333.12 268.861 332.8C269.437 332.48 270.093 332.32 270.829 332.32C271.565 332.32 272.221 332.48 272.797 332.8C273.373 333.12 273.821 333.568 274.141 334.144C274.471 334.72 274.637 335.376 274.637 336.112C274.637 336.848 274.439 337.563 274.045 338.256L270.765 344H269.437L271.853 339.808C271.479 339.883 271.138 339.92 270.829 339.92C270.093 339.92 269.437 339.76 268.861 339.44C268.285 339.109 267.831 338.656 267.501 338.08C267.181 337.504 267.021 336.848 267.021 336.112ZM277.995 340.352L281.195 336.624H282.731L279.915 339.888L282.843 344H281.419L279.099 340.768L277.995 342.096V344H276.843V332.768H277.995V340.352ZM287.245 343.056C287.672 343.056 288.066 342.939 288.429 342.704C288.792 342.459 289.074 342.128 289.277 341.712C289.49 341.296 289.597 340.848 289.597 340.368C289.597 339.899 289.49 339.456 289.277 339.04C289.064 338.624 288.776 338.293 288.413 338.048C288.061 337.792 287.672 337.664 287.245 337.664C286.552 337.664 285.981 337.92 285.533 338.432C285.096 338.933 284.877 339.579 284.877 340.368C284.877 341.157 285.096 341.803 285.533 342.304C285.981 342.805 286.552 343.056 287.245 343.056ZM283.725 340.368C283.725 339.653 283.874 339.013 284.173 338.448C284.472 337.883 284.888 337.44 285.421 337.12C285.954 336.789 286.557 336.624 287.229 336.624C287.73 336.624 288.189 336.747 288.605 336.992C289.021 337.227 289.352 337.552 289.597 337.968V336.624H290.749V343.568C290.749 344.283 290.6 344.933 290.301 345.52C290.002 346.107 289.581 346.565 289.037 346.896C288.493 347.237 287.864 347.408 287.149 347.408C286.541 347.408 285.981 347.264 285.469 346.976C284.957 346.699 284.514 346.277 284.141 345.712L285.101 345.136C285.592 345.957 286.274 346.368 287.149 346.368C287.896 346.368 288.488 346.101 288.925 345.568C289.373 345.035 289.597 344.363 289.597 343.552V342.704C289.33 343.109 288.978 343.445 288.541 343.712C288.104 343.968 287.666 344.096 287.229 344.096C286.557 344.096 285.954 343.936 285.421 343.616C284.888 343.296 284.472 342.853 284.173 342.288C283.874 341.723 283.725 341.083 283.725 340.368Z" fill="#BDC5CC"/>
<path d="M306 333L311 338L306 343" stroke="#959CA4" stroke-width="2" stroke-linecap="round" stroke-linejoin="round"/>
<rect x="24.5" y="378.5" width="311" height="47" rx="7.5" fill="white"/>
<rect x="24.5" y="378.5" width="311" height="47" rx="7.5" stroke="#ECEEF0"/>
<path d="M51.456 395.168V398.784H53.552V399.792H51.456V403.424H50.256V395.168H51.456ZM40.576 402.192C42.1973 402.192 43.4613 402.176 44.368 402.144V401.248C43.536 401.184 42.8853 400.997 42.416 400.688C41.9467 400.368 41.712 399.947 41.712 399.424C41.712 398.848 42 398.4 42.576 398.08C43.1627 397.749 43.952 397.584 44.944 397.584C45.9467 397.584 46.736 397.749 47.312 398.08C47.8987 398.4 48.192 398.848 48.192 399.424C48.192 399.936 47.9573 400.352 47.488 400.672C47.0187 400.992 46.3733 401.184 45.552 401.248V402.112C47.0773 402.037 48.3627 401.925 49.408 401.776L49.488 402.544C48.1653 402.768 46.7893 402.917 45.36 402.992C43.9307 403.056 42.384 403.088 40.72 403.088L40.576 402.192ZM40.928 396.24H44.368V395.024H45.552V396.24H48.976V397.12H40.928V396.24ZM42.448 404.08H51.456V406.864H43.648V408.144H52V409.008H42.48V406.064H50.288V404.928H42.448V404.08ZM42.848 399.424C42.848 399.744 43.0347 400 43.408 400.192C43.792 400.373 44.304 400.464 44.944 400.464C45.5947 400.464 46.1067 400.373 46.48 400.192C46.864 400 47.056 399.744 47.056 399.424C47.056 399.104 46.864 398.853 46.48 398.672C46.1067 398.48 45.5947 398.384 44.944 398.384C44.304 398.384 43.792 398.48 43.408 398.672C43.0347 398.853 42.848 399.104 42.848 399.424ZM60.3524 402.112V400.464H56.2404V395.824H65.6964V396.8H57.4244V399.472H65.7924V400.464H61.5364V402.112H67.2804V403.088H54.6404V402.112H60.3524ZM56.1604 406.64C56.1604 405.84 56.5817 405.221 57.4244 404.784C58.267 404.347 59.4404 404.128 60.9444 404.128C62.4377 404.128 63.6057 404.347 64.4484 404.784C65.3017 405.221 65.7284 405.84 65.7284 406.64C65.7284 407.44 65.307 408.059 64.4644 408.496C63.6217 408.933 62.4484 409.152 60.9444 409.152C59.4404 409.152 58.267 408.933 57.4244 408.496C56.5817 408.059 56.1604 407.44 56.1604 406.64ZM57.3604 406.64C57.3604 407.141 57.675 407.531 58.3044 407.808C58.9444 408.075 59.8244 408.208 60.9444 408.208C62.0644 408.208 62.939 408.075 63.5684 407.808C64.1977 407.531 64.5124 407.141 64.5124 406.64C64.5124 406.149 64.1977 405.765 63.5684 405.488C62.939 405.211 62.0644 405.072 60.9444 405.072C59.8244 405.072 58.9444 405.211 58.3044 405.488C57.675 405.765 57.3604 406.149 57.3604 406.64ZM79.4728 395.168V397.392H81.5688V398.4H79.4728V400.336H81.5688V401.328H79.4728V403.648H78.2728V395.168H79.4728ZM69.2168 396.032H75.5048V399.808H70.4328V401.808C71.7661 401.808 72.9181 401.776 73.8888 401.712C74.8594 401.648 75.8568 401.525 76.8808 401.344L76.9928 402.336C75.9368 402.517 74.9074 402.64 73.9048 402.704C72.9128 402.768 71.7234 402.8 70.3368 402.8H69.2488V398.864H74.3208V397.04H69.2168V396.032ZM70.4168 406.592C70.4168 405.803 70.8221 405.189 71.6328 404.752C72.4541 404.304 73.5794 404.08 75.0088 404.08C76.4381 404.08 77.5581 404.304 78.3688 404.752C79.1794 405.189 79.5848 405.803 79.5848 406.592C79.5848 407.392 79.1794 408.016 78.3688 408.464C77.5581 408.923 76.4381 409.152 75.0088 409.152C73.5794 409.152 72.4541 408.923 71.6328 408.464C70.8221 408.016 70.4168 407.392 70.4168 406.592ZM71.5848 406.592C71.5848 407.104 71.8888 407.504 72.4968 407.792C73.1048 408.069 73.9421 408.208 75.0088 408.208C76.0754 408.208 76.9074 408.069 77.5048 407.792C78.1128 407.504 78.4168 407.104 78.4168 406.592C78.4168 406.101 78.1128 405.717 77.5048 405.44C76.8968 405.152 76.0648 405.008 75.0088 405.008C73.9421 405.008 73.1048 405.152 72.4968 405.44C71.8888 405.717 71.5848 406.101 71.5848 406.592Z" fill="#36393C"/>
<path d="M275.487 395.168V398.784H277.583V399.792H275.487V403.424H274.287V395.168H275.487ZM264.607 402.192C266.229 402.192 267.493 402.176 268.399 402.144V401.248C267.567 401.184 266.917 400.997 266.447 400.688C265.978 400.368 265.743 399.947 265.743 399.424C265.743 398.848 266.031 398.4 266.607 398.08C267.194 397.749 267.983 397.584 268.975 397.584C269.978 397.584 270.767 397.749 271.343 398.08C271.93 398.4 272.223 398.848 272.223 399.424C272.223 399.936 271.989 400.352 271.519 400.672C271.05 400.992 270.405 401.184 269.583 401.248V402.112C271.109 402.037 272.394 401.925 273.439 401.776L273.519 402.544C272.197 402.768 270.821 402.917 269.391 402.992C267.962 403.056 266.415 403.088 264.751 403.088L264.607 402.192ZM264.959 396.24H268.399V395.024H269.583V396.24H273.007V397.12H264.959V396.24ZM266.479 404.08H275.487V406.864H267.679V408.144H276.031V409.008H266.511V406.064H274.319V404.928H266.479V404.08ZM266.879 399.424C266.879 399.744 267.066 400 267.439 400.192C267.823 400.373 268.335 400.464 268.975 400.464C269.626 400.464 270.138 400.373 270.511 400.192C270.895 400 271.087 399.744 271.087 399.424C271.087 399.104 270.895 398.853 270.511 398.672C270.138 398.48 269.626 398.384 268.975 398.384C268.335 398.384 267.823 398.48 267.439 398.672C267.066 398.853 266.879 399.104 266.879 399.424ZM280.464 395.744V397.792H284.544V395.744H285.728V401.84H279.28V395.744H280.464ZM284.544 400.864V398.736H280.464V400.864H284.544ZM280.672 403.088H289.52V406.448H281.888V408.032H290.032V409.008H280.704V405.536H288.336V404.048H280.672V403.088ZM288.32 395.168H289.52V398.224H291.6V399.216H289.52V402.4H288.32V395.168Z" fill="#BDC5CC"/>
<path d="M306 397L311 402L306 407" stroke="#959CA4" stroke-width="2" stroke-linecap="round" stroke-linejoin="round"/>
<rect x="24.5" y="442.5" width="311" height="47" rx="7.5" fill="white"/>
<rect x="24.5" y="442.5" width="311" height="47" rx="7.5" stroke="#ECEEF0"/>
<path d="M53.28 465.744V466.72H47.552V468.272C48.8853 468.325 49.9147 468.565 50.64 468.992C51.376 469.408 51.744 469.979 51.744 470.704C51.744 471.472 51.3227 472.069 50.48 472.496C49.6373 472.923 48.464 473.136 46.96 473.136C45.456 473.136 44.2827 472.923 43.44 472.496C42.5973 472.069 42.176 471.472 42.176 470.704C42.176 469.979 42.5387 469.408 43.264 468.992C44 468.565 45.0293 468.325 46.352 468.272V466.72H40.64V465.744H53.28ZM41.36 463.904C42.1813 463.819 42.9547 463.632 43.68 463.344C44.416 463.056 45.0133 462.693 45.472 462.256C45.9307 461.808 46.1707 461.323 46.192 460.8H41.808V459.84H52.144V460.8H47.744C47.7653 461.323 48.0053 461.808 48.464 462.256C48.9227 462.693 49.5147 463.056 50.24 463.344C50.976 463.632 51.7547 463.819 52.576 463.904L52.128 464.864C50.944 464.715 49.8773 464.389 48.928 463.888C47.9893 463.387 47.3387 462.757 46.976 462C46.6027 462.757 45.9413 463.387 44.992 463.888C44.0533 464.389 42.992 464.715 41.808 464.864L41.36 463.904ZM43.376 470.704C43.376 471.184 43.6907 471.557 44.32 471.824C44.9493 472.08 45.8293 472.208 46.96 472.208C48.08 472.208 48.9547 472.08 49.584 471.824C50.2133 471.557 50.528 471.184 50.528 470.704C50.528 470.224 50.2133 469.851 49.584 469.584C48.9547 469.317 48.08 469.184 46.96 469.184C45.8293 469.184 44.9493 469.317 44.32 469.584C43.6907 469.851 43.376 470.224 43.376 470.704ZM59.3604 459.968V461.376C59.3604 462.368 59.675 463.275 60.3044 464.096C60.9444 464.907 61.7764 465.488 62.8004 465.84L62.1444 466.784C61.3764 466.496 60.699 466.075 60.1124 465.52C59.5364 464.965 59.099 464.315 58.8004 463.568C58.5017 464.411 58.043 465.147 57.4244 465.776C56.8164 466.405 56.091 466.88 55.2484 467.2L54.6244 466.224C55.691 465.84 56.5497 465.216 57.2004 464.352C57.851 463.477 58.1764 462.501 58.1764 461.424V459.968H59.3604ZM56.8484 470.512C56.8484 469.68 57.2644 469.035 58.0964 468.576C58.9284 468.107 60.0697 467.872 61.5204 467.872C62.971 467.872 64.107 468.107 64.9284 468.576C65.7497 469.035 66.1604 469.68 66.1604 470.512C66.1604 471.344 65.7497 471.989 64.9284 472.448C64.107 472.907 62.971 473.136 61.5204 473.136C60.059 473.136 58.9124 472.907 58.0804 472.448C57.259 471.989 56.8484 471.344 56.8484 470.512ZM58.0644 470.512C58.0644 471.035 58.3684 471.445 58.9764 471.744C59.595 472.043 60.443 472.192 61.5204 472.192C62.587 472.192 63.4297 472.043 64.0484 471.744C64.667 471.445 64.9764 471.035 64.9764 470.512C64.9764 469.989 64.667 469.579 64.0484 469.28C63.4297 468.981 62.587 468.832 61.5204 468.832C60.443 468.832 59.595 468.981 58.9764 469.28C58.3684 469.579 58.0644 469.989 58.0644 470.512ZM61.7924 462.176H64.8964V459.168H66.0964V467.456H64.8964V463.184H61.7924V462.176ZM79.3608 459.168V465.136H81.5848V466.16H79.3608V473.168H78.1608V459.168H79.3608ZM68.4488 469.44C70.0914 469.44 71.3714 469.424 72.2888 469.392V467.84C71.4674 467.744 70.8114 467.472 70.3207 467.024C69.8408 466.565 69.6008 465.989 69.6008 465.296C69.6008 464.517 69.9048 463.893 70.5128 463.424C71.1208 462.944 71.9101 462.704 72.8808 462.704C73.8621 462.704 74.6568 462.944 75.2648 463.424C75.8728 463.893 76.1768 464.517 76.1768 465.296C76.1768 465.989 75.9314 466.565 75.4408 467.024C74.9501 467.472 74.2994 467.744 73.4888 467.84V469.344C74.9928 469.269 76.2621 469.157 77.2968 469.008L77.3928 469.888C76.0594 470.133 74.6941 470.293 73.2968 470.368C71.8994 470.432 70.3474 470.464 68.6408 470.464L68.4488 469.44ZM68.6888 460.88H72.2888V459.184H73.4888V460.88H77.0728V461.856H68.6888V460.88ZM70.7368 465.296C70.7368 465.787 70.9341 466.181 71.3288 466.48C71.7234 466.779 72.2408 466.928 72.8808 466.928C73.5314 466.928 74.0541 466.779 74.4488 466.48C74.8434 466.181 75.0408 465.787 75.0408 465.296C75.0408 464.795 74.8434 464.395 74.4488 464.096C74.0541 463.787 73.5314 463.632 72.8808 463.632C72.2408 463.632 71.7234 463.787 71.3288 464.096C70.9341 464.395 70.7368 464.795 70.7368 465.296ZM89.9926 460.256C90.6326 460.256 91.2033 460.437 91.7046 460.8C92.2166 461.152 92.622 461.659 92.9206 462.32H96.5846V459.152H97.7686V473.184H96.5846V467.744H93.0006C92.7126 468.459 92.3073 469.013 91.7846 469.408C91.262 469.803 90.6646 470 89.9926 470C89.3206 470 88.718 469.803 88.1846 469.408C87.662 469.003 87.2513 468.432 86.9526 467.696C86.6646 466.96 86.5206 466.101 86.5206 465.12C86.5206 464.149 86.6646 463.296 86.9526 462.56C87.2513 461.824 87.662 461.259 88.1846 460.864C88.718 460.459 89.3206 460.256 89.9926 460.256ZM87.6566 465.12C87.6566 465.877 87.7526 466.544 87.9446 467.12C88.1473 467.696 88.4246 468.144 88.7766 468.464C89.1286 468.773 89.534 468.928 89.9926 468.928C90.4513 468.928 90.8566 468.773 91.2086 468.464C91.5713 468.144 91.8486 467.696 92.0406 467.12C92.2433 466.544 92.3446 465.877 92.3446 465.12C92.3446 464.363 92.2433 463.701 92.0406 463.136C91.8486 462.56 91.5713 462.117 91.2086 461.808C90.8566 461.488 90.4513 461.328 89.9926 461.328C89.534 461.328 89.1286 461.488 88.7766 461.808C88.4246 462.117 88.1473 462.56 87.9446 463.136C87.7526 463.701 87.6566 464.363 87.6566 465.12ZM93.2566 463.312C93.3953 463.835 93.4646 464.437 93.4646 465.12C93.4646 465.653 93.4113 466.197 93.3046 466.752H96.5846V463.312H93.2566ZM112.953 467.504V468.48H107.161V473.168H105.977V468.48H100.265V467.504H112.953ZM101.881 459.76H103.065V461.696H110.121V459.76H111.305V465.792H101.881V459.76ZM110.121 464.8V462.672H103.065V464.8H110.121Z" fill="#36393C"/>
<path d="M217.686 465.744V466.72H211.958V468.272C213.292 468.325 214.321 468.565 215.046 468.992C215.782 469.408 216.15 469.979 216.15 470.704C216.15 471.472 215.729 472.069 214.886 472.496C214.044 472.923 212.87 473.136 211.366 473.136C209.862 473.136 208.689 472.923 207.846 472.496C207.004 472.069 206.582 471.472 206.582 470.704C206.582 469.979 206.945 469.408 207.67 468.992C208.406 468.565 209.436 468.325 210.758 468.272V466.72H205.046V465.744H217.686ZM205.766 463.904C206.588 463.819 207.361 463.632 208.086 463.344C208.822 463.056 209.42 462.693 209.878 462.256C210.337 461.808 210.577 461.323 210.598 460.8H206.214V459.84H216.55V460.8H212.15C212.172 461.323 212.412 461.808 212.87 462.256C213.329 462.693 213.921 463.056 214.646 463.344C215.382 463.632 216.161 463.819 216.982 463.904L216.534 464.864C215.35 464.715 214.284 464.389 213.334 463.888C212.396 463.387 211.745 462.757 211.382 462C211.009 462.757 210.348 463.387 209.398 463.888C208.46 464.389 207.398 464.715 206.214 464.864L205.766 463.904ZM207.782 470.704C207.782 471.184 208.097 471.557 208.726 471.824C209.356 472.08 210.236 472.208 211.366 472.208C212.486 472.208 213.361 472.08 213.99 471.824C214.62 471.557 214.934 471.184 214.934 470.704C214.934 470.224 214.62 469.851 213.99 469.584C213.361 469.317 212.486 469.184 211.366 469.184C210.236 469.184 209.356 469.317 208.726 469.584C208.097 469.851 207.782 470.224 207.782 470.704ZM223.767 459.968V461.376C223.767 462.368 224.081 463.275 224.711 464.096C225.351 464.907 226.183 465.488 227.207 465.84L226.551 466.784C225.783 466.496 225.105 466.075 224.519 465.52C223.943 464.965 223.505 464.315 223.207 463.568C222.908 464.411 222.449 465.147 221.831 465.776C221.223 466.405 220.497 466.88 219.655 467.2L219.031 466.224C220.097 465.84 220.956 465.216 221.607 464.352C222.257 463.477 222.583 462.501 222.583 461.424V459.968H223.767ZM221.255 470.512C221.255 469.68 221.671 469.035 222.503 468.576C223.335 468.107 224.476 467.872 225.927 467.872C227.377 467.872 228.513 468.107 229.335 468.576C230.156 469.035 230.567 469.68 230.567 470.512C230.567 471.344 230.156 471.989 229.335 472.448C228.513 472.907 227.377 473.136 225.927 473.136C224.465 473.136 223.319 472.907 222.487 472.448C221.665 471.989 221.255 471.344 221.255 470.512ZM222.471 470.512C222.471 471.035 222.775 471.445 223.383 471.744C224.001 472.043 224.849 472.192 225.927 472.192C226.993 472.192 227.836 472.043 228.455 471.744C229.073 471.445 229.383 471.035 229.383 470.512C229.383 469.989 229.073 469.579 228.455 469.28C227.836 468.981 226.993 468.832 225.927 468.832C224.849 468.832 224.001 468.981 223.383 469.28C222.775 469.579 222.471 469.989 222.471 470.512ZM226.199 462.176H229.303V459.168H230.503V467.456H229.303V463.184H226.199V462.176ZM243.767 459.168V465.136H245.991V466.16H243.767V473.168H242.567V459.168H243.767ZM232.855 469.44C234.498 469.44 235.778 469.424 236.695 469.392V467.84C235.874 467.744 235.218 467.472 234.727 467.024C234.247 466.565 234.007 465.989 234.007 465.296C234.007 464.517 234.311 463.893 234.919 463.424C235.527 462.944 236.316 462.704 237.287 462.704C238.268 462.704 239.063 462.944 239.671 463.424C240.279 463.893 240.583 464.517 240.583 465.296C240.583 465.989 240.338 466.565 239.847 467.024C239.356 467.472 238.706 467.744 237.895 467.84V469.344C239.399 469.269 240.668 469.157 241.703 469.008L241.799 469.888C240.466 470.133 239.1 470.293 237.703 470.368C236.306 470.432 234.754 470.464 233.047 470.464L232.855 469.44ZM233.095 460.88H236.695V459.184H237.895V460.88H241.479V461.856H233.095V460.88ZM235.143 465.296C235.143 465.787 235.34 466.181 235.735 466.48C236.13 466.779 236.647 466.928 237.287 466.928C237.938 466.928 238.46 466.779 238.855 466.48C239.25 466.181 239.447 465.787 239.447 465.296C239.447 464.795 239.25 464.395 238.855 464.096C238.46 463.787 237.938 463.632 237.287 463.632C236.647 463.632 236.13 463.787 235.735 464.096C235.34 464.395 235.143 464.795 235.143 465.296ZM262.479 459.184V467.856H261.327V464.032H259.487V467.632H258.351V459.392H259.487V463.04H261.327V459.184H262.479ZM250.607 460.8H253.615V459.232H254.783V460.8H257.743V461.76H250.607V460.8ZM251.231 464.88C251.231 464.155 251.503 463.579 252.047 463.152C252.591 462.715 253.306 462.496 254.191 462.496C255.076 462.496 255.791 462.715 256.335 463.152C256.89 463.579 257.167 464.155 257.167 464.88C257.167 465.595 256.89 466.171 256.335 466.608C255.791 467.045 255.076 467.264 254.191 467.264C253.306 467.264 252.591 467.045 252.047 466.608C251.503 466.171 251.231 465.595 251.231 464.88ZM251.599 472.096C252.164 471.904 252.66 471.627 253.087 471.264C253.514 470.901 253.839 470.501 254.063 470.064C254.298 469.627 254.415 469.195 254.415 468.768V468.256H255.567V468.768C255.567 469.387 255.738 469.989 256.079 470.576C256.431 471.152 256.922 471.616 257.551 471.968C258.18 471.584 258.671 471.093 259.023 470.496C259.386 469.899 259.567 469.323 259.567 468.768V468.256H260.751V468.768C260.751 469.472 261.007 470.133 261.519 470.752C262.031 471.371 262.719 471.819 263.583 472.096L263.007 472.992C262.324 472.757 261.738 472.416 261.247 471.968C260.756 471.52 260.388 471.003 260.143 470.416C259.919 471.003 259.588 471.536 259.151 472.016C258.724 472.496 258.202 472.864 257.583 473.12C256.932 472.875 256.388 472.523 255.951 472.064C255.514 471.605 255.188 471.077 254.975 470.48C254.708 471.035 254.335 471.536 253.855 471.984C253.375 472.421 252.81 472.757 252.159 472.992L251.599 472.096ZM252.287 464.88C252.287 465.317 252.463 465.675 252.815 465.952C253.167 466.229 253.626 466.368 254.191 466.368C254.756 466.368 255.215 466.229 255.567 465.952C255.919 465.675 256.095 465.317 256.095 464.88C256.095 464.432 255.919 464.075 255.567 463.808C255.215 463.531 254.756 463.392 254.191 463.392C253.626 463.392 253.167 463.531 252.815 463.808C252.463 464.075 252.287 464.432 252.287 464.88ZM268.383 460.256C269.013 460.256 269.578 460.432 270.079 460.784C270.581 461.125 270.986 461.621 271.295 462.272C271.605 462.923 271.786 463.68 271.839 464.544H274.975V459.152H276.159V473.184H274.975V465.504H271.839C271.807 466.411 271.637 467.205 271.327 467.888C271.029 468.56 270.623 469.083 270.111 469.456C269.599 469.819 269.023 470 268.383 470C267.711 470 267.109 469.803 266.575 469.408C266.053 469.003 265.642 468.432 265.343 467.696C265.055 466.96 264.911 466.101 264.911 465.12C264.911 464.149 265.055 463.296 265.343 462.56C265.642 461.824 266.053 461.259 266.575 460.864C267.109 460.459 267.711 460.256 268.383 460.256ZM266.047 465.12C266.047 465.877 266.143 466.544 266.335 467.12C266.538 467.696 266.815 468.144 267.167 468.464C267.519 468.773 267.925 468.928 268.383 468.928C268.842 468.928 269.247 468.773 269.599 468.464C269.951 468.144 270.223 467.696 270.415 467.12C270.618 466.544 270.719 465.877 270.719 465.12C270.719 464.363 270.618 463.701 270.415 463.136C270.223 462.56 269.951 462.117 269.599 461.808C269.247 461.488 268.842 461.328 268.383 461.328C267.925 461.328 267.519 461.488 267.167 461.808C266.815 462.117 266.538 462.56 266.335 463.136C266.143 463.701 266.047 464.363 266.047 465.12ZM281.808 470.352V466.528C281.21 466.219 280.741 465.819 280.4 465.328C280.069 464.827 279.904 464.267 279.904 463.648C279.904 462.933 280.117 462.304 280.544 461.76C280.981 461.216 281.584 460.8 282.352 460.512C283.12 460.213 283.994 460.064 284.976 460.064C285.957 460.064 286.832 460.213 287.6 460.512C288.368 460.8 288.965 461.216 289.392 461.76C289.829 462.304 290.048 462.933 290.048 463.648C290.048 464.256 289.882 464.805 289.552 465.296C289.232 465.787 288.778 466.192 288.192 466.512V470.352H291.344V471.344H278.656V470.352H281.808ZM281.072 463.648C281.072 464.171 281.237 464.629 281.568 465.024C281.898 465.419 282.357 465.728 282.944 465.952C283.541 466.165 284.218 466.272 284.976 466.272C285.733 466.272 286.405 466.165 286.992 465.952C287.589 465.728 288.053 465.419 288.384 465.024C288.725 464.629 288.896 464.171 288.896 463.648C288.896 463.125 288.725 462.667 288.384 462.272C288.053 461.877 287.589 461.573 286.992 461.36C286.405 461.136 285.733 461.024 284.976 461.024C284.218 461.024 283.541 461.136 282.944 461.36C282.357 461.573 281.898 461.877 281.568 462.272C281.237 462.667 281.072 463.125 281.072 463.648ZM286.992 470.352V466.976C286.384 467.136 285.712 467.216 284.976 467.216C284.261 467.216 283.6 467.136 282.992 466.976V470.352H286.992Z" fill="#BDC5CC"/>
<path d="M306 461L311 466L306 471" stroke="#959CA4" stroke-width="2" stroke-linecap="round" stroke-linejoin="round"/>
<path d="M138.871 66.184V70.44H140.951V71.432H138.871V76.44H137.671V66.184H138.871ZM128.631 67.176H129.815V69.56H133.895V67.176H135.079V74.088H128.631V67.176ZM133.895 73.112V70.504H129.815V73.112H133.895ZM130.199 75.464H131.383V78.856H139.511V79.848H130.199V75.464ZM153.464 66.152V80.184H152.28V74.2H149.368V73.224H152.28V70.376H149.464V69.384H152.28V66.152H153.464ZM142.472 67.448H148.568V72.408H143.688V75.896C144.829 75.896 145.858 75.8693 146.776 75.816C147.693 75.752 148.653 75.64 149.656 75.48L149.768 76.488C148.733 76.648 147.746 76.76 146.808 76.824C145.869 76.8773 144.781 76.904 143.544 76.904H142.504V71.416H147.384V68.44H142.472V67.448ZM167.48 66.168V76.6H166.264V73.208H162.504V72.216H166.264V70.056H162.696C162.216 71.1547 161.459 72.12 160.424 72.952C159.4 73.7733 158.168 74.424 156.728 74.904L156.2 73.928C157.864 73.384 159.208 72.616 160.232 71.624C161.267 70.632 161.848 69.5067 161.976 68.248H156.904V67.272H163.272C163.272 67.8693 163.197 68.4667 163.048 69.064H166.264V66.168H167.48ZM158.648 75.592H159.864V78.856H167.816V79.848H158.648V75.592ZM183.936 69.832V66.168H185.136V74.504H183.936V70.824H181.088V69.832H183.936ZM173.712 73.416C174.394 73.1707 175.002 72.808 175.536 72.328C176.069 71.848 176.485 71.2987 176.784 70.68C177.093 70.0507 177.248 69.4053 177.248 68.744V68.2H174.08V67.208H181.552V68.2H178.448V68.744C178.448 69.3413 178.592 69.928 178.88 70.504C179.168 71.0693 179.573 71.5707 180.096 72.008C180.618 72.4453 181.21 72.7813 181.872 73.016L181.248 73.976C180.469 73.688 179.786 73.2667 179.2 72.712C178.613 72.1467 178.17 71.496 177.872 70.76C177.573 71.592 177.114 72.3227 176.496 72.952C175.877 73.5813 175.152 74.056 174.32 74.376L173.712 73.416ZM175.888 77.56C175.888 76.7493 176.298 76.1147 177.12 75.656C177.952 75.1867 179.093 74.952 180.544 74.952C181.984 74.952 183.114 75.1867 183.936 75.656C184.768 76.1147 185.184 76.7493 185.184 77.56C185.184 78.3813 184.773 79.016 183.952 79.464C183.13 79.9227 181.994 80.152 180.544 80.152C179.093 80.152 177.952 79.9227 177.12 79.464C176.298 79.016 175.888 78.3813 175.888 77.56ZM177.088 77.56C177.088 78.072 177.392 78.4773 178 78.776C178.618 79.064 179.466 79.208 180.544 79.208C181.61 79.208 182.453 79.064 183.072 78.776C183.69 78.4773 184 78.072 184 77.56C184 77.0373 183.69 76.632 183.072 76.344C182.453 76.0453 181.61 75.896 180.544 75.896C179.466 75.896 178.618 76.0453 178 76.344C177.392 76.632 177.088 77.0373 177.088 77.56ZM193.36 77.352V74.296H189.152V67.16H190.336V69.688H197.6V67.16H198.784V74.296H194.544V77.352H200.32V78.36H187.632V77.352H193.36ZM197.6 73.32V70.68H190.336V73.32H197.6ZM216.744 66.168V73.672H215.544V66.168H216.744ZM205.624 70.056C205.624 69.4267 205.779 68.872 206.088 68.392C206.397 67.9013 206.829 67.5227 207.384 67.256C207.939 66.9893 208.563 66.856 209.256 66.856C209.949 66.856 210.573 66.9893 211.128 67.256C211.683 67.5227 212.115 67.9013 212.424 68.392C212.733 68.872 212.888 69.4267 212.888 70.056C212.888 70.6853 212.733 71.2453 212.424 71.736C212.115 72.216 211.683 72.5947 211.128 72.872C210.573 73.1387 209.949 73.272 209.256 73.272C208.563 73.272 207.939 73.1387 207.384 72.872C206.829 72.5947 206.397 72.216 206.088 71.736C205.779 71.2453 205.624 70.6853 205.624 70.056ZM206.792 70.056C206.792 70.7067 207.021 71.24 207.48 71.656C207.949 72.0613 208.541 72.264 209.256 72.264C209.971 72.264 210.557 72.0613 211.016 71.656C211.485 71.24 211.72 70.7067 211.72 70.056C211.72 69.4053 211.485 68.8773 211.016 68.472C210.557 68.056 209.971 67.848 209.256 67.848C208.541 67.848 207.949 68.056 207.48 68.472C207.021 68.8773 206.792 69.4053 206.792 70.056ZM207.768 74.392H208.952V76.12H215.56V74.392H216.744V79.976H207.768V74.392ZM215.56 79V77.08H208.952V79H215.56ZM225.864 67.016V70.936H221.064V73.144C222.472 73.144 223.566 73.1227 224.344 73.08C225.123 73.0373 225.907 72.9413 226.696 72.792L226.824 73.768C225.992 73.9173 225.166 74.0133 224.344 74.056C223.523 74.0987 222.36 74.12 220.856 74.12H219.88V69.992H224.68V68.008H219.832V67.016H225.864ZM221.432 75.544H230.776V80.2H229.576V76.52H221.432V75.544ZM226.792 71.16H229.576V69.256H226.792V68.264H229.576V66.184H230.776V74.776H229.576V72.136H226.792V71.16Z" fill="#191919"/>
<path d="M321 66L335 80" stroke="#36393C" stroke-width="2" stroke-linecap="round" stroke-linejoin="round"/>
<path d="M335 66L321 80" stroke="#36393C" stroke-width="2" stroke-linecap="round" stroke-linejoin="round"/>
<g clip-path="url(#clip0_1324_15387)">
<path d="M23.636 72.293C23.4486 72.4805 23.3433 72.7348 23.3433 73C23.3433 73.2652 23.4486 73.5195 23.636 73.707L29.293 79.364C29.4817 79.5462 29.7343 79.6469 29.9964 79.6447C30.2586 79.6424 30.5095 79.5372 30.6949 79.3518C30.8803 79.1664 30.9854 78.9156 30.9877 78.6534C30.99 78.3912 30.8892 78.1386 30.707 77.95L26.757 74H40C40.2653 74 40.5196 73.8946 40.7072 73.7071C40.8947 73.5196 41 73.2652 41 73C41 72.7348 40.8947 72.4804 40.7072 72.2929C40.5196 72.1054 40.2653 72 40 72H26.757L30.707 68.05C30.8892 67.8614 30.99 67.6088 30.9877 67.3466C30.9854 67.0844 30.8803 66.8336 30.6949 66.6482C30.5095 66.4628 30.2586 66.3576 29.9964 66.3553C29.7343 66.353 29.4817 66.4538 29.293 66.636L23.636 72.293Z" fill="#36393C"/>
</g>
<path d="M37.26 142.24V137.82H39.46V148.38H37.26V144.02H34.24V142.24H37.26ZM24.64 146.6C26 146.12 27.0533 145.353 27.8 144.3C28.56 143.233 28.94 142.08 28.94 140.84V140.74H25.24V138.98H34.8V140.74H31.16V140.84C31.16 141.973 31.52 143.027 32.24 144C32.96 144.973 33.98 145.687 35.3 146.14L34.2 147.86C33.24 147.527 32.4133 147.047 31.72 146.42C31.0267 145.78 30.4867 145.027 30.1 144.16C29.7 145.133 29.1267 145.987 28.38 146.72C27.6467 147.44 26.7667 147.98 25.74 148.34L24.64 146.6ZM27.46 152.24C27.46 151.187 28 150.36 29.08 149.76C30.16 149.147 31.6333 148.84 33.5 148.84C35.3667 148.84 36.8333 149.147 37.9 149.76C38.98 150.36 39.52 151.187 39.52 152.24C39.52 153.307 38.98 154.133 37.9 154.72C36.8333 155.32 35.3667 155.62 33.5 155.62C31.62 155.62 30.14 155.32 29.06 154.72C27.9933 154.133 27.46 153.307 27.46 152.24ZM29.66 152.24C29.66 152.787 29.9933 153.207 30.66 153.5C31.3267 153.793 32.2733 153.94 33.5 153.94C34.7267 153.94 35.6733 153.793 36.34 153.5C37.0067 153.207 37.34 152.787 37.34 152.24C37.34 151.68 37.0067 151.253 36.34 150.96C35.6733 150.667 34.7267 150.52 33.5 150.52C32.26 150.52 31.3067 150.667 30.64 150.96C29.9867 151.253 29.66 151.68 29.66 152.24ZM48.3505 151.66V148.18H43.1905V138.98H45.3705V141.88H53.5305V138.98H55.7105V148.18H50.5305V151.66H57.5305V153.46H41.4105V151.66H48.3505ZM53.5305 146.42V143.62H45.3705V146.42H53.5305ZM74.2609 145.92V147.52H58.1409V145.92H74.2609ZM59.9809 148.62H72.3009V152.68H62.2009V153.92H72.8209V155.44H60.0209V151.26H70.1409V150.14H59.9809V148.62ZM60.1409 138.2H72.2409V142.22H62.3209V143.36H72.5809V144.9H60.1809V140.8H70.0809V139.72H60.1409V138.2ZM92.5908 137.78V144.54H95.2908V146.36H92.5908V155.64H90.3708V137.78H92.5908ZM79.4508 139.5H87.7508V141.26H81.6508V149.46C83.1441 149.447 84.4508 149.4 85.5708 149.32C86.7041 149.24 87.8441 149.093 88.9908 148.88L89.2108 150.72C87.9574 150.947 86.7041 151.1 85.4508 151.18C84.2108 151.26 82.6974 151.3 80.9108 151.3H79.4508V139.5ZM102.121 139.26V142.06C102.121 143.167 102.301 144.24 102.661 145.28C103.021 146.32 103.541 147.247 104.221 148.06C104.915 148.86 105.728 149.467 106.661 149.88L105.381 151.66C104.368 151.193 103.495 150.513 102.761 149.62C102.028 148.713 101.455 147.667 101.041 146.48C100.628 147.76 100.041 148.887 99.2813 149.86C98.5346 150.82 97.6346 151.547 96.5813 152.04L95.2613 150.22C96.2079 149.793 97.0279 149.16 97.7212 148.32C98.4279 147.48 98.9679 146.52 99.3413 145.44C99.7146 144.347 99.9013 143.22 99.9013 142.06V139.26H102.121ZM107.921 137.78H110.121V155.64H107.921V137.78ZM129.971 137.82V143.4H132.451V145.22H129.971V151.14H127.771V137.82H129.971ZM116.071 139.78H120.211V137.8H122.411V139.78H126.551V141.52H116.071V139.78ZM116.991 145.68C116.991 145.013 117.171 144.427 117.531 143.92C117.904 143.4 118.418 143 119.071 142.72C119.724 142.44 120.471 142.3 121.311 142.3C122.151 142.3 122.898 142.44 123.551 142.72C124.218 143 124.731 143.4 125.091 143.92C125.464 144.427 125.651 145.013 125.651 145.68C125.651 146.347 125.464 146.94 125.091 147.46C124.731 147.98 124.218 148.38 123.551 148.66C122.898 148.94 122.151 149.08 121.311 149.08C120.471 149.08 119.724 148.94 119.071 148.66C118.418 148.38 117.904 147.98 117.531 147.46C117.171 146.94 116.991 146.347 116.991 145.68ZM118.651 150.1H120.851V153.5H130.691V155.26H118.651V150.1ZM119.091 145.68C119.091 146.213 119.291 146.633 119.691 146.94C120.104 147.233 120.644 147.38 121.311 147.38C121.978 147.38 122.511 147.233 122.911 146.94C123.324 146.633 123.531 146.213 123.531 145.68C123.531 145.147 123.324 144.733 122.911 144.44C122.511 144.133 121.978 143.98 121.311 143.98C120.644 143.98 120.104 144.133 119.691 144.44C119.291 144.733 119.091 145.147 119.091 145.68ZM147.562 137.82V150.96H145.362V144.42H141.842V148.1H133.582V138.98H135.742V141.86H139.682V138.98H141.842V142.64H145.362V137.82H147.562ZM139.682 146.32V143.54H135.742V146.32H139.682ZM135.922 149.68H138.122V153.5H147.962V155.26H135.922V149.68ZM167.351 137.82V143.02H169.751V144.82H167.351V149.86H165.151V137.82H167.351ZM153.191 147.74C155.111 147.74 156.598 147.727 157.651 147.7V146.58C156.665 146.46 155.885 146.173 155.311 145.72C154.751 145.267 154.471 144.693 154.471 144C154.471 143.187 154.851 142.547 155.611 142.08C156.385 141.6 157.418 141.36 158.711 141.36C160.018 141.36 161.058 141.6 161.831 142.08C162.605 142.547 162.991 143.187 162.991 144C162.991 144.693 162.711 145.267 162.151 145.72C161.591 146.16 160.818 146.447 159.831 146.58V147.62C161.538 147.527 163.018 147.393 164.271 147.22L164.451 148.76C162.798 149.053 161.118 149.24 159.411 149.32C157.718 149.4 155.738 149.447 153.471 149.46L153.191 147.74ZM153.651 139.22H157.651V137.66H159.831V139.22H163.791V140.84H153.651V139.22ZM155.431 150.64H167.351V155.62H165.151V152.36H155.431V150.64ZM156.551 144C156.551 144.373 156.745 144.667 157.131 144.88C157.518 145.093 158.045 145.2 158.711 145.2C159.391 145.2 159.925 145.093 160.311 144.88C160.711 144.667 160.911 144.373 160.911 144C160.911 143.627 160.711 143.333 160.311 143.12C159.925 142.907 159.391 142.8 158.711 142.8C158.031 142.8 157.498 142.907 157.111 143.12C156.738 143.333 156.551 143.627 156.551 144ZM184.802 137.82V150.68H182.602V137.82H184.802ZM170.402 143.46C170.402 142.607 170.609 141.84 171.022 141.16C171.449 140.467 172.022 139.933 172.742 139.56C173.475 139.173 174.282 138.98 175.162 138.98C176.055 138.98 176.862 139.173 177.582 139.56C178.315 139.933 178.889 140.467 179.302 141.16C179.715 141.84 179.922 142.607 179.922 143.46C179.922 144.3 179.715 145.06 179.302 145.74C178.889 146.42 178.315 146.953 177.582 147.34C176.862 147.727 176.055 147.92 175.162 147.92C174.282 147.92 173.475 147.727 172.742 147.34C172.022 146.953 171.449 146.42 171.022 145.74C170.609 145.06 170.402 144.3 170.402 143.46ZM172.542 143.46C172.542 144.22 172.789 144.833 173.282 145.3C173.789 145.767 174.415 146 175.162 146C175.909 146 176.529 145.767 177.022 145.3C177.529 144.833 177.782 144.22 177.782 143.46C177.782 142.687 177.535 142.067 177.042 141.6C176.549 141.12 175.922 140.88 175.162 140.88C174.402 140.88 173.775 141.12 173.282 141.6C172.789 142.067 172.542 142.687 172.542 143.46ZM173.122 149.4H175.302V153.5H185.282V155.26H173.122V149.4ZM190.052 140.64V138.28H192.212V140.64H195.432V142.38H186.792V140.64H190.052ZM187.272 147.5C187.272 146.7 187.439 145.987 187.772 145.36C188.106 144.72 188.566 144.227 189.152 143.88C189.739 143.52 190.399 143.34 191.132 143.34C191.879 143.34 192.546 143.52 193.132 143.88C193.719 144.227 194.179 144.72 194.512 145.36C194.846 145.987 195.012 146.7 195.012 147.5C195.012 148.313 194.846 149.04 194.512 149.68C194.179 150.307 193.719 150.8 193.132 151.16C192.546 151.507 191.879 151.68 191.132 151.68C190.399 151.68 189.739 151.507 189.152 151.16C188.566 150.8 188.106 150.307 187.772 149.68C187.439 149.04 187.272 148.313 187.272 147.5ZM189.212 147.5C189.212 148.207 189.386 148.773 189.732 149.2C190.092 149.627 190.559 149.84 191.132 149.84C191.706 149.84 192.172 149.627 192.532 149.2C192.892 148.773 193.072 148.207 193.072 147.5C193.072 146.793 192.892 146.227 192.532 145.8C192.172 145.373 191.706 145.16 191.132 145.16C190.572 145.16 190.112 145.373 189.752 145.8C189.392 146.227 189.212 146.793 189.212 147.5ZM196.152 138.18H198.212V145.14H199.932V137.8H202.012V155.6H199.932V146.92H198.212V154.8H196.152V138.18ZM219.663 147.76V149.54H212.663V155.64H210.463V149.54H203.563V147.76H219.663ZM204.403 144.82C205.536 144.673 206.543 144.393 207.423 143.98C208.303 143.553 208.996 143.04 209.503 142.44C210.009 141.84 210.289 141.213 210.343 140.56H205.023V138.8H218.163V140.56H212.883C212.936 141.213 213.216 141.84 213.723 142.44C214.229 143.04 214.923 143.553 215.803 143.98C216.683 144.393 217.689 144.673 218.823 144.82L218.003 146.58C216.523 146.367 215.223 145.927 214.103 145.26C212.983 144.593 212.149 143.773 211.603 142.8C211.069 143.76 210.243 144.58 209.123 145.26C208.003 145.927 206.703 146.367 205.223 146.58L204.403 144.82ZM229.773 143.94V138.14H231.833V154.76H229.773V145.74H227.293V143.94H229.773ZM219.973 150.3C221.187 149.58 222.107 148.513 222.733 147.1C223.36 145.687 223.673 144.167 223.673 142.54V139.42H225.793V142.46C225.793 144.007 226.073 145.447 226.633 146.78C227.193 148.1 228.04 149.127 229.173 149.86L227.953 151.56C226.487 150.667 225.42 149.147 224.753 147C224.433 148.093 223.987 149.067 223.413 149.92C222.84 150.773 222.147 151.453 221.333 151.96L219.973 150.3ZM233.393 137.8H235.493V155.6H233.393V137.8ZM240.724 151.66V147.12C240.004 146.707 239.45 146.187 239.064 145.56C238.677 144.933 238.484 144.233 238.484 143.46C238.484 142.527 238.764 141.707 239.324 141C239.897 140.28 240.677 139.727 241.664 139.34C242.664 138.953 243.797 138.76 245.064 138.76C246.33 138.76 247.464 138.953 248.464 139.34C249.464 139.727 250.244 140.28 250.804 141C251.364 141.707 251.644 142.527 251.644 143.46C251.644 144.233 251.45 144.933 251.064 145.56C250.677 146.187 250.13 146.707 249.424 147.12V151.66H253.144V153.44H237.024V151.66H240.724ZM240.644 143.46C240.644 144.38 241.044 145.107 241.844 145.64C242.657 146.173 243.73 146.44 245.064 146.44C246.397 146.44 247.464 146.173 248.264 145.64C249.077 145.107 249.484 144.38 249.484 143.46C249.484 142.553 249.077 141.833 248.264 141.3C247.45 140.753 246.384 140.48 245.064 140.48C243.744 140.48 242.677 140.753 241.864 141.3C241.05 141.833 240.644 142.553 240.644 143.46ZM247.224 151.66V147.94C246.53 148.087 245.81 148.16 245.064 148.16C244.33 148.16 243.617 148.087 242.924 147.94V151.66H247.224Z" fill="#36393C"/>
<rect x="24" y="99" width="48" height="4" rx="2" fill="#40C97F"/>
<rect x="77" y="99" width="48" height="4" rx="2" fill="#40C97F"/>
<rect x="130" y="99" width="48" height="4" rx="2" fill="#40C97F"/>
<rect x="183" y="99" width="48" height="4" rx="2" fill="#40C97F"/>
<rect x="236" y="99" width="48" height="4" rx="2" fill="#40C97F"/>
<rect x="289" y="99" width="48" height="4" rx="2" fill="#CDD2D8"/>
<rect x="82" y="658" width="188" height="27" rx="13.5" fill="#B2E9CC"/>
<path d="M105.982 666.328H107.158V669.448H108.658V670.42H107.158V674.116H105.982V666.328ZM100.462 673.36H101.638V675.76H107.602V676.72H100.462V673.36ZM99.2736 667.072H100.438V668.764H103.09V667.072H104.254V672.388H99.2736V667.072ZM100.438 669.676V671.44H103.09V669.676H100.438ZM116.962 666.304H118.138V676.948H116.962V672.532H114.946V671.584H116.962V669.628H114.994V668.668H116.962V666.304ZM109.702 667.252H114.382V671.164H110.89V673.54C112.342 673.528 113.602 673.48 115.078 673.252L115.174 674.224C113.554 674.476 112.198 674.524 110.542 674.524H109.726V670.216H113.218V668.2H109.702V667.252ZM127.45 666.316H128.638V674.188H127.45V671.788H124.798V670.828H127.45V669.4H124.954C124.21 671.056 122.626 672.292 120.49 672.988L119.986 672.04C122.362 671.272 123.934 669.844 124.162 668.08H120.538V667.132H125.434C125.434 667.588 125.386 668.02 125.29 668.44H127.45V666.316ZM121.822 673.432H123.01V675.76H128.89V676.72H121.822V673.432ZM140.668 666.316H141.844V676.936H140.668V666.316ZM138.712 667.432C138.712 670.576 137.44 673.252 133.792 675.028L133.18 674.092C135.976 672.748 137.284 670.864 137.5 668.392H133.684V667.432H138.712ZM144.844 666.724H146.008V667.936H150.76V666.724H151.936V670.996H148.96V672.052H153.172V673H143.584V672.052H147.784V670.996H144.844V666.724ZM146.008 668.86V670.072H150.76V668.86H146.008ZM144.796 673.768H145.972V675.772H152.104V676.732H144.796V673.768ZM162.526 669.004H164.446V666.316H165.622V672.628H164.446V669.964H162.526V669.004ZM162.094 672.928C164.302 672.928 165.658 673.684 165.658 674.932C165.658 676.204 164.302 676.936 162.094 676.936C159.874 676.936 158.506 676.204 158.506 674.932C158.506 673.684 159.874 672.928 162.094 672.928ZM162.094 673.828C160.57 673.828 159.694 674.224 159.694 674.932C159.694 675.628 160.57 676.024 162.094 676.024C163.594 676.024 164.494 675.628 164.494 674.932C164.494 674.224 163.594 673.828 162.094 673.828ZM157.174 667.048H162.862V667.996H160.63V668.176C160.63 669.496 161.542 670.804 163.138 671.356L162.55 672.292C161.374 671.872 160.522 671.044 160.066 670.012C159.598 671.188 158.686 672.124 157.426 672.58L156.838 671.644C158.47 671.068 159.442 669.64 159.442 668.176V667.996H157.174V667.048ZM167.327 674.656H171.539V672.496H168.419V667.036H169.583V668.824H174.671V667.036H175.835V672.496H172.703V674.656H176.951V675.628H167.327V674.656ZM169.583 669.772V671.548H174.671V669.772H169.583ZM184.847 666.304H186.035V670.528H187.655V671.5H186.035V676.936H184.847V666.304ZM183.263 667.432C183.263 670.516 181.943 673.24 178.475 674.98L177.815 674.08C180.431 672.748 181.847 670.852 182.075 668.392H178.343V667.432H183.263ZM198.689 666.304H199.853V676.948H198.689V671.08H196.553V670.12H198.689V666.304ZM191.345 667.372H197.165V668.332H194.849V669.244C194.849 671.056 195.929 673 197.561 673.744L196.865 674.68C195.653 674.08 194.741 672.868 194.261 671.44C193.793 672.964 192.857 674.26 191.633 674.896L190.949 673.96C192.569 673.18 193.661 671.164 193.661 669.244V668.332H191.345V667.372ZM201.809 667.072H207.509V668.032H205.265V668.248C205.265 669.58 206.165 670.816 207.785 671.344L207.209 672.256C206.033 671.872 205.169 671.092 204.701 670.096C204.245 671.248 203.333 672.16 202.073 672.592L201.473 671.668C203.129 671.092 204.089 669.712 204.089 668.26V668.032H201.809V667.072ZM208.661 666.316H209.837V668.92H211.349V669.892H209.837V672.676H208.661V666.316ZM206.429 672.928C208.601 672.928 209.957 673.66 209.957 674.92C209.957 676.18 208.601 676.924 206.429 676.924C204.257 676.924 202.901 676.18 202.901 674.92C202.901 673.66 204.257 672.928 206.429 672.928ZM206.429 673.864C204.941 673.864 204.053 674.236 204.053 674.92C204.053 675.616 204.941 676.012 206.429 676.012C207.917 676.012 208.793 675.616 208.793 674.92C208.793 674.236 207.917 673.864 206.429 673.864ZM212.825 667.3H218.249V668.248H214.001V670.78H218.297V671.74H216.113V673.684C217.073 673.648 218.033 673.588 218.933 673.48L219.017 674.332C216.713 674.692 214.241 674.74 212.225 674.728L212.081 673.756C212.969 673.756 213.941 673.744 214.937 673.72V671.74H212.825V667.3ZM219.581 666.304H220.757V676.948H219.581V666.304ZM225.174 672.736H226.314V673.276C226.314 674.188 226.746 675.16 227.682 675.76C228.642 675.112 229.086 674.092 229.086 673.276V672.736H230.238V673.276C230.238 674.392 230.934 675.484 232.314 675.94L231.714 676.804C230.694 676.432 229.998 675.724 229.638 674.848C229.314 675.7 228.69 676.492 227.706 676.9C226.71 676.504 226.074 675.772 225.738 674.908C225.366 675.736 224.682 676.432 223.698 676.804L223.11 675.94C224.466 675.436 225.174 674.32 225.174 673.276V672.736ZM225.45 666.892C226.83 666.892 227.91 667.708 228.15 668.896H230.154V666.316H231.33V672.328H230.154V669.868H228.162C227.934 671.092 226.854 671.908 225.45 671.908C223.866 671.908 222.702 670.876 222.702 669.4C222.702 667.936 223.866 666.892 225.45 666.892ZM225.45 667.876C224.502 667.876 223.818 668.488 223.818 669.4C223.818 670.324 224.502 670.936 225.45 670.936C226.386 670.936 227.07 670.324 227.07 669.4C227.07 668.488 226.386 667.876 225.45 667.876ZM235.866 667.096C237.306 667.096 238.362 668.32 238.53 670.276H240.642V666.304H241.818V676.948H240.642V671.224H238.542C238.422 673.3 237.342 674.584 235.866 674.584C234.318 674.584 233.19 673.132 233.19 670.828C233.19 668.548 234.318 667.096 235.866 667.096ZM235.866 668.164C234.954 668.164 234.306 669.172 234.306 670.828C234.306 672.496 234.954 673.516 235.866 673.516C236.814 673.516 237.438 672.496 237.438 670.828C237.438 669.172 236.814 668.164 235.866 668.164ZM243.51 674.656H245.778V671.884C244.926 671.404 244.41 670.636 244.41 669.7C244.41 668.008 246.054 666.916 248.31 666.916C250.578 666.916 252.21 668.008 252.21 669.7C252.21 670.636 251.706 671.392 250.854 671.884V674.656H253.134V675.616H243.51V674.656ZM248.31 667.852C246.69 667.852 245.562 668.56 245.562 669.7C245.562 670.84 246.69 671.548 248.31 671.548C249.918 671.548 251.058 670.84 251.058 669.7C251.058 668.56 249.918 667.852 248.31 667.852ZM246.954 674.656H249.678V672.328C249.258 672.424 248.802 672.472 248.31 672.472C247.83 672.472 247.374 672.424 246.954 672.328V674.656Z" fill="#26784C"/>
<path d="M176 694L170.371 684.25H181.629L176 694Z" fill="#B2E9CC"/>
<rect x="24" y="707" width="312" height="57" rx="8" fill="#40C97F"/>
<path d="M161.831 727.456V733.594H164.315V735.07H161.831V743.422H160.049V727.456H161.831ZM150.149 729.004H157.565V730.426H151.913V738.022C153.353 738.01 154.583 737.968 155.603 737.896C156.635 737.824 157.673 737.692 158.717 737.5L158.897 738.976C157.745 739.192 156.605 739.336 155.477 739.408C154.361 739.48 153.011 739.516 151.427 739.516H150.149V729.004ZM172.216 727.816C173.968 727.816 175.348 728.086 176.356 728.626C177.376 729.166 177.886 729.91 177.886 730.858C177.886 731.806 177.376 732.55 176.356 733.09C175.348 733.63 173.968 733.9 172.216 733.9C170.464 733.9 169.078 733.63 168.058 733.09C167.05 732.55 166.546 731.806 166.546 730.858C166.546 729.91 167.05 729.166 168.058 728.626C169.078 728.086 170.464 727.816 172.216 727.816ZM165.016 735.088H179.398V736.51H165.016V735.088ZM166.744 737.896H177.652V743.206H166.744V737.896ZM168.364 730.858C168.364 731.386 168.7 731.794 169.372 732.082C170.056 732.37 171.004 732.514 172.216 732.514C173.416 732.514 174.352 732.37 175.024 732.082C175.708 731.794 176.05 731.386 176.05 730.858C176.05 730.318 175.714 729.91 175.042 729.634C174.37 729.346 173.428 729.202 172.216 729.202C170.992 729.202 170.044 729.346 169.372 729.634C168.7 729.91 168.364 730.318 168.364 730.858ZM175.924 741.802V739.3H168.472V741.802H175.924ZM187.748 728.392C188.852 728.392 189.848 728.578 190.736 728.95C191.624 729.322 192.32 729.85 192.824 730.534C193.34 731.206 193.598 731.98 193.598 732.856C193.598 733.744 193.34 734.53 192.824 735.214C192.32 735.886 191.624 736.408 190.736 736.78C189.848 737.152 188.852 737.338 187.748 737.338C186.644 737.338 185.648 737.152 184.76 736.78C183.872 736.408 183.17 735.886 182.654 735.214C182.15 734.53 181.898 733.744 181.898 732.856C181.898 731.98 182.15 731.206 182.654 730.534C183.17 729.85 183.872 729.322 184.76 728.95C185.648 728.578 186.644 728.392 187.748 728.392ZM180.548 739.894H194.984V741.352H180.548V739.894ZM183.608 732.856C183.608 733.468 183.782 734.002 184.13 734.458C184.49 734.914 184.982 735.268 185.606 735.52C186.242 735.76 186.956 735.88 187.748 735.88C188.54 735.88 189.248 735.76 189.872 735.52C190.496 735.268 190.982 734.914 191.33 734.458C191.69 734.002 191.87 733.468 191.87 732.856C191.87 732.256 191.69 731.728 191.33 731.272C190.982 730.816 190.496 730.462 189.872 730.21C189.248 729.958 188.54 729.832 187.748 729.832C186.956 729.832 186.242 729.958 185.606 730.21C184.982 730.462 184.49 730.816 184.13 731.272C183.782 731.728 183.608 732.256 183.608 732.856ZM202.398 740.056V737.302H197.826V732.19H207.042V729.994H197.79V728.59H208.788V733.594H199.572V735.88H209.148V737.302H204.144V740.056H210.516V741.496H196.08V740.056H202.398Z" fill="white"/>
<defs>
<clipPath id="clip0_1324_15387">
<rect width="24" height="24" fill="white" transform="translate(20 61)"/>
</clipPath>
</defs>
</svg>
