<svg width="312" height="50" viewBox="0 0 312 50" fill="none" xmlns="http://www.w3.org/2000/svg">
<rect x="0.5" y="0.5" width="311" height="49" rx="7.5" fill="white"/>
<rect x="0.5" y="0.5" width="311" height="49" rx="7.5" stroke="#4F5357"/>
<path fill-rule="evenodd" clip-rule="evenodd" d="M22.7502 16.667C21.6207 16.6671 20.5076 16.9373 19.5038 17.4551C18.4999 17.9728 17.6345 18.7232 16.9796 19.6435C16.3247 20.5637 15.8994 21.6273 15.7391 22.7454C15.5789 23.8634 15.6883 25.0036 16.0584 26.0708C16.4284 27.138 17.0483 28.1012 17.8662 28.8801C18.6842 29.659 19.6766 30.231 20.7606 30.5483C21.8446 30.8657 22.9888 30.9192 24.0977 30.7044C25.2066 30.4896 26.2481 30.0128 27.1352 29.3137L30.1785 32.357C30.3357 32.5088 30.5462 32.5928 30.7647 32.5909C30.9832 32.589 31.1922 32.5013 31.3467 32.3468C31.5012 32.1923 31.5889 31.9833 31.5908 31.7648C31.5927 31.5463 31.5087 31.3358 31.3569 31.1787L28.3135 28.1353C29.1369 27.0908 29.6495 25.8357 29.7928 24.5134C29.9361 23.1912 29.7042 21.8553 29.1237 20.6587C28.5433 19.4621 27.6376 18.4531 26.5105 17.7472C25.3833 17.0412 24.0802 16.6669 22.7502 16.667ZM17.3335 23.7503C17.3335 22.3137 17.9042 20.936 18.92 19.9202C19.9359 18.9043 21.3136 18.3337 22.7502 18.3337C24.1868 18.3337 25.5646 18.9043 26.5804 19.9202C27.5962 20.936 28.1669 22.3137 28.1669 23.7503C28.1669 25.1869 27.5962 26.5647 26.5804 27.5805C25.5646 28.5963 24.1868 29.167 22.7502 29.167C21.3136 29.167 19.9359 28.5963 18.92 27.5805C17.9042 26.5647 17.3335 25.1869 17.3335 23.7503Z" fill="#4F5357"/>
<path d="M55.792 19.08C55.792 22.584 53.296 25.096 49.28 26.248L48.784 25.304C52.128 24.36 54.256 22.488 54.496 20.056H49.504V19.08H55.792ZM51.12 31.96V26.76H60.128V31.96H51.12ZM52.288 30.984H58.944V27.736H52.288V30.984ZM55.808 22.808V21.8H58.928V18.168H60.128V26.168H58.928V22.808H55.808ZM65.5844 19.016H66.7364V20.92C66.7364 22.504 67.8084 24.12 69.6004 24.84L68.9604 25.768C67.6324 25.208 66.6724 24.168 66.1764 22.92C65.6644 24.28 64.6724 25.496 63.2964 26.12L62.6404 25.176C64.4644 24.36 65.5844 22.504 65.5844 20.92V19.016ZM65.0244 28.408V27.432H74.4004V32.168H73.2004V28.408H65.0244ZM70.2404 26.552V18.424H71.3764V21.848H73.2484V18.184H74.4004V26.632H73.2484V22.84H71.3764V26.552H70.2404ZM80.3208 19.256C82.2248 19.256 83.6008 20.904 83.7768 23.544H86.9128V18.152H88.0968V32.184H86.9128V24.504H83.7768C83.6648 27.256 82.2568 29 80.3208 29C78.2888 29 76.8488 27.096 76.8488 24.12C76.8488 21.144 78.2888 19.256 80.3208 19.256ZM77.9848 24.12C77.9848 26.408 78.9448 27.928 80.3208 27.928C81.7128 27.928 82.6568 26.408 82.6568 24.12C82.6568 21.832 81.7128 20.328 80.3208 20.328C78.9448 20.328 77.9848 21.832 77.9848 24.12ZM104.521 18.168H105.721V25.672H104.521V18.168ZM94.6006 22.056C94.6006 20.152 96.1206 18.856 98.2326 18.856C100.345 18.856 101.865 20.152 101.865 22.056C101.865 23.96 100.345 25.272 98.2326 25.272C96.1206 25.272 94.6006 23.96 94.6006 22.056ZM95.7686 22.056C95.7686 23.352 96.8086 24.264 98.2326 24.264C99.6566 24.264 100.697 23.352 100.697 22.056C100.697 20.76 99.6566 19.848 98.2326 19.848C96.8086 19.848 95.7686 20.76 95.7686 22.056ZM96.7446 31.976V26.392H97.9286V28.12H104.537V26.392H105.721V31.976H96.7446ZM97.9286 31H104.537V29.08H97.9286V31ZM108.809 19.016H114.841V22.936H110.041V25.144C112.681 25.144 114.025 25.096 115.673 24.792L115.801 25.768C114.057 26.072 112.665 26.12 109.833 26.12H108.857V21.992H113.657V20.008H108.809V19.016ZM110.409 28.52V27.544H119.753V32.2H118.553V28.52H110.409ZM115.769 24.136V23.16H118.553V21.256H115.769V20.264H118.553V18.184H119.753V26.776H118.553V24.136H115.769ZM125.937 24.744H138.577V25.72H132.849V27.272C135.489 27.384 137.041 28.232 137.041 29.704C137.041 31.256 135.249 32.136 132.257 32.136C129.265 32.136 127.473 31.256 127.473 29.704C127.473 28.232 129.025 27.384 131.649 27.272V25.72H125.937V24.744ZM126.657 22.904C129.073 22.648 131.425 21.416 131.489 19.8H127.105V18.84H137.441V19.8H133.041C133.105 21.416 135.441 22.648 137.873 22.904L137.425 23.864C135.169 23.576 133.025 22.568 132.273 21C131.505 22.568 129.361 23.576 127.105 23.864L126.657 22.904ZM128.673 29.704C128.673 30.664 130.017 31.208 132.257 31.208C134.481 31.208 135.825 30.664 135.825 29.704C135.825 28.728 134.481 28.184 132.257 28.184C130.017 28.184 128.673 28.728 128.673 29.704Z" fill="white"/>
</svg>
