<svg width="24" height="24" viewBox="0 0 24 24" fill="none" xmlns="http://www.w3.org/2000/svg">
<path fill-rule="evenodd" clip-rule="evenodd" d="M10.7502 3.66699C9.6207 3.66709 8.5076 3.9373 7.50376 4.45507C6.49992 4.97285 5.63446 5.72317 4.97957 6.64345C4.32469 7.56373 3.89939 8.62728 3.73913 9.74536C3.57888 10.8634 3.68834 12.0036 4.05836 13.0708C4.42838 14.138 5.04825 15.1012 5.86624 15.8801C6.68423 16.659 7.67663 17.231 8.76064 17.5483C9.84465 17.8657 10.9888 17.9192 12.0977 17.7044C13.2066 17.4896 14.2481 17.0128 15.1352 16.3137L18.1785 19.357C18.3357 19.5088 18.5462 19.5928 18.7647 19.5909C18.9832 19.589 19.1922 19.5013 19.3467 19.3468C19.5012 19.1923 19.5889 18.9833 19.5908 18.7648C19.5927 18.5463 19.5087 18.3358 19.3569 18.1787L16.3135 15.1353C17.1369 14.0908 17.6495 12.8357 17.7928 11.5134C17.9361 10.1912 17.7042 8.85534 17.1237 7.65874C16.5433 6.46213 15.6376 5.45312 14.5105 4.74718C13.3833 4.04125 12.0802 3.6669 10.7502 3.66699ZM5.33354 10.7503C5.33354 9.31374 5.90423 7.93599 6.92005 6.92016C7.93587 5.90434 9.31362 5.33366 10.7502 5.33366C12.1868 5.33366 13.5646 5.90434 14.5804 6.92016C15.5962 7.93599 16.1669 9.31374 16.1669 10.7503C16.1669 12.1869 15.5962 13.5647 14.5804 14.5805C13.5646 15.5963 12.1868 16.167 10.7502 16.167C9.31362 16.167 7.93587 15.5963 6.92005 14.5805C5.90423 13.5647 5.33354 12.1869 5.33354 10.7503Z" fill="#4F5357"/>
</svg>
