<svg width="312" height="50" viewBox="0 0 312 50" fill="none" xmlns="http://www.w3.org/2000/svg">
<rect x="0.5" y="0.5" width="311" height="49" rx="7.5" fill="white"/>
<rect x="0.5" y="0.5" width="311" height="49" rx="7.5" stroke="#ECEEF0"/>
<path fill-rule="evenodd" clip-rule="evenodd" d="M22.7502 16.667C21.6207 16.6671 20.5076 16.9373 19.5038 17.4551C18.4999 17.9728 17.6345 18.7232 16.9796 19.6435C16.3247 20.5637 15.8994 21.6273 15.7391 22.7454C15.5789 23.8634 15.6883 25.0036 16.0584 26.0708C16.4284 27.138 17.0483 28.1012 17.8662 28.8801C18.6842 29.659 19.6766 30.231 20.7606 30.5483C21.8446 30.8657 22.9888 30.9192 24.0977 30.7044C25.2066 30.4896 26.2481 30.0128 27.1352 29.3137L30.1785 32.357C30.3357 32.5088 30.5462 32.5928 30.7647 32.5909C30.9832 32.589 31.1922 32.5013 31.3467 32.3468C31.5012 32.1923 31.5889 31.9833 31.5908 31.7648C31.5927 31.5463 31.5087 31.3358 31.3569 31.1787L28.3135 28.1353C29.1369 27.0908 29.6495 25.8357 29.7928 24.5134C29.9361 23.1912 29.7042 21.8553 29.1237 20.6587C28.5433 19.4621 27.6376 18.4531 26.5105 17.7472C25.3833 17.0412 24.0802 16.6669 22.7502 16.667ZM17.3335 23.7503C17.3335 22.3137 17.9042 20.936 18.92 19.9202C19.9359 18.9043 21.3136 18.3337 22.7502 18.3337C24.1868 18.3337 25.5646 18.9043 26.5804 19.9202C27.5962 20.936 28.1669 22.3137 28.1669 23.7503C28.1669 25.1869 27.5962 26.5647 26.5804 27.5805C25.5646 28.5963 24.1868 29.167 22.7502 29.167C21.3136 29.167 19.9359 28.5963 18.92 27.5805C17.9042 26.5647 17.3335 25.1869 17.3335 23.7503Z" fill="#4F5357"/>
<path d="M55.792 19.08C55.792 22.584 53.296 25.096 49.28 26.248L48.784 25.304C52.128 24.36 54.256 22.488 54.496 20.056H49.504V19.08H55.792ZM51.12 31.96V26.76H60.128V31.96H51.12ZM52.288 30.984H58.944V27.736H52.288V30.984ZM55.808 22.808V21.8H58.928V18.168H60.128V26.168H58.928V22.808H55.808ZM65.5844 19.016H66.7364V20.92C66.7364 22.504 67.8084 24.12 69.6004 24.84L68.9604 25.768C67.6324 25.208 66.6724 24.168 66.1764 22.92C65.6644 24.28 64.6724 25.496 63.2964 26.12L62.6404 25.176C64.4644 24.36 65.5844 22.504 65.5844 20.92V19.016ZM65.0244 28.408V27.432H74.4004V32.168H73.2004V28.408H65.0244ZM70.2404 26.552V18.424H71.3764V21.848H73.2484V18.184H74.4004V26.632H73.2484V22.84H71.3764V26.552H70.2404ZM80.3208 19.256C82.2248 19.256 83.6008 20.904 83.7768 23.544H86.9128V18.152H88.0968V32.184H86.9128V24.504H83.7768C83.6648 27.256 82.2568 29 80.3208 29C78.2888 29 76.8488 27.096 76.8488 24.12C76.8488 21.144 78.2888 19.256 80.3208 19.256ZM77.9848 24.12C77.9848 26.408 78.9448 27.928 80.3208 27.928C81.7128 27.928 82.6568 26.408 82.6568 24.12C82.6568 21.832 81.7128 20.328 80.3208 20.328C78.9448 20.328 77.9848 21.832 77.9848 24.12ZM90.5931 24.712H103.281V25.624H90.5931V24.712ZM92.1131 27.672V26.792H101.681V29.752H93.3291V31.096H102.129V31.992H92.1451V28.904H100.513V27.672H92.1131ZM92.2091 19.48V18.6H101.633V21.48H93.4091V22.728H101.889V23.624H92.2411V20.648H100.449V19.48H92.2091ZM118.505 18.168H119.705V25.672H118.505V18.168ZM108.585 22.056C108.585 20.152 110.105 18.856 112.217 18.856C114.329 18.856 115.849 20.152 115.849 22.056C115.849 23.96 114.329 25.272 112.217 25.272C110.105 25.272 108.585 23.96 108.585 22.056ZM109.753 22.056C109.753 23.352 110.793 24.264 112.217 24.264C113.641 24.264 114.681 23.352 114.681 22.056C114.681 20.76 113.641 19.848 112.217 19.848C110.793 19.848 109.753 20.76 109.753 22.056ZM110.729 31.976V26.392H111.913V28.12H118.521V26.392H119.705V31.976H110.729ZM111.913 31H118.521V29.08H111.913V31ZM122.793 19.016H128.825V22.936H124.025V25.144C126.665 25.144 128.009 25.096 129.657 24.792L129.785 25.768C128.041 26.072 126.649 26.12 123.817 26.12H122.841V21.992H127.641V20.008H122.793V19.016ZM124.393 28.52V27.544H133.737V32.2H132.537V28.52H124.393ZM129.753 24.136V23.16H132.537V21.256H129.753V20.264H132.537V18.184H133.737V26.776H132.537V24.136H129.753ZM136.202 20.6H139.098V18.568H140.282V20.6H143.162V21.576H136.202V20.6ZM136.698 25.72C136.698 23.864 137.946 22.552 139.69 22.552C141.434 22.552 142.698 23.864 142.698 25.72C142.698 27.608 141.434 28.904 139.69 28.904C137.946 28.904 136.698 27.608 136.698 25.72ZM137.77 25.72C137.77 26.984 138.57 27.88 139.69 27.88C140.81 27.88 141.626 26.984 141.626 25.72C141.626 24.472 140.81 23.56 139.69 23.56C138.57 23.56 137.77 24.472 137.77 25.72ZM143.898 31.464V18.504H145.034V24.088H146.906V18.168H148.042V32.168H146.906V25.08H145.034V31.464H143.898ZM150.218 26.184H162.874V27.176H157.114V32.168H155.93V27.176H150.218V26.184ZM150.986 23.992C153.37 23.64 155.882 22.04 155.882 20.152V20.04H151.418V19.064H161.642V20.04H157.21V20.152C157.21 22.04 159.722 23.64 162.106 23.992L161.642 24.968C159.514 24.6 157.386 23.416 156.554 21.72C155.706 23.416 153.578 24.6 151.45 24.968L150.986 23.992ZM169.707 23.208H172.075V18.488H173.195V31.448H172.075V24.216H169.707V23.208ZM164.043 28.232C165.947 27.112 167.147 24.6 167.147 22.2V19.512H168.299V22.168C168.299 24.392 169.403 26.792 171.243 27.896L170.539 28.824C169.195 28.024 168.235 26.504 167.739 24.808C167.227 26.664 166.187 28.28 164.795 29.128L164.043 28.232ZM174.923 32.168V18.168H176.075V32.168H174.923ZM178.187 29.352H181.339V25.528C180.155 24.92 179.435 23.912 179.435 22.648C179.435 20.472 181.563 19.064 184.507 19.064C187.483 19.064 189.579 20.472 189.579 22.648C189.579 23.896 188.875 24.888 187.723 25.512V29.352H190.875V30.344H178.187V29.352ZM180.603 22.648C180.603 24.232 182.235 25.272 184.507 25.272C186.779 25.272 188.427 24.232 188.427 22.648C188.427 21.064 186.779 20.024 184.507 20.024C182.235 20.024 180.603 21.064 180.603 22.648ZM182.523 29.352H186.523V25.976C185.915 26.136 185.243 26.216 184.507 26.216C183.787 26.216 183.131 26.136 182.523 25.976V29.352Z" fill="#959CA4"/>
</svg>
