<svg width="312" height="451" viewBox="0 0 312 451" fill="none" xmlns="http://www.w3.org/2000/svg">
<path fill-rule="evenodd" clip-rule="evenodd" d="M200.694 249.026C210.329 235.584 216 219.109 216 201.31C216 156.022 179.287 119.31 134 119.31C88.7127 119.31 52 156.022 52 201.31C52 234.604 71.8431 263.264 100.348 276.108C115.907 267.409 134.102 260.316 154.18 255.525C170.329 251.671 185.995 249.528 200.694 249.026Z" fill="#D9F4E5"/>
<mask id="mask0_2014_17638" style="mask-type:alpha" maskUnits="userSpaceOnUse" x="0" y="0" width="312" height="451">
<rect y="0.30957" width="312" height="450" rx="16" fill="#D9D9D9"/>
</mask>
<g mask="url(#mask0_2014_17638)">
<rect x="145.827" y="163.707" width="26.1138" height="71.3721" rx="13.0569" transform="rotate(95.7697 145.827 163.707)" fill="#FAFAFC" stroke="#40C97F" stroke-width="4"/>
<path d="M110.722 160.534C110.909 160.327 111.034 160.236 111.097 160.199L132.515 162.363C139.69 163.088 144.919 169.492 144.194 176.666C143.469 183.841 137.065 189.069 129.89 188.344L110.125 186.347L110.125 186.347L108.471 186.18C108.418 186.131 108.314 186.017 108.171 185.776C107.846 185.228 107.511 184.321 107.247 183.034C106.724 180.486 106.573 176.898 106.977 172.906C107.38 168.913 108.246 165.429 109.267 163.036C109.783 161.828 110.294 161.006 110.722 160.534ZM111.132 160.18C111.14 160.176 111.144 160.175 111.144 160.175C111.144 160.176 111.14 160.177 111.132 160.18Z" fill="#D9F4E5" stroke="#40C97F" stroke-width="4"/>
<circle cx="103.607" cy="53.9163" r="11.8285" transform="rotate(45 103.607 53.9163)" fill="#ECFAF2" stroke="#8CDEB2" stroke-width="3"/>
<circle cx="103.607" cy="53.9163" r="8.21489" transform="rotate(45 103.607 53.9163)" fill="#D9F4E5"/>
<rect x="97.4204" y="46.4629" width="19.1453" height="1.9388" rx="0.969401" transform="rotate(45 97.4204 46.4629)" fill="#B2E9CC"/>
<path fill-rule="evenodd" clip-rule="evenodd" d="M75.1244 94.5007C81.8204 98.3666 88.9053 98.6313 90.9488 95.0919L94.4488 89.0298L86.2674 84.3063C85.1609 83.3679 83.9049 82.4802 82.5245 81.6832C81.1441 80.8862 79.7474 80.2424 78.3814 79.7533L70.2001 75.0298L66.7001 81.0919C64.6566 84.6313 68.4283 90.6347 75.1244 94.5007Z" fill="#B2E9CC"/>
<ellipse cx="82.1931" cy="82.2571" rx="14" ry="7.40013" transform="rotate(30 82.1931 82.2571)" fill="#ECFAF2"/>
<ellipse cx="82.1931" cy="82.2571" rx="10.908" ry="5.76574" transform="rotate(30 82.1931 82.2571)" fill="#8CDEB2"/>
<ellipse cx="81.9238" cy="82.7234" rx="10.8026" ry="5.22728" transform="rotate(30 81.9238 82.7234)" fill="#D9F4E5"/>
<path d="M71.9039 81.2014C71.0273 80.3024 71.8059 78.8059 73.0452 79.0078L91.4494 82.0064C91.6051 82.0318 91.7511 82.0987 91.872 82.2002C92.5388 82.7596 92.0714 83.8438 91.2069 83.7431L72.6852 81.5855C72.3884 81.551 72.1125 81.4153 71.9039 81.2014Z" fill="#B2E9CC"/>
<mask id="path-13-outside-1_2014_17638" maskUnits="userSpaceOnUse" x="62.1448" y="69.7665" width="36" height="31" fill="black">
<rect fill="white" x="62.1448" y="69.7665" width="36" height="31"/>
<path fill-rule="evenodd" clip-rule="evenodd" d="M93.8165 89.944C94.0069 89.7336 94.1745 89.5047 94.3174 89.2571C96.3609 85.7177 92.5892 79.7144 85.8931 75.8484C79.197 71.9824 72.1122 71.7177 70.0687 75.2571C69.9565 75.4514 69.8619 75.6532 69.7842 75.8616L66.7 81.092C64.6566 84.6313 68.4283 90.6347 75.1243 94.5007C81.8204 98.3667 88.9053 98.6313 90.9487 95.092L93.8165 89.944Z"/>
</mask>
<path d="M94.3174 89.2571L96.9155 90.7571V90.7571L94.3174 89.2571ZM93.8165 89.944L91.592 87.9311L91.3623 88.185L91.1957 88.4841L93.8165 89.944ZM70.0687 75.2571L67.4706 73.7571L67.4706 73.7571L70.0687 75.2571ZM69.7842 75.8616L72.3684 77.3854L72.5031 77.157L72.5956 76.9086L69.7842 75.8616ZM66.7 81.092L64.1159 79.5682L64.1089 79.58L64.102 79.592L66.7 81.092ZM90.9487 95.092L93.5468 96.592L93.5583 96.572L93.5695 96.5519L90.9487 95.092ZM91.7193 87.7571C91.6844 87.8176 91.6427 87.8751 91.592 87.9311L96.041 91.9569C96.3711 91.5921 96.6646 91.1917 96.9155 90.7571L91.7193 87.7571ZM84.3931 78.4465C87.4045 80.1851 89.6262 82.3356 90.8424 84.2712C92.1399 86.3365 91.9104 87.4261 91.7193 87.7571L96.9155 90.7571C98.7679 87.5487 97.6743 83.867 95.9229 81.0793C94.09 78.1619 91.0778 75.3777 87.3931 73.2503L84.3931 78.4465ZM72.6668 76.7571C72.8579 76.4261 73.6868 75.6826 76.1242 75.7736C78.4085 75.859 81.3817 76.7079 84.3931 78.4465L87.3931 73.2503C83.7084 71.123 79.7911 69.9065 76.3482 69.7778C73.0583 69.6549 69.323 70.5487 67.4706 73.7571L72.6668 76.7571ZM72.5956 76.9086C72.6155 76.855 72.6391 76.805 72.6668 76.7571L67.4706 73.7571C67.2739 74.0979 67.1082 74.4513 66.9729 74.8146L72.5956 76.9086ZM67.2001 74.3377L64.1159 79.5682L69.2842 82.6158L72.3684 77.3854L67.2001 74.3377ZM64.102 79.592C62.2496 82.8004 63.3432 86.4821 65.0946 89.2698C66.9275 92.1872 69.9396 94.9714 73.6243 97.0988L76.6243 91.9026C73.6129 90.164 71.3912 88.0136 70.1751 86.0779C68.8775 84.0126 69.107 82.923 69.2981 82.592L64.102 79.592ZM73.6243 97.0988C77.309 99.2261 81.2263 100.443 84.6692 100.571C87.9591 100.694 91.6945 99.8004 93.5468 96.592L88.3507 93.592C88.1596 93.923 87.3307 94.6665 84.8933 94.5754C82.6089 94.4901 79.6357 93.6412 76.6243 91.9026L73.6243 97.0988ZM93.5695 96.5519L96.4373 91.404L91.1957 88.4841L88.328 93.632L93.5695 96.5519Z" fill="#40C97F" mask="url(#path-13-outside-1_2014_17638)"/>
<path fill-rule="evenodd" clip-rule="evenodd" d="M39.7477 276.385C33.0517 280.251 25.9667 280.516 23.9233 276.977L20.4233 270.915L28.6046 266.191C29.7112 265.253 30.9671 264.365 32.3476 263.568C33.728 262.771 35.1247 262.127 36.4906 261.638L44.672 256.915L48.172 262.977C50.2155 266.516 46.4438 272.519 39.7477 276.385Z" fill="#B2E9CC"/>
<ellipse cx="14" cy="7.40013" rx="14" ry="7.40013" transform="matrix(-0.866025 0.5 0.5 0.866025 41.1033 250.733)" fill="#ECFAF2"/>
<ellipse cx="10.908" cy="5.76574" rx="10.908" ry="5.76574" transform="matrix(-0.866025 0.5 0.5 0.866025 39.2427 253.695)" fill="#8CDEB2"/>
<ellipse cx="10.8026" cy="5.22728" rx="10.8026" ry="5.22728" transform="matrix(-0.866025 0.5 0.5 0.866025 39.6899 254.68)" fill="#D9F4E5"/>
<path d="M42.9682 263.086C43.8447 262.187 43.0661 260.691 41.8269 260.893L23.4227 263.891C23.267 263.917 23.121 263.984 23.0001 264.085C22.3333 264.644 22.8007 265.729 23.6652 265.628L42.1868 263.47C42.4836 263.436 42.7595 263.3 42.9682 263.086Z" fill="#B2E9CC"/>
<path d="M19.0668 271.321C17.6923 268.805 18.5365 265.797 20.2377 263.238C21.9825 260.614 24.8599 258.06 28.4223 256.115C31.9847 254.169 35.6884 253.128 38.8391 253.078C41.9112 253.029 44.8986 253.945 46.2731 256.462L49.611 262.573L49.6168 262.583C50.9945 265.106 50.1601 268.121 48.4608 270.688C46.7193 273.32 43.8434 275.878 40.28 277.824C36.7165 279.771 33.0096 280.808 29.8544 280.851C26.7757 280.893 23.7882 279.966 22.4105 277.443L22.4046 277.433L19.0668 271.321Z" stroke="#40C97F" stroke-width="3"/>
<g style="mix-blend-mode:multiply">
<rect x="1.18577" y="1.75896" width="35.0962" height="92.3511" rx="14.5" transform="matrix(-0.191064 0.981578 0.981578 0.191064 222.363 396.046)" fill="white" stroke="#8CDEB2" stroke-width="3"/>
<path d="M268.36 406.208L268.35 406.206L268.341 406.204L241.488 400.977C231.975 399.125 222.762 405.336 220.91 414.849C219.059 424.362 225.269 433.575 234.782 435.427L260.348 440.403L260.349 440.403L261.66 440.658C261.78 440.682 262.181 440.676 262.919 439.998C263.631 439.346 264.433 438.259 265.251 436.746C266.877 433.735 268.399 429.341 269.383 424.284C270.367 419.228 270.604 414.583 270.227 411.182C270.037 409.472 269.7 408.165 269.286 407.293C268.855 406.388 268.485 406.232 268.365 406.209L268.36 406.208Z" fill="#B2E9CC" stroke="#8CDEB2" stroke-width="3"/>
<rect x="0.401035" y="2.08307" width="35.0962" height="92.3511" rx="14.5" transform="matrix(-0.560678 0.828034 0.828034 0.560678 270.746 393.85)" fill="white" stroke="#8CDEB2" stroke-width="3"/>
<path d="M309.783 420.767L309.775 420.762L309.766 420.756L287.114 405.418C279.089 399.984 268.179 402.085 262.745 410.11C257.311 418.134 259.412 429.045 267.436 434.479L289.003 449.082L289.003 449.082L290.109 449.831C290.211 449.9 290.582 450.052 291.527 449.718C292.438 449.397 293.602 448.712 294.947 447.64C297.623 445.508 300.747 442.063 303.635 437.797C306.523 433.531 308.563 429.352 309.549 426.075C310.045 424.428 310.248 423.093 310.209 422.128C310.168 421.127 309.889 420.839 309.787 420.77L309.783 420.767Z" fill="#B2E9CC" stroke="#8CDEB2" stroke-width="3"/>
<rect x="0.401035" y="2.08307" width="35.0962" height="92.3511" rx="14.5" transform="matrix(-0.560678 0.828034 0.828034 0.560678 259.402 356.828)" fill="white" stroke="#8CDEB2" stroke-width="3"/>
<path d="M298.438 383.745L298.43 383.74L298.421 383.734L275.769 368.396C267.744 362.962 256.834 365.063 251.4 373.087C245.966 381.112 248.067 392.023 256.092 397.457L277.659 412.06L277.659 412.06L278.765 412.809C278.866 412.878 279.237 413.03 280.182 412.696C281.093 412.375 282.257 411.69 283.602 410.618C286.279 408.486 289.402 405.04 292.29 400.775C295.179 396.509 297.218 392.33 298.204 389.053C298.7 387.406 298.904 386.071 298.864 385.106C298.823 384.105 298.544 383.817 298.442 383.748L298.438 383.745Z" fill="#B2E9CC" stroke="#8CDEB2" stroke-width="3"/>
<rect x="0.401035" y="2.08307" width="35.0962" height="92.3511" rx="14.5" transform="matrix(-0.560678 0.828034 0.828034 0.560678 188.008 354.008)" fill="white" stroke="#8CDEB2" stroke-width="3"/>
<path d="M227.045 380.925L227.037 380.92L227.028 380.914L204.376 365.576C196.351 360.142 185.441 362.243 180.007 370.267C174.573 378.292 176.674 389.203 184.699 394.637L206.265 409.24L206.266 409.24L207.372 409.989C207.473 410.058 207.844 410.21 208.789 409.876C209.7 409.555 210.864 408.87 212.209 407.798C214.886 405.666 218.009 402.22 220.897 397.955C223.786 393.689 225.825 389.51 226.811 386.233C227.307 384.586 227.51 383.251 227.471 382.286C227.43 381.285 227.151 380.997 227.049 380.928L227.045 380.925Z" fill="#B2E9CC" stroke="#8CDEB2" stroke-width="3"/>
<rect x="1.89221" y="-0.958934" width="35.0962" height="92.3511" rx="14.5" transform="matrix(0.95038 0.311091 0.311091 -0.95038 228.768 504.165)" fill="white" stroke="#8CDEB2" stroke-width="3"/>
<rect x="2.11669" y="-0.140116" width="35.0962" height="92.3511" rx="14.5" transform="matrix(0.752268 0.658857 0.658857 -0.752268 274.845 519.782)" fill="white" stroke="#8CDEB2" stroke-width="3"/>
<rect x="2.11669" y="-0.140116" width="35.0962" height="92.3511" rx="14.5" transform="matrix(0.752268 0.658857 0.658857 -0.752268 207.79 467.228)" fill="white" stroke="#8CDEB2" stroke-width="3"/>
<path d="M239.157 434.627L239.15 434.634L239.144 434.642L221.12 455.221C214.734 462.512 215.468 473.598 222.759 479.984C230.05 486.369 241.136 485.635 247.522 478.345L264.682 458.751L264.682 458.751L265.562 457.746C265.643 457.654 265.839 457.304 265.626 456.325C265.419 455.382 264.884 454.142 263.987 452.675C262.202 449.755 259.17 446.229 255.295 442.835C251.419 439.441 247.525 436.9 244.395 435.516C242.822 434.82 241.522 434.453 240.56 434.373C239.562 434.29 239.241 434.531 239.16 434.623L239.157 434.627Z" fill="#B2E9CC" stroke="#8CDEB2" stroke-width="3"/>
<rect x="2.11669" y="-0.140116" width="35.0962" height="92.3511" rx="14.5" transform="matrix(0.752268 0.658857 0.658857 -0.752268 151.503 455.979)" fill="white" stroke="#8CDEB2" stroke-width="3"/>
<path d="M182.87 423.377L182.864 423.384L182.858 423.392L164.833 443.971C158.448 451.262 159.182 462.349 166.473 468.734C173.763 475.119 184.85 474.385 191.235 467.095L208.396 447.501L208.396 447.501L209.276 446.496C209.356 446.404 209.553 446.055 209.339 445.076C209.133 444.132 208.598 442.892 207.7 441.425C205.916 438.505 202.884 434.979 199.008 431.585C195.133 428.191 191.238 425.65 188.109 424.266C186.536 423.57 185.236 423.203 184.274 423.123C183.275 423.04 182.955 423.281 182.874 423.373L182.87 423.377Z" fill="#B2E9CC" stroke="#8CDEB2" stroke-width="3"/>
<rect x="1.89221" y="-0.958934" width="35.0962" height="92.3511" rx="14.5" transform="matrix(0.95038 0.311091 0.311091 -0.95038 177.402 494.589)" fill="white" stroke="#8CDEB2" stroke-width="3"/>
<path d="M193.004 453.007L193.001 453.016L192.998 453.025L184.488 479.025C181.473 488.235 186.496 498.146 195.706 501.161C204.917 504.176 214.828 499.153 217.843 489.943L225.945 465.189L225.945 465.189L226.361 463.92C226.399 463.803 226.443 463.405 225.862 462.588C225.302 461.801 224.324 460.87 222.923 459.872C220.136 457.886 215.964 455.832 211.069 454.229C206.173 452.626 201.593 451.816 198.172 451.77C196.452 451.747 195.112 451.919 194.196 452.222C193.244 452.538 193.044 452.885 193.006 453.002L193.004 453.007Z" fill="#B2E9CC" stroke="#8CDEB2" stroke-width="3"/>
<rect x="2.11669" y="-0.140116" width="35.0962" height="92.3511" rx="14.5" transform="matrix(0.752268 0.658857 0.658857 -0.752268 239.489 486.938)" fill="white" stroke="#8CDEB2" stroke-width="3"/>
<path d="M270.857 454.336L270.85 454.343L270.844 454.351L252.819 474.93C246.434 482.221 247.168 493.308 254.459 499.693C261.749 506.078 272.836 505.344 279.221 498.054L296.382 478.46L296.382 478.46L297.262 477.455C297.342 477.363 297.539 477.014 297.325 476.035C297.119 475.091 296.584 473.852 295.686 472.384C293.902 469.464 290.87 465.938 286.994 462.544C283.119 459.15 279.224 456.609 276.095 455.225C274.522 454.529 273.222 454.162 272.26 454.082C271.261 453.999 270.941 454.24 270.86 454.332L270.857 454.336Z" fill="#B2E9CC" stroke="#8CDEB2" stroke-width="3"/>
<rect x="2.11669" y="-0.140116" width="35.0962" height="92.3511" rx="14.5" transform="matrix(0.752268 0.658857 0.658857 -0.752268 164.293 438.277)" fill="white" stroke="#8CDEB2" stroke-width="3"/>
<path d="M195.66 405.676L195.654 405.683L195.647 405.691L177.623 426.27C171.238 433.561 171.972 444.647 179.262 451.033C186.553 457.418 197.64 456.684 204.025 449.394L221.186 429.8L221.185 429.8L222.065 428.795C222.146 428.703 222.343 428.353 222.129 427.374C221.923 426.431 221.387 425.191 220.49 423.723C218.706 420.804 215.673 417.278 211.798 413.884C207.923 410.49 204.028 407.949 200.899 406.565C199.325 405.869 198.026 405.501 197.064 405.421C196.065 405.338 195.744 405.58 195.664 405.672L195.66 405.676Z" fill="#B2E9CC" stroke="#8CDEB2" stroke-width="3"/>
<rect x="-0.860151" y="-1.93911" width="35.0962" height="92.3511" rx="14.5" transform="matrix(0.359652 -0.933086 -0.933086 -0.359652 190.59 408.305)" fill="white" stroke="#8CDEB2" stroke-width="3"/>
<path d="M149.791 393.501L149.8 393.505L149.81 393.508L175.336 403.347C184.379 406.833 194.535 402.328 198.021 393.284C201.506 384.241 197.001 374.085 187.958 370.599L163.655 361.232L163.655 361.232L162.409 360.752C162.294 360.708 161.898 360.643 161.053 361.181C160.238 361.699 159.258 362.629 158.189 363.976C156.062 366.657 153.796 370.717 151.943 375.524C150.09 380.331 149.045 384.862 148.823 388.277C148.711 389.994 148.813 391.34 149.069 392.271C149.335 393.237 149.672 393.455 149.786 393.499L149.791 393.501Z" fill="#B2E9CC" stroke="#8CDEB2" stroke-width="3"/>
<rect x="1.28369" y="1.68883" width="35.0962" height="92.3511" rx="14.5" transform="matrix(-0.135048 0.990839 0.990839 0.135048 170.262 425.001)" fill="white" stroke="#8CDEB2" stroke-width="3"/>
<path d="M216.678 432.624L216.669 432.622L216.659 432.621L189.553 428.927C179.95 427.618 171.104 434.341 169.796 443.944C168.487 453.547 175.21 462.392 184.813 463.701L210.621 467.219L210.621 467.219L211.944 467.399C212.065 467.416 212.465 467.387 213.164 466.669C213.838 465.977 214.577 464.847 215.307 463.289C216.76 460.191 218.03 455.717 218.726 450.613C219.421 445.509 219.395 440.858 218.824 437.484C218.538 435.788 218.128 434.501 217.664 433.654C217.183 432.775 216.805 432.641 216.684 432.624L216.678 432.624Z" fill="#B2E9CC" stroke="#8CDEB2" stroke-width="3"/>
<rect x="1.28369" y="1.68883" width="35.0962" height="92.3511" rx="14.5" transform="matrix(-0.135048 0.990839 0.990839 0.135048 113.975 413.752)" fill="white" stroke="#8CDEB2" stroke-width="3"/>
<path d="M160.392 421.374L160.382 421.373L160.372 421.371L133.266 417.677C123.663 416.368 114.818 423.092 113.509 432.694C112.2 442.297 118.924 451.143 128.526 452.452L154.334 455.969L154.334 455.969L155.657 456.149C155.779 456.166 156.179 456.137 156.877 455.419C157.551 454.727 158.29 453.597 159.02 452.039C160.473 448.941 161.743 444.467 162.439 439.363C163.134 434.259 163.108 429.609 162.537 426.235C162.251 424.538 161.841 423.252 161.377 422.405C160.896 421.526 160.518 421.391 160.397 421.375L160.392 421.374Z" fill="#B2E9CC" stroke="#8CDEB2" stroke-width="3"/>
<rect x="2.0628" y="0.49481" width="35.0962" height="92.3511" rx="14.5" transform="matrix(0.522665 0.852538 0.852538 -0.522665 63.3054 440.914)" fill="white" stroke="#8CDEB2" stroke-width="3"/>
<path d="M103.453 418.721L103.445 418.726L103.436 418.731L80.1135 433.03C71.8511 438.095 69.2594 448.9 74.3249 457.162C79.3903 465.424 90.1947 468.016 98.4571 462.951L120.662 449.337L120.662 449.337L121.801 448.639C121.905 448.575 122.197 448.3 122.283 447.301C122.367 446.339 122.224 444.996 121.803 443.328C120.966 440.01 119.118 435.743 116.425 431.351C113.733 426.96 110.768 423.377 108.191 421.126C106.895 419.994 105.763 419.257 104.868 418.895C103.939 418.519 103.562 418.654 103.457 418.718L103.453 418.721Z" fill="#B2E9CC" stroke="#8CDEB2" stroke-width="3"/>
<rect x="1.28369" y="1.68883" width="35.0962" height="92.3511" rx="14.5" transform="matrix(-0.135048 0.990839 0.990839 0.135048 231.655 351.203)" fill="white" stroke="#8CDEB2" stroke-width="3"/>
<path d="M278.072 358.825L278.062 358.824L278.052 358.822L250.946 355.128C241.343 353.819 232.498 360.543 231.189 370.146C229.88 379.748 236.604 388.594 246.206 389.903L272.014 393.42L272.014 393.42L273.337 393.6C273.459 393.617 273.859 393.588 274.558 392.87C275.231 392.178 275.97 391.048 276.701 389.49C278.153 386.392 279.423 381.919 280.119 376.814C280.815 371.71 280.788 367.06 280.218 363.686C279.931 361.99 279.521 360.703 279.057 359.856C278.576 358.977 278.198 358.842 278.077 358.826L278.072 358.825Z" fill="#B2E9CC" stroke="#8CDEB2" stroke-width="3"/>
<rect x="1.84313" y="1.05018" width="35.0962" height="92.3511" rx="14.5" transform="matrix(0.264318 0.964436 0.964436 -0.264318 112.748 467.849)" fill="white" stroke="#8CDEB2" stroke-width="3"/>
<rect x="1.28369" y="1.68883" width="35.0962" height="92.3511" rx="14.5" transform="matrix(-0.135048 0.990839 0.990839 0.135048 190.499 436.985)" fill="white" stroke="#8CDEB2" stroke-width="3"/>
<path d="M236.915 444.607L236.905 444.606L236.896 444.605L209.79 440.91C200.187 439.602 191.341 446.325 190.032 455.928C188.724 465.531 195.447 474.376 205.05 475.685L230.857 479.203L230.857 479.202L232.181 479.383C232.302 479.399 232.702 479.371 233.401 478.653C234.075 477.961 234.814 476.83 235.544 475.273C236.996 472.174 238.267 467.701 238.962 462.597C239.658 457.492 239.631 452.842 239.061 449.468C238.774 447.772 238.365 446.485 237.901 445.638C237.42 444.759 237.042 444.625 236.92 444.608L236.915 444.607Z" fill="#B2E9CC" stroke="#8CDEB2" stroke-width="3"/>
<rect x="1.28369" y="1.68883" width="35.0962" height="92.3511" rx="14.5" transform="matrix(-0.135048 0.990839 0.990839 0.135048 115.303 388.325)" fill="white" stroke="#8CDEB2" stroke-width="3"/>
<path d="M161.719 395.947L161.709 395.946L161.7 395.944L134.593 392.25C124.991 390.941 116.145 397.665 114.836 407.267C113.527 416.87 120.251 425.716 129.854 427.025L155.661 430.542L155.661 430.542L156.985 430.722C157.106 430.739 157.506 430.71 158.205 429.992C158.878 429.3 159.618 428.17 160.348 426.612C161.8 423.514 163.071 419.041 163.766 413.936C164.462 408.832 164.435 404.182 163.865 400.808C163.578 399.111 163.168 397.825 162.705 396.978C162.224 396.099 161.846 395.964 161.724 395.948L161.719 395.947Z" fill="#B2E9CC" stroke="#8CDEB2" stroke-width="3"/>
<rect x="2.0628" y="0.49481" width="35.0962" height="92.3511" rx="14.5" transform="matrix(0.522665 0.852538 0.852538 -0.522665 87.4367 464.835)" fill="white" stroke="#8CDEB2" stroke-width="3"/>
<path d="M127.584 442.642L127.576 442.647L127.567 442.652L104.245 456.951C95.9825 462.016 93.3908 472.82 98.4562 481.083C103.522 489.345 114.326 491.937 122.588 486.871L144.794 473.258L144.794 473.258L145.932 472.56C146.037 472.496 146.328 472.221 146.415 471.222C146.498 470.26 146.355 468.917 145.934 467.249C145.097 463.931 143.249 459.664 140.556 455.272C137.864 450.881 134.9 447.297 132.322 445.046C131.027 443.915 129.895 443.178 129 442.816C128.071 442.44 127.693 442.575 127.589 442.639L127.584 442.642Z" fill="#B2E9CC" stroke="#8CDEB2" stroke-width="3"/>
<rect x="1.28369" y="1.68883" width="35.0962" height="92.3511" rx="14.5" transform="matrix(-0.135048 0.990839 0.990839 0.135048 160.463 316.095)" fill="white" stroke="#8CDEB2" stroke-width="3"/>
<path d="M206.88 323.717L206.87 323.716L206.86 323.715L179.754 320.02C170.151 318.711 161.306 325.435 159.997 335.038C158.688 344.64 165.412 353.486 175.015 354.795L200.822 358.312L200.822 358.312L202.145 358.493C202.267 358.509 202.667 358.481 203.366 357.762C204.039 357.07 204.778 355.94 205.509 354.383C206.961 351.284 208.231 346.811 208.927 341.707C209.623 336.602 209.596 331.952 209.026 328.578C208.739 326.882 208.329 325.595 207.866 324.748C207.384 323.869 207.006 323.734 206.885 323.718L206.88 323.717Z" fill="#B2E9CC" stroke="#8CDEB2" stroke-width="3"/>
<rect x="1.28369" y="1.68883" width="35.0962" height="92.3511" rx="14.5" transform="matrix(-0.135048 0.990839 0.990839 0.135048 173.56 448.672)" fill="white" stroke="#8CDEB2" stroke-width="3"/>
<path d="M219.977 456.294L219.967 456.293L219.957 456.292L192.851 452.597C183.248 451.288 174.403 458.012 173.094 467.615C171.785 477.217 178.508 486.063 188.111 487.372L213.919 490.889L213.919 490.889L215.242 491.069C215.363 491.086 215.764 491.057 216.462 490.339C217.136 489.647 217.875 488.517 218.605 486.959C220.058 483.861 221.328 479.388 222.024 474.283C222.719 469.179 222.693 464.529 222.122 461.155C221.836 459.459 221.426 458.172 220.962 457.325C220.481 456.446 220.103 456.311 219.982 456.295L219.977 456.294Z" fill="#B2E9CC" stroke="#8CDEB2" stroke-width="3"/>
</g>
<g style="mix-blend-mode:multiply">
<path d="M313.815 325.7L313.921 325.973L314.023 326.257L389.217 534.831L127.296 629.257L52.1027 420.683L51.9999 420.398L51.9072 420.121C49.4103 412.663 50.36 404.196 54.5096 395.134C58.6637 386.062 65.9764 376.516 75.9717 367.067C95.9581 348.174 126.396 329.93 162.654 316.859C198.911 303.787 233.989 298.412 261.433 300.206C275.158 301.103 286.88 303.787 295.867 308.121C304.845 312.451 310.979 318.364 313.815 325.7Z" fill="#66D498" stroke="#40C97F" stroke-width="4"/>
<path d="M296.671 299.55C301.836 321.197 300.217 340.805 285.68 358.726C271.026 376.791 243.033 393.416 194.697 408.374C147.155 418.819 112.858 417.957 89.248 409.234C65.7658 400.56 52.6935 384.055 47.5789 362.622C42.5346 341.482 51.3653 319.543 70.6143 300.601C89.8548 281.666 119.323 265.948 154.853 257.47C190.419 248.983 223.478 248.888 248.85 256.28C274.214 263.669 291.631 278.43 296.671 299.55Z" fill="url(#paint0_linear_2014_17638)" stroke="#33A165" stroke-width="4" stroke-linejoin="round"/>
<g style="mix-blend-mode:darken">
<g style="mix-blend-mode:multiply">
<path d="M269.123 292.936C276.127 318.805 237.489 351.774 182.822 366.576C128.155 381.378 78.1611 372.407 71.1569 346.539C64.1526 320.671 102.791 287.701 157.458 272.899C192.742 266.14 262.119 267.068 269.123 292.936Z" fill="url(#paint1_linear_2014_17638)"/>
</g>
<path opacity="0.4" d="M265.691 312.184C273.691 343.479 244.729 391.85 189.348 406.007C133.967 420.164 92.0113 392.851 84.0114 361.556C76.0114 330.261 104.996 306.833 160.377 292.676C215.758 278.519 257.691 280.888 265.691 312.184Z" fill="url(#paint2_linear_2014_17638)"/>
</g>
<path d="M71.7173 338.708C70.9536 315.581 107.634 287.086 152.634 275.086" stroke="#33A165" stroke-width="3" stroke-linecap="round"/>
<path d="M82.4507 352.086C77.9508 321.586 134.951 300.086 160.951 292.086" stroke="#33A165" stroke-width="3" stroke-linecap="round"/>
</g>
<path d="M269.09 294.966C263.224 273.073 215.924 265.055 172.395 275.416" stroke="#33A165" stroke-width="3" stroke-linecap="round"/>
<mask id="mask1_2014_17638" style="mask-type:alpha" maskUnits="userSpaceOnUse" x="77" y="280" width="188" height="95">
<ellipse cx="171.065" cy="327.64" rx="96.284" ry="41.9495" transform="rotate(-14.3077 171.065 327.64)" fill="#D9D9D9"/>
</mask>
<g mask="url(#mask1_2014_17638)">
<rect x="0.401035" y="2.08307" width="35.0962" height="92.3511" rx="14.5" transform="matrix(-0.560678 0.828034 0.828034 0.560678 259.402 356.828)" fill="white" stroke="#8CDEB2" stroke-width="3"/>
<path d="M298.438 383.745L298.43 383.74L298.421 383.734L275.769 368.396C267.744 362.962 256.834 365.062 251.4 373.087C245.966 381.112 248.067 392.023 256.092 397.457L277.659 412.06L277.659 412.06L278.765 412.809C278.866 412.877 279.237 413.029 280.182 412.696C281.093 412.375 282.257 411.69 283.602 410.618C286.279 408.486 289.402 405.04 292.29 400.775C295.179 396.509 297.218 392.33 298.204 389.053C298.7 387.406 298.904 386.071 298.864 385.106C298.823 384.105 298.544 383.817 298.442 383.748L298.438 383.745Z" fill="#B2E9CC" stroke="#8CDEB2" stroke-width="3"/>
<rect x="0.401035" y="2.08307" width="35.0962" height="92.3511" rx="14.5" transform="matrix(-0.560678 0.828034 0.828034 0.560678 188.008 354.008)" fill="white" stroke="#8CDEB2" stroke-width="3"/>
<path d="M227.045 380.925L227.037 380.92L227.028 380.914L204.376 365.576C196.351 360.142 185.441 362.242 180.007 370.267C174.573 378.292 176.674 389.203 184.699 394.637L206.265 409.24L206.266 409.24L207.372 409.989C207.473 410.057 207.844 410.209 208.789 409.876C209.7 409.555 210.864 408.87 212.209 407.798C214.886 405.666 218.009 402.22 220.897 397.955C223.786 393.689 225.825 389.51 226.811 386.233C227.307 384.586 227.51 383.251 227.471 382.286C227.43 381.285 227.151 380.997 227.049 380.928L227.045 380.925Z" fill="#B2E9CC" stroke="#8CDEB2" stroke-width="3"/>
<rect x="2.11669" y="-0.140116" width="35.0962" height="92.3511" rx="14.5" transform="matrix(0.752268 0.658857 0.658857 -0.752268 164.293 438.277)" fill="white" stroke="#8CDEB2" stroke-width="3"/>
<rect x="-0.860151" y="-1.93911" width="35.0962" height="92.3511" rx="14.5" transform="matrix(0.359652 -0.933086 -0.933086 -0.359652 190.59 408.305)" fill="white" stroke="#8CDEB2" stroke-width="3"/>
<path d="M149.791 393.501L149.8 393.505L149.81 393.508L175.336 403.347C184.379 406.833 194.535 402.327 198.021 393.284C201.506 384.241 197.001 374.085 187.958 370.599L163.655 361.232L163.655 361.232L162.409 360.752C162.294 360.708 161.898 360.643 161.053 361.181C160.238 361.699 159.258 362.629 158.189 363.976C156.062 366.657 153.796 370.717 151.943 375.524C150.09 380.331 149.045 384.862 148.823 388.277C148.711 389.994 148.813 391.34 149.069 392.271C149.335 393.237 149.672 393.455 149.786 393.499L149.791 393.501Z" fill="#B2E9CC" stroke="#8CDEB2" stroke-width="3"/>
<rect x="1.28369" y="1.68883" width="35.0962" height="92.3511" rx="14.5" transform="matrix(-0.135048 0.990839 0.990839 0.135048 231.655 351.203)" fill="white" stroke="#8CDEB2" stroke-width="3"/>
<path d="M278.072 358.825L278.062 358.824L278.052 358.822L250.946 355.128C241.343 353.819 232.498 360.543 231.189 370.145C229.88 379.748 236.604 388.594 246.206 389.903L272.014 393.42L272.014 393.42L273.337 393.6C273.459 393.617 273.859 393.588 274.558 392.87C275.231 392.178 275.97 391.048 276.701 389.49C278.153 386.392 279.423 381.919 280.119 376.814C280.815 371.71 280.788 367.06 280.218 363.686C279.931 361.99 279.521 360.703 279.057 359.856C278.576 358.977 278.198 358.842 278.077 358.826L278.072 358.825Z" fill="#B2E9CC" stroke="#8CDEB2" stroke-width="3"/>
<rect x="1.28369" y="1.68883" width="35.0962" height="92.3511" rx="14.5" transform="matrix(-0.135048 0.990839 0.990839 0.135048 160.463 316.095)" fill="white" stroke="#8CDEB2" stroke-width="3"/>
<path d="M206.88 323.717L206.87 323.716L206.86 323.715L179.754 320.02C170.151 318.711 161.306 325.435 159.997 335.038C158.688 344.64 165.412 353.486 175.015 354.795L200.822 358.312L200.822 358.312L202.145 358.493C202.267 358.509 202.667 358.481 203.366 357.762C204.039 357.07 204.778 355.94 205.509 354.383C206.961 351.284 208.231 346.811 208.927 341.707C209.623 336.602 209.596 331.952 209.026 328.578C208.739 326.882 208.329 325.595 207.866 324.748C207.384 323.869 207.006 323.734 206.885 323.718L206.88 323.717Z" fill="#B2E9CC" stroke="#8CDEB2" stroke-width="3"/>
<rect x="2.10311" y="0.277334" width="35.0962" height="92.3511" rx="14.5" transform="matrix(0.608593 0.793482 0.793482 -0.608593 101.603 339.117)" fill="white" stroke="#8CDEB2" stroke-width="3"/>
<path d="M139.073 313.028L139.066 313.035L139.058 313.041L117.351 329.69C109.661 335.588 108.208 346.603 114.106 354.293C120.005 361.983 131.02 363.436 138.71 357.538L159.377 341.686L159.377 341.686L160.437 340.873C160.534 340.799 160.796 340.495 160.778 339.493C160.76 338.527 160.478 337.207 159.886 335.591C158.708 332.379 156.425 328.327 153.29 324.24C150.155 320.152 146.834 316.897 144.036 314.927C142.63 313.936 141.427 313.321 140.499 313.054C139.536 312.777 139.175 312.951 139.078 313.025L139.073 313.028Z" fill="#B2E9CC" stroke="#8CDEB2" stroke-width="3"/>
<rect x="2.10311" y="0.277334" width="35.0962" height="92.3511" rx="14.5" transform="matrix(0.608593 0.793482 0.793482 -0.608593 176.603 354.117)" fill="white" stroke="#8CDEB2" stroke-width="3"/>
<path d="M214.073 328.028L214.066 328.035L214.058 328.041L192.351 344.69C184.661 350.588 183.208 361.603 189.106 369.293C195.005 376.983 206.02 378.436 213.71 372.538L234.377 356.686L234.377 356.686L235.437 355.873C235.534 355.799 235.796 355.495 235.778 354.493C235.76 353.527 235.478 352.207 234.886 350.591C233.708 347.379 231.425 343.327 228.29 339.24C225.155 335.152 221.834 331.897 219.036 329.927C217.63 328.936 216.427 328.321 215.499 328.054C214.536 327.777 214.175 327.951 214.078 328.025L214.073 328.028Z" fill="#B2E9CC" stroke="#8CDEB2" stroke-width="3"/>
</g>
<path d="M268.395 304.325C266.282 328.496 230.27 355.286 177.949 367.771C125.627 380.256 78.9208 371.337 73.7899 349.835" stroke="#33A165" stroke-width="3" stroke-linecap="round"/>
<path fill-rule="evenodd" clip-rule="evenodd" d="M165.447 73.5686C165.575 73.4531 165.705 73.3408 165.837 73.2314L171.391 68.2114C171.513 68.0913 171.638 67.9734 171.765 67.858C180.044 60.3754 197.116 65.7729 209.898 79.9137C222.679 94.0545 226.33 111.584 218.051 119.066C217.887 119.215 217.719 119.359 217.547 119.497L212.213 124.319C212.058 124.475 211.898 124.628 211.733 124.777C207.894 128.247 202.162 128.947 195.844 127.289L176.965 144.353C171.125 149.632 158.669 145.367 149.143 134.828C139.617 124.289 136.629 111.467 142.469 106.188L161.348 89.124C160.334 82.6712 161.608 77.0392 165.447 73.5686Z" fill="#D9F4E5"/>
<path d="M165.837 73.2314L166.794 74.3862L166.819 74.3657L166.843 74.3442L165.837 73.2314ZM171.391 68.2114L172.397 69.3242L172.42 69.3027L172.443 69.2803L171.391 68.2114ZM217.547 119.497L216.604 118.331L216.572 118.357L216.541 118.384L217.547 119.497ZM212.213 124.319L211.207 123.206L211.177 123.234L211.147 123.263L212.213 124.319ZM195.844 127.289L196.225 125.838L195.44 125.632L194.838 126.176L195.844 127.289ZM176.965 144.353L175.959 143.24L176.965 144.353ZM161.348 89.124L162.354 90.2368L162.956 89.6927L162.83 88.8912L161.348 89.124ZM164.879 72.0767C164.731 72.1997 164.585 72.326 164.442 72.4558L166.453 74.6814C166.565 74.5803 166.679 74.4819 166.794 74.3862L164.879 72.0767ZM170.385 67.0986L164.831 72.1186L166.843 74.3442L172.397 69.3242L170.385 67.0986ZM170.76 66.7452C170.616 66.875 170.476 67.0075 170.338 67.1426L172.443 69.2803C172.55 69.1751 172.659 69.0719 172.771 68.9708L170.76 66.7452ZM211.01 78.9079C204.473 71.6752 196.791 66.6221 189.595 64.3469C182.438 62.0842 175.457 62.4995 170.76 66.7452L172.771 68.9708C176.352 65.7339 182.046 65.1067 188.691 67.2073C195.295 69.2954 202.541 74.0114 208.785 80.9195L211.01 78.9079ZM219.057 120.179C223.754 115.933 224.871 109.029 223.34 101.681C221.802 94.292 217.548 86.1406 211.01 78.9079L208.785 80.9195C215.029 87.8276 218.991 95.5112 220.403 102.293C221.824 109.115 220.627 114.717 217.045 117.953L219.057 120.179ZM218.49 120.664C218.683 120.508 218.872 120.346 219.057 120.179L217.045 117.953C216.901 118.084 216.754 118.21 216.604 118.331L218.49 120.664ZM213.219 125.432L218.553 120.61L216.541 118.384L211.207 123.206L213.219 125.432ZM212.739 125.89C212.924 125.722 213.104 125.551 213.278 125.375L211.147 123.263C211.012 123.4 210.872 123.534 210.728 123.664L212.739 125.89ZM195.463 128.739C202.052 130.469 208.383 129.827 212.739 125.89L210.728 123.664C207.405 126.667 202.272 127.425 196.225 125.838L195.463 128.739ZM177.971 145.466L196.85 128.401L194.838 126.176L175.959 143.24L177.971 145.466ZM148.03 135.834C152.931 141.256 158.632 145.121 163.95 146.941C169.213 148.743 174.462 148.638 177.971 145.466L175.959 143.24C173.628 145.347 169.729 145.749 164.922 144.103C160.17 142.476 154.881 138.94 150.256 133.822L148.03 135.834ZM141.463 105.076C137.954 108.247 137.321 113.459 138.583 118.876C139.859 124.35 143.13 130.412 148.03 135.834L150.256 133.822C145.63 128.705 142.644 123.087 141.505 118.195C140.351 113.247 141.144 109.408 143.475 107.301L141.463 105.076ZM160.342 88.0112L141.463 105.076L143.475 107.301L162.354 90.2368L160.342 88.0112ZM164.442 72.4558C160.085 76.3936 158.809 82.6269 159.866 89.3568L162.83 88.8912C161.86 82.7155 163.13 77.6848 166.453 74.6814L164.442 72.4558Z" fill="#33A165"/>
<path fill-rule="evenodd" clip-rule="evenodd" d="M206.676 111.631C206.65 111.654 206.624 111.677 206.598 111.7L175.879 139.467L175.826 139.409C171.181 142.804 161.487 138.862 153.75 130.302C145.755 121.456 142.876 111.029 147.32 107.012C147.626 106.735 147.958 106.497 148.315 106.294L177.706 79.7283C177.731 79.7058 177.755 79.6835 177.78 79.6612C183.137 74.8189 193.948 78.0501 201.928 86.8782C209.908 95.7064 212.033 106.788 206.676 111.631Z" fill="url(#paint3_linear_2014_17638)"/>
<mask id="path-89-inside-2_2014_17638" fill="white">
<path fill-rule="evenodd" clip-rule="evenodd" d="M206.795 111.64C206.769 111.663 206.743 111.686 206.718 111.709L176.531 138.994L176.489 138.947C176.446 138.988 176.403 139.028 176.358 139.068C171.895 143.102 161.795 139.202 153.8 130.357C145.805 121.511 142.941 111.07 147.405 107.035C147.61 106.85 147.827 106.681 148.056 106.529L177.768 79.6724C177.792 79.6503 177.816 79.6284 177.84 79.6065C183.105 74.8482 193.854 78.1618 201.849 87.0076C209.845 95.8534 212.059 106.882 206.795 111.64Z"/>
</mask>
<path d="M206.718 111.709L206.057 110.958L206.047 110.967L206.718 111.709ZM176.531 138.994L175.789 139.664L176.46 140.406L177.202 139.736L176.531 138.994ZM176.489 138.947L177.23 138.276L176.538 137.51L175.795 138.226L176.489 138.947ZM148.056 106.529L148.61 107.361L148.672 107.32L148.726 107.271L148.056 106.529ZM177.768 79.6724L178.439 80.4144L178.448 80.4059L177.768 79.6724ZM207.378 112.459C207.407 112.434 207.436 112.408 207.465 112.382L206.124 110.898C206.102 110.918 206.079 110.938 206.057 110.958L207.378 112.459ZM177.202 139.736L207.388 112.451L206.047 110.967L175.86 138.252L177.202 139.736ZM175.747 139.617L175.789 139.664L177.273 138.323L177.23 138.276L175.747 139.617ZM175.795 138.226C175.76 138.26 175.724 138.293 175.688 138.326L177.029 139.81C177.081 139.763 177.132 139.715 177.182 139.667L175.795 138.226ZM175.688 138.326C173.885 139.956 170.732 140.142 166.764 138.609C162.856 137.1 158.457 134.018 154.542 129.686L153.058 131.027C157.138 135.541 161.787 138.831 166.043 140.475C170.24 142.096 174.368 142.215 177.029 139.81L175.688 138.326ZM154.542 129.686C150.627 125.354 148.003 120.667 146.895 116.627C145.77 112.525 146.273 109.407 148.075 107.777L146.734 106.293C144.074 108.698 143.776 112.817 144.966 117.156C146.173 121.557 148.978 126.513 153.058 131.027L154.542 129.686ZM148.075 107.777C148.244 107.625 148.422 107.486 148.61 107.361L147.501 105.697C147.232 105.876 146.976 106.075 146.734 106.293L148.075 107.777ZM177.098 78.9306L147.385 105.787L148.726 107.271L178.439 80.4143L177.098 78.9306ZM177.17 78.8647C177.142 78.8893 177.115 78.9141 177.088 78.939L178.448 80.4059C178.469 80.3866 178.49 80.3674 178.511 80.3484L177.17 78.8647ZM202.591 86.337C198.494 81.8038 193.66 78.6508 189.115 77.2499C184.594 75.8562 180.168 76.1547 177.17 78.8647L178.511 80.3484C180.777 78.3 184.357 77.8761 188.526 79.1611C192.671 80.4389 197.209 83.3655 201.107 87.6782L202.591 86.337ZM207.465 112.382C210.463 109.672 211.206 105.298 210.275 100.66C209.339 95.9973 206.689 90.8703 202.591 86.337L201.107 87.6782C205.006 91.9908 207.46 96.8008 208.314 101.054C209.173 105.33 208.39 108.85 206.124 110.898L207.465 112.382Z" fill="#33A165" mask="url(#path-89-inside-2_2014_17638)"/>
<path opacity="0.4" fill-rule="evenodd" clip-rule="evenodd" d="M210.276 112.224C210.248 112.25 210.22 112.275 210.192 112.3L175.771 143.411C175.748 143.433 175.725 143.454 175.701 143.476C175.678 143.497 175.654 143.518 175.63 143.539L175.543 143.618L175.541 143.616C170.45 147.912 159.221 143.486 150.299 133.615C141.377 123.744 138.104 112.127 142.892 107.494L142.889 107.491L177.535 76.175C177.564 76.1486 177.593 76.1223 177.621 76.0963C183.663 70.6351 195.871 74.2955 204.889 84.2719C213.906 94.2483 216.318 106.763 210.276 112.224Z" fill="url(#paint4_linear_2014_17638)"/>
<path d="M210.276 112.224C216.318 106.763 213.906 94.2482 204.889 84.2718C195.871 74.2954 183.663 70.635 177.621 76.0962" stroke="#66D498"/>
<path d="M175.7 143.474C173.455 145.504 169.636 145.867 164.861 144.177C160.151 142.509 154.885 138.944 150.256 133.822C145.627 128.701 142.61 123.103 141.425 118.249C140.224 113.328 140.971 109.565 143.216 107.535C145.461 105.506 149.281 105.142 154.055 106.833C158.766 108.501 164.031 112.066 168.66 117.187C173.29 122.309 176.306 127.906 177.491 132.761C178.692 137.681 177.945 141.445 175.7 143.474Z" stroke="#40C97F" stroke-width="3"/>
<mask id="path-94-inside-3_2014_17638" fill="white">
<path fill-rule="evenodd" clip-rule="evenodd" d="M35.4803 172.697C33.0332 161.116 32.6081 147.101 43.1081 148.817C54.1956 150.629 63.3175 163.008 68.0305 171.779C68.0428 171.498 68.057 171.202 68.0729 170.892C68.3558 165.384 69.7387 153.217 77.2136 153.168C82.6221 153.132 89.9502 163.309 93.5396 174.318C97.3913 175.696 100.551 178.267 102.343 181.881C105.179 187.601 106.675 193.787 103.263 199.135C102.115 200.935 101.962 203.312 102.826 205.264C105.616 211.568 103.265 219.366 99.7311 224.735C96.1602 230.162 89.3953 232.471 82.3182 231.39C80.1269 231.055 77.8903 232.19 76.8758 234.161C73.5094 240.702 67.5089 244.908 60.9339 244.508C54.3556 244.107 48.9082 239.198 46.3628 232.291C45.5913 230.198 43.4887 228.793 41.2592 228.874C34.0459 229.133 27.5447 226.017 24.6402 220.159C21.7746 214.379 23.1335 207.391 27.5341 201.787C28.8528 200.108 28.9984 197.718 27.8934 195.891C24.2061 189.794 23.7059 182.693 27.2522 177.304C29.2107 174.328 32.1038 172.994 35.4803 172.697Z"/>
</mask>
<path fill-rule="evenodd" clip-rule="evenodd" d="M35.4803 172.697C33.0332 161.116 32.6081 147.101 43.1081 148.817C54.1956 150.629 63.3175 163.008 68.0305 171.779C68.0428 171.498 68.057 171.202 68.0729 170.892C68.3558 165.384 69.7387 153.217 77.2136 153.168C82.6221 153.132 89.9502 163.309 93.5396 174.318C97.3913 175.696 100.551 178.267 102.343 181.881C105.179 187.601 106.675 193.787 103.263 199.135C102.115 200.935 101.962 203.312 102.826 205.264C105.616 211.568 103.265 219.366 99.7311 224.735C96.1602 230.162 89.3953 232.471 82.3182 231.39C80.1269 231.055 77.8903 232.19 76.8758 234.161C73.5094 240.702 67.5089 244.908 60.9339 244.508C54.3556 244.107 48.9082 239.198 46.3628 232.291C45.5913 230.198 43.4887 228.793 41.2592 228.874C34.0459 229.133 27.5447 226.017 24.6402 220.159C21.7746 214.379 23.1335 207.391 27.5341 201.787C28.8528 200.108 28.9984 197.718 27.8934 195.891C24.2061 189.794 23.7059 182.693 27.2522 177.304C29.2107 174.328 32.1038 172.994 35.4803 172.697Z" fill="url(#paint5_linear_2014_17638)"/>
<path d="M43.1081 148.817L43.5919 145.856L43.1081 148.817ZM35.4803 172.697L38.4155 172.077C38.593 172.917 38.4021 173.793 37.8912 174.483C37.3803 175.173 36.5983 175.611 35.7431 175.686L35.4803 172.697ZM68.0305 171.779L71.0276 171.911C70.9681 173.26 70.0148 174.403 68.6984 174.704C67.382 175.004 66.027 174.388 65.3878 173.199L68.0305 171.779ZM68.0729 170.892L65.0769 170.738L65.0769 170.738L68.0729 170.892ZM77.2136 153.168L77.1937 150.168L77.2136 153.168ZM93.5396 174.318L92.5289 177.143C91.6551 176.83 90.9751 176.131 90.6874 175.248L93.5396 174.318ZM102.343 181.881L99.6553 183.214L99.6552 183.213L102.343 181.881ZM103.263 199.135L105.793 200.748L105.793 200.748L103.263 199.135ZM102.826 205.264L105.57 204.05L105.57 204.05L102.826 205.264ZM99.7311 224.735L97.2249 223.086L97.225 223.086L99.7311 224.735ZM82.3182 231.39L82.7713 228.424L82.7713 228.424L82.3182 231.39ZM76.8758 234.161L74.2084 232.789L76.8758 234.161ZM60.9339 244.508L60.7514 247.502L60.7514 247.502L60.9339 244.508ZM46.3628 232.291L43.5479 233.329L43.5479 233.329L46.3628 232.291ZM41.2592 228.874L41.1512 225.876L41.2592 228.874ZM24.6402 220.159L27.3279 218.826L27.328 218.826L24.6402 220.159ZM27.5341 201.787L25.1746 199.934L27.5341 201.787ZM27.8934 195.891L25.3264 197.444L27.8934 195.891ZM27.2522 177.304L29.7582 178.953L29.7582 178.953L27.2522 177.304ZM42.6243 151.778C40.6908 151.462 39.7267 151.908 39.1449 152.43C38.4394 153.062 37.7767 154.277 37.3863 156.331C36.6016 160.459 37.2103 166.374 38.4155 172.077L32.5451 173.318C31.3032 167.44 30.4758 160.556 31.4918 155.211C32.0017 152.528 33.0486 149.837 35.14 147.962C37.3551 145.976 40.2754 145.314 43.5919 145.856L42.6243 151.778ZM65.3878 173.199C63.1192 168.977 59.8117 163.935 55.7991 159.77C51.7497 155.566 47.2529 152.534 42.6243 151.778L43.5919 145.856C50.0508 146.912 55.6586 150.975 60.1203 155.607C64.6189 160.277 68.2288 165.81 70.6731 170.359L65.3878 173.199ZM71.069 171.046C71.0534 171.35 71.0396 171.638 71.0276 171.911L65.0334 171.647C65.0461 171.358 65.0606 171.055 65.0769 170.738L71.069 171.046ZM77.2335 156.168C75.5457 156.179 74.0112 157.471 72.776 160.979C71.6085 164.295 71.2069 168.36 71.069 171.046L65.0769 170.738C65.2218 167.915 65.653 163.143 67.1165 158.986C68.5122 155.022 71.4067 150.206 77.1937 150.168L77.2335 156.168ZM90.6874 175.248C88.9838 170.023 86.3992 165.031 83.6646 161.409C82.2955 159.596 80.9547 158.214 79.7483 157.314C78.5027 156.385 77.665 156.165 77.2335 156.168L77.1937 150.168C79.4665 150.153 81.573 151.19 83.3347 152.504C85.1356 153.847 86.8653 155.691 88.453 157.793C91.6319 162.004 94.506 167.604 96.3919 173.388L90.6874 175.248ZM99.6552 183.213C98.2537 180.386 95.7513 178.296 92.5289 177.143L94.5504 171.494C99.0313 173.097 102.849 176.148 105.031 180.549L99.6552 183.213ZM100.734 197.522C103.249 193.58 102.387 188.722 99.6553 183.214L105.031 180.548C107.972 186.48 110.101 193.994 105.793 200.748L100.734 197.522ZM100.083 206.478C98.824 203.633 99.0299 200.193 100.734 197.522L105.793 200.748C105.2 201.677 105.101 202.99 105.57 204.05L100.083 206.478ZM97.225 223.086C100.514 218.088 102.272 211.423 100.083 206.478L105.57 204.05C108.961 211.712 106.015 220.643 102.237 226.385L97.225 223.086ZM82.7713 228.424C89.0028 229.376 94.4563 227.294 97.2249 223.086L102.237 226.384C97.8642 233.03 89.7878 235.566 81.8651 234.355L82.7713 228.424ZM74.2084 232.789C75.8155 229.666 79.3116 227.895 82.7713 228.424L81.8651 234.355C80.9422 234.214 79.965 234.715 79.5432 235.534L74.2084 232.789ZM61.1165 241.513C66.1955 241.823 71.2294 238.576 74.2084 232.789L79.5432 235.534C75.7894 242.828 68.8223 247.994 60.7514 247.502L61.1165 241.513ZM49.1777 231.254C51.4303 237.366 56.0348 241.204 61.1165 241.513L60.7514 247.502C52.6764 247.01 46.3861 241.03 43.5479 233.329L49.1777 231.254ZM41.1512 225.876C44.6709 225.749 47.956 227.939 49.1777 231.254L43.5479 233.329C43.2266 232.457 42.3064 231.838 41.3672 231.872L41.1512 225.876ZM27.328 218.826C29.5797 223.368 34.7952 226.105 41.1512 225.876L41.3672 231.872C33.2965 232.162 25.5096 228.667 21.9523 221.491L27.328 218.826ZM29.8936 203.64C26.0128 208.582 25.1028 214.338 27.3279 218.826L21.9524 221.491C18.4465 214.42 20.2542 206.2 25.1746 199.934L29.8936 203.64ZM30.4605 194.339C32.2112 197.233 31.9829 200.979 29.8936 203.64L25.1746 199.934C25.7226 199.236 25.7856 198.203 25.3264 197.444L30.4605 194.339ZM29.7582 178.953C27.0044 183.138 27.2086 188.962 30.4605 194.339L25.3264 197.444C21.2035 190.626 20.4074 182.248 24.7461 175.655L29.7582 178.953ZM35.7431 175.686C33.0585 175.922 31.1023 176.911 29.7582 178.953L24.7461 175.655C27.3191 171.745 31.1492 170.067 35.2176 169.709L35.7431 175.686Z" fill="#0D2819" mask="url(#path-94-inside-3_2014_17638)"/>
<path d="M67.341 173.659C68.7492 173.599 73.1468 174.646 79.4718 179.316" stroke="#0D2819" stroke-width="3" stroke-linecap="round"/>
<path d="M48.1392 207.98C47.7265 215.593 52.1961 221.413 57.4156 221.696C62.6352 221.979 67.7077 216.676 68.1204 209.063C68.533 201.45 64.0635 195.629 58.8439 195.346C53.6244 195.063 48.5519 200.366 48.1392 207.98Z" fill="white" stroke="#0D2819" stroke-width="2.76705"/>
<path d="M53.6772 207.997C53.3998 213.114 56.5265 217.27 60.4569 217.483C64.3873 217.696 67.9449 213.902 68.2223 208.785C68.4996 203.668 65.373 199.512 61.4426 199.299C57.5122 199.086 53.9546 202.88 53.6772 207.997Z" fill="#0D2819" stroke="#0D2819" stroke-width="0.922349"/>
<ellipse cx="3.18886" cy="3.64441" rx="3.18886" ry="3.64441" transform="matrix(-0.998534 -0.0541257 -0.0541257 0.998534 65.8195 206.715)" fill="white"/>
<path d="M78.1287 202.452C77.7681 209.105 81.6716 214.113 86.1408 214.355C90.61 214.598 95.032 210.04 95.3926 203.388C95.7532 196.735 91.8497 191.726 87.3805 191.484C82.9114 191.242 78.4893 195.799 78.1287 202.452Z" fill="white" stroke="#0D2819" stroke-width="2.76705"/>
<path d="M82.3735 203.117C82.1303 207.604 84.871 211.227 88.2911 211.412C91.7113 211.598 94.8275 208.292 95.0707 203.806C95.314 199.319 92.5732 195.696 89.1531 195.511C85.733 195.325 82.6167 198.63 82.3735 203.117Z" fill="#0D2819" stroke="#0D2819" stroke-width="0.922349"/>
<ellipse cx="2.80788" cy="3.20901" rx="2.80788" ry="3.20901" transform="matrix(-0.998534 -0.0541257 -0.0541257 0.998534 92.5737 202.113)" fill="white"/>
<ellipse cx="4.74913" cy="4.19948" rx="4.74913" ry="4.19948" transform="matrix(-0.986305 0.164929 0.164929 0.986305 83.2775 206.86)" fill="#0D2819"/>
<rect x="35.4847" y="313.25" width="34.0883" height="91.3313" rx="16.6866" transform="rotate(-64.3996 35.4847 313.25)" fill="#FAFAFC" stroke="#40C97F" stroke-width="4"/>
<path d="M76.8461 332.308C76.2117 332.644 75.942 332.62 75.8958 332.612L75.8892 332.609L51.2233 320.79C42.7342 316.723 39.1496 306.544 43.217 298.055C47.2844 289.566 57.4634 285.981 65.9525 290.049L88.9973 301.09L88.9973 301.09L90.6245 301.87C90.6584 301.899 90.8475 302.093 90.9834 302.801C91.1506 303.673 91.1533 304.962 90.9107 306.636C90.4291 309.959 89.0495 314.344 86.8397 318.956C84.6299 323.568 82.077 327.391 79.7889 329.848C78.6364 331.086 77.6303 331.892 76.8461 332.308Z" fill="#D9F4E5" stroke="#40C97F" stroke-width="4"/>
<path d="M238.663 272.729C231.208 299.631 203.623 315.719 177.083 308.72C150.543 301.72 135.025 274.265 142.48 247.362C149.936 220.459 177.521 204.371 204.061 211.37C230.601 218.37 246.119 245.826 238.663 272.729Z" fill="#40C97F" stroke="#195033" stroke-width="3"/>
<path fill-rule="evenodd" clip-rule="evenodd" d="M132.393 228.669C137.093 220.814 143.657 214.407 151.305 209.906C154.965 203.751 160.17 197.147 167.403 191.093C189.147 172.894 201.408 170.985 204.999 172.825C208.45 174.594 214.214 177.858 203.673 200.379C214.397 195.342 231.177 190.646 251.406 193.461C285.874 198.258 255.469 226.548 244.778 233.902C238.035 238.54 232.999 241.59 228.572 244.125C230.126 251.962 229.912 260.308 227.615 268.6C219.807 296.775 190.886 313.657 163.018 306.307C146.12 301.851 133.489 289.508 127.904 274.2C118.383 265.859 114.933 250.11 119.56 239.356C122.135 233.372 126.758 229.987 132.393 228.669Z" fill="url(#paint6_linear_2014_17638)"/>
<path d="M132.393 228.669L132.722 230.124C133.125 230.03 133.472 229.777 133.684 229.423L132.393 228.669ZM151.305 209.906L152.062 211.191C152.283 211.061 152.468 210.877 152.599 210.657L151.305 209.906ZM167.403 191.093L166.441 189.954L167.403 191.093ZM204.999 172.825L204.298 174.156L204.999 172.825ZM203.673 200.379L202.31 199.761C202.042 200.332 202.161 201.005 202.607 201.445C203.052 201.886 203.73 201.999 204.304 201.73L203.673 200.379ZM251.406 193.461L251.182 194.942L251.182 194.942L251.406 193.461ZM244.778 233.902L243.93 232.675L244.778 233.902ZM228.572 244.125L227.831 242.832C227.267 243.155 226.97 243.799 227.095 244.429L228.572 244.125ZM127.904 274.2L129.319 273.677C129.235 273.445 129.093 273.237 128.906 273.074L127.904 274.2ZM119.56 239.356L120.943 239.932L119.56 239.356ZM133.684 229.423C138.251 221.79 144.63 215.565 152.062 211.191L150.549 208.622C142.685 213.25 135.935 219.837 131.101 227.915L133.684 229.423ZM152.599 210.657C156.179 204.634 161.275 198.166 168.365 192.233L166.441 189.954C159.064 196.128 153.751 202.867 150.012 209.156L152.599 210.657ZM168.365 192.233C179.158 183.199 187.524 178.273 193.563 175.828C196.583 174.606 198.99 174.018 200.806 173.831C202.655 173.642 203.762 173.881 204.298 174.156L205.7 171.495C204.441 170.849 202.669 170.637 200.529 170.857C198.357 171.079 195.666 171.76 192.454 173.06C186.029 175.66 177.392 180.788 166.441 189.954L168.365 192.233ZM204.298 174.156C205.157 174.596 205.959 175.035 206.631 175.742C207.272 176.418 207.858 177.411 208.094 179.047C208.582 182.442 207.56 188.544 202.31 199.761L205.036 200.998C210.327 189.693 211.694 182.903 211.073 178.593C210.754 176.377 209.91 174.815 208.83 173.677C207.779 172.571 206.567 171.939 205.7 171.495L204.298 174.156ZM204.304 201.73C214.815 196.793 231.297 192.175 251.182 194.942L251.63 191.981C231.056 189.117 213.978 193.892 203.042 199.028L204.304 201.73ZM251.182 194.942C259.667 196.123 263.599 198.688 265.083 201.479C266.556 204.25 265.942 207.869 263.702 212.028C261.49 216.133 257.883 220.386 254.117 224.099C250.36 227.803 246.524 230.892 243.93 232.675L245.625 235.128C248.377 233.235 252.351 230.03 256.225 226.211C260.089 222.401 263.934 217.903 266.351 213.417C268.74 208.985 269.933 204.173 267.747 200.06C265.572 195.969 260.379 193.198 251.63 191.981L251.182 194.942ZM243.93 232.675C237.227 237.287 232.227 240.314 227.831 242.832L229.313 245.419C233.771 242.865 238.843 239.794 245.625 235.128L243.93 232.675ZM227.095 244.429C228.605 252.044 228.399 260.154 226.164 268.217L229.065 268.982C231.426 260.462 231.646 251.881 230.048 243.821L227.095 244.429ZM226.164 268.217C218.572 295.614 190.466 311.995 163.418 304.862L162.617 307.753C191.306 315.319 221.041 297.936 229.065 268.982L226.164 268.217ZM163.418 304.862C147.016 300.536 134.748 288.556 129.319 273.677L126.489 274.723C132.231 290.461 145.223 303.166 162.617 307.753L163.418 304.862ZM128.906 273.074C124.417 269.141 121.31 263.41 119.893 257.331C118.474 251.246 118.781 244.955 120.943 239.932L118.178 238.781C115.712 244.511 115.43 251.472 116.961 258.035C118.492 264.604 121.87 270.918 126.902 275.327L128.906 273.074ZM120.943 239.932C123.311 234.427 127.518 231.342 132.722 230.124L132.063 227.214C125.997 228.633 120.958 232.318 118.178 238.781L120.943 239.932Z" fill="#195033"/>
<path d="M196.661 248.884C193.089 258.423 184.174 263.557 176.994 260.97C169.813 258.383 166.406 248.809 169.978 239.27C173.55 229.731 182.465 224.596 189.646 227.183C196.827 229.771 200.233 239.345 196.661 248.884Z" fill="white" stroke="#195033" stroke-width="2"/>
<ellipse cx="10.4369" cy="13.0023" rx="10.4369" ry="13.0023" transform="matrix(0.940793 0.338982 -0.350694 0.93649 177.676 222.858)" fill="#195033"/>
<ellipse cx="4.26966" cy="5.10805" rx="4.26966" ry="5.10805" transform="matrix(0.940793 0.338982 -0.350694 0.93649 181.139 227.858)" fill="white"/>
<mask id="path-112-inside-4_2014_17638" fill="white">
<path fill-rule="evenodd" clip-rule="evenodd" d="M154.038 234.256C155.684 232.804 157.18 230.966 158.382 228.813C162.487 221.459 161.6 213.212 156.401 210.394C151.201 207.576 143.658 211.253 139.552 218.608C137.587 222.128 136.766 225.852 137.014 229.087C143.245 228.438 149.236 230.499 154.038 234.256Z"/>
</mask>
<path fill-rule="evenodd" clip-rule="evenodd" d="M154.038 234.256C155.684 232.804 157.18 230.966 158.382 228.813C162.487 221.459 161.6 213.212 156.401 210.394C151.201 207.576 143.658 211.253 139.552 218.608C137.587 222.128 136.766 225.852 137.014 229.087C143.245 228.438 149.236 230.499 154.038 234.256Z" fill="white"/>
<path d="M158.382 228.813L156.628 227.861L158.382 228.813ZM154.038 234.256L152.785 235.824L154.101 236.853L155.364 235.738L154.038 234.256ZM156.401 210.394L155.425 212.144L156.401 210.394ZM139.552 218.608L137.798 217.655L139.552 218.608ZM137.014 229.087L135.012 229.257L135.167 231.281L137.205 231.068L137.014 229.087ZM156.628 227.861C155.533 229.821 154.18 231.477 152.712 232.773L155.364 235.738C157.188 234.13 158.827 232.111 160.137 229.765L156.628 227.861ZM155.425 212.144C157.3 213.161 158.574 215.248 158.884 218.132C159.194 221.011 158.503 224.501 156.628 227.861L160.137 229.765C162.367 225.771 163.285 221.461 162.878 217.673C162.471 213.891 160.701 210.446 157.376 208.644L155.425 212.144ZM141.307 219.56C143.182 216.2 145.804 213.756 148.438 212.472C151.078 211.185 153.549 211.128 155.425 212.144L157.376 208.644C154.052 206.842 150.152 207.214 146.694 208.9C143.23 210.589 140.028 213.661 137.798 217.655L141.307 219.56ZM139.016 228.918C138.801 226.111 139.513 222.774 141.307 219.56L137.798 217.655C135.662 221.481 134.731 225.593 135.012 229.257L139.016 228.918ZM137.205 231.068C142.845 230.48 148.329 232.338 152.785 235.824L155.291 232.687C150.142 228.659 143.645 226.395 136.823 227.107L137.205 231.068Z" fill="#195033" mask="url(#path-112-inside-4_2014_17638)"/>
<ellipse cx="7.36229" cy="10.415" rx="7.36229" ry="10.415" transform="matrix(0.879177 0.476494 -0.487427 0.873164 148.934 207.766)" fill="#195033"/>
<ellipse cx="3.01185" cy="4.09159" rx="3.01185" ry="4.09159" transform="matrix(0.879177 0.476494 -0.487427 0.873164 150.655 211.914)" fill="white"/>
<path d="M170.804 203.133C170.13 203.622 169.979 204.556 170.467 205.22C170.955 205.884 171.897 206.026 172.572 205.537L170.804 203.133ZM251.409 193.351L251.187 194.83L251.409 193.351ZM243.928 232.568C243.242 233.04 243.067 233.97 243.538 234.646C244.009 235.322 244.947 235.488 245.633 235.016L243.928 232.568ZM195.644 204.758L196.485 205.99L195.644 204.758ZM182.686 202.643L182.63 204.135L182.686 202.643ZM251.187 194.83C259.671 196.01 263.6 198.574 265.083 201.364C266.556 204.135 265.943 207.758 263.701 211.918C261.488 216.024 257.882 220.278 254.115 223.991C250.358 227.695 246.521 230.784 243.928 232.568L245.633 235.016C248.385 233.123 252.358 229.918 256.232 226.099C260.096 222.289 263.941 217.792 266.357 213.307C268.745 208.876 269.938 204.067 267.752 199.955C265.576 195.862 260.381 193.09 251.63 191.873L251.187 194.83ZM196.485 205.99C205.104 200.182 225.247 191.22 251.187 194.83L251.63 191.873C224.804 188.139 203.915 197.387 194.804 203.526L196.485 205.99ZM172.572 205.537C172.497 205.591 172.436 205.624 172.417 205.635C172.391 205.649 172.371 205.659 172.362 205.663C172.344 205.672 172.337 205.674 172.347 205.67C172.366 205.662 172.408 205.646 172.477 205.621C172.612 205.572 172.819 205.502 173.09 205.419C173.632 205.254 174.41 205.041 175.364 204.836C177.277 204.426 179.857 204.055 182.63 204.135L182.743 201.151C179.66 201.061 176.828 201.472 174.749 201.918C173.707 202.142 172.845 202.377 172.223 202.567C171.913 202.662 171.657 202.747 171.465 202.817C171.37 202.851 171.281 202.885 171.205 202.916C171.167 202.932 171.122 202.951 171.075 202.974C171.058 202.982 170.934 203.039 170.804 203.133L172.572 205.537ZM182.63 204.135C185.459 204.217 188.543 204.758 190.988 205.276C192.205 205.534 193.244 205.782 194.01 205.962C194.386 206.05 194.715 206.126 194.959 206.176C195.076 206.2 195.209 206.224 195.33 206.24C195.387 206.247 195.485 206.257 195.597 206.257C195.653 206.257 195.75 206.254 195.868 206.235C195.956 206.22 196.214 206.172 196.485 205.99L194.804 203.526C195.068 203.348 195.317 203.303 195.393 203.29C195.497 203.273 195.579 203.271 195.615 203.271C195.658 203.271 195.689 203.273 195.704 203.274C195.72 203.276 195.73 203.277 195.732 203.277C195.734 203.277 195.724 203.276 195.696 203.271C195.669 203.266 195.633 203.26 195.588 203.25C195.396 203.212 195.113 203.146 194.728 203.056C193.973 202.879 192.898 202.622 191.642 202.356C189.142 201.826 185.847 201.241 182.743 201.151L182.63 204.135Z" fill="#195033"/>
<path d="M119.561 239.356C123.833 229.427 133.243 226.906 144.06 228.857C154.06 231.356 157.06 234.857 159.56 239.356" stroke="#195033" stroke-width="3" stroke-linecap="round" stroke-linejoin="round"/>
<path d="M144.438 234.513C143.821 236.738 140.241 237.728 136.441 236.726C132.641 235.724 130.06 233.108 130.676 230.884C131.293 228.66 134.873 227.669 138.673 228.671C142.473 229.673 145.054 232.289 144.438 234.513Z" fill="#195033"/>
<path d="M218.239 217.276C225.749 214.223 241.296 209.311 244.061 209.76C244.238 209.788 244.409 209.848 244.578 209.908C246.337 210.532 247.284 213.466 242.331 218.628C239.959 221.1 233.175 228.082 228.266 231.981C227.256 232.783 225.803 232.476 225.117 231.4C223.137 228.289 220.174 223.952 217.535 220.95C216.499 219.77 216.769 217.874 218.239 217.276Z" fill="#40C97F"/>
<path d="M249.522 207.719C246.66 206.964 223.02 214.702 217.373 219.563" stroke="#195033" stroke-width="3" stroke-linecap="round"/>
<g style="mix-blend-mode:overlay" opacity="0.4">
<path d="M72 377.617C82.4069 389.339 116.276 401.102 158.309 393.478" stroke="white" stroke-width="10" stroke-linecap="round"/>
</g>
<g style="mix-blend-mode:screen" opacity="0.4" filter="url(#filter0_f_2014_17638)">
<ellipse cx="221.973" cy="466.997" rx="136.5" ry="87.5" transform="rotate(-18.1615 221.973 466.997)" fill="#B2E9CC"/>
</g>
</g>
<defs>
<filter id="filter0_f_2014_17638" x="16.7099" y="300.882" width="410.527" height="332.229" filterUnits="userSpaceOnUse" color-interpolation-filters="sRGB">
<feFlood flood-opacity="0" result="BackgroundImageFix"/>
<feBlend mode="normal" in="SourceGraphic" in2="BackgroundImageFix" result="shape"/>
<feGaussianBlur stdDeviation="36.35" result="effect1_foregroundBlur_2014_17638"/>
</filter>
<linearGradient id="paint0_linear_2014_17638" x1="154.11" y1="255.591" x2="191.565" y2="412.553" gradientUnits="userSpaceOnUse">
<stop stop-color="#B2E9CC"/>
<stop offset="1" stop-color="#66D498"/>
</linearGradient>
<linearGradient id="paint1_linear_2014_17638" x1="157.458" y1="272.899" x2="182.822" y2="366.576" gradientUnits="userSpaceOnUse">
<stop stop-color="#40C97F"/>
<stop offset="1" stop-color="#33A165"/>
</linearGradient>
<linearGradient id="paint2_linear_2014_17638" x1="282.198" y1="351.324" x2="95.3823" y2="421.506" gradientUnits="userSpaceOnUse">
<stop stop-color="#8CDEB2"/>
<stop offset="1" stop-color="#C9F0DB"/>
</linearGradient>
<linearGradient id="paint3_linear_2014_17638" x1="201.957" y1="86.9103" x2="161.46" y2="123.515" gradientUnits="userSpaceOnUse">
<stop stop-color="#B2E9CC"/>
<stop offset="1" stop-color="#8CDEB2"/>
</linearGradient>
<linearGradient id="paint4_linear_2014_17638" x1="204.889" y1="84.2718" x2="159.216" y2="125.554" gradientUnits="userSpaceOnUse">
<stop stop-color="#B2E9CC"/>
<stop offset="1" stop-color="#8CDEB2"/>
</linearGradient>
<linearGradient id="paint5_linear_2014_17638" x1="79.9918" y1="154.934" x2="53.095" y2="243.04" gradientUnits="userSpaceOnUse">
<stop stop-color="#5B6168"/>
<stop offset="1" stop-color="#36393C"/>
</linearGradient>
<linearGradient id="paint6_linear_2014_17638" x1="207.59" y1="171.944" x2="171.56" y2="308.56" gradientUnits="userSpaceOnUse">
<stop stop-color="#F3FFC4"/>
<stop offset="1" stop-color="#E6FF86"/>
</linearGradient>
</defs>
</svg>
