<svg width="312" height="336" viewBox="0 0 312 336" fill="none" xmlns="http://www.w3.org/2000/svg">
<g clip-path="url(#clip0_2186_8744)">
<g opacity="0.7">
<rect x="108" y="89.3096" width="80" height="26.6809" rx="4" fill="#B2E9CC" stroke="#33A165" stroke-width="4"/>
<path d="M94 152.219C94 138.964 104.745 128.219 118 128.219H177C190.255 128.219 201 138.964 201 152.219V280.304C201 284.723 197.418 288.304 193 288.304H102C97.5817 288.304 94 284.723 94 280.304V152.219Z" fill="#ECFAF2" stroke="#33A165" stroke-width="4"/>
<rect x="116" y="115.99" width="64" height="12.2287" fill="#ECFAF2" stroke="#33A165" stroke-width="4"/>
<g style="mix-blend-mode:darken">
<path d="M165 137.113H178C183.523 137.113 188 141.59 188 147.113V273.634C188 278.052 184.418 281.634 180 281.634H165V137.113Z" fill="#B2E9CC"/>
</g>
<g style="mix-blend-mode:darken">
<path d="M120 137.113C110.059 137.113 102 145.172 102 155.113V280.304C102 284.723 105.582 288.304 110 288.304H120V137.113Z" fill="#B2E9CC"/>
</g>
<g style="mix-blend-mode:darken">
<path d="M179 137.113C186.732 137.113 193 143.381 193 151.113V273.634C193 278.052 189.418 281.634 185 281.634H179V137.113Z" fill="#66D498"/>
</g>
<g style="mix-blend-mode:darken">
<rect x="118" y="137.113" width="51" height="4.44681" fill="#B2E9CC"/>
</g>
<g style="mix-blend-mode:darken">
<rect x="126" y="277.187" width="51" height="4.44681" fill="#B2E9CC"/>
</g>
<path d="M118 168.458C118 164.04 121.582 160.459 126 160.459H199V256.065H126C121.582 256.065 118 252.483 118 248.065V168.458Z" fill="#ECFAF2"/>
<path d="M116 168.459C116 162.936 120.477 158.459 126 158.459H199V162.459H126C122.686 162.459 120 165.145 120 168.459H116ZM199 258.065H126C120.477 258.065 116 253.588 116 248.065H120C120 251.379 122.686 254.065 126 254.065H199V258.065ZM126 258.065C120.477 258.065 116 253.588 116 248.065V168.459C116 162.936 120.477 158.459 126 158.459V162.459C122.686 162.459 120 165.145 120 168.459V248.065C120 251.379 122.686 254.065 126 254.065V258.065ZM199 160.459V256.065V160.459Z" fill="#66D498"/>
<g style="mix-blend-mode:darken">
<line x1="181.5" y1="90.4213" x2="181.5" y2="114.879" stroke="#40C97F" stroke-width="3"/>
</g>
<rect x="197" y="121.549" width="42" height="26.6809" rx="4" fill="#DDE0E4" stroke="#7C8389" stroke-width="4"/>
<rect x="197" y="148.23" width="42" height="8.89362" rx="4" fill="#FAFAFC" stroke="#7C8389" stroke-width="4"/>
<path d="M188 173.124C188 164.287 195.163 157.124 204 157.124H232C240.837 157.124 248 164.287 248 173.124V290.31C248 294.728 244.418 298.31 240 298.31H196C191.582 298.31 188 294.728 188 290.31V173.124Z" fill="url(#paint0_linear_2186_8744)" stroke="#7C8389" stroke-width="4"/>
<g style="mix-blend-mode:darken">
<path d="M195 176.905C195 170.278 200.373 164.905 207 164.905H229C235.627 164.905 241 170.278 241 176.905V274.746C241 279.164 237.418 282.746 233 282.746H203C198.582 282.746 195 279.164 195 274.746V176.905Z" fill="#DDE0E4"/>
</g>
<g style="mix-blend-mode:overlay" opacity="0.4">
<rect x="201" y="171.576" width="6" height="13.3404" rx="3" fill="#FAFAFC"/>
</g>
<g style="mix-blend-mode:overlay" opacity="0.4">
<rect x="201" y="192.698" width="6" height="92.2713" rx="3" fill="#FAFAFC"/>
</g>
<rect x="7.5" y="101.81" width="73" height="157" rx="6.5" fill="#ECEEF0" stroke="#959CA4" stroke-width="3"/>
<path fill-rule="evenodd" clip-rule="evenodd" d="M44 125.745C45.1046 125.745 46 126.74 46 127.968L46 233.58C46 234.808 45.1046 235.803 44 235.803C42.8954 235.803 42 234.808 42 233.58L42 127.968C42 126.74 42.8954 125.745 44 125.745Z" fill="#959CA4"/>
<circle cx="25" cy="131.116" r="7.5" fill="white" stroke="#AFB8C1" stroke-width="3"/>
<circle cx="25" cy="161.116" r="7.5" fill="white" stroke="#AFB8C1" stroke-width="3"/>
<circle cx="25" cy="191.116" r="7.5" fill="white" stroke="#AFB8C1" stroke-width="3"/>
<circle cx="25" cy="221.116" r="7.5" fill="white" stroke="#AFB8C1" stroke-width="3"/>
<circle cx="63" cy="131.116" r="7.5" fill="white" stroke="#AFB8C1" stroke-width="3"/>
<circle cx="63" cy="161.116" r="7.5" fill="white" stroke="#AFB8C1" stroke-width="3"/>
<circle cx="63" cy="191.116" r="7.5" fill="white" stroke="#AFB8C1" stroke-width="3"/>
<circle cx="63" cy="221.116" r="7.5" fill="white" stroke="#AFB8C1" stroke-width="3"/>
<g style="mix-blend-mode:darken">
<rect x="123" y="115.99" width="51" height="12.2287" fill="#B2E9CC"/>
</g>
<path d="M66 184.693C66 183.588 66.8954 182.693 68 182.693H132C133.105 182.693 134 183.588 134 184.693V194.033C134 195.138 133.105 196.033 132 196.033H68C66.8954 196.033 66 195.138 66 194.033V184.693Z" fill="white" stroke="#33A165" stroke-width="3"/>
<rect x="77" y="196.033" width="46" height="8.89362" fill="white" stroke="#33A165" stroke-width="3"/>
<path d="M61 212.927C61 208.508 64.5817 204.927 69 204.927H131C135.418 204.927 139 208.508 139 212.927V294.31C139 296.519 137.209 298.31 135 298.31H65C62.7909 298.31 61 296.519 61 294.31V212.927Z" fill="url(#paint1_linear_2186_8744)" stroke="#33A165" stroke-width="3"/>
<g style="mix-blend-mode:darken">
<line x1="174.5" y1="90.4213" x2="174.5" y2="114.879" stroke="#40C97F" stroke-width="3"/>
</g>
<g style="mix-blend-mode:darken">
<line x1="146.5" y1="90.4213" x2="146.5" y2="114.879" stroke="#40C97F" stroke-width="3"/>
</g>
<g style="mix-blend-mode:darken">
<line x1="167.5" y1="90.4213" x2="167.5" y2="114.879" stroke="#40C97F" stroke-width="3"/>
</g>
<g style="mix-blend-mode:darken">
<line x1="139.5" y1="90.4213" x2="139.5" y2="114.879" stroke="#40C97F" stroke-width="3"/>
</g>
<g style="mix-blend-mode:darken">
<line x1="160.5" y1="90.4213" x2="160.5" y2="114.879" stroke="#40C97F" stroke-width="3"/>
</g>
<g style="mix-blend-mode:darken">
<line x1="132.5" y1="90.4213" x2="132.5" y2="114.879" stroke="#40C97F" stroke-width="3"/>
</g>
<g style="mix-blend-mode:darken">
<line x1="118.5" y1="90.4213" x2="118.5" y2="114.879" stroke="#40C97F" stroke-width="3"/>
</g>
<g style="mix-blend-mode:darken">
<line x1="153.5" y1="90.4213" x2="153.5" y2="114.879" stroke="#40C97F" stroke-width="3"/>
</g>
<g style="mix-blend-mode:darken">
<line x1="125.5" y1="90.4213" x2="125.5" y2="114.879" stroke="#40C97F" stroke-width="3"/>
</g>
<g style="mix-blend-mode:darken">
<line x1="111.5" y1="90.4213" x2="111.5" y2="114.879" stroke="#40C97F" stroke-width="3"/>
</g>
<rect x="61" y="237.166" width="78" height="31.1277" fill="#FAFAFC" stroke="#33A165" stroke-width="3"/>
<line x1="129" y1="182.693" x2="129" y2="196.033" stroke="#33A165" stroke-width="2"/>
<line x1="99" y1="182.693" x2="99" y2="196.033" stroke="#33A165" stroke-width="2"/>
<line x1="124" y1="182.693" x2="124" y2="196.033" stroke="#33A165" stroke-width="2"/>
<line x1="94" y1="182.693" x2="94" y2="196.033" stroke="#33A165" stroke-width="2"/>
<line x1="119" y1="182.693" x2="119" y2="196.033" stroke="#33A165" stroke-width="2"/>
<line x1="89" y1="182.693" x2="89" y2="196.033" stroke="#33A165" stroke-width="2"/>
<line x1="114" y1="182.693" x2="114" y2="196.033" stroke="#33A165" stroke-width="2"/>
<line x1="84" y1="182.693" x2="84" y2="196.033" stroke="#33A165" stroke-width="2"/>
<line x1="109" y1="182.693" x2="109" y2="196.033" stroke="#33A165" stroke-width="2"/>
<line x1="79" y1="182.693" x2="79" y2="196.033" stroke="#33A165" stroke-width="2"/>
<line x1="104" y1="182.693" x2="104" y2="196.033" stroke="#33A165" stroke-width="2"/>
<line x1="74" y1="182.693" x2="74" y2="196.033" stroke="#33A165" stroke-width="2"/>
<line x1="70" y1="182.693" x2="70" y2="196.033" stroke="#33A165" stroke-width="2"/>
</g>
<g filter="url(#filter0_f_2186_8744)">
<circle cx="186.5" cy="235.81" r="90.5" fill="white" fill-opacity="0.6"/>
</g>
<path d="M147.626 154.163L156.112 180.537" stroke="#195033" stroke-width="3"/>
<path d="M108.47 193.161L130.935 205.764" stroke="#195033" stroke-width="3"/>
<ellipse cx="1.99998" cy="1.96773" rx="1.99998" ry="1.96773" transform="matrix(0.913343 -0.407195 0.424087 0.905623 111.158 172.711)" fill="#195033"/>
<ellipse cx="1.99998" cy="1.96773" rx="1.99998" ry="1.96773" transform="matrix(0.913343 -0.407195 0.424087 0.905623 140.281 172.554)" fill="#195033"/>
<ellipse cx="1.99998" cy="1.96773" rx="1.99998" ry="1.96773" transform="matrix(0.913343 -0.407195 0.424087 0.905623 148.449 193.648)" fill="#195033"/>
<path fill-rule="evenodd" clip-rule="evenodd" d="M127.839 162.744L126.055 169.379L128.969 170.124L130.752 163.489L137.552 165.228L138.316 162.385L131.517 160.646L133.3 154.013L130.387 153.268L128.603 159.901L121.803 158.163L121.038 161.006L127.839 162.744Z" fill="#195033"/>
<path fill-rule="evenodd" clip-rule="evenodd" d="M132.504 190.248L136.051 196.168L138.651 194.685L135.105 188.765L141.174 185.303L139.654 182.766L133.585 186.228L130.038 180.308L127.437 181.791L130.984 187.711L124.914 191.173L126.434 193.71L132.504 190.248Z" fill="#195033"/>
<path d="M278.063 281.558C269.284 313.24 236.801 332.179 205.556 323.939C174.31 315.698 156.035 283.372 164.815 251.691C173.594 220.009 206.077 201.069 237.322 209.31C268.568 217.551 286.843 249.877 278.063 281.558Z" fill="#40C97F" stroke="#195033" stroke-width="4"/>
<path fill-rule="evenodd" clip-rule="evenodd" d="M170.835 209.924C172.714 204.176 175.525 198.004 179.627 191.799C195.459 167.85 206.803 162.45 210.819 163.197C214.836 163.944 221.751 165.536 217.002 193.462C216.66 195.399 216.024 197.346 215.276 199.155C217.615 199.488 219.957 199.96 222.293 200.576C224.668 201.203 226.971 201.961 229.198 202.841C239.526 195.082 257.97 185.56 282.445 185.074C320.474 184.319 292.525 220.086 282.251 229.864C275.319 236.462 270.183 240.761 265.617 244.412C268.218 254.603 268.263 265.645 265.225 276.606C255.996 309.909 221.812 329.863 188.872 321.176C155.932 312.489 136.711 278.449 145.94 245.146C150.054 230.302 159.125 218.11 170.835 209.924Z" fill="url(#paint2_linear_2186_8744)"/>
<path d="M179.627 191.799L177.954 190.717L179.627 191.799ZM170.835 209.924L171.978 211.551C172.338 211.299 172.607 210.938 172.743 210.522L170.835 209.924ZM210.819 163.197L211.209 161.237L210.819 163.197ZM217.002 193.462L218.978 193.786L218.98 193.773L217.002 193.462ZM215.276 199.155L213.421 198.415C213.187 198.982 213.226 199.623 213.528 200.153C213.83 200.682 214.362 201.042 214.97 201.129L215.276 199.155ZM229.198 202.841L228.439 204.695C229.09 204.952 229.833 204.85 230.397 204.427L229.198 202.841ZM282.445 185.074L282.464 187.068L282.445 185.074ZM282.251 229.864L283.631 231.297L283.631 231.297L282.251 229.864ZM265.617 244.412L264.369 242.864C263.751 243.359 263.478 244.164 263.672 244.922L265.617 244.412ZM145.94 245.146L147.874 245.656L145.94 245.146ZM177.954 190.717C173.746 197.083 170.858 203.42 168.928 209.327L172.743 210.522C174.57 204.932 177.305 198.925 181.3 192.881L177.954 190.717ZM211.209 161.237C209.666 160.95 207.78 161.294 205.724 162.144C203.627 163.01 201.173 164.477 198.407 166.689C192.874 171.112 185.945 178.629 177.954 190.717L181.3 192.881C189.141 181.02 195.8 173.863 200.901 169.785C203.452 167.746 205.576 166.507 207.231 165.823C208.926 165.122 209.965 165.07 210.43 165.157L211.209 161.237ZM218.98 193.773C221.363 179.761 220.919 171.898 219.056 167.366C218.092 165.021 216.735 163.536 215.206 162.609C213.729 161.713 212.22 161.425 211.209 161.237L210.43 165.157C211.427 165.342 212.289 165.534 213.089 166.019C213.838 166.473 214.667 167.272 215.339 168.908C216.75 172.341 217.39 179.237 215.023 193.15L218.98 193.773ZM217.131 199.895C217.916 197.995 218.603 195.905 218.978 193.786L215.026 193.138C214.716 194.892 214.132 196.696 213.421 198.415L217.131 199.895ZM214.97 201.129C217.232 201.451 219.498 201.908 221.759 202.504L222.827 198.649C220.416 198.013 217.998 197.526 215.582 197.181L214.97 201.129ZM221.759 202.504C224.057 203.11 226.286 203.843 228.439 204.695L229.957 200.987C227.657 200.078 225.279 199.296 222.827 198.649L221.759 202.504ZM230.397 204.427C240.458 196.868 258.498 187.544 282.464 187.068L282.427 183.081C257.441 183.577 238.594 193.296 227.999 201.255L230.397 204.427ZM282.464 187.068C291.792 186.883 296.319 188.972 298.293 191.587C300.251 194.179 300.258 198.043 298.567 202.884C296.902 207.648 293.765 212.826 290.348 217.469C286.942 222.097 283.347 226.075 280.872 228.431L283.631 231.297C286.292 228.764 290.043 224.604 293.579 219.8C297.103 215.01 300.503 209.46 302.356 204.155C304.183 198.927 304.689 193.379 301.512 189.172C298.352 184.987 292.113 182.889 282.427 183.081L282.464 187.068ZM280.872 228.431C273.989 234.982 268.899 239.242 264.369 242.864L266.864 245.96C271.467 242.279 276.649 237.942 283.631 231.297L280.872 228.431ZM263.672 244.922C266.19 254.786 266.234 265.476 263.291 276.096L267.159 277.116C270.292 265.813 270.247 254.42 267.562 243.902L263.672 244.922ZM263.291 276.096C254.35 308.36 221.252 327.647 189.406 319.249L188.338 323.103C222.372 332.079 257.642 311.457 267.159 277.116L263.291 276.096ZM189.406 319.249C157.561 310.85 138.933 277.921 147.874 245.656L144.006 244.636C134.489 278.977 154.304 314.127 188.338 323.103L189.406 319.249ZM147.874 245.656C151.859 231.277 160.642 219.475 171.978 211.551L169.693 208.298C157.609 216.745 148.249 229.327 144.006 244.636L147.874 245.656Z" fill="#195033"/>
<path d="M228.092 204.405L230.211 205.096L231.627 200.87L229.508 200.179L228.092 204.405ZM199.209 197.985C197.987 198.163 197.135 199.292 197.306 200.507C197.477 201.722 198.606 202.562 199.828 202.384L199.209 197.985ZM229.508 200.179C220.1 197.11 211.868 196.14 199.209 197.985L199.828 202.384C211.822 200.636 219.357 201.555 228.092 204.405L229.508 200.179Z" fill="#195033"/>
<path d="M240.53 214.503C248.148 210.508 264.495 205.733 267.645 206.01C267.823 206.026 267.994 206.052 268.173 206.061C270.513 206.179 274.139 207.3 271.758 211.041C269.538 214.531 260.976 223.66 255.726 229.082C254.828 230.009 253.344 229.991 252.463 229.068C249.319 225.773 244.445 220.995 240.47 218.052C239.208 217.117 239.125 215.24 240.53 214.503Z" fill="#40C97F"/>
<mask id="path-69-inside-1_2186_8744" fill="white">
<path fill-rule="evenodd" clip-rule="evenodd" d="M186.478 257.354C188.074 254.992 189.349 252.268 190.179 249.276C193.498 237.298 188.42 225.54 178.838 223.013C169.256 220.486 158.797 228.146 155.478 240.124C152.28 251.661 156.874 262.995 165.781 266.071C168.419 258.539 175.951 254.037 183.1 255.922C184.317 256.243 185.447 256.73 186.478 257.354Z"/>
</mask>
<path fill-rule="evenodd" clip-rule="evenodd" d="M186.478 257.354C188.074 254.992 189.349 252.268 190.179 249.276C193.498 237.298 188.42 225.54 178.838 223.013C169.256 220.486 158.797 228.146 155.478 240.124C152.28 251.661 156.874 262.995 165.781 266.071C168.419 258.539 175.951 254.037 183.1 255.922C184.317 256.243 185.447 256.73 186.478 257.354Z" fill="white"/>
<path d="M186.478 257.354L184.711 260.204L187.45 261.864L189.256 259.191L186.478 257.354ZM165.781 266.071L164.65 269.22L167.832 270.319L168.947 267.136L165.781 266.071ZM186.946 248.423C186.213 251.07 185.09 253.46 183.7 255.517L189.256 259.191C191.058 256.523 192.486 253.467 193.411 250.128L186.946 248.423ZM177.945 226.234C185.098 228.121 189.972 237.506 186.946 248.423L193.411 250.128C197.024 237.09 191.743 222.959 179.731 219.791L177.945 226.234ZM158.71 240.976C161.735 230.059 170.792 224.348 177.945 226.234L179.731 219.791C167.719 216.623 155.858 226.234 152.245 239.271L158.71 240.976ZM166.912 262.922C160.211 260.608 155.805 251.458 158.71 240.976L152.245 239.271C148.755 251.864 153.538 265.383 164.65 269.22L166.912 262.922ZM168.947 267.136C171.096 261.002 177.018 257.775 182.207 259.144L183.993 252.701C174.884 250.299 165.743 256.076 162.615 265.006L168.947 267.136ZM182.207 259.144C183.111 259.382 183.947 259.742 184.711 260.204L188.246 254.503C186.947 253.717 185.523 253.105 183.993 252.701L182.207 259.144Z" fill="#195033" mask="url(#path-69-inside-1_2186_8744)"/>
<path d="M270.433 205.326C267.722 204.611 245.52 211.243 240.258 215.531" stroke="#195033" stroke-width="4" stroke-linecap="round"/>
<ellipse cx="12.3364" cy="15.3686" rx="12.3364" ry="15.3686" transform="matrix(0.966937 0.255014 -0.267059 0.96368 167.209 221.125)" fill="#195033"/>
<path d="M242.783 263.149C239.611 274.596 229.853 281.282 221.485 279.075C213.117 276.868 208.142 266.296 211.314 254.849C214.487 243.402 224.245 236.716 232.612 238.923C240.98 241.13 245.955 251.702 242.783 263.149Z" fill="white" stroke="#195033" stroke-width="3.34283"/>
<ellipse cx="12.3364" cy="15.3686" rx="12.3364" ry="15.3686" transform="matrix(0.966937 0.255014 -0.267059 0.96368 221.429 235.424)" fill="#195033"/>
<ellipse cx="5.04671" cy="6.03768" rx="5.04671" ry="6.03768" transform="matrix(0.966937 0.255014 -0.267059 0.96368 226.445 241.085)" fill="white"/>
<ellipse cx="5.04671" cy="6.03768" rx="5.04671" ry="6.03768" transform="matrix(0.966937 0.255014 -0.267059 0.96368 172.225 226.786)" fill="white"/>
<path d="M178.643 288.803C168.761 286.197 162.784 276.743 165.294 267.687C167.804 258.631 177.849 253.402 187.731 256.008" stroke="#195033" stroke-width="3.34283"/>
<path d="M192.962 260.227C192.234 262.856 188.002 264.027 183.51 262.842C179.018 261.657 175.968 258.566 176.696 255.937C177.425 253.307 181.657 252.136 186.148 253.321C190.64 254.506 193.691 257.597 192.962 260.227Z" fill="#195033"/>
</g>
<defs>
<filter id="filter0_f_2186_8744" x="36" y="85.3096" width="301" height="301" filterUnits="userSpaceOnUse" color-interpolation-filters="sRGB">
<feFlood flood-opacity="0" result="BackgroundImageFix"/>
<feBlend mode="normal" in="SourceGraphic" in2="BackgroundImageFix" result="shape"/>
<feGaussianBlur stdDeviation="30" result="effect1_foregroundBlur_2186_8744"/>
</filter>
<linearGradient id="paint0_linear_2186_8744" x1="218" y1="298.31" x2="218" y2="157.124" gradientUnits="userSpaceOnUse">
<stop stop-color="#959CA4"/>
<stop offset="1" stop-color="#FCFDFC"/>
</linearGradient>
<linearGradient id="paint1_linear_2186_8744" x1="100" y1="204.927" x2="100" y2="298.31" gradientUnits="userSpaceOnUse">
<stop stop-color="#40C97F"/>
<stop offset="1" stop-color="#C1CAD4"/>
</linearGradient>
<linearGradient id="paint2_linear_2186_8744" x1="241.756" y1="162.412" x2="199.169" y2="323.891" gradientUnits="userSpaceOnUse">
<stop stop-color="#F3FFC4"/>
<stop offset="1" stop-color="#E6FF86"/>
</linearGradient>
<clipPath id="clip0_2186_8744">
<rect width="312" height="335" fill="white" transform="translate(0 0.30957)"/>
</clipPath>
</defs>
</svg>
