<svg width="26" height="24" viewBox="0 0 26 24" fill="none" xmlns="http://www.w3.org/2000/svg">
<path id="Star 1" d="M12.1168 1.79473C12.4928 1.08682 13.5072 1.08682 13.8832 1.79473L16.2611 6.27196C16.6947 7.08839 17.4805 7.65932 18.391 7.81943L23.3839 8.69744C24.1734 8.83627 24.4868 9.80098 23.9298 10.3773L20.4065 14.0224C19.764 14.6871 19.4639 15.6109 19.5929 16.5263L20.3008 21.5461C20.4127 22.3399 19.5921 22.9361 18.8718 22.5844L14.3164 20.3599C13.4857 19.9543 12.5143 19.9543 11.6836 20.3599L7.1282 22.5844C6.40792 22.9361 5.58729 22.3399 5.69922 21.5461L6.40707 16.5263C6.53615 15.6109 6.236 14.6871 5.59352 14.0224L2.07025 10.3773C1.51317 9.80098 1.82662 8.83627 2.61607 8.69744L7.60899 7.81943C8.51946 7.65932 9.30527 7.08839 9.7389 6.27196L12.1168 1.79473Z" stroke="#959CA4" stroke-width="2"/>
</svg>
