<svg xmlns="http://www.w3.org/2000/svg" width="26" height="24" viewBox="0 0 26 24" fill="none">
  <path d="M11.2337 1.32567C11.9856 -0.0901567 14.0144 -0.0901566 14.7663 1.32567L17.1443 5.8029C17.4334 6.34718 17.9572 6.7278 18.5642 6.83454L23.5571 7.71256C25.136 7.99021 25.7629 9.91963 24.6488 11.0723L21.1255 14.7174C20.6972 15.1605 20.4971 15.7764 20.5831 16.3866L21.291 21.4065C21.5148 22.9939 19.8736 24.1864 18.433 23.483L13.8776 21.2585C13.3238 20.9881 12.6762 20.9881 12.1224 21.2585L7.56699 23.483C6.12643 24.1864 4.48517 22.9939 4.70901 21.4065L5.41686 16.3866C5.50292 15.7764 5.30282 15.1605 4.8745 14.7174L1.35123 11.0723C0.237068 9.91963 0.863974 7.99021 2.44288 7.71256L7.4358 6.83454C8.04278 6.7278 8.56665 6.34718 8.85573 5.8029L11.2337 1.32567Z" fill="#40C97F"/>
</svg>