<svg width="312" height="57" viewBox="0 0 312 57" fill="none" xmlns="http://www.w3.org/2000/svg">
<rect width="312" height="57" rx="8" fill="#ECEEF0"/>
<path d="M138.659 20.456V36.422H136.913V27.62H133.709V26.18H136.913V20.456H138.659ZM125.303 31.94C126.095 31.556 126.797 30.992 127.409 30.248C128.033 29.504 128.513 28.664 128.849 27.728C129.197 26.78 129.371 25.826 129.371 24.866V23.498H125.897V22.058H134.627V23.498H131.153V24.866C131.153 25.766 131.321 26.672 131.657 27.584C132.005 28.484 132.485 29.294 133.097 30.014C133.721 30.722 134.429 31.256 135.221 31.616L134.177 33.02C133.289 32.576 132.509 31.928 131.837 31.076C131.165 30.224 130.643 29.252 130.271 28.16C129.911 29.324 129.389 30.362 128.705 31.274C128.021 32.186 127.229 32.876 126.329 33.344L125.303 31.94ZM149.944 21.608V23.048H146.578V23.372C146.578 24.392 146.908 25.328 147.568 26.18C148.24 27.02 149.17 27.632 150.358 28.016L149.494 29.384C148.63 29.096 147.874 28.676 147.226 28.124C146.59 27.56 146.092 26.9 145.732 26.144C145.384 27.02 144.874 27.782 144.202 28.43C143.53 29.078 142.726 29.564 141.79 29.888L140.89 28.502C142.114 28.082 143.074 27.404 143.77 26.468C144.466 25.532 144.814 24.506 144.814 23.39V23.048H141.394V21.608H149.944ZM143.032 33.38C143.032 32.444 143.5 31.712 144.436 31.184C145.384 30.656 146.68 30.392 148.324 30.392C149.968 30.392 151.258 30.656 152.194 31.184C153.142 31.712 153.616 32.444 153.616 33.38C153.616 34.316 153.142 35.048 152.194 35.576C151.246 36.116 149.956 36.386 148.324 36.386C146.692 36.386 145.402 36.116 144.454 35.576C143.506 35.048 143.032 34.316 143.032 33.38ZM144.76 33.38C144.76 33.896 145.072 34.298 145.696 34.586C146.332 34.874 147.208 35.018 148.324 35.018C149.44 35.018 150.31 34.874 150.934 34.586C151.558 34.298 151.87 33.896 151.87 33.38C151.87 32.876 151.558 32.486 150.934 32.21C150.322 31.934 149.452 31.796 148.324 31.796C147.196 31.796 146.32 31.934 145.696 32.21C145.072 32.486 144.76 32.876 144.76 33.38ZM151.672 20.474H153.436V24.38H155.704V25.838H153.436V30.014H151.672V20.474ZM168.896 20.474V26.9H171.38V28.376H168.896V36.404H167.132V20.474H168.896ZM156.458 22.94H160.292V20.69H162.074V22.94H165.836V24.38H156.458V22.94ZM157.25 29.258C157.25 28.538 157.418 27.896 157.754 27.332C158.102 26.768 158.576 26.33 159.176 26.018C159.776 25.706 160.448 25.55 161.192 25.55C161.948 25.55 162.626 25.706 163.226 26.018C163.826 26.33 164.294 26.768 164.63 27.332C164.966 27.896 165.134 28.538 165.134 29.258C165.134 29.978 164.966 30.62 164.63 31.184C164.294 31.736 163.826 32.174 163.226 32.498C162.626 32.81 161.948 32.966 161.192 32.966C160.448 32.966 159.776 32.81 159.176 32.498C158.576 32.174 158.102 31.73 157.754 31.166C157.418 30.602 157.25 29.966 157.25 29.258ZM158.96 29.258C158.96 29.93 159.164 30.476 159.572 30.896C159.992 31.304 160.532 31.508 161.192 31.508C161.852 31.508 162.392 31.304 162.812 30.896C163.232 30.476 163.442 29.93 163.442 29.258C163.442 28.586 163.232 28.04 162.812 27.62C162.392 27.2 161.852 26.99 161.192 26.99C160.532 26.99 159.992 27.2 159.572 27.62C159.164 28.028 158.96 28.574 158.96 29.258ZM185.202 20.474V36.404H183.438V20.474H185.202ZM172.206 32.138C174.27 31.142 175.824 29.942 176.868 28.538C177.912 27.122 178.518 25.472 178.686 23.588H172.962V22.148H180.504C180.504 24.644 179.928 26.852 178.776 28.772C177.624 30.68 175.74 32.27 173.124 33.542L172.206 32.138Z" fill="#BDC5CC"/>
</svg>
