<svg width="26" height="26" viewBox="0 0 26 26" fill="none" xmlns="http://www.w3.org/2000/svg">
<rect width="26" height="26" fill="#F5F5F5"/>
<rect width="360" height="800" transform="translate(-40 -458)" fill="#FAFAFC"/>
<rect x="-15.5" y="-15.5" width="311" height="57" rx="7.5" fill="white"/>
<rect x="-15.5" y="-15.5" width="311" height="57" rx="7.5" stroke="#ECEEF0"/>
<mask id="mask0_1324_13743" style="mask-type:alpha" maskUnits="userSpaceOnUse" x="0" y="0" width="26" height="26">
<circle cx="13" cy="13" r="13" fill="#D9D9D9"/>
</mask>
<g mask="url(#mask0_1324_13743)">
<circle cx="13" cy="13" r="13" fill="#D9F4E5"/>
</g>
<g clip-path="url(#clip0_1324_13743)">
<path fill-rule="evenodd" clip-rule="evenodd" d="M7.00098 8.00039C7.00098 7.66902 7.26961 7.40039 7.60098 7.40039H17.601C17.9323 7.40039 18.201 7.66902 18.201 8.00039V18.0004C18.201 18.3318 17.9323 18.6004 17.601 18.6004H7.60098C7.26961 18.6004 7.00098 18.3318 7.00098 18.0004V8.00039ZM8.20098 8.60039V17.4004H17.001V8.60039H8.20098Z" fill="#40C97F"/>
<path fill-rule="evenodd" clip-rule="evenodd" d="M7.37137 4.44608C7.59557 4.35321 7.85364 4.40455 8.02524 4.57614L8.60098 5.15188L9.17671 4.57614C9.41103 4.34183 9.79093 4.34183 10.0252 4.57614L10.601 5.15188L11.1767 4.57614C11.411 4.34183 11.7909 4.34183 12.0252 4.57614L12.601 5.15188L13.1767 4.57614C13.411 4.34183 13.7909 4.34183 14.0252 4.57614L14.601 5.15188L15.1767 4.57614C15.411 4.34183 15.7909 4.34183 16.0252 4.57614L16.601 5.15188L17.1767 4.57614C17.3483 4.40455 17.6064 4.35321 17.8306 4.44608C18.0548 4.53895 18.201 4.75773 18.201 5.00041V8.00041H17.001V6.44764C16.7654 6.65872 16.4031 6.65106 16.1767 6.42467L15.601 5.84894L15.0252 6.42467C14.7909 6.65899 14.411 6.65899 14.1767 6.42467L13.601 5.84894L13.0252 6.42467C12.7909 6.65899 12.411 6.65899 12.1767 6.42467L11.601 5.84894L11.0252 6.42467C10.7909 6.65899 10.411 6.65899 10.1767 6.42467L9.60098 5.84894L9.02524 6.42467C8.79885 6.65106 8.43656 6.65872 8.20098 6.44764V8.00041H7.00098V5.00041C7.00098 4.75773 7.14716 4.53895 7.37137 4.44608Z" fill="#40C97F"/>
<path fill-rule="evenodd" clip-rule="evenodd" d="M17.8298 21.5539C17.6056 21.6468 17.3475 21.5955 17.1759 21.4239L16.6002 20.8481L16.0245 21.4239C15.7901 21.6582 15.4102 21.6582 15.1759 21.4239L14.6002 20.8481L14.0245 21.4239C13.7901 21.6582 13.4102 21.6582 13.1759 21.4239L12.6002 20.8481L12.0245 21.4239C11.7901 21.6582 11.4102 21.6582 11.1759 21.4239L10.6002 20.8481L10.0245 21.4239C9.79014 21.6582 9.41025 21.6582 9.17593 21.4239L8.60019 20.8481L8.02446 21.4239C7.85286 21.5955 7.59479 21.6468 7.37058 21.5539C7.14638 21.461 7.00019 21.2423 7.00019 20.9996L7.00019 17.9996L8.2002 17.9996L8.2002 19.5524C8.43578 19.3413 8.79807 19.3489 9.02446 19.5753L9.6002 20.1511L10.1759 19.5753C10.4102 19.341 10.7901 19.341 11.0245 19.5753L11.6002 20.1511L12.1759 19.5753C12.4102 19.341 12.7901 19.341 13.0245 19.5753L13.6002 20.1511L14.1759 19.5753C14.4102 19.341 14.7901 19.341 15.0245 19.5753L15.6002 20.1511L16.1759 19.5753C16.4023 19.3489 16.7646 19.3413 17.0002 19.5524L17.0002 17.9996L18.2002 17.9996L18.2002 20.9996C18.2002 21.2423 18.054 21.4611 17.8298 21.5539Z" fill="#40C97F"/>
<path fill-rule="evenodd" clip-rule="evenodd" d="M13.3454 14.1027C13.2746 13.7598 12.9155 13.4482 12.5644 13.4629L12.5615 13.463L12.5615 13.463C12.4482 13.467 12.2965 13.5221 12.1512 13.6402C12.0076 13.7571 11.9054 13.9076 11.8635 14.0529L11.8614 14.06L11.8614 14.06C11.8243 14.1819 11.8281 14.2694 11.8471 14.3369C11.8664 14.4058 11.911 14.4878 12.007 14.5819C12.15 14.7139 12.3247 14.7875 12.5649 14.8144C12.6111 14.8051 12.6558 14.7969 12.6948 14.7898C12.7077 14.7874 12.72 14.7851 12.7315 14.783C12.8047 14.7694 12.8592 14.7581 12.9067 14.7442C13.2643 14.635 13.3994 14.3605 13.3457 14.1043L13.3454 14.1027L13.3454 14.1027ZM14.3246 13.8999C14.1682 13.1441 13.4288 12.4268 12.5243 12.4637C12.1494 12.4775 11.7956 12.6405 11.5202 12.8645C11.2437 13.0894 11.0106 13.4044 10.9036 13.7724C10.8196 14.0507 10.8074 14.3329 10.8842 14.6067C10.9606 14.8795 11.1158 15.1105 11.314 15.3029L11.314 15.303L11.3211 15.3096C11.688 15.652 12.1215 15.7859 12.5595 15.818L12.6359 15.8236L12.7105 15.806C12.7576 15.795 12.8044 15.7864 12.865 15.7753C12.8804 15.7724 12.8967 15.7694 12.9141 15.7662C12.9926 15.7516 13.0904 15.7326 13.1908 15.703L13.1908 15.703L13.1947 15.7019C13.9873 15.4617 14.4972 14.7249 14.3246 13.8999Z" fill="#40C97F"/>
<path d="M11.8367 11C12.1072 11 12.3079 11.2094 12.3079 11.4799C12.3079 11.7417 12.0985 11.9424 11.8367 11.9424C11.5662 11.9424 11.3568 11.7243 11.3655 11.4625C11.3655 11.2007 11.5749 11 11.8367 11Z" fill="#40C97F"/>
<path d="M14.6112 12.9546C14.3407 12.9546 14.14 12.7364 14.1487 12.4572C14.1487 12.1954 14.3669 12.0034 14.6374 12.0034C14.8991 12.0034 15.0998 12.2216 15.0998 12.4833C15.0998 12.7539 14.8817 12.9546 14.6112 12.9546Z" fill="#40C97F"/>
<path d="M13.8261 11.4799C13.8261 11.7504 13.608 11.9511 13.3375 11.9511C13.0757 11.9511 12.875 11.7417 12.875 11.4712C12.8837 11.2007 13.0931 11 13.3637 11C13.6254 11 13.8261 11.2094 13.8261 11.4799Z" fill="#40C97F"/>
<path d="M10.5718 12.9541C10.3013 12.9541 10.1006 12.7447 10.1006 12.4742C10.1006 12.2124 10.31 12.0117 10.5805 12.0117C10.851 12.0117 11.0517 12.2211 11.0517 12.4916C11.0517 12.7534 10.8423 12.9541 10.5718 12.9541Z" fill="#40C97F"/>
</g>
<defs>
<clipPath id="clip0_1324_13743">
<rect width="24" height="24" fill="white" transform="translate(1 1)"/>
</clipPath>
</defs>
</svg>
