<svg width="52" height="52" viewBox="0 0 52 52" fill="none" xmlns="http://www.w3.org/2000/svg">
<rect width="52" height="52" rx="26" fill="#D9F4E5"/>
<g clip-path="url(#clip0_1575_8585)">
<path fill-rule="evenodd" clip-rule="evenodd" d="M31.2503 11.804C31.2503 11.4374 30.8471 11.214 30.5363 11.4082L27.9384 13.032C27.6417 13.2174 27.2989 13.3157 26.9491 13.3157H22.617C20.1041 13.3157 18.067 15.3528 18.067 17.8657C18.067 20.3786 20.1041 22.4157 22.617 22.4157H26.9491C27.2989 22.4157 27.6417 22.514 27.9384 22.6994L30.5363 24.3231C30.8471 24.5174 31.2503 24.2939 31.2503 23.9274V11.804ZM29.7943 10.221C31.0376 9.44399 32.6503 10.3378 32.6503 11.804V23.9274C32.6503 25.3935 31.0376 26.2874 29.7943 25.5103L27.1964 23.8866C27.1222 23.8403 27.0365 23.8157 26.9491 23.8157H22.617C19.3309 23.8157 16.667 21.1518 16.667 17.8657C16.667 14.5796 19.3309 11.9157 22.617 11.9157H26.9491C27.0365 11.9157 27.1222 11.8911 27.1964 11.8448L29.7943 10.221Z" fill="#40C97F"/>
<path fill-rule="evenodd" clip-rule="evenodd" d="M31.25 14.249H31.95C33.9474 14.249 35.5667 15.8683 35.5667 17.8657C35.5667 19.8631 33.9474 21.4824 31.95 21.4824H31.25V14.249ZM32.65 15.7618V19.9696C33.5312 19.6765 34.1667 18.8453 34.1667 17.8657C34.1667 16.8861 33.5312 16.0549 32.65 15.7618Z" fill="#40C97F"/>
<path fill-rule="evenodd" clip-rule="evenodd" d="M20.7851 22.4155H26.5746L24.3389 27.9031C24.0525 28.606 23.3691 29.0655 22.6102 29.0655H20.852C19.5263 29.0655 18.6231 27.7223 19.1232 26.4946L20.7851 22.4155ZM21.7264 23.8155L20.4198 27.0228C20.2947 27.3297 20.5205 27.6655 20.852 27.6655H22.6102C22.7999 27.6655 22.9708 27.5506 23.0424 27.3749L24.4925 23.8155H21.7264Z" fill="#40C97F"/>
</g>
<path d="M18.144 36.044V41.252H17.36V38.828H15.944V38.18H17.36V36.044H18.144ZM12.376 39.86C13.1707 39.5987 13.8107 39.2413 14.296 38.788C14.7813 38.3293 15.0613 37.8067 15.136 37.22H12.744V36.588H15.976C15.976 37.5053 15.688 38.3027 15.112 38.98C14.536 39.652 13.7333 40.156 12.704 40.492L12.376 39.86ZM13.608 40.724H14.4V42.34H18.32V42.98H13.608V40.724ZM21.5602 36.54C21.9229 36.54 22.2482 36.612 22.5362 36.756C22.8295 36.9 23.0589 37.1027 23.2242 37.364C23.3895 37.62 23.4722 37.9107 23.4722 38.236C23.4722 38.5667 23.3895 38.86 23.2242 39.116C23.0589 39.372 22.8295 39.572 22.5362 39.716C22.2482 39.86 21.9229 39.932 21.5602 39.932C21.1922 39.932 20.8615 39.86 20.5682 39.716C20.2802 39.572 20.0535 39.372 19.8882 39.116C19.7229 38.86 19.6402 38.5667 19.6402 38.236C19.6402 37.9107 19.7229 37.62 19.8882 37.364C20.0535 37.1027 20.2802 36.9 20.5682 36.756C20.8615 36.612 21.1922 36.54 21.5602 36.54ZM19.3042 40.98C20.2002 40.98 21.0162 40.9667 21.7522 40.94C22.4935 40.908 23.2002 40.8413 23.8722 40.74L23.9282 41.308C23.2349 41.4413 22.5229 41.5293 21.7922 41.572C21.0615 41.6093 20.2642 41.628 19.4002 41.628L19.3042 40.98ZM20.4082 38.236C20.4082 38.54 20.5149 38.788 20.7282 38.98C20.9469 39.1667 21.2242 39.26 21.5602 39.26C21.8909 39.26 22.1629 39.1667 22.3762 38.98C22.5949 38.788 22.7042 38.54 22.7042 38.236C22.7042 37.9267 22.5975 37.6813 22.3842 37.5C22.1709 37.3133 21.8962 37.22 21.5602 37.22C21.2242 37.22 20.9469 37.3133 20.7282 37.5C20.5149 37.6813 20.4082 37.9267 20.4082 38.236ZM24.3042 36.036H25.0882V43.132H24.3042V36.036ZM31.7604 36.044V38.9H32.8644V39.556H31.7604V43.124H30.9764V36.044H31.7604ZM26.2324 37.14H27.9364V36.14H28.7284V37.14H30.4004V37.78H26.2324V37.14ZM26.5844 39.948C26.5844 39.628 26.659 39.3427 26.8084 39.092C26.963 38.8413 27.1737 38.6467 27.4404 38.508C27.707 38.3693 28.0057 38.3 28.3364 38.3C28.6724 38.3 28.9737 38.3693 29.2404 38.508C29.507 38.6467 29.715 38.8413 29.8644 39.092C30.0137 39.3427 30.0884 39.628 30.0884 39.948C30.0884 40.268 30.0137 40.5533 29.8644 40.804C29.715 41.0493 29.507 41.244 29.2404 41.388C28.9737 41.5267 28.6724 41.596 28.3364 41.596C28.0057 41.596 27.707 41.5267 27.4404 41.388C27.1737 41.244 26.963 41.0467 26.8084 40.796C26.659 40.5453 26.5844 40.2627 26.5844 39.948ZM27.3444 39.948C27.3444 40.2467 27.435 40.4893 27.6164 40.676C27.803 40.8573 28.043 40.948 28.3364 40.948C28.6297 40.948 28.8697 40.8573 29.0564 40.676C29.243 40.4893 29.3364 40.2467 29.3364 39.948C29.3364 39.6493 29.243 39.4067 29.0564 39.22C28.8697 39.0333 28.6297 38.94 28.3364 38.94C28.043 38.94 27.803 39.0333 27.6164 39.22C27.435 39.4013 27.3444 39.644 27.3444 39.948ZM39.0966 36.044V43.124H38.3126V36.044H39.0966ZM33.3206 41.228C34.2379 40.7853 34.9286 40.252 35.3926 39.628C35.8566 38.9987 36.1259 38.2653 36.2006 37.428H33.6566V36.788H37.0086C37.0086 37.8973 36.7526 38.8787 36.2406 39.732C35.7286 40.58 34.8912 41.2867 33.7286 41.852L33.3206 41.228Z" fill="#40C97F"/>
<defs>
<clipPath id="clip0_1575_8585">
<rect width="28" height="28" fill="white" transform="translate(12 5.5)"/>
</clipPath>
</defs>
</svg>
