<svg width="36" height="36" viewBox="0 0 36 36" fill="none" xmlns="http://www.w3.org/2000/svg">
<mask id="mask0_1652_7810" style="mask-type:alpha" maskUnits="userSpaceOnUse" x="0" y="0" width="36" height="36">
<circle cx="18" cy="18" r="18" fill="#D9D9D9"/>
</mask>
<g mask="url(#mask0_1652_7810)">
<circle cx="18" cy="18" r="18" fill="#D9F4E5"/>
</g>
<g clip-path="url(#clip0_1652_7810)">
<path fill-rule="evenodd" clip-rule="evenodd" d="M6.97375 12.4006C7.23475 12.0233 7.75224 11.9289 8.1296 12.1899L10.7036 13.9703C11.081 14.2313 11.1753 14.7487 10.9143 15.1261C10.6533 15.5035 10.1358 15.5978 9.75845 15.3368L7.18444 13.5565C6.80708 13.2955 6.71276 12.778 6.97375 12.4006Z" fill="#40C97F"/>
<path fill-rule="evenodd" clip-rule="evenodd" d="M6.97375 24.028C7.23475 24.4054 7.75224 24.4997 8.1296 24.2387L10.7036 22.4584C11.081 22.1974 11.1753 21.6799 10.9143 21.3025C10.6533 20.9252 10.1358 20.8308 9.75845 21.0918L7.18444 22.8722C6.80708 23.1332 6.71276 23.6506 6.97375 24.028Z" fill="#40C97F"/>
<path fill-rule="evenodd" clip-rule="evenodd" d="M5.53906 18.2142C5.53906 17.7554 5.91101 17.3834 6.36983 17.3834H10.2309C10.6897 17.3834 11.0616 17.7554 11.0616 18.2142C11.0616 18.673 10.6897 19.045 10.2309 19.045H6.36983C5.91101 19.045 5.53906 18.673 5.53906 18.2142Z" fill="#40C97F"/>
<path fill-rule="evenodd" clip-rule="evenodd" d="M28.9296 12.4006C28.6686 12.0233 28.1511 11.9289 27.7737 12.1899L25.1997 13.9703C24.8224 14.2313 24.728 14.7487 24.989 15.1261C25.25 15.5035 25.7675 15.5978 26.1449 15.3368L28.7189 13.5565C29.0962 13.2955 29.1906 12.778 28.9296 12.4006Z" fill="#40C97F"/>
<path fill-rule="evenodd" clip-rule="evenodd" d="M28.9296 24.028C28.6686 24.4054 28.1511 24.4997 27.7737 24.2387L25.1997 22.4584C24.8224 22.1974 24.728 21.6799 24.989 21.3025C25.25 20.9252 25.7675 20.8308 26.1449 21.0918L28.7189 22.8722C29.0962 23.1332 29.1906 23.6506 28.9296 24.028Z" fill="#40C97F"/>
<path fill-rule="evenodd" clip-rule="evenodd" d="M30.3652 18.2142C30.3652 17.7554 29.9933 17.3834 29.5345 17.3834H25.6734C25.2146 17.3834 24.8427 17.7554 24.8427 18.2142C24.8427 18.673 25.2146 19.045 25.6734 19.045H29.5345C29.9933 19.045 30.3652 18.673 30.3652 18.2142Z" fill="#40C97F"/>
<path fill-rule="evenodd" clip-rule="evenodd" d="M17.3838 19.5644C17.8054 19.3424 18.2499 19.2204 18.6943 19.1667C19.4833 19.0703 20.284 19.1638 21.0481 19.5695L21.0543 19.5727C21.2234 19.6643 21.3565 19.7781 21.4294 19.8404L21.4316 19.8423C21.5245 19.9216 21.544 19.9377 21.5617 19.9488C21.6159 19.983 21.6725 20.0262 21.7267 20.0805C21.7611 20.1148 21.7902 20.1494 21.8149 20.1823C21.8481 20.207 21.8819 20.2357 21.9153 20.269C22.0054 20.3591 22.0673 20.4588 22.1084 20.5537C22.1123 20.5593 22.1192 20.5688 22.13 20.5828L22.1614 20.6228L22.1625 20.6241C22.1743 20.6391 22.1893 20.658 22.2045 20.6777C22.2356 20.718 22.277 20.7733 22.3181 20.8384C23.2031 22.2361 23.0338 23.8853 22.2239 25.0779C21.8397 25.6458 21.3285 26.0428 20.764 26.3091V30.4188C20.764 30.8776 20.3921 31.2496 19.9333 31.2496C19.4744 31.2496 19.1025 30.8776 19.1025 30.4188V25.9535C19.1025 25.8373 19.11 25.5787 19.2726 25.3269C19.4418 25.0648 19.6846 24.9499 19.8442 24.8948C20.2819 24.7326 20.6168 24.4884 20.848 24.1464L20.849 24.1448C21.3298 23.4373 21.4068 22.5049 20.9142 21.727C20.9142 21.727 20.9132 21.7255 20.9123 21.7241L20.908 21.7179C20.9038 21.7122 20.8981 21.7044 20.8896 21.6935L20.8584 21.6538L20.8573 21.6523C20.8455 21.6374 20.8305 21.6185 20.8153 21.5988C20.7821 21.5559 20.7348 21.4933 20.6865 21.4141C20.634 21.3676 20.5857 21.3165 20.5421 21.2615C20.4704 21.2073 20.4102 21.1554 20.3713 21.1219C20.3643 21.1158 20.358 21.1104 20.3524 21.1056C20.2864 21.0492 20.2667 21.0361 20.2634 21.0341C19.8543 20.8184 19.4094 20.7532 18.8953 20.816C18.5729 20.8549 18.2927 20.9459 18.05 21.0964L18.0488 21.0971C18.0441 21.1 18.0391 21.1031 18.0337 21.1065C17.9861 21.136 17.9121 21.1818 17.8433 21.2168C17.7602 21.259 17.5925 21.3353 17.372 21.3353C17.1443 21.3353 16.9729 21.2546 16.8819 21.2048C16.8116 21.1663 16.7379 21.1161 16.6953 21.0871C16.6941 21.0863 16.6929 21.0855 16.6918 21.0847C16.2169 20.7848 15.7003 20.7061 15.0892 20.7983C14.7647 20.8474 14.5041 20.9672 14.2836 21.1656L13.9556 21.4936C13.9504 21.5023 13.9443 21.5124 13.9374 21.5234C13.9306 21.5343 13.9224 21.547 13.9131 21.5607L13.9103 21.5651C13.9055 21.5725 13.8985 21.5831 13.8897 21.5957C13.4399 22.2344 13.3173 22.8557 13.5363 23.5382C13.7459 24.1918 14.212 24.6264 14.9481 24.939C15.0369 24.9748 15.2443 25.0653 15.4059 25.2748C15.5889 25.512 15.6142 25.7661 15.6142 25.9173V30.4623C15.6142 30.9211 15.2423 31.2931 14.7834 31.2931C14.3246 31.2931 13.9527 30.9211 13.9527 30.4623V26.3074C13.0604 25.8534 12.3074 25.1473 11.9542 24.0459M14.3226 26.4783C14.3286 26.4807 14.3253 26.4799 14.3151 26.4753L14.3226 26.4783ZM20.764 25.9535C20.764 25.9445 20.7647 25.9469 20.764 25.9582V25.9535ZM17.3838 19.5644C16.5596 19.1089 15.6904 19.0272 14.8408 19.1554C14.2137 19.2504 13.6359 19.5044 13.148 19.9525L13.135 19.9644L12.7283 20.3712C12.6317 20.4678 12.5726 20.5676 12.5519 20.6025L12.536 20.6298L12.531 20.6383C12.5272 20.644 12.5241 20.6488 12.5216 20.6527C11.8276 21.6451 11.5537 22.7975 11.9542 24.0459" fill="#40C97F"/>
<path fill-rule="evenodd" clip-rule="evenodd" d="M20.1077 4.70688C20.5665 4.70688 20.9385 5.07883 20.9385 5.53765V9.69259C21.8308 10.1465 22.5838 10.8527 22.9369 11.954C23.3376 13.2025 23.0636 14.3548 22.3696 15.3473C22.3671 15.3511 22.3639 15.356 22.3602 15.3616L22.3552 15.3702L22.3397 15.3967C22.3191 15.4316 22.2595 15.5322 22.1629 15.6288L21.7562 16.0355L21.7431 16.0475C21.2553 16.4955 20.678 16.7495 20.0508 16.8445C19.2013 16.9727 18.3316 16.8911 17.5073 16.4356C17.0858 16.6575 16.6413 16.7796 16.1968 16.8333C15.4079 16.9296 14.6072 16.8361 13.843 16.4305L13.8369 16.4272C13.6678 16.3356 13.5346 16.2218 13.4617 16.1595L13.4596 16.1577C13.3667 16.0784 13.3471 16.0622 13.3295 16.0511C13.2753 16.017 13.2187 15.9738 13.1644 15.9195C13.1301 15.8851 13.1009 15.8506 13.0763 15.8177C13.0431 15.793 13.0092 15.7643 12.9759 15.731C12.8858 15.6408 12.8238 15.5411 12.7828 15.4462C12.7788 15.4406 12.772 15.4311 12.7612 15.4171L12.7297 15.3771L12.7287 15.3758C12.7169 15.3609 12.7019 15.3419 12.6867 15.3222C12.6555 15.2819 12.614 15.2264 12.5728 15.1611C11.6875 13.7634 11.8573 12.115 12.6672 10.9223C13.0514 10.3542 13.5626 9.95722 14.1271 9.69083L14.1271 5.58117C14.1271 5.12235 14.4991 4.7504 14.9579 4.7504C15.4167 4.7504 15.7887 5.12235 15.7887 5.58117L15.7887 10.0464C15.7887 10.1627 15.7812 10.4213 15.6186 10.673C15.4493 10.9351 15.2066 11.05 15.047 11.1051C14.6093 11.2673 14.2744 11.5116 14.0432 11.8536L14.0421 11.8551C13.5614 12.5627 13.4843 13.4951 13.977 14.273C13.977 14.2729 13.9779 14.2745 13.9789 14.2758L13.9832 14.2821C13.9873 14.2878 13.9931 14.2955 14.0016 14.3065L14.0328 14.3462L14.0338 14.3475C14.0456 14.3625 14.0606 14.3814 14.0759 14.4011C14.109 14.4441 14.1564 14.5066 14.2047 14.5858C14.2572 14.6324 14.3055 14.6834 14.3491 14.7385C14.4208 14.7927 14.481 14.8445 14.5199 14.8781C14.5269 14.8841 14.5332 14.8896 14.5388 14.8944C14.6048 14.9507 14.6244 14.9638 14.6277 14.9659C15.0369 15.1815 15.4818 15.2468 15.9959 15.184C16.3183 15.145 16.5984 15.0541 16.8412 14.9036L16.8424 14.9028C16.8471 14.9 16.8521 14.8968 16.8575 14.8935C16.9051 14.864 16.9791 14.8181 17.0479 14.7832C17.131 14.741 17.2987 14.6646 17.5192 14.6646C17.7469 14.6646 17.9182 14.7454 18.0093 14.7952C18.0796 14.8337 18.1533 14.8839 18.1958 14.9128C18.197 14.9137 18.1982 14.9145 18.1994 14.9153C18.6743 15.2152 19.1909 15.2939 19.8019 15.2017C20.1265 15.1525 20.3871 15.0327 20.6076 14.8343L20.9356 14.5063C20.9407 14.4977 20.9469 14.4876 20.9537 14.4766C20.9606 14.4656 20.9687 14.453 20.978 14.4393L20.9809 14.4348C20.9856 14.4275 20.9927 14.4168 21.0015 14.4043C21.4513 13.7655 21.5739 13.1443 21.3549 12.4617C21.1453 11.8082 20.6791 11.3736 19.9431 11.061C19.8542 11.0251 19.6469 10.9347 19.4853 10.7252C19.3023 10.4879 19.277 10.2338 19.277 10.0827V5.53765C19.277 5.07883 19.6489 4.70688 20.1077 4.70688ZM14.1271 10.0464C14.1271 10.0554 14.1265 10.053 14.1271 10.0418V10.0464ZM20.5686 9.52167C20.5626 9.51927 20.5659 9.52003 20.5761 9.52466L20.5686 9.52167Z" fill="#40C97F"/>
</g>
<defs>
<clipPath id="clip0_1652_7810">
<rect width="33.2308" height="33.2308" fill="white" transform="translate(1.38477 1.38461)"/>
</clipPath>
</defs>
</svg>
