<svg width="36" height="36" viewBox="0 0 36 36" fill="none" xmlns="http://www.w3.org/2000/svg">
<mask id="mask0_1639_7666" style="mask-type:alpha" maskUnits="userSpaceOnUse" x="0" y="0" width="36" height="36">
<circle cx="18" cy="18" r="18" fill="#D9D9D9"/>
</mask>
<g mask="url(#mask0_1639_7666)">
<circle cx="18" cy="18" r="18" fill="#D9F4E5"/>
</g>
<g clip-path="url(#clip0_1639_7666)">
<path fill-rule="evenodd" clip-rule="evenodd" d="M21.2355 28.4503C18.9318 30.249 15.6996 30.249 13.3959 28.4503L9.37193 25.3083C7.82604 24.1013 6.92246 22.2494 6.92248 20.2881L6.92257 11.7634C6.92259 10.16 7.983 8.74987 9.5234 8.30485L16.3166 6.3423C16.9694 6.15371 17.6622 6.15371 18.315 6.3423L25.1082 8.30485C26.6486 8.74987 27.709 10.16 27.709 11.7634L27.709 20.2881C27.709 22.2494 26.8054 24.1013 25.2595 25.3083L21.2355 28.4503ZM14.4185 27.1407C16.1212 28.4701 18.5102 28.4701 20.2129 27.1407L24.237 23.9987C25.3796 23.1066 26.0474 21.7378 26.0474 20.2881L26.0474 11.7634C26.0474 10.9 25.4765 10.1407 24.647 9.90111L17.8538 7.93856C17.5023 7.83701 17.1293 7.83701 16.7778 7.93856L9.98455 9.90111C9.15511 10.1407 8.58412 10.9 8.58411 11.7634L8.58402 20.2881C8.584 21.7377 9.25187 23.1066 10.3945 23.9987L14.4185 27.1407Z" fill="#40C97F"/>
<path fill-rule="evenodd" clip-rule="evenodd" d="M16.4946 12.3496C16.1122 12.3496 15.8023 12.6596 15.8023 13.0419V16.2265C15.8023 16.3795 15.6783 16.5035 15.5254 16.5035H12.3407C11.9584 16.5035 11.6484 16.8134 11.6484 17.1958V18.5804C11.6484 18.9627 11.9584 19.2727 12.3407 19.2727H15.5254C15.6783 19.2727 15.8023 19.3967 15.8023 19.5496V22.7342C15.8023 23.1166 16.1122 23.4265 16.4946 23.4265H17.8792C18.2616 23.4265 18.5715 23.1166 18.5715 22.7342V19.5496C18.5715 19.3967 18.6955 19.2727 18.8484 19.2727H22.0331C22.4154 19.2727 22.7254 18.9627 22.7254 18.5804V17.1958C22.7254 16.8134 22.4154 16.5035 22.0331 16.5035H18.8484C18.6955 16.5035 18.5715 16.3795 18.5715 16.2265V13.0419C18.5715 12.6596 18.2616 12.3496 17.8792 12.3496H16.4946Z" fill="#40C97F"/>
</g>
<defs>
<clipPath id="clip0_1639_7666">
<rect width="33.2308" height="33.2308" fill="white" transform="translate(1.38477 1.38464)"/>
</clipPath>
</defs>
</svg>
