<svg width="36" height="36" viewBox="0 0 36 36" fill="none" xmlns="http://www.w3.org/2000/svg">
<mask id="mask0_1639_7508" style="mask-type:alpha" maskUnits="userSpaceOnUse" x="0" y="0" width="36" height="36">
<circle cx="18" cy="18" r="18" fill="#D9D9D9"/>
</mask>
<g mask="url(#mask0_1639_7508)">
<circle cx="18" cy="18" r="18" fill="#D9F4E5"/>
</g>
<g clip-path="url(#clip0_1639_7508)">
<path fill-rule="evenodd" clip-rule="evenodd" d="M13.7796 23.1744L6.35893 23.077C5.90015 23.071 5.53311 22.6942 5.53914 22.2354C5.54516 21.7767 5.92196 21.4096 6.38074 21.4156L14.3321 21.52C14.7713 21.5258 15.1265 21.8714 15.1506 22.3035C15.3244 22.4558 15.4341 22.6794 15.4341 22.9286C15.4341 24.3371 16.5759 25.4789 17.9844 25.4789C19.3929 25.4789 20.5347 24.3371 20.5347 22.9286C20.5347 22.6699 20.6529 22.4388 20.8383 22.2865C20.925 21.9147 21.2608 21.64 21.6582 21.6453L29.6096 21.7496C30.0683 21.7556 30.4354 22.1324 30.4293 22.5912C30.4233 23.05 30.0465 23.417 29.5877 23.411L22.1789 23.3138C21.9844 25.4594 20.1807 27.1404 17.9844 27.1404C15.7408 27.1404 13.9069 25.3861 13.7796 23.1744Z" fill="#40C97F"/>
<path d="M21.6025 7.51283C19.2386 10.8352 17.0039 17.8093 16.1864 22.4638C16.0125 23.4541 16.7959 24.3212 17.8014 24.3212C18.938 24.3212 19.7712 23.2164 19.682 22.0832C19.3457 17.8096 20.9407 12.407 22.6591 8.60773C23.2967 7.19815 22.4994 6.25227 21.6025 7.51283Z" fill="#40C97F"/>
</g>
<defs>
<clipPath id="clip0_1639_7508">
<rect width="33.2308" height="33.2308" fill="white" transform="translate(1.38477 1.38461)"/>
</clipPath>
</defs>
</svg>
