<svg width="26" height="26" viewBox="0 0 26 26" fill="none" xmlns="http://www.w3.org/2000/svg">
<mask id="mask0_2187_8994" style="mask-type:alpha" maskUnits="userSpaceOnUse" x="0" y="0" width="26" height="26">
<circle cx="13" cy="13" r="13" fill="#D9D9D9"/>
</mask>
<g mask="url(#mask0_2187_8994)">
<circle cx="13" cy="13" r="13" fill="#D9F4E5"/>
</g>
<g clip-path="url(#clip0_2187_8994)">
<path fill-rule="evenodd" clip-rule="evenodd" d="M6.18558 11.1211C6.42003 10.4971 7.01677 10.0839 7.68336 10.0839H17.6316C18.2982 10.0839 18.8949 10.4971 19.1294 11.1211L21.2113 16.6624C21.6044 17.7085 20.8311 18.8251 19.7135 18.8251H5.60145C4.4839 18.8251 3.71062 17.7085 4.10368 16.6624L6.18558 11.1211ZM7.68336 11.2839C7.51671 11.2839 7.36753 11.3872 7.30892 11.5432L5.22701 17.0844C5.12874 17.3459 5.32206 17.6251 5.60145 17.6251H19.7135C19.9929 17.6251 20.1862 17.3459 20.088 17.0844L18.0061 11.5432C17.9474 11.3872 17.7983 11.2839 17.6316 11.2839H7.68336Z" fill="#40C97F"/>
<path fill-rule="evenodd" clip-rule="evenodd" d="M10.8357 7.74658C11.2848 7.2892 11.9021 7 12.5916 7C13.2808 7 13.898 7.28895 14.347 7.74597C14.5211 7.70108 14.7027 7.67714 14.8895 7.67714C16.3922 7.67714 17.4059 9.13275 17.4059 10.648C17.4059 10.6671 17.4058 10.6862 17.4055 10.7053C17.4003 11.0329 17.1332 11.2957 16.8056 11.2957H8.3748C8.04716 11.2957 7.7801 11.0329 7.77487 10.7053C7.77457 10.6862 7.77441 10.6671 7.77441 10.648C7.77441 9.13275 8.78813 7.67714 10.2909 7.67714C10.4785 7.67714 10.6608 7.7013 10.8357 7.74658ZM12.5916 8.2C12.1638 8.2 11.772 8.42352 11.5258 8.79179C11.3563 9.04541 11.0235 9.13145 10.7523 8.99175C10.6057 8.91623 10.4507 8.87714 10.2909 8.87714C9.7873 8.87714 9.22444 9.32579 9.03809 10.0957H16.1423C15.9559 9.32579 15.3931 8.87714 14.8895 8.87714C14.7301 8.87714 14.5757 8.91599 14.4295 8.99102C14.1585 9.13012 13.8263 9.04411 13.6569 8.791C13.4107 8.4232 13.0191 8.2 12.5916 8.2Z" fill="#40C97F"/>
<path fill-rule="evenodd" clip-rule="evenodd" d="M13.4025 15.2027C13.3317 14.8598 12.9726 14.5482 12.6216 14.5629L12.6186 14.563L12.6186 14.563C12.5054 14.567 12.3536 14.6221 12.2084 14.7402C12.0647 14.8571 11.9625 15.0076 11.9206 15.1529L11.9186 15.16L11.9185 15.16C11.8814 15.2819 11.8853 15.3694 11.9042 15.4369C11.9235 15.5058 11.9681 15.5878 12.0641 15.6819C12.2071 15.8139 12.3819 15.8875 12.622 15.9144C12.6682 15.9051 12.713 15.8969 12.7519 15.8898C12.7649 15.8874 12.7772 15.8851 12.7887 15.883C12.8619 15.8694 12.9163 15.8581 12.9638 15.8442C13.3214 15.735 13.4565 15.4605 13.4028 15.2043L13.4025 15.2027L13.4025 15.2027ZM14.3817 14.9999C14.2253 14.2441 13.4859 13.5268 12.5814 13.5637C12.2065 13.5775 11.8527 13.7405 11.5773 13.9645C11.3008 14.1894 11.0677 14.5044 10.9608 14.8724C10.8767 15.1507 10.8645 15.4329 10.9413 15.7067C11.0177 15.9795 11.1729 16.2105 11.3712 16.4029L11.3711 16.403L11.3783 16.4096C11.7451 16.752 12.1787 16.8859 12.6166 16.918L12.693 16.9236L12.7676 16.906C12.8147 16.895 12.8615 16.8864 12.9221 16.8753C12.9375 16.8724 12.9538 16.8694 12.9713 16.8662C13.0498 16.8516 13.1475 16.8326 13.2479 16.803L13.2479 16.803L13.2519 16.8019C14.0444 16.5617 14.5543 15.8249 14.3817 14.9999Z" fill="#40C97F"/>
<path d="M11.8943 12.1C12.1648 12.1 12.3655 12.3094 12.3655 12.5799C12.3655 12.8417 12.1561 13.0424 11.8943 13.0424C11.6238 13.0424 11.4144 12.8243 11.4231 12.5625C11.4231 12.3007 11.6325 12.1 11.8943 12.1Z" fill="#40C97F"/>
<path d="M14.6688 14.0546C14.3983 14.0546 14.1976 13.8364 14.2063 13.5572C14.2063 13.2954 14.4245 13.1034 14.695 13.1034C14.9568 13.1034 15.1575 13.3216 15.1575 13.5834C15.1575 13.8539 14.9393 14.0546 14.6688 14.0546Z" fill="#40C97F"/>
<path d="M13.8838 12.5799C13.8838 12.8504 13.6656 13.0511 13.3951 13.0511C13.1333 13.0511 12.9326 12.8417 12.9326 12.5712C12.9413 12.3007 13.1508 12.1 13.4213 12.1C13.6831 12.1 13.8838 12.3094 13.8838 12.5799Z" fill="#40C97F"/>
<path d="M10.6289 14.0541C10.3584 14.0541 10.1577 13.8447 10.1577 13.5742C10.1577 13.3124 10.3671 13.1117 10.6376 13.1117C10.9082 13.1117 11.1088 13.3211 11.1088 13.5917C11.1088 13.8534 10.8994 14.0541 10.6289 14.0541Z" fill="#40C97F"/>
</g>
<defs>
<clipPath id="clip0_2187_8994">
<rect width="24" height="24" fill="white" transform="translate(1 1)"/>
</clipPath>
</defs>
</svg>
