<svg width="36" height="36" viewBox="0 0 36 36" fill="none" xmlns="http://www.w3.org/2000/svg">
<circle cx="18" cy="18" r="18" fill="#D9D9D9"/>
<circle cx="18" cy="18" r="18" fill="#D9F4E5"/>
<g clip-path="url(#clip0_1652_7795)">
<path d="M5.53906 13.9818C5.62012 13.5301 5.66902 13.0695 5.78868 12.6282C6.53368 9.89137 8.16007 7.94331 10.9483 7.17C13.2348 6.53566 15.2678 7.14813 17.0164 8.72433C17.3638 9.037 17.67 9.3947 17.993 9.73182C18.3366 9.37926 18.6685 9.00226 19.0365 8.66643C19.8754 7.89956 20.843 7.34757 21.9599 7.10953C24.384 6.59485 26.4582 7.29224 28.2004 9.00998C29.3919 10.1847 30.0751 11.6374 30.3453 13.278C30.6284 14.997 30.3839 16.6658 29.7547 18.2819C28.9634 20.3162 27.705 22.0416 26.197 23.5973C24.3377 25.5144 22.1851 27.052 19.9063 28.4224C19.4277 28.7106 18.9362 28.9769 18.4536 29.2587C18.1538 29.4324 17.8618 29.4414 17.5568 29.2703C14.9744 27.8279 12.5065 26.2234 10.3629 24.1621C8.60526 22.4714 7.13457 20.5748 6.23774 18.2806C5.90062 17.4185 5.67288 16.5269 5.58667 15.6017C5.58152 15.5477 5.55579 15.4962 5.54035 15.4435C5.54035 14.9571 5.54035 14.4707 5.54035 13.9831L5.53906 13.9818ZM28.9068 14.8413C28.8746 14.4218 28.8669 13.9998 28.8038 13.5855C28.5233 11.7223 27.6149 10.2478 26.0117 9.23772C24.2952 8.1569 22.1671 8.25469 20.5368 9.45389C19.9089 9.91581 19.3878 10.4742 18.949 11.115C18.8525 11.2553 18.7625 11.3994 18.6621 11.5371C18.2889 12.0466 17.6855 12.0543 17.3291 11.5345C16.916 10.931 16.4953 10.3391 15.9433 9.85019C14.6167 8.67544 13.1023 8.20708 11.3575 8.65614C8.94881 9.27633 7.35073 11.5551 7.14229 13.902C7.0252 15.217 7.2478 16.4844 7.70972 17.7106C8.49461 19.7951 9.83277 21.5 11.4193 23.026C13.3364 24.8698 15.5277 26.3366 17.836 27.6362C17.9197 27.6825 18.0754 27.68 18.159 27.6336C19.5461 26.859 20.8881 26.0124 22.1606 25.059C24.0006 23.6796 25.6733 22.133 26.9716 20.2171C28.0717 18.5933 28.7884 16.8305 28.9055 14.8426L28.9068 14.8413Z" fill="#40C97F"/>
<path d="M15.5449 16.1507C15.451 16.4608 15.3725 16.722 15.2927 16.9832C15.1499 17.4438 14.9041 17.6291 14.4216 17.6304C13.1246 17.633 8.36479 17.633 7.0678 17.6304C6.55956 17.6304 6.23016 17.319 6.23145 16.8571C6.23274 16.399 6.56856 16.0812 7.07424 16.0799C8.13705 16.0748 12.6601 16.0748 13.7229 16.0825C13.8928 16.0838 13.9597 16.0323 14.006 15.8702C14.2659 14.9528 14.54 14.0392 14.8076 13.1244C14.9028 12.7976 15.0881 12.5544 15.4355 12.4862C15.7392 12.4257 16.003 12.5248 16.1883 12.7718C16.2719 12.8851 16.3259 13.0292 16.3632 13.1668C16.9345 15.2719 17.4994 17.3795 18.0668 19.4858C18.0707 19.5013 18.0797 19.5141 18.0977 19.554C18.1247 19.4897 18.1518 19.4434 18.1646 19.3932C18.7166 17.3409 19.2635 15.2873 19.827 13.2389C19.8875 13.0176 20.011 12.7731 20.1809 12.629C20.5952 12.279 21.1961 12.5042 21.3711 13.0575C21.5152 13.5117 21.6297 13.9749 21.7532 14.4355C22.035 15.4803 22.3194 16.5251 22.5921 17.5738C22.641 17.7616 22.7157 17.8273 22.919 17.8247C23.9895 17.8131 27.2775 17.8131 28.3468 17.8247C28.9013 17.8298 29.2552 18.3432 29.0776 18.8528C28.9708 19.1577 28.6877 19.37 28.3262 19.3713C26.997 19.379 23.4491 19.3816 22.1186 19.3713C21.6657 19.3674 21.4058 19.1307 21.281 18.6688C21.0841 17.9431 20.8898 17.2174 20.6943 16.4917C20.6775 16.4312 20.6544 16.3707 20.6196 16.2626C20.3597 17.2264 20.1114 18.1412 19.8656 19.0573C19.5388 20.2746 19.2133 21.4918 18.8865 22.7103C18.799 23.0345 18.633 23.2893 18.283 23.3704C17.9716 23.4424 17.6937 23.3613 17.5071 23.1027C17.4029 22.9573 17.3398 22.772 17.2922 22.5958C16.7184 20.483 16.1522 18.3677 15.5835 16.2536C15.5796 16.2382 15.5719 16.224 15.5449 16.1558V16.1507Z" fill="#40C97F"/>
</g>
<defs>
<clipPath id="clip0_1652_7795">
<rect width="33.2308" height="33.2308" fill="white" transform="translate(1.38477 1.38461)"/>
</clipPath>
</defs>
</svg>
