<svg width="36" height="36" viewBox="0 0 36 36" fill="none" xmlns="http://www.w3.org/2000/svg">
<mask id="mask0_1639_7651" style="mask-type:alpha" maskUnits="userSpaceOnUse" x="0" y="0" width="36" height="36">
<circle cx="18" cy="18" r="18" fill="#D9D9D9"/>
</mask>
<g mask="url(#mask0_1639_7651)">
<circle cx="18" cy="18" r="18" fill="#D9F4E5"/>
</g>
<g clip-path="url(#clip0_1639_7651)">
<path fill-rule="evenodd" clip-rule="evenodd" d="M8.16707 7.16642C8.4915 6.84199 9.01752 6.84199 9.34195 7.16642L28.8131 26.6376C29.1375 26.962 29.1375 27.488 28.8131 27.8125C28.4887 28.1369 27.9627 28.1369 27.6382 27.8125L24.8817 25.056C24.8498 25.0841 24.8153 25.1102 24.7782 25.1338C22.8599 26.3576 20.399 27.2141 17.3082 27.1636C8.93096 27.0266 5.34607 20.7101 4.38172 18.6015C4.08749 17.9581 4.07995 17.2359 4.35218 16.5881C4.93401 15.2035 6.52309 12.0709 9.74256 9.9168L8.16707 8.34131C7.84263 8.01687 7.84263 7.49086 8.16707 7.16642ZM10.9241 11.0983C10.8784 11.1479 10.8259 11.1928 10.7669 11.2314C7.87159 13.1247 6.41725 15.9627 5.88397 17.2318C5.78985 17.4557 5.79367 17.6938 5.89274 17.9104C6.77773 19.8456 9.95015 25.3815 17.3354 25.5022C19.9745 25.5454 22.0551 24.8496 23.6839 23.8581L20.8209 20.9951C20.8098 21.0072 20.7983 21.019 20.7864 21.0305C19.8903 21.8969 18.6676 22.4314 17.3218 22.4314C14.5689 22.4314 12.3372 20.1997 12.3372 17.4468C12.3372 16.0831 12.8859 14.846 13.7726 13.9469L10.9241 11.0983ZM14.9475 15.1218C14.3597 15.7219 13.9987 16.5414 13.9987 17.4468C13.9987 19.2821 15.4865 20.7699 17.3218 20.7699C18.2196 20.7699 19.0327 20.415 19.6314 19.836C19.6366 19.831 19.6418 19.8261 19.6471 19.8213L14.9475 15.1218ZM17.3218 9.36348C16.8107 9.36348 16.3215 9.39047 15.8534 9.44109C15.3973 9.49041 14.9875 9.1606 14.9382 8.70444C14.8888 8.24827 15.2187 7.8385 15.6748 7.78918C16.2033 7.73203 16.7521 7.70194 17.3218 7.70194C25.884 7.70194 29.3923 14.4409 30.2978 16.6033C30.5659 17.2435 30.5569 17.9541 30.2787 18.5863C30.0278 19.1561 29.6036 20.0113 28.9669 20.9646C28.712 21.3461 28.1961 21.4488 27.8146 21.194C27.433 20.9391 27.3304 20.4232 27.5852 20.0417C28.1577 19.1846 28.5375 18.4178 28.7579 17.9169C28.854 17.6986 28.8561 17.462 28.7652 17.2451C27.9208 15.2285 24.8196 9.36348 17.3218 9.36348Z" fill="#40C97F"/>
</g>
<defs>
<clipPath id="clip0_1639_7651">
<rect width="33.2308" height="33.2308" fill="white" transform="translate(1.38477 1.38464)"/>
</clipPath>
</defs>
</svg>
