<svg width="36" height="36" viewBox="0 0 36 36" fill="none" xmlns="http://www.w3.org/2000/svg">
<circle cx="18" cy="18" r="18" fill="#D9F4E5"/>
<path d="M16.8914 10.1721C17.2723 9.14265 18.7284 9.14265 19.1094 10.1721L21.0055 15.2963C21.1253 15.62 21.3805 15.8752 21.7041 15.9949L26.8283 17.891C27.8578 18.272 27.8578 19.7281 26.8283 20.109L21.7041 22.0051C21.3805 22.1249 21.1253 22.3801 21.0055 22.7038L19.1094 27.8279C18.7284 28.8574 17.2723 28.8574 16.8914 27.8279L14.9953 22.7038C14.8755 22.3801 14.6203 22.1249 14.2967 22.0051L9.17251 20.109C8.14302 19.7281 8.14302 18.272 9.17251 17.891L14.2967 15.9949C14.6203 15.8752 14.8755 15.62 14.9953 15.2963L16.8914 10.1721Z" stroke="#40C97F" stroke-width="2" stroke-linejoin="round"/>
</svg>
