<svg width="37" height="36" viewBox="0 0 37 36" fill="none" xmlns="http://www.w3.org/2000/svg">
<mask id="mask0_1652_7805" style="mask-type:alpha" maskUnits="userSpaceOnUse" x="0" y="0" width="36" height="36">
<circle cx="18" cy="18" r="18" fill="#D9D9D9"/>
</mask>
<g mask="url(#mask0_1652_7805)">
<circle cx="18" cy="18" r="18" fill="#D9F4E5"/>
</g>
<g clip-path="url(#clip0_1652_7805)">
<path fill-rule="evenodd" clip-rule="evenodd" d="M22.5944 7.47308C22.6068 8.57497 22.5771 10.6121 22.2223 12.0786C22.0557 12.7671 21.5893 13.4358 21.0741 14.028C20.5425 14.639 19.8766 15.2596 19.1954 15.8505C18.6199 16.3498 18.016 16.8427 17.4557 17.3C17.3518 17.3848 17.2494 17.4683 17.149 17.5505C16.4961 18.0846 15.9359 18.5512 15.5379 18.9364C15.5204 18.9534 15.5011 18.9759 15.4789 19.0092L14.6558 20.2439C14.2449 20.8602 13.5532 21.2304 12.8125 21.2304H11.4466C9.99367 21.2304 8.81584 22.4082 8.81584 23.8611V27.7577H9.44718V25.7521C9.44718 24.1462 10.749 22.8444 12.3549 22.8444H13.1676C13.8884 22.8444 14.5133 23.1917 14.9442 23.6431C15.4328 24.1548 16.2842 24.8752 17.3709 25.1654C20.2899 25.9447 23.2742 25.1722 25.3448 22.51C27.5058 19.7316 28.3944 16.3934 27.492 13.0844C27.2016 12.0198 26.7349 11.4059 26.2908 11.0411C25.8396 10.6703 25.3602 10.515 24.9924 10.4523C24.3 10.3341 23.532 9.73956 23.532 8.81681V7.47308H22.5944ZM20.9314 7.37876C20.919 6.53167 21.5978 5.81154 22.4682 5.81154H23.6705C24.5117 5.81154 25.1936 6.49344 25.1936 7.33462V8.77717C25.2011 8.78369 25.2115 8.79111 25.2245 8.79792C25.2416 8.80684 25.2583 8.81209 25.2718 8.8144C25.8475 8.91261 26.6176 9.15916 27.3456 9.75725C28.0807 10.3612 28.7229 11.2831 29.0949 12.6473C30.1578 16.5445 29.0811 20.4125 26.6563 23.5301C24.1412 26.7638 20.4499 27.7072 16.9423 26.7707C15.4325 26.3676 14.3261 25.4017 13.7425 24.7904C13.5551 24.5942 13.3422 24.5059 13.1676 24.5059H12.3549C11.6666 24.5059 11.1087 25.0638 11.1087 25.7521V27.8962C11.1087 28.7373 10.4268 29.4192 9.58564 29.4192H8.67737C7.8362 29.4192 7.1543 28.7373 7.1543 27.8962V23.8611C7.1543 21.4906 9.07603 19.5688 11.4466 19.5688H12.8125C12.9977 19.5688 13.1706 19.4763 13.2733 19.3222L14.0964 18.0875C14.1754 17.9691 14.2688 17.8525 14.3823 17.7426C14.8385 17.301 15.4532 16.791 16.097 16.2644C16.2002 16.1799 16.3045 16.0948 16.4096 16.009C16.9703 15.5514 17.5517 15.0768 18.1066 14.5954C18.7666 14.0229 19.3646 13.4615 19.8205 12.9374C20.2929 12.3945 20.5379 11.975 20.6073 11.6878C20.9199 10.3961 20.9473 8.45665 20.9314 7.37876Z" fill="#40C97F"/>
<path fill-rule="evenodd" clip-rule="evenodd" d="M21.014 22.1956C20.9276 21.745 21.2228 21.3096 21.6734 21.2232C22.2506 21.1125 22.7921 20.847 23.2382 20.4241C23.6844 20.0011 23.9783 19.4745 24.1196 18.9041C24.2299 18.4587 24.6804 18.1871 25.1257 18.2974C25.5711 18.4077 25.8427 18.8582 25.7324 19.3036C25.5182 20.1681 25.0681 20.9788 24.3814 21.6298C23.6946 22.2809 22.8611 22.6872 21.9864 22.855C21.5358 22.9414 21.1004 22.6462 21.014 22.1956Z" fill="#40C97F"/>
</g>
<defs>
<clipPath id="clip0_1652_7805">
<rect width="33.2308" height="33.2308" fill="white" transform="translate(3 1)"/>
</clipPath>
</defs>
</svg>
