<svg width="26" height="26" viewBox="0 0 26 26" fill="none" xmlns="http://www.w3.org/2000/svg">
<mask id="mask0_2187_8995" style="mask-type:alpha" maskUnits="userSpaceOnUse" x="0" y="0" width="26" height="26">
<circle cx="13" cy="13" r="13" fill="#D9D9D9"/>
</mask>
<g mask="url(#mask0_2187_8995)">
<circle cx="13" cy="13" r="13" fill="#D9F4E5"/>
</g>
<g clip-path="url(#clip0_2187_8995)">
<path fill-rule="evenodd" clip-rule="evenodd" d="M19.3687 11.9051C19.1549 12.1583 19.1869 12.5369 19.4401 12.7506C19.7564 13.0177 19.744 13.2157 19.7248 13.3199C19.711 13.3943 19.6813 13.4626 19.652 13.5147C19.6379 13.5397 19.6256 13.5579 19.6185 13.5678L19.6144 13.5734L19.3445 13.8933C18.1481 13.154 16.5396 13.5015 15.7727 14.7371L12.6708 19.7345C12.1594 20.5585 12.3297 21.6329 13.0709 22.2583C13.812 22.8837 14.8997 22.8709 15.626 22.2282L20.0307 18.3303C21.1198 17.3665 21.1918 15.7221 20.2616 14.6671L20.5259 14.3539L20.5305 14.3487L20.5364 14.3426C20.545 14.334 20.5609 14.3187 20.5832 14.3007C20.6296 14.2629 20.692 14.2222 20.7629 14.1962C20.8624 14.1597 21.0556 14.1142 21.372 14.3811C21.6253 14.5947 22.0038 14.5626 22.2175 14.3093C22.4311 14.056 22.399 13.6774 22.1457 13.4638C21.9549 13.3029 21.7644 13.1867 21.5778 13.1075L21.7947 12.8504C22.0085 12.5971 21.9764 12.2186 21.7232 12.0048C21.4699 11.7911 21.0914 11.8232 20.8777 12.0764L20.6608 12.3334C20.5513 12.1628 20.4048 11.9946 20.2142 11.8337C19.961 11.62 19.5825 11.6519 19.3687 11.9051ZM17.0388 15.0726L17.9406 15.8336C18.1517 16.0117 18.1784 16.3272 18.0003 16.5382C17.8222 16.7493 17.5067 16.776 17.2957 16.5979L16.4651 15.897L15.314 17.7516L15.5809 17.9768C15.792 18.1549 15.8187 18.4704 15.6406 18.6814C15.4625 18.8925 15.1471 18.9192 14.936 18.7411L14.781 18.6103L13.6904 20.3673C13.4931 20.6853 13.5588 21.0999 13.8448 21.3412C14.1308 21.5825 14.5505 21.5776 14.8307 21.3296L17.6556 18.8297L17.3117 18.5395C17.1006 18.3614 17.0739 18.046 17.252 17.8349C17.4301 17.6239 17.7456 17.5972 17.9566 17.7753L18.4124 18.1599L19.2355 17.4316C19.875 16.8657 19.8632 15.864 19.2106 15.3133L18.8847 15.0383C18.3338 14.5734 17.5429 14.6126 17.0388 15.0726Z" fill="#40C97F"/>
<path fill-rule="evenodd" clip-rule="evenodd" d="M4.45794 9.23416C4.21209 9.37539 4.12728 9.68918 4.26851 9.93503C4.40974 10.1809 4.72353 10.2657 4.96938 10.1245C5.25671 9.9594 5.62366 10.0584 5.78872 10.3457L6.7838 12.078L7.3523 11.7514L6.35722 10.0192C6.19227 9.73204 6.29114 9.36555 6.57813 9.20033C6.82364 9.05899 6.90826 8.74542 6.76712 8.49972C6.62589 8.25387 6.3121 8.16906 6.06626 8.31029C5.91203 8.39888 5.82061 8.55513 5.80954 8.72258C5.79629 8.92287 5.68376 9.10327 5.50971 9.20326C5.33565 9.30324 5.12312 9.30956 4.94343 9.2201C4.7932 9.14531 4.61217 9.14557 4.45794 9.23416ZM3.22798 10.5328C2.75663 9.71224 3.03969 8.66498 3.86021 8.19363C4.15667 8.02332 4.48272 7.95171 4.80014 7.96803C4.94596 7.68561 5.17207 7.44005 5.46852 7.26975C6.28904 6.79841 7.33631 7.08147 7.80765 7.90199C8.17365 8.53911 8.08479 9.31295 7.64263 9.84772L8.63004 11.5666L11.8991 14.0234C13.8586 15.496 13.674 18.4924 11.5485 19.7133C9.42313 20.9343 6.74175 19.5843 6.45677 17.1498L5.9816 13.0906L4.99331 11.3702C4.30818 11.4834 3.59422 11.1703 3.22798 10.5328ZM7.205 13.2205L7.64863 17.0102C7.83345 18.5891 9.57241 19.4646 10.9508 18.6728C12.3292 17.881 12.4489 15.9377 11.1781 14.9827L8.1279 12.6903L7.205 13.2205ZM10.8971 15.9707C11.0748 15.8686 11.1361 15.6417 11.0341 15.464C10.932 15.2863 10.7051 15.225 10.5274 15.3271C10.3497 15.4292 10.2883 15.656 10.3904 15.8337C10.4925 16.0115 10.7194 16.0728 10.8971 15.9707ZM10.4374 16.6622C10.5395 16.84 10.4782 17.0668 10.3004 17.1689C10.1227 17.271 9.89586 17.2097 9.79376 17.032C9.69166 16.8542 9.75298 16.6274 9.9307 16.5253C10.1084 16.4232 10.3353 16.4845 10.4374 16.6622ZM11.4508 16.9355C11.6285 16.8334 11.6899 16.6066 11.5878 16.4289C11.4857 16.2511 11.2588 16.1898 11.0811 16.2919C10.9034 16.394 10.8421 16.6208 10.9442 16.7986C11.0462 16.9763 11.2731 17.0376 11.4508 16.9355Z" fill="#40C97F"/>
<path fill-rule="evenodd" clip-rule="evenodd" d="M16.0533 4.61173L16.9319 9.7759C16.1841 9.83351 15.4303 9.76253 14.7037 9.56455C13.9772 9.36657 13.2916 9.04536 12.6763 8.6163L16.0533 4.61173ZM18.1365 9.7003L18.1401 9.72242L18.4032 11.2692C18.5035 11.8585 18.107 12.4572 17.4673 12.5288C16.2964 12.6597 15.1097 12.5684 13.9699 12.2578C12.83 11.9472 11.761 11.4239 10.8184 10.7171C10.3034 10.3309 10.2654 9.61377 10.6508 9.15677L11.6627 7.9569L11.6766 7.94005L15.275 3.67291C15.8785 2.95722 17.0433 3.27459 17.2003 4.19754L18.1365 9.7003ZM17.1998 11.3501L17.1339 10.9631C16.2133 11.0472 15.2833 10.9662 14.3883 10.7223C13.4932 10.4784 12.6507 10.0765 11.9 9.53693L11.6469 9.83701C12.4417 10.4127 13.3353 10.8411 14.2853 11.1C15.2354 11.3589 16.2228 11.443 17.1998 11.3501ZM15.433 7.09039C15.6012 7.1411 15.7788 7.04582 15.8295 6.87757C15.8802 6.70932 15.8767 6.22717 15.7085 6.17646C15.5402 6.12575 15.2709 6.52567 15.2202 6.69392C15.1695 6.86217 15.2647 7.03968 15.433 7.09039ZM14.4564 8.12562C14.4057 8.29387 14.2282 8.38915 14.06 8.33844C13.8917 8.28772 13.7964 8.11022 13.8471 7.94197C13.8978 7.77372 14.1672 7.37379 14.3354 7.4245C14.5037 7.47522 14.5071 7.95737 14.4564 8.12562ZM15.8881 8.88922C16.0563 8.93993 16.2338 8.84465 16.2845 8.6764C16.3353 8.50815 16.3318 8.026 16.1635 7.97529C15.9953 7.92457 15.726 8.3245 15.6753 8.49275C15.6245 8.661 15.7198 8.83851 15.8881 8.88922Z" fill="#40C97F"/>
</g>
<defs>
<clipPath id="clip0_2187_8995">
<rect width="24" height="24" fill="white" transform="translate(1 1)"/>
</clipPath>
</defs>
</svg>
