<svg width="36" height="36" viewBox="0 0 36 36" fill="none" xmlns="http://www.w3.org/2000/svg">
<mask id="mask0_1639_7543" style="mask-type:alpha" maskUnits="userSpaceOnUse" x="0" y="0" width="36" height="36">
<circle cx="18" cy="18" r="18" fill="#D9D9D9"/>
</mask>
<g mask="url(#mask0_1639_7543)">
<circle cx="18" cy="18" r="18" fill="#D9F4E5"/>
</g>
<g clip-path="url(#clip0_1639_7543)">
<path fill-rule="evenodd" clip-rule="evenodd" d="M5.70429 25.5448C5.97958 25.1777 6.50031 25.1033 6.86737 25.3786L8.71352 26.7632C9.51215 27.3622 10.6103 27.3622 11.4089 26.7632C12.7983 25.7212 14.7087 25.7212 16.0981 26.7632C16.8968 27.3622 17.9949 27.3622 18.7935 26.7632C20.1829 25.7212 22.0933 25.7212 23.4828 26.7632C24.2814 27.3622 25.3795 27.3622 26.1781 26.7632L28.0243 25.3786C28.3913 25.1033 28.9121 25.1777 29.1874 25.5448C29.4627 25.9118 29.3883 26.4326 29.0212 26.7079L27.1751 28.0925C25.7857 29.1345 23.8752 29.1345 22.4858 28.0925C21.6872 27.4935 20.5891 27.4935 19.7904 28.0925C18.401 29.1345 16.4906 29.1345 15.1012 28.0925C14.3026 27.4935 13.2045 27.4935 12.4058 28.0925C11.0164 29.1345 9.106 29.1345 7.7166 28.0925L5.87044 26.7079C5.50339 26.4326 5.429 25.9118 5.70429 25.5448Z" fill="#40C97F"/>
<path fill-rule="evenodd" clip-rule="evenodd" d="M5.53809 23.2739C5.53809 22.8151 5.91003 22.4432 6.36886 22.4432H28.5227C28.9815 22.4432 29.3535 22.8151 29.3535 23.2739C29.3535 23.7328 28.9815 24.1047 28.5227 24.1047H6.36886C5.91003 24.1047 5.53809 23.7328 5.53809 23.2739Z" fill="#40C97F"/>
<path fill-rule="evenodd" clip-rule="evenodd" d="M9.16252 8.81308C9.43184 8.435 9.94896 8.34254 10.3175 8.60657L14.9788 11.9458C15.6014 12.3918 15.7831 13.2463 15.4008 13.9309L13.6969 16.9831L16.9693 19.3273C17.3378 19.5913 17.4183 20.1119 17.149 20.4899C16.8796 20.868 16.3625 20.9605 15.994 20.6964L12.6222 18.2811C11.9996 17.835 11.8179 16.9805 12.2002 16.2959L13.9041 13.2437L9.34223 9.97572C8.97366 9.71169 8.8932 9.19116 9.16252 8.81308Z" fill="#40C97F"/>
<path fill-rule="evenodd" clip-rule="evenodd" d="M19.4795 5.85621C19.8839 5.69104 20.361 5.91629 20.5452 6.35932L22.8627 11.934C23.1846 12.7084 22.9033 13.5739 22.2193 13.9134L19.3274 15.3485L20.9485 19.2481C21.1327 19.6911 20.9542 20.1842 20.5498 20.3493C20.1453 20.5145 19.6682 20.2893 19.484 19.8462L17.8109 15.8216C17.489 15.0472 17.7703 14.1817 18.4543 13.8422L21.3462 12.4071L19.0807 6.95745C18.8965 6.51442 19.075 6.02138 19.4795 5.85621Z" fill="#40C97F"/>
</g>
<defs>
<clipPath id="clip0_1639_7543">
<rect width="33.2308" height="33.2308" fill="white" transform="translate(1.38379 1.38477)"/>
</clipPath>
</defs>
</svg>
