<svg width="36" height="36" viewBox="0 0 36 36" fill="none" xmlns="http://www.w3.org/2000/svg">
<circle cx="18" cy="18" r="18" fill="#D9F4E5"/>
<path fill-rule="evenodd" clip-rule="evenodd" d="M20.0686 27.2242C20.0325 27.0737 19.969 26.9369 19.8847 26.818L21.5646 24.4467C21.8145 24.4941 22.0782 24.4906 22.3416 24.4274C22.7038 24.3404 23.0154 24.1525 23.2536 23.9007L25.8516 25.1712C25.8486 25.2734 25.8589 25.3777 25.8839 25.4819C26.0359 26.1148 26.6721 26.5047 27.3049 26.3528C27.9378 26.2008 28.3277 25.5646 28.1758 24.9318C28.0238 24.2989 27.3876 23.909 26.7548 24.061C26.7186 24.0696 26.6833 24.0799 26.6487 24.0916L23.7609 22.6793C23.7653 22.5198 23.749 22.357 23.71 22.1944C23.5408 21.4894 22.989 20.9763 22.3279 20.8223L21.7131 18.2615C22.2441 17.9239 22.5283 17.2751 22.3732 16.629C22.3698 16.6148 22.3662 16.6007 22.3624 16.5867L25.3292 13.649C25.6373 13.8032 25.9993 13.8537 26.3605 13.767C27.1741 13.5717 27.6754 12.7537 27.4801 11.9401C27.2848 11.1264 26.4668 10.6251 25.6531 10.8204C24.858 11.0113 24.3612 11.7966 24.5212 12.5915L21.4942 15.5888C21.2051 15.4653 20.8753 15.4303 20.5462 15.5093C19.8474 15.6771 19.379 16.3041 19.3844 16.9932L16.8072 18.1845C16.5445 17.9739 16.2263 17.8359 15.8867 17.7917L15.1945 14.908C15.6295 14.5513 15.8478 13.9654 15.7077 13.3817C15.6811 13.2708 15.6429 13.1657 15.5948 13.0674L17.7648 10.1982C17.9144 10.2224 18.0712 10.218 18.2278 10.1804C18.8606 10.0285 19.2505 9.39228 19.0986 8.75941C18.9467 8.12655 18.3105 7.73666 17.6776 7.88859C17.0532 8.03849 16.6653 8.65985 16.801 9.2843L14.5549 12.2541C14.3392 12.2073 14.1098 12.207 13.8807 12.262C13.6013 12.3291 13.3587 12.4696 13.1686 12.6581L10.2 11.0048C10.2222 10.8587 10.2171 10.7059 10.1804 10.5534C10.0285 9.92049 9.39232 9.53061 8.75945 9.68253C8.12659 9.83446 7.73671 10.4707 7.88863 11.1035C8.03583 11.7167 8.63765 12.1018 9.25058 11.987L12.7311 13.9254C12.738 13.9798 12.748 14.0344 12.7611 14.089C12.9012 14.6726 13.3616 15.0955 13.9109 15.2159L14.603 18.0989C14.3253 18.2886 14.1069 18.5495 13.9677 18.8493L10.1921 17.9219C9.95941 17.4266 9.40381 17.1456 8.85076 17.2783C8.2179 17.4303 7.82802 18.0665 7.97994 18.6993C8.13186 19.3322 8.76806 19.7221 9.40093 19.5701C9.63361 19.5143 9.83345 19.393 9.98559 19.2304L13.8821 20.1875C13.9457 20.3891 14.0414 20.573 14.162 20.7348L12.1206 24.4657C12.0701 24.4725 12.0193 24.482 11.9686 24.4942C11.1549 24.6895 10.6537 25.5075 10.849 26.3211C11.0443 27.1348 11.8623 27.6361 12.676 27.4408C13.4897 27.2454 13.9909 26.4275 13.7956 25.6138C13.7276 25.3303 13.584 25.0848 13.3913 24.8934L15.2788 21.4438C15.5358 21.4962 15.8081 21.4945 16.0799 21.4293C17.0299 21.2012 17.6315 20.2788 17.4754 19.3299L19.9682 18.1776C20.0957 18.2769 20.2386 18.3556 20.3913 18.4101L21.0142 21.005C20.3021 21.3975 19.9096 22.23 20.1086 23.059C20.1711 23.3192 20.2856 23.5532 20.4385 23.7527L18.584 26.3705C17.9889 26.5485 17.63 27.1629 17.7768 27.7743C17.9287 28.4072 18.5649 28.7971 19.1978 28.6451C19.8307 28.4932 20.2205 27.857 20.0686 27.2242Z" fill="#40C97F"/>
</svg>
