<svg width="24" height="24" viewBox="0 0 24 24" fill="none" xmlns="http://www.w3.org/2000/svg">
<path fill-rule="evenodd" clip-rule="evenodd" d="M13.8808 20.3856C13.848 20.2488 13.7903 20.1245 13.7136 20.0163L15.2408 17.8606C15.468 17.9038 15.7077 17.9006 15.9471 17.8431C16.2765 17.764 16.5597 17.5932 16.7763 17.3642L19.1381 18.5193C19.1354 18.6122 19.1447 18.707 19.1675 18.8017C19.3056 19.3771 19.884 19.7315 20.4593 19.5934C21.0346 19.4553 21.3891 18.8769 21.2509 18.3016C21.1128 17.7263 20.5345 17.3718 19.9591 17.5099C19.9263 17.5178 19.8941 17.5272 19.8628 17.5378L17.2374 16.2539C17.2415 16.1089 17.2267 15.9609 17.1912 15.8131C17.0373 15.1722 16.5358 14.7057 15.9347 14.5657L15.3758 12.2378C15.8586 11.9308 16.1169 11.341 15.9759 10.7536C15.9728 10.7407 15.9695 10.7279 15.9661 10.7152L18.6632 8.04454C18.9432 8.18471 19.2723 8.23065 19.6007 8.15184C20.3404 7.97426 20.7961 7.23066 20.6185 6.49094C20.441 5.75123 19.6973 5.29552 18.9576 5.47309C18.2348 5.6466 17.7832 6.36054 17.9286 7.08321L15.1768 9.80799C14.914 9.69571 14.6142 9.66393 14.315 9.73575C13.6797 9.88826 13.2539 10.4583 13.2588 11.0848L10.9159 12.1677C10.6771 11.9762 10.3878 11.8508 10.0791 11.8106L9.4498 9.18903C9.84526 8.86478 10.0438 8.33213 9.91638 7.80149C9.89218 7.70071 9.85748 7.60519 9.81372 7.51584L11.7865 4.90743C11.9225 4.92945 12.065 4.92542 12.2073 4.89126C12.7827 4.75314 13.1371 4.17478 12.999 3.59945C12.8609 3.02412 12.2825 2.66968 11.7072 2.80779C11.1395 2.94406 10.7869 3.50894 10.9103 4.07662L8.86838 6.77644C8.67225 6.73385 8.46371 6.73366 8.25548 6.78364C8.00147 6.84462 7.78095 6.97235 7.60806 7.14374L4.90939 5.64074C4.92954 5.50789 4.92487 5.36901 4.89158 5.23031C4.75346 4.65498 4.1751 4.30054 3.59977 4.43865C3.02444 4.57676 2.67 5.15512 2.80811 5.73046C2.94193 6.2879 3.48904 6.63797 4.04625 6.53358L7.21035 8.2958C7.21666 8.34528 7.22573 8.39492 7.23764 8.44454C7.36499 8.97506 7.7835 9.35949 8.28291 9.46899L8.91207 12.0899C8.65967 12.2623 8.46113 12.4995 8.3345 12.7721L4.90221 11.929C4.69064 11.4787 4.18555 11.2232 3.68278 11.3439C3.10744 11.482 2.75301 12.0604 2.89112 12.6357C3.02923 13.2111 3.60759 13.5655 4.18293 13.4274C4.39446 13.3766 4.57613 13.2663 4.71444 13.1185L8.25673 13.9887C8.31454 14.1719 8.4015 14.3391 8.51116 14.4862L6.65539 17.8779C6.6094 17.8841 6.5633 17.8927 6.5172 17.9038C5.77749 18.0813 5.32178 18.8249 5.49936 19.5647C5.67693 20.3044 6.42054 20.7601 7.16025 20.5825C7.89997 20.4049 8.35567 19.6613 8.1781 18.9216C8.11624 18.6639 7.98568 18.4407 7.81052 18.2667L9.52642 15.1307C9.76007 15.1783 10.0076 15.1768 10.2548 15.1175C11.1184 14.9102 11.6652 14.0716 11.5233 13.209L13.7895 12.1614C13.9055 12.2517 14.0354 12.3232 14.1742 12.3728L14.7405 14.7318C14.0931 15.0886 13.7363 15.8455 13.9172 16.599C13.9739 16.8356 14.0781 17.0484 14.2171 17.2297L12.5312 19.6095C11.9902 19.7713 11.6639 20.3299 11.7974 20.8857C11.9355 21.4611 12.5138 21.8155 13.0892 21.6774C13.6645 21.5393 14.0189 20.9609 13.8808 20.3856Z" fill="#36393C"/>
</svg>
