<svg width="36" height="36" viewBox="0 0 36 36" fill="none" xmlns="http://www.w3.org/2000/svg">
<circle cx="18" cy="18" r="18" fill="#D9F4E5"/>
<path fill-rule="evenodd" clip-rule="evenodd" d="M14.2667 12.836C14.0089 12.5783 13.591 12.5783 13.3333 12.836L12.1366 14.0326L10.94 12.836C10.6823 12.5783 10.2644 12.5783 10.0066 12.836C9.74889 13.0938 9.74889 13.5116 10.0066 13.7694L11.67 15.4327C11.9277 15.6905 12.3456 15.6905 12.6033 15.4327L14.2667 13.7694C14.5244 13.5116 14.5244 13.0938 14.2667 12.836Z" fill="#40C97F"/>
<path fill-rule="evenodd" clip-rule="evenodd" d="M12.1499 16.33C9.84135 16.33 7.9699 14.4586 7.9699 12.15C7.9699 9.84147 9.84135 7.97002 12.1499 7.97002C14.4585 7.97002 16.3299 9.84147 16.3299 12.15C16.3299 14.4586 14.4585 16.33 12.1499 16.33ZM12.1499 17.65C9.11234 17.65 6.6499 15.1876 6.6499 12.15C6.6499 9.11246 9.11234 6.65002 12.1499 6.65002C15.1875 6.65002 17.6499 9.11246 17.6499 12.15C17.6499 15.1876 15.1875 17.65 12.1499 17.65Z" fill="#40C97F"/>
<path fill-rule="evenodd" clip-rule="evenodd" d="M12.1501 9.3158C11.7856 9.3158 11.4901 9.61129 11.4901 9.9758V14.9658C11.4901 15.3303 11.7856 15.6258 12.1501 15.6258C12.5146 15.6258 12.8101 15.3303 12.8101 14.9658V9.9758C12.8101 9.61129 12.5146 9.3158 12.1501 9.3158Z" fill="#40C97F"/>
<path fill-rule="evenodd" clip-rule="evenodd" d="M19.9069 11.82V12.9337H27.5869V11.82H19.9069ZM19.5252 10.5C19.007 10.5 18.5869 10.9201 18.5869 11.4383V13.3154C18.5869 13.8336 19.007 14.2537 19.5252 14.2537H27.9686C28.4868 14.2537 28.9069 13.8336 28.9069 13.3154V11.4383C28.9069 10.9201 28.4868 10.5 27.9686 10.5H19.5252Z" fill="#40C97F"/>
<path fill-rule="evenodd" clip-rule="evenodd" d="M21.7854 14.7517C21.7854 15.4086 21.3024 15.9655 20.6521 16.0584C19.7013 16.1942 18.9699 17.0141 18.9699 18.0025V27.2665C18.9699 27.833 19.4292 28.2923 19.9957 28.2923H27.5005C28.067 28.2923 28.5262 27.833 28.5262 27.2665V18.0025C28.5262 17.0145 27.7954 16.1949 26.8452 16.0586C26.1953 15.9653 25.7127 15.4085 25.7127 14.7519V14.512H21.7854V14.7517ZM27.0327 13.192V14.7519C28.6235 14.9802 29.8462 16.3486 29.8462 18.0025V27.2665C29.8462 28.562 28.796 29.6123 27.5005 29.6123H19.9957C18.7001 29.6123 17.6499 28.562 17.6499 27.2665V18.0025C17.6499 16.3479 18.8736 14.979 20.4654 14.7517V13.192H27.0327Z" fill="#40C97F"/>
<path fill-rule="evenodd" clip-rule="evenodd" d="M28.5262 19.6768H18.9699V25.0135H28.5262V19.6768ZM17.6499 18.3568V26.3335H29.8462V18.3568H17.6499Z" fill="#40C97F"/>
<path fill-rule="evenodd" clip-rule="evenodd" d="M24.6074 20.6873L25.6278 21.7079C26.2559 22.3362 26.2559 23.3548 25.6278 23.983C24.9997 24.6112 23.9814 24.6112 23.3533 23.983L22.333 22.9624C21.7049 22.3342 21.7049 21.3156 22.333 20.6873C22.9611 20.0591 23.9794 20.0591 24.6074 20.6873ZM23.9075 21.3875C23.666 21.1459 23.2744 21.1459 23.0329 21.3875C22.7914 21.629 22.7914 22.0207 23.0329 22.2623L24.0533 23.2829C24.2948 23.5244 24.6863 23.5244 24.9278 23.2829C25.1693 23.0413 25.1693 22.6496 24.9278 22.4081L23.9075 21.3875Z" fill="#40C97F"/>
<path fill-rule="evenodd" clip-rule="evenodd" d="M24.8738 22.0887L23.7365 23.2262L23.0366 22.5261L24.1738 21.3885L24.8738 22.0887Z" fill="#40C97F"/>
</svg>
