<svg width="24" height="24" viewBox="0 0 24 24" fill="none" xmlns="http://www.w3.org/2000/svg">
<path fill-rule="evenodd" clip-rule="evenodd" d="M8.42436 7.12361C8.19005 6.8893 7.81015 6.8893 7.57583 7.12361L6.48799 8.21146L5.40014 7.12361C5.16583 6.8893 4.78593 6.8893 4.55162 7.12361C4.3173 7.35793 4.3173 7.73783 4.55162 7.97214L6.06372 9.48425C6.29804 9.71856 6.67794 9.71856 6.91225 9.48425L8.42436 7.97214C8.65868 7.73783 8.65868 7.35793 8.42436 7.12361Z" fill="#36393C"/>
<path fill-rule="evenodd" clip-rule="evenodd" d="M6.5 10.3C4.40132 10.3 2.7 8.59868 2.7 6.5C2.7 4.40132 4.40132 2.7 6.5 2.7C8.59868 2.7 10.3 4.40132 10.3 6.5C10.3 8.59868 8.59868 10.3 6.5 10.3ZM6.5 11.5C3.73858 11.5 1.5 9.26142 1.5 6.5C1.5 3.73858 3.73858 1.5 6.5 1.5C9.26142 1.5 11.5 3.73858 11.5 6.5C11.5 9.26142 9.26142 11.5 6.5 11.5Z" fill="#36393C"/>
<path fill-rule="evenodd" clip-rule="evenodd" d="M6.5001 3.92346C6.16873 3.92346 5.9001 4.19209 5.9001 4.52346V9.05979C5.9001 9.39116 6.16873 9.65979 6.5001 9.65979C6.83147 9.65979 7.1001 9.39116 7.1001 9.05979V4.52346C7.1001 4.19209 6.83147 3.92346 6.5001 3.92346Z" fill="#36393C"/>
<path fill-rule="evenodd" clip-rule="evenodd" d="M13.5516 6.2V7.21247H20.5334V6.2H13.5516ZM13.2046 5C12.7335 5 12.3516 5.3819 12.3516 5.853V7.55946C12.3516 8.03057 12.7335 8.41247 13.2046 8.41247H20.8804C21.3515 8.41247 21.7334 8.03057 21.7334 7.55946V5.853C21.7334 5.3819 21.3515 5 20.8804 5H13.2046Z" fill="#36393C"/>
<path fill-rule="evenodd" clip-rule="evenodd" d="M15.2596 8.86512C15.2596 9.4623 14.8204 9.96861 14.2293 10.0531C13.3649 10.1765 12.7 10.9219 12.7 11.8205V20.2422C12.7 20.7573 13.1175 21.1748 13.6325 21.1748H20.4551C20.9701 21.1748 21.3876 20.7573 21.3876 20.2422V11.8205C21.3876 10.9223 20.7232 10.1771 19.8594 10.0532C19.2685 9.96844 18.8298 9.46228 18.8298 8.86537V8.64727H15.2596V8.86512ZM20.0298 7.44727V8.86537C21.476 9.07286 22.5876 10.3169 22.5876 11.8205V20.2422C22.5876 21.42 21.6328 22.3748 20.4551 22.3748H13.6325C12.4548 22.3748 11.5 21.42 11.5 20.2422V11.8205C11.5 10.3162 12.6125 9.07183 14.0596 8.86512V7.44727H20.0298Z" fill="#36393C"/>
<path fill-rule="evenodd" clip-rule="evenodd" d="M21.3876 13.3426H12.7V18.1941H21.3876V13.3426ZM11.5 12.1426V19.3941H22.5876V12.1426H11.5Z" fill="#36393C"/>
<path fill-rule="evenodd" clip-rule="evenodd" d="M17.8249 14.2612L18.7524 15.189C19.3234 15.7601 19.3234 16.6861 18.7524 17.2572C18.1815 17.8284 17.2557 17.8284 16.6847 17.2572L15.7572 16.3294C15.1862 15.7583 15.1862 14.8323 15.7572 14.2612C16.3281 13.69 17.2539 13.69 17.8249 14.2612ZM17.1885 14.8977C16.969 14.678 16.613 14.678 16.3935 14.8977C16.1739 15.1173 16.1739 15.4733 16.3935 15.6929L17.3211 16.6208C17.5406 16.8404 17.8966 16.8404 18.1161 16.6208C18.3357 16.4011 18.3357 16.0451 18.1161 15.8255L17.1885 14.8977Z" fill="#36393C"/>
<path fill-rule="evenodd" clip-rule="evenodd" d="M18.067 15.5352L17.0331 16.5693L16.3968 15.9328L17.4307 14.8987L18.067 15.5352Z" fill="#36393C"/>
</svg>
