<svg width="24" height="24" viewBox="0 0 24 24" fill="none" xmlns="http://www.w3.org/2000/svg">
<path fill-rule="evenodd" clip-rule="evenodd" d="M18.2138 6.00833C17.9649 5.68399 17.6204 5.55924 17.1952 5.61118C16.6813 5.67396 16.0707 5.90097 15.4803 6.14286C15.3958 6.1775 15.3104 6.21295 15.226 6.24801C15.0319 6.32861 14.8427 6.40715 14.68 6.46906C14.5607 6.51444 14.4409 6.55671 14.329 6.5882C14.3197 6.59081 14.3102 6.59343 14.3004 6.59606C14.3003 6.60133 14.3002 6.60674 14.3001 6.61229C14.2961 6.85913 14.3405 7.18084 14.3864 7.40475C14.4497 7.7134 14.2634 8.01842 13.9599 8.10314C13.9144 8.11585 13.8821 8.12827 13.8596 8.13865C13.8606 8.14124 13.8617 8.14394 13.8629 8.14677C13.9418 8.33951 14.2267 8.65874 14.6954 8.92049C14.9871 9.08334 15.4074 9.15406 15.8678 9.1507C16.3182 9.14741 16.7361 9.074 16.968 9.01222C17.1371 8.96713 17.3176 8.9982 17.462 9.09728C17.6063 9.19635 17.7002 9.35355 17.719 9.52764C17.9954 12.0897 17.3091 13.8705 16.9336 14.8451C16.874 14.9996 16.8223 15.1339 16.7834 15.2478C16.697 15.5011 16.6705 15.8344 16.6865 16.1777C16.7022 16.5151 16.7564 16.8141 16.7968 16.9721C16.8412 17.1454 16.8059 17.3295 16.7005 17.4741C16.5951 17.6188 16.4307 17.7088 16.2521 17.7197C15.8168 17.7463 15.1029 17.7457 14.3374 17.6619C13.5805 17.579 12.72 17.4093 12.0241 17.0695C10.5362 16.3427 8.97524 15.6541 6.69744 15.6541C5.8509 15.6541 5.31957 16.219 5.15161 17.0545C4.97857 17.9153 5.24193 18.9039 5.88723 19.4771C5.9863 19.5651 6.23562 19.6931 6.69887 19.8207C7.14043 19.9423 7.70507 20.0451 8.36182 20.1286C9.67349 20.2953 11.2961 20.3777 12.9175 20.396C14.537 20.4143 16.1405 20.3685 17.4096 20.282C18.0448 20.2388 18.5893 20.1858 19.0069 20.1268C19.2159 20.0973 19.3865 20.0672 19.5172 20.0378C19.5823 20.0231 19.6334 20.0095 19.6719 19.9976C19.6909 19.9917 19.7053 19.9867 19.7156 19.9827C19.7253 19.9791 19.7295 19.977 19.7295 19.977L19.7295 19.9771C19.9271 19.8805 20.0487 19.7622 20.1388 19.5969C20.2381 19.4149 20.3157 19.1445 20.3591 18.7205C20.4359 17.9703 20.393 16.9227 20.3303 15.3907C20.3205 15.1508 20.3102 14.8991 20.2998 14.6348C20.1831 11.6712 19.1781 9.32808 18.7234 8.57282C18.6608 8.46888 18.6312 8.34841 18.6385 8.2273C18.7098 7.04371 18.4862 6.36331 18.2138 6.00833ZM13.8459 8.08984C13.846 8.08987 13.8462 8.09103 13.8461 8.09318C13.8458 8.09087 13.8459 8.0898 13.8459 8.08984ZM13.8169 8.16341C13.8155 8.16495 13.8146 8.16565 13.8146 8.16561C13.8145 8.16558 13.8152 8.16481 13.8169 8.16341ZM19.8454 8.11694C19.8942 6.87977 19.6623 5.92464 19.1657 5.2777C18.6215 4.56867 17.833 4.32436 17.0497 4.42004C16.3552 4.50488 15.606 4.79456 15.0254 5.03245C14.9261 5.07312 14.8327 5.1119 14.7445 5.14853C14.5603 5.22504 14.3987 5.29215 14.2533 5.3475C14.1482 5.38747 14.0661 5.41555 14.0039 5.43308C13.9621 5.44483 13.9415 5.44824 13.9371 5.44907C13.4976 5.45519 13.2798 5.78712 13.1998 5.99222C13.1214 6.19284 13.1031 6.417 13.1002 6.59287C13.0972 6.78332 13.1121 6.98665 13.1349 7.1757C12.9833 7.28101 12.8538 7.41777 12.764 7.5933C12.5829 7.94728 12.6355 8.31609 12.7523 8.60139C12.9756 9.14677 13.5216 9.63948 14.1104 9.96823C14.6648 10.2778 15.3273 10.3547 15.8766 10.3507C16.1215 10.3489 16.3587 10.3308 16.575 10.3039C16.6567 12.2041 16.1543 13.5193 15.8174 14.4013C15.7531 14.5697 15.6947 14.7224 15.6477 14.8603C15.4924 15.3156 15.4685 15.8189 15.4878 16.2334C15.4926 16.3365 15.5002 16.4371 15.5099 16.5338C15.2001 16.5286 14.8412 16.5099 14.468 16.469C13.7645 16.392 13.0638 16.2418 12.5507 15.9912C11.0161 15.2417 9.25432 14.4541 6.69744 14.4541C5.12663 14.4541 4.22267 15.5868 3.97514 16.818C3.7327 18.024 4.07368 19.4712 5.0903 20.3743C5.40671 20.6553 5.88449 20.8411 6.38026 20.9776C6.89773 21.1201 7.52406 21.2318 8.21054 21.319C9.58534 21.4937 11.2583 21.5773 12.904 21.5959C14.5517 21.6146 16.1871 21.5681 17.4912 21.4793C18.1425 21.4349 18.7182 21.3795 19.1746 21.315C19.5987 21.2551 20.0066 21.1772 20.2562 21.0553C20.6629 20.8566 20.9756 20.5689 21.1924 20.1714C21.4 19.7907 21.5018 19.3414 21.5529 18.8427C21.6392 17.9996 21.5917 16.8486 21.5294 15.3385C21.5194 15.0974 21.5091 14.8472 21.4989 14.5876C21.3806 11.5819 20.417 9.14823 19.8454 8.11694Z" fill="#36393C"/>
<path fill-rule="evenodd" clip-rule="evenodd" d="M8.42436 7.12358C8.19005 6.88927 7.81015 6.88927 7.57583 7.12358L6.48799 8.21143L5.40014 7.12358C5.16583 6.88927 4.78593 6.88927 4.55162 7.12358C4.3173 7.3579 4.3173 7.73779 4.55162 7.97211L6.06372 9.48422C6.29804 9.71853 6.67794 9.71853 6.91225 9.48422L8.42436 7.97211C8.65868 7.73779 8.65868 7.3579 8.42436 7.12358Z" fill="#36393C"/>
<path fill-rule="evenodd" clip-rule="evenodd" d="M6.5 10.3C4.40132 10.3 2.7 8.59868 2.7 6.5C2.7 4.40132 4.40132 2.7 6.5 2.7C8.59868 2.7 10.3 4.40132 10.3 6.5C10.3 8.59868 8.59868 10.3 6.5 10.3ZM6.5 11.5C3.73858 11.5 1.5 9.26142 1.5 6.5C1.5 3.73858 3.73858 1.5 6.5 1.5C9.26142 1.5 11.5 3.73858 11.5 6.5C11.5 9.26142 9.26142 11.5 6.5 11.5Z" fill="#36393C"/>
<path fill-rule="evenodd" clip-rule="evenodd" d="M6.5001 3.92343C6.16873 3.92343 5.9001 4.19206 5.9001 4.52343V9.05976C5.9001 9.39113 6.16873 9.65976 6.5001 9.65976C6.83147 9.65976 7.1001 9.39113 7.1001 9.05976V4.52343C7.1001 4.19206 6.83147 3.92343 6.5001 3.92343Z" fill="#36393C"/>
</svg>
