<svg width="36" height="36" viewBox="0 0 36 36" fill="none" xmlns="http://www.w3.org/2000/svg">
<circle cx="18" cy="18" r="18" fill="#D9F4E5"/>
<path fill-rule="evenodd" clip-rule="evenodd" d="M24.8356 11.4092C24.5617 11.0524 24.1828 10.9152 23.7151 10.9723C23.1498 11.0414 22.4782 11.2911 21.8287 11.5572C21.7357 11.5953 21.6418 11.6343 21.5489 11.6728C21.3354 11.7615 21.1274 11.8479 20.9484 11.916C20.8172 11.9659 20.6854 12.0124 20.5623 12.047C20.5521 12.0499 20.5416 12.0528 20.5309 12.0557C20.5307 12.0615 20.5306 12.0674 20.5305 12.0735C20.5261 12.345 20.5749 12.6989 20.6254 12.9452C20.695 13.2847 20.4901 13.6203 20.1563 13.7135C20.1062 13.7274 20.0707 13.7411 20.046 13.7525C20.0471 13.7554 20.0483 13.7583 20.0495 13.7614C20.1363 13.9735 20.4497 14.3246 20.9654 14.6125C21.2862 14.7917 21.7486 14.8695 22.255 14.8658C22.7504 14.8621 23.2101 14.7814 23.4651 14.7134C23.6513 14.6638 23.8497 14.698 24.0085 14.807C24.1674 14.916 24.2706 15.0889 24.2913 15.2804C24.5953 18.0987 23.8404 20.0575 23.4273 21.1296C23.3618 21.2996 23.3049 21.4473 23.2622 21.5726C23.1671 21.8512 23.138 22.2179 23.1555 22.5954C23.1728 22.9666 23.2325 23.2955 23.2769 23.4693C23.3257 23.66 23.2868 23.8625 23.1709 24.0216C23.055 24.1806 22.8742 24.2797 22.6777 24.2917C22.1989 24.3209 21.4136 24.3203 20.5715 24.2281C19.739 24.1369 18.7923 23.9503 18.0268 23.5764C16.3902 22.777 14.6732 22.0195 12.1676 22.0195C11.2364 22.0195 10.6519 22.641 10.4672 23.56C10.2768 24.5068 10.5665 25.5943 11.2763 26.2248C11.3853 26.3216 11.6596 26.4624 12.1692 26.6027C12.6549 26.7365 13.276 26.8496 13.9984 26.9414C15.4412 27.1248 17.2261 27.2155 19.0097 27.2356C20.7911 27.2557 22.555 27.2053 23.9509 27.1102C24.6497 27.0626 25.2486 27.0043 25.708 26.9395C25.9379 26.907 26.1255 26.8739 26.2693 26.8415C26.3409 26.8254 26.3971 26.8104 26.4395 26.7973C26.4604 26.7908 26.4762 26.7853 26.4875 26.781C26.4982 26.777 26.5029 26.7748 26.5029 26.7748L26.5028 26.7748C26.7202 26.6686 26.854 26.5385 26.9531 26.3566C27.0623 26.1564 27.1477 25.8589 27.1954 25.3926C27.2799 24.5674 27.2327 23.4149 27.1637 21.7297C27.1529 21.4659 27.1416 21.189 27.1302 20.8983C27.0019 17.6383 25.8963 15.0609 25.3961 14.2301C25.3273 14.1158 25.2947 13.9833 25.3027 13.85C25.3811 12.5481 25.1353 11.7996 24.8356 11.4092ZM20.0309 13.6988C20.031 13.6989 20.0312 13.7001 20.0311 13.7025C20.0308 13.7 20.0308 13.6988 20.0309 13.6988ZM19.9989 13.7798C19.9974 13.7815 19.9965 13.7822 19.9964 13.7822C19.9963 13.7821 19.9971 13.7813 19.9989 13.7798ZM26.6304 13.7286C26.684 12.3677 26.4289 11.3171 25.8827 10.6055C25.2841 9.82554 24.4166 9.55679 23.5551 9.66204C22.7911 9.75538 21.967 10.074 21.3283 10.3357C21.2191 10.3804 21.1164 10.4231 21.0194 10.4634C20.8167 10.5475 20.639 10.6214 20.479 10.6823C20.3634 10.7262 20.2732 10.7571 20.2047 10.7764C20.1587 10.7893 20.1361 10.7931 20.1312 10.794C19.6477 10.8007 19.4082 11.1658 19.3201 11.3914C19.234 11.6121 19.2138 11.8587 19.2107 12.0522C19.2073 12.2617 19.2238 12.4853 19.2488 12.6933C19.082 12.8091 18.9396 12.9596 18.8408 13.1526C18.6416 13.542 18.6995 13.9477 18.8279 14.2615C19.0735 14.8615 19.6742 15.4034 20.3219 15.7651C20.9317 16.1056 21.6604 16.1902 22.2647 16.1857C22.5341 16.1838 22.795 16.1639 23.0329 16.1342C23.1227 18.2245 22.5701 19.6712 22.1996 20.6414C22.1288 20.8267 22.0646 20.9947 22.0129 21.1464C21.842 21.6472 21.8157 22.2007 21.837 22.6568C21.8422 22.7701 21.8506 22.8808 21.8612 22.9871C21.5205 22.9815 21.1257 22.9609 20.7152 22.9159C19.9413 22.8312 19.1705 22.666 18.6062 22.3903C16.9181 21.5658 14.9801 20.6995 12.1676 20.6995C10.4397 20.6995 9.44532 21.9455 9.17305 23.2998C8.90636 24.6264 9.28144 26.2184 10.3997 27.2117C10.7478 27.5209 11.2733 27.7252 11.8187 27.8754C12.3879 28.0321 13.0769 28.155 13.832 28.2509C15.3443 28.4431 17.1845 28.5351 18.9948 28.5555C20.8072 28.576 22.6062 28.5249 24.0407 28.4272C24.7572 28.3784 25.3904 28.3174 25.8925 28.2465C26.359 28.1807 26.8077 28.095 27.0822 27.9608C27.5296 27.7423 27.8736 27.4258 28.112 26.9886C28.3404 26.5697 28.4524 26.0755 28.5086 25.527C28.6035 24.5996 28.5512 23.3335 28.4827 21.6723C28.4717 21.4071 28.4604 21.1319 28.4492 20.8464C28.319 17.5401 27.2591 14.8631 26.6304 13.7286Z" fill="#40C97F"/>
<path fill-rule="evenodd" clip-rule="evenodd" d="M14.2676 12.8359C14.0099 12.5782 13.592 12.5782 13.3342 12.8359L12.1376 14.0326L10.941 12.8359C10.6832 12.5782 10.2654 12.5782 10.0076 12.8359C9.74986 13.0937 9.74986 13.5116 10.0076 13.7693L11.6709 15.4326C11.9287 15.6904 12.3466 15.6904 12.6043 15.4326L14.2676 13.7693C14.5254 13.5116 14.5254 13.0937 14.2676 12.8359Z" fill="#40C97F"/>
<path fill-rule="evenodd" clip-rule="evenodd" d="M12.1504 16.33C9.84184 16.33 7.97039 14.4585 7.97039 12.15C7.97039 9.84144 9.84184 7.96999 12.1504 7.96999C14.4589 7.96999 16.3304 9.84144 16.3304 12.15C16.3304 14.4585 14.4589 16.33 12.1504 16.33ZM12.1504 17.65C9.11282 17.65 6.65039 15.1876 6.65039 12.15C6.65039 9.11243 9.11282 6.64999 12.1504 6.64999C15.188 6.64999 17.6504 9.11243 17.6504 12.15C17.6504 15.1876 15.188 17.65 12.1504 17.65Z" fill="#40C97F"/>
<path fill-rule="evenodd" clip-rule="evenodd" d="M12.1505 9.31577C11.786 9.31577 11.4905 9.61126 11.4905 9.97577V14.9657C11.4905 15.3302 11.786 15.6257 12.1505 15.6257C12.5151 15.6257 12.8105 15.3302 12.8105 14.9657V9.97577C12.8105 9.61126 12.5151 9.31577 12.1505 9.31577Z" fill="#40C97F"/>
</svg>
