<svg width="24" height="24" viewBox="0 0 24 24" fill="none" xmlns="http://www.w3.org/2000/svg">
<g clip-path="url(#clip0_2967_12571)">
<path fill-rule="evenodd" clip-rule="evenodd" d="M14.3374 19.5474C12.6736 20.8464 10.3393 20.8464 8.6755 19.5474L5.76927 17.2782C4.65279 16.4064 4.0002 15.0689 4.00022 13.6524L4.00029 7.49571C4.0003 6.33771 4.76615 5.31929 5.87866 4.99789L10.7849 3.58049C11.2563 3.44429 11.7567 3.44429 12.2281 3.58049L17.1343 4.99788C18.2468 5.31929 19.0127 6.33772 19.0127 7.49573L19.0127 13.6525C19.0127 15.0689 18.3601 16.4064 17.2436 17.2782L14.3374 19.5474ZM9.41401 18.6015C10.6437 19.5617 12.3692 19.5617 13.5989 18.6015L16.5051 16.3323C17.3303 15.688 17.8127 14.6994 17.8127 13.6525L17.8127 7.49573C17.8127 6.87219 17.4003 6.3238 16.8013 6.15074L11.8951 4.73334C11.6412 4.66 11.3718 4.66 11.1179 4.73334L6.21172 6.15074C5.61268 6.3238 5.20029 6.87218 5.20029 7.49572L5.20022 13.6524C5.20021 14.6994 5.68256 15.688 6.50778 16.3324L9.41401 18.6015Z" fill="#36393C"/>
<path fill-rule="evenodd" clip-rule="evenodd" d="M10.9131 7.91913C10.6369 7.91913 10.4131 8.14299 10.4131 8.41913V10.7191C10.4131 10.8296 10.3235 10.9191 10.2131 10.9191H7.91309C7.63694 10.9191 7.41309 11.143 7.41309 11.4191V12.4191C7.41309 12.6953 7.63694 12.9191 7.91309 12.9191H10.2131C10.3235 12.9191 10.4131 13.0087 10.4131 13.1191V15.4191C10.4131 15.6953 10.6369 15.9191 10.9131 15.9191H11.9131C12.1892 15.9191 12.4131 15.6953 12.4131 15.4191V13.1191C12.4131 13.0087 12.5026 12.9191 12.6131 12.9191H14.9131C15.1892 12.9191 15.4131 12.6953 15.4131 12.4191V11.4191C15.4131 11.143 15.1892 10.9191 14.9131 10.9191H12.6131C12.5026 10.9191 12.4131 10.8296 12.4131 10.7191V8.41913C12.4131 8.14299 12.1892 7.91913 11.9131 7.91913H10.9131Z" fill="#36393C"/>
</g>
<defs>
<clipPath id="clip0_2967_12571">
<rect width="24" height="24" fill="white"/>
</clipPath>
</defs>
</svg>
