<svg width="36" height="36" viewBox="0 0 36 36" fill="none" xmlns="http://www.w3.org/2000/svg">
<circle cx="18" cy="18" r="18" fill="#D9F4E5"/>
<g clip-path="url(#clip0_3168_4720)">
<path fill-rule="evenodd" clip-rule="evenodd" d="M20.9215 27.4342C18.8418 29.058 15.9238 29.058 13.8441 27.4342L10.2113 24.5977C8.81574 23.508 8.00001 21.8361 8.00003 20.0655L8.00012 12.3696C8.00013 10.9221 8.95745 9.64907 10.3481 9.24731L16.4808 7.47556C17.0702 7.30531 17.6956 7.30531 18.2849 7.47556L24.4177 9.24731C25.8083 9.64907 26.7656 10.9221 26.7656 12.3696L26.7656 20.0655C26.7656 21.8361 25.9499 23.508 24.5543 24.5977L20.9215 27.4342ZM14.7673 26.2519C16.3044 27.4521 18.4612 27.4521 19.9984 26.2519L23.6312 23.4154C24.6627 22.61 25.2656 21.3742 25.2656 20.0655L25.2656 12.3696C25.2656 11.5902 24.7501 10.9047 24.0013 10.6884L17.8686 8.91663C17.5513 8.82496 17.2145 8.82496 16.8972 8.91663L10.7644 10.6884C10.0156 10.9047 9.50012 11.5902 9.50012 12.3696L9.50003 20.0655C9.50002 21.3742 10.1029 22.61 11.1345 23.4154L14.7673 26.2519Z" fill="#40C97F"/>
<path fill-rule="evenodd" clip-rule="evenodd" d="M16.6406 12.8989C16.2954 12.8989 16.0156 13.1787 16.0156 13.5239V16.3989C16.0156 16.5369 15.9037 16.6489 15.7656 16.6489H12.8906C12.5454 16.6489 12.2656 16.9287 12.2656 17.2739V18.5239C12.2656 18.869 12.5454 19.1489 12.8906 19.1489H15.7656C15.9037 19.1489 16.0156 19.2608 16.0156 19.3989V22.2739C16.0156 22.619 16.2954 22.8989 16.6406 22.8989H17.8906C18.2358 22.8989 18.5156 22.619 18.5156 22.2739V19.3989C18.5156 19.2608 18.6276 19.1489 18.7656 19.1489H21.6406C21.9858 19.1489 22.2656 18.869 22.2656 18.5239V17.2739C22.2656 16.9287 21.9858 16.6489 21.6406 16.6489H18.7656C18.6276 16.6489 18.5156 16.5369 18.5156 16.3989V13.5239C18.5156 13.1787 18.2358 12.8989 17.8906 12.8989H16.6406Z" fill="#40C97F"/>
</g>
<defs>
<clipPath id="clip0_3168_4720">
<rect width="30" height="30" fill="white" transform="translate(3 3)"/>
</clipPath>
</defs>
</svg>
