<svg width="24" height="24" viewBox="0 0 24 24" fill="none" xmlns="http://www.w3.org/2000/svg">
<g clip-path="url(#clip0_2967_12570)">
<path fill-rule="evenodd" clip-rule="evenodd" d="M8.95151 15.7381L3.59213 15.6677C3.26078 15.6634 2.9957 15.3912 3.00005 15.0599C3.0044 14.7286 3.27653 14.4635 3.60788 14.4678L9.35049 14.5432C9.66774 14.5474 9.92423 14.797 9.94167 15.1091C10.0672 15.219 10.1464 15.3805 10.1464 15.5605C10.1464 16.5777 10.9711 17.4024 11.9883 17.4024C13.0056 17.4024 13.8302 16.5777 13.8302 15.5605C13.8302 15.3737 13.9156 15.2068 14.0494 15.0968C14.112 14.8283 14.3546 14.6299 14.6416 14.6337L20.3842 14.709C20.7156 14.7134 20.9807 14.9855 20.9763 15.3169C20.972 15.6482 20.6998 15.9133 20.3685 15.9089L15.0177 15.8387C14.8772 17.3883 13.5745 18.6024 11.9883 18.6024C10.3679 18.6024 9.04346 17.3354 8.95151 15.7381Z" fill="#36393C"/>
<path d="M14.601 4.42593C12.8938 6.82543 11.2798 11.8623 10.6894 15.2239C10.5638 15.9391 11.1296 16.5653 11.8558 16.5653C12.6767 16.5653 13.2784 15.7674 13.214 14.949C12.9711 11.8625 14.1231 7.9606 15.3642 5.2167C15.8246 4.19867 15.2488 3.51553 14.601 4.42593Z" fill="#36393C"/>
</g>
<defs>
<clipPath id="clip0_2967_12570">
<rect width="24" height="24" fill="white"/>
</clipPath>
</defs>
</svg>
