<svg width="36" height="36" viewBox="0 0 36 36" fill="none" xmlns="http://www.w3.org/2000/svg">
<circle cx="18" cy="18" r="18" fill="#D9F4E5"/>
<g clip-path="url(#clip0_3168_4713)">
<path fill-rule="evenodd" clip-rule="evenodd" d="M14.1894 22.6726L7.49016 22.5847C7.07598 22.5792 6.74463 22.2391 6.75007 21.8249C6.7555 21.4107 7.09567 21.0793 7.50985 21.0848L14.6881 21.179C15.0847 21.1842 15.4053 21.4963 15.4271 21.8863C15.584 22.0238 15.683 22.2256 15.683 22.4506C15.683 23.7222 16.7138 24.753 17.9854 24.753C19.257 24.753 20.2878 23.7222 20.2878 22.4506C20.2878 22.2171 20.3945 22.0085 20.5618 21.871C20.6401 21.5353 20.9433 21.2874 21.302 21.2921L28.4803 21.3863C28.8945 21.3917 29.2258 21.7319 29.2204 22.1461C29.215 22.5603 28.8748 22.8916 28.4606 22.8862L21.7721 22.7984C21.5964 24.7354 19.9681 26.253 17.9854 26.253C15.9599 26.253 14.3043 24.6693 14.1894 22.6726Z" fill="#40C97F"/>
<path d="M21.2513 8.53241C19.1172 11.5318 17.0998 17.8279 16.3618 22.0298C16.2047 22.9238 16.912 23.7066 17.8197 23.7066C18.8459 23.7066 19.598 22.7093 19.5175 21.6863C19.2139 17.8281 20.6539 12.9507 22.2052 9.52087C22.7808 8.24833 22.061 7.39441 21.2513 8.53241Z" fill="#40C97F"/>
</g>
<defs>
<clipPath id="clip0_3168_4713">
<rect width="30" height="30" fill="white" transform="translate(3 3)"/>
</clipPath>
</defs>
</svg>
