<svg width="36" height="36" viewBox="0 0 36 36" fill="none" xmlns="http://www.w3.org/2000/svg">
<circle cx="18" cy="18" r="18" fill="#D9F4E5"/>
<path fill-rule="evenodd" clip-rule="evenodd" d="M24.1018 10.1895C23.634 10.0647 23.0473 10.0601 22.2621 10.0601C22.1742 10.0601 22.0224 10.1087 21.8107 10.3798C21.6025 10.6464 21.4129 11.0363 21.2526 11.4817C21.095 11.9193 20.9793 12.3719 20.9031 12.7351C20.8702 12.8916 20.8469 13.0209 20.8308 13.1194C20.9636 13.1995 21.1534 13.2896 21.3712 13.3623C21.6106 13.4421 21.855 13.491 22.0688 13.4944C22.2858 13.4978 22.4234 13.4542 22.5028 13.4013C22.6332 13.3144 22.767 13.0918 22.831 12.6809C22.8913 12.2941 22.8661 11.8812 22.8246 11.6321C22.7646 11.2726 23.0075 10.9325 23.3671 10.8726C23.7266 10.8127 24.0667 11.0556 24.1266 11.4151C24.1862 11.7728 24.2216 12.3306 24.1353 12.8842C24.0527 13.4137 23.8326 14.1012 23.235 14.4996C22.8593 14.7501 22.4281 14.8202 22.0479 14.8142C21.6644 14.8081 21.2831 14.7243 20.9538 14.6145C20.9026 14.5975 20.852 14.5795 20.8021 14.5609C20.4353 14.9857 19.7406 15.5643 18.781 15.8042C18.1135 15.9711 16.8604 16.1254 15.5693 16.2019C14.2787 16.2784 12.862 16.2826 11.8754 16.1183C11.3884 16.0372 11.0173 15.7438 10.7476 15.4157C10.4785 15.0883 10.2726 14.6825 10.1134 14.2722C9.79449 13.4499 9.61491 12.4818 9.53751 11.7285C9.50871 11.4482 9.27854 11.2735 9.11334 11.2735C9.08855 11.2735 9.06626 11.2767 9.04814 11.2814C9.04146 11.2831 9.03582 11.2849 9.03116 11.2866C8.95175 11.5906 8.93912 12.006 8.99025 12.5003C9.04233 13.0038 9.15507 13.5409 9.28631 14.041C9.41704 14.5392 9.56286 14.9884 9.67624 15.3134C9.7328 15.4756 9.78096 15.6059 9.81465 15.6948C9.83149 15.7393 9.84469 15.7733 9.85349 15.7958L9.85974 15.8117L10.4213 17.0067C10.5196 17.2159 10.5013 17.4612 10.3731 17.6535C9.89277 18.374 9.88678 19.0141 10.0161 19.6607C10.0681 19.9207 10.1377 20.1631 10.2125 20.4237C10.2376 20.5114 10.2634 20.6011 10.2892 20.6942C10.3848 21.0383 10.4839 21.4366 10.4839 21.8378C10.4839 22.5419 10.3086 23.2264 10.1583 23.7901C10.1513 23.8165 10.1443 23.8426 10.1374 23.8683C9.98582 24.4362 9.87723 24.8429 9.87723 25.1747C9.87723 25.3156 9.96832 25.5487 10.1939 25.8397C10.344 26.0334 10.5182 26.2069 10.6648 26.3349H11.8335C11.8396 26.3326 11.8456 26.3302 11.8517 26.3279C11.0019 25.9365 10.5331 25.2665 10.5475 24.4987C10.5617 23.7481 11.0431 23.0869 11.6885 22.7643C11.9239 22.6465 12.133 22.2495 11.9642 21.7431C11.849 21.3973 12.0358 21.0236 12.3816 20.9083C12.7275 20.793 13.1012 20.9799 13.2165 21.3257C13.5331 22.2755 13.2568 23.4559 12.2788 23.9449C12.0141 24.0773 11.871 24.3261 11.8673 24.5235C11.8648 24.6584 11.9269 24.9408 12.4965 25.1687C12.8326 25.3031 13.169 25.4922 13.3601 25.7964C13.4667 25.9663 13.5237 26.1665 13.5063 26.3793C13.4895 26.5832 13.4087 26.7496 13.3232 26.8722C13.1624 27.1024 12.9269 27.2613 12.7451 27.3635C12.549 27.4738 12.3382 27.5604 12.1561 27.621C12.0888 27.6435 12.0184 27.6549 11.9474 27.6549H10.4307C10.2879 27.6549 10.1489 27.6086 10.0347 27.5229C9.79274 27.3414 9.44494 27.0281 9.15064 26.6484C8.87062 26.2872 8.55723 25.762 8.55723 25.1747C8.55723 24.66 8.7115 24.087 8.84565 23.5887C8.85828 23.5417 8.87074 23.4955 8.88287 23.45C9.03592 22.876 9.16394 22.3471 9.16394 21.8378C9.16394 21.6323 9.11139 21.3859 9.01738 21.0475C8.9979 20.9773 8.9764 20.9025 8.95384 20.824C8.87595 20.553 8.78545 20.2382 8.72173 19.9196C8.56508 19.1363 8.54457 18.2249 9.07657 17.2488L8.65642 16.3547C8.65118 16.3435 8.64624 16.3322 8.64163 16.3207L9.25377 16.074C8.64163 16.3207 8.64167 16.3209 8.64163 16.3207L8.64007 16.3169L8.63662 16.3082L8.62434 16.277C8.61385 16.2503 8.59889 16.2116 8.58022 16.1623C8.54291 16.0638 8.49072 15.9225 8.4299 15.7482C8.30851 15.4002 8.15141 14.9167 8.00954 14.3761C7.86819 13.8375 7.73866 13.2298 7.67726 12.6361C7.61686 12.0522 7.61656 11.4308 7.77142 10.8894C7.9678 10.2028 8.62517 9.95353 9.11334 9.95353C10.0687 9.95353 10.7649 10.7592 10.8506 11.5936C10.9208 12.2764 11.082 13.1191 11.3441 13.7948C11.4754 14.1334 11.62 14.3983 11.7673 14.5775C11.9141 14.756 12.0253 14.8051 12.0923 14.8162C12.9269 14.9553 14.222 14.9595 15.4912 14.8843C16.76 14.8091 17.9148 14.6601 18.4608 14.5236C18.999 14.3891 19.4137 14.0864 19.6622 13.847C19.6372 13.815 19.6124 13.7795 19.5895 13.7403C19.5431 13.6609 19.4786 13.5226 19.4786 13.3438C19.4786 13.19 19.5319 12.842 19.6112 12.464C19.6961 12.0594 19.8269 11.545 20.0106 11.0346C20.1916 10.532 20.438 9.99294 20.7702 9.56744C21.0989 9.14654 21.5917 8.74009 22.2621 8.74009C22.2802 8.74009 22.2983 8.74009 22.3164 8.74009C23.0321 8.73998 23.7887 8.73986 24.4419 8.91406C25.1643 9.10668 25.7889 9.51731 26.1894 10.3184C26.3406 10.6208 26.5813 10.7214 26.9769 10.7518C27.1193 10.7627 27.2334 10.7625 27.3609 10.7622C27.4391 10.7621 27.5223 10.7619 27.6202 10.7643C27.7267 10.7669 27.8614 10.7736 27.993 10.8008C28.1171 10.8265 28.3219 10.8862 28.4926 11.0569C28.6498 11.214 28.7258 11.4215 28.7643 11.5448C28.8121 11.6975 28.8466 11.8733 28.8669 12.0586C28.9073 12.4284 28.8963 12.887 28.78 13.3521C28.6633 13.8191 28.434 14.3163 28.0197 14.7241C27.5991 15.1383 27.0249 15.4233 26.2877 15.5154C25.7083 15.5879 25.4169 15.6884 25.2837 15.7648C25.2723 15.7714 25.2631 15.777 25.2558 15.7817C25.2578 15.7924 25.2608 15.8057 25.2651 15.8217C25.2807 15.8801 25.3076 15.9534 25.3495 16.0511C25.3675 16.0933 25.3913 16.1457 25.4182 16.2049C25.4926 16.3688 25.5904 16.5842 25.6541 16.7753C25.967 17.7138 26.3611 19.8628 24.9367 21.6434C24.3651 22.3578 23.8589 23.2143 23.5728 23.9092C23.4322 24.2506 23.3615 24.5133 23.3441 24.6817C23.6578 24.8641 23.9758 25.1188 24.2022 25.4358C24.482 25.8274 24.6652 26.3949 24.3693 26.9867C24.1766 27.372 23.7821 27.5239 23.5472 27.5919C23.2726 27.6714 22.9572 27.7073 22.6594 27.7223C22.058 27.7527 21.3955 27.7034 20.9669 27.6498C20.6556 27.6109 20.4147 27.3583 20.3907 27.0455C20.3634 26.6909 20.3606 26.3614 20.3592 26.0719L20.359 26.0254C20.3577 25.7484 20.3566 25.5198 20.3403 25.3093C20.3084 24.8998 20.2247 24.6545 20.0347 24.4525C19.7843 24.251 19.4549 23.9107 19.209 23.4731C18.9476 23.0078 18.7523 22.3775 18.9273 21.6777C19.0157 21.3241 19.374 21.1091 19.7276 21.1975C20.0813 21.2859 20.2963 21.6442 20.2079 21.9979C20.1401 22.2688 20.2036 22.5486 20.3598 22.8265C20.5183 23.1088 20.7429 23.3322 20.8812 23.439C20.9034 23.4562 20.9245 23.4748 20.9443 23.4946C21.4656 24.0159 21.6112 24.627 21.6563 25.207C21.6766 25.4677 21.6778 25.7426 21.6789 26.0047C21.679 26.025 21.6791 26.0453 21.6792 26.0655C21.6797 26.1741 21.6805 26.2824 21.6824 26.3914C21.9755 26.4105 22.2982 26.4189 22.5929 26.404C22.8463 26.3912 23.0465 26.3626 23.1802 26.3239C23.1845 26.3227 23.1886 26.3215 23.1926 26.3203C23.1838 26.2923 23.1649 26.2545 23.1281 26.203C23.0189 26.0501 22.8126 25.8845 22.5737 25.7651C22.025 25.4907 22.0016 24.8926 22.0271 24.5886C22.0577 24.2252 22.1855 23.8117 22.3522 23.4067C22.6906 22.5848 23.264 21.6211 23.9059 20.8188C24.9083 19.5658 24.6646 17.9811 24.4019 17.1928C24.3605 17.0686 24.3121 16.9626 24.2518 16.8304C24.2174 16.7551 24.1791 16.6713 24.1361 16.5709C24.0423 16.3518 23.907 16.0103 23.935 15.6444C23.969 15.2002 24.2238 14.8511 24.6269 14.6199C24.9894 14.4119 25.4898 14.2849 26.1239 14.2056C26.6001 14.1461 26.8981 13.9761 27.0936 13.7835C27.2956 13.5847 27.4265 13.3235 27.4994 13.032C27.5727 12.7387 27.5806 12.439 27.5547 12.2021C27.5499 12.1585 27.5442 12.1187 27.538 12.0831C27.509 12.0829 27.4753 12.0829 27.4382 12.0828C27.2821 12.0827 27.0648 12.0825 26.8756 12.0679C26.2853 12.0225 25.4642 11.8197 25.0088 10.9087C24.8026 10.4963 24.5171 10.3002 24.1018 10.1895ZM27.7259 12.0935C27.7301 12.0944 27.7291 12.0945 27.7241 12.0932L27.7259 12.0935ZM23.1932 26.3874C23.1917 26.3903 23.1901 26.3933 23.1886 26.3964C23.189 26.3955 23.1895 26.3946 23.19 26.3936C23.191 26.3919 23.1921 26.3898 23.1932 26.3874ZM23.3422 24.7977C23.3417 24.7983 23.3404 24.7928 23.3398 24.7793C23.3424 24.7903 23.3427 24.7971 23.3422 24.7977Z" fill="#40C97F"/>
<path fill-rule="evenodd" clip-rule="evenodd" d="M12.0717 22.3405C12.297 22.0539 12.7119 22.0041 12.9985 22.2293C13.5031 22.6259 14.4278 23.1192 15.4982 23.2615C16.5452 23.4007 17.7253 23.2064 18.833 22.2489C19.1087 22.0106 19.5255 22.0409 19.7639 22.3167C20.0023 22.5924 19.9719 23.0092 19.6962 23.2476C18.2614 24.4877 16.6872 24.7513 15.3242 24.57C13.9846 24.3919 12.8435 23.7863 12.1829 23.2672C11.8963 23.042 11.8465 22.6271 12.0717 22.3405Z" fill="#40C97F"/>
</svg>
