<svg width="24" height="24" viewBox="0 0 24 24" fill="none" xmlns="http://www.w3.org/2000/svg">
<path fill-rule="evenodd" clip-rule="evenodd" d="M17.3655 4.71773C16.9402 4.60432 16.4069 4.6001 15.6931 4.6001C15.6131 4.6001 15.4751 4.64427 15.2826 4.89075C15.0934 5.13307 14.9211 5.48759 14.7753 5.89248C14.6321 6.2903 14.5269 6.7017 14.4576 7.03196C14.4277 7.17421 14.4065 7.29172 14.3919 7.3813C14.5126 7.45407 14.6851 7.53605 14.8831 7.60207C15.1008 7.67461 15.323 7.71908 15.5173 7.72217C15.7146 7.7253 15.8396 7.68569 15.9118 7.63757C16.0304 7.55853 16.152 7.35621 16.2103 6.98262C16.2651 6.63102 16.2421 6.25561 16.2044 6.0292C16.1499 5.70234 16.3707 5.3932 16.6976 5.33872C17.0244 5.28425 17.3336 5.50506 17.388 5.83192C17.4422 6.15707 17.4744 6.66415 17.3959 7.16748C17.3209 7.6488 17.1208 8.27383 16.5775 8.63603C16.236 8.8637 15.8439 8.9275 15.4983 8.92202C15.1497 8.91648 14.8031 8.8403 14.5036 8.74049C14.4571 8.72498 14.4111 8.70869 14.3657 8.69172C14.0323 9.07792 13.4008 9.60391 12.5284 9.82201C11.9216 9.9737 10.7824 10.1141 9.60868 10.1836C8.4354 10.2531 7.14748 10.2569 6.25062 10.1075C5.80788 10.0338 5.47049 9.7671 5.22534 9.46887C4.98066 9.17123 4.79348 8.80233 4.64877 8.42924C4.35885 7.68175 4.19559 6.80167 4.12523 6.11682C4.09905 5.86203 3.88981 5.70322 3.73962 5.70322C3.71708 5.70322 3.69682 5.70606 3.68035 5.71033C3.67428 5.71191 3.66915 5.71356 3.66492 5.71513C3.59272 5.99149 3.58124 6.36909 3.62773 6.81851C3.67507 7.27621 3.77755 7.76447 3.89687 8.21912C4.01571 8.67199 4.14827 9.08033 4.25135 9.37584C4.30277 9.52324 4.34655 9.6417 4.37718 9.72257C4.39248 9.76298 4.40448 9.79395 4.41249 9.81439L4.41817 9.8288L4.92866 10.9152C5.01801 11.1054 5.0014 11.3284 4.88486 11.5032C4.44819 12.1582 4.44275 12.7401 4.56031 13.3279C4.60759 13.5643 4.67082 13.7846 4.73883 14.0216C4.76169 14.1012 4.78509 14.1828 4.80861 14.2675C4.89552 14.5803 4.98563 14.9424 4.98563 15.3071C4.98563 15.9472 4.82623 16.5695 4.68959 17.0819C4.68318 17.1059 4.67685 17.1296 4.67061 17.153C4.53278 17.6693 4.43407 18.039 4.43407 18.3407C4.43407 18.4687 4.51687 18.6807 4.72194 18.9452C4.85842 19.1213 5.01676 19.279 5.15001 19.3954H6.21249C6.218 19.3933 6.22352 19.3911 6.22903 19.389C5.45651 19.0332 5.03032 18.4241 5.04344 17.7261C5.05627 17.0438 5.49399 16.4427 6.08066 16.1493C6.29472 16.0423 6.48479 15.6814 6.33134 15.2211C6.22655 14.9067 6.39644 14.5669 6.71081 14.4621C7.02518 14.3573 7.36497 14.5272 7.46976 14.8416C7.75756 15.705 7.50638 16.7781 6.61732 17.2227C6.37665 17.343 6.24661 17.5692 6.24323 17.7487C6.24093 17.8713 6.29744 18.128 6.8152 18.3352C7.12074 18.4574 7.42661 18.6293 7.60028 18.9058C7.69726 19.0602 7.74906 19.2422 7.73318 19.4358C7.71797 19.6211 7.64454 19.7724 7.56674 19.8838C7.42061 20.0931 7.20649 20.2375 7.0412 20.3305C6.86298 20.4307 6.67132 20.5094 6.50577 20.5646C6.4446 20.585 6.38055 20.5954 6.31608 20.5954H4.93718C4.80736 20.5954 4.68104 20.5533 4.57718 20.4754C4.35725 20.3104 4.04108 20.0255 3.77353 19.6804C3.51897 19.352 3.23407 18.8745 3.23407 18.3407C3.23407 17.8728 3.37432 17.3518 3.49627 16.8988C3.50775 16.8561 3.51908 16.8141 3.53011 16.7727C3.66924 16.2509 3.78563 15.7701 3.78563 15.3071C3.78563 15.1202 3.73785 14.8963 3.65239 14.5886C3.63467 14.5249 3.61513 14.4568 3.59462 14.3855C3.52381 14.1391 3.44154 13.8529 3.38361 13.5632C3.2412 12.8512 3.22256 12.0227 3.70619 11.1353L3.32424 10.3224C3.31947 10.3123 3.31499 10.302 3.31079 10.2916L3.86728 10.0673C3.31079 10.2916 3.31084 10.2917 3.31079 10.2916L3.30938 10.2881L3.30624 10.2802L3.29507 10.2519C3.28554 10.2275 3.27194 10.1924 3.25497 10.1476C3.22105 10.058 3.1736 9.92959 3.11831 9.77107C3.00796 9.45473 2.86514 9.01515 2.73617 8.52372C2.60767 8.03406 2.48991 7.48163 2.43409 6.94197C2.37919 6.41112 2.37891 5.84621 2.5197 5.354C2.69822 4.72983 3.29583 4.50322 3.73962 4.50322C4.60812 4.50322 5.24101 5.23562 5.31895 5.99417C5.38273 6.61493 5.52932 7.38104 5.76757 7.9953C5.88695 8.30309 6.01843 8.54395 6.15233 8.70684C6.28574 8.86913 6.38683 8.9137 6.4478 8.92386C7.20648 9.05024 8.38383 9.05407 9.5377 8.9857C10.6911 8.91736 11.741 8.78193 12.2373 8.65784C12.7265 8.53554 13.1036 8.26037 13.3295 8.04272C13.3068 8.01368 13.2842 7.98135 13.2634 7.94578C13.2212 7.87356 13.1626 7.74783 13.1626 7.58524C13.1626 7.44544 13.211 7.12914 13.2831 6.78548C13.3603 6.41767 13.4792 5.95001 13.6462 5.48602C13.8107 5.0291 14.0348 4.53904 14.3368 4.15223C14.6356 3.7696 15.0836 3.4001 15.6931 3.4001C15.7095 3.4001 15.7259 3.40009 15.7424 3.40009C16.393 3.39999 17.0809 3.39988 17.6747 3.55825C18.3314 3.73336 18.8992 4.10666 19.2633 4.83489C19.4008 5.10983 19.6196 5.20125 19.9792 5.22891C20.1086 5.23886 20.2124 5.23864 20.3283 5.23839C20.3994 5.23824 20.4751 5.23808 20.564 5.24025C20.6608 5.24261 20.7833 5.24877 20.9029 5.27349C21.0158 5.2968 21.202 5.3511 21.3572 5.5063C21.5 5.64914 21.5691 5.83772 21.6042 5.94981C21.6475 6.08867 21.679 6.24846 21.6974 6.41689C21.7342 6.75306 21.7241 7.17004 21.6184 7.59287C21.5123 8.01736 21.3038 8.46934 20.9273 8.84012C20.5448 9.21665 20.0228 9.47574 19.3526 9.55951C18.826 9.62534 18.561 9.71676 18.4399 9.78622C18.4295 9.79219 18.4212 9.79731 18.4145 9.80159C18.4164 9.81133 18.4191 9.82337 18.423 9.83795C18.4372 9.89102 18.4617 9.95764 18.4997 10.0465C18.5162 10.0848 18.5378 10.1325 18.5622 10.1863C18.6299 10.3353 18.7188 10.5311 18.7767 10.7049C19.0611 11.558 19.4194 13.5117 18.1245 15.1303C17.6049 15.7798 17.1447 16.5585 16.8846 17.1902C16.7568 17.5006 16.6925 17.7394 16.6767 17.8925C16.9618 18.0583 17.251 18.2898 17.4568 18.578C17.7111 18.934 17.8776 19.4499 17.6086 19.9879C17.4335 20.3382 17.0748 20.4763 16.8613 20.5381C16.6117 20.6104 16.3249 20.643 16.0543 20.6567C15.5075 20.6842 14.9053 20.6394 14.5155 20.5907C14.2326 20.5554 14.0136 20.3257 13.9917 20.0414C13.9669 19.719 13.9644 19.4194 13.9631 19.1563L13.9629 19.114C13.9618 18.8621 13.9608 18.6544 13.9459 18.463C13.917 18.0908 13.8408 17.8677 13.6681 17.6841C13.4405 17.5009 13.141 17.1916 12.9175 16.7937C12.6798 16.3707 12.5023 15.7978 12.6614 15.1616C12.7418 14.8401 13.0675 14.6446 13.389 14.725C13.7105 14.8054 13.9059 15.1311 13.8256 15.4526C13.764 15.6989 13.8217 15.9533 13.9637 16.206C14.1078 16.4625 14.312 16.6657 14.4377 16.7628C14.4579 16.7784 14.477 16.7953 14.4951 16.8133C14.9689 17.2872 15.1013 17.8428 15.1423 18.37C15.1607 18.607 15.1618 18.8569 15.1629 19.0952C15.163 19.1137 15.163 19.1321 15.1631 19.1505C15.1636 19.2492 15.1643 19.3477 15.1661 19.4468C15.4325 19.4641 15.7258 19.4717 15.9938 19.4582C16.2241 19.4466 16.4061 19.4206 16.5277 19.3854C16.5316 19.3843 16.5353 19.3832 16.5389 19.3821C16.5309 19.3567 16.5138 19.3223 16.4803 19.2755C16.3811 19.1365 16.1935 18.9859 15.9763 18.8773C15.4775 18.6279 15.4562 18.0842 15.4794 17.8078C15.5072 17.4775 15.6234 17.1015 15.775 16.7333C16.0826 15.9862 16.6039 15.1101 17.1874 14.3807C18.0987 13.2416 17.8772 11.801 17.6383 11.0843C17.6007 10.9714 17.5567 10.8751 17.5018 10.7549C17.4706 10.6865 17.4358 10.6103 17.3967 10.519C17.3114 10.3198 17.1884 10.0094 17.2138 9.67677C17.2447 9.27293 17.4764 8.95554 17.8428 8.74534C18.1724 8.55625 18.6273 8.44084 19.2038 8.36878C19.6367 8.31466 19.9076 8.16008 20.0853 7.98504C20.2689 7.80427 20.388 7.5668 20.4542 7.30183C20.5209 7.03521 20.5281 6.76274 20.5045 6.54735C20.5002 6.50771 20.495 6.47158 20.4893 6.43923C20.4629 6.43903 20.4323 6.439 20.3986 6.43896C20.2567 6.43881 20.0592 6.4386 19.8872 6.42537C19.3505 6.38409 18.6041 6.19972 18.19 5.37154C18.0026 4.99665 17.743 4.81839 17.3655 4.71773ZM20.6601 6.44866C20.6639 6.44944 20.663 6.44954 20.6585 6.44834L20.6601 6.44866ZM16.5395 19.4431C16.5381 19.4458 16.5367 19.4485 16.5353 19.4513C16.5357 19.4505 16.5361 19.4497 16.5366 19.4488C16.5375 19.4472 16.5385 19.4453 16.5395 19.4431ZM16.6749 17.9979C16.6745 17.9985 16.6733 17.9935 16.6727 17.9812C16.6751 17.9912 16.6754 17.9974 16.6749 17.9979Z" fill="#36393C"/>
<path fill-rule="evenodd" clip-rule="evenodd" d="M6.42855 15.7641C6.63329 15.5035 7.01049 15.4583 7.27104 15.663C7.72981 16.0235 8.57039 16.472 9.54351 16.6014C10.4953 16.728 11.5681 16.5513 12.5751 15.6809C12.8258 15.4642 13.2047 15.4917 13.4214 15.7424C13.6381 15.9931 13.6106 16.372 13.3599 16.5887C12.0555 17.7161 10.6245 17.9557 9.38533 17.7909C8.16753 17.629 7.13018 17.0785 6.5296 16.6066C6.26905 16.4018 6.22381 16.0246 6.42855 15.7641Z" fill="#36393C"/>
</svg>
