<svg width="24" height="24" viewBox="0 0 24 24" fill="none" xmlns="http://www.w3.org/2000/svg">
<path fill-rule="evenodd" clip-rule="evenodd" d="M18.644 8.65249C18.2636 8.55368 17.7864 8.54999 17.1478 8.54999C17.0759 8.54999 16.9552 8.58821 16.7868 8.79835C16.6201 9.00624 16.4674 9.3117 16.3377 9.66267C16.2103 10.0073 16.1166 10.364 16.0549 10.6506C16.0242 10.7932 16.0021 10.9152 15.9879 11.0059C15.9871 11.011 15.9864 11.0159 15.9856 11.0206L16.1564 11.3544C16.2483 11.5339 16.2346 11.7492 16.1207 11.9156C15.8953 12.2449 15.2628 12.8703 14.3167 13.1007C13.7234 13.2452 12.7727 13.2146 11.8569 13.1364C10.9126 13.0557 9.91045 12.9143 9.16211 12.7929C8.60659 12.7027 8.20973 12.6939 7.80841 12.7823C7.39882 12.8726 6.9421 13.0735 6.28465 13.4707C5.67695 13.8379 4.90208 14.4904 4.31001 15.1152C4.09474 15.3424 3.91357 15.5555 3.7773 15.7403C3.94586 15.6763 4.14065 15.5881 4.35338 15.4795C5.06793 15.1151 5.84178 14.5964 6.20064 14.3164C6.36617 14.1872 6.59079 14.1636 6.77959 14.2554C6.96838 14.3473 7.08842 14.5386 7.08898 14.7485C7.08982 15.068 7.14611 15.6093 7.31322 16.145C7.48332 16.6903 7.74354 17.1514 8.09684 17.4094C8.23866 17.5129 8.32251 17.678 8.32251 17.8536C8.32251 18.2096 8.20906 18.5358 8.0739 18.8124C7.93884 19.0887 7.76385 19.3508 7.60964 19.5762C7.58595 19.6108 7.56287 19.6443 7.54042 19.677C7.408 19.8698 7.29725 20.0309 7.21161 20.1839C7.10834 20.3683 7.08898 20.4618 7.08898 20.4972C7.08898 20.5949 7.15618 20.7717 7.33941 21.0019C7.4596 21.153 7.59918 21.2887 7.71711 21.3892H9.07547C8.78927 21.2413 8.55361 21.0377 8.40596 20.7714C8.21473 20.4264 8.21117 20.0473 8.33592 19.7071C8.57179 19.0637 9.24822 18.5587 10.0702 18.2918C10.6901 18.0905 10.8533 17.826 10.9031 17.7048C10.9327 17.6328 10.939 17.5708 10.939 17.5306C10.939 17.5112 10.9375 17.4979 10.9368 17.4927C10.9011 17.3331 10.9384 17.1655 11.039 17.0358C11.1432 16.9015 11.3036 16.8229 11.4736 16.8229H11.4769C11.7279 16.8229 12.3751 16.8229 13.0605 16.9183C13.4048 16.9662 13.7734 17.0401 14.1146 17.1566C14.45 17.2712 14.7976 17.4399 15.0645 17.6999C15.3034 17.9326 15.4683 18.276 15.5887 18.5999C15.7153 18.9404 15.819 19.3336 15.9032 19.7272C16.0288 20.3143 16.1172 20.9312 16.1717 21.4303C16.4697 21.4479 16.8343 21.4569 17.176 21.4437C17.4486 21.4332 17.6826 21.4094 17.8481 21.3728C17.8553 21.3713 17.8622 21.3697 17.8688 21.3681C17.8624 21.3577 17.8547 21.346 17.8453 21.3332C17.7596 21.2162 17.5945 21.0862 17.4004 20.9917C17.0848 20.838 16.9105 20.5225 16.8165 20.266C16.7133 19.9845 16.6595 19.6483 16.6595 19.2956C16.6595 18.5902 16.8754 17.7393 17.4629 17.0239C17.849 16.5537 17.9547 16.0331 17.9547 15.5104C17.9547 15.2451 17.9275 14.9874 17.897 14.7351C17.8934 14.705 17.8896 14.6743 17.8857 14.6431C17.8598 14.4326 17.8314 14.2023 17.8314 14.0083C17.8314 13.9943 17.8313 13.9798 17.8313 13.965C17.8305 13.6321 17.8292 13.093 18.203 12.6378C18.5893 12.1674 19.2659 11.9045 20.2885 11.78C20.6765 11.7328 20.917 11.598 21.0729 11.4484C21.2336 11.2943 21.3373 11.0926 21.3951 10.8674C21.4533 10.6403 21.4596 10.4078 21.439 10.2243C21.4362 10.1986 21.4328 10.1747 21.4292 10.1527C21.4078 10.1525 21.3836 10.1525 21.3572 10.1525C21.2303 10.1524 21.0537 10.1522 20.8999 10.1406C20.4236 10.105 19.7488 9.94602 19.3723 9.21246C19.2093 8.89487 18.9825 8.74044 18.644 8.65249ZM21.5913 10.1609C21.595 10.1617 21.5941 10.1618 21.5896 10.1606L21.5913 10.1609ZM21.3914 9.99964C21.3891 9.99516 21.388 9.9926 21.3881 9.99245C21.3882 9.9923 21.3894 9.99454 21.3914 9.99964ZM17.998 21.3263C17.998 21.3264 17.9965 21.3273 17.9932 21.329C17.9962 21.3271 17.9979 21.3263 17.998 21.3263ZM11.9856 17.931C11.969 17.9926 11.9477 18.0568 11.9207 18.1226C11.7237 18.6022 11.2702 19.0587 10.4099 19.338C9.75161 19.5518 9.44121 19.8879 9.3687 20.0857C9.33925 20.166 9.35111 20.2075 9.36804 20.2381C9.39145 20.2803 9.46979 20.3759 9.6996 20.4654C9.97156 20.5714 10.2497 20.7222 10.4093 20.9698C10.4992 21.1093 10.5486 21.2761 10.5336 21.455C10.5192 21.6256 10.4499 21.7634 10.3785 21.8631C10.2447 22.0498 10.0502 22.177 9.90259 22.2579C9.74259 22.3455 9.57078 22.4142 9.42257 22.4623C9.36772 22.4802 9.31042 22.4892 9.25275 22.4892H7.52581C7.40916 22.4892 7.29553 22.4521 7.20134 22.3833C7.00382 22.239 6.71958 21.9896 6.47867 21.6869C6.25072 21.4004 5.98898 20.9764 5.98898 20.4972C5.98898 20.1722 6.12381 19.8751 6.25183 19.6465C6.36439 19.4454 6.50846 19.2361 6.63874 19.0468C6.66022 19.0156 6.68133 18.9849 6.70186 18.9549C6.85602 18.7296 6.98942 18.5261 7.08565 18.3293C7.13107 18.2364 7.16412 18.1529 7.18635 18.0775C6.7174 17.6262 6.43404 17.0205 6.26312 16.4725C6.18556 16.2239 6.12747 15.9753 6.08521 15.7399C5.70889 15.9846 5.2736 16.245 4.85321 16.4594C4.46735 16.6562 4.05719 16.8336 3.70048 16.9122C3.52484 16.9509 3.31622 16.9763 3.11195 16.9378C2.88851 16.8956 2.64387 16.7679 2.5079 16.496C2.38252 16.2453 2.43027 15.991 2.47678 15.8388C2.52797 15.6713 2.61534 15.5048 2.71116 15.3517C2.90487 15.0422 3.19135 14.6965 3.51159 14.3585C4.15191 13.6829 5.00225 12.9604 5.71576 12.5293C6.41614 12.106 6.99201 11.8358 7.57176 11.7081C8.15978 11.5786 8.709 11.605 9.3383 11.7071C10.071 11.826 11.0436 11.9629 11.9505 12.0404C12.8859 12.1203 13.6629 12.1278 14.0564 12.0319C14.477 11.9295 14.8035 11.7043 15.0057 11.5204L14.9312 11.3748C14.8916 11.2973 14.8709 11.2114 14.8709 11.1243C14.8709 11.0455 14.8858 10.9338 14.9011 10.8362C14.9187 10.7232 14.9448 10.5805 14.9796 10.4189C15.0489 10.0971 15.1557 9.68776 15.3059 9.28137C15.4537 8.88131 15.6556 8.45075 15.9284 8.11038C16.1994 7.77227 16.603 7.44999 17.1478 7.44999L17.192 7.44999C17.774 7.4499 18.3892 7.4498 18.9206 7.58782C19.5071 7.74021 20.0205 8.06643 20.3509 8.71017C20.4678 8.93794 20.6565 9.01933 20.9821 9.04372C21.0979 9.0524 21.1908 9.05221 21.2945 9.05199C21.3581 9.05186 21.4257 9.05172 21.5053 9.05361C21.5918 9.05566 21.7013 9.06103 21.8084 9.08257C21.9084 9.1027 22.0771 9.15002 22.2191 9.28835C22.3513 9.41718 22.4152 9.58735 22.4472 9.68705C22.4869 9.81086 22.5155 9.95271 22.5322 10.1016C22.5655 10.3988 22.5564 10.7672 22.4605 11.1409C22.3641 11.5165 22.1749 11.9156 21.8344 12.2422C21.4892 12.5733 21.0204 12.799 20.4215 12.8719C19.4705 12.9877 19.1602 13.2055 19.0531 13.3359C18.9502 13.4613 18.9314 13.6152 18.9314 14.0083C18.9314 14.1295 18.9501 14.2835 18.9775 14.5076C18.9812 14.5382 18.9851 14.57 18.9891 14.6032C19.0203 14.8617 19.0547 15.1748 19.0547 15.5104C19.0547 16.1892 18.9137 16.9905 18.313 17.722C17.9137 18.2082 17.7595 18.7993 17.7595 19.2956C17.7595 19.5437 17.7982 19.7482 17.8492 19.8873C17.8787 19.9675 17.9036 20.0049 17.9134 20.0183C18.2041 20.1647 18.5175 20.3896 18.7324 20.6827C18.9636 20.998 19.1202 21.4639 18.8707 21.95C18.7675 22.1511 18.5936 22.2596 18.4777 22.3165C18.352 22.3783 18.2136 22.4187 18.085 22.447C17.8261 22.5041 17.5173 22.5314 17.2184 22.5429C16.6173 22.5661 15.9588 22.5287 15.6011 22.4852C15.3414 22.4536 15.1399 22.2433 15.1193 21.9825C15.0796 21.4796 14.9837 20.6873 14.8275 19.9574C14.7494 19.592 14.6588 19.2552 14.5577 18.9833C14.4504 18.6949 14.3542 18.5436 14.297 18.4879C14.1938 18.3874 14.0172 18.2858 13.759 18.1976C13.5065 18.1113 13.2121 18.05 12.9088 18.0078C12.5769 17.9616 12.252 17.9406 11.9856 17.931ZM3.52473 16.1766C3.52456 16.1767 3.52489 16.1743 3.52624 16.1691C3.52557 16.1739 3.5249 16.1765 3.52473 16.1766Z" fill="#36393C"/>
<path fill-rule="evenodd" clip-rule="evenodd" d="M8.42436 7.12358C8.19005 6.88927 7.81015 6.88927 7.57583 7.12358L6.48799 8.21143L5.40014 7.12358C5.16583 6.88927 4.78593 6.88927 4.55162 7.12358C4.3173 7.3579 4.3173 7.73779 4.55162 7.97211L6.06372 9.48422C6.29804 9.71853 6.67794 9.71853 6.91225 9.48422L8.42436 7.97211C8.65868 7.73779 8.65868 7.3579 8.42436 7.12358Z" fill="#36393C"/>
<path fill-rule="evenodd" clip-rule="evenodd" d="M6.5 10.3C4.40132 10.3 2.7 8.59868 2.7 6.5C2.7 4.40132 4.40132 2.7 6.5 2.7C8.59868 2.7 10.3 4.40132 10.3 6.5C10.3 8.59868 8.59868 10.3 6.5 10.3ZM6.5 11.5C3.73858 11.5 1.5 9.26142 1.5 6.5C1.5 3.73858 3.73858 1.5 6.5 1.5C9.26142 1.5 11.5 3.73858 11.5 6.5C11.5 9.26142 9.26142 11.5 6.5 11.5Z" fill="#36393C"/>
<path fill-rule="evenodd" clip-rule="evenodd" d="M6.5001 3.92343C6.16873 3.92343 5.9001 4.19206 5.9001 4.52343V9.05976C5.9001 9.39113 6.16873 9.65976 6.5001 9.65976C6.83147 9.65976 7.1001 9.39113 7.1001 9.05976V4.52343C7.1001 4.19206 6.83147 3.92343 6.5001 3.92343Z" fill="#36393C"/>
<path fill-rule="evenodd" clip-rule="evenodd" d="M17.8745 9.45706C18.1744 9.40855 18.4568 9.61231 18.5053 9.91217C18.5497 10.1868 18.5761 10.6143 18.5117 11.0393C18.4508 11.442 18.287 11.9817 17.8261 12.2982C17.5336 12.4991 17.1988 12.5545 16.9076 12.5497C16.6144 12.5449 16.3251 12.4791 16.077 12.3939C15.8286 12.3086 15.597 12.1954 15.4174 12.0768C15.3293 12.0186 15.2372 11.9483 15.1602 11.8672C15.1217 11.8266 15.0759 11.7717 15.0371 11.7033C15.0005 11.6388 14.9502 11.5274 14.9502 11.3836C14.9502 11.0799 15.1964 10.8336 15.5002 10.8336C15.7152 10.8336 15.9015 10.9571 15.9919 11.1369C16.0006 11.1433 16.0111 11.1506 16.0236 11.1589C16.1168 11.2205 16.263 11.2947 16.4343 11.3535C16.6059 11.4124 16.7782 11.4475 16.9256 11.4499C17.0752 11.4523 17.16 11.4212 17.2033 11.3915C17.2796 11.3391 17.3769 11.1869 17.4241 10.8747C17.468 10.5848 17.4496 10.2744 17.4194 10.0878C17.3709 9.78798 17.5747 9.50557 17.8745 9.45706Z" fill="#36393C"/>
</svg>
