<svg width="36" height="36" viewBox="0 0 36 36" fill="none" xmlns="http://www.w3.org/2000/svg">
<circle cx="18" cy="18" r="18" fill="#D9F4E5"/>
<path fill-rule="evenodd" clip-rule="evenodd" d="M24.5088 14.5177C24.0904 14.409 23.5654 14.405 22.863 14.405C22.7839 14.405 22.6511 14.447 22.4658 14.6782C22.2825 14.9069 22.1145 15.2429 21.9718 15.6289C21.8317 16.008 21.7287 16.4004 21.6608 16.7156C21.627 16.8725 21.6027 17.0067 21.5871 17.1065C21.5862 17.1121 21.5854 17.1175 21.5846 17.1227L21.7725 17.4899C21.8735 17.6873 21.8584 17.9241 21.7332 18.1071C21.4853 18.4694 20.7894 19.1573 19.7488 19.4107C19.0962 19.5697 18.0504 19.5361 17.043 19.45C16.0042 19.3613 14.9019 19.2058 14.0787 19.0722C13.4676 18.973 13.0311 18.9633 12.5896 19.0606C12.1391 19.1598 11.6367 19.3808 10.9135 19.8178C10.245 20.2217 9.39268 20.9395 8.7414 21.6267C8.5046 21.8766 8.30531 22.111 8.15542 22.3143C8.34084 22.2439 8.5551 22.1469 8.78911 22.0275C9.57511 21.6266 10.4264 21.056 10.8211 20.748C11.0032 20.6059 11.2503 20.5799 11.4579 20.681C11.6656 20.782 11.7977 20.9924 11.7983 21.2234C11.7992 21.5748 11.8611 22.1702 12.0449 22.7595C12.232 23.3594 12.5183 23.8666 12.9069 24.1503C13.0629 24.2642 13.1552 24.4458 13.1552 24.6389C13.1552 25.0306 13.0304 25.3894 12.8817 25.6936C12.7331 25.9975 12.5406 26.2859 12.371 26.5338C12.3449 26.5718 12.3196 26.6088 12.2949 26.6447C12.1492 26.8567 12.0274 27.034 11.9332 27.2023C11.8196 27.4052 11.7983 27.5079 11.7983 27.547C11.7983 27.6544 11.8722 27.8488 12.0737 28.1021C12.2059 28.2683 12.3595 28.4176 12.4892 28.5281H13.9834C13.6686 28.3654 13.4094 28.1415 13.2469 27.8485C13.0366 27.4691 13.0327 27.0521 13.1699 26.6778C13.4294 25.9701 14.1734 25.4146 15.0776 25.121C15.7596 24.8995 15.9391 24.6086 15.9938 24.4752C16.0263 24.3961 16.0333 24.3279 16.0333 24.2837C16.0333 24.2623 16.0316 24.2476 16.0308 24.242C15.9916 24.0664 16.0326 23.882 16.1433 23.7394C16.2579 23.5917 16.4344 23.5052 16.6213 23.5052H16.625C16.9011 23.5052 17.613 23.5052 18.3669 23.6101C18.7457 23.6628 19.1511 23.7441 19.5264 23.8723C19.8954 23.9983 20.2778 24.1839 20.5714 24.4699C20.8341 24.7259 21.0155 25.1036 21.148 25.4599C21.2872 25.8344 21.4013 26.2669 21.4939 26.7C21.6321 27.3457 21.7293 28.0243 21.7892 28.5734C22.1171 28.5927 22.5182 28.6026 22.894 28.5881C23.1939 28.5765 23.4512 28.5503 23.6333 28.5101C23.6412 28.5084 23.6488 28.5067 23.656 28.5049C23.6491 28.4934 23.6406 28.4806 23.6302 28.4665C23.5359 28.3378 23.3543 28.1948 23.1408 28.0909C22.7937 27.9218 22.602 27.5747 22.4985 27.2926C22.385 26.9829 22.3258 26.6131 22.3258 26.2251C22.3258 25.4492 22.5633 24.5132 23.2096 23.7263C23.6343 23.2091 23.7506 22.6364 23.7506 22.0614C23.7506 21.7696 23.7206 21.4862 23.6871 21.2086C23.6831 21.1755 23.6789 21.1417 23.6747 21.1074C23.6461 20.8759 23.6149 20.6225 23.6149 20.4091C23.6149 20.3937 23.6149 20.3778 23.6148 20.3615C23.6139 19.9953 23.6125 19.4023 24.0237 18.9016C24.4487 18.3842 25.1929 18.095 26.3178 17.958C26.7445 17.906 27.0091 17.7578 27.1806 17.5932C27.3573 17.4237 27.4714 17.2018 27.5349 16.9542C27.5991 16.7043 27.606 16.4486 27.5833 16.2468C27.5802 16.2185 27.5765 16.1921 27.5726 16.1679C27.549 16.1678 27.5223 16.1678 27.4933 16.1677C27.3537 16.1676 27.1594 16.1674 26.9902 16.1547C26.4663 16.1155 25.7241 15.9406 25.3099 15.1337C25.1306 14.7844 24.8812 14.6145 24.5088 14.5177ZM27.7509 16.177C27.7549 16.1779 27.754 16.178 27.749 16.1767L27.7509 16.177ZM27.531 15.9996C27.5284 15.9947 27.5272 15.9919 27.5273 15.9917C27.5274 15.9915 27.5287 15.994 27.531 15.9996ZM23.7981 28.4589C23.7982 28.459 23.7966 28.46 23.7929 28.4619C23.7962 28.4598 23.7981 28.4589 23.7981 28.4589ZM17.1845 24.7241C17.1663 24.7919 17.1429 24.8624 17.1131 24.9348C16.8965 25.4624 16.3976 25.9645 15.4513 26.2718C14.7272 26.507 14.3857 26.8767 14.306 27.0943C14.2736 27.1826 14.2866 27.2283 14.3052 27.2619C14.331 27.3083 14.4172 27.4135 14.67 27.512C14.9691 27.6285 15.275 27.7944 15.4506 28.0668C15.5495 28.2203 15.6039 28.4038 15.5873 28.6005C15.5715 28.7882 15.4953 28.9398 15.4168 29.0494C15.2695 29.2548 15.0556 29.3947 14.8932 29.4837C14.7172 29.5801 14.5282 29.6557 14.3652 29.7086C14.3049 29.7282 14.2419 29.7381 14.1784 29.7381H12.2788C12.1505 29.7381 12.0255 29.6973 11.9219 29.6216C11.7046 29.4629 11.3919 29.1886 11.1269 28.8556C10.8762 28.5405 10.5883 28.074 10.5883 27.547C10.5883 27.1894 10.7366 26.8626 10.8774 26.6111C11.0012 26.39 11.1597 26.1597 11.303 25.9515C11.3266 25.9171 11.3499 25.8834 11.3724 25.8504C11.542 25.6026 11.6888 25.3787 11.7946 25.1622C11.8446 25.06 11.8809 24.9682 11.9054 24.8853C11.3895 24.3889 11.0778 23.7226 10.8898 23.1198C10.8045 22.8463 10.7406 22.5729 10.6941 22.3139C10.2802 22.583 9.80135 22.8695 9.33892 23.1054C8.91448 23.3219 8.4633 23.517 8.07092 23.6034C7.87771 23.6459 7.64823 23.674 7.42354 23.6316C7.17775 23.5852 6.90865 23.4447 6.75908 23.1456C6.62117 22.8698 6.67369 22.5901 6.72485 22.4227C6.78116 22.2384 6.87727 22.0552 6.98266 21.8869C7.19574 21.5464 7.51088 21.1661 7.86314 20.7944C8.56749 20.0512 9.50286 19.2564 10.2877 18.7822C11.0581 18.3166 11.6916 18.0194 12.3293 17.8789C12.9761 17.7364 13.5803 17.7655 14.2725 17.8778C15.0785 18.0086 16.1483 18.1592 17.146 18.2444C18.1749 18.3323 19.0296 18.3405 19.4625 18.2351C19.9251 18.1224 20.2843 17.8748 20.5067 17.6724L20.4248 17.5123C20.3811 17.427 20.3584 17.3325 20.3584 17.2367C20.3584 17.15 20.3748 17.0271 20.3916 16.9198C20.411 16.7955 20.4396 16.6385 20.4779 16.4608C20.5542 16.1068 20.6717 15.6565 20.8369 15.2095C20.9995 14.7694 21.2216 14.2958 21.5217 13.9214C21.8198 13.5495 22.2636 13.195 22.863 13.195L22.9116 13.195C23.5518 13.1949 24.2286 13.1948 24.813 13.3466C25.4582 13.5142 26.023 13.8731 26.3864 14.5812C26.515 14.8317 26.7226 14.9213 27.0807 14.9481C27.208 14.9576 27.3102 14.9574 27.4243 14.9572C27.4943 14.957 27.5687 14.9569 27.6562 14.959C27.7514 14.9612 27.8719 14.9671 27.9896 14.9908C28.0996 15.013 28.2852 15.065 28.4414 15.2172C28.5868 15.3589 28.6571 15.5461 28.6923 15.6558C28.736 15.7919 28.7674 15.948 28.7858 16.1118C28.8225 16.4387 28.8125 16.8439 28.707 17.2549C28.6009 17.6682 28.3927 18.1072 28.0182 18.4664C27.6385 18.8306 27.1229 19.0789 26.4641 19.1591C25.418 19.2865 25.0766 19.526 24.9588 19.6695C24.8456 19.8074 24.8249 19.9767 24.8249 20.4091C24.8249 20.5424 24.8455 20.7118 24.8756 20.9584C24.8797 20.992 24.884 21.027 24.8884 21.0636C24.9227 21.3478 24.9606 21.6922 24.9606 22.0614C24.9606 22.8082 24.8055 23.6895 24.1447 24.4942C23.7055 25.029 23.5358 25.6793 23.5358 26.2251C23.5358 26.498 23.5785 26.723 23.6346 26.8761C23.6669 26.9643 23.6944 27.0054 23.7051 27.0201C24.0249 27.1812 24.3696 27.4286 24.606 27.751C24.8603 28.0978 25.0326 28.6103 24.7581 29.145C24.6446 29.3663 24.4533 29.4855 24.3258 29.5482C24.1876 29.6161 24.0354 29.6605 23.8939 29.6917C23.6091 29.7545 23.2694 29.7845 22.9406 29.7972C22.2794 29.8227 21.5551 29.7816 21.1616 29.7337C20.8759 29.6989 20.6543 29.4677 20.6316 29.1808C20.5879 28.6276 20.4825 27.7561 20.3107 26.9531C20.2247 26.5512 20.125 26.1808 20.0138 25.8816C19.8958 25.5644 19.79 25.398 19.7271 25.3367C19.6136 25.2262 19.4193 25.1143 19.1353 25.0173C18.8576 24.9225 18.5337 24.855 18.2001 24.8086C17.835 24.7578 17.4775 24.7346 17.1845 24.7241ZM7.87759 22.7942C7.8774 22.7943 7.87777 22.7917 7.87926 22.786C7.87852 22.7913 7.87778 22.7941 7.87759 22.7942Z" fill="#40C97F"/>
<path fill-rule="evenodd" clip-rule="evenodd" d="M13.2676 12.8359C13.0099 12.5782 12.592 12.5782 12.3342 12.8359L11.1376 14.0326L9.94099 12.8359C9.68324 12.5782 9.26535 12.5782 9.00761 12.8359C8.74986 13.0937 8.74986 13.5116 9.00761 13.7693L10.6709 15.4326C10.9287 15.6904 11.3466 15.6904 11.6043 15.4326L13.2676 13.7693C13.5254 13.5116 13.5254 13.0937 13.2676 12.8359Z" fill="#40C97F"/>
<path fill-rule="evenodd" clip-rule="evenodd" d="M11.1504 16.33C8.84184 16.33 6.97039 14.4585 6.97039 12.15C6.97039 9.84144 8.84184 7.96999 11.1504 7.96999C13.4589 7.96999 15.3304 9.84144 15.3304 12.15C15.3304 14.4585 13.4589 16.33 11.1504 16.33ZM11.1504 17.65C8.11282 17.65 5.65039 15.1876 5.65039 12.15C5.65039 9.11243 8.11282 6.64999 11.1504 6.64999C14.188 6.64999 16.6504 9.11243 16.6504 12.15C16.6504 15.1876 14.188 17.65 11.1504 17.65Z" fill="#40C97F"/>
<path fill-rule="evenodd" clip-rule="evenodd" d="M11.1505 9.31577C10.786 9.31577 10.4905 9.61126 10.4905 9.97577V14.9657C10.4905 15.3302 10.786 15.6257 11.1505 15.6257C11.5151 15.6257 11.8105 15.3302 11.8105 14.9657V9.97577C11.8105 9.61126 11.5151 9.31577 11.1505 9.31577Z" fill="#40C97F"/>
<path fill-rule="evenodd" clip-rule="evenodd" d="M23.6621 15.4028C23.9919 15.3494 24.3026 15.5735 24.3559 15.9034C24.4048 16.2054 24.4338 16.6757 24.363 17.1432C24.296 17.5862 24.1158 18.1798 23.6088 18.528C23.2871 18.749 22.9187 18.8099 22.5985 18.8047C22.276 18.7994 21.9577 18.7269 21.6848 18.6332C21.4116 18.5394 21.1568 18.4149 20.9593 18.2845C20.8623 18.2204 20.761 18.1431 20.6763 18.0539C20.634 18.0092 20.5836 17.9489 20.5409 17.8737C20.5006 17.8027 20.4453 17.6801 20.4453 17.522C20.4453 17.1879 20.7162 16.917 21.0503 16.917C21.2869 16.917 21.4917 17.0528 21.5912 17.2506C21.6007 17.2576 21.6123 17.2657 21.6261 17.2748C21.7286 17.3425 21.8894 17.4241 22.0778 17.4888C22.2666 17.5537 22.4561 17.5922 22.6183 17.5948C22.7828 17.5975 22.8761 17.5633 22.9237 17.5306C23.0076 17.473 23.1147 17.3056 23.1666 16.9622C23.2149 16.6433 23.1946 16.3019 23.1614 16.0966C23.1081 15.7668 23.3322 15.4561 23.6621 15.4028Z" fill="#40C97F"/>
</svg>
