<svg width="24" height="24" viewBox="0 0 24 24" fill="none" xmlns="http://www.w3.org/2000/svg">
<g clip-path="url(#clip0_2967_12618)">
<path fill-rule="evenodd" clip-rule="evenodd" d="M4.03627 7.95601C4.22477 7.68348 4.59851 7.61535 4.87105 7.80385L6.73006 9.08964C7.00259 9.27814 7.07072 9.65188 6.88222 9.92441C6.69372 10.1969 6.31998 10.2651 6.04744 10.0766L4.18844 8.79079C3.9159 8.60229 3.84778 8.22855 4.03627 7.95601Z" fill="#36393C"/>
<path fill-rule="evenodd" clip-rule="evenodd" d="M4.03627 16.3536C4.22477 16.6261 4.59851 16.6942 4.87105 16.5057L6.73006 15.2199C7.00259 15.0314 7.07072 14.6577 6.88222 14.3852C6.69372 14.1126 6.31998 14.0445 6.04744 14.233L4.18844 15.5188C3.9159 15.7073 3.84778 16.081 4.03627 16.3536Z" fill="#36393C"/>
<path fill-rule="evenodd" clip-rule="evenodd" d="M3 12.1547C3 11.8233 3.26863 11.5547 3.6 11.5547L6.38851 11.5547C6.71988 11.5547 6.98851 11.8233 6.98851 12.1547C6.98851 12.4861 6.71988 12.7547 6.38851 12.7547L3.6 12.7547C3.26863 12.7547 3 12.4861 3 12.1547Z" fill="#36393C"/>
<path fill-rule="evenodd" clip-rule="evenodd" d="M19.8934 7.95601C19.7049 7.68348 19.3312 7.61535 19.0586 7.80385L17.1996 9.08964C16.9271 9.27814 16.859 9.65188 17.0475 9.92441C17.236 10.1969 17.6097 10.2651 17.8822 10.0766L19.7413 8.79079C20.0138 8.60229 20.0819 8.22855 19.8934 7.95601Z" fill="#36393C"/>
<path fill-rule="evenodd" clip-rule="evenodd" d="M19.8934 16.3536C19.7049 16.6261 19.3312 16.6942 19.0586 16.5057L17.1996 15.2199C16.9271 15.0314 16.859 14.6577 17.0475 14.3852C17.236 14.1126 17.6097 14.0445 17.8822 14.233L19.7413 15.5188C20.0138 15.7073 20.0819 16.081 19.8934 16.3536Z" fill="#36393C"/>
<path fill-rule="evenodd" clip-rule="evenodd" d="M20.9297 12.1547C20.9297 11.8233 20.6611 11.5547 20.3297 11.5547L17.5412 11.5547C17.2098 11.5547 16.9412 11.8233 16.9412 12.1547C16.9412 12.4861 17.2098 12.7547 17.5412 12.7547L20.3297 12.7547C20.6611 12.7547 20.9297 12.4861 20.9297 12.1547Z" fill="#36393C"/>
<path fill-rule="evenodd" clip-rule="evenodd" d="M11.5545 13.1299C11.859 12.9695 12.18 12.8814 12.501 12.8426C13.0708 12.773 13.649 12.8405 14.2009 13.1335L14.2054 13.1359C14.3275 13.202 14.4237 13.2842 14.4763 13.3292L14.4779 13.3305C14.545 13.3878 14.5591 13.3995 14.5718 13.4075C14.611 13.4322 14.6519 13.4634 14.691 13.5026C14.7159 13.5274 14.7369 13.5523 14.7547 13.5761C14.7787 13.5939 14.8031 13.6147 14.8272 13.6387C14.8923 13.7038 14.937 13.7758 14.9667 13.8444C14.9695 13.8484 14.9745 13.8553 14.9823 13.8654L15.005 13.8943L15.0057 13.8952C15.0143 13.906 15.0251 13.9197 15.0361 13.9339C15.0585 13.963 15.0885 14.003 15.1182 14.05C15.7573 15.0594 15.635 16.2505 15.0501 17.1118C14.7726 17.522 14.4034 17.8087 13.9958 18.0011V20.9691C13.9958 21.3005 13.7271 21.5691 13.3958 21.5691C13.0644 21.5691 12.7958 21.3005 12.7958 20.9691V17.7442C12.7958 17.6602 12.8011 17.4735 12.9186 17.2917C13.0408 17.1024 13.2162 17.0194 13.3315 16.9796C13.6475 16.8625 13.8894 16.6861 14.0564 16.4391L14.0572 16.4379C14.4043 15.9269 14.46 15.2535 14.1042 14.6917C14.1042 14.6917 14.1035 14.6907 14.1028 14.6897L14.0997 14.6852C14.0967 14.681 14.0926 14.6754 14.0864 14.6675L14.0639 14.6388L14.0631 14.6378C14.0546 14.627 14.0438 14.6134 14.0328 14.5992C14.0088 14.5682 13.9747 14.523 13.9397 14.4658C13.9018 14.4322 13.867 14.3953 13.8354 14.3555C13.7837 14.3164 13.7402 14.2789 13.7121 14.2547C13.7071 14.2503 13.7025 14.2464 13.6985 14.2429C13.6508 14.2022 13.6366 14.1928 13.6342 14.1913C13.3387 14.0355 13.0174 13.9884 12.6461 14.0338C12.4132 14.0619 12.2109 14.1276 12.0356 14.2363L12.0347 14.2368C12.0314 14.2389 12.0277 14.2412 12.0238 14.2436C11.9895 14.2649 11.936 14.298 11.8863 14.3232C11.8263 14.3537 11.7052 14.4088 11.5459 14.4088C11.3815 14.4088 11.2577 14.3505 11.192 14.3146C11.1412 14.2868 11.088 14.2505 11.0573 14.2296C11.0564 14.229 11.0555 14.2284 11.0547 14.2278C10.7117 14.0112 10.3386 13.9544 9.89729 14.021C9.66289 14.0565 9.47467 14.143 9.31543 14.2863L9.07855 14.5232C9.07483 14.5294 9.0704 14.5367 9.06544 14.5447C9.06047 14.5526 9.0546 14.5617 9.04789 14.5716L9.04584 14.5748C9.0424 14.5801 9.0373 14.5878 9.03093 14.5969C8.70609 15.0582 8.61755 15.5069 8.77574 15.9998C8.92708 16.4719 9.26375 16.7857 9.79534 17.0115C9.85952 17.0374 10.0093 17.1027 10.126 17.254C10.2582 17.4254 10.2764 17.6089 10.2764 17.718V21.0006C10.2764 21.3319 10.0078 21.6006 9.67645 21.6006C9.34507 21.6006 9.07644 21.3319 9.07644 21.0006V17.9998C8.43203 17.6719 7.8882 17.1619 7.63313 16.3665M9.3436 18.1232C9.34795 18.125 9.34554 18.1244 9.33821 18.1211L9.3436 18.1232ZM13.9958 17.7442C13.9958 17.7377 13.9962 17.7395 13.9958 17.7476V17.7442ZM11.5545 13.1299C10.9592 12.8009 10.3314 12.7419 9.71785 12.8345C9.26493 12.9031 8.84766 13.0866 8.49531 13.4101L8.48591 13.4188L8.19218 13.7125C8.12239 13.7823 8.0797 13.8544 8.06476 13.8796L8.05328 13.8993L8.04969 13.9055C8.04697 13.9095 8.04467 13.913 8.04288 13.9158C7.5417 14.6326 7.34385 15.4649 7.63313 16.3665" fill="#36393C"/>
<path fill-rule="evenodd" clip-rule="evenodd" d="M13.522 2.39941C13.8534 2.39941 14.122 2.66804 14.122 2.99941V6.0002C14.7664 6.32804 15.3103 6.83805 15.5653 7.63348C15.8547 8.53517 15.6568 9.36739 15.1556 10.0842C15.1538 10.0869 15.1515 10.0904 15.1488 10.0945L15.1452 10.1007L15.134 10.1198C15.1191 10.145 15.0761 10.2177 15.0063 10.2875L14.7126 10.5812L14.7032 10.5898C14.3508 10.9134 13.9339 11.0968 13.481 11.1655C12.8674 11.2581 12.2392 11.1991 11.644 10.8701C11.3395 11.0304 11.0185 11.1186 10.6975 11.1574C10.1277 11.227 9.54942 11.1594 8.99754 10.8665L8.99309 10.8641C8.87096 10.7979 8.77479 10.7158 8.72215 10.6708L8.72058 10.6694C8.65351 10.6121 8.63938 10.6005 8.62665 10.5925C8.58747 10.5678 8.54664 10.5366 8.50743 10.4974C8.48261 10.4726 8.46156 10.4477 8.44376 10.4239C8.41981 10.406 8.39534 10.3853 8.37127 10.3612C8.30617 10.2961 8.26143 10.2241 8.23181 10.1556C8.22895 10.1516 8.224 10.1447 8.21617 10.1346L8.19348 10.1057L8.19273 10.1048C8.1842 10.094 8.17336 10.0803 8.16238 10.0661C8.13988 10.0369 8.10987 9.99684 8.0801 9.94971C7.44077 8.94023 7.5634 7.74971 8.1483 6.8883C8.42579 6.47807 8.79499 6.19133 9.20272 5.99893L9.20272 3.03084C9.20272 2.69947 9.47135 2.43084 9.80272 2.43084C10.1341 2.43084 10.4027 2.69947 10.4027 3.03084L10.4027 6.25574C10.4027 6.33973 10.3973 6.52646 10.2799 6.70829C10.1576 6.89761 9.9823 6.98057 9.86702 7.02036C9.55096 7.13752 9.30907 7.31391 9.14209 7.5609L9.14132 7.56204C8.79413 8.07306 8.73847 8.74646 9.09429 9.30828C9.09426 9.30824 9.09495 9.30933 9.09563 9.31033L9.09877 9.31482C9.10176 9.31897 9.10591 9.32455 9.11203 9.33247L9.13455 9.36114L9.13532 9.36211C9.14385 9.37289 9.15468 9.38658 9.16568 9.40081C9.18965 9.43183 9.22382 9.477 9.25873 9.5342C9.29662 9.56781 9.33152 9.60469 9.36302 9.64445C9.41481 9.68359 9.45825 9.72105 9.48634 9.74528C9.49141 9.74965 9.49599 9.75359 9.50002 9.75704C9.54769 9.79776 9.56188 9.8072 9.56427 9.8087C9.85975 9.96444 10.1811 10.0116 10.5524 9.96619C10.7852 9.93809 10.9875 9.87241 11.1629 9.7637L11.1637 9.76316C11.1671 9.76109 11.1707 9.75883 11.1746 9.75642C11.209 9.7351 11.2624 9.70197 11.3122 9.67673C11.3722 9.64627 11.4933 9.59114 11.6526 9.59114C11.817 9.59114 11.9407 9.64945 12.0065 9.68542C12.0573 9.71322 12.1105 9.74946 12.1412 9.77037C12.1421 9.77098 12.143 9.77156 12.1438 9.77214C12.4868 9.98873 12.8599 10.0456 13.3012 9.97901C13.5356 9.94349 13.7238 9.85696 13.883 9.71367L14.1199 9.47679C14.1236 9.47054 14.1281 9.46324 14.133 9.45532C14.138 9.44739 14.1439 9.43828 14.1506 9.42837L14.1526 9.42516C14.1561 9.41985 14.1612 9.41214 14.1675 9.4031C14.4924 8.94177 14.5809 8.4931 14.4227 8.00013C14.2714 7.52812 13.9347 7.21425 13.4031 6.9885C13.339 6.96259 13.1892 6.89726 13.0725 6.74598C12.9403 6.57463 12.922 6.3911 12.922 6.28194V2.99941C12.922 2.66804 13.1907 2.39941 13.522 2.39941ZM9.20272 6.25574C9.20272 6.26226 9.20224 6.26052 9.20272 6.25238V6.25574ZM13.8549 5.87677C13.8505 5.87503 13.8529 5.87558 13.8603 5.87892L13.8549 5.87677Z" fill="#36393C"/>
</g>
<defs>
<clipPath id="clip0_2967_12618">
<rect width="24" height="24" fill="white"/>
</clipPath>
</defs>
</svg>
