<svg width="36" height="36" viewBox="0 0 36 36" fill="none" xmlns="http://www.w3.org/2000/svg">
<circle cx="18" cy="18" r="18" fill="#D9F4E5"/>
<g clip-path="url(#clip0_3168_4778)">
<path fill-rule="evenodd" clip-rule="evenodd" d="M8.04534 12.945C8.28097 12.6043 8.74814 12.5192 9.08881 12.7548L11.4126 14.362C11.7532 14.5977 11.8384 15.0648 11.6028 15.4055C11.3672 15.7462 10.9 15.8313 10.5593 15.5957L8.23554 13.9885C7.89488 13.7529 7.80972 13.2857 8.04534 12.945Z" fill="#40C97F"/>
<path fill-rule="evenodd" clip-rule="evenodd" d="M8.04534 23.4419C8.28097 23.7826 8.74814 23.8678 9.08881 23.6321L11.4126 22.0249C11.7532 21.7893 11.8384 21.3221 11.6028 20.9814C11.3672 20.6408 10.9 20.5556 10.5593 20.7912L8.23554 22.3985C7.89488 22.6341 7.80972 23.1013 8.04534 23.4419Z" fill="#40C97F"/>
<path fill-rule="evenodd" clip-rule="evenodd" d="M6.75 18.1934C6.75 17.7791 7.08579 17.4434 7.5 17.4434H10.9856C11.3999 17.4434 11.7356 17.7791 11.7356 18.1934C11.7356 18.6076 11.3999 18.9434 10.9856 18.9434H7.5C7.08579 18.9434 6.75 18.6076 6.75 18.1934Z" fill="#40C97F"/>
<path fill-rule="evenodd" clip-rule="evenodd" d="M27.8668 12.945C27.6311 12.6043 27.164 12.5192 26.8233 12.7548L24.4995 14.362C24.1589 14.5977 24.0737 15.0648 24.3093 15.4055C24.545 15.7462 25.0121 15.8313 25.3528 15.5957L27.6766 13.9885C28.0172 13.7529 28.1024 13.2857 27.8668 12.945Z" fill="#40C97F"/>
<path fill-rule="evenodd" clip-rule="evenodd" d="M27.8668 23.4419C27.6311 23.7826 27.164 23.8678 26.8233 23.6321L24.4995 22.0249C24.1589 21.7893 24.0737 21.3221 24.3093 20.9814C24.545 20.6408 25.0121 20.5556 25.3528 20.7912L27.6766 22.3985C28.0172 22.6341 28.1024 23.1013 27.8668 23.4419Z" fill="#40C97F"/>
<path fill-rule="evenodd" clip-rule="evenodd" d="M29.1621 18.1934C29.1621 17.7791 28.8263 17.4434 28.4121 17.4434H24.9265C24.5123 17.4434 24.1765 17.7791 24.1765 18.1934C24.1765 18.6076 24.5123 18.9434 24.9265 18.9434H28.4121C28.8263 18.9434 29.1621 18.6076 29.1621 18.1934Z" fill="#40C97F"/>
<path fill-rule="evenodd" clip-rule="evenodd" d="M17.4434 19.4123C17.824 19.2119 18.2252 19.1017 18.6265 19.0532C19.3387 18.9663 20.0616 19.0507 20.7514 19.4169L20.757 19.4199C20.9096 19.5025 21.0298 19.6053 21.0957 19.6615L21.0976 19.6632C21.1814 19.7348 21.1991 19.7493 21.215 19.7594C21.264 19.7902 21.3151 19.8292 21.364 19.8782C21.3951 19.9092 21.4214 19.9404 21.4436 19.9701C21.4736 19.9924 21.5042 20.0183 21.5343 20.0484C21.6156 20.1298 21.6715 20.2198 21.7086 20.3054C21.7121 20.3105 21.7183 20.3191 21.7281 20.3317L21.7565 20.3678L21.7574 20.369C21.7681 20.3825 21.7816 20.3996 21.7954 20.4174C21.8234 20.4537 21.8608 20.5037 21.898 20.5624C22.6969 21.8243 22.544 23.3131 21.8129 24.3897C21.466 24.9025 21.0045 25.2608 20.4949 25.5013V29.2114C20.4949 29.6256 20.1591 29.9614 19.7449 29.9614C19.3307 29.9614 18.9949 29.6256 18.9949 29.2114V25.1803C18.9949 25.0753 19.0017 24.8419 19.1485 24.6146C19.3013 24.378 19.5205 24.2743 19.6646 24.2245C20.0596 24.0781 20.362 23.8576 20.5707 23.5488L20.5717 23.5474C21.0057 22.9087 21.0753 22.0669 20.6305 21.3646C20.6305 21.3647 20.6297 21.3633 20.6288 21.3621L20.6249 21.3565C20.6211 21.3513 20.6159 21.3443 20.6083 21.3344L20.5801 21.2986L20.5791 21.2972C20.5685 21.2838 20.555 21.2667 20.5412 21.249C20.5113 21.2102 20.4686 21.1537 20.4249 21.0822C20.3776 21.0402 20.3339 20.9941 20.2946 20.9444C20.2298 20.8955 20.1755 20.8487 20.1404 20.8184C20.1341 20.8129 20.1284 20.808 20.1233 20.8037C20.0637 20.7528 20.046 20.741 20.043 20.7391C19.6736 20.5444 19.272 20.4855 18.8079 20.5422C18.5168 20.5774 18.2639 20.6595 18.0448 20.7954L18.0437 20.796C18.0395 20.7986 18.0349 20.8014 18.03 20.8045C17.9871 20.8311 17.9203 20.8725 17.8581 20.9041C17.7831 20.9421 17.6317 21.0111 17.4326 21.0111C17.2271 21.0111 17.0724 20.9382 16.9902 20.8932C16.9267 20.8585 16.8602 20.8131 16.8218 20.787C16.8207 20.7863 16.8196 20.7855 16.8186 20.7848C16.3899 20.5141 15.9235 20.443 15.3719 20.5262C15.0789 20.5706 14.8436 20.6788 14.6445 20.8579L14.3484 21.154C14.3438 21.1618 14.3382 21.1709 14.332 21.1808C14.3258 21.1907 14.3185 21.2021 14.3101 21.2145L14.3075 21.2185C14.3032 21.2252 14.2969 21.2348 14.2889 21.2461C13.8829 21.8228 13.7722 22.3836 13.9699 22.9998C14.1591 23.5898 14.5799 23.9822 15.2444 24.2644C15.3246 24.2967 15.5118 24.3784 15.6577 24.5675C15.823 24.7817 15.8458 25.0111 15.8458 25.1476V29.2507C15.8458 29.6649 15.51 30.0007 15.0958 30.0007C14.6816 30.0007 14.3458 29.6649 14.3458 29.2507V25.4997C13.5403 25.0899 12.8605 24.4524 12.5417 23.4581M14.6797 25.654C14.6852 25.6562 14.6822 25.6555 14.673 25.6513L14.6797 25.654ZM20.4949 25.1803C20.4949 25.1721 20.4955 25.1743 20.4949 25.1845V25.1803ZM17.4434 19.4123C16.6993 19.0011 15.9145 18.9273 15.1476 19.0431C14.5814 19.1289 14.0598 19.3582 13.6194 19.7627L13.6076 19.7735L13.2405 20.1406C13.1532 20.2279 13.0999 20.318 13.0812 20.3495L13.0668 20.3741L13.0624 20.3818C13.059 20.3869 13.0561 20.3913 13.0538 20.3948C12.4274 21.2907 12.1801 22.3311 12.5417 23.4581" fill="#40C97F"/>
<path fill-rule="evenodd" clip-rule="evenodd" d="M19.9025 5.99927C20.3167 5.99927 20.6525 6.33505 20.6525 6.74927V10.5003C21.4581 10.9101 22.1378 11.5476 22.4567 12.5418C22.8184 13.669 22.571 14.7092 21.9445 15.6052C21.9422 15.6087 21.9394 15.6131 21.936 15.6181L21.9315 15.6259L21.9176 15.6498C21.8989 15.6813 21.8451 15.7721 21.7579 15.8593L21.3907 16.2265L21.379 16.2373C20.9385 16.6418 20.4173 16.8711 19.8512 16.9568C19.0842 17.0726 18.2991 16.9989 17.555 16.5877C17.1744 16.788 16.7731 16.8982 16.3719 16.9467C15.6596 17.0337 14.9368 16.9493 14.2469 16.5831L14.2414 16.5801C14.0887 16.4974 13.9685 16.3947 13.9027 16.3385L13.9007 16.3368C13.8169 16.2652 13.7992 16.2506 13.7833 16.2406C13.7343 16.2098 13.6833 16.1708 13.6343 16.1218C13.6033 16.0907 13.577 16.0596 13.5547 16.0298C13.5248 16.0076 13.4942 15.9816 13.4641 15.9516C13.3827 15.8702 13.3268 15.7802 13.2898 15.6945C13.2862 15.6895 13.28 15.6809 13.2702 15.6682L13.2418 15.6321L13.2409 15.631C13.2302 15.6175 13.2167 15.6003 13.203 15.5826C13.1748 15.5462 13.1373 15.4961 13.1001 15.4371C12.301 14.1753 12.4543 12.6871 13.1854 11.6104C13.5322 11.0976 13.9937 10.7392 14.5034 10.4987L14.5034 6.78856C14.5034 6.37434 14.8392 6.03856 15.2534 6.03856C15.6676 6.03856 16.0034 6.37434 16.0034 6.78856L16.0034 10.8197C16.0034 10.9247 15.9967 11.1581 15.8499 11.3854C15.697 11.622 15.4779 11.7257 15.3338 11.7755C14.9387 11.9219 14.6363 12.1424 14.4276 12.4511L14.4266 12.4525C13.9927 13.0913 13.9231 13.9331 14.3679 14.6354C14.3678 14.6353 14.3687 14.6367 14.3695 14.6379L14.3735 14.6435C14.3772 14.6487 14.3824 14.6557 14.39 14.6656L14.4182 14.7014L14.4192 14.7026C14.4298 14.7161 14.4433 14.7332 14.4571 14.751C14.4871 14.7898 14.5298 14.8463 14.5734 14.9178C14.6208 14.9598 14.6644 15.0059 14.7038 15.0556C14.7685 15.1045 14.8228 15.1513 14.8579 15.1816C14.8643 15.1871 14.87 15.192 14.875 15.1963C14.9346 15.2472 14.9523 15.259 14.9553 15.2609C15.3247 15.4556 15.7264 15.5145 16.1905 15.4577C16.4815 15.4226 16.7344 15.3405 16.9536 15.2046L16.9547 15.204C16.9589 15.2014 16.9634 15.1985 16.9683 15.1955C17.0113 15.1689 17.0781 15.1275 17.1402 15.0959C17.2152 15.0578 17.3666 14.9889 17.5657 14.9889C17.7712 14.9889 17.9259 15.0618 18.0081 15.1068C18.0716 15.1415 18.1381 15.1868 18.1765 15.213C18.1776 15.2137 18.1787 15.2145 18.1798 15.2152C18.6085 15.4859 19.0749 15.557 19.6265 15.4738C19.9195 15.4294 20.1548 15.3212 20.3538 15.1421L20.6499 14.846C20.6546 14.8382 20.6601 14.829 20.6663 14.8192C20.6725 14.8092 20.6798 14.7978 20.6882 14.7855L20.6908 14.7814C20.6951 14.7748 20.7015 14.7652 20.7094 14.7539C21.1155 14.1772 21.2262 13.6164 21.0284 13.0002C20.8392 12.4102 20.4184 12.0178 19.7539 11.7356C19.6737 11.7032 19.4865 11.6216 19.3406 11.4325C19.1754 11.2183 19.1525 10.9889 19.1525 10.8524V6.74927C19.1525 6.33505 19.4883 5.99927 19.9025 5.99927ZM14.5034 10.8197C14.5034 10.8278 14.5028 10.8257 14.5034 10.8155V10.8197ZM20.3186 10.346C20.3132 10.3438 20.3162 10.3445 20.3253 10.3487L20.3186 10.346Z" fill="#40C97F"/>
</g>
<defs>
<clipPath id="clip0_3168_4778">
<rect width="30" height="30" fill="white" transform="translate(3 3)"/>
</clipPath>
</defs>
</svg>
