<svg width="24" height="24" viewBox="0 0 24 24" fill="none" xmlns="http://www.w3.org/2000/svg">
<path fill-rule="evenodd" clip-rule="evenodd" d="M12.8985 9.49793C13.0054 9.27712 13.236 9.14365 13.4807 9.16092C17.2262 9.42524 20.1395 12.5421 20.1395 16.3078V21.1035C20.1395 21.7111 19.6471 22.2035 19.0395 22.2035H17.5635C16.956 22.2035 16.4635 21.7111 16.4635 21.1035V16.8522C16.4635 15.5267 15.389 14.4522 14.0635 14.4522H12.9333C12.6858 14.4522 12.4637 14.3002 12.374 14.0695C12.0003 13.1078 11.8357 12.4222 11.8843 11.8211C11.9323 11.2258 12.1883 10.7817 12.4376 10.3491C12.4458 10.3348 12.454 10.3206 12.4622 10.3064C12.5993 10.0681 12.7456 9.81358 12.8985 9.49793ZM13.7862 10.3982C13.6847 10.5879 13.5892 10.7539 13.5045 10.9011L13.5022 10.905C13.2247 11.3872 13.105 11.6132 13.0804 11.9176C13.0585 12.1887 13.112 12.5724 13.3506 13.2522H14.0635C16.0517 13.2522 17.6635 14.8639 17.6635 16.8522V21.0035H18.9395V16.3078C18.9395 13.3048 16.714 10.7974 13.7862 10.3982Z" fill="#36393C"/>
<path fill-rule="evenodd" clip-rule="evenodd" d="M5.90403 2.74998C7.08741 2.08298 8.40814 1.9001 9.66965 1.90002H9.66968C12.6722 1.90002 15.9438 5.51845 13.9569 9.81464C13.7483 10.2659 13.5426 10.6195 13.3795 10.8999C13.3403 10.9674 13.3035 11.0306 13.2698 11.0899C13.0905 11.405 13.0022 11.6001 12.9695 11.8156C12.9372 12.0289 12.9519 12.3213 13.0982 12.8204C13.2457 13.3236 13.5149 13.9979 13.9577 14.9624C16.2062 19.8611 9.29542 25.1017 4.76324 20.0262C1.08144 15.9031 1.46964 10.5916 3.04512 6.3519C3.71051 4.56132 4.70627 3.42509 5.90403 2.74998ZM6.49325 3.79536C5.57649 4.31208 4.75104 5.20622 4.16997 6.7699C2.66677 10.8151 2.40307 15.5815 5.65832 19.227C9.32495 23.3331 14.5086 19.0392 12.8671 15.463C12.4183 14.4853 12.1193 13.7472 11.9466 13.1579C11.7727 12.5645 11.715 12.0845 11.7831 11.6357C11.8508 11.1891 12.0356 10.8325 12.2268 10.4965C12.2677 10.4245 12.3095 10.3527 12.3519 10.2796C12.513 10.0023 12.685 9.70629 12.8678 9.31095C14.4736 5.83852 11.8277 3.10005 9.66972 3.10002M6.49325 3.79536C7.42439 3.27053 8.51149 3.1001 9.66968 3.10002L6.49325 3.79536Z" fill="#36393C"/>
<path fill-rule="evenodd" clip-rule="evenodd" d="M19.5234 6.32089C19.7728 6.5391 19.7981 6.91815 19.5798 7.16754L18.3327 8.59282C18.2056 8.73814 18.0162 8.81338 17.824 8.79499C17.6318 8.7766 17.4602 8.66683 17.3629 8.50004L16.9237 7.74705L16.2269 8.44382C15.9926 8.67813 15.6127 8.67813 15.3784 8.44382C15.1441 8.2095 15.1441 7.82961 15.3784 7.59529L16.6255 6.34817C16.7571 6.2166 16.9422 6.15352 17.1267 6.17739C17.3113 6.20126 17.4743 6.30939 17.568 6.47011L17.979 7.17471L18.6768 6.37733C18.895 6.12795 19.274 6.10268 19.5234 6.32089Z" fill="#36393C"/>
<path fill-rule="evenodd" clip-rule="evenodd" d="M22.0856 10.3346C22.1653 10.6562 21.9693 10.9816 21.6477 11.0613L19.931 11.4871C19.7292 11.5371 19.5158 11.4791 19.3671 11.3337C19.2185 11.1884 19.1556 10.9764 19.2011 10.7735L19.3495 10.1116L18.634 10.2403C18.3079 10.299 17.996 10.0822 17.9373 9.75603C17.8786 9.42989 18.0955 9.11795 18.4216 9.05928L20.0264 8.7706C20.2243 8.73502 20.4268 8.80086 20.5659 8.94599C20.7049 9.09112 20.7621 9.29625 20.7181 9.49238L20.5844 10.0887L21.3588 9.89663C21.6804 9.81686 22.0058 10.0129 22.0856 10.3346Z" fill="#36393C"/>
<path fill-rule="evenodd" clip-rule="evenodd" d="M9.31957 10.7907C8.95945 9.86218 8.98621 8.79229 9.10679 8.09589L10.2892 8.30062C10.1904 8.87114 10.1843 9.70162 10.4384 10.3568C10.5619 10.6753 10.7374 10.9285 10.9704 11.1028C11.1982 11.2731 11.5219 11.399 12.0013 11.399V12.599C11.2962 12.599 10.7123 12.4082 10.2518 12.0638C9.79655 11.7234 9.50313 11.264 9.31957 10.7907Z" fill="#36393C"/>
<path fill-rule="evenodd" clip-rule="evenodd" d="M9.33042 13.0025C8.95636 13.8464 8.98537 14.8139 9.10939 15.4407L10.2866 15.2077C10.1912 14.7259 10.1873 14.0306 10.4275 13.4888C10.5427 13.2288 10.7085 13.0156 10.9396 12.8644C11.1701 12.7135 11.5051 12.5985 12.0013 12.5985V11.3985C11.3129 11.3985 10.7403 11.5607 10.2826 11.8602C9.82545 12.1593 9.5223 12.5697 9.33042 13.0025Z" fill="#36393C"/>
<path fill-rule="evenodd" clip-rule="evenodd" d="M7.72646 6.17249C8.05784 6.17249 8.32646 6.44111 8.32646 6.77249C8.32646 6.93487 8.41283 7.12763 8.64307 7.30031C8.8735 7.47313 9.21934 7.59777 9.62684 7.59777C10.0343 7.59777 10.3802 7.47313 10.6106 7.30031C10.8409 7.12763 10.9272 6.93487 10.9272 6.77249C10.9272 6.44111 11.1958 6.17249 11.5272 6.17249C11.8586 6.17249 12.1272 6.44111 12.1272 6.77249C12.1272 7.39726 11.7882 7.91715 11.3306 8.26031C10.8732 8.60334 10.2689 8.79777 9.62684 8.79777C8.9848 8.79777 8.38044 8.60334 7.92307 8.26031C7.46552 7.91715 7.12646 7.39726 7.12646 6.77249C7.12646 6.44111 7.39509 6.17249 7.72646 6.17249Z" fill="#36393C"/>
<path fill-rule="evenodd" clip-rule="evenodd" d="M11.5265 17.8246C11.1951 17.8246 10.9265 17.556 10.9265 17.2246C10.9265 16.5064 10.3443 15.9242 9.62609 15.9242C8.90791 15.9242 8.32571 16.5064 8.32571 17.2246C8.32571 17.556 8.05708 17.8246 7.72571 17.8246C7.39434 17.8246 7.12571 17.556 7.12571 17.2246C7.12571 15.8437 8.24517 14.7242 9.62609 14.7242C11.007 14.7242 12.1265 15.8437 12.1265 17.2246C12.1265 17.556 11.8578 17.8246 11.5265 17.8246Z" fill="#36393C"/>
<path fill-rule="evenodd" clip-rule="evenodd" d="M4.75049 13.8984C4.75049 13.567 5.01912 13.2984 5.35049 13.2984C6.06867 13.2984 6.65087 12.7162 6.65087 11.998C6.65087 11.2799 6.06867 10.6977 5.35049 10.6977C5.01912 10.6977 4.75049 10.429 4.75049 10.0977C4.75049 9.76629 5.01912 9.49766 5.35049 9.49766C6.73141 9.49766 7.85087 10.6171 7.85087 11.998C7.85087 13.379 6.73141 14.4984 5.35049 14.4984C5.01912 14.4984 4.75049 14.2298 4.75049 13.8984Z" fill="#36393C"/>
<path fill-rule="evenodd" clip-rule="evenodd" d="M12.0019 12.599H7.25098V11.399H12.0019V12.599Z" fill="#36393C"/>
</svg>
