<svg width="36" height="36" viewBox="0 0 36 36" fill="none" xmlns="http://www.w3.org/2000/svg">
<circle cx="18" cy="18" r="18" fill="#D9F4E5"/>
<path fill-rule="evenodd" clip-rule="evenodd" d="M19.1882 15.4477C19.3059 15.2048 19.5595 15.058 19.8287 15.077C23.9487 15.3677 27.1534 18.7963 27.1534 22.9385V28.2139C27.1534 28.8821 26.6117 29.4239 25.9434 29.4239H24.3197C23.6515 29.4239 23.1097 28.8821 23.1097 28.2139V23.5373C23.1097 22.0793 21.9277 20.8973 20.4697 20.8973H19.2265C18.9543 20.8973 18.7099 20.7302 18.6113 20.4764C18.2002 19.4185 18.0192 18.6643 18.0726 18.0031C18.1255 17.3483 18.407 16.8598 18.6812 16.3839C18.6903 16.3683 18.6993 16.3526 18.7083 16.337C18.8591 16.0749 19.0201 15.7949 19.1882 15.4477ZM20.1647 16.438C20.0531 16.6466 19.948 16.8292 19.8548 16.9911L19.8523 16.9955C19.5471 17.5258 19.4154 17.7745 19.3883 18.1093C19.3642 18.4075 19.4231 18.8295 19.6856 19.5773H20.4697C22.6568 19.5773 24.4297 21.3503 24.4297 23.5373V28.1039H25.8334V22.9385C25.8334 19.6353 23.3853 16.8771 20.1647 16.438Z" fill="#40C97F"/>
<path fill-rule="evenodd" clip-rule="evenodd" d="M11.4948 8.02492C12.7965 7.29121 14.2493 7.09005 15.637 7.08997H15.637C18.9398 7.08997 22.5385 11.0702 20.353 15.796C20.1235 16.2924 19.8973 16.6814 19.7179 16.9899C19.6747 17.064 19.6343 17.1336 19.5971 17.1989C19.4 17.5454 19.3028 17.76 19.2669 17.9971C19.2313 18.2318 19.2474 18.5534 19.4084 19.1024C19.5706 19.6559 19.8668 20.3977 20.3538 21.4586C22.8273 26.8471 15.2254 32.6118 10.24 27.0288C6.18997 22.4933 6.617 16.6507 8.35003 11.987C9.08195 10.0174 10.1773 8.76754 11.4948 8.02492ZM12.143 9.17483C11.1345 9.74323 10.2265 10.7268 9.58736 12.4468C7.93384 16.8965 7.64376 22.1396 11.2245 26.1496C15.2578 30.6664 20.9599 25.9431 19.1542 22.0093C18.6605 20.9338 18.3317 20.1218 18.1417 19.4737C17.9503 18.8209 17.8869 18.2928 17.9618 17.7992C18.0363 17.308 18.2395 16.9157 18.4498 16.5461C18.4949 16.4669 18.5408 16.3879 18.5875 16.3074C18.7647 16.0024 18.9538 15.6769 19.1549 15.242C20.9214 11.4223 18.0109 8.41 15.6371 8.40997M12.143 9.17483C13.1672 8.59752 14.363 8.41005 15.637 8.40997L12.143 9.17483Z" fill="#40C97F"/>
<path fill-rule="evenodd" clip-rule="evenodd" d="M26.4755 11.953C26.7498 12.193 26.7776 12.61 26.5376 12.8843L25.1657 14.4521C25.0259 14.612 24.8176 14.6947 24.6062 14.6745C24.3948 14.6543 24.206 14.5335 24.099 14.35L23.6158 13.5218L22.8493 14.2882C22.5916 14.546 22.1737 14.546 21.916 14.2882C21.6582 14.0305 21.6582 13.6126 21.916 13.3548L23.2878 11.983C23.4325 11.8383 23.6362 11.7689 23.8392 11.7951C24.0422 11.8214 24.2215 11.9403 24.3246 12.1171L24.7767 12.8922L25.5442 12.0151C25.7842 11.7407 26.2012 11.713 26.4755 11.953Z" fill="#40C97F"/>
<path fill-rule="evenodd" clip-rule="evenodd" d="M29.2945 16.3681C29.3823 16.7219 29.1666 17.0798 28.8128 17.1675L26.9245 17.6358C26.7025 17.6909 26.4678 17.6271 26.3043 17.4672C26.1407 17.3073 26.0716 17.0741 26.1216 16.8509L26.2849 16.1228L25.4978 16.2644C25.1391 16.3289 24.796 16.0904 24.7314 15.7317C24.6669 15.3729 24.9054 15.0298 25.2642 14.9653L27.0295 14.6477C27.2471 14.6086 27.4698 14.681 27.6228 14.8406C27.7758 15.0003 27.8387 15.2259 27.7903 15.4417L27.6433 16.0976L28.4951 15.8863C28.8489 15.7986 29.2068 16.0143 29.2945 16.3681Z" fill="#40C97F"/>
<path fill-rule="evenodd" clip-rule="evenodd" d="M15.2518 16.8698C14.8556 15.8484 14.8851 14.6716 15.0177 13.9055L16.3184 14.1307C16.2097 14.7583 16.2029 15.6718 16.4825 16.3925C16.6184 16.7429 16.8114 17.0214 17.0677 17.2131C17.3183 17.4005 17.6743 17.5389 18.2017 17.5389V18.8589C17.4261 18.8589 16.7837 18.649 16.2772 18.2702C15.7765 17.8958 15.4537 17.3904 15.2518 16.8698Z" fill="#40C97F"/>
<path fill-rule="evenodd" clip-rule="evenodd" d="M15.2637 19.3028C14.8522 20.2311 14.8841 21.2953 15.0206 21.9847L16.3155 21.7285C16.2106 21.1985 16.2063 20.4337 16.4705 19.8377C16.5972 19.5517 16.7796 19.3172 17.0338 19.1508C17.2874 18.9849 17.6559 18.8584 18.2017 18.8584V17.5384C17.4445 17.5384 16.8146 17.7168 16.3111 18.0462C15.8082 18.3753 15.4748 18.8266 15.2637 19.3028Z" fill="#40C97F"/>
<path fill-rule="evenodd" clip-rule="evenodd" d="M13.4989 11.7897C13.8634 11.7897 14.1589 12.0852 14.1589 12.4497C14.1589 12.6283 14.2539 12.8403 14.5071 13.0303C14.7606 13.2204 15.141 13.3575 15.5893 13.3575C16.0375 13.3575 16.418 13.2204 16.6714 13.0303C16.9247 12.8403 17.0197 12.6283 17.0197 12.4497C17.0197 12.0852 17.3152 11.7897 17.6797 11.7897C18.0442 11.7897 18.3397 12.0852 18.3397 12.4497C18.3397 13.1369 17.9667 13.7088 17.4634 14.0863C16.9603 14.4636 16.2955 14.6775 15.5893 14.6775C14.883 14.6775 14.2182 14.4636 13.7151 14.0863C13.2118 13.7088 12.8389 13.1369 12.8389 12.4497C12.8389 12.0852 13.1344 11.7897 13.4989 11.7897Z" fill="#40C97F"/>
<path fill-rule="evenodd" clip-rule="evenodd" d="M17.6789 24.6071C17.3144 24.6071 17.0189 24.3116 17.0189 23.9471C17.0189 23.1571 16.3784 22.5166 15.5885 22.5166C14.7985 22.5166 14.158 23.1571 14.158 23.9471C14.158 24.3116 13.8625 24.6071 13.498 24.6071C13.1335 24.6071 12.838 24.3116 12.838 23.9471C12.838 22.428 14.0694 21.1966 15.5885 21.1966C17.1075 21.1966 18.3389 22.428 18.3389 23.9471C18.3389 24.3116 18.0434 24.6071 17.6789 24.6071Z" fill="#40C97F"/>
<path fill-rule="evenodd" clip-rule="evenodd" d="M10.2256 20.2882C10.2256 19.9237 10.5211 19.6282 10.8856 19.6282C11.6756 19.6282 12.316 18.9878 12.316 18.1978C12.316 17.4078 11.6756 16.7674 10.8856 16.7674C10.5211 16.7674 10.2256 16.4719 10.2256 16.1074C10.2256 15.7429 10.5211 15.4474 10.8856 15.4474C12.4046 15.4474 13.636 16.6788 13.636 18.1978C13.636 19.7168 12.4046 20.9482 10.8856 20.9482C10.5211 20.9482 10.2256 20.6528 10.2256 20.2882Z" fill="#40C97F"/>
<path fill-rule="evenodd" clip-rule="evenodd" d="M18.2026 18.8589H12.9766V17.5389H18.2026V18.8589Z" fill="#40C97F"/>
</svg>
