<svg width="36" height="36" viewBox="0 0 36 36" fill="none" xmlns="http://www.w3.org/2000/svg">
<circle cx="18" cy="18" r="18" fill="#D9F4E5"/>
<g clip-path="url(#clip0_3168_4804)">
<path fill-rule="evenodd" clip-rule="evenodd" d="M13.0571 19.6333V23.897C13.0571 25.3344 14.2223 26.4996 15.6597 26.4996C15.9642 26.4996 16.211 26.2528 16.211 25.9483V21.4615C16.211 20.4204 17.0549 19.5765 18.096 19.5765C19.137 19.5765 19.981 20.4204 19.981 21.4615V25.9483C19.981 26.2528 20.2278 26.4996 20.5323 26.4996C21.9696 26.4996 23.1348 25.3344 23.1348 23.897V19.6334C23.1348 18.3379 23.782 17.2815 24.4088 16.5542C25.0537 15.8058 25.4421 14.8348 25.4421 13.7693C25.4421 11.4114 23.5306 9.5 21.1728 9.5C20.7478 9.5 20.3398 9.56164 19.956 9.67549C18.7529 10.0324 17.4392 10.0324 16.2361 9.67549C15.8522 9.56164 15.4443 9.5 15.0193 9.5C12.6614 9.5 10.75 11.4114 10.75 13.7693C10.75 14.8348 11.1384 15.8058 11.7833 16.5542C12.41 17.2815 13.0571 18.3379 13.0571 19.6333ZM18.959 27.2647C19.3353 27.7139 19.9004 27.9996 20.5323 27.9996C22.798 27.9996 24.6348 26.1628 24.6348 23.897V19.6334C24.6348 18.8473 25.0319 18.1289 25.5451 17.5334C26.4157 16.523 26.9421 15.2076 26.9421 13.7693C26.9421 10.583 24.3591 8 21.1728 8C20.6018 8 20.0503 8.08294 19.5294 8.23742C18.6047 8.51173 17.5874 8.51173 16.6626 8.23742C16.1418 8.08294 15.5902 8 15.0193 8C11.833 8 9.25 10.583 9.25 13.7693C9.25 15.2076 9.77634 16.523 10.6469 17.5333C11.1601 18.1289 11.5571 18.8472 11.5571 19.6333V23.897C11.5571 26.1628 13.3939 27.9996 15.6597 27.9996C16.2915 27.9996 16.8567 27.7139 17.2329 27.2647C17.5314 26.9085 17.711 26.4494 17.711 25.9483V21.4615C17.711 21.2488 17.8834 21.0765 18.096 21.0765C18.3086 21.0765 18.481 21.2488 18.481 21.4615V25.9483C18.481 26.4494 18.6606 26.9085 18.959 27.2647Z" fill="#40C97F"/>
<path fill-rule="evenodd" clip-rule="evenodd" d="M14.8402 11.3912C15.0381 11.0273 15.4935 10.8926 15.8574 11.0905C16.4772 11.4274 17.2096 11.6244 17.9992 11.6244C18.7888 11.6244 19.5212 11.4274 20.1409 11.0905C20.5048 10.8926 20.9602 11.0273 21.1581 11.3912C21.3559 11.7551 21.2213 12.2105 20.8574 12.4083C20.0178 12.8648 19.0391 13.1244 17.9992 13.1244C16.9592 13.1244 15.9805 12.8648 15.1409 12.4083C14.777 12.2105 14.6424 11.7551 14.8402 11.3912Z" fill="#40C97F"/>
</g>
<defs>
<clipPath id="clip0_3168_4804">
<rect width="30" height="30" fill="white" transform="translate(3 3)"/>
</clipPath>
</defs>
</svg>
