<svg width="24" height="24" viewBox="0 0 24 24" fill="none" xmlns="http://www.w3.org/2000/svg">
<g clip-path="url(#clip0_2967_12620)">
<path fill-rule="evenodd" clip-rule="evenodd" d="M8.0457 13.3067V16.7176C8.0457 17.8675 8.97788 18.7997 10.1278 18.7997C10.3714 18.7997 10.5688 18.6022 10.5688 18.3587V14.7692C10.5688 13.9363 11.244 13.2612 12.0768 13.2612C12.9096 13.2612 13.5848 13.9363 13.5848 14.7692V18.3587C13.5848 18.6022 13.7822 18.7997 14.0258 18.7997C15.1757 18.7997 16.1079 17.8675 16.1079 16.7176V13.3068C16.1079 12.2703 16.6256 11.4252 17.127 10.8434C17.6429 10.2446 17.9536 9.46783 17.9536 8.61541C17.9536 6.72913 16.4245 5.2 14.5382 5.2C14.1982 5.2 13.8719 5.24932 13.5648 5.34039C12.6023 5.6259 11.5514 5.6259 10.5888 5.34039C10.2818 5.24932 9.95541 5.2 9.61541 5.2C7.72913 5.2 6.2 6.72913 6.2 8.61541C6.2 9.46781 6.51071 10.2446 7.02661 10.8433C7.52796 11.4252 8.0457 12.2703 8.0457 13.3067ZM12.7672 19.4118C13.0683 19.7712 13.5203 19.9997 14.0258 19.9997C15.8384 19.9997 17.3079 18.5303 17.3079 16.7176V13.3068C17.3079 12.6778 17.6255 12.1032 18.0361 11.6267C18.7326 10.8184 19.1536 9.76609 19.1536 8.61541C19.1536 6.06639 17.0873 4 14.5382 4C14.0815 4 13.6402 4.06635 13.2236 4.18994C12.4837 4.40938 11.6699 4.40938 10.9301 4.18994C10.5134 4.06635 10.0722 4 9.61541 4C7.06639 4 5 6.06639 5 8.61541C5 9.76607 5.42107 10.8184 6.11753 11.6267C6.52807 12.1031 6.8457 12.6778 6.8457 13.3067V16.7176C6.8457 18.5303 8.31514 19.9997 10.1278 19.9997C10.6332 19.9997 11.0853 19.7712 11.3864 19.4118C11.6251 19.1268 11.7688 18.7595 11.7688 18.3587V14.7692C11.7688 14.5991 11.9067 14.4612 12.0768 14.4612C12.2469 14.4612 12.3848 14.5991 12.3848 14.7692V18.3587C12.3848 18.7595 12.5285 19.1268 12.7672 19.4118Z" fill="#36393C"/>
<path fill-rule="evenodd" clip-rule="evenodd" d="M9.47239 6.71294C9.63067 6.42182 9.99498 6.31412 10.2861 6.47239C10.7819 6.74196 11.3678 6.89953 11.9995 6.89953C12.6312 6.89953 13.2171 6.74196 13.7129 6.47239C14.0041 6.31412 14.3684 6.42182 14.5267 6.71294C14.6849 7.00407 14.5772 7.36839 14.2861 7.52666C13.6144 7.89183 12.8315 8.09953 11.9995 8.09953C11.1676 8.09953 10.3846 7.89183 9.71294 7.52666C9.42182 7.36839 9.31412 7.00407 9.47239 6.71294Z" fill="#36393C"/>
</g>
<defs>
<clipPath id="clip0_2967_12620">
<rect width="24" height="24" fill="white"/>
</clipPath>
</defs>
</svg>
