<svg width="24" height="24" viewBox="0 0 24 24" fill="none" xmlns="http://www.w3.org/2000/svg">
<path fill-rule="evenodd" clip-rule="evenodd" d="M10.4035 3.64001C10.4035 2.75856 11.1181 2.04401 11.9995 2.04401C12.881 2.04401 13.5955 2.75856 13.5955 3.64001V5.22339C14.3544 5.37585 15.0695 5.64915 15.7198 6.02223L16.7818 4.96029C17.4051 4.33701 18.4156 4.33701 19.0389 4.96029C19.6621 5.58356 19.6621 6.59409 19.0389 7.21737L18.0641 8.19212C18.5174 8.85705 18.8609 9.6032 19.0683 10.4044H20.3593C21.2407 10.4044 21.9553 11.1189 21.9553 12.0004C21.9553 12.8818 21.2407 13.5964 20.3593 13.5964H19.1554C18.9843 14.4487 18.6606 15.2459 18.2145 15.958L19.0391 16.7826C19.6623 17.4059 19.6623 18.4164 19.0391 19.0397C18.4158 19.663 17.4053 19.663 16.782 19.0397L15.9576 18.2153C15.2453 18.6616 14.4481 18.9854 13.5956 19.1567V20.3593C13.5956 21.2408 12.8811 21.9553 11.9996 21.9553C11.1182 21.9553 10.4036 21.2408 10.4036 20.3593V19.0699C9.60223 18.8625 8.85586 18.5189 8.19075 18.0655L7.21596 19.0403C6.59268 19.6636 5.58215 19.6636 4.95888 19.0403C4.3356 18.417 4.3356 17.4065 4.95888 16.7832L6.02085 15.7213C5.64767 15.0708 5.37432 14.3554 5.22189 13.5964H3.63897C2.75752 13.5964 2.04297 12.8818 2.04297 12.0004C2.04297 11.1189 2.75752 10.4044 3.63897 10.4044H5.30901C5.49285 9.69419 5.78366 9.02723 6.16306 8.42175L4.95898 7.21766C4.3357 6.59439 4.3357 5.58385 4.95898 4.96058C5.58225 4.3373 6.59279 4.3373 7.21606 4.96058L8.4201 6.16462C9.02581 5.78503 9.69306 5.49411 10.4035 5.31025V3.64001ZM11.9995 2.95601C11.6218 2.95601 11.3155 3.26224 11.3155 3.64001V5.54001C11.3155 5.56703 11.3171 5.59351 11.3201 5.6194C11.3471 5.85473 11.1894 6.07156 10.9572 6.11838C10.0988 6.29147 9.30449 6.64216 8.61416 7.13087C8.41116 7.27457 8.13046 7.22911 7.9832 7.02868C7.96289 7.00102 7.94008 6.97436 7.91468 6.94896L6.57118 5.60546C6.30406 5.33834 5.87098 5.33834 5.60386 5.60546C5.33674 5.87258 5.33674 6.30566 5.60386 6.57278L6.94736 7.91628C6.97276 7.94169 6.99944 7.9645 7.0271 7.98482C7.22754 8.13207 7.27301 8.41277 7.12932 8.61577C6.6408 9.3059 6.29021 10.0999 6.1171 10.958C6.07027 11.1901 5.85351 11.3478 5.61822 11.3209C5.59238 11.3179 5.56594 11.3164 5.53897 11.3164H3.63897C3.26121 11.3164 2.95497 11.6226 2.95497 12.0004C2.95497 12.3781 3.26121 12.6844 3.63897 12.6844H5.53897C5.55257 12.6844 5.56608 12.684 5.57947 12.6832C5.81607 12.6695 6.02369 12.8394 6.05719 13.074C6.18568 13.9738 6.5076 14.8113 6.97979 15.5432C7.09624 15.7236 7.07094 15.9609 6.91906 16.1128L5.60376 17.4281C5.33664 17.6952 5.33664 18.1283 5.60376 18.3954C5.87088 18.6625 6.30396 18.6625 6.57108 18.3954L7.82063 17.1459C7.98246 16.984 8.23918 16.9672 8.42073 17.1066C9.15273 17.6685 10.0132 18.0703 10.9503 18.2603C11.1629 18.3034 11.3156 18.4903 11.3156 18.7072V20.3593C11.3156 20.7371 11.6219 21.0433 11.9996 21.0433C12.3774 21.0433 12.6836 20.7371 12.6836 20.3593V18.7726C12.6836 18.5457 12.8504 18.3533 13.075 18.3212C14.0618 18.1799 14.9736 17.8059 15.7533 17.2562C15.9346 17.1284 16.1816 17.1496 16.3385 17.3064L17.4269 18.3948C17.694 18.6619 18.1271 18.6619 18.3942 18.3948C18.6613 18.1277 18.6613 17.6946 18.3942 17.4275L17.3057 16.339C17.1488 16.1821 17.1276 15.9352 17.2554 15.7539C17.8049 14.9742 18.1787 14.0625 18.3199 13.0758C18.352 12.8512 18.5444 12.6844 18.7713 12.6844H20.3593C20.737 12.6844 21.0433 12.3781 21.0433 12.0004C21.0433 11.6226 20.737 11.3164 20.3593 11.3164H18.7057C18.4888 11.3164 18.3019 11.1636 18.2588 10.951C18.0687 10.0143 17.667 9.15394 17.1052 8.4221C16.9658 8.24055 16.9826 7.98383 17.1445 7.822L18.394 6.57249C18.6611 6.30537 18.6611 5.87229 18.394 5.60517C18.1269 5.33805 17.6938 5.33805 17.4267 5.60517L16.1114 6.92044C15.9595 7.07232 15.7222 7.09762 15.5417 6.98117C14.81 6.50908 13.9727 6.18719 13.0731 6.05866C12.8384 6.02513 12.6686 5.8174 12.6824 5.58076C12.6831 5.56734 12.6835 5.55375 12.6835 5.54001V3.64001C12.6835 3.26224 12.3773 2.95601 11.9995 2.95601Z" fill="#36393C"/>
<path fill-rule="evenodd" clip-rule="evenodd" d="M14.1759 8.53537C14.4327 8.32592 14.8106 8.36429 15.0201 8.62107L15.6775 9.42713C16.2019 10.07 15.9412 11.0378 15.1649 11.3304C15.1622 11.3313 15.161 11.3321 15.1607 11.3324L15.1596 11.3333C15.1589 11.3341 15.1575 11.3361 15.1565 11.3393C15.1555 11.3426 15.1555 11.345 15.1557 11.3461L15.1561 11.3474C15.1562 11.3478 15.1568 11.3491 15.1584 11.3514L15.7186 12.14C15.9105 12.4102 15.8471 12.7848 15.577 12.9767C15.3068 13.1686 14.9322 13.1051 14.7403 12.835L14.1801 12.0464C13.7192 11.3975 13.997 10.488 14.7418 10.2074C14.7447 10.2063 14.746 10.2054 14.7463 10.2052L14.7472 10.2045C14.7478 10.2037 14.7493 10.2016 14.7503 10.198C14.7513 10.1944 14.751 10.1918 14.7509 10.1909L14.7505 10.1898C14.7503 10.1895 14.7497 10.1881 14.7476 10.1856L14.0902 9.37955C13.8807 9.12277 13.9191 8.74481 14.1759 8.53537Z" fill="#36393C"/>
<path fill-rule="evenodd" clip-rule="evenodd" d="M10.5 11.5C10.5 10.9477 10.0523 10.5 9.5 10.5C8.94772 10.5 8.5 10.9477 8.5 11.5C8.5 12.0523 8.94772 12.5 9.5 12.5C10.0523 12.5 10.5 12.0523 10.5 11.5ZM9.5 9.5C10.6046 9.5 11.5 10.3954 11.5 11.5C11.5 12.6046 10.6046 13.5 9.5 13.5C8.39543 13.5 7.5 12.6046 7.5 11.5C7.5 10.3954 8.39543 9.5 9.5 9.5Z" fill="#36393C"/>
<path fill-rule="evenodd" clip-rule="evenodd" d="M13 14.75C13 14.6119 12.8881 14.5 12.75 14.5C12.6119 14.5 12.5 14.6119 12.5 14.75C12.5 14.8881 12.6119 15 12.75 15C12.8881 15 13 14.8881 13 14.75ZM12.75 13.5C13.4404 13.5 14 14.0596 14 14.75C14 15.4404 13.4404 16 12.75 16C12.0596 16 11.5 15.4404 11.5 14.75C11.5 14.0596 12.0596 13.5 12.75 13.5Z" fill="#36393C"/>
</svg>
