<svg width="36" height="36" viewBox="0 0 36 36" fill="none" xmlns="http://www.w3.org/2000/svg">
<circle cx="18" cy="18" r="18" fill="#D9F4E5"/>
<path fill-rule="evenodd" clip-rule="evenodd" d="M16.2445 8.804C16.2445 7.83441 17.0305 7.0484 18.0001 7.0484C18.9697 7.0484 19.7557 7.83441 19.7557 8.804V10.5457C20.5904 10.7134 21.377 11.0141 22.0924 11.4244L23.2605 10.2563C23.9462 9.57071 25.0577 9.57071 25.7433 10.2563C26.4289 10.9419 26.4289 12.0535 25.7433 12.7391L24.6711 13.8113C25.1697 14.5428 25.5476 15.3635 25.7757 16.2448H27.1958C28.1654 16.2448 28.9514 17.0308 28.9514 18.0004C28.9514 18.97 28.1654 19.756 27.1958 19.756H25.8716C25.6833 20.6936 25.3273 21.5704 24.8365 22.3538L25.7436 23.2609C26.4292 23.9465 26.4292 25.058 25.7436 25.7436C25.0579 26.4292 23.9464 26.4292 23.2608 25.7436L22.3539 24.8368C21.5705 25.3278 20.6935 25.6839 19.7558 25.8723V27.1953C19.7558 28.1649 18.9698 28.9509 18.0002 28.9509C17.0306 28.9509 16.2446 28.1649 16.2446 27.1953V25.7768C15.363 25.5487 14.542 25.1708 13.8104 24.6721L12.7381 25.7443C12.0525 26.4299 10.941 26.4299 10.2554 25.7443C9.56975 25.0587 9.56975 23.9471 10.2554 23.2615L11.4235 22.0934C11.013 21.3778 10.7123 20.591 10.5447 19.756H8.80345C7.83386 19.756 7.04785 18.97 7.04785 18.0004C7.04785 17.0308 7.83386 16.2448 8.80345 16.2448H10.6405C10.8427 15.4636 11.1626 14.7299 11.58 14.0639L10.2555 12.7394C9.56986 12.0538 9.56986 10.9422 10.2555 10.2566C10.9411 9.57103 12.0527 9.57103 12.7383 10.2566L14.0627 11.5811C14.729 11.1635 15.463 10.8435 16.2445 10.6413V8.804ZM18.0001 8.0516C17.5845 8.0516 17.2477 8.38846 17.2477 8.804V10.894C17.2477 10.9237 17.2494 10.9529 17.2527 10.9813C17.2824 11.2402 17.1089 11.4787 16.8535 11.5302C15.9092 11.7206 15.0355 12.1064 14.2762 12.6439C14.0529 12.802 13.7441 12.752 13.5821 12.5315C13.5598 12.5011 13.5347 12.4718 13.5067 12.4439L12.0289 10.966C11.7351 10.6722 11.2587 10.6722 10.9648 10.966C10.671 11.2598 10.671 11.7362 10.9648 12.0301L12.4427 13.5079C12.4706 13.5359 12.5 13.5609 12.5304 13.5833C12.7509 13.7453 12.8009 14.054 12.6428 14.2773C12.1055 15.0365 11.7198 15.9099 11.5294 16.8538C11.4779 17.1092 11.2394 17.2826 10.9806 17.2529C10.9522 17.2497 10.9231 17.248 10.8935 17.248H8.80345C8.38791 17.248 8.05105 17.5848 8.05105 18.0004C8.05105 18.4159 8.38791 18.7528 8.80345 18.7528H10.8935C10.9084 18.7528 10.9233 18.7524 10.938 18.7515C11.1983 18.7365 11.4266 18.9233 11.4635 19.1814C11.6048 20.1712 11.959 21.0924 12.4784 21.8975C12.6064 22.096 12.5786 22.357 12.4116 22.5241L10.9647 23.9709C10.6709 24.2647 10.6709 24.7411 10.9647 25.035C11.2586 25.3288 11.7349 25.3288 12.0288 25.035L13.4033 23.6605C13.5813 23.4824 13.8637 23.464 14.0634 23.6173C14.8686 24.2353 15.8152 24.6773 16.8459 24.8863C17.0797 24.9338 17.2478 25.1393 17.2478 25.3779V27.1953C17.2478 27.6108 17.5846 27.9477 18.0002 27.9477C18.4157 27.9477 18.7526 27.6108 18.7526 27.1953V25.4498C18.7526 25.2003 18.936 24.9886 19.1831 24.9533C20.2686 24.7978 21.2715 24.3865 22.1292 23.7818C22.3287 23.6412 22.6004 23.6645 22.7729 23.8371L23.9701 25.0343C24.264 25.3281 24.7404 25.3281 25.0342 25.0343C25.328 24.7404 25.328 24.2641 25.0342 23.9702L23.8368 22.7729C23.6643 22.6003 23.641 22.3287 23.7815 22.1292C24.386 21.2716 24.7971 20.2687 24.9524 19.1833C24.9878 18.9363 25.1994 18.7528 25.449 18.7528H27.1958C27.6113 18.7528 27.9482 18.4159 27.9482 18.0004C27.9482 17.5848 27.6113 17.248 27.1958 17.248H25.3769C25.1383 17.248 24.9327 17.08 24.8853 16.8461C24.6761 15.8157 24.2343 14.8693 23.6163 14.0643C23.463 13.8646 23.4815 13.5822 23.6595 13.4042L25.034 12.0297C25.3278 11.7359 25.3278 11.2595 25.034 10.9657C24.7401 10.6718 24.2637 10.6718 23.9699 10.9657L22.5231 12.4125C22.3561 12.5795 22.095 12.6074 21.8965 12.4793C21.0916 11.96 20.1706 11.6059 19.181 11.4645C18.9229 11.4276 18.736 11.1991 18.7512 10.9388C18.752 10.9241 18.7525 10.9091 18.7525 10.894V8.804C18.7525 8.38846 18.4156 8.0516 18.0001 8.0516Z" fill="#40C97F"/>
<path fill-rule="evenodd" clip-rule="evenodd" d="M20.5932 14.3889C20.8757 14.1585 21.2914 14.2007 21.5218 14.4831L22.2451 15.3698C22.8219 16.077 22.5351 17.1416 21.6811 17.4634C21.6782 17.4645 21.6769 17.4653 21.6765 17.4656L21.6753 17.4666C21.6745 17.4675 21.673 17.4696 21.6719 17.4732C21.6708 17.4768 21.6709 17.4795 21.671 17.4807L21.6714 17.4821C21.6716 17.4826 21.6722 17.484 21.674 17.4865L22.2902 18.354C22.5013 18.6512 22.4316 19.0632 22.1344 19.2743C21.8372 19.4854 21.4252 19.4156 21.2141 19.1185L20.5979 18.251C20.0909 17.5372 20.3964 16.5368 21.2157 16.2281C21.219 16.2269 21.2204 16.2259 21.2207 16.2257L21.2217 16.2249C21.2224 16.2241 21.224 16.2218 21.2251 16.2178C21.2262 16.2138 21.2259 16.211 21.2257 16.2099L21.2253 16.2088C21.2251 16.2084 21.2244 16.2068 21.2222 16.2041L20.499 15.3175C20.2686 15.035 20.3108 14.6193 20.5932 14.3889Z" fill="#40C97F"/>
<path fill-rule="evenodd" clip-rule="evenodd" d="M16.5504 17.65C16.5504 17.0425 16.0579 16.55 15.4504 16.55C14.8429 16.55 14.3504 17.0425 14.3504 17.65C14.3504 18.2575 14.8429 18.75 15.4504 18.75C16.0579 18.75 16.5504 18.2575 16.5504 17.65ZM15.4504 15.45C16.6654 15.45 17.6504 16.435 17.6504 17.65C17.6504 18.865 16.6654 19.85 15.4504 19.85C14.2354 19.85 13.2504 18.865 13.2504 17.65C13.2504 16.435 14.2354 15.45 15.4504 15.45Z" fill="#40C97F"/>
<path fill-rule="evenodd" clip-rule="evenodd" d="M19.3004 21.225C19.3004 21.0731 19.1773 20.95 19.0254 20.95C18.8735 20.95 18.7504 21.0731 18.7504 21.225C18.7504 21.3769 18.8735 21.5 19.0254 21.5C19.1773 21.5 19.3004 21.3769 19.3004 21.225ZM19.0254 19.85C19.7848 19.85 20.4004 20.4656 20.4004 21.225C20.4004 21.9844 19.7848 22.6 19.0254 22.6C18.266 22.6 17.6504 21.9844 17.6504 21.225C17.6504 20.4656 18.266 19.85 19.0254 19.85Z" fill="#40C97F"/>
</svg>
