<svg width="36" height="36" viewBox="0 0 36 36" fill="none" xmlns="http://www.w3.org/2000/svg">
<circle cx="18" cy="18" r="18" fill="#D9F4E5"/>
<g clip-path="url(#clip0_3168_4765)">
<path fill-rule="evenodd" clip-rule="evenodd" d="M20.6889 8.84375C20.7002 9.83851 20.6734 11.6776 20.353 13.0015C20.2026 13.6231 19.7816 14.2268 19.3164 14.7614C18.8365 15.313 18.2354 15.8733 17.6205 16.4067C17.1009 16.8574 16.5557 17.3024 16.0498 17.7153C15.9561 17.7918 15.8636 17.8672 15.773 17.9414C15.1836 18.4236 14.6778 18.8448 14.3185 19.1926C14.3027 19.2079 14.2853 19.2282 14.2653 19.2583L13.5222 20.3729C13.1512 20.9293 12.5268 21.2635 11.8581 21.2635H10.625C9.31332 21.2635 8.25 22.3268 8.25 23.6385V27.1562H8.81996V25.3456C8.81996 23.8959 9.99522 22.7206 11.445 22.7206H12.1787C12.8294 22.7206 13.3936 23.0342 13.7826 23.4416C14.2236 23.9036 14.9923 24.554 15.9733 24.816C18.6086 25.5195 21.3027 24.8222 23.172 22.4187C25.1229 19.9105 25.9251 16.8968 25.1104 13.9096C24.8483 12.9484 24.4269 12.3942 24.026 12.0648C23.6187 11.7302 23.1859 11.59 22.8538 11.5333C22.2288 11.4267 21.5354 10.8899 21.5354 10.0568V8.84375H20.6889ZM19.1877 8.75861C19.1764 7.99387 19.7893 7.34375 20.575 7.34375H21.6604C22.4198 7.34375 23.0354 7.95936 23.0354 8.71875V10.0211C23.0422 10.0269 23.0516 10.0336 23.0634 10.0398C23.0788 10.0478 23.0939 10.0526 23.1061 10.0547C23.6258 10.1433 24.3211 10.3659 24.9782 10.9058C25.6419 11.4511 26.2217 12.2833 26.5575 13.5149C27.5171 17.0332 26.5451 20.5252 24.356 23.3397C22.0854 26.259 18.753 27.1106 15.5864 26.2652C14.2234 25.9013 13.2245 25.0293 12.6977 24.4775C12.5285 24.3003 12.3363 24.2206 12.1787 24.2206H11.445C10.8236 24.2206 10.32 24.7243 10.32 25.3456V27.2812C10.32 28.0406 9.70436 28.6563 8.94496 28.6563H8.125C7.36561 28.6563 6.75 28.0406 6.75 27.2812V23.6385C6.75 21.4984 8.48489 19.7635 10.625 19.7635H11.8581C12.0252 19.7635 12.1814 19.68 12.2741 19.5409L13.0172 18.4262C13.0885 18.3193 13.1728 18.214 13.2752 18.1148C13.6871 17.7161 14.2421 17.2558 14.8232 16.7804C14.9165 16.7041 15.0106 16.6272 15.1055 16.5498C15.6117 16.1367 16.1366 15.7082 16.6375 15.2736C17.2333 14.7568 17.7732 14.25 18.1848 13.7768C18.6112 13.2867 18.8324 12.908 18.8951 12.6487C19.1773 11.4826 19.202 9.7317 19.1877 8.75861Z" fill="#40C97F"/>
<path fill-rule="evenodd" clip-rule="evenodd" d="M19.2623 22.1349C19.1843 21.7281 19.4508 21.3351 19.8576 21.257C20.3787 21.1571 20.8675 20.9175 21.2703 20.5356C21.6731 20.1538 21.9384 19.6784 22.066 19.1634C22.1656 18.7613 22.5723 18.5161 22.9743 18.6157C23.3764 18.7153 23.6216 19.122 23.522 19.524C23.3286 20.3045 22.9223 21.0364 22.3023 21.6242C21.6823 22.212 20.9298 22.5787 20.1402 22.7302C19.7334 22.8082 19.3403 22.5417 19.2623 22.1349Z" fill="#40C97F"/>
</g>
<defs>
<clipPath id="clip0_3168_4765">
<rect width="30" height="30" fill="white" transform="translate(3 3)"/>
</clipPath>
</defs>
</svg>
