<svg width="24" height="24" viewBox="0 0 24 24" fill="none" xmlns="http://www.w3.org/2000/svg">
<g clip-path="url(#clip0_2967_12608)">
<path fill-rule="evenodd" clip-rule="evenodd" d="M14.1511 4.67498C14.1601 5.47079 14.1387 6.94206 13.8824 8.00116C13.7621 8.49846 13.4253 8.98139 13.0532 9.40908C12.6692 9.85036 12.1883 10.2986 11.6964 10.7253C11.2807 11.0859 10.8446 11.4419 10.4399 11.7722C10.3649 11.8334 10.2909 11.8938 10.2184 11.9531C9.74685 12.3388 9.34226 12.6758 9.05483 12.9541C9.04216 12.9663 9.02825 12.9825 9.01221 13.0066L8.41774 13.8983C8.12099 14.3434 7.62142 14.6108 7.08646 14.6108H6.1C5.05066 14.6108 4.2 15.4615 4.2 16.5108V19.325H4.65597V17.8765C4.65597 16.7167 5.59617 15.7765 6.75597 15.7765H7.34295C7.86351 15.7765 8.31485 16.0273 8.62606 16.3533C8.97891 16.7229 9.59381 17.2432 10.3787 17.4527C12.4868 18.0156 14.6421 17.4577 16.1376 15.535C17.6983 13.5283 18.3401 11.1174 17.6883 8.72762C17.4786 7.95872 17.1415 7.51534 16.8208 7.25185C16.4949 6.9841 16.1487 6.87194 15.8831 6.82661C15.383 6.7413 14.8284 6.31188 14.8284 5.64545V4.67498H14.1511ZM12.9502 4.60686C12.9411 3.99507 13.4315 3.47498 14.06 3.47498H14.9284C15.5359 3.47498 16.0284 3.96746 16.0284 4.57498V5.61682C16.0338 5.62153 16.0413 5.62689 16.0507 5.6318C16.0631 5.63825 16.0751 5.64204 16.0849 5.64371C16.5006 5.71464 17.0568 5.8927 17.5826 6.32465C18.1135 6.76086 18.5773 7.42665 18.846 8.41188C19.6137 11.2265 18.836 14.0201 17.0848 16.2717C15.2683 18.6072 12.6024 19.2885 10.0691 18.6121C8.9787 18.321 8.17961 17.6234 7.75813 17.182C7.62281 17.0402 7.46901 16.9765 7.34295 16.9765H6.75597C6.25891 16.9765 5.85597 17.3794 5.85597 17.8765V19.425C5.85597 20.0325 5.36348 20.525 4.75597 20.525H4.1C3.49249 20.525 3 20.0325 3 19.425V16.5108C3 14.7987 4.38792 13.4108 6.1 13.4108H7.08646C7.2202 13.4108 7.34509 13.344 7.41928 13.2327L8.01375 12.341C8.07077 12.2554 8.13823 12.1712 8.22019 12.0919C8.5497 11.7729 8.99367 11.4046 9.4586 11.0243C9.53318 10.9632 9.60851 10.9018 9.68437 10.8398C10.0893 10.5093 10.5092 10.1666 10.91 9.81889C11.3867 9.40539 11.8185 8.99994 12.1478 8.62142C12.489 8.22932 12.6659 7.92634 12.7161 7.71894C12.9418 6.78607 12.9616 5.38533 12.9502 4.60686Z" fill="#36393C"/>
<path fill-rule="evenodd" clip-rule="evenodd" d="M13.01 15.3079C12.9476 14.9824 13.1608 14.668 13.4863 14.6056C13.9031 14.5256 14.2942 14.3339 14.6164 14.0285C14.9386 13.723 15.1509 13.3427 15.253 12.9307C15.3327 12.609 15.658 12.4129 15.9796 12.4925C16.3013 12.5722 16.4975 12.8976 16.4178 13.2192C16.2631 13.8436 15.938 14.4291 15.442 14.8993C14.946 15.3695 14.3441 15.663 13.7123 15.7841C13.3869 15.8465 13.0725 15.6333 13.01 15.3079Z" fill="#36393C"/>
</g>
<defs>
<clipPath id="clip0_2967_12608">
<rect width="24" height="24" fill="white"/>
</clipPath>
</defs>
</svg>
