<svg width="36" height="36" viewBox="0 0 36 36" fill="none" xmlns="http://www.w3.org/2000/svg">
<circle cx="18" cy="18" r="18" fill="#D9F4E5"/>
<g clip-path="url(#clip0_3168_4772)">
<path fill-rule="evenodd" clip-rule="evenodd" d="M18.955 8.56447C18.5313 8.08843 17.8225 8.08843 17.3989 8.56446C16.253 9.85212 14.5642 11.8897 13.166 14.1404C11.752 16.4166 10.7074 18.7984 10.7074 20.7999C10.7074 24.6145 14.0172 27.7926 18.1769 27.7926C22.3366 27.7926 25.6462 24.6146 25.6462 20.7999C25.6462 18.7984 24.6016 16.4166 23.1878 14.1405C21.7896 11.8897 20.1009 9.85213 18.955 8.56447ZM16.3101 7.59556C17.3135 6.46814 19.0404 6.46815 20.0437 7.59558C21.2169 8.91384 22.9659 11.0212 24.4258 13.3714C25.8699 15.6962 27.1036 18.3715 27.1036 20.7999C27.1036 25.5005 23.058 29.25 18.1769 29.25C13.2958 29.25 9.25 25.5005 9.25 20.7999C9.25 18.3714 10.4838 15.6962 11.928 13.3714C13.3879 11.0212 15.137 8.91381 16.3101 7.59556ZM23.2206 20.1058C23.604 20.2283 23.8154 20.6384 23.6929 21.0218C23.0093 23.1606 21.2985 24.8541 19.134 25.589C18.7529 25.7184 18.3391 25.5144 18.2097 25.1333C18.0803 24.7522 18.2843 24.3383 18.6654 24.209C20.4122 23.6158 21.7681 22.2568 22.3046 20.5781C22.4271 20.1947 22.8372 19.9833 23.2206 20.1058Z" fill="#40C97F"/>
</g>
<defs>
<clipPath id="clip0_3168_4772">
<rect width="30" height="30" fill="white" transform="translate(3 3)"/>
</clipPath>
</defs>
</svg>
