<svg width="24" height="24" viewBox="0 0 24 24" fill="none" xmlns="http://www.w3.org/2000/svg">
<g clip-path="url(#clip0_2967_12607)">
<path fill-rule="evenodd" clip-rule="evenodd" d="M12.764 4.45158C12.4251 4.07075 11.858 4.07074 11.5191 4.45157C10.6024 5.4817 9.25133 7.11173 8.13277 8.91236C7.00162 10.7333 6.16595 12.6387 6.16595 14.2399C6.16595 17.2916 8.81375 19.834 12.1415 19.834C15.4693 19.834 18.117 17.2917 18.117 14.2399C18.117 12.6387 17.2813 10.7333 16.1502 8.91236C15.0317 7.11174 13.6807 5.48171 12.764 4.45158ZM10.6481 3.67645C11.4508 2.77451 12.8323 2.77452 13.635 3.67647C14.5735 4.73107 15.9727 6.41699 17.1406 8.29713C18.2959 10.157 19.2829 12.2972 19.2829 14.2399C19.2829 18.0004 16.0464 21 12.1415 21C8.23662 21 5 18.0004 5 14.2399C5 12.2972 5.98701 10.157 7.14236 8.29711C8.31031 6.41696 9.70959 4.73105 10.6481 3.67645ZM16.1765 13.6846C16.4832 13.7827 16.6523 14.1107 16.5543 14.4174C16.0074 16.1285 14.6388 17.4833 12.9072 18.0712C12.6023 18.1747 12.2713 18.0115 12.1677 17.7066C12.0642 17.4017 12.2275 17.0707 12.5323 16.9672C13.9298 16.4927 15.0145 15.4055 15.4437 14.0625C15.5417 13.7558 15.8698 13.5866 16.1765 13.6846Z" fill="#36393C"/>
</g>
<defs>
<clipPath id="clip0_2967_12607">
<rect width="24" height="24" fill="white"/>
</clipPath>
</defs>
</svg>
