<svg width="36" height="36" viewBox="0 0 36 36" fill="none" xmlns="http://www.w3.org/2000/svg">
<circle cx="18" cy="18" r="18" fill="#D9F4E5"/>
<g clip-path="url(#clip0_3168_4734)">
<path fill-rule="evenodd" clip-rule="evenodd" d="M6.90004 24.8112C7.14857 24.4798 7.61867 24.4126 7.95004 24.6612L9.61671 25.9112C10.3377 26.4519 11.3291 26.4519 12.05 25.9112C13.3044 24.9704 15.0291 24.9704 16.2834 25.9112C17.0044 26.4519 17.9957 26.4519 18.7167 25.9112C19.971 24.9704 21.6957 24.9704 22.95 25.9112C23.671 26.4519 24.6624 26.4519 25.3834 25.9112L27.05 24.6612C27.3814 24.4126 27.8515 24.4798 28.1 24.8112C28.3486 25.1425 28.2814 25.6126 27.95 25.8612L26.2834 27.1112C25.0291 28.0519 23.3044 28.0519 22.05 27.1112C21.3291 26.5704 20.3377 26.5704 19.6167 27.1112C18.3624 28.0519 16.6377 28.0519 15.3834 27.1112C14.6624 26.5704 13.671 26.5704 12.95 27.1112C11.6957 28.0519 9.97103 28.0519 8.71671 27.1112L7.05004 25.8612C6.71867 25.6126 6.65152 25.1425 6.90004 24.8112Z" fill="#40C97F"/>
<path fill-rule="evenodd" clip-rule="evenodd" d="M6.75 22.7611C6.75 22.3469 7.08579 22.0111 7.5 22.0111H27.5C27.9142 22.0111 28.25 22.3469 28.25 22.7611C28.25 23.1753 27.9142 23.5111 27.5 23.5111H7.5C7.08579 23.5111 6.75 23.1753 6.75 22.7611Z" fill="#40C97F"/>
<path fill-rule="evenodd" clip-rule="evenodd" d="M10.0219 9.70615C10.265 9.36483 10.7319 9.28137 11.0646 9.51973L15.2727 12.5343C15.8348 12.9369 15.9988 13.7083 15.6537 14.3264L14.1154 17.0819L17.0696 19.1982C17.4024 19.4365 17.475 19.9065 17.2319 20.2478C16.9887 20.5891 16.5219 20.6726 16.1891 20.4342L13.1452 18.2536C12.5831 17.851 12.4191 17.0795 12.7642 16.4614L14.3025 13.706L10.1841 10.7558C9.85138 10.5174 9.77875 10.0475 10.0219 9.70615Z" fill="#40C97F"/>
<path fill-rule="evenodd" clip-rule="evenodd" d="M19.3359 7.03676C19.701 6.88765 20.1317 7.091 20.298 7.49096L22.3902 12.5237C22.6808 13.2227 22.4268 14.0042 21.8093 14.3106L19.1986 15.6062L20.6621 19.1267C20.8284 19.5266 20.6672 19.9717 20.3021 20.1208C19.937 20.27 19.5062 20.0666 19.34 19.6666L17.8295 16.0333C17.5389 15.3342 17.7929 14.5528 18.4104 14.2464L21.0211 12.9507L18.9759 8.03094C18.8096 7.63099 18.9708 7.18588 19.3359 7.03676Z" fill="#40C97F"/>
</g>
<defs>
<clipPath id="clip0_3168_4734">
<rect width="30" height="30" fill="white" transform="translate(3 3)"/>
</clipPath>
</defs>
</svg>
