<svg width="24" height="24" viewBox="0 0 24 24" fill="none" xmlns="http://www.w3.org/2000/svg">
<g clip-path="url(#clip0_2967_12601)">
<path fill-rule="evenodd" clip-rule="evenodd" d="M3.12004 17.4489C3.31886 17.1838 3.69494 17.1301 3.96004 17.3289L5.29337 18.3289C5.87016 18.7615 6.66325 18.7615 7.24004 18.3289C8.24349 17.5763 9.62325 17.5763 10.6267 18.3289C11.2035 18.7615 11.9966 18.7615 12.5734 18.3289C13.5768 17.5763 14.9566 17.5763 15.96 18.3289C16.5368 18.7615 17.3299 18.7615 17.9067 18.3289L19.24 17.3289C19.5051 17.1301 19.8812 17.1838 20.08 17.4489C20.2789 17.714 20.2251 18.0901 19.96 18.2889L18.6267 19.2889C17.6232 20.0415 16.2435 20.0415 15.24 19.2889C14.6632 18.8563 13.8702 18.8563 13.2934 19.2889C12.2899 20.0415 10.9102 20.0415 9.9067 19.2889C9.32991 18.8563 8.53683 18.8563 7.96004 19.2889C6.95658 20.0415 5.57683 20.0415 4.57337 19.2889L3.24004 18.2889C2.97494 18.0901 2.92121 17.714 3.12004 17.4489Z" fill="#36393C"/>
<path fill-rule="evenodd" clip-rule="evenodd" d="M3 15.8089C3 15.4775 3.26863 15.2089 3.6 15.2089H19.6C19.9314 15.2089 20.2 15.4775 20.2 15.8089C20.2 16.1402 19.9314 16.4089 19.6 16.4089H3.6C3.26863 16.4089 3 16.1402 3 15.8089Z" fill="#36393C"/>
<path fill-rule="evenodd" clip-rule="evenodd" d="M5.6177 5.3649C5.81221 5.09184 6.18568 5.02507 6.45187 5.21576L9.81836 7.62739C10.268 7.94951 10.3992 8.56665 10.1232 9.06113L8.89252 11.2655L11.2559 12.9585C11.5221 13.1492 11.5802 13.5251 11.3857 13.7982C11.1912 14.0712 10.8177 14.138 10.5515 13.9473L8.11636 12.2029C7.6667 11.8808 7.53551 11.2636 7.81157 10.7691L9.0422 8.5648L5.74749 6.20458C5.4813 6.01389 5.42319 5.63795 5.6177 5.3649Z" fill="#36393C"/>
<path fill-rule="evenodd" clip-rule="evenodd" d="M13.0685 3.22939C13.3606 3.1101 13.7052 3.27278 13.8382 3.59274L15.512 7.61893C15.7444 8.17818 15.5412 8.8033 15.0473 9.04844L12.9587 10.085L14.1295 12.9013C14.2625 13.2213 14.1336 13.5774 13.8415 13.6966C13.5494 13.8159 13.2048 13.6533 13.0718 13.3333L11.8634 10.4266C11.6309 9.86734 11.8341 9.24222 12.3281 8.99708L14.4167 7.96056L12.7805 4.02473C12.6475 3.70476 12.7764 3.34868 13.0685 3.22939Z" fill="#36393C"/>
</g>
<defs>
<clipPath id="clip0_2967_12601">
<rect width="24" height="24" fill="white"/>
</clipPath>
</defs>
</svg>
