<svg width="24" height="24" viewBox="0 0 24 24" fill="none" xmlns="http://www.w3.org/2000/svg">
<g clip-path="url(#clip0_2967_12585)">
<path fill-rule="evenodd" clip-rule="evenodd" d="M4.89811 4.17574C5.13243 3.94142 5.51233 3.94142 5.74664 4.17574L19.8091 18.2382C20.0435 18.4726 20.0435 18.8525 19.8091 19.0868C19.5748 19.3211 19.1949 19.3211 18.9606 19.0868L16.9698 17.096C16.9467 17.1163 16.9218 17.1351 16.8951 17.1522C15.5096 18.036 13.7323 18.6546 11.5001 18.6181C5.44981 18.5192 2.86073 13.9573 2.16425 12.4344C1.95175 11.9697 1.9463 11.4481 2.14292 10.9803C2.56312 9.98029 3.71079 7.71789 6.03597 6.16212L4.89811 5.02426C4.6638 4.78995 4.6638 4.41005 4.89811 4.17574ZM6.88928 7.01543C6.8563 7.05127 6.81838 7.08365 6.77576 7.11152C4.68471 8.47893 3.63436 10.5286 3.24921 11.4452C3.18123 11.6069 3.18399 11.7789 3.25554 11.9353C3.89471 13.3329 6.18589 17.331 11.5197 17.4183C13.4257 17.4494 14.9283 16.9469 16.1047 16.2309L14.037 14.1631C14.029 14.1718 14.0207 14.1804 14.0121 14.1887C13.3649 14.8144 12.4819 15.2004 11.5099 15.2004C9.52165 15.2004 7.90988 13.5887 7.90988 11.6004C7.90988 10.6155 8.30616 9.7221 8.94656 9.07271L6.88928 7.01543ZM9.79512 9.92127C9.37059 10.3547 9.10988 10.9466 9.10988 11.6004C9.10988 12.9259 10.1844 14.0004 11.5099 14.0004C12.1582 14.0004 12.7455 13.7441 13.1779 13.326C13.1817 13.3224 13.1854 13.3189 13.1892 13.3154L9.79512 9.92127ZM11.5099 5.7625C11.1408 5.7625 10.7875 5.78199 10.4494 5.81855C10.1199 5.85417 9.82397 5.61597 9.78835 5.28652C9.75273 4.95707 9.99093 4.66112 10.3204 4.6255C10.7021 4.58423 11.0984 4.5625 11.5099 4.5625C17.6937 4.5625 20.2274 9.4295 20.8814 10.9912C21.0751 11.4536 21.0686 11.9668 20.8676 12.4234C20.6864 12.835 20.3801 13.4526 19.9202 14.1411C19.7361 14.4166 19.3635 14.4908 19.088 14.3067C18.8124 14.1227 18.7383 13.7501 18.9223 13.4745C19.3358 12.8556 19.6101 12.3017 19.7693 11.94C19.8387 11.7823 19.8402 11.6114 19.7746 11.4548C19.1647 9.99837 16.925 5.7625 11.5099 5.7625Z" fill="#36393C"/>
</g>
<defs>
<clipPath id="clip0_2967_12585">
<rect width="24" height="24" fill="white"/>
</clipPath>
</defs>
</svg>
