<svg width="36" height="36" viewBox="0 0 36 36" fill="none" xmlns="http://www.w3.org/2000/svg">
<circle cx="18" cy="18" r="18" fill="#D9F4E5"/>
<g clip-path="url(#clip0_3168_4165)">
<path fill-rule="evenodd" clip-rule="evenodd" d="M9.12264 8.21967C9.41553 7.92678 9.89041 7.92678 10.1833 8.21967L27.7614 25.7978C28.0543 26.0907 28.0543 26.5656 27.7614 26.8585C27.4685 27.1513 26.9937 27.1513 26.7008 26.8585L24.2123 24.37C24.1834 24.3954 24.1523 24.4189 24.1188 24.4402C22.387 25.545 20.1654 26.3183 17.3751 26.2726C9.81226 26.149 6.57591 20.4466 5.70531 18.543C5.43968 17.9622 5.43288 17.3102 5.67864 16.7253C6.2039 15.4754 7.63849 12.6474 10.545 10.7027L9.12264 9.28033C8.82975 8.98744 8.82975 8.51256 9.12264 8.21967ZM11.6116 11.7693C11.5704 11.8141 11.523 11.8546 11.4697 11.8894C8.85589 13.5987 7.54295 16.1608 7.06151 17.3064C6.97654 17.5086 6.97999 17.7236 7.06943 17.9191C7.86838 19.6661 10.7324 24.6638 17.3996 24.7728C19.7822 24.8118 21.6604 24.1836 23.1309 23.2886L20.5462 20.7039C20.5362 20.7148 20.5259 20.7254 20.5151 20.7358C19.7061 21.5181 18.6023 22.0005 17.3873 22.0005C14.9021 22.0005 12.8873 19.9858 12.8873 17.5005C12.8873 16.2694 13.3827 15.1526 14.1832 14.3409L11.6116 11.7693ZM15.2439 15.4016C14.7132 15.9434 14.3873 16.6832 14.3873 17.5005C14.3873 19.1574 15.7305 20.5005 17.3873 20.5005C18.1978 20.5005 18.9319 20.1802 19.4724 19.6575C19.4771 19.653 19.4818 19.6486 19.4865 19.6442L15.2439 15.4016ZM17.3873 10.2031C16.9259 10.2031 16.4843 10.2275 16.0617 10.2732C15.6499 10.3177 15.28 10.02 15.2354 9.60815C15.1909 9.19634 15.4887 8.8264 15.9005 8.78188C16.3776 8.73029 16.873 8.70312 17.3873 8.70312C25.1171 8.70312 28.2843 14.7869 29.1018 16.739C29.3438 17.317 29.3357 17.9586 29.0845 18.5293C28.8581 19.0437 28.4751 19.8158 27.9002 20.6764C27.6701 21.0208 27.2044 21.1135 26.86 20.8834C26.5155 20.6533 26.4228 20.1876 26.6529 19.8432C27.1698 19.0694 27.5126 18.3772 27.7116 17.925C27.7984 17.7279 27.8002 17.5143 27.7182 17.3184C26.9558 15.498 24.1562 10.2031 17.3873 10.2031Z" fill="#40C97F"/>
</g>
<defs>
<clipPath id="clip0_3168_4165">
<rect width="30" height="30" fill="white" transform="translate(3 3)"/>
</clipPath>
</defs>
</svg>
